<?xml version="1.0" encoding="UTF-8" standalone="no"?>
<svg width="1233" height="1200" viewBox="0 0 1233 1200" version="1.1" xml:space="preserve" id="svg2"
  xmlns="http://www.w3.org/2000/svg" xmlns:svg="http://www.w3.org/2000/svg" xmlns:serif="http://www.serif.com/">
  <defs id="defs1" />
  <rect x="0" y="0" width="1233" height="1200" fill="transparent" stroke-width="0" stroke="transparent" id="rect1" />
  <rect x="0" y="0" id="backColor" fill="#FFFF00" width="304" height="1200" stroke-width="0" stroke="transparent" />
  <rect x="304" y="0" id="colorSpineTop" fill="#00FF00" width="151" height="324" stroke-width="0"
    stroke="transparent" />
  <rect x="304" y="324" id="colorSpineBottom" fill="#FF00FF" width="151" height="876" stroke-width="0"
    stroke="transparent" />
  <rect x="455" y="0" id="frontcolorTop" fill="#00FFFF" width="778" height="123" stroke-width="0"
    stroke="transparent" />
  <rect x="455" y="1136" id="frontcolorBottom" fill="#FF0000" width="778" height="64" stroke-width="0"
    stroke="transparent" />
  <path id="nfcLogoBack" fill="#FF0010"
    d="m 270.80079,1016.2734 h -67.06114 v 49.5181 h -18.98581 v -49.5181 h -62.70279 v -17.55615 h 148.74974 z m 0,0 h 17.56638 v 43.9841 c 0,14.8386 -12.03705,26.8673 -26.88409,26.8673 H 144.26461 v -17.5552 h 112.60307 c 7.69449,0 13.93311,-6.2349 13.93311,-13.9256 z m 1.19891,-5.8079 v -2.1866 c 3.75007,0 6.80028,3.0482 6.80028,6.7964 h -2.18861 c 0,-2.5417 -2.06892,-4.6098 -4.61167,-4.6098 z m 9.39536,4.6108 c 0,-5.1789 -4.21456,-9.3916 -9.39536,-9.3916 v -2.1866 c 6.38719,0 11.58388,5.1939 11.58388,11.5782 z m 4.78359,0 c 0,-7.8141 -6.36196,-14.1705 -14.17895,-14.1705 v -2.18855 c 9.02431,0 16.36747,7.33855 16.36747,16.35905 z m -167.18612,1.1971 H 56.288807 v 39.3715 c 0,7.6898 6.237687,13.9247 13.933111,13.9247 h 48.770612 v 17.5552 H 64.185218 c -14.847035,0 -26.88222,-12.0287 -26.88222,-26.8673 v -43.9841 H 19.241391 v -17.55615 h 99.751139 z m -58.347144,3.7772 h 58.347144 v 45.7409 h -18.9859 v -28.1839 H 79.631289 v 8.2001 c 0,1.3419 1.086785,2.4277 2.429593,2.4277 h 14.717155 v 17.5561 H 72.072191 c -6.31141,0 -11.426805,-5.1126 -11.426805,-11.4202 z m 61.405664,0 h 58.34715 v 34.3207 c 0,6.3076 -5.11633,11.4202 -11.42774,11.4202 h -24.70585 v -17.5561 h 14.71716 c 1.34187,0 2.43052,-1.0858 2.43052,-2.4277 v -8.2001 h -20.37533 v 49.5172 h -18.98591 z m 144.39316,0 v 34.3207 c 0,6.3076 -5.11624,11.4202 -11.4268,11.4202 h -35.49344 c -6.31057,0 -11.42774,-5.1126 -11.42774,-11.4202 v -34.3207 z m -18.98674,17.557 h -20.37543 v 8.2001 c 0,1.3419 1.08865,2.4277 2.43155,2.4277 h 15.51419 c 1.3429,0 2.42969,-1.0858 2.42969,-2.4277 z"
    style="clip-rule:evenodd;fill-rule:evenodd;stroke-width:1.0001;stroke-linejoin:round;stroke-miterlimit:2;fill-opacity:1" />
  <path id="loadingLogoBack" fill="#1000FF"
    d="m 38.00134,1177.7197 h -2.481563 v -1.6914 H 20.856183 v 1.6914 H 18.373546 V 1156.493 H 38.00134 Z m -2.481563,-4.2212 v -14.4759 H 20.856183 v 14.4759 z m 31.84854,-5.9939 H 44.454705 v -2.5437 h 22.913612 z m 28.334707,-7.9735 -1.905173,0.8243 c -0.330161,-1.5575 -0.768799,-2.8176 -1.313979,-3.78 l 1.998813,-0.8383 c 0.509702,1.0256 0.916087,2.291 1.220339,3.794 z m -7.646816,-0.7836 H 74.31845 v -2.5436 h 13.737758 z m 4.587961,1.9109 -1.891304,0.8115 c -0.339837,-1.5491 -0.778475,-2.8048 -1.314947,-3.7672 l 1.998706,-0.8383 c 0.510777,1.0256 0.912861,2.291 1.207545,3.794 z m 1.958927,5.0177 h -9.75314 c 0.0172,0.2205 0.02688,0.5963 0.02688,1.1272 0,5.6 -2.401973,9.5868 -7.204845,11.9612 L 75.72693,1176.51 c 2.182654,-0.789 3.835287,-1.9848 4.957792,-3.5885 1.122397,-1.6037 1.682628,-3.5338 1.682628,-5.7884 0,-0.6595 -0.0172,-1.1455 -0.05268,-1.457 H 71.661572 v -2.5436 h 22.941524 z m 23.370594,-6.9007 c -2.04827,2.5104 -3.66639,4.2661 -4.85663,5.2649 v 11.1497 h -2.28049 v -9.2934 c -2.19125,1.6765 -4.29757,2.9558 -6.31896,3.8358 l -1.40859,-2.063 c 2.40638,-0.971 4.84491,-2.4493 7.31784,-4.4331 2.474,-1.9848 4.37605,-3.9899 5.70939,-6.0154 z m 18.87627,1.154 -1.47514,2.2 c -2.21824,-1.9153 -4.82985,-3.2491 -7.83506,-4.0007 l 1.5161,-2.3091 c 3.16539,1.1722 5.76411,2.5425 7.7941,4.1098 z m 12.37013,2.8733 c -3.15787,4.7757 -6.28768,8.2164 -9.3918,10.3244 -3.10304,2.1089 -6.61365,3.7266 -10.53161,4.8539 l -1.56986,-2.5437 c 4.90189,-1.0813 8.83286,-2.8091 11.79281,-5.1826 2.96113,-2.3744 5.5363,-5.4672 7.72755,-9.2804 z m 28.24022,-5.8558 -1.8913,0.8104 c -0.33973,-1.5577 -0.77848,-2.8135 -1.31495,-3.7662 l 1.99882,-0.8533 c 0.50959,1.0267 0.91178,2.2964 1.20743,3.8091 z m -3.04498,1.1272 -1.12788,0.5632 1.04725,1.0588 c -0.743,4.5455 -2.32565,8.333 -4.74923,11.3627 -2.42455,3.0285 -5.8813,5.5015 -10.37132,7.4167 l -1.8913,-2.3648 c 4.08793,-1.4206 7.29204,-3.3337 9.6123,-5.7392 2.32134,-2.4066 3.87077,-5.4748 4.64913,-9.2046 h -10.22295 c -1.74402,2.5393 -3.46642,4.3668 -5.16528,5.4855 l -1.99882,-1.8007 c 3.68478,-2.5029 6.38563,-6.0763 8.10276,-10.7236 l 2.36112,1.1818 c -0.5183,1.2291 -1.07735,2.3382 -1.67628,3.3274 h 9.48436 c -0.34833,-1.4571 -0.7731,-2.6304 -1.27409,-3.519 l 2.01279,-0.8532 c 0.50959,1.0266 0.91179,2.2964 1.20744,3.809 z m 19.23858,-0.5642 -0.88599,2.5576 c -2.3966,-1.412 -5.18356,-2.2824 -8.35863,-2.6122 l 0.88598,-2.626 c 3.5234,0.7516 6.31037,1.6455 8.35864,2.6806 z m 10.73265,5.4856 c -2.53098,4.1152 -5.3803,7.3621 -8.54678,9.7398 -3.16539,2.3787 -6.98455,4.1826 -11.45737,5.4105 l -1.26012,-2.5983 c 4.65881,-1.1091 8.54355,-2.8251 11.65089,-5.1492 3.10842,-2.3232 5.60178,-5.3731 7.48018,-9.1489 z m -13.34965,1.6089 -0.96554,2.6668 c -2.11062,-1.5127 -4.85673,-2.4612 -8.23715,-2.8455 l 0.88491,-2.5575 c 3.39009,0.6508 6.16308,1.5629 8.31778,2.7362 z m 42.15322,11.8221 -2.1461,1.609 c -2.64827,-3.703 -5.74261,-6.6674 -9.28439,-8.8952 -2.87072,3.6849 -6.38993,6.8055 -10.55849,9.363 l -1.91808,-2.0212 c 3.46105,-1.8605 6.50926,-4.2939 9.14238,-7.3 2.6343,-3.006 4.68902,-6.4019 6.16523,-10.1873 h -13.76474 v -2.4194 l 16.09898,-0.028 0.73762,0.7835 c -1.00102,3.6025 -2.48593,6.8602 -4.45346,9.7753 3.81905,2.4922 7.14571,5.6 9.98105,9.3201 z m 23.51788,-17.679 h -17.53434 v -2.5436 h 17.53434 z m 2.75031,6.9286 h -9.75314 c 0.0183,0.2205 0.0269,0.5963 0.0269,1.1272 0,5.6 -2.4009,9.5868 -7.20377,11.9612 l -1.94614,-2.2545 c 2.18266,-0.789 3.83518,-1.9848 4.95769,-3.5885 1.12261,-1.6037 1.68381,-3.5338 1.68381,-5.7884 0,-0.6595 -0.0183,-1.1455 -0.0538,-1.457 h -10.65202 v -2.5436 h 22.94055 z m 27.9865,11.0534 -2.44186,1.0449 c -0.33113,-1.1735 -0.82352,-2.4377 -1.47621,-3.7941 -9.22957,0.9528 -15.45919,1.7504 -18.68802,2.3916 l -0.65807,-2.7352 3.15357,-0.3576 7.15013,-18.5322 2.28048,0.9068 -6.6803,17.2539 12.00685,-1.3478 c -1.52899,-2.9322 -2.94715,-5.0637 -4.25242,-6.3922 l 2.54819,-1.1273 c 2.45142,3.1528 4.80298,7.3825 7.05766,12.6892 z M 18.90147,1147.4404 c -0.584915,0 -1.060149,-0.4731 -1.060149,-1.0556 0,-0.5835 0.475234,-1.0566 1.060149,-1.0566 h 268.44014 c 0.58485,0 1.06015,0.4731 1.06015,1.0566 0,0.5825 -0.4753,1.0556 -1.06015,1.0556 z m 0,-40.0513 h 5.854474 l 4.53842,17.6962 h 0.08493 v -17.6962 h 4.157805 v 29.5631 h -4.794324 l -5.599655,-21.5811 h -0.08386 v 21.5811 h -4.1578 z m 18.113912,0 h 12.344393 v 4.2233 H 41.68176 v 8.2357 h 6.023274 v 4.2234 H 41.68176 v 12.8807 h -4.666378 z m 21.167489,29.9861 c -2.233194,0 -3.937389,-0.6338 -5.111509,-1.9013 -1.173045,-1.2665 -1.7601,-3.0543 -1.7601,-5.3635 v -15.8794 c 0,-2.3091 0.587055,-4.097 1.7601,-5.3634 1.17412,-1.2675 2.878315,-1.9013 5.111509,-1.9013 2.234269,0 3.938464,0.6338 5.112584,1.9013 1.173045,1.2664 1.7601,3.0543 1.7601,5.3634 v 3.125 h -4.411548 v -3.4204 c 0,-1.8307 -0.778443,-2.746 -2.333189,-2.746 -1.555811,0 -2.333189,0.9153 -2.333189,2.746 v 16.5131 c 0,1.8018 0.777378,2.7032 2.333189,2.7032 1.554746,0 2.333189,-0.9014 2.333189,-2.7032 v -4.5188 h 4.411548 v 4.1805 c 0,2.3092 -0.587055,4.097 -1.7601,5.3635 -1.17412,1.2675 -2.878315,1.9013 -5.112584,1.9013 z m 16.460257,-29.9861 h 4.66526 v 25.3398 h 7.67907 v 4.2233 h -12.34433 z m 21.167513,29.9861 c -2.290272,0 -4.043856,-0.6477 -5.259894,-1.9431 -1.216145,-1.2953 -1.824648,-3.1249 -1.824648,-5.4908 v -15.5411 c 0,-2.3659 0.608503,-4.1955 1.824648,-5.4909 1.216038,-1.2953 2.969622,-1.943 5.259894,-1.943 2.291238,0 4.043748,0.6477 5.259789,1.943 1.21614,1.2954 1.82464,3.125 1.82464,5.4909 v 15.5411 c 0,2.3659 -0.6085,4.1955 -1.82464,5.4908 -1.216041,1.2954 -2.968551,1.9431 -5.259789,1.9431 z m 0,-4.2233 c 1.611672,0 2.418099,-0.9721 2.418099,-2.9152 v -16.1331 c 0,-1.9419 -0.806427,-2.914 -2.418099,-2.914 -1.61178,0 -2.418208,0.9721 -2.418208,2.914 v 16.1331 c 0,1.9431 0.806428,2.9152 2.418208,2.9152 z m 13.744209,-25.7628 h 6.32112 l 4.8363,29.5631 h -4.66644 l -0.84825,-5.8708 v 0.085 h -5.3029 l -0.84835,5.7862 h -4.32768 z m 5.0911,19.7655 -2.07944,-14.6129 h -0.0849 l -2.03536,14.6129 z m 8.31456,-19.7655 h 7.12647 c 2.31919,0 4.05772,0.6199 5.21785,1.8585 1.15917,1.2386 1.73865,3.0543 1.73865,5.448 v 14.9502 c 0,2.3938 -0.57948,4.2094 -1.73865,5.448 -1.16013,1.2387 -2.89866,1.8584 -5.21785,1.8584 h -7.12647 z m 7.04143,25.3398 c 0.76342,0 1.35053,-0.2247 1.76014,-0.6754 0.41079,-0.4508 0.61506,-1.1831 0.61506,-2.1968 v -15.372 c 0,-1.0138 -0.20427,-1.7461 -0.61506,-2.1967 -0.40961,-0.4507 -0.99672,-0.6756 -1.76014,-0.6756 h -2.3751 v 21.1165 z m 10.18113,-25.3398 h 4.66633 v 29.5631 h -4.66633 z m 8.14469,0 h 5.85442 l 4.5384,17.6962 h 0.0849 v -17.6962 h 4.15782 v 29.5631 h -4.79427 l -5.59973,-21.5811 h -0.0839 v 21.5811 h -4.15771 z m 24.73177,29.9861 c -2.26221,0 -3.98795,-0.6413 -5.17604,-1.9217 -1.18701,-1.2814 -1.78164,-3.1185 -1.78164,-5.5122 v -15.5411 c 0,-2.3938 0.59463,-4.2308 1.78164,-5.5123 1.18809,-1.2803 2.91383,-1.9216 5.17604,-1.9216 2.26221,0 3.98677,0.6413 5.17496,1.9216 1.18808,1.2815 1.78154,3.1185 1.78154,5.5123 v 2.5339 h -4.41154 v -2.8305 c 0,-1.9419 -0.80643,-2.914 -2.4181,-2.914 -1.61178,0 -2.4181,0.9721 -2.4181,2.914 v 16.176 c 0,1.9141 0.80632,2.8723 2.4181,2.8723 1.61167,0 2.4181,-0.9582 2.4181,-2.8723 v -5.7864 h -2.33317 v -4.2232 h 6.74471 v 9.6713 c 0,2.3937 -0.59346,4.2308 -1.78154,5.5122 -1.18819,1.2804 -2.91275,1.9217 -5.17496,1.9217 z m 22.82218,0 c -2.26221,0 -3.97397,-0.6413 -5.13303,-1.9217 -1.15906,-1.2814 -1.73961,-3.1185 -1.73961,-5.5122 v -1.6894 h 4.41261 v 2.0277 c 0,1.9141 0.80536,2.8723 2.41703,2.8723 0.79245,0 1.39343,-0.2324 1.80315,-0.697 0.41068,-0.4646 0.61495,-1.2183 0.61495,-2.2599 0,-1.2386 -0.28275,-2.3295 -0.84836,-3.2726 -0.5655,-0.9432 -1.61167,-2.0769 -3.13841,-3.4001 -1.92356,-1.6893 -3.26656,-3.217 -4.02988,-4.582 -0.7645,-1.366 -1.14616,-2.9075 -1.14616,-4.6247 0,-2.337 0.59453,-4.1462 1.78154,-5.4277 1.18809,-1.2803 2.91383,-1.9216 5.17604,-1.9216 2.23426,0 3.92344,0.6413 5.0696,1.9216 1.14508,1.2815 1.71714,3.1185 1.71714,5.5123 v 1.2246 h -4.41165 v -1.5212 c 0,-1.0127 -0.19781,-1.7525 -0.59345,-2.217 -0.39563,-0.4647 -0.97629,-0.697 -1.73971,-0.697 -1.5547,0 -2.33317,0.9432 -2.33317,2.8306 0,1.0694 0.29027,2.0693 0.86986,2.9985 0.57947,0.9281 1.63317,2.0543 3.16002,3.3787 1.95151,1.6892 3.29548,3.2234 4.02988,4.6033 0.73536,1.3788 1.10315,2.9986 1.10315,4.856 0,2.4216 -0.60108,4.2801 -1.80207,5.5754 -1.20206,1.2954 -2.9493,1.9431 -5.23947,1.9431 z m 13.74432,-13.0083 -5.64155,-16.9778 h 4.96306 l 3.18152,10.8544 h 0.0849 l 3.18152,-10.8544 h 4.5384 l -5.64155,16.9778 v 12.5853 H 209.626 Z m 17.81719,13.0083 c -2.26339,0 -3.97397,-0.6413 -5.13303,-1.9217 -1.16013,-1.2814 -1.73971,-3.1185 -1.73971,-5.5122 v -1.6894 h 4.41153 v 2.0277 c 0,1.9141 0.80643,2.8723 2.41821,2.8723 0.79234,0 1.39343,-0.2324 1.80304,-0.697 0.40972,-0.4646 0.61506,-1.2183 0.61506,-2.2599 0,-1.2386 -0.28275,-2.3295 -0.84836,-3.2726 -0.5656,-0.9432 -1.61178,-2.0769 -3.13959,-3.4001 -1.92248,-1.6893 -3.26646,-3.217 -4.02988,-4.582 -0.76332,-1.366 -1.14508,-2.9075 -1.14508,-4.6247 0,-2.337 0.59356,-4.1462 1.78164,-5.4277 1.18809,-1.2803 2.91275,-1.9216 5.17496,-1.9216 2.23426,0 3.92442,0.6413 5.0695,1.9216 1.14519,1.2815 1.71821,3.1185 1.71821,5.5123 v 1.2246 h -4.41154 v -1.5212 c 0,-1.0127 -0.19781,-1.7525 -0.59355,-2.217 -0.39671,-0.4647 -0.9763,-0.697 -1.73961,-0.697 -1.55588,0 -2.33317,0.9432 -2.33317,2.8306 0,1.0694 0.29028,2.0693 0.86975,2.9985 0.57958,0.9281 1.63328,2.0543 3.16002,3.3787 1.95151,1.6892 3.29441,3.2234 4.02988,4.6033 0.73547,1.3788 1.10315,2.9986 1.10315,4.856 0,2.4216 -0.60097,4.2801 -1.80314,5.5754 -1.20206,1.2954 -2.94812,1.9431 -5.23829,1.9431 z m 13.36255,-25.7628 h -4.87931 v -4.2233 h 14.42388 v 4.2233 h -4.87823 v 25.3398 h -4.66634 z m 11.79281,-4.2233 h 12.72609 v 4.2233 h -8.05976 v 7.8129 h 6.40498 v 4.2233 h -6.40498 v 9.0803 h 8.05976 v 4.2233 h -12.72609 z m 15.39899,0 h 6.65988 l 2.96962,21.1583 h 0.0849 l 2.96866,-21.1583 h 6.66084 v 29.5631 h -4.41261 v -22.384 h -0.0839 l -3.39439,22.384 h -3.90291 l -3.39342,-22.384 h -0.0849 v 22.384 h -4.07171 z"
    style="clip-rule:evenodd;fill-rule:evenodd;stroke-width:1.0001;stroke-linejoin:round;stroke-miterlimit:2;fill-opacity:1" />
  <path id="nfcLogoSpine" fill="#FF0020"
    d="m 435.5522,36.87363 h -34.09772 v 25.177855 h -9.65347 V 36.87363 h -31.88169 v -8.926524 h 75.63288 z m 0,0 h 8.93176 v 22.364056 c 0,7.544809 -6.12033,13.660855 -13.66941,13.660855 h -59.60058 v -8.926049 h 57.25385 c 3.91231,0 7.08438,-3.170158 7.08438,-7.080591 z m 0.6096,-2.95302 v -1.111835 c 1.90675,0 3.45766,1.54992 3.45766,3.45572 h -1.11283 c 0,-1.292389 -1.05195,-2.343885 -2.34483,-2.343885 z m 4.77714,2.34436 c 0,-2.633247 -2.14293,-4.775193 -4.77714,-4.775193 v -1.111834 c 3.24761,0 5.88991,2.640844 5.88991,5.887027 z m 2.43225,0 c 0,-3.973151 -3.23479,-7.205076 -7.20939,-7.205076 v -1.112788 c 4.58848,0 8.32216,3.731303 8.32216,8.317864 z m -85.007,0.60866 h -31.88215 v 20.018746 c 0,3.909958 3.17159,7.080116 7.08439,7.080116 h 24.79776 v 8.926049 h -27.86716 c -7.54909,0 -13.66846,-6.116046 -13.66846,-13.660855 V 36.87363 h -9.18356 v -8.926524 h 50.71918 z m -29.66702,1.920531 h 29.66702 v 23.257324 h -9.65352 v -14.33033 h -10.35998 v 4.169389 c 0,0.682303 0.55258,1.234422 1.23535,1.234422 h 7.48304 v 8.926519 h -12.56187 c -3.20908,0 -5.81004,-2.599512 -5.81004,-5.806726 z m 31.22215,0 h 29.66703 v 17.450598 c 0,3.207214 -2.60143,5.806726 -5.81052,5.806726 h -12.56186 v -8.926519 h 7.48304 c 0.68229,0 1.23583,-0.552119 1.23583,-1.234422 v -4.169389 h -10.35999 v 25.177386 h -9.65353 z m 73.41775,0 v 17.450598 c 0,3.207214 -2.60139,5.806726 -5.81004,5.806726 h -18.04689 c -3.20866,0 -5.81052,-2.599512 -5.81052,-5.806726 V 38.794161 Z m -9.65395,8.926994 h -10.36003 v 4.169389 c 0,0.682303 0.55353,1.234422 1.23634,1.234422 h 7.88831 c 0.6828,0 1.23538,-0.552119 1.23538,-1.234422 z"
    style="clip-rule:evenodd;fill-rule:evenodd;stroke-width:1.0001;stroke-linejoin:round;stroke-miterlimit:2;fill-opacity:1" />
  <path id="loadingLogoSpine" fill="#2000FF"
    d="m 350.23611,104.56983 -0.008,-2.02266 1.38465,-0.005 -0.0486,-11.951891 -1.38467,0.0055 -0.008,-2.023524 17.37659,-0.07075 0.0652,15.998075 z m 3.44728,-2.03674 11.85022,-0.0483 -0.0487,-11.951899 -11.85022,0.04829 z m 5.01252,25.93888 -0.076,-18.67626 2.08225,-0.009 0.076,18.67625 z m 6.62126,23.06823 -0.68113,-1.5501 c 1.27402,-0.2743 2.30404,-0.63602 3.09008,-1.08359 l 0.69284,1.62638 c -0.83787,0.41887 -1.87239,0.75431 -3.10179,1.00731 z m 0.61611,-6.23532 -0.0457,-11.19725 2.08225,-0.009 0.0456,11.19726 z m -1.54909,3.7459 -0.67056,-1.53885 c 1.26697,-0.28215 2.2935,-0.64387 3.07957,-1.08433 l 0.69283,1.62629 c -0.83786,0.41974 -1.8724,0.75169 -3.10184,0.99689 z m -4.10102,1.61339 -0.0324,-7.94951 c -0.18047,0.0147 -0.48804,0.0239 -0.92272,0.0256 -4.58428,0.0186 -7.85584,-1.92581 -9.81557,-5.83258 l 1.83916,-1.59289 c 0.65314,1.77639 1.63753,3.11942 2.95405,4.02899 1.31652,0.9095 2.89847,1.35968 4.7441,1.35216 0.53984,-0.003 0.93766,-0.0179 1.19256,-0.0478 l -0.0354,-8.68303 2.08225,-0.009 0.0761,18.69899 z m 5.72665,19.02571 c -2.06187,-1.66112 -3.50448,-2.97415 -4.32609,-3.94095 l -9.12735,0.0371 -0.008,-1.85876 7.60774,-0.031 c -1.37968,-1.78043 -2.43393,-3.49298 -3.16102,-5.13762 l 1.68408,-1.15498 c 0.80285,1.95814 2.02122,3.94078 3.65333,5.94978 1.63301,2.00987 3.28075,3.5535 4.94327,4.63351 z m -0.88203,15.38937 -1.80584,-1.195 c 1.56045,-1.81442 2.64374,-3.94752 3.24897,-6.39949 l 1.89535,1.22803 c -0.94912,2.58393 -2.06223,4.70665 -3.33848,6.36646 z m -2.3111,10.09213 c -3.91997,-2.55797 -6.747,-5.09752 -8.48286,-7.62056 -1.73676,-2.52217 -3.07261,-5.37818 -4.00843,-8.56785 l 2.07704,-1.28802 c 0.9014,3.9918 2.32892,7.19006 4.28165,9.5947 1.9536,2.40562 4.49399,4.49426 7.62288,6.26757 z m 4.88748,22.99829 -0.66968,-1.53884 c 1.27399,-0.2821 2.30051,-0.64389 3.0787,-1.08433 l 0.7051,1.62632 c -0.83875,0.41879 -1.87679,0.75084 -3.11412,0.99685 z m -0.93292,-2.47812 -0.46472,-0.91742 -0.86324,0.85711 c -3.72353,-0.59044 -6.82936,-1.86778 -9.31753,-3.83307 -2.48729,-1.96608 -4.52317,-4.77533 -6.1059,-8.42864 l 1.92962,-1.54943 c 1.17651,3.32722 2.75321,5.93241 4.73011,7.81557 1.97778,1.88404 4.49459,3.13671 7.55044,3.75869 l -0.0339,-8.33245 c -2.08454,-1.41303 -3.58621,-2.81082 -4.50765,-4.19178 l 1.46743,-1.63519 c 2.06117,2.99502 4.99545,5.18449 8.80545,6.56858 l -0.95967,1.92842 c -1.00777,-0.41834 -1.91755,-0.87031 -2.7293,-1.35519 l 0.0315,7.73044 c 1.19158,-0.28878 2.15067,-0.6389 2.8764,-1.05021 l 0.70514,1.63772 c -0.83875,0.41878 -1.87679,0.75084 -3.11411,0.99685 z m 0.52573,15.67896 -2.09657,-0.71362 c 1.14796,-1.95812 1.85119,-4.23259 2.11057,-6.8216 l 2.15267,0.71339 c -0.60351,2.87433 -1.32602,5.14888 -2.16667,6.82183 z m -4.45488,8.76618 c -3.37714,-2.04922 -6.04464,-4.36079 -8.00155,-6.93377 -1.9578,-2.57209 -3.44716,-5.67897 -4.4672,-9.32054 l 2.12275,-1.03576 c 0.92339,3.79358 2.34111,6.9542 4.25402,9.47916 1.91203,2.52583 4.41708,4.54793 7.51426,6.06637 z m -1.3615,-10.87557 -2.18622,-0.77809 c 1.23129,-1.72536 1.99863,-3.96679 2.30202,-6.72336 l 2.09658,0.71274 c -0.52156,2.76534 -1.25903,5.02856 -2.21238,6.78871 z m -9.53774,34.39734 -1.32431,-1.74386 c 3.02257,-2.17088 5.43895,-4.70288 7.2509,-7.59712 -3.02599,-2.32754 -5.59228,-5.18555 -7.69976,-8.5747 l 1.64822,-1.57011 c 1.5346,2.8148 3.53671,5.2912 6.00629,7.42736 2.46958,2.13711 5.25623,3.80054 8.35998,4.99113 l -0.0457,-11.21926 1.98058,-0.008 0.0762,13.12174 -0.63904,0.60383 c -2.9523,-0.8039 -5.62401,-2.00334 -8.01689,-3.5973 -2.0275,3.12111 -4.56055,5.84296 -7.59651,8.16636 z m 14.55039,19.10982 -0.0582,-14.29175 2.08224,-0.009 0.0582,14.29175 z m -5.6627,2.26481 -0.0324,-7.94951 c -0.18047,0.0156 -0.48804,0.0239 -0.92273,0.0256 -4.58426,0.0187 -7.85583,-1.92494 -9.81555,-5.8317 l 1.83917,-1.59377 c 0.65313,1.77639 1.63751,3.11934 2.95403,4.02892 1.31653,0.90966 2.89848,1.36063 4.74411,1.35312 0.53984,-0.003 0.93764,-0.0187 1.19256,-0.0487 l -0.0354,-8.68217 2.08224,-0.009 0.0761,18.69821 z m -8.95557,22.84788 -0.86344,-1.98682 c 0.9594,-0.2738 1.99275,-0.67935 3.10094,-1.21587 -0.81061,-7.51958 -1.48418,-12.59451 -2.01984,-15.2241 l 2.23692,-0.54549 0.30318,2.56919 15.19452,5.76606 -0.7347,1.86179 -14.14658,-5.38739 1.1432,9.78195 c 2.39529,-1.25601 4.13544,-2.41902 5.21867,-3.48735 l 0.93127,2.0732 c -2.57276,2.00861 -6.02747,3.9394 -10.36414,5.79483 z M 374.95984,88.901075 c -0.002,-0.476752 0.38384,-0.865678 0.86059,-0.867615 0.47761,-0.0018 0.86655,0.383815 0.86849,0.860576 l 0.89131,218.798094 c 0.002,0.47669 -0.38384,0.86567 -0.86145,0.86762 -0.47675,0.002 -0.86569,-0.38388 -0.86762,-0.86058 z m 32.78663,-0.133562 0.0195,4.771816 -14.47128,3.758153 2.8e-4,0.06921 14.48634,-0.05902 0.0139,3.388908 -24.20086,0.0986 -0.0159,-3.907722 17.64808,-4.636099 -2.8e-4,-0.06839 -17.66667,0.07194 -0.0138,-3.388917 z m 0.0601,14.764147 0.041,10.06157 -3.45727,0.0141 -0.0256,-6.25814 -6.74189,0.0275 0.0199,4.9094 -3.45726,0.0141 -0.0199,-4.9094 -10.54444,0.0429 -0.0155,-3.80343 z m -24.47674,17.35303 c -0.007,-1.82022 0.50572,-3.21137 1.53943,-4.1726 1.03286,-0.96034 2.49445,-1.44479 4.38477,-1.45248 l 12.99915,-0.0529 c 1.89032,-0.008 3.35579,0.46482 4.39643,1.41671 1.04152,0.95277 1.56599,2.3397 1.5734,4.15992 0.007,1.82108 -0.50573,3.21224 -1.53945,4.17346 -1.03284,0.96034 -2.49443,1.44479 -4.38474,1.4525 l -2.55812,0.0105 -0.0146,-3.59572 2.79998,-0.0114 c 1.49858,-0.006 2.24529,-0.64365 2.24013,-1.91087 -0.005,-1.2681 -0.75704,-1.89867 -2.25562,-1.89257 l -13.51796,0.0551 c -1.47493,0.006 -2.21025,0.64264 -2.20508,1.91073 0.005,1.26723 0.74565,1.89872 2.22057,1.8927 l 3.69914,-0.0151 0.0146,3.59572 -3.4222,0.0139 c -1.89033,0.008 -3.35581,-0.46483 -4.39645,-1.41673 -1.04151,-0.95276 -1.56598,-2.33969 -1.57339,-4.16078 z m 24.60167,13.3163 0.0156,3.80252 -20.7436,0.0845 0.0256,6.259 -3.45725,0.0141 -0.041,-10.06152 z m -24.47674,17.35304 c -0.008,-1.86672 0.51677,-3.29819 1.57314,-4.29367 1.05637,-0.99556 2.55206,-1.49763 4.48882,-1.50553 l 12.72221,-0.0517 c 1.93678,-0.008 3.43651,0.48199 4.50095,1.46891 1.06444,0.98684 1.60047,2.41399 1.60806,4.28071 0.008,1.86752 -0.51677,3.29811 -1.57312,4.29358 -1.05637,0.99557 -2.55205,1.49765 -4.48884,1.50553 l -12.72221,0.0517 c -1.93678,0.008 -3.43651,-0.48199 -4.50093,-1.4689 -1.06445,-0.98685 -1.60047,-2.41311 -1.60808,-4.28063 z m 3.45726,-0.0141 c 0.005,1.31362 0.80377,1.96769 2.39438,1.9612 l 13.20684,-0.0537 c 1.58973,-0.006 2.38279,-0.66703 2.37744,-1.98065 -0.005,-1.31371 -0.80377,-1.96776 -2.39349,-1.96129 l -13.20685,0.0538 c -1.59061,0.006 -2.38368,0.66702 -2.37832,1.98073 z m 21.13541,11.1166 0.021,5.15218 -24.18481,4.04053 -0.0156,-3.8035 4.80317,-0.71096 -0.0692,2.9e-4 -0.0176,-4.32225 -4.73958,-0.67218 -0.0144,-3.52737 z m -16.16346,4.21554 11.9555,-1.74364 -2.7e-4,-0.0692 -11.96916,-1.61023 z m 16.20796,6.71105 0.0236,5.80859 c 0.008,1.8903 -0.49394,3.3094 -1.50403,4.25912 -1.01011,0.94894 -2.49451,1.42731 -4.45405,1.43529 l -12.23847,0.0498 c -1.95956,0.008 -3.4478,-0.45828 -4.46561,-1.39896 -1.01781,-0.94146 -1.53099,-2.35642 -1.53869,-4.24674 l -0.0237,-5.80858 z m -20.72022,5.82377 c 0.003,0.62226 0.18851,1.10004 0.55884,1.4324 0.37032,0.33332 0.97042,0.49736 1.80034,0.49398 l 12.58376,-0.0513 c 0.82991,-0.004 1.42867,-0.17232 1.79625,-0.50865 0.36758,-0.33536 0.54968,-0.81465 0.54715,-1.4369 l -0.008,-1.93587 -17.28634,0.0705 z m 20.7774,8.21386 0.0155,3.8034 -24.20086,0.0986 -0.0156,-3.8034 z m 0.0271,6.63851 0.0195,4.77177 -14.47128,3.75815 2.8e-4,0.0692 14.48634,-0.059 0.0139,3.38893 -24.20086,0.0986 -0.0159,-3.90766 17.64808,-4.63616 -2.8e-4,-0.0684 -17.66667,0.0719 -0.0139,-3.38883 z m -24.46491,20.25817 c -0.008,-1.84386 0.51171,-3.25261 1.5559,-4.22524 1.04507,-0.97178 2.54694,-1.46257 4.50648,-1.47056 l 12.72222,-0.0517 c 1.95957,-0.008 3.46538,0.47055 4.51833,1.43378 1.05208,0.96411 1.58276,2.36857 1.59027,4.21244 0.008,1.84386 -0.51171,3.25164 -1.5559,4.22437 -1.04506,0.97265 -2.54693,1.46249 -4.5065,1.47047 l -2.07435,0.009 -0.0146,-3.59573 2.3171,-0.009 c 1.58973,-0.006 2.38279,-0.66701 2.37744,-1.98064 -0.005,-1.31372 -0.80376,-1.96768 -2.3935,-1.9612 l -13.2419,0.054 c -1.56695,0.006 -2.34861,0.66678 -2.34327,1.9805 0.005,1.31364 0.79239,1.96773 2.35932,1.96136 l 4.73678,-0.0193 -0.008,-1.9017 3.45726,-0.0141 0.0225,5.49742 -7.9171,0.0323 c -1.95955,0.008 -3.46536,-0.4696 -4.51832,-1.43371 -1.05207,-0.96419 -1.58275,-2.3677 -1.59026,-4.21155 z m 0.0758,18.60174 c -0.008,-1.84387 0.51175,-3.24121 1.55604,-4.19021 1.04516,-0.94898 2.54708,-1.4283 4.50663,-1.43628 l 1.38291,-0.005 0.0146,3.59659 -1.65984,0.007 c -1.56694,0.006 -2.34861,0.666 -2.34327,1.97961 0.003,0.64592 0.1948,1.13499 0.57651,1.46738 0.3817,0.33319 0.99934,0.49717 1.85205,0.4937 1.01396,-0.005 1.90604,-0.23823 2.67624,-0.70239 0.7702,-0.46406 1.69479,-1.32056 2.77293,-2.56937 1.3765,-1.57347 2.62262,-2.67321 3.73746,-3.29993 1.1157,-0.62767 2.3764,-0.94389 3.78209,-0.94962 1.91311,-0.008 3.39615,0.47076 4.4491,1.43398 1.05208,0.96412 1.58276,2.36858 1.59027,4.21244 0.007,1.82107 -0.51192,3.20003 -1.55625,4.1385 -1.04521,0.93759 -2.54716,1.41 -4.50672,1.41797 l -1.00255,0.005 -0.0146,-3.59582 1.24532,-0.005 c 0.82903,-0.004 1.43395,-0.16708 1.81298,-0.4911 0.37903,-0.32402 0.56727,-0.79807 0.56474,-1.42032 -0.005,-1.26718 -0.77982,-1.89856 -2.32486,-1.89226 -0.87549,0.004 -1.69305,0.2435 -2.45182,0.719 -0.75788,0.47541 -1.67633,1.33801 -2.75532,2.58691 -1.37642,1.59625 -2.6278,2.6968 -3.75499,3.3 -1.12632,0.60396 -2.45103,0.90915 -3.97154,0.91534 -1.98235,0.008 -3.50571,-0.47566 -4.5701,-1.45023 -1.06439,-0.97544 -1.6004,-2.39741 -1.608,-4.26407 z m 10.69438,11.15923 13.87955,-4.6549 0.0165,4.04526 -8.87493,2.62936 2.9e-4,0.0692 8.89604,2.55698 0.0151,3.69912 -13.91702,-4.54166 -10.30256,0.042 -0.0156,-3.8034 z m -10.58958,14.56567 c -0.008,-1.84482 0.51174,-3.24121 1.55604,-4.19019 1.04515,-0.94987 2.54707,-1.42839 4.50662,-1.43638 l 1.38292,-0.005 0.0146,3.59571 -1.65984,0.007 c -1.56694,0.006 -2.34861,0.66687 -2.34326,1.98059 0.003,0.64581 0.1948,1.13497 0.5765,1.46728 0.38171,0.33241 0.99935,0.49725 1.85206,0.49379 1.01395,-0.005 1.90602,-0.23823 2.67623,-0.7024 0.7702,-0.46414 1.6948,-1.32063 2.77292,-2.57033 1.37653,-1.57259 2.62264,-2.67312 3.73748,-3.29991 1.1157,-0.62671 2.3764,-0.94303 3.78209,-0.94875 1.9131,-0.008 3.39613,0.46997 4.44908,1.43406 1.05209,0.96411 1.58276,2.3677 1.59027,4.21156 0.007,1.82108 -0.51191,3.20083 -1.55624,4.13841 -1.04521,0.93769 -2.54715,1.41088 -4.50671,1.41886 l -1.00256,0.005 -0.0146,-3.59572 1.24531,-0.005 c 0.82905,-0.004 1.43396,-0.16708 1.81299,-0.49118 0.37902,-0.3249 0.56726,-0.79807 0.56473,-1.42024 -0.005,-1.26814 -0.77981,-1.89855 -2.32485,-1.89225 -0.87549,0.004 -1.69306,0.24349 -2.45182,0.7189 -0.75789,0.4755 -1.67633,1.3381 -2.75531,2.58692 -1.37644,1.59625 -2.6278,2.69593 -3.75501,3.29999 -1.12632,0.60406 -2.45103,0.90916 -3.97154,0.91535 -1.98234,0.008 -3.5057,-0.47557 -4.5701,-1.4511 -1.06439,-0.97545 -1.60038,-2.39646 -1.60799,-4.2631 z m 21.13412,10.80554 -0.0163,-3.97699 3.45727,-0.0141 0.0478,11.7565 -3.45726,0.0141 -0.0162,-3.97611 -20.74359,0.0845 -0.0156,-3.8034 z m 3.49642,9.5979 0.0423,10.37269 -3.45725,0.0141 -0.0267,-6.56929 -6.39573,0.026 0.0213,5.22052 -3.45727,0.0141 -0.0213,-5.22052 -7.43334,0.0303 0.0267,6.56928 -3.45726,0.0141 -0.0423,-10.37268 z m 0.0512,12.55129 0.0221,5.42828 -17.31066,2.49102 2.8e-4,0.0692 17.33037,2.34911 0.0221,5.42907 -24.20086,0.0986 -0.0146,-3.5966 18.32394,-0.0747 -2.7e-4,-0.0684 -18.33522,-2.69203 -0.0129,-3.18116 18.31268,-2.84053 -2.7e-4,-0.0692 -18.32396,0.0747 -0.0135,-3.31872 z"
    style="clip-rule:evenodd;fill-rule:evenodd;stroke-width:1.0001;stroke-linejoin:round;stroke-miterlimit:2" />
  <path id="nfcLogoFront" fill="#3000FF"
    d="m 972.05007,95.871157 h -2.30823 v -1.58016 h -13.63937 v 1.58016 h -2.30923 v -19.82999 h 18.25683 z m -2.30823,-3.9434 v -13.52335 h -13.63937 v 13.52335 z m 29.62398,-5.59956 h -21.31314 v -2.37624 h 21.31314 z m 26.35558,-7.44875 -1.7721,0.77008 c -0.3071,-1.45515 -0.7151,-2.63226 -1.2222,-3.53135 l 1.8592,-0.78308 c 0.4741,0.95809 0.8521,2.14021 1.1351,3.54435 z m -7.1127,-0.73207 h -12.7782 v -2.37624 h 12.7782 z m 4.2675,1.78518 -1.7592,0.75808 c -0.3161,-1.44715 -0.7241,-2.62027 -1.2231,-3.51936 l 1.8591,-0.78308 c 0.4751,0.9581 0.8491,2.14022 1.1232,3.54436 z m 1.8221,4.68747 h -9.0719 c 0.016,0.20602 0.025,0.55706 0.025,1.05311 0,5.23152 -2.2342,8.9559 -6.7016,11.17412 l -1.8092,-2.10621 c 2.0302,-0.73708 3.5674,-1.85419 4.6115,-3.35234 1.044,-1.49815 1.5651,-3.30133 1.5651,-5.40754 0,-0.61606 -0.016,-1.07011 -0.049,-1.36114 h -9.909 v -2.37624 h 21.3391 z m 21.7382,-6.44665 c -1.9052,2.34524 -3.4103,3.9854 -4.5174,4.9185 v 10.41604 h -2.1212 v -8.68187 c -2.0382,1.56616 -3.9974,2.76128 -5.8776,3.58336 l -1.3102,-1.92719 c 2.2383,-0.90709 4.5065,-2.28823 6.8067,-4.14142 2.3012,-1.85419 4.0704,-3.72737 5.3106,-5.61956 z m 17.5578,1.07811 -1.3721,2.05521 c -2.0633,-1.78918 -4.4925,-3.03531 -7.2878,-3.73738 l 1.4102,-2.15721 c 2.9443,1.09511 5.3615,2.37523 7.2497,3.83938 z m 11.5061,2.68427 c -2.9373,4.46145 -5.8485,7.67577 -8.7358,9.64497 -2.8863,1.9702 -6.1517,3.48135 -9.796,4.53446 l -1.4602,-2.37624 c 4.5595,-1.0101 8.2159,-2.62427 10.9691,-4.84149 2.7543,-2.21822 5.1496,-5.10751 7.1878,-8.66987 z m 26.2677,-5.47055 -1.7592,0.75708 c -0.316,-1.45515 -0.7241,-2.62827 -1.2231,-3.51836 l 1.8592,-0.79708 c 0.474,0.9591 0.8481,2.14522 1.1231,3.55836 z m -2.8323,1.05311 -1.0491,0.52605 0.9741,0.9891 c -0.6911,4.24643 -2.1632,7.78478 -4.4175,10.61507 -2.2552,2.82928 -5.4705,5.13951 -9.6469,6.92869 l -1.7592,-2.20922 c 3.8024,-1.32713 6.7827,-3.11431 8.9409,-5.36154 2.1592,-2.24822 3.6004,-5.11451 4.3244,-8.59886 h -9.5089 c -1.6222,2.37224 -3.2243,4.07941 -4.8045,5.12451 l -1.8592,-1.68217 c 3.4274,-2.33823 5.9396,-5.67657 7.5368,-10.018 l 2.1962,1.10411 c -0.4821,1.14811 -1.0021,2.18422 -1.5592,3.10831 h 8.8219 c -0.324,-1.36114 -0.7191,-2.45725 -1.1851,-3.28733 l 1.8722,-0.79708 c 0.474,0.9591 0.8481,2.14521 1.1231,3.55836 z m 17.8948,-0.52706 -0.8241,2.38924 c -2.2292,-1.31913 -4.8215,-2.13221 -7.7748,-2.44024 l 0.8241,-2.45325 c 3.2773,0.70207 5.8696,1.53716 7.7748,2.50425 z m 9.983,5.12452 c -2.3542,3.84439 -5.0045,6.87769 -7.9498,9.09891 -2.9443,2.22223 -6.4967,3.9074 -10.6571,5.05451 l -1.1721,-2.42724 c 4.3334,-1.03611 7.9468,-2.63927 10.8371,-4.81049 2.8913,-2.17021 5.2105,-5.0195 6.9577,-8.54686 z m -12.4172,1.50315 -0.8981,2.49125 c -1.9632,-1.41314 -4.5175,-2.29923 -7.6618,-2.65827 l 0.8231,-2.38924 c 3.1533,0.60806 5.7326,1.46015 7.7368,2.55626 z m 39.2089,11.04411 -1.9962,1.50315 c -2.4633,-3.45935 -5.3415,-6.22863 -8.6359,-8.30983 -2.6702,3.44234 -5.9436,6.35763 -9.821,8.74687 l -1.7841,-1.88819 c 3.2193,-1.73817 6.0546,-4.0114 8.5038,-6.81968 2.4503,-2.80828 4.3615,-5.9806 5.7346,-9.51696 h -12.8033 v -2.26022 l 14.9745,-0.026 0.6861,0.73208 c -0.9311,3.36534 -2.3123,6.40864 -4.1424,9.13191 3.5523,2.32824 6.6466,5.23153 9.2839,8.70688 z m 21.8752,-16.51566 h -16.3096 v -2.37624 h 16.3096 z m 2.5582,6.47265 h -9.0719 c 0.017,0.20602 0.025,0.55706 0.025,1.05311 0,5.23152 -2.2332,8.9559 -6.7006,11.17412 l -1.8102,-2.10621 c 2.0302,-0.73708 3.5673,-1.85419 4.6114,-3.35234 1.0442,-1.49815 1.5662,-3.30133 1.5662,-5.40754 0,-0.61606 -0.017,-1.07011 -0.05,-1.36114 h -9.908 v -2.37624 h 21.3382 z m 26.0317,10.32604 -2.2713,0.9761 c -0.308,-1.09611 -0.766,-2.27723 -1.3731,-3.54436 -8.5849,0.89009 -14.3794,1.63516 -17.3827,2.23422 l -0.6121,-2.55525 2.9333,-0.33404 6.6507,-17.31274 2.1212,0.84709 -6.2137,16.11862 11.1682,-1.25913 c -1.4222,-2.73927 -2.7413,-4.73047 -3.9554,-5.9716 l 2.3702,-1.0531 c 2.2802,2.94529 4.4675,6.89669 6.5647,11.85419 z M 954.28429,67.584317 c -0.54406,0 -0.9861,-0.44205 -0.9861,-0.9861 0,-0.54506 0.44204,-0.9871 0.9861,-0.9871 h 249.69011 c 0.544,0 0.9861,0.44204 0.9861,0.9871 0,0.54405 -0.4421,0.9861 -0.9861,0.9861 z m 0,-37.41576 h 5.44555 l 4.22142,16.53166 h 0.079 v -16.53166 h 3.86739 v 27.61777 h -4.45945 l -5.20853,-20.16102 h -0.078 v 20.16102 h -3.86739 z m 16.84869,0 h 11.48216 v 3.9454 h -7.14172 v 7.69377 h 5.60256 v 3.94539 h -5.60256 v 12.03321 h -4.34044 z m 19.68898,28.01281 c -2.07721,0 -3.66237,-0.59206 -4.75448,-1.77617 -1.09111,-1.18312 -1.63716,-2.85329 -1.63716,-5.01051 v -14.83449 c 0,-2.15722 0.54605,-3.82738 1.63716,-5.0105 1.09211,-1.18412 2.67727,-1.77618 4.75448,-1.77618 2.07821,0 3.66337,0.59206 4.75548,1.77618 1.09111,1.18312 1.63716,2.85328 1.63716,5.0105 v 2.91929 h -4.10341 v -3.19532 c 0,-1.71017 -0.72407,-2.56525 -2.17022,-2.56525 -1.44714,0 -2.17022,0.85508 -2.17022,2.56525 v 15.42655 c 0,1.68317 0.72308,2.52526 2.17022,2.52526 1.44615,0 2.17022,-0.84209 2.17022,-2.52526 v -4.22142 h 4.10341 v 3.90539 c 0,2.15722 -0.54605,3.82739 -1.63716,5.01051 -1.09211,1.18411 -2.67727,1.77617 -4.75548,1.77617 z m 15.31054,-28.01281 h 4.3394 v 23.67238 h 7.1427 v 3.94539 h -11.4821 z m 19.689,28.01281 c -2.1303,0 -3.7614,-0.60506 -4.8925,-1.81518 -1.1312,-1.21012 -1.6972,-2.91929 -1.6972,-5.12951 v -14.51846 c 0,-2.21023 0.566,-3.9194 1.6972,-5.12952 1.1311,-1.21012 2.7622,-1.81518 4.8925,-1.81518 2.1312,0 3.7613,0.60506 4.8924,1.81518 1.1312,1.21012 1.6972,2.91929 1.6972,5.12952 v 14.51846 c 0,2.21022 -0.566,3.91939 -1.6972,5.12951 -1.1311,1.21012 -2.7612,1.81518 -4.8924,1.81518 z m 0,-3.94539 c 1.4991,0 2.2492,-0.90809 2.2492,-2.72328 v -15.07151 c 0,-1.81418 -0.7501,-2.72227 -2.2492,-2.72227 -1.4992,0 -2.2493,0.90809 -2.2493,2.72227 v 15.07151 c 0,1.81519 0.7501,2.72328 2.2493,2.72328 z m 12.7842,-24.06742 h 5.8796 l 4.4985,27.61777 h -4.3405 l -0.789,-5.48455 v 0.079 h -4.9325 l -0.7891,5.40554 h -4.0254 z m 4.7355,18.46485 -1.9342,-13.65137 h -0.079 l -1.8932,13.65137 z m 7.7338,-18.46485 h 6.6287 c 2.1572,0 3.7743,0.57906 4.8534,1.73617 1.0782,1.15712 1.6172,2.85329 1.6172,5.08951 v 13.96641 c 0,2.23622 -0.539,3.93239 -1.6172,5.08951 -1.0791,1.15712 -2.6962,1.73617 -4.8534,1.73617 h -6.6287 z m 6.5496,23.67238 c 0.7101,0 1.2562,-0.21002 1.6372,-0.63107 0.3821,-0.42104 0.5721,-1.10511 0.5721,-2.0522 v -14.36045 c 0,-0.94709 -0.19,-1.63116 -0.5721,-2.0522 -0.381,-0.42104 -0.9271,-0.63106 -1.6372,-0.63106 h -2.2092 v 19.72698 z m 9.47,-23.67238 h 4.3404 v 27.61777 h -4.3404 z m 7.5758,0 h 5.4455 l 4.2214,16.53166 h 0.079 v -16.53166 h 3.8674 v 27.61777 h -4.4594 l -5.2086,-20.16102 h -0.078 v 20.16102 h -3.8673 z m 23.0043,28.01281 c -2.1042,0 -3.7094,-0.59906 -4.8145,-1.79518 -1.1041,-1.19712 -1.6572,-2.91329 -1.6572,-5.14951 v -14.51846 c 0,-2.23623 0.5531,-3.9524 1.6572,-5.14952 1.1051,-1.19612 2.7103,-1.79518 4.8145,-1.79518 2.1042,0 3.7083,0.59906 4.8135,1.79518 1.1051,1.19712 1.6571,2.91329 1.6571,5.14952 v 2.36723 h -4.1034 v -2.64426 c 0,-1.81418 -0.7501,-2.72227 -2.2492,-2.72227 -1.4992,0 -2.2492,0.90809 -2.2492,2.72227 v 15.11152 c 0,1.78818 0.75,2.68327 2.2492,2.68327 1.4991,0 2.2492,-0.89509 2.2492,-2.68327 v -5.40555 h -2.1702 v -3.94539 h 6.2736 v 9.03491 c 0,2.23622 -0.552,3.95239 -1.6571,5.14951 -1.1052,1.19612 -2.7093,1.79518 -4.8135,1.79518 z m 21.2281,0 c -2.1042,0 -3.6964,-0.59906 -4.7745,-1.79518 -1.0781,-1.19712 -1.6181,-2.91329 -1.6181,-5.14951 v -1.57816 h 4.1044 v 1.89419 c 0,1.78818 0.7491,2.68327 2.2482,2.68327 0.7371,0 1.2961,-0.21702 1.6772,-0.65107 0.382,-0.43404 0.572,-1.13811 0.572,-2.11121 0,-1.15712 -0.263,-2.17622 -0.7891,-3.05731 -0.526,-0.88109 -1.4991,-1.94019 -2.9192,-3.17632 -1.7892,-1.57816 -3.0384,-3.0053 -3.7484,-4.28043 -0.7111,-1.27613 -1.0661,-2.71627 -1.0661,-4.32043 0,-2.18322 0.553,-3.87339 1.6571,-5.07051 1.1051,-1.19612 2.7103,-1.79518 4.8145,-1.79518 2.0782,0 3.6494,0.59906 4.7155,1.79518 1.0651,1.19712 1.5972,2.91329 1.5972,5.14952 v 1.14411 h -4.1035 v -1.42114 c 0,-0.9461 -0.184,-1.63717 -0.552,-2.07121 -0.368,-0.43404 -0.9081,-0.65106 -1.6182,-0.65106 -1.4461,0 -2.1702,0.88108 -2.1702,2.64426 0,0.9991 0.27,1.9332 0.8091,2.80128 0.539,0.86709 1.5191,1.9192 2.9393,3.15632 1.8152,1.57816 3.0653,3.0113 3.7484,4.30043 0.684,1.28813 1.0261,2.80128 1.0261,4.53646 0,2.26223 -0.5591,3.9984 -1.6762,5.20852 -1.1181,1.21012 -2.7433,1.81518 -4.8735,1.81518 z m 12.7843,-12.15222 -5.2475,-15.86059 h 4.6164 l 2.9593,10.14002 h 0.079 l 2.9593,-10.14002 h 4.2214 l -5.2475,15.86059 v 11.75718 h -4.3404 z m 16.5727,12.15222 c -2.1053,0 -3.6964,-0.59906 -4.7745,-1.79518 -1.0791,-1.19712 -1.6182,-2.91329 -1.6182,-5.14951 v -1.57816 h 4.1034 v 1.89419 c 0,1.78818 0.7501,2.68327 2.2493,2.68327 0.737,0 1.2961,-0.21702 1.6771,-0.65107 0.3811,-0.43404 0.5721,-1.13811 0.5721,-2.11121 0,-1.15712 -0.263,-2.17622 -0.7891,-3.05731 -0.5261,-0.88109 -1.4992,-1.94019 -2.9203,-3.17632 -1.7882,-1.57816 -3.0383,-3.0053 -3.7484,-4.28043 -0.71,-1.27613 -1.0651,-2.71627 -1.0651,-4.32043 0,-2.18322 0.5521,-3.87339 1.6572,-5.07051 1.1051,-1.19612 2.7093,-1.79518 4.8135,-1.79518 2.0782,0 3.6503,0.59906 4.7154,1.79518 1.0652,1.19712 1.5982,2.91329 1.5982,5.14952 v 1.14411 h -4.1034 v -1.42114 c 0,-0.9461 -0.184,-1.63717 -0.5521,-2.07121 -0.369,-0.43404 -0.9081,-0.65106 -1.6181,-0.65106 -1.4472,0 -2.1702,0.88108 -2.1702,2.64426 0,0.9991 0.27,1.9332 0.809,2.80128 0.5391,0.86709 1.5192,1.9192 2.9393,3.15632 1.8152,1.57816 3.0643,3.0113 3.7484,4.30043 0.6841,1.28813 1.0261,2.80128 1.0261,4.53646 0,2.26223 -0.559,3.9984 -1.6772,5.20852 -1.1181,1.21012 -2.7422,1.81518 -4.8724,1.81518 z m 12.4292,-24.06741 h -4.5385 v -3.9454 h 13.4164 v 3.9454 h -4.5375 v 23.67237 h -4.3404 z m 10.9691,-3.9454 h 11.8372 v 3.9454 h -7.4968 v 7.29873 h 5.9576 v 3.94539 h -5.9576 v 8.48286 h 7.4968 v 3.94539 h -11.8372 z m 14.3234,0 h 6.1947 l 2.7622,19.76598 h 0.079 l 2.7613,-19.76598 h 6.1956 v 27.61777 h -4.1044 v -20.9111 h -0.078 l -3.1573,20.9111 h -3.6303 l -3.1564,-20.9111 h -0.079 v 20.9111 h -3.7873 z"
    style="clip-rule:evenodd;fill-rule:evenodd;stroke-width:1.0001;stroke-linejoin:round;stroke-miterlimit:2" />
  <path id="loadingLogoFront" fill="#FF0030"
    d="m 906.89733,1152.5191 h -35.55972 v 26.2573 h -10.06738 v -26.2573 h -33.24869 v -9.3093 h 78.87579 z m 0,0 h 9.31472 v 23.3229 c 0,7.8683 -6.38274,14.2466 -14.25551,14.2466 h -62.15608 v -9.3087 h 59.70872 c 4.08007,0 7.38815,-3.3062 7.38815,-7.3843 z m 0.63573,-3.0797 v -1.1595 c 1.98852,0 3.60591,1.6163 3.60591,3.6038 h -1.16052 c 0,-1.3477 -1.09707,-2.4443 -2.44539,-2.4443 z m 4.98197,2.4448 c 0,-2.7461 -2.2348,-4.9799 -4.98197,-4.9799 v -1.1595 c 3.38687,0 6.14245,2.7541 6.14245,6.1394 z m 2.53654,0 c 0,-4.1434 -3.37347,-7.5139 -7.51851,-7.5139 v -1.1605 c 4.78522,0 8.67899,3.8913 8.67899,8.6744 z m -88.65183,0.6349 h -33.24918 v 20.8771 c 0,4.0775 3.30759,7.3837 7.38815,7.3837 h 25.86103 v 9.3087 H 797.3377 c -7.87276,0 -14.25452,-6.3783 -14.25452,-14.2466 v -23.3229 h -9.57731 v -9.3093 h 52.89387 z m -30.93906,2.0029 h 30.93906 v 24.2544 H 816.3323 v -14.9447 h -10.80419 v 4.3481 c 0,0.7116 0.57628,1.2874 1.28832,1.2874 h 7.80389 v 9.3092 h -13.10048 c -3.34668,0 -6.05916,-2.711 -6.05916,-6.0556 z m 32.56086,0 h 30.93907 v 18.1988 c 0,3.3446 -2.71297,6.0556 -6.05966,6.0556 h -13.10049 v -9.3092 h 7.8039 c 0.71154,0 1.28881,-0.5758 1.28881,-1.2874 v -4.3481 h -10.80419 v 26.2569 h -10.06744 z m 76.56568,0 v 18.1988 c 0,3.3446 -2.71293,6.0556 -6.05915,6.0556 h -18.8207 c -3.34623,0 -6.05966,-2.711 -6.05966,-6.0556 v -18.1988 z m -10.06787,9.3097 H 883.7151 v 4.3481 c 0,0.7116 0.57727,1.2874 1.28935,1.2874 h 8.22653 c 0.71208,0 1.28837,-0.5758 1.28837,-1.2874 z"
    style="clip-rule:evenodd;fill-opacity:1;fill-rule:evenodd;stroke-width:1.0001;stroke-linejoin:round;stroke-miterlimit:2" />
  <rect stroke-width="1" stroke="white" stroke-dasharray="6 6" fill="none" id="placeholder_logo_1" width="270"
    height="50" x="15" y="15" />
  <rect stroke-width="1" stroke="#ffffff" stroke-dasharray="6, 6" fill="none" id="placeholder_logo_2" width="414.60883"
    height="75.475105" x="501.12375" y="26.49502" />
  <rect stroke-width="1" stroke="white" stroke-dasharray="6 6" fill="none" id="placeholder_logo_3" width="150"
    height="150" x="304" y="1050" />
</svg>