<?xml version="1.0" encoding="UTF-8" standalone="no"?>
<svg width="354" height="591" viewBox="0 0 30 50" version="1.1" id="svg1" xml:space="preserve"
  xmlns="http://www.w3.org/2000/svg" xmlns:svg="http://www.w3.org/2000/svg" xmlns:serif="http://www.serif.com/">
  <g id="layer2" style="display:inline">
    <rect id="rect1-9" width="29.831854" height="49.831856" x="0.084072493" y="0.0840725" ry="2.7968709" rx="2.7968707"
      fill="transparent" stroke-width="0" stroke="none" />
  </g>
  <g id="layer3">
    <rect
      style="display:inline;fill:none;stroke:#000000;stroke-width:0.506119;stroke-linejoin:bevel;stroke-miterlimit:0;stroke-dasharray:none"
      id="rect3" width="28.493877" height="40.993881" x="0.75305951" y="8.2530594" ry="2.0498908" rx="1.9997625" />
    <path id="rect5"
      style="fill:#000000;fill-opacity:1;stroke:none;stroke-width:0.115367;stroke-linecap:square;stroke-linejoin:miter;stroke-miterlimit:0.3;stroke-dasharray:none"
      d="M 10.07432 44.999837 C 9.7006742 44.999837 9.399943 45.300568 9.399943 45.674215 L 9.399943 48.499882 L 9.399943 48.825444 L 9.399943 49.499821 L 10.07432 49.499821 L 19.925399 49.499821 L 20.599776 49.499821 L 20.599776 48.825444 L 20.599776 48.499882 L 20.599776 45.674215 C 20.599776 45.300568 20.299045 44.999837 19.925399 44.999837 L 10.07432 44.999837 z " />
    <path id="TapTo-Logo" serif:id="TapTo Logo"
      d="m 19.347277,46.183213 h -2.491791 v 1.837772 h -0.705451 v -1.837772 h -2.329884 v -0.651572 h 5.527126 z m 0,0 H 20 v 1.632355 c 0,0.550699 -0.447235,0.997079 -0.998934,0.997079 H 14.64555 v -0.651496 h 4.184023 c 0.285923,0 0.517704,-0.231375 0.517704,-0.516818 z m 0.04453,-0.215524 v -0.08117 c 0.139387,0 0.252705,0.113132 0.252705,0.252226 h -0.08132 c 0,-0.09432 -0.07687,-0.171053 -0.171383,-0.171053 z m 0.349097,0.171086 c 0,-0.192196 -0.156605,-0.348508 -0.349097,-0.348508 v -0.08117 c 0.237373,0 0.430456,0.192753 0.430456,0.42968 z m 0.177788,0 c 0,-0.289994 -0.236371,-0.525884 -0.526885,-0.525884 v -0.08125 c 0.335359,0 0.608173,0.272369 0.608173,0.607134 z m -6.212202,0.04444 h -2.329875 v 1.461159 c 0,0.285407 0.231782,0.516781 0.517666,0.516781 h 1.81222 v 0.651496 h -2.036484 c -0.551661,0 -0.998892,-0.446381 -0.998892,-0.99708 V 46.183218 H 10 v -0.651576 h 3.706501 z m -2.168052,0.140203 h 2.168057 v 1.697569 h -0.705447 v -1.04604 h -0.757076 v 0.304366 c 0,0.04975 0.04036,0.0901 0.09025,0.0901 h 0.546846 v 0.651571 h -0.918019 c -0.234485,0 -0.424605,-0.189751 -0.424605,-0.423866 z m 2.281706,0 h 2.168058 v 1.273702 c 0,0.234117 -0.190157,0.423867 -0.424643,0.423867 h -0.918016 v -0.651573 h 0.546849 c 0.04989,0 0.09032,-0.04032 0.09032,-0.0901 V 46.97495 h -0.757073 v 1.837696 H 13.82015 Z m 5.365261,0 v 1.273702 c 0,0.234117 -0.190084,0.423867 -0.424569,0.423867 h -1.318808 c -0.234522,0 -0.424639,-0.18975 -0.424639,-0.423867 v -1.273702 z m -0.705491,0.651534 h -0.757073 v 0.304366 c 0,0.04975 0.04046,0.0901 0.09032,0.0901 h 0.57651 c 0.04989,0 0.09024,-0.04032 0.09024,-0.0901 z"
      style="clip-rule:evenodd;fill:#ffffff;fill-rule:evenodd;stroke-width:0.0370315;stroke-linejoin:round;stroke-miterlimit:2" />
  </g>
  <g id="layer1">
    <rect
      style="display:inline;fill:#00a3da;fill-opacity:1;stroke:none;stroke-width:0.150101;stroke-linejoin:bevel;stroke-miterlimit:0;stroke-dasharray:none"
      id="rect2" width="29" height="7.25" x="0.5" y="0.49999997" ry="1.645885" rx="2.0116374" />
    <path id="path10"
      style="display:inline;fill:#000000;fill-opacity:1;stroke:none;stroke-width:0.150101;stroke-linejoin:bevel;stroke-miterlimit:0;stroke-dasharray:none"
      d="M 18.999874 0.50022786 L 18.999874 7.7499146 L 27.488245 7.7499146 C 28.602691 7.7499146 29.500008 7.0158396 29.500008 6.1040202 L 29.500008 2.1461222 C 29.500008 1.2343029 28.602691 0.50022786 27.488245 0.50022786 L 18.999874 0.50022786 z " />
    <path id="NFC-Loading-System" serif:id="NFC Loading System"
      d="m 20.37057,6.8388233 h -0.08255 v -0.056514 h -0.487775 v 0.056513 h -0.08258 V 6.129653 h 0.652914 z M 20.288016,6.6977929 V 6.2141638 h -0.487775 v 0.4836291 z m 1.05943,-0.2002494 h -0.762211 v -0.084984 h 0.762211 z m 0.942543,-0.2663886 -0.06335,0.027535 c -0.01097,-0.05204 -0.0256,-0.094137 -0.04373,-0.1262908 l 0.06651,-0.027993 c 0.01691,0.034236 0.0305,0.076538 0.04063,0.1267548 z m -0.254365,-0.02616 h -0.456983 v -0.084984 h 0.456983 z m 0.152615,0.063839 -0.0629,0.027115 c -0.01132,-0.051757 -0.02593,-0.093709 -0.04378,-0.1258612 l 0.06651,-0.027994 c 0.01697,0.03424 0.03036,0.076539 0.04019,0.1267562 z m 0.06514,0.1676369 h -0.324434 c 9.05e-4,0.00739 0.0013,0.019914 0.0013,0.037654 0,0.1870897 -0.0799,0.3202815 -0.239671,0.3996149 l -0.06489,-0.075323 c 0.07263,-0.02637 0.127576,-0.066315 0.164918,-0.1198883 0.03731,-0.053582 0.05601,-0.1180643 0.05601,-0.1933856 0,-0.022021 -9.05e-4,-0.038255 -0.0016,-0.048679 h -0.354828 v -0.084982 h 0.763137 z m 0.777414,-0.230549 c -0.06817,0.083872 -0.121961,0.1425279 -0.161552,0.1758928 v 0.3725065 h -0.07587 V 6.4438337 c -0.0729,0.056016 -0.142962,0.098746 -0.2102,0.1281505 l -0.04682,-0.068918 c 0.08005,-0.032447 0.161163,-0.081835 0.243428,-0.1481062 0.0823,-0.066314 0.145567,-0.1333003 0.189918,-0.2009705 z m 0.627913,0.038576 -0.04903,0.0735 c -0.07382,-0.063997 -0.160683,-0.10856 -0.260652,-0.1336681 l 0.05047,-0.077149 c 0.105297,0.03918 0.191744,0.084942 0.259266,0.1373043 z m 0.411484,0.095998 c -0.105036,0.1595537 -0.209155,0.2745061 -0.312412,0.3449259 -0.103222,0.070459 -0.22,0.1245039 -0.350325,0.1621668 l -0.05221,-0.084985 c 0.163056,-0.036123 0.29382,-0.093853 0.392287,-0.1731452 0.09849,-0.079328 0.184155,-0.1826578 0.257046,-0.3100558 z m 0.939399,-0.1956397 -0.0629,0.027086 c -0.0113,-0.052039 -0.02592,-0.093995 -0.04376,-0.1258244 l 0.06649,-0.028533 c 0.01692,0.034282 0.0303,0.076722 0.04017,0.127259 z m -0.10129,0.037655 -0.03753,0.018815 0.03481,0.035377 c -0.02469,0.1518644 -0.07736,0.2784043 -0.157984,0.3796205 -0.08065,0.1011854 -0.195648,0.1838039 -0.344999,0.2477907 l -0.06291,-0.079019 c 0.135985,-0.047453 0.24257,-0.1113733 0.319751,-0.1917433 0.07721,-0.0804 0.128758,-0.1829059 0.154651,-0.3075168 h -0.340073 c -0.05804,0.084839 -0.115301,0.1458926 -0.171812,0.1832652 l -0.06651,-0.060152 c 0.122605,-0.083625 0.212451,-0.2030122 0.269563,-0.3582731 l 0.07855,0.039487 c -0.01723,0.04106 -0.03588,0.078113 -0.0558,0.1111588 h 0.315495 c -0.01157,-0.048679 -0.02572,-0.087877 -0.04237,-0.1175667 l 0.06694,-0.028532 c 0.01691,0.03428 0.03031,0.07672 0.04017,0.1272572 z m 0.639963,-0.018848 -0.02953,0.085444 C 25.439052,6.2019291 25.34634,6.1728401 25.24072,6.1618281 l 0.02952,-0.087738 c 0.117206,0.025118 0.209906,0.054978 0.278043,0.089563 z m 0.357018,0.1832644 c -0.08419,0.1374854 -0.178973,0.2459633 -0.284306,0.325396 -0.105291,0.079476 -0.232335,0.1397416 -0.381121,0.1807617 l -0.04193,-0.08681 c 0.154965,-0.037057 0.284188,-0.094381 0.387553,-0.172031 0.103399,-0.077613 0.186342,-0.1795083 0.248829,-0.3056552 z m -0.444067,0.053755 -0.03212,0.089092 c -0.07024,-0.050541 -0.161562,-0.082232 -0.27401,-0.09507 l 0.02943,-0.085445 c 0.11277,0.021732 0.205012,0.052222 0.276689,0.091417 z m 1.402204,0.3949637 -0.07136,0.053763 c -0.08811,-0.1237287 -0.19104,-0.2227675 -0.308856,-0.2971968 -0.0955,0.1231086 -0.212558,0.2273659 -0.351227,0.3128114 l -0.06381,-0.067541 c 0.115136,-0.062161 0.21653,-0.1434521 0.304122,-0.2438847 0.08763,-0.1004332 0.155976,-0.2138856 0.205082,-0.34035 h -0.457876 v -0.080833 l 0.535527,-0.00113 0.0245,0.026158 c -0.03327,0.1203579 -0.0827,0.229193 -0.148144,0.326585 0.127038,0.083263 0.237703,0.1870936 0.332019,0.3113766 z m 0.782324,-0.5906475 h -0.583267 v -0.084987 h 0.583272 z m 0.09149,0.2314785 h -0.324436 c 0.0011,0.00739 0.0011,0.019919 0.0011,0.037654 0,0.1870902 -0.07987,0.3202812 -0.239625,0.3996149 l -0.06494,-0.075325 c 0.07263,-0.02637 0.127573,-0.066314 0.164909,-0.1198872 0.03737,-0.053585 0.05605,-0.1180634 0.05605,-0.1933864 0,-0.02203 -0.0011,-0.038253 -0.0014,-0.048679 h -0.354753 v -0.084983 h 0.76311 z m 0.930956,0.3692793 -0.08123,0.034923 c -0.01103,-0.039218 -0.02736,-0.081446 -0.04908,-0.126757 -0.307016,0.031826 -0.514245,0.058476 -0.621647,0.0799 l -0.02191,-0.09138 0.104901,-0.011943 0.237848,-0.6191453 0.07582,0.030288 -0.222217,0.5764406 0.399394,-0.045031 c -0.05082,-0.097965 -0.098,-0.1691725 -0.141416,-0.2135622 l 0.08476,-0.037655 c 0.08155,0.1053338 0.15977,0.2466451 0.234774,0.4239384 z M 19.73522,5.8272153 c -0.0195,0 -0.03522,-0.015798 -0.03522,-0.03527 0,-0.01948 0.01583,-0.035303 0.03522,-0.035303 h 8.929536 c 0.01949,0 0.03525,0.015792 0.03525,0.035303 0,0.019449 -0.01583,0.03527 -0.03525,0.03527 z m 0,-1.338082 h 0.194744 l 0.150964,0.5912142 h 0.0026 V 4.489132 h 0.138318 V 5.476813 H 20.062455 L 19.87628,4.7558038 h -0.0025 V 5.476813 h -0.138305 z m 0.602552,0 h 0.410624 v 0.1410974 h -0.255399 v 0.2751487 h 0.200359 V 5.0464765 H 20.492997 V 5.476815 h -0.155225 z m 0.704125,1.0018089 c -0.07433,0 -0.130977,-0.021175 -0.170032,-0.063522 -0.03898,-0.04231 -0.05856,-0.1020408 -0.05856,-0.1791883 V 4.7177127 c 0,-0.077147 0.01957,-0.1368766 0.05856,-0.1791878 0.03903,-0.042348 0.09575,-0.063523 0.170032,-0.063523 0.07436,0 0.131009,0.021177 0.170068,0.063523 0.03897,0.042307 0.05857,0.1020406 0.05857,0.1791878 v 0.1044012 h -0.14677 V 4.7078412 c 0,-0.061158 -0.02592,-0.09174 -0.07758,-0.09174 -0.05182,0 -0.07758,0.030584 -0.07758,0.09174 v 0.5516926 c 0,0.060193 0.02589,0.090309 0.07758,0.090309 0.05173,0 0.07758,-0.030119 0.07758,-0.090309 V 5.1085652 H 21.27052 V 5.248232 c 0,0.077147 -0.01957,0.1368761 -0.05857,0.1791875 -0.03903,0.042347 -0.09575,0.063523 -0.170067,0.063523 z m 0.547535,-1.0018089 h 0.155199 v 0.846584 h 0.255438 V 5.476815 h -0.410637 z m 0.704133,1.0018089 c -0.07623,0 -0.134513,-0.021639 -0.174963,-0.064919 -0.04043,-0.043281 -0.06069,-0.104402 -0.06069,-0.1834444 V 4.723363 c 0,-0.079041 0.02023,-0.1401666 0.06069,-0.183444 0.04043,-0.043281 0.09878,-0.064919 0.174963,-0.064919 0.07625,0 0.134519,0.021639 0.174966,0.064919 0.04042,0.04328 0.06068,0.1044013 0.06068,0.183444 v 0.5192168 c 0,0.079043 -0.02023,0.1401678 -0.06068,0.1834445 -0.04042,0.043282 -0.09874,0.064919 -0.174966,0.064918 z m 0,-0.1410972 c 0.05362,0 0.08044,-0.032477 0.08044,-0.097391 V 4.7134572 c 0,-0.064877 -0.02679,-0.097356 -0.08044,-0.097356 -0.05361,0 -0.08045,0.032473 -0.08045,0.097356 v 0.5389946 c 0,0.064921 0.02679,0.097391 0.08045,0.097391 z m 0.457198,-0.8607117 h 0.210273 l 0.160876,0.9876817 h -0.155227 l -0.02821,-0.1961416 v 0.00281 H 22.762071 L 22.733861,5.476797 H 22.5899 Z m 0.169356,0.6603498 -0.06916,-0.4882077 h -0.0026 l -0.06769,0.4882077 z m 0.276578,-0.6603498 h 0.237057 c 0.07714,0 0.134983,0.020706 0.173571,0.062096 0.03858,0.041377 0.05787,0.102041 0.05787,0.1820135 v 0.4994725 c 0,0.079972 -0.01926,0.1406319 -0.05787,0.1820134 -0.0386,0.041378 -0.09642,0.062096 -0.173571,0.062096 h -0.237057 z m 0.234232,0.846584 c 0.0254,0 0.0449,-0.00754 0.05858,-0.022574 0.01367,-0.01505 0.02042,-0.03952 0.02042,-0.073391 V 4.7261878 c 0,-0.033866 -0.0063,-0.058333 -0.02042,-0.07339 -0.01366,-0.015052 -0.03313,-0.022574 -0.05858,-0.022574 h -0.07901 V 5.33571 Z m 0.338669,-0.846584 h 0.155224 V 5.476815 h -0.155224 z m 0.270923,0 h 0.194751 l 0.150969,0.5912142 h 0.0027 V 4.489132 h 0.138301 V 5.476813 H 24.367793 L 24.181492,4.7558038 h -0.0026 V 5.476813 h -0.138274 z m 0.822696,1.0018089 c -0.07523,0 -0.132657,-0.021425 -0.172177,-0.064197 C 24.65157,5.3839352 24.6318,5.3225587 24.6318,5.2425865 V 4.7233633 c 0,-0.079972 0.01979,-0.1413463 0.05924,-0.1841594 0.03947,-0.042772 0.09693,-0.064197 0.172177,-0.064197 0.07523,0 0.13262,0.021426 0.172149,0.064197 0.03947,0.04281 0.05923,0.1041871 0.05923,0.1841594 v 0.084659 h -0.146734 v -0.094565 c 0,-0.064877 -0.02679,-0.097356 -0.08044,-0.097356 -0.05362,0 -0.08044,0.032473 -0.08044,0.097356 v 0.5404255 c 0,0.063951 0.02679,0.09596 0.08044,0.09596 0.05363,0 0.08044,-0.03201 0.08044,-0.09596 v -0.193316 h -0.07758 V 4.9194696 h 0.22436 v 0.3231105 c 0,0.079972 -0.01978,0.141348 -0.05923,0.1841598 -0.03954,0.042773 -0.09689,0.064198 -0.172148,0.064198 z m 0.75917,0 c -0.07523,0 -0.132191,-0.021425 -0.170744,-0.064197 -0.03858,-0.04281 -0.05791,-0.1041865 -0.05791,-0.1841587 v -0.056445 h 0.146789 v 0.067745 c 0,0.06395 0.02675,0.09596 0.08041,0.09596 0.02639,0 0.0464,-0.00776 0.06003,-0.023285 0.01369,-0.015525 0.02044,-0.040705 0.02044,-0.075503 0,-0.041377 -0.0095,-0.077824 -0.02822,-0.1093363 -0.0188,-0.031515 -0.05365,-0.069388 -0.104428,-0.1135941 -0.06404,-0.056442 -0.108649,-0.1074765 -0.13405,-0.1530782 -0.02546,-0.045635 -0.03814,-0.097141 -0.03814,-0.1545092 0,-0.078081 0.01979,-0.1385222 0.05924,-0.1813345 0.03948,-0.042772 0.09692,-0.064197 0.172182,-0.064197 0.07436,0 0.130509,0.021426 0.168633,0.064197 0.03812,0.042809 0.0571,0.1041867 0.0571,0.1841593 v 0.040914 H 25.70699 v -0.050824 c 0,-0.033834 -0.0061,-0.058549 -0.01979,-0.074073 -0.01314,-0.015523 -0.0325,-0.023285 -0.05789,-0.023285 -0.05179,0 -0.07758,0.031515 -0.07758,0.094566 0,0.035733 0.0097,0.069132 0.02889,0.1001809 0.01925,0.031009 0.05434,0.068635 0.105116,0.1128771 0.06492,0.056445 0.109627,0.1076923 0.134061,0.1537947 0.02442,0.046068 0.03668,0.100181 0.03668,0.1622353 0,0.080903 -0.02002,0.1429921 -0.06,0.1862695 -0.04002,0.04328 -0.09811,0.06492 -0.174287,0.06492 z M 26.079583,5.0563464 25.89192,4.489132 h 0.165103 l 0.105827,0.3626326 h 0.0027 L 26.271479,4.489132 h 0.150966 L 26.234906,5.0563464 V 5.476813 h -0.155233 z m 0.592684,0.4345937 c -0.07527,0 -0.132191,-0.021427 -0.170747,-0.064198 -0.0386,-0.042813 -0.05791,-0.1041865 -0.05791,-0.1841596 v -0.056442 h 0.146751 v 0.067744 c 0,0.06395 0.02679,0.09596 0.08045,0.09596 0.02639,0 0.0464,-0.00776 0.06003,-0.023285 0.01365,-0.015523 0.02044,-0.040705 0.02044,-0.075504 0,-0.041378 -0.0094,-0.077824 -0.02821,-0.1093361 -0.01882,-0.031515 -0.05364,-0.069389 -0.104466,-0.1135937 -0.06399,-0.056443 -0.10866,-0.1074767 -0.134056,-0.1530783 -0.02543,-0.045635 -0.0381,-0.097141 -0.0381,-0.1545091 0,-0.078081 0.01979,-0.1385223 0.05924,-0.1813348 0.03948,-0.042772 0.09689,-0.064197 0.172143,-0.064197 0.07435,0 0.130547,0.021425 0.168636,0.064197 0.03811,0.042809 0.05711,0.1041869 0.05711,0.1841594 v 0.040916 h -0.146715 v -0.050823 c 0,-0.033837 -0.0061,-0.05855 -0.01978,-0.074073 -0.01317,-0.015524 -0.03251,-0.023285 -0.05791,-0.023285 -0.05181,0 -0.07759,0.031514 -0.07759,0.094566 0,0.035731 0.0097,0.069129 0.02893,0.1001808 0.01926,0.031011 0.05433,0.068635 0.105113,0.1128771 0.06492,0.056444 0.109585,0.1076921 0.134053,0.1537948 0.02444,0.046068 0.03669,0.1001808 0.03669,0.162235 0,0.080903 -0.02003,0.1429925 -0.06002,0.1862697 -0.04001,0.043281 -0.09807,0.06492 -0.174258,0.06492 z m 0.444498,-0.8607112 h -0.16231 V 4.489132 h 0.479804 V 4.6302289 H 27.271993 V 5.476813 H 27.116765 Z M 27.509053,4.489132 h 0.423324 V 4.6302289 H 27.664275 V 4.89125 h 0.21306 v 0.1410979 h -0.21306 v 0.3033679 h 0.268102 V 5.476813 h -0.423324 z m 0.512237,0 h 0.221537 l 0.09879,0.7068805 h 0.0027 l 0.09882,-0.7068805 h 0.22157 V 5.476813 H 28.518026 V 4.7289792 h -0.0026 l -0.11308,0.7478338 h -0.12981 L 28.159618,4.7289792 h -0.0027 V 5.476813 h -0.135485 z"
      style="clip-rule:evenodd;fill:#ffffff;fill-rule:evenodd;stroke-width:0.0357667;stroke-linejoin:round;stroke-miterlimit:2" />
    <g id="Wizzo.dev-TapTo" serif:id="Wizzo.dev/TapTo"
      style="clip-rule:evenodd;fill-rule:evenodd;stroke-linejoin:round;stroke-miterlimit:2"
      transform="matrix(0.0545977,0,0,0.0545977,-3.4505024,-2.7646034)">
      <path
        d="m 592.525,95.023 v 0.009 c 0,10.346 -8.4,18.746 -18.745,18.746 H 437.27 c -10.345,0 -18.745,-8.4 -18.745,-18.746 v -0.009 c 0,-10.346 8.4,-18.745 18.745,-18.745 h 136.51 c 10.345,0 18.745,8.399 18.745,18.745 z"
        style="fill:#ffffff" id="path2" />
      <path
        d="m 434.455,85.823 h 2.788 l 1.289,14.149 h 0.053 l 1.368,-14.149 h 3.156 l 1.368,14.149 h 0.052 l 1.289,-14.149 h 2.499 l -1.868,18.41 h -3.603 l -1.315,-12.414 h -0.053 l -1.315,12.414 h -3.84 z m 15.335,0 h 2.893 v 18.41 h -2.893 z m 4.471,15.832 5.366,-13.202 h -5.103 v -2.63 h 8.207 V 88.4 l -5.366,13.203 h 5.366 v 2.63 h -8.47 z m 9.653,0 5.366,-13.202 h -5.103 v -2.63 h 8.207 V 88.4 l -5.366,13.203 h 5.366 v 2.63 h -8.47 z m 14.283,2.841 c -1.421,0 -2.508,-0.403 -3.262,-1.21 -0.754,-0.806 -1.131,-1.946 -1.131,-3.419 v -9.678 c 0,-1.473 0.377,-2.613 1.131,-3.419 0.754,-0.807 1.841,-1.21 3.262,-1.21 1.42,0 2.507,0.403 3.261,1.21 0.754,0.806 1.131,1.946 1.131,3.419 v 9.678 c 0,1.473 -0.377,2.613 -1.131,3.419 -0.754,0.807 -1.841,1.21 -3.261,1.21 z m 0,-2.63 c 0.999,0 1.499,-0.605 1.499,-1.815 V 90.005 c 0,-1.21 -0.5,-1.815 -1.499,-1.815 -1,0 -1.5,0.605 -1.5,1.815 v 10.046 c 0,1.21 0.5,1.815 1.5,1.815 z m 6.181,-0.421 h 2.788 v 2.788 h -2.788 z m 4.945,-15.622 h 4.418 c 1.438,0 2.517,0.386 3.236,1.157 0.719,0.771 1.078,1.902 1.078,3.393 v 9.31 c 0,1.49 -0.359,2.621 -1.078,3.393 -0.719,0.771 -1.798,1.157 -3.236,1.157 h -4.418 z m 4.366,15.78 c 0.473,0 0.837,-0.14 1.091,-0.421 0.255,-0.28 0.382,-0.736 0.382,-1.368 v -9.573 c 0,-0.631 -0.127,-1.087 -0.382,-1.367 -0.254,-0.281 -0.618,-0.421 -1.091,-0.421 h -1.473 v 13.15 z m 6.312,-15.78 h 7.891 v 2.63 h -4.997 v 4.865 h 3.971 v 2.63 h -3.971 v 5.655 h 4.997 v 2.63 h -7.891 z m 8.786,0 h 2.919 l 1.894,14.281 h 0.053 l 1.893,-14.281 h 2.657 l -2.788,18.41 h -3.84 z m 16.57,0 h 2.499 l -7.26,18.41 h -2.498 z m 6.339,2.63 h -3.025 v -2.63 h 8.943 v 2.63 h -3.025 v 15.78 h -2.893 z m 8.338,-2.63 h 3.919 l 2.999,18.41 h -2.894 l -0.526,-3.656 v 0.053 h -3.288 l -0.526,3.603 h -2.682 z m 3.156,12.308 -1.288,-9.1 h -0.053 l -1.263,9.1 z m 5.156,-12.308 h 4.261 c 1.438,0 2.516,0.386 3.235,1.157 0.719,0.771 1.078,1.902 1.078,3.393 v 1.814 c 0,1.491 -0.359,2.622 -1.078,3.393 -0.719,0.772 -1.797,1.157 -3.235,1.157 h -1.368 v 7.496 h -2.893 z m 4.261,8.284 c 0.473,0 0.828,-0.131 1.065,-0.394 0.237,-0.263 0.355,-0.71 0.355,-1.341 v -2.183 c 0,-0.632 -0.118,-1.079 -0.355,-1.342 -0.237,-0.263 -0.592,-0.394 -1.065,-0.394 h -1.368 v 5.654 z m 8.206,-5.654 h -3.025 v -2.63 h 8.943 v 2.63 h -3.025 v 15.78 h -2.893 z m 11.389,16.043 c -1.42,0 -2.507,-0.403 -3.261,-1.21 -0.754,-0.806 -1.131,-1.946 -1.131,-3.419 v -9.678 c 0,-1.473 0.377,-2.613 1.131,-3.419 0.754,-0.807 1.841,-1.21 3.261,-1.21 1.421,0 2.508,0.403 3.262,1.21 0.754,0.806 1.131,1.946 1.131,3.419 v 9.678 c 0,1.473 -0.377,2.613 -1.131,3.419 -0.754,0.807 -1.841,1.21 -3.262,1.21 z m 0,-2.63 c 1,0 1.499,-0.605 1.499,-1.815 V 90.005 c 0,-1.21 -0.499,-1.815 -1.499,-1.815 -0.999,0 -1.499,0.605 -1.499,1.815 v 10.046 c 0,1.21 0.5,1.815 1.499,1.815 z"
        id="path3" />
    </g>
    <g id="g9" transform="matrix(0.05963395,0,0,0.05963395,1.1403661,1.4403661)">
      <path id="path1" style="fill:#ffffff;fill-opacity:1"
        d="M 45.080709 1.0027967 C 21.842709 1.0027967 2.807771 18.916818 0.99877097 41.687818 L 24.707869 51.488618 C 26.716869 50.114618 29.142007 49.313551 31.753007 49.313551 C 31.987007 49.313551 32.223921 49.319882 32.454921 49.330882 L 43.000964 34.053419 L 43.000964 33.836778 C 43.000964 24.637778 50.482256 17.155487 59.682256 17.155487 C 68.881256 17.155487 76.363548 24.637778 76.363548 33.836778 C 76.363548 43.035778 68.881256 50.51807 59.682256 50.51807 C 59.555256 50.51807 59.426969 50.519405 59.300969 50.509405 L 44.266142 61.237425 C 44.276142 61.432425 44.283474 61.628686 44.283474 61.826686 C 44.283474 68.732686 38.666673 74.357153 31.761673 74.357153 C 25.700673 74.357153 20.630509 70.025384 19.482509 64.296384 L 2.5239176 57.294574 C 7.7739176 75.862574 24.829709 89.46997 45.080709 89.46997 C 69.512709 89.46997 89.318629 69.669716 89.318629 45.240716 C 89.318629 20.807716 69.511709 1.0027967 45.080709 1.0027967 z M 59.682256 22.718806 C 53.553256 22.718806 48.564283 27.707778 48.564283 33.836778 C 48.564283 39.966778 53.553256 44.946085 59.682256 44.946085 C 65.812256 44.946085 70.800228 39.965778 70.800228 33.836778 C 70.800228 27.707778 65.812256 22.718806 59.682256 22.718806 z M 59.699587 25.465803 C 64.311587 25.465803 68.053231 29.207447 68.053231 33.819447 C 68.053231 38.431447 64.311587 42.164426 59.699587 42.164426 C 55.087587 42.164426 51.345943 38.430447 51.345943 33.819447 C 51.345943 29.207447 55.087587 25.465803 59.699587 25.465803 z M 125.36755 28.004825 C 118.22655 28.004825 113.2617 31.565298 113.2617 37.762298 C 113.2617 43.257298 117.00958 45.620449 122.41258 47.424449 C 127.15358 48.994449 130.09031 49.756854 130.09031 52.285854 C 130.09031 54.495854 128.16304 55.986068 124.11104 55.986068 C 121.10504 55.986068 117.73583 55.109357 114.91683 53.620357 L 112.75043 59.391651 C 116.22043 61.502651 120.73299 62.467941 124.47499 62.467941 C 132.15299 62.467941 137.4994 58.654239 137.4994 51.861239 C 137.4994 46.896239 134.38478 44.64469 128.96378 42.72769 C 123.92078 40.91769 120.52348 40.265999 120.52348 37.484999 C 120.52348 35.195999 122.43653 33.923434 125.52353 33.923434 C 128.22453 33.923434 131.31688 34.884788 133.59988 36.479788 L 136.56351 31.263093 C 134.34451 29.576093 130.34455 28.004825 125.36755 28.004825 z M 289.61545 28.143475 C 287.24187 28.250179 285.22199 30.006043 285.22199 32.779574 C 285.22199 35.643574 287.37742 37.424339 289.84942 37.424339 C 292.31242 37.424339 294.45952 35.643574 294.45952 32.779574 C 294.45952 29.916574 292.31342 28.143475 289.84942 28.143475 C 289.77217 28.143475 289.69202 28.140033 289.61545 28.143475 z M 142.62077 28.576755 L 142.62077 34.556024 L 152.75087 34.556024 L 152.75087 61.896011 L 159.73534 61.896011 L 159.73534 34.556024 L 169.83078 34.556024 L 169.83078 28.576755 L 142.62077 28.576755 z M 177.56916 28.576755 L 177.56916 61.896011 L 200.03908 61.896011 L 200.03908 55.856084 L 184.54497 55.856084 L 184.54497 48.039707 L 197.89867 48.039707 L 197.89867 42.051773 L 184.54497 42.051773 L 184.54497 34.538692 L 200.03908 34.538692 L 200.03908 28.576755 L 177.56916 28.576755 z M 218.59214 28.576755 L 206.09634 61.896011 L 213.41011 61.896011 L 215.61984 55.431469 L 228.64424 55.431469 L 230.90597 61.896011 L 238.46238 61.896011 L 225.61995 28.576755 L 218.59214 28.576755 z M 245.56817 28.576755 L 245.56817 61.896011 L 252.24936 61.896011 L 252.24936 41.627158 L 261.22692 60.925463 L 265.16111 60.925463 L 274.28599 41.453846 L 274.28599 61.896011 L 280.96717 61.896011 L 280.96717 28.576755 L 274.24266 28.576755 L 263.43665 52.632478 L 252.24069 28.576755 L 245.56817 28.576755 z M 289.84942 28.888717 C 291.96342 28.888717 293.67962 30.376574 293.67962 32.779574 C 293.67962 35.175574 291.96342 36.679097 289.84942 36.679097 C 287.72742 36.679097 286.00189 35.175574 286.00189 32.779574 C 286.00189 30.394574 287.73342 28.888717 289.84942 28.888717 z M 288.31561 30.405198 L 288.31561 34.989304 L 289.04352 34.989304 L 289.04352 33.212855 L 289.9794 33.212855 L 290.88063 34.989304 L 291.75585 34.989304 L 290.68998 32.987549 C 291.14198 32.773549 291.51322 32.34837 291.51322 31.72237 C 291.51322 31.03937 291.10508 30.405198 289.91008 30.405198 L 288.31561 30.405198 z M 289.05218 31.107112 L 289.86675 31.107112 C 290.48375 31.107112 290.70732 31.371695 290.70732 31.791695 C 290.70732 32.207695 290.39375 32.536937 289.86675 32.536937 L 289.05218 32.536937 L 289.05218 31.107112 z M 222.06705 36.523116 L 226.71181 49.86815 L 217.51761 49.86815 L 222.06705 36.523116 z M 31.839663 52.415838 C 30.666038 52.407088 29.51608 52.622596 28.43408 53.031096 L 34.040727 55.353478 C 37.567727 56.823478 39.236938 60.873371 37.766938 64.400371 C 36.299938 67.928371 32.247045 69.588916 28.720045 68.117916 L 23.28671 65.873524 C 24.24971 67.878524 25.918784 69.561627 28.130784 70.483627 C 32.912784 72.475627 38.425613 70.208913 40.418613 65.422913 C 41.383613 63.108913 41.384279 60.55046 40.427279 58.23046 C 39.472279 55.90946 37.674899 54.101083 35.357899 53.135083 C 34.208399 52.656583 33.013288 52.424588 31.839663 52.415838 z " />
    </g>
  </g>
</svg>