<?xml version="1.0" encoding="UTF-8" standalone="no"?>
<svg width="1233" height="1200" viewBox="0 0 1233 1200" version="1.1" xml:space="preserve" id="svg2"
  xmlns="http://www.w3.org/2000/svg" xmlns:svg="http://www.w3.org/2000/svg" xmlns:serif="http://www.serif.com/">
  <rect x="0" y="0" width="1233" height="1200" fill="transparent" stroke-width="0" stroke="transparent" id="rect1" />
  <rect x="0" y="0" width="304" height="1200" fill="#ffcc01" stroke-width="0" stroke="transparent" id="rect2" />
  <path d="M 304 0 H 1233 V 123 H 455 V 1200 H 304 Z" fill="black" id="path2" />
  <path id="TapTo-Logo---Top" serif:id="TapTo Logo - Top"
    d="m 435.5522,36.87363 h -34.09772 v 25.177855 h -9.65347 V 36.87363 h -31.88169 v -8.926524 h 75.63288 z m 0,0 h 8.93176 v 22.364056 c 0,7.544809 -6.12033,13.660855 -13.66941,13.660855 h -59.60058 v -8.926049 h 57.25385 c 3.91231,0 7.08438,-3.170158 7.08438,-7.080591 z m 0.6096,-2.95302 v -1.111835 c 1.90675,0 3.45766,1.54992 3.45766,3.45572 h -1.11283 c 0,-1.292389 -1.05195,-2.343885 -2.34483,-2.343885 z m 4.77714,2.34436 c 0,-2.633247 -2.14293,-4.775193 -4.77714,-4.775193 v -1.111834 c 3.24761,0 5.88991,2.640844 5.88991,5.887027 z m 2.43225,0 c 0,-3.973151 -3.23479,-7.205076 -7.20939,-7.205076 v -1.112788 c 4.58848,0 8.32216,3.731303 8.32216,8.317864 z m -85.007,0.60866 h -31.88215 v 20.018746 c 0,3.909958 3.17159,7.080116 7.08439,7.080116 h 24.79776 v 8.926049 h -27.86716 c -7.54909,0 -13.66846,-6.116046 -13.66846,-13.660855 V 36.87363 h -9.18356 v -8.926524 h 50.71918 z m -29.66702,1.920531 h 29.66702 v 23.257324 h -9.65352 v -14.33033 h -10.35998 v 4.169389 c 0,0.682303 0.55258,1.234422 1.23535,1.234422 h 7.48304 v 8.926519 h -12.56187 c -3.20908,0 -5.81004,-2.599512 -5.81004,-5.806726 z m 31.22215,0 h 29.66703 v 17.450598 c 0,3.207214 -2.60143,5.806726 -5.81052,5.806726 h -12.56186 v -8.926519 h 7.48304 c 0.68229,0 1.23583,-0.552119 1.23583,-1.234422 v -4.169389 h -10.35999 v 25.177386 h -9.65353 z m 73.41775,0 v 17.450598 c 0,3.207214 -2.60139,5.806726 -5.81004,5.806726 h -18.04689 c -3.20866,0 -5.81052,-2.599512 -5.81052,-5.806726 V 38.794161 Z m -9.65395,8.926994 h -10.36003 v 4.169389 c 0,0.682303 0.55353,1.234422 1.23634,1.234422 h 7.88831 c 0.6828,0 1.23538,-0.552119 1.23538,-1.234422 z"
    style="clip-rule:evenodd;fill:#39aac8;fill-rule:evenodd;stroke-width:1.0001;stroke-linejoin:round;stroke-miterlimit:2;fill-opacity:1" />
  <path id="TapTo-Logo---Top-3" serif:id="TapTo Logo - Top"
    d="m 270.80079,1016.2734 h -67.06114 v 49.5181 h -18.98581 v -49.5181 h -62.70279 v -17.55615 h 148.74974 z m 0,0 h 17.56638 v 43.9841 c 0,14.8386 -12.03705,26.8673 -26.88409,26.8673 H 144.26461 v -17.5552 h 112.60307 c 7.69449,0 13.93311,-6.2349 13.93311,-13.9256 z m 1.19891,-5.8079 v -2.1866 c 3.75007,0 6.80028,3.0482 6.80028,6.7964 h -2.18861 c 0,-2.5417 -2.06892,-4.6098 -4.61167,-4.6098 z m 9.39536,4.6108 c 0,-5.1789 -4.21456,-9.3916 -9.39536,-9.3916 v -2.1866 c 6.38719,0 11.58388,5.1939 11.58388,11.5782 z m 4.78359,0 c 0,-7.8141 -6.36196,-14.1705 -14.17895,-14.1705 v -2.18855 c 9.02431,0 16.36747,7.33855 16.36747,16.35905 z m -167.18612,1.1971 H 56.288807 v 39.3715 c 0,7.6898 6.237687,13.9247 13.933111,13.9247 h 48.770612 v 17.5552 H 64.185218 c -14.847035,0 -26.88222,-12.0287 -26.88222,-26.8673 v -43.9841 H 19.241391 v -17.55615 h 99.751139 z m -58.347144,3.7772 h 58.347144 v 45.7409 h -18.9859 v -28.1839 H 79.631289 v 8.2001 c 0,1.3419 1.086785,2.4277 2.429593,2.4277 h 14.717155 v 17.5561 H 72.072191 c -6.31141,0 -11.426805,-5.1126 -11.426805,-11.4202 z m 61.405664,0 h 58.34715 v 34.3207 c 0,6.3076 -5.11633,11.4202 -11.42774,11.4202 h -24.70585 v -17.5561 h 14.71716 c 1.34187,0 2.43052,-1.0858 2.43052,-2.4277 v -8.2001 h -20.37533 v 49.5172 h -18.98591 z m 144.39316,0 v 34.3207 c 0,6.3076 -5.11624,11.4202 -11.4268,11.4202 h -35.49344 c -6.31057,0 -11.42774,-5.1126 -11.42774,-11.4202 v -34.3207 z m -18.98674,17.557 h -20.37543 v 8.2001 c 0,1.3419 1.08865,2.4277 2.43155,2.4277 h 15.51419 c 1.3429,0 2.42969,-1.0858 2.42969,-2.4277 z"
    style="clip-rule:evenodd;fill:#39aac8;fill-rule:evenodd;stroke-width:1.0001;stroke-linejoin:round;stroke-miterlimit:2;fill-opacity:1" />
  <path id="NFC-Loading-System" serif:id="NFC Loading System"
    d="m 972.05007,95.871157 h -2.30823 v -1.58016 h -13.63937 v 1.58016 h -2.30923 v -19.82999 h 18.25683 z m -2.30823,-3.9434 v -13.52335 h -13.63937 v 13.52335 z m 29.62398,-5.59956 h -21.31314 v -2.37624 h 21.31314 z m 26.35558,-7.44875 -1.7721,0.77008 c -0.3071,-1.45515 -0.7151,-2.63226 -1.2222,-3.53135 l 1.8592,-0.78308 c 0.4741,0.95809 0.8521,2.14021 1.1351,3.54435 z m -7.1127,-0.73207 h -12.7782 v -2.37624 h 12.7782 z m 4.2675,1.78518 -1.7592,0.75808 c -0.3161,-1.44715 -0.7241,-2.62027 -1.2231,-3.51936 l 1.8591,-0.78308 c 0.4751,0.9581 0.8491,2.14022 1.1232,3.54436 z m 1.8221,4.68747 h -9.0719 c 0.016,0.20602 0.025,0.55706 0.025,1.05311 0,5.23152 -2.2342,8.9559 -6.7016,11.17412 l -1.8092,-2.10621 c 2.0302,-0.73708 3.5674,-1.85419 4.6115,-3.35234 1.044,-1.49815 1.5651,-3.30133 1.5651,-5.40754 0,-0.61606 -0.016,-1.07011 -0.049,-1.36114 h -9.909 v -2.37624 h 21.3391 z m 21.7382,-6.44665 c -1.9052,2.34524 -3.4103,3.9854 -4.5174,4.9185 v 10.41604 h -2.1212 v -8.68187 c -2.0382,1.56616 -3.9974,2.76128 -5.8776,3.58336 l -1.3102,-1.92719 c 2.2383,-0.90709 4.5065,-2.28823 6.8067,-4.14142 2.3012,-1.85419 4.0704,-3.72737 5.3106,-5.61956 z m 17.5578,1.07811 -1.3721,2.05521 c -2.0633,-1.78918 -4.4925,-3.03531 -7.2878,-3.73738 l 1.4102,-2.15721 c 2.9443,1.09511 5.3615,2.37523 7.2497,3.83938 z m 11.5061,2.68427 c -2.9373,4.46145 -5.8485,7.67577 -8.7358,9.64497 -2.8863,1.9702 -6.1517,3.48135 -9.796,4.53446 l -1.4602,-2.37624 c 4.5595,-1.0101 8.2159,-2.62427 10.9691,-4.84149 2.7543,-2.21822 5.1496,-5.10751 7.1878,-8.66987 z m 26.2677,-5.47055 -1.7592,0.75708 c -0.316,-1.45515 -0.7241,-2.62827 -1.2231,-3.51836 l 1.8592,-0.79708 c 0.474,0.9591 0.8481,2.14522 1.1231,3.55836 z m -2.8323,1.05311 -1.0491,0.52605 0.9741,0.9891 c -0.6911,4.24643 -2.1632,7.78478 -4.4175,10.61507 -2.2552,2.82928 -5.4705,5.13951 -9.6469,6.92869 l -1.7592,-2.20922 c 3.8024,-1.32713 6.7827,-3.11431 8.9409,-5.36154 2.1592,-2.24822 3.6004,-5.11451 4.3244,-8.59886 h -9.5089 c -1.6222,2.37224 -3.2243,4.07941 -4.8045,5.12451 l -1.8592,-1.68217 c 3.4274,-2.33823 5.9396,-5.67657 7.5368,-10.018 l 2.1962,1.10411 c -0.4821,1.14811 -1.0021,2.18422 -1.5592,3.10831 h 8.8219 c -0.324,-1.36114 -0.7191,-2.45725 -1.1851,-3.28733 l 1.8722,-0.79708 c 0.474,0.9591 0.8481,2.14521 1.1231,3.55836 z m 17.8948,-0.52706 -0.8241,2.38924 c -2.2292,-1.31913 -4.8215,-2.13221 -7.7748,-2.44024 l 0.8241,-2.45325 c 3.2773,0.70207 5.8696,1.53716 7.7748,2.50425 z m 9.983,5.12452 c -2.3542,3.84439 -5.0045,6.87769 -7.9498,9.09891 -2.9443,2.22223 -6.4967,3.9074 -10.6571,5.05451 l -1.1721,-2.42724 c 4.3334,-1.03611 7.9468,-2.63927 10.8371,-4.81049 2.8913,-2.17021 5.2105,-5.0195 6.9577,-8.54686 z m -12.4172,1.50315 -0.8981,2.49125 c -1.9632,-1.41314 -4.5175,-2.29923 -7.6618,-2.65827 l 0.8231,-2.38924 c 3.1533,0.60806 5.7326,1.46015 7.7368,2.55626 z m 39.2089,11.04411 -1.9962,1.50315 c -2.4633,-3.45935 -5.3415,-6.22863 -8.6359,-8.30983 -2.6702,3.44234 -5.9436,6.35763 -9.821,8.74687 l -1.7841,-1.88819 c 3.2193,-1.73817 6.0546,-4.0114 8.5038,-6.81968 2.4503,-2.80828 4.3615,-5.9806 5.7346,-9.51696 h -12.8033 v -2.26022 l 14.9745,-0.026 0.6861,0.73208 c -0.9311,3.36534 -2.3123,6.40864 -4.1424,9.13191 3.5523,2.32824 6.6466,5.23153 9.2839,8.70688 z m 21.8752,-16.51566 h -16.3096 v -2.37624 h 16.3096 z m 2.5582,6.47265 h -9.0719 c 0.017,0.20602 0.025,0.55706 0.025,1.05311 0,5.23152 -2.2332,8.9559 -6.7006,11.17412 l -1.8102,-2.10621 c 2.0302,-0.73708 3.5673,-1.85419 4.6114,-3.35234 1.0442,-1.49815 1.5662,-3.30133 1.5662,-5.40754 0,-0.61606 -0.017,-1.07011 -0.05,-1.36114 h -9.908 v -2.37624 h 21.3382 z m 26.0317,10.32604 -2.2713,0.9761 c -0.308,-1.09611 -0.766,-2.27723 -1.3731,-3.54436 -8.5849,0.89009 -14.3794,1.63516 -17.3827,2.23422 l -0.6121,-2.55525 2.9333,-0.33404 6.6507,-17.31274 2.1212,0.84709 -6.2137,16.11862 11.1682,-1.25913 c -1.4222,-2.73927 -2.7413,-4.73047 -3.9554,-5.9716 l 2.3702,-1.0531 c 2.2802,2.94529 4.4675,6.89669 6.5647,11.85419 z M 954.28429,67.584317 c -0.54406,0 -0.9861,-0.44205 -0.9861,-0.9861 0,-0.54506 0.44204,-0.9871 0.9861,-0.9871 h 249.69011 c 0.544,0 0.9861,0.44204 0.9861,0.9871 0,0.54405 -0.4421,0.9861 -0.9861,0.9861 z m 0,-37.41576 h 5.44555 l 4.22142,16.53166 h 0.079 v -16.53166 h 3.86739 v 27.61777 h -4.45945 l -5.20853,-20.16102 h -0.078 v 20.16102 h -3.86739 z m 16.84869,0 h 11.48216 v 3.9454 h -7.14172 v 7.69377 h 5.60256 v 3.94539 h -5.60256 v 12.03321 h -4.34044 z m 19.68898,28.01281 c -2.07721,0 -3.66237,-0.59206 -4.75448,-1.77617 -1.09111,-1.18312 -1.63716,-2.85329 -1.63716,-5.01051 v -14.83449 c 0,-2.15722 0.54605,-3.82738 1.63716,-5.0105 1.09211,-1.18412 2.67727,-1.77618 4.75448,-1.77618 2.07821,0 3.66337,0.59206 4.75548,1.77618 1.09111,1.18312 1.63716,2.85328 1.63716,5.0105 v 2.91929 h -4.10341 v -3.19532 c 0,-1.71017 -0.72407,-2.56525 -2.17022,-2.56525 -1.44714,0 -2.17022,0.85508 -2.17022,2.56525 v 15.42655 c 0,1.68317 0.72308,2.52526 2.17022,2.52526 1.44615,0 2.17022,-0.84209 2.17022,-2.52526 v -4.22142 h 4.10341 v 3.90539 c 0,2.15722 -0.54605,3.82739 -1.63716,5.01051 -1.09211,1.18411 -2.67727,1.77617 -4.75548,1.77617 z m 15.31054,-28.01281 h 4.3394 v 23.67238 h 7.1427 v 3.94539 h -11.4821 z m 19.689,28.01281 c -2.1303,0 -3.7614,-0.60506 -4.8925,-1.81518 -1.1312,-1.21012 -1.6972,-2.91929 -1.6972,-5.12951 v -14.51846 c 0,-2.21023 0.566,-3.9194 1.6972,-5.12952 1.1311,-1.21012 2.7622,-1.81518 4.8925,-1.81518 2.1312,0 3.7613,0.60506 4.8924,1.81518 1.1312,1.21012 1.6972,2.91929 1.6972,5.12952 v 14.51846 c 0,2.21022 -0.566,3.91939 -1.6972,5.12951 -1.1311,1.21012 -2.7612,1.81518 -4.8924,1.81518 z m 0,-3.94539 c 1.4991,0 2.2492,-0.90809 2.2492,-2.72328 v -15.07151 c 0,-1.81418 -0.7501,-2.72227 -2.2492,-2.72227 -1.4992,0 -2.2493,0.90809 -2.2493,2.72227 v 15.07151 c 0,1.81519 0.7501,2.72328 2.2493,2.72328 z m 12.7842,-24.06742 h 5.8796 l 4.4985,27.61777 h -4.3405 l -0.789,-5.48455 v 0.079 h -4.9325 l -0.7891,5.40554 h -4.0254 z m 4.7355,18.46485 -1.9342,-13.65137 h -0.079 l -1.8932,13.65137 z m 7.7338,-18.46485 h 6.6287 c 2.1572,0 3.7743,0.57906 4.8534,1.73617 1.0782,1.15712 1.6172,2.85329 1.6172,5.08951 v 13.96641 c 0,2.23622 -0.539,3.93239 -1.6172,5.08951 -1.0791,1.15712 -2.6962,1.73617 -4.8534,1.73617 h -6.6287 z m 6.5496,23.67238 c 0.7101,0 1.2562,-0.21002 1.6372,-0.63107 0.3821,-0.42104 0.5721,-1.10511 0.5721,-2.0522 v -14.36045 c 0,-0.94709 -0.19,-1.63116 -0.5721,-2.0522 -0.381,-0.42104 -0.9271,-0.63106 -1.6372,-0.63106 h -2.2092 v 19.72698 z m 9.47,-23.67238 h 4.3404 v 27.61777 h -4.3404 z m 7.5758,0 h 5.4455 l 4.2214,16.53166 h 0.079 v -16.53166 h 3.8674 v 27.61777 h -4.4594 l -5.2086,-20.16102 h -0.078 v 20.16102 h -3.8673 z m 23.0043,28.01281 c -2.1042,0 -3.7094,-0.59906 -4.8145,-1.79518 -1.1041,-1.19712 -1.6572,-2.91329 -1.6572,-5.14951 v -14.51846 c 0,-2.23623 0.5531,-3.9524 1.6572,-5.14952 1.1051,-1.19612 2.7103,-1.79518 4.8145,-1.79518 2.1042,0 3.7083,0.59906 4.8135,1.79518 1.1051,1.19712 1.6571,2.91329 1.6571,5.14952 v 2.36723 h -4.1034 v -2.64426 c 0,-1.81418 -0.7501,-2.72227 -2.2492,-2.72227 -1.4992,0 -2.2492,0.90809 -2.2492,2.72227 v 15.11152 c 0,1.78818 0.75,2.68327 2.2492,2.68327 1.4991,0 2.2492,-0.89509 2.2492,-2.68327 v -5.40555 h -2.1702 v -3.94539 h 6.2736 v 9.03491 c 0,2.23622 -0.552,3.95239 -1.6571,5.14951 -1.1052,1.19612 -2.7093,1.79518 -4.8135,1.79518 z m 21.2281,0 c -2.1042,0 -3.6964,-0.59906 -4.7745,-1.79518 -1.0781,-1.19712 -1.6181,-2.91329 -1.6181,-5.14951 v -1.57816 h 4.1044 v 1.89419 c 0,1.78818 0.7491,2.68327 2.2482,2.68327 0.7371,0 1.2961,-0.21702 1.6772,-0.65107 0.382,-0.43404 0.572,-1.13811 0.572,-2.11121 0,-1.15712 -0.263,-2.17622 -0.7891,-3.05731 -0.526,-0.88109 -1.4991,-1.94019 -2.9192,-3.17632 -1.7892,-1.57816 -3.0384,-3.0053 -3.7484,-4.28043 -0.7111,-1.27613 -1.0661,-2.71627 -1.0661,-4.32043 0,-2.18322 0.553,-3.87339 1.6571,-5.07051 1.1051,-1.19612 2.7103,-1.79518 4.8145,-1.79518 2.0782,0 3.6494,0.59906 4.7155,1.79518 1.0651,1.19712 1.5972,2.91329 1.5972,5.14952 v 1.14411 h -4.1035 v -1.42114 c 0,-0.9461 -0.184,-1.63717 -0.552,-2.07121 -0.368,-0.43404 -0.9081,-0.65106 -1.6182,-0.65106 -1.4461,0 -2.1702,0.88108 -2.1702,2.64426 0,0.9991 0.27,1.9332 0.8091,2.80128 0.539,0.86709 1.5191,1.9192 2.9393,3.15632 1.8152,1.57816 3.0653,3.0113 3.7484,4.30043 0.684,1.28813 1.0261,2.80128 1.0261,4.53646 0,2.26223 -0.5591,3.9984 -1.6762,5.20852 -1.1181,1.21012 -2.7433,1.81518 -4.8735,1.81518 z m 12.7843,-12.15222 -5.2475,-15.86059 h 4.6164 l 2.9593,10.14002 h 0.079 l 2.9593,-10.14002 h 4.2214 l -5.2475,15.86059 v 11.75718 h -4.3404 z m 16.5727,12.15222 c -2.1053,0 -3.6964,-0.59906 -4.7745,-1.79518 -1.0791,-1.19712 -1.6182,-2.91329 -1.6182,-5.14951 v -1.57816 h 4.1034 v 1.89419 c 0,1.78818 0.7501,2.68327 2.2493,2.68327 0.737,0 1.2961,-0.21702 1.6771,-0.65107 0.3811,-0.43404 0.5721,-1.13811 0.5721,-2.11121 0,-1.15712 -0.263,-2.17622 -0.7891,-3.05731 -0.5261,-0.88109 -1.4992,-1.94019 -2.9203,-3.17632 -1.7882,-1.57816 -3.0383,-3.0053 -3.7484,-4.28043 -0.71,-1.27613 -1.0651,-2.71627 -1.0651,-4.32043 0,-2.18322 0.5521,-3.87339 1.6572,-5.07051 1.1051,-1.19612 2.7093,-1.79518 4.8135,-1.79518 2.0782,0 3.6503,0.59906 4.7154,1.79518 1.0652,1.19712 1.5982,2.91329 1.5982,5.14952 v 1.14411 h -4.1034 v -1.42114 c 0,-0.9461 -0.184,-1.63717 -0.5521,-2.07121 -0.369,-0.43404 -0.9081,-0.65106 -1.6181,-0.65106 -1.4472,0 -2.1702,0.88108 -2.1702,2.64426 0,0.9991 0.27,1.9332 0.809,2.80128 0.5391,0.86709 1.5192,1.9192 2.9393,3.15632 1.8152,1.57816 3.0643,3.0113 3.7484,4.30043 0.6841,1.28813 1.0261,2.80128 1.0261,4.53646 0,2.26223 -0.559,3.9984 -1.6772,5.20852 -1.1181,1.21012 -2.7422,1.81518 -4.8724,1.81518 z m 12.4292,-24.06741 h -4.5385 v -3.9454 h 13.4164 v 3.9454 h -4.5375 v 23.67237 h -4.3404 z m 10.9691,-3.9454 h 11.8372 v 3.9454 h -7.4968 v 7.29873 h 5.9576 v 3.94539 h -5.9576 v 8.48286 h 7.4968 v 3.94539 h -11.8372 z m 14.3234,0 h 6.1947 l 2.7622,19.76598 h 0.079 l 2.7613,-19.76598 h 6.1956 v 27.61777 h -4.1044 v -20.9111 h -0.078 l -3.1573,20.9111 h -3.6303 l -3.1564,-20.9111 h -0.079 v 20.9111 h -3.7873 z"
    style="clip-rule:evenodd;fill:#ffffff;fill-rule:evenodd;stroke-width:1.0001;stroke-linejoin:round;stroke-miterlimit:2" />
  <path id="NFC-Loading-System-2" serif:id="NFC Loading System"
    d="m 340.68822,174.10653 -0.011,-2.82821 1.93612,-0.007 -0.0681,-16.71193 -1.93613,0.007 -0.011,-2.82943 24.29711,-0.099 0.0912,22.36957 z m 4.82021,-2.8479 16.56977,-0.0675 -0.0681,-16.71194 -16.56977,0.0675 z m 7.00884,36.26947 -0.10636,-26.11439 2.91154,-0.0122 0.10636,26.11439 z m 9.25829,32.25554 -0.9524,-2.16745 c 1.78142,-0.38355 3.22167,-0.88933 4.32076,-1.51515 l 0.96876,2.27412 c -1.17155,0.58568 -2.61808,1.05472 -4.33712,1.40848 z m 0.86148,-8.71863 -0.0638,-15.65676 2.91154,-0.0122 0.0638,15.65675 z m -2.16603,5.23776 -0.93763,-2.15172 c 1.77157,-0.39453 3.20693,-0.9003 4.30606,-1.51619 l 0.96877,2.27399 c -1.17156,0.58691 -2.61812,1.05106 -4.3372,1.39392 z m -5.73433,2.25596 -0.0452,-11.11555 c -0.25235,0.0206 -0.68242,0.0335 -1.29022,0.0359 -6.41004,0.0261 -10.98456,-2.69279 -13.72478,-8.1555 l 2.57164,-2.22728 c 0.91326,2.48386 2.2897,4.36178 4.13055,5.63361 1.84085,1.27171 4.05284,1.90119 6.63351,1.89068 0.75485,-0.004 1.3111,-0.025 1.66752,-0.0669 l -0.0495,-12.1412 2.91154,-0.0122 0.10648,26.14618 z m 8.0074,26.603 c -2.88306,-2.32268 -4.90021,-4.15865 -6.04904,-5.51049 l -12.76247,0.0519 -0.011,-2.59904 10.63765,-0.0434 c -1.92915,-2.48952 -3.40327,-4.88412 -4.41994,-7.18376 l 2.3548,-1.61497 c 1.1226,2.738 2.8262,5.51026 5.10833,8.31938 2.28338,2.81034 4.58736,4.96873 6.912,6.47888 z m -1.23333,21.51844 -2.52504,-1.67092 c 2.18193,-2.53704 3.69665,-5.51969 4.54293,-8.9482 l 2.6502,1.71711 c -1.32711,3.61304 -2.88354,6.58116 -4.66809,8.90201 z m -3.23153,14.1115 c -5.48115,-3.57672 -9.4341,-7.12769 -11.8613,-10.65558 -2.42845,-3.52666 -4.29632,-7.52013 -5.60485,-11.98013 l 2.90425,-1.801 c 1.2604,5.58159 3.25646,10.05361 5.98689,13.41596 2.73166,3.36369 6.28379,6.28416 10.65882,8.76373 z m 6.83401,32.15775 -0.9364,-2.15172 c 1.78137,-0.39445 3.21673,-0.90033 4.30484,-1.51618 l 0.98592,2.27403 c -1.17279,0.58558 -2.62425,1.04987 -4.35436,1.39387 z m -1.30448,-3.46508 -0.64979,-1.2828 -1.20705,1.19847 c -5.20648,-0.82559 -9.54927,-2.61165 -13.02839,-5.35965 -3.47789,-2.74911 -6.3246,-6.67719 -8.53768,-11.78549 l 2.69812,-2.16652 c 1.64508,4.65235 3.84973,8.2951 6.61396,10.92826 2.76546,2.63438 6.28464,4.38595 10.55753,5.25565 l -0.0474,-11.65099 c -2.91474,-1.97579 -5.01448,-3.93027 -6.3029,-5.86123 l 2.05185,-2.28643 c 2.88207,4.18783 6.98497,7.2493 12.31238,9.18463 l -1.34188,2.69645 c -1.40914,-0.58497 -2.68125,-1.21694 -3.81629,-1.89493 l 0.044,10.80922 c 1.66615,-0.40378 3.00721,-0.89335 4.02197,-1.46848 l 0.98598,2.28998 c -1.17279,0.58556 -2.62424,1.04986 -4.35436,1.39386 z m 0.73511,21.92336 -2.93157,-0.99782 c 1.60516,-2.73797 2.58846,-5.9183 2.95115,-9.53843 l 3.01,0.99751 c -0.84386,4.01908 -1.85413,7.19952 -3.02958,9.53874 z m -6.2291,12.25746 c -4.72216,-2.86535 -8.45202,-6.09754 -11.1883,-9.69525 -2.73754,-3.59647 -4.82006,-7.94072 -6.24635,-13.03261 l 2.96818,-1.44826 c 1.29114,5.30443 3.27349,9.72382 5.94825,13.25439 2.67353,3.53178 6.17625,6.35922 10.50695,8.4824 z m -1.90374,-15.20694 -3.05693,-1.08798 c 1.72168,-2.41251 2.79462,-5.54664 3.21885,-9.40105 l 2.93158,0.9966 c -0.7293,3.86668 -1.76047,7.03127 -3.0935,9.49243 z m -13.33632,48.09666 -1.85173,-2.43838 c 4.22635,-3.03548 7.6051,-6.57588 10.13869,-10.6228 -4.23113,-3.25453 -7.81949,-7.25079 -10.76631,-11.98973 l 2.30464,-2.19543 c 2.14579,3.93584 4.94527,7.39851 8.3984,10.38543 3.45314,2.98826 7.34962,5.31417 11.68948,6.97893 l -0.064,-15.68751 2.76938,-0.011 0.1066,18.3477 -0.89356,0.84431 c -4.1281,-1.12406 -7.86386,-2.80121 -11.20974,-5.02998 -2.835,4.36414 -6.37687,8.17 -10.62195,11.41875 z m 20.34534,26.72062 -0.0814,-19.98368 2.91154,-0.0122 0.0814,19.98368 z m -7.91797,3.1668 -0.0453,-11.11554 c -0.25235,0.0218 -0.68242,0.0335 -1.29022,0.0359 -6.41002,0.0261 -10.98455,-2.69158 -13.72477,-8.15428 l 2.57165,-2.2285 c 0.91325,2.48387 2.28968,4.36166 4.13054,5.63349 1.84085,1.27195 4.05284,1.90254 6.63352,1.89203 0.75484,-0.004 1.31108,-0.0262 1.66752,-0.0681 l -0.0495,-12.13999 2.91153,-0.0122 0.10648,26.14509 z m -12.52227,31.94744 -1.20733,-2.7781 c 1.3415,-0.38285 2.7864,-0.94992 4.33595,-1.70011 -1.13345,-10.51439 -2.07528,-17.6105 -2.82428,-21.28737 l 3.12781,-0.76273 0.42393,3.59241 21.246,8.0625 -1.02732,2.60327 -19.7807,-7.53301 1.59851,13.67778 c 3.34926,-1.75624 5.78244,-3.38243 7.29709,-4.87624 l 1.30217,2.89888 c -3.5974,2.80857 -8.42802,5.50833 -14.49183,8.10272 z m 32.27879,-306.1923 c -0.002,-0.66663 0.53671,-1.21045 1.20332,-1.21316 0.66784,-0.002 1.21167,0.53668 1.21439,1.20331 l 1.24628,305.9381 c 0.002,0.66654 -0.53669,1.21044 -1.20453,1.21316 -0.66662,0.002 -1.21046,-0.53677 -1.21317,-1.20332 z m 45.84445,-0.18676 0.0272,6.67227 -20.23469,5.2549 3.9e-4,0.0968 20.25576,-0.0825 0.0194,4.7386 -33.83926,0.13785 -0.0223,-5.46403 24.67673,-6.4825 -3.9e-4,-0.0956 -24.70272,0.10059 -0.0194,-4.7386 z m 0.0841,20.64422 0.0573,14.06875 -4.83419,0.0197 -0.0357,-8.75056 -9.42696,0.0384 0.0279,6.86465 -4.83417,0.0197 -0.0279,-6.86465 -14.74394,0.06 -0.0217,-5.31822 z m -34.22502,24.26416 c -0.01,-2.54514 0.70715,-4.49035 2.15255,-5.8344 1.44421,-1.34281 3.48789,-2.0202 6.13107,-2.03096 l 18.17628,-0.074 c 2.64317,-0.011 4.6923,0.64995 6.14739,1.98095 1.45632,1.33222 2.18966,3.27151 2.20003,5.81667 0.01,2.54636 -0.70715,4.49157 -2.15256,5.83561 -1.4442,1.34281 -3.48788,2.02021 -6.13105,2.03098 l -3.57693,0.0146 -0.0205,-5.02779 3.91513,-0.0159 c 2.09541,-0.009 3.13951,-0.9 3.13229,-2.67191 -0.007,-1.77315 -1.05854,-2.65485 -3.15396,-2.64632 l -18.9017,0.077 c -2.06235,0.009 -3.09053,0.89857 -3.0833,2.67171 0.007,1.77192 1.04262,2.65491 3.10496,2.6465 l 5.17238,-0.0211 0.0205,5.02779 -4.78516,0.0195 c -2.64318,0.011 -4.69232,-0.64995 -6.14741,-1.98096 -1.45631,-1.33221 -2.18965,-3.27151 -2.20002,-5.81788 z m 34.39971,18.61974 0.0217,5.31694 -29.00508,0.11812 0.0357,8.75175 -4.83417,0.0197 -0.0573,-14.06869 z m -34.22502,24.26418 c -0.011,-2.61018 0.72259,-4.61175 2.19968,-6.0037 1.47707,-1.39206 3.56845,-2.09409 6.27656,-2.10513 l 17.78905,-0.0724 c 2.70813,-0.011 4.80515,0.67394 6.29353,2.05392 1.48837,1.37987 2.23788,3.37539 2.2485,5.98558 0.011,2.61129 -0.72259,4.61163 -2.19966,6.00357 -1.47708,1.39207 -3.56845,2.0941 -6.27658,2.10513 l -17.78905,0.0724 c -2.70813,0.011 -4.80515,-0.67395 -6.29351,-2.05393 -1.48838,-1.37986 -2.23788,-3.37416 -2.24852,-5.98545 z m 4.83418,-0.0197 c 0.007,1.8368 1.12388,2.75135 3.34798,2.74228 l 18.46668,-0.0752 c 2.22287,-0.009 3.33178,-0.93268 3.3243,-2.76947 -0.007,-1.83692 -1.12389,-2.75146 -3.34674,-2.7424 l -18.4667,0.0752 c -2.22409,0.009 -3.33301,0.93267 -3.32552,2.76959 z m 29.55293,15.54398 0.0294,7.20411 -33.81682,5.64973 -0.0217,-5.3183 6.71612,-0.9941 -0.0968,3.9e-4 -0.0246,-6.04365 -6.62719,-0.93988 -0.0201,-4.93221 z m -22.60082,5.89444 16.71698,-2.43807 -3.9e-4,-0.0968 -16.73608,-2.25154 z m 22.66305,9.38383 0.0331,8.12196 c 0.011,2.64315 -0.69066,4.62743 -2.10304,5.95539 -1.41241,1.32687 -3.48799,1.99576 -6.22796,2.00692 l -17.11264,0.0697 c -2.73999,0.011 -4.82094,-0.6408 -6.24411,-1.95612 -1.42317,-1.31641 -2.14073,-3.2949 -2.1515,-5.93807 l -0.0331,-8.12194 z m -28.97239,8.14319 c 0.004,0.87008 0.26359,1.53815 0.7814,2.00287 0.5178,0.46608 1.35691,0.69546 2.51736,0.69073 l 17.59545,-0.0717 c 1.16044,-0.005 1.99766,-0.24095 2.51164,-0.71122 0.51398,-0.46893 0.7686,-1.1391 0.76506,-2.00917 l -0.011,-2.70687 -24.17091,0.0985 z m 29.05235,11.48517 0.0217,5.31817 -33.83926,0.13785 -0.0217,-5.31817 z m 0.0379,9.28241 0.0272,6.67221 -20.23469,5.25488 3.9e-4,0.0968 20.25576,-0.0825 0.0194,4.73862 -33.83926,0.13784 -0.0223,-5.46397 24.67672,-6.48258 -3.8e-4,-0.0956 -24.70273,0.10059 -0.0194,-4.73849 z m -34.20847,28.32633 c -0.011,-2.57822 0.7155,-4.54802 2.17556,-5.90803 1.46129,-1.3588 3.5613,-2.04506 6.30127,-2.05622 l 17.78905,-0.0724 c 2.73999,-0.011 4.84552,0.65797 6.31783,2.00482 1.47109,1.34807 2.21312,3.31189 2.22362,5.89011 0.011,2.57821 -0.7155,4.54666 -2.17556,5.9068 -1.46128,1.36002 -3.56129,2.04494 -6.30128,2.05611 l -2.90051,0.0122 -0.0205,-5.02779 3.23994,-0.0132 c 2.22285,-0.009 3.33177,-0.93266 3.32428,-2.76946 -0.007,-1.83693 -1.12387,-2.75135 -3.34674,-2.74229 l -18.51571,0.0755 c -2.19101,0.009 -3.28399,0.93234 -3.27651,2.76927 0.007,1.83681 1.10796,2.75141 3.29896,2.74249 l 6.62327,-0.027 -0.011,-2.65908 4.83417,-0.0197 0.0314,7.68686 -11.07021,0.0451 c -2.73998,0.011 -4.84551,-0.65663 -6.31782,-2.0047 -1.47108,-1.3482 -2.2131,-3.31067 -2.22361,-5.88888 z m 0.10599,26.01018 c -0.011,-2.57822 0.71556,-4.53208 2.17576,-5.85902 1.4614,-1.32693 3.56148,-1.99715 6.30146,-2.00831 l 1.93368,-0.007 0.0205,5.029 -2.32091,0.01 c -2.19099,0.009 -3.28398,0.93125 -3.27651,2.76804 0.004,0.90316 0.27238,1.587 0.80611,2.05178 0.53373,0.46589 1.39735,0.69518 2.58966,0.69032 1.41779,-0.006 2.66515,-0.33311 3.7421,-0.98212 1.07695,-0.64889 2.36978,-1.8465 3.87729,-3.59267 1.92473,-2.20013 3.66713,-3.73787 5.22597,-4.61418 1.56005,-0.87765 3.32285,-1.31981 5.28838,-1.32782 2.67503,-0.011 4.74871,0.65825 6.22102,2.00509 1.47109,1.34808 2.21312,3.3119 2.22362,5.89011 0.01,2.54635 -0.7158,4.47449 -2.17605,5.78673 -1.46148,1.311 -3.5616,1.97154 -6.30159,1.9827 l -1.40184,0.006 -0.0205,-5.02791 1.74129,-0.007 c 1.15922,-0.005 2.00506,-0.23361 2.53504,-0.68668 0.52998,-0.45306 0.79319,-1.11591 0.78965,-1.98599 -0.007,-1.77185 -1.09039,-2.65468 -3.25077,-2.64588 -1.22417,0.005 -2.36734,0.34048 -3.42829,1.00535 -1.05973,0.66476 -2.34396,1.87089 -3.85268,3.61719 -1.92461,2.23199 -3.67436,3.77086 -5.25047,4.61428 -1.57491,0.84451 -3.42721,1.27123 -5.55329,1.27989 -2.77184,0.011 -4.90191,-0.66509 -6.39021,-2.0278 -1.48831,-1.36394 -2.23778,-3.35223 -2.24841,-5.9623 z m 14.95358,15.60358 19.40733,-6.50878 0.023,5.65634 -12.40951,3.67656 4e-4,0.0968 12.43905,3.57534 0.0211,5.17236 -19.45971,-6.35045 -14.40573,0.0587 -0.0217,-5.31817 z m -14.80705,20.3667 c -0.011,-2.57956 0.71556,-4.53208 2.17576,-5.85901 1.4614,-1.32817 3.56149,-1.99727 6.30146,-2.00843 l 1.93368,-0.007 0.0205,5.02777 -2.32089,0.01 c -2.19101,0.009 -3.28399,0.93246 -3.27651,2.76939 0.004,0.90302 0.27238,1.587 0.80611,2.05165 0.53372,0.46479 1.39735,0.6953 2.58966,0.69045 1.41778,-0.006 2.66514,-0.33311 3.74209,-0.98213 1.07695,-0.64901 2.36978,-1.84661 3.87728,-3.59401 1.92475,-2.19891 3.66715,-3.73774 5.22599,-4.61417 1.56005,-0.87631 3.32284,-1.3186 5.28837,-1.3266 2.67504,-0.011 4.74871,0.65714 6.22102,2.00521 1.47109,1.34808 2.21311,3.31067 2.22361,5.88888 0.01,2.54636 -0.71579,4.4756 -2.17604,5.7866 -1.46148,1.31114 -3.5616,1.97278 -6.30159,1.98394 l -1.40184,0.006 -0.0205,-5.02779 1.74128,-0.007 c 1.15923,-0.005 2.00506,-0.23362 2.53505,-0.6868 0.52997,-0.4543 0.79318,-1.11593 0.78964,-1.98587 -0.007,-1.77321 -1.09039,-2.65468 -3.25077,-2.64588 -1.22416,0.005 -2.36734,0.34047 -3.42829,1.00522 -1.05973,0.66487 -2.34396,1.87102 -3.85267,3.6172 -1.92461,2.23199 -3.67436,3.76963 -5.25049,4.61426 -1.57489,0.84465 -3.4272,1.27125 -5.55327,1.27991 -2.77185,0.011 -4.90191,-0.66497 -6.39022,-2.02903 -1.4883,-1.36393 -2.23777,-3.35089 -2.24841,-5.96096 z m 29.55114,15.10902 -0.0227,-5.56089 4.83419,-0.0197 0.0669,16.43873 -4.83417,0.0197 -0.0227,-5.55966 -29.00507,0.11811 -0.0217,-5.31816 z m 4.88893,13.42042 0.0591,14.50379 -4.83417,0.0197 -0.0374,-9.18562 -8.94293,0.0364 0.0298,7.29967 -4.83418,0.0197 -0.0298,-7.29968 -10.39381,0.0424 0.0374,9.18561 -4.83417,0.0197 -0.0591,-14.50378 z m 0.0716,17.55006 0.0309,7.59018 -24.20491,3.48311 3.9e-4,0.0968 24.23248,3.28468 0.0309,7.59129 -33.83926,0.13785 -0.0205,-5.029 25.62176,-0.10439 -3.8e-4,-0.0956 -25.63753,-3.76418 -0.0181,-4.4481 25.60602,-3.97182 -3.9e-4,-0.0968 -25.62178,0.10439 -0.0189,-4.64047 z"
    style="clip-rule:evenodd;fill:#ffffff;fill-rule:evenodd;stroke-width:1.0001;stroke-linejoin:round;stroke-miterlimit:2" />
  <path id="path3" serif:id="NFC Loading System"
    d="m 38.00134,1177.7197 h -2.481563 v -1.6914 H 20.856183 v 1.6914 H 18.373546 V 1156.493 H 38.00134 Z m -2.481563,-4.2212 v -14.4759 H 20.856183 v 14.4759 z m 31.84854,-5.9939 H 44.454705 v -2.5437 h 22.913612 z m 28.334707,-7.9735 -1.905173,0.8243 c -0.330161,-1.5575 -0.768799,-2.8176 -1.313979,-3.78 l 1.998813,-0.8383 c 0.509702,1.0256 0.916087,2.291 1.220339,3.794 z m -7.646816,-0.7836 H 74.31845 v -2.5436 h 13.737758 z m 4.587961,1.9109 -1.891304,0.8115 c -0.339837,-1.5491 -0.778475,-2.8048 -1.314947,-3.7672 l 1.998706,-0.8383 c 0.510777,1.0256 0.912861,2.291 1.207545,3.794 z m 1.958927,5.0177 h -9.75314 c 0.0172,0.2205 0.02688,0.5963 0.02688,1.1272 0,5.6 -2.401973,9.5868 -7.204845,11.9612 L 75.72693,1176.51 c 2.182654,-0.789 3.835287,-1.9848 4.957792,-3.5885 1.122397,-1.6037 1.682628,-3.5338 1.682628,-5.7884 0,-0.6595 -0.0172,-1.1455 -0.05268,-1.457 H 71.661572 v -2.5436 h 22.941524 z m 23.370594,-6.9007 c -2.04827,2.5104 -3.66639,4.2661 -4.85663,5.2649 v 11.1497 h -2.28049 v -9.2934 c -2.19125,1.6765 -4.29757,2.9558 -6.31896,3.8358 l -1.40859,-2.063 c 2.40638,-0.971 4.84491,-2.4493 7.31784,-4.4331 2.474,-1.9848 4.37605,-3.9899 5.70939,-6.0154 z m 18.87627,1.154 -1.47514,2.2 c -2.21824,-1.9153 -4.82985,-3.2491 -7.83506,-4.0007 l 1.5161,-2.3091 c 3.16539,1.1722 5.76411,2.5425 7.7941,4.1098 z m 12.37013,2.8733 c -3.15787,4.7757 -6.28768,8.2164 -9.3918,10.3244 -3.10304,2.1089 -6.61365,3.7266 -10.53161,4.8539 l -1.56986,-2.5437 c 4.90189,-1.0813 8.83286,-2.8091 11.79281,-5.1826 2.96113,-2.3744 5.5363,-5.4672 7.72755,-9.2804 z m 28.24022,-5.8558 -1.8913,0.8104 c -0.33973,-1.5577 -0.77848,-2.8135 -1.31495,-3.7662 l 1.99882,-0.8533 c 0.50959,1.0267 0.91178,2.2964 1.20743,3.8091 z m -3.04498,1.1272 -1.12788,0.5632 1.04725,1.0588 c -0.743,4.5455 -2.32565,8.333 -4.74923,11.3627 -2.42455,3.0285 -5.8813,5.5015 -10.37132,7.4167 l -1.8913,-2.3648 c 4.08793,-1.4206 7.29204,-3.3337 9.6123,-5.7392 2.32134,-2.4066 3.87077,-5.4748 4.64913,-9.2046 h -10.22295 c -1.74402,2.5393 -3.46642,4.3668 -5.16528,5.4855 l -1.99882,-1.8007 c 3.68478,-2.5029 6.38563,-6.0763 8.10276,-10.7236 l 2.36112,1.1818 c -0.5183,1.2291 -1.07735,2.3382 -1.67628,3.3274 h 9.48436 c -0.34833,-1.4571 -0.7731,-2.6304 -1.27409,-3.519 l 2.01279,-0.8532 c 0.50959,1.0266 0.91179,2.2964 1.20744,3.809 z m 19.23858,-0.5642 -0.88599,2.5576 c -2.3966,-1.412 -5.18356,-2.2824 -8.35863,-2.6122 l 0.88598,-2.626 c 3.5234,0.7516 6.31037,1.6455 8.35864,2.6806 z m 10.73265,5.4856 c -2.53098,4.1152 -5.3803,7.3621 -8.54678,9.7398 -3.16539,2.3787 -6.98455,4.1826 -11.45737,5.4105 l -1.26012,-2.5983 c 4.65881,-1.1091 8.54355,-2.8251 11.65089,-5.1492 3.10842,-2.3232 5.60178,-5.3731 7.48018,-9.1489 z m -13.34965,1.6089 -0.96554,2.6668 c -2.11062,-1.5127 -4.85673,-2.4612 -8.23715,-2.8455 l 0.88491,-2.5575 c 3.39009,0.6508 6.16308,1.5629 8.31778,2.7362 z m 42.15322,11.8221 -2.1461,1.609 c -2.64827,-3.703 -5.74261,-6.6674 -9.28439,-8.8952 -2.87072,3.6849 -6.38993,6.8055 -10.55849,9.363 l -1.91808,-2.0212 c 3.46105,-1.8605 6.50926,-4.2939 9.14238,-7.3 2.6343,-3.006 4.68902,-6.4019 6.16523,-10.1873 h -13.76474 v -2.4194 l 16.09898,-0.028 0.73762,0.7835 c -1.00102,3.6025 -2.48593,6.8602 -4.45346,9.7753 3.81905,2.4922 7.14571,5.6 9.98105,9.3201 z m 23.51788,-17.679 h -17.53434 v -2.5436 h 17.53434 z m 2.75031,6.9286 h -9.75314 c 0.0183,0.2205 0.0269,0.5963 0.0269,1.1272 0,5.6 -2.4009,9.5868 -7.20377,11.9612 l -1.94614,-2.2545 c 2.18266,-0.789 3.83518,-1.9848 4.95769,-3.5885 1.12261,-1.6037 1.68381,-3.5338 1.68381,-5.7884 0,-0.6595 -0.0183,-1.1455 -0.0538,-1.457 h -10.65202 v -2.5436 h 22.94055 z m 27.9865,11.0534 -2.44186,1.0449 c -0.33113,-1.1735 -0.82352,-2.4377 -1.47621,-3.7941 -9.22957,0.9528 -15.45919,1.7504 -18.68802,2.3916 l -0.65807,-2.7352 3.15357,-0.3576 7.15013,-18.5322 2.28048,0.9068 -6.6803,17.2539 12.00685,-1.3478 c -1.52899,-2.9322 -2.94715,-5.0637 -4.25242,-6.3922 l 2.54819,-1.1273 c 2.45142,3.1528 4.80298,7.3825 7.05766,12.6892 z M 18.90147,1147.4404 c -0.584915,0 -1.060149,-0.4731 -1.060149,-1.0556 0,-0.5835 0.475234,-1.0566 1.060149,-1.0566 h 268.44014 c 0.58485,0 1.06015,0.4731 1.06015,1.0566 0,0.5825 -0.4753,1.0556 -1.06015,1.0556 z m 0,-40.0513 h 5.854474 l 4.53842,17.6962 h 0.08493 v -17.6962 h 4.157805 v 29.5631 h -4.794324 l -5.599655,-21.5811 h -0.08386 v 21.5811 h -4.1578 z m 18.113912,0 h 12.344393 v 4.2233 H 41.68176 v 8.2357 h 6.023274 v 4.2234 H 41.68176 v 12.8807 h -4.666378 z m 21.167489,29.9861 c -2.233194,0 -3.937389,-0.6338 -5.111509,-1.9013 -1.173045,-1.2665 -1.7601,-3.0543 -1.7601,-5.3635 v -15.8794 c 0,-2.3091 0.587055,-4.097 1.7601,-5.3634 1.17412,-1.2675 2.878315,-1.9013 5.111509,-1.9013 2.234269,0 3.938464,0.6338 5.112584,1.9013 1.173045,1.2664 1.7601,3.0543 1.7601,5.3634 v 3.125 h -4.411548 v -3.4204 c 0,-1.8307 -0.778443,-2.746 -2.333189,-2.746 -1.555811,0 -2.333189,0.9153 -2.333189,2.746 v 16.5131 c 0,1.8018 0.777378,2.7032 2.333189,2.7032 1.554746,0 2.333189,-0.9014 2.333189,-2.7032 v -4.5188 h 4.411548 v 4.1805 c 0,2.3092 -0.587055,4.097 -1.7601,5.3635 -1.17412,1.2675 -2.878315,1.9013 -5.112584,1.9013 z m 16.460257,-29.9861 h 4.66526 v 25.3398 h 7.67907 v 4.2233 h -12.34433 z m 21.167513,29.9861 c -2.290272,0 -4.043856,-0.6477 -5.259894,-1.9431 -1.216145,-1.2953 -1.824648,-3.1249 -1.824648,-5.4908 v -15.5411 c 0,-2.3659 0.608503,-4.1955 1.824648,-5.4909 1.216038,-1.2953 2.969622,-1.943 5.259894,-1.943 2.291238,0 4.043748,0.6477 5.259789,1.943 1.21614,1.2954 1.82464,3.125 1.82464,5.4909 v 15.5411 c 0,2.3659 -0.6085,4.1955 -1.82464,5.4908 -1.216041,1.2954 -2.968551,1.9431 -5.259789,1.9431 z m 0,-4.2233 c 1.611672,0 2.418099,-0.9721 2.418099,-2.9152 v -16.1331 c 0,-1.9419 -0.806427,-2.914 -2.418099,-2.914 -1.61178,0 -2.418208,0.9721 -2.418208,2.914 v 16.1331 c 0,1.9431 0.806428,2.9152 2.418208,2.9152 z m 13.744209,-25.7628 h 6.32112 l 4.8363,29.5631 h -4.66644 l -0.84825,-5.8708 v 0.085 h -5.3029 l -0.84835,5.7862 h -4.32768 z m 5.0911,19.7655 -2.07944,-14.6129 h -0.0849 l -2.03536,14.6129 z m 8.31456,-19.7655 h 7.12647 c 2.31919,0 4.05772,0.6199 5.21785,1.8585 1.15917,1.2386 1.73865,3.0543 1.73865,5.448 v 14.9502 c 0,2.3938 -0.57948,4.2094 -1.73865,5.448 -1.16013,1.2387 -2.89866,1.8584 -5.21785,1.8584 h -7.12647 z m 7.04143,25.3398 c 0.76342,0 1.35053,-0.2247 1.76014,-0.6754 0.41079,-0.4508 0.61506,-1.1831 0.61506,-2.1968 v -15.372 c 0,-1.0138 -0.20427,-1.7461 -0.61506,-2.1967 -0.40961,-0.4507 -0.99672,-0.6756 -1.76014,-0.6756 h -2.3751 v 21.1165 z m 10.18113,-25.3398 h 4.66633 v 29.5631 h -4.66633 z m 8.14469,0 h 5.85442 l 4.5384,17.6962 h 0.0849 v -17.6962 h 4.15782 v 29.5631 h -4.79427 l -5.59973,-21.5811 h -0.0839 v 21.5811 h -4.15771 z m 24.73177,29.9861 c -2.26221,0 -3.98795,-0.6413 -5.17604,-1.9217 -1.18701,-1.2814 -1.78164,-3.1185 -1.78164,-5.5122 v -15.5411 c 0,-2.3938 0.59463,-4.2308 1.78164,-5.5123 1.18809,-1.2803 2.91383,-1.9216 5.17604,-1.9216 2.26221,0 3.98677,0.6413 5.17496,1.9216 1.18808,1.2815 1.78154,3.1185 1.78154,5.5123 v 2.5339 h -4.41154 v -2.8305 c 0,-1.9419 -0.80643,-2.914 -2.4181,-2.914 -1.61178,0 -2.4181,0.9721 -2.4181,2.914 v 16.176 c 0,1.9141 0.80632,2.8723 2.4181,2.8723 1.61167,0 2.4181,-0.9582 2.4181,-2.8723 v -5.7864 h -2.33317 v -4.2232 h 6.74471 v 9.6713 c 0,2.3937 -0.59346,4.2308 -1.78154,5.5122 -1.18819,1.2804 -2.91275,1.9217 -5.17496,1.9217 z m 22.82218,0 c -2.26221,0 -3.97397,-0.6413 -5.13303,-1.9217 -1.15906,-1.2814 -1.73961,-3.1185 -1.73961,-5.5122 v -1.6894 h 4.41261 v 2.0277 c 0,1.9141 0.80536,2.8723 2.41703,2.8723 0.79245,0 1.39343,-0.2324 1.80315,-0.697 0.41068,-0.4646 0.61495,-1.2183 0.61495,-2.2599 0,-1.2386 -0.28275,-2.3295 -0.84836,-3.2726 -0.5655,-0.9432 -1.61167,-2.0769 -3.13841,-3.4001 -1.92356,-1.6893 -3.26656,-3.217 -4.02988,-4.582 -0.7645,-1.366 -1.14616,-2.9075 -1.14616,-4.6247 0,-2.337 0.59453,-4.1462 1.78154,-5.4277 1.18809,-1.2803 2.91383,-1.9216 5.17604,-1.9216 2.23426,0 3.92344,0.6413 5.0696,1.9216 1.14508,1.2815 1.71714,3.1185 1.71714,5.5123 v 1.2246 h -4.41165 v -1.5212 c 0,-1.0127 -0.19781,-1.7525 -0.59345,-2.217 -0.39563,-0.4647 -0.97629,-0.697 -1.73971,-0.697 -1.5547,0 -2.33317,0.9432 -2.33317,2.8306 0,1.0694 0.29027,2.0693 0.86986,2.9985 0.57947,0.9281 1.63317,2.0543 3.16002,3.3787 1.95151,1.6892 3.29548,3.2234 4.02988,4.6033 0.73536,1.3788 1.10315,2.9986 1.10315,4.856 0,2.4216 -0.60108,4.2801 -1.80207,5.5754 -1.20206,1.2954 -2.9493,1.9431 -5.23947,1.9431 z m 13.74432,-13.0083 -5.64155,-16.9778 h 4.96306 l 3.18152,10.8544 h 0.0849 l 3.18152,-10.8544 h 4.5384 l -5.64155,16.9778 v 12.5853 H 209.626 Z m 17.81719,13.0083 c -2.26339,0 -3.97397,-0.6413 -5.13303,-1.9217 -1.16013,-1.2814 -1.73971,-3.1185 -1.73971,-5.5122 v -1.6894 h 4.41153 v 2.0277 c 0,1.9141 0.80643,2.8723 2.41821,2.8723 0.79234,0 1.39343,-0.2324 1.80304,-0.697 0.40972,-0.4646 0.61506,-1.2183 0.61506,-2.2599 0,-1.2386 -0.28275,-2.3295 -0.84836,-3.2726 -0.5656,-0.9432 -1.61178,-2.0769 -3.13959,-3.4001 -1.92248,-1.6893 -3.26646,-3.217 -4.02988,-4.582 -0.76332,-1.366 -1.14508,-2.9075 -1.14508,-4.6247 0,-2.337 0.59356,-4.1462 1.78164,-5.4277 1.18809,-1.2803 2.91275,-1.9216 5.17496,-1.9216 2.23426,0 3.92442,0.6413 5.0695,1.9216 1.14519,1.2815 1.71821,3.1185 1.71821,5.5123 v 1.2246 h -4.41154 v -1.5212 c 0,-1.0127 -0.19781,-1.7525 -0.59355,-2.217 -0.39671,-0.4647 -0.9763,-0.697 -1.73961,-0.697 -1.55588,0 -2.33317,0.9432 -2.33317,2.8306 0,1.0694 0.29028,2.0693 0.86975,2.9985 0.57958,0.9281 1.63328,2.0543 3.16002,3.3787 1.95151,1.6892 3.29441,3.2234 4.02988,4.6033 0.73547,1.3788 1.10315,2.9986 1.10315,4.856 0,2.4216 -0.60097,4.2801 -1.80314,5.5754 -1.20206,1.2954 -2.94812,1.9431 -5.23829,1.9431 z m 13.36255,-25.7628 h -4.87931 v -4.2233 h 14.42388 v 4.2233 h -4.87823 v 25.3398 h -4.66634 z m 11.79281,-4.2233 h 12.72609 v 4.2233 h -8.05976 v 7.8129 h 6.40498 v 4.2233 h -6.40498 v 9.0803 h 8.05976 v 4.2233 h -12.72609 z m 15.39899,0 h 6.65988 l 2.96962,21.1583 h 0.0849 l 2.96866,-21.1583 h 6.66084 v 29.5631 h -4.41261 v -22.384 h -0.0839 l -3.39439,22.384 h -3.90291 l -3.39342,-22.384 h -0.0849 v 22.384 h -4.07171 z"
    style="clip-rule:evenodd;fill:#000000;fill-rule:evenodd;stroke-width:1.0001;stroke-linejoin:round;stroke-miterlimit:2;fill-opacity:1" />
  <rect stroke-width="1" stroke="white" stroke-dasharray="2 2" fill="none" id="placeholder_logo_1" width="270"
    height="50" x="15" y="15" />
  <rect stroke-width="1" stroke="white" stroke-dasharray="2 2" fill="none" id="placeholder_logo_2" width="400"
    height="53" x="500" y="22" />
  <rect stroke-width="1" stroke="white" stroke-dasharray="2 2" fill="none" id="placeholder_logo_3" width="150"
    height="150" x="304" y="1050" />
</svg>