<svg xmlns="http://www.w3.org/2000/svg" width="618.6" height="994">
  <path d="M853.7 635.7c-256.7 0-295.8 24.3-295.8 281 0 256.6 32.6 340.5 289.4 340.5 256.7 0 280.8-86 280.8-342.7s-17.7-278.8-274.4-278.8zM841 690.1a107 107 0 0 1 107 106.8c0 59-47.9 106.7-107 106.7s-107-47.8-107-106.7c0-59 47.9-106.8 107-106.8z" style="fill:#000;fill-rule:evenodd;stroke-width:0" transform="translate(-532.7 -296.4)"/>
  <path d="M557 296.5c-14 .2-24.3 11-24.3 24v945.9c0 11.8 11.5 24 23 24h164c0-6.8 6.3-12.2 14-12.2 7.6 0 13.8 5.4 13.8 12.1v.2H927v-.2c0-6.7 6.2-12.1 13.8-12.1 7.7 0 13.9 5.4 13.9 12.1v.2h172.8c13.4 0 23.7-12.9 23.7-24.3V569.8h-25.1a3.5 3.5 0 0 1-3.5-3.4v-37.7c0-1.9 1.6-3.4 3.5-3.4h25.1V321.5a25 25 0 0 0-25.1-25zm12.7 12.6h519.9c10.3 0 18.6 9.4 18.6 21v274.2c0 11.7-8.3 21.1-18.6 21.1H569.7c-10.2 0-18.5-9.4-18.5-21V330.1c0-11.7 8.3-21.1 18.5-21.1zM840 644.5c84.5 0 152.8 68.2 152.8 152.4 0 84.1-68.3 152.3-152.8 152.3A152.6 152.6 0 0 1 687.1 797c0-84.2 68.5-152.4 153-152.4zm190 169.8c12.1 0 22 9.9 22 22a22 22 0 0 1-22 22 22 22 0 1 1 0-44zM838.7 1000a50.1 50.1 0 0 1 49.8 50.7v146.5a50.1 50.1 0 0 1-49.8 50.7 50.1 50.1 0 0 1-49.7-50.7v-146.5a50.1 50.1 0 0 1 49.7-50.7z" style="opacity:1;fill:#666;stroke-width:0" transform="translate(-532.7 -296.4)"/>
</svg>