<?xml version="1.0" encoding="UTF-8" standalone="no"?>
<svg
   width="619"
   height="994"
   viewBox="0 0 197.90401 318.048"
   version="1.1"
   id="svg16"
   xmlns="http://www.w3.org/2000/svg"
   xmlns:svg="http://www.w3.org/2000/svg">
  <defs
     id="defs5">
    <linearGradient
       id="a"
       x1="0"
       x2="1"
       y1="0"
       y2="0"
       gradientTransform="matrix(-144.31816,0,0,-144.30417,179.196,7.515)"
       gradientUnits="userSpaceOnUse">
      <stop
         offset="0"
         stop-color="#d7c000"
         id="stop1" />
      <stop
         offset=".34"
         stop-color="#cfb600"
         id="stop2" />
      <stop
         offset=".62"
         stop-color="#ffffbf"
         id="stop3" />
      <stop
         offset=".76"
         stop-color="#e0ca00"
         id="stop4" />
      <stop
         offset="1"
         stop-color="#ffef7a"
         id="stop5" />
    </linearGradient>
  </defs>
  <path
     fill="#232530"
     fill-rule="evenodd"
     d="m 192.414,8.247 v 75.73 c 0,1.09 -0.885,1.975 -1.975,1.975 H 7.661 A 1.976,1.976 0 0 1 5.686,83.977 V 8.247 c 0,-1.09 0.886,-1.975 1.975,-1.975 H 190.44 c 1.09,0 1.975,0.886 1.975,1.975"
     id="path5" />
  <path
     fill-rule="evenodd"
     d="M 192.406,8.312 V 18.573 H 5.678 V 8.313 c 0,-1.08 0.876,-1.956 1.954,-1.956 h 182.82 c 1.078,0 1.954,0.876 1.954,1.955 M 127.569,309.11 h 60.055 a 0.696,0.696 0 0 0 0.696,-0.696 V 94.02 c 0,-0.753 -0.611,-1.364 -1.364,-1.364 H 11.146 a 1.365,1.365 0 0 0 -1.365,1.365 v 214.393 c 0,0.384 0.312,0.696 0.696,0.696 h 60.55 c 1.79,-0.21 3.178,-1.567 3.209,-3.217 v -9.679 a 2.396,2.396 0 0 1 2.394,-2.396 h 45.003 a 2.396,2.396 0 0 1 2.396,2.396 v 9.825 c 0.127,1.674 1.653,3.006 3.54,3.071 M 192.414,94.02 v 214.394 a 4.79,4.79 0 0 1 -4.79,4.79 H 10.477 a 4.79,4.79 0 0 1 -4.79,-4.79 V 94.02 a 5.459,5.459 0 0 1 5.458,-5.459 h 175.81 a 5.459,5.459 0 0 1 5.46,5.459"
     id="path6" />
  <path
     fill="url(#a)"
     d="m 13.964,7.172 v 9.814 H 11.019 V 7.172 Z m -1.473,7.85 a 0.491,0.491 0 0 0 0,0.982 0.4905,0.4905 0 0 0 0,-0.981 z m 43.682,-7.85 v 9.814 H 53.23 V 7.172 Z m -1.472,7.85 a 0.491,0.491 0 0 0 0,0.982 0.4905,0.4905 0 0 0 0,-0.981 z m 98.554,-7.85 v 9.814 h -2.944 V 7.172 Z m -1.472,7.85 a 0.4915,0.4915 0 1 0 0,0.983 0.491,0.491 0 0 0 0,-0.982 z m -49.18,-7.85 v 9.814 H 99.66 V 7.172 Z m -1.472,7.85 a 0.491,0.491 0 0 0 0,0.982 0.4905,0.4905 0 0 0 0,-0.981 z M 26.626,7.172 v 9.814 H 23.682 V 7.172 Z m -1.472,7.85 a 0.491,0.491 0 0 0 0,0.982 0.4905,0.4905 0 0 0 0,-0.981 z m 43.682,-7.85 v 9.814 H 65.892 V 7.172 Z m -1.472,7.85 a 0.4915,0.4915 0 1 0 0,0.983 0.491,0.491 0 0 0 0,-0.982 z m 98.554,-7.85 v 9.814 h -2.944 V 7.172 Z m -1.472,7.85 a 0.491,0.491 0 0 0 0,0.982 0.491,0.491 0 1 0 0,-0.981 z m -49.18,-7.85 v 9.814 h -2.944 V 7.172 Z m -1.472,7.85 a 0.491,0.491 0 0 0 0,0.982 0.4905,0.4905 0 0 0 0,-0.981 z M 39.29,7.173 v 9.814 H 36.346 V 7.172 Z m -1.472,7.85 a 0.49150025,0.49150025 0 1 0 0.001,0.983 0.49100025,0.49100025 0 0 0 -0.001,-0.982 z M 81.5,7.173 v 9.814 H 78.555 V 7.172 Z m -1.473,7.85 a 0.49150102,0.49150102 0 1 0 0.002,0.983 0.49100102,0.49100102 0 0 0 -0.002,-0.982 z m 98.555,-7.85 v 9.814 h -2.945 V 7.172 Z m -1.472,7.85 a 0.491,0.491 0 0 0 0,0.982 0.4905,0.4905 0 0 0 0,-0.981 z m -49.18,-7.85 v 9.814 h -2.944 V 7.172 Z m -1.472,7.85 a 0.491,0.491 0 0 0 0,0.982 0.4905,0.4905 0 0 0 0,-0.981 z M 47.732,7.173 v 9.814 H 44.788 V 7.172 Z m -1.472,7.85 a 0.491,0.491 0 0 0 0,0.982 0.491,0.491 0 1 0 0,-0.981 z m 98.554,-7.85 v 9.814 H 141.87 V 7.172 Z m -1.472,7.85 a 0.491,0.491 0 0 0 0,0.982 0.4905,0.4905 0 0 0 0,-0.981 z m -53.4,-7.85 v 9.814 H 86.997 V 7.172 Z m -1.472,7.85 a 0.491,0.491 0 0 0 0,0.982 0.4905,0.4905 0 0 0 0,-0.981 z m 98.554,-7.85 v 9.814 h -2.945 V 7.172 Z m -1.473,7.85 a 0.491,0.491 0 0 0 0,0.982 0.4905,0.4905 0 0 0 0,-0.981 z m -49.179,-7.85 v 9.814 h -2.944 V 7.172 Z m -1.472,7.85 a 0.491,0.491 0 0 0 0,0.982 0.491,0.491 0 1 0 0,-0.981 z M 30.847,7.173 v 9.814 H 27.903 V 7.172 Z m -1.472,7.85 a 0.491,0.491 0 0 0 0,0.982 0.4905,0.4905 0 0 0 0,-0.981 z m 43.682,-7.85 v 9.814 H 70.113 V 7.172 Z m -1.472,7.85 a 0.491,0.491 0 0 0 0,0.982 0.4905,0.4905 0 0 0 0,-0.981 z m 98.554,-7.85 v 9.814 h -2.944 V 7.172 Z m -1.472,7.85 a 0.4915,0.4915 0 1 0 0,0.983 0.491,0.491 0 0 0 0,-0.982 z m -49.18,-7.85 v 9.814 h -2.944 V 7.172 Z m -1.472,7.85 a 0.491,0.491 0 0 0 0,0.982 0.4905,0.4905 0 0 0 0,-0.981 z M 43.51,7.173 v 9.814 H 40.566 V 7.172 Z m -1.472,7.85 a 0.491,0.491 0 0 0 0,0.982 0.4905,0.4905 0 0 0 0,-0.981 z M 85.72,7.173 v 9.814 H 82.775 V 7.172 Z m -1.473,7.85 a 0.491,0.491 0 0 0 0,0.982 0.4905,0.4905 0 0 0 0,-0.981 z m 98.555,-7.85 v 9.814 h -2.945 V 7.172 Z m -1.473,7.85 a 0.49150025,0.49150025 0 1 0 0.001,0.983 0.491,0.491 0 0 0 0,-0.982 z M 132.15,7.173 v 9.814 h -2.944 V 7.172 Z m -1.472,7.85 a 0.491,0.491 0 0 0 0,0.982 0.4905,0.4905 0 0 0 0,-0.981 z M 51.952,7.173 v 9.814 H 49.008 V 7.172 Z m -1.472,7.85 a 0.4915,0.4915 0 1 0 0,0.983 0.491,0.491 0 0 0 0,-0.982 z m 98.554,-7.85 v 9.814 H 146.09 V 7.172 Z m -1.472,7.85 a 0.491,0.491 0 0 0 0,0.982 0.4905,0.4905 0 0 0 0,-0.981 z m -49.18,-7.85 v 9.814 H 95.438 V 7.172 Z m -1.472,7.85 a 0.49150102,0.49150102 0 1 0 0.002,0.983 0.49100102,0.49100102 0 0 0 -0.002,-0.982 z m -2.748,-7.85 v 9.814 H 91.217 V 7.172 Z m -1.473,7.85 a 0.49150025,0.49150025 0 1 0 0.001,0.983 0.491,0.491 0 0 0 0,-0.982 z m 47.903,-7.85 v 9.814 h -2.944 V 7.172 Z m -1.472,7.85 a 0.4915,0.4915 0 1 0 0,0.983 0.491,0.491 0 0 0 0,-0.982 z M 16.195,16.987 H 15.24 V 7.172 h 2.945 v 9.814 h -0.89 l -0.382,1.65 h -0.335 z m 0.517,-1.963 a 0.491,0.491 0 1 0 0,0.982 0.491,0.491 0 0 0 0,-0.982 z m 41.692,1.963 H 57.45 V 7.172 h 2.944 v 9.814 h -0.889 l -0.383,1.65 h -0.334 z m 0.518,-1.963 a 0.491,0.491 0 1 0 0,0.982 0.491,0.491 0 0 0 0,-0.982 z m 96.564,1.963 h -0.954 V 7.172 h 2.944 v 9.814 h -0.888 l -0.384,1.65 h -0.334 z m 0.518,-1.963 a 0.491,0.491 0 1 0 0,0.982 0.491,0.491 0 0 0 0,-0.982 z m -51.169,1.963 H 103.88 V 7.172 h 2.945 v 9.814 h -0.889 l -0.383,1.65 h -0.335 z m 0.517,-1.963 a 0.491,0.491 0 1 0 0,0.982 0.491,0.491 0 0 0 0,-0.982 z m -72.6,1.963 H 32.124 V 7.172 h 2.944 v 9.814 h -1.542 l -0.384,1.65 h -0.334 z m 0.844,-1.963 a 0.491,0.491 0 1 0 0,0.982 0.491,0.491 0 0 0 0,-0.982 z m 41.365,1.963 H 74.334 V 7.172 h 2.944 v 9.814 h -1.543 l -0.383,1.65 h -0.335 z m 0.845,-1.963 a 0.491,0.491 0 1 0 0,0.982 0.491,0.491 0 0 0 0,-0.982 z m 96.237,1.963 h -0.627 V 7.172 h 2.944 v 9.814 h -1.543 l -0.383,1.65 h -0.335 z m 0.845,-1.963 a 0.491,0.491 0 1 0 0,0.982 0.491,0.491 0 0 0 0,-0.982 z m -51.497,1.963 h -0.627 V 7.172 h 2.944 v 9.814 h -1.542 l -0.384,1.65 h -0.334 z m 0.845,-1.963 a 0.491,0.491 0 1 0 0,0.982 0.491,0.491 0 0 0 0,-0.982 z M 21.07,16.986 H 19.461 V 7.172 h 2.944 v 9.814 h -0.56 l -0.057,1.65 h -0.334 z m -0.137,-1.963 a 0.491,0.491 0 1 0 0,0.982 0.491,0.491 0 0 0 0,-0.982 z M 63.28,16.986 H 61.67 V 7.172 h 2.945 v 9.814 h -0.561 l -0.057,1.65 h -0.334 z m -0.137,-1.963 a 0.491,0.491 0 1 0 0,0.982 0.491,0.491 0 0 0 0,-0.982 z m 97.219,1.963 h -1.61 V 7.172 h 2.945 v 9.814 h -0.561 l -0.057,1.65 h -0.334 z m -0.137,-1.963 a 0.491,0.491 0 1 0 0,0.982 0.491,0.491 0 0 0 0,-0.982 z m -50.515,1.963 h -1.609 V 7.172 h 2.944 v 9.814 h -0.56 l -0.057,1.65 h -0.334 z m -0.137,-1.963 a 0.491,0.491 0 1 0 0,0.982 0.491,0.491 0 0 0 0,-0.982 z"
     id="path7" />
  <path
     fill="#ffffff"
     d="m 74.492,43.454 c -5.617,0 -10.84,2.52 -14.328,6.912 -6.267,7.893 -4.941,19.413 2.952,25.683 a 18.087,18.087 0 0 0 11.353,3.964 18.19,18.19 0 0 0 14.326,-6.914 C 95.063,65.206 93.74,53.683 85.847,47.417 A 18.085,18.085 0 0 0 74.492,43.454 Z m 0.49,1.353 a 16.836,16.836 0 0 1 9.631,3.362 l -6.666,8.393 A 6.236,6.236 0 0 0 74.981,55.526 V 44.807 Z m -1,0.008 v 10.698 a 6.21,6.21 0 0 0 -4.395,2.333 6.21,6.21 0 0 0 -1.314,4.6 6.18,6.18 0 0 0 1.962,3.832 l -6.667,8.395 c -6.979,-5.884 -8.072,-16.28 -2.359,-23.476 3.231,-4.07 7.956,-6.236 12.772,-6.382 z m 11.411,3.978 c 6.982,5.884 8.074,16.28 2.359,23.477 -3.232,4.07 -7.956,6.235 -12.773,6.38 V 67.953 a 6.208,6.208 0 0 0 4.396,-2.334 6.208,6.208 0 0 0 1.313,-4.6 6.187,6.187 0 0 0 -1.96,-3.832 l 6.664,-8.396 z m -10.908,7.693 a 5.25,5.25 0 1 1 -3.266,9.361 l -0.004,-0.006 a 5.25,5.25 0 0 1 3.27,-9.355 z m -0.002,2.072 a 3.164,3.164 0 0 0 -2.488,1.2 3.153,3.153 0 0 0 -0.667,2.337 3.155,3.155 0 0 0 1.179,2.124 c 0.56,0.443 1.258,0.688 1.973,0.688 a 3.16,3.16 0 0 0 2.487,-1.2 3.147,3.147 0 0 0 0.668,-2.337 3.153,3.153 0 0 0 -1.179,-2.123 3.184,3.184 0 0 0 -1.973,-0.689 z m 0,1 a 2.1760021,2.1760021 0 1 1 -0.006,4.352 2.1760021,2.1760021 0 0 1 0.006,-4.352 z m -3.468,7.347 a 6.22,6.22 0 0 0 2.966,1.033 v 10.721 a 16.836,16.836 0 0 1 -9.63,-3.361 l 6.664,-8.392 z M 90.778,25.057 c 0,0 -2.456,0.142 -4.887,1.479 -2.5,1.376 -4.973,3.987 -4.724,6.768 0.583,6.497 5.848,5.585 6.39,5.568 0.545,-0.019 1.864,-0.532 1.864,-0.532 l 2.132,-4.507 c 0,0 -2.31,1.456 -4.251,1.336 -1.87,-0.116 -3.38,-1.768 -3.148,-3.65 0.473,-3.836 4.468,-4.844 4.468,-4.844 l 1.599,2.386 1.862,-0.53 z m -31.448,0.027 -2.93,3.18 1.333,1.327 -1.596,9.28 3.193,-1.591 -1.6,-1.59 0.8,-4.773 6.923,7.69 2.132,-10.607 2.397,-1.327 -2.93,-1.589 -1.598,7.423 -6.124,-7.422 z m 11.164,0.793 -0.07,0.32 h 0.435 c 0.423,0 0.471,0.087 0.678,0.26 a 0.676,0.676 0 0 1 0.249,0.5 c 0.005,0.13 -0.053,0.479 -0.173,1.048 l -0.734,3.468 c -0.112,0.195 -0.314,0.312 -0.498,0.434 a 3.07,3.07 0 0 1 -0.664,0.336 0.936,0.936 0 0 1 0.513,0.269 c 0.147,0.15 0.255,0.32 0.325,0.393 l -0.682,3.312 c -0.134,0.628 -0.254,1.019 -0.354,1.167 a 1.168,1.168 0 0 1 -0.48,0.443 2.743,2.743 0 0 1 -0.586,0.196 l -0.07,0.317 h 10.234 l 0.726,-3.725 c -0.554,1.102 -0.649,1.689 -1.5,2.226 -0.85,0.535 -1.62,0.804 -2.844,0.804 h -0.78 c -0.373,0 -0.633,-0.049 -0.781,-0.146 a 0.575,0.575 0 0 1 -0.263,-0.378 c -0.026,-0.152 0.031,-0.57 0.174,-1.254 l 0.745,-3.238 c 0.624,0 1.084,0.078 1.38,0.234 0.295,0.156 0.463,0.174 0.752,0.556 0.343,0.453 0.787,0.684 0.713,1.394 l 0.975,-5.017 c -0.308,0.965 -0.875,1.079 -1.525,1.427 -0.608,0.326 -1.056,0.446 -1.887,0.446 h -0.261 l 1.076,-5.077 h 1.36 c 0.986,0 1.648,0.056 1.984,0.167 0.573,0.184 0.722,0.47 0.976,0.862 0.253,0.392 0.644,1.042 0.638,1.942 l 0.89,-3.686 h -10.67 z m 40.547,277.752 c 0,0.221 0.18,0.401 0.401,0.401 h 2.559 c 0.221,0 0.401,-0.18 0.401,-0.401 v -1.353 h -3.361 z m -1.247,3.299 a 1.885,1.885 0 0 1 -1.885,-1.886 v -5.665 h 9.625 v 5.665 a 1.885,1.885 0 0 1 -1.885,1.886 z m -9.588,-4.652 v 1.353 a 0.4,0.4 0 0 1 -0.4,0.401 h -2.428 v 2.898 h 4.076 c 1.04,0 1.886,-0.844 1.886,-1.886 v -5.665 h -9.627 v 11.072 h 3.132 v -8.173 z m 20.555,-3.523 a 2.525,2.525 0 0 0 -2.508,-2.507 v 0.462 a 2.063,2.063 0 0 1 2.047,2.045 z m -0.852,0 a 1.672,1.672 0 0 0 -1.656,-1.656 v 0.464 a 1.208,1.208 0 0 1 1.193,1.192 z m 1.241,0 h 0.002 v 7.261 a 4.436,4.436 0 0 1 -4.436,4.435 H 97.378 v -2.897 h 18.576 c 1.271,0 2.299,-1.03 2.299,-2.299 v -6.5 h 0.804 a 0.817,0.817 0 0 0 -0.804,-0.803 v 0.803 H 107.19 v 8.175 h -3.133 v -8.175 H 93.713 v -2.897 h 24.54 v 0.001 a 2.915,2.915 0 0 1 2.897,2.896 m -44.398,0 h 2.98 v 7.261 a 4.435,4.435 0 0 0 4.434,4.435 h 9.043 v -2.897 h -8.047 a 2.299,2.299 0 0 1 -2.298,-2.299 v -6.5 h 10.345 v -2.897 H 76.752 Z m 6.83,0.624 h 9.627 v 7.55 h -3.133 v -4.651 h -3.362 v 1.353 c 0,0.221 0.18,0.401 0.402,0.401 h 2.428 v 2.898 h -4.076 a 1.885,1.885 0 0 1 -1.886,-1.886 z M 125.377,62.109 c -0.608,0 -1.067,0.173 -1.377,0.517 -0.32,0.344 -0.48,0.824 -0.48,1.455 v 4.309 c 0,0.628 0.16,1.11 0.48,1.453 0.31,0.346 0.769,0.518 1.377,0.518 0.608,0 1.065,-0.174 1.387,-0.516 0.309,-0.344 0.47,-0.827 0.47,-1.455 v -1.133 h -1.192 v 1.224 c 0,0.493 -0.206,0.733 -0.63,0.733 -0.424,0 -0.631,-0.24 -0.631,-0.733 v -4.482 c 0,-0.493 0.207,-0.742 0.63,-0.742 0.425,0 0.631,0.25 0.631,0.742 v 0.93 h 1.192 v -0.848 c 0,-0.631 -0.161,-1.111 -0.47,-1.455 -0.322,-0.344 -0.779,-0.517 -1.387,-0.517 z m 31.039,0 c -0.608,0 -1.078,0.173 -1.4,0.517 -0.32,0.355 -0.482,0.847 -0.482,1.5 v 4.219 c 0,0.653 0.163,1.146 0.483,1.489 0.321,0.355 0.79,0.527 1.399,0.527 0.608,0 1.077,-0.172 1.398,-0.527 0.32,-0.344 0.48,-0.836 0.48,-1.49 V 65.72 h -1.822 v 1.147 h 0.632 v 1.57 c 0,0.517 -0.22,0.778 -0.654,0.778 -0.436,0 -0.653,-0.261 -0.653,-0.777 v -4.391 c 0,-0.528 0.217,-0.79 0.653,-0.79 0.435,0 0.654,0.262 0.654,0.79 v 0.77 h 1.19 v -0.69 c 0,-0.653 -0.16,-1.147 -0.48,-1.5 -0.321,-0.344 -0.79,-0.517 -1.398,-0.517 z m 6.21,0 c -0.606,0 -1.076,0.173 -1.396,0.517 -0.321,0.355 -0.482,0.848 -0.482,1.479 0,0.469 0.104,0.88 0.31,1.248 0.206,0.377 0.572,0.79 1.088,1.249 0.414,0.355 0.7,0.664 0.848,0.916 0.15,0.264 0.228,0.561 0.228,0.895 0,0.286 -0.056,0.493 -0.158,0.608 -0.115,0.137 -0.275,0.193 -0.494,0.193 -0.434,0 -0.654,-0.261 -0.654,-0.777 v -0.551 h -1.192 v 0.459 c 0,0.653 0.16,1.146 0.47,1.489 0.31,0.355 0.78,0.527 1.387,0.527 0.62,0 1.09,-0.172 1.423,-0.527 0.32,-0.356 0.48,-0.86 0.48,-1.513 0,-0.504 -0.102,-0.94 -0.296,-1.319 -0.196,-0.377 -0.564,-0.79 -1.091,-1.248 -0.413,-0.356 -0.699,-0.665 -0.847,-0.917 a 1.487,1.487 0 0 1 -0.24,-0.814 c 0,-0.514 0.204,-0.766 0.628,-0.766 0.207,0 0.368,0.066 0.47,0.181 0.105,0.127 0.16,0.333 0.16,0.608 v 0.412 h 1.194 v -0.333 c 0,-0.654 -0.15,-1.144 -0.458,-1.499 -0.31,-0.344 -0.77,-0.517 -1.378,-0.517 z m 8.528,0 c -0.606,0 -1.077,0.173 -1.397,0.517 -0.32,0.355 -0.48,0.848 -0.48,1.479 0,0.469 0.101,0.88 0.308,1.248 0.205,0.377 0.573,0.79 1.088,1.249 0.413,0.355 0.7,0.664 0.848,0.916 a 1.787,1.787 0 0 1 0.23,0.895 c 0,0.286 -0.057,0.493 -0.16,0.608 -0.114,0.137 -0.275,0.193 -0.493,0.193 -0.436,0 -0.653,-0.261 -0.653,-0.777 v -0.551 h -1.193 v 0.459 c 0,0.653 0.16,1.146 0.47,1.489 0.31,0.355 0.779,0.527 1.387,0.527 0.619,0 1.09,-0.172 1.421,-0.527 0.322,-0.356 0.48,-0.86 0.48,-1.513 0,-0.504 -0.101,-0.94 -0.296,-1.319 -0.196,-0.377 -0.562,-0.79 -1.09,-1.248 -0.412,-0.356 -0.7,-0.665 -0.847,-0.917 a 1.487,1.487 0 0 1 -0.24,-0.814 c 0,-0.514 0.207,-0.766 0.63,-0.766 0.207,0 0.367,0.066 0.47,0.181 0.104,0.127 0.161,0.333 0.161,0.608 v 0.412 h 1.192 v -0.333 c 0,-0.654 -0.15,-1.144 -0.46,-1.499 -0.31,-0.344 -0.768,-0.517 -1.376,-0.517 z m -35.612,10e-4 c -0.618,0 -1.088,0.17 -1.42,0.525 -0.332,0.356 -0.493,0.85 -0.493,1.494 v 4.216 c 0,0.64 0.161,1.133 0.493,1.488 0.334,0.356 0.802,0.529 1.42,0.529 0.619,0 1.091,-0.173 1.423,-0.53 0.332,-0.354 0.493,-0.846 0.493,-1.487 v -4.218 c 0,-0.642 -0.161,-1.136 -0.493,-1.492 -0.333,-0.354 -0.804,-0.525 -1.423,-0.525 z m -20.778,0.113 v 8.024 h 1.122 v -5.856 h 0.024 l 1.511,5.856 h 1.297 v -8.024 h -1.125 v 4.803 h -0.023 l -1.226,-4.803 z m 4.893,0 v 8.024 h 1.26 V 66.75 h 1.627 v -1.147 h -1.627 V 63.37 h 2.077 v -1.147 h -3.336 z m 10.167,0 v 8.024 h 3.336 v -1.146 h -2.075 v -6.878 z m 9.432,0 -1.307,8.024 h 1.17 l 0.23,-1.57 h 1.432 v -0.024 l 0.23,1.594 h 1.26 l -1.306,-8.024 h -1.71 z m 3.622,0 v 8.024 h 1.927 c 0.63,0 1.099,-0.173 1.41,-0.506 0.309,-0.332 0.47,-0.824 0.47,-1.476 v -4.058 c 0,-0.653 -0.16,-1.146 -0.47,-1.478 -0.311,-0.332 -0.78,-0.506 -1.41,-0.506 z m 4.654,0 v 8.024 h 1.262 v -8.024 h -1.261 z m 2.202,0 v 8.024 h 1.12 v -5.856 h 0.027 l 1.51,5.856 h 1.297 v -8.024 h -1.124 v 4.803 h -0.023 l -1.227,-4.803 h -1.581 z m 15.038,0 1.525,4.608 v 3.414 h 1.259 V 66.83 l 1.526,-4.608 h -1.226 l -0.862,2.946 h -0.021 l -0.863,-2.946 h -1.338 z m 8.63,0 v 1.147 h 1.319 v 6.877 h 1.261 V 63.37 h 1.316 v -1.147 z m 4.504,0 v 8.024 h 3.44 v -1.146 h -2.178 v -2.466 h 1.73 v -1.144 h -1.73 V 63.37 h 2.177 v -1.147 h -3.44 z m 4.162,0 v 8.024 h 1.1 v -6.074 h 0.02 l 0.92,6.074 h 1.053 l 0.92,-6.074 h 0.02 v 6.074 h 1.193 v -8.024 h -1.8 l -0.801,5.743 h -0.025 l -0.8,-5.743 z m -46.526,1.031 c 0.436,0 0.654,0.265 0.654,0.792 v 4.379 c 0,0.526 -0.218,0.79 -0.654,0.79 -0.436,0 -0.652,-0.264 -0.652,-0.79 v -4.379 c 0,-0.527 0.216,-0.792 0.654,-0.792 z m 8.598,0.116 h 0.64 c 0.208,0 0.369,0.057 0.484,0.184 0.102,0.125 0.16,0.32 0.16,0.595 v 4.173 c 0,0.275 -0.058,0.47 -0.16,0.595 -0.115,0.126 -0.276,0.184 -0.483,0.184 h -0.64 V 63.37 Z m -4.091,0.252 h 0.023 l 0.56,3.964 h -1.134 z m -25.285,8.896 a 0.287,0.287 0 1 0 0,0.573 h 72.53 a 0.287,0.287 0 0 0 0,-0.573 z m 42.514,2.121 -0.54,0.228 c 0.147,0.26 0.267,0.606 0.355,1.027 l 0.512,-0.224 a 4.192,4.192 0 0 0 -0.327,-1.03 z m -3.77,0.267 c -0.46,1.261 -1.195,2.233 -2.19,2.913 l 0.542,0.488 c 0.461,-0.305 0.92,-0.802 1.396,-1.49 h 2.76 c -0.207,1.016 -0.63,1.84 -1.252,2.498 -0.632,0.65 -1.494,1.17 -2.6,1.559 l 0.513,0.643 c 1.21,-0.52 2.147,-1.192 2.8,-2.018 0.653,-0.817 1.083,-1.85 1.283,-3.08 l -0.282,-0.29 0.304,-0.152 c -0.08,-0.412 -0.186,-0.756 -0.328,-1.032 l -0.54,0.229 c 0.134,0.245 0.244,0.559 0.342,0.956 h -2.563 a 6.62,6.62 0 0 0 0.453,-0.903 l -0.637,-0.32 z m 30.312,0.17 -1.931,5.027 -0.853,0.099 0.178,0.743 c 0.876,-0.176 2.552,-0.391 5.047,-0.651 0.177,0.367 0.313,0.71 0.4,1.03 l 0.663,-0.282 c -0.61,-1.444 -1.247,-2.59 -1.908,-3.445 l -0.692,0.306 c 0.356,0.359 0.737,0.94 1.153,1.734 l -3.244,0.368 1.803,-4.686 -0.616,-0.242 z m -24.098,0.022 -0.238,0.71 c 0.853,0.091 1.612,0.329 2.258,0.71 l 0.236,-0.693 c -0.55,-0.283 -1.305,-0.52 -2.256,-0.727 z m -24.534,0.244 -0.544,0.23 a 3.587,3.587 0 0 1 0.357,1.025 l 0.512,-0.223 a 4.565,4.565 0 0 0 -0.325,-1.032 z m 9.337,0.024 -0.408,0.627 a 5.108,5.108 0 0 1 2.115,1.084 l 0.4,-0.596 c -0.548,-0.427 -1.254,-0.794 -2.107,-1.115 z m -14.787,0.105 v 0.688 h 3.711 v -0.688 h -3.71 z m 44.543,0 v 0.688 h 4.733 v -0.688 z m -59.659,0.079 v 5.76 h 0.668 v -0.457 h 3.963 v 0.456 h 0.668 v -5.76 h -5.299 z m 56.348,0.013 -4.352,0.008 v 0.658 h 3.72 a 9.324,9.324 0 0 1 -1.662,2.766 8.901,8.901 0 0 1 -2.474,1.978 l 0.52,0.552 a 10.539,10.539 0 0 0 2.852,-2.547 8.963,8.963 0 0 1 2.51,2.417 l 0.578,-0.437 a 10.856,10.856 0 0 0 -2.696,-2.53 9.136,9.136 0 0 0 1.203,-2.65 z m -36.608,0.084 -0.542,0.23 c 0.149,0.26 0.266,0.604 0.356,1.024 l 0.513,-0.22 c -0.083,-0.406 -0.187,-0.751 -0.327,-1.034 z m 6.675,0.102 c -0.364,0.549 -0.877,1.093 -1.545,1.634 a 8.25,8.25 0 0 1 -1.974,1.2 l 0.378,0.556 c 0.549,-0.237 1.114,-0.58 1.706,-1.04 v 2.523 h 0.616 v -3.027 c 0.32,-0.266 0.758,-0.746 1.315,-1.426 z m -25.747,0.488 h 3.963 v 3.926 h -3.963 z m 34.15,0.528 c -0.594,1.038 -1.283,1.87 -2.084,2.52 -0.803,0.642 -1.866,1.106 -3.187,1.405 l 0.423,0.69 a 9.893,9.893 0 0 0 2.844,-1.315 c 0.838,-0.574 1.685,-1.507 2.538,-2.804 z m 14.862,0.076 a 6.85,6.85 0 0 1 -2.02,2.482 c -0.838,0.627 -1.893,1.094 -3.146,1.399 l 0.342,0.703 c 1.21,-0.336 2.24,-0.827 3.094,-1.467 0.854,-0.65 1.626,-1.53 2.309,-2.645 z m -5.28,0.168 -0.236,0.694 c 0.914,0.099 1.655,0.36 2.227,0.772 l 0.26,-0.726 c -0.579,-0.322 -1.33,-0.564 -2.25,-0.74 z m -30.005,0.344 v 0.686 h 2.88 c 0.007,0.084 0.015,0.222 0.015,0.398 0,0.61 -0.155,1.138 -0.451,1.573 -0.307,0.428 -0.753,0.757 -1.347,0.97 l 0.528,0.613 c 1.3,-0.643 1.946,-1.727 1.946,-3.248 0,-0.147 0,-0.244 -0.008,-0.306 h 2.637 v -0.686 z m 44.543,0 v 0.686 h 2.88 c 0.008,0.084 0.014,0.222 0.014,0.398 0,0.61 -0.154,1.138 -0.45,1.573 -0.307,0.428 -0.752,0.757 -1.347,0.97 l 0.528,0.613 c 1.3,-0.643 1.947,-1.727 1.947,-3.248 0,-0.147 0,-0.244 -0.01,-0.306 h 2.638 v -0.686 z m -51.892,0.496 v 0.686 h 6.192 v -0.686 h -6.194 z"
     id="path8" />
  <path
     fill="#9a9a9a"
     fill-rule="evenodd"
     d="m 182.448,299.173 v 3.76 a 3.996,3.996 0 0 1 -3.995,3.995 H 133.18 a 3.996,3.996 0 0 1 -3.995,-3.995 v -3.76 a 3.996,3.996 0 0 1 3.995,-3.995 h 45.273 a 3.996,3.996 0 0 1 3.995,3.995"
     id="path9" />
  <path
     fill="#ffffff"
     fill-rule="evenodd"
     d="m 147.107,298.035 c -0.452,0 -0.8,0.13 -1.04,0.387 -0.24,0.256 -0.36,0.618 -0.36,1.088 v 3.084 c 0,0.469 0.12,0.834 0.36,1.09 0.24,0.258 0.588,0.387 1.04,0.387 0.454,0 0.8,-0.13 1.04,-0.387 0.24,-0.256 0.36,-0.621 0.36,-1.09 v -3.084 c 0,-0.47 -0.12,-0.832 -0.36,-1.088 -0.24,-0.258 -0.586,-0.387 -1.04,-0.387 z m 29.96,0 c -0.45,0 -0.798,0.13 -1.04,0.387 -0.24,0.256 -0.36,0.618 -0.36,1.088 v 3.084 c 0,0.469 0.12,0.834 0.36,1.09 0.242,0.258 0.59,0.387 1.04,0.387 0.454,0 0.8,-0.13 1.04,-0.387 0.24,-0.256 0.362,-0.621 0.362,-1.09 v -3.084 c 0,-0.47 -0.12,-0.832 -0.36,-1.088 -0.243,-0.258 -0.588,-0.387 -1.04,-0.387 z m -43.901,0.084 0.593,5.867 h 1.226 l 0.42,-3.956 h 0.016 l 0.418,3.956 h 1.15 l 0.596,-5.867 h -0.798 l -0.41,4.51 h -0.018 l -0.436,-4.51 h -1.005 l -0.436,4.51 h -0.017 l -0.41,-4.51 z m 4.887,0 v 5.867 h 0.924 v -5.867 z m 1.509,0 v 0.84 h 1.627 l -1.71,4.207 v 0.821 h 2.7 v -0.839 h -1.712 l 1.711,-4.209 v -0.82 z m 3.077,0 v 0.84 h 1.627 l -1.71,4.207 v 0.821 h 2.698 v -0.839 h -1.71 l 1.71,-4.209 v -0.82 z m 8.014,0 v 5.867 h 1.408 c 0.458,0 0.801,-0.123 1.03,-0.368 0.23,-0.246 0.347,-0.608 0.347,-1.083 v -2.967 c 0,-0.474 -0.117,-0.834 -0.347,-1.081 -0.229,-0.245 -0.572,-0.368 -1.03,-0.368 z m 3.404,0 v 5.867 h 2.513 v -0.838 h -1.59 v -1.802 h 1.266 v -0.838 h -1.267 v -1.55 h 1.592 v -0.839 h -2.513 z m 2.8,0 0.889,5.867 h 1.225 l 0.887,-5.867 h -0.847 l -0.605,4.55 h -0.015 l -0.604,-4.55 h -0.932 z m 5.282,0 -2.314,5.867 h 0.796 l 2.313,-5.867 z m 1.054,0 v 0.84 h 0.965 v 5.027 h 0.923 v -5.03 h 0.964 v -0.837 h -2.851 z m 3.62,0 -0.954,5.867 h 0.856 l 0.168,-1.147 h 1.048 v -0.016 l 0.168,1.163 h 0.922 l -0.956,-5.867 h -1.251 z m 2.652,0 v 5.867 h 0.922 v -2.387 h 0.435 c 0.459,0 0.803,-0.125 1.032,-0.37 0.23,-0.247 0.344,-0.607 0.344,-1.082 v -0.579 c 0,-0.474 -0.115,-0.834 -0.344,-1.081 -0.23,-0.245 -0.573,-0.368 -1.032,-0.368 z m 3.01,0 v 0.84 h 0.963 v 5.027 h 0.924 v -5.03 h 0.963 v -0.837 z m -25.368,0.755 c 0.32,0 0.478,0.192 0.478,0.577 v 3.201 c 0,0.387 -0.159,0.58 -0.478,0.58 -0.319,0 -0.478,-0.194 -0.478,-0.58 v -3.2 c 0,-0.386 0.16,-0.578 0.48,-0.578 z m 29.96,0 c 0.32,0 0.478,0.192 0.478,0.577 v 3.201 c 0,0.387 -0.158,0.58 -0.476,0.58 -0.32,0 -0.48,-0.194 -0.48,-0.58 v -3.2 c 0,-0.386 0.16,-0.578 0.48,-0.578 z m -25.489,0.084 h 0.468 c 0.15,0 0.267,0.042 0.348,0.133 0.081,0.088 0.12,0.235 0.12,0.436 v 3.05 c 0,0.202 -0.039,0.347 -0.12,0.44 -0.081,0.089 -0.197,0.133 -0.347,0.133 h -0.469 z m 18.81,0 h 0.435 c 0.15,0 0.264,0.042 0.34,0.126 0.075,0.083 0.114,0.224 0.114,0.427 v 0.693 c 0,0.203 -0.04,0.347 -0.114,0.431 -0.076,0.084 -0.19,0.125 -0.34,0.125 h -0.434 v -1.802 z m -2.995,0.185 h 0.016 l 0.413,2.899 h -0.833 z m -18.315,3.955 v 0.889 h 0.89 v -0.89 h -0.89 z"
     id="path10" />
  <path
     fill="#010101"
     d="m 11.737,24.327 h 38.326 v 55.57 H 11.737 Z"
     id="path11" />
  <path
     fill="#d7e068"
     d="M 10.903,23.491 V 80.728 H 50.895 V 23.492 H 10.903 Z m 1.5,1.75 H 49.227 V 79.228 H 12.403 V 25.242 Z m 1.501,2.25 v 1.503 h 1.748 v 21.99 h 1.5 V 28.991 H 18.9 V 27.49 h -4.996 z m 6.499,0 0.025,15.857 c 0,0.76 0.616,1.374 1.373,1.374 h 2.24 c 0.76,0 1.366,-0.616 1.366,-1.374 L 25.44,27.491 H 23.895 V 42.987 H 21.893 V 27.491 Z m 6.746,0.004 v 17.247 h 1.499 v -8.248 l 0.748,-0.003 1.75,8.248 h 1.75 l -1.75,-8.248 c 0.714,-0.052 1.3,-0.647 1.3,-1.37 L 32.44,28.868 a 1.373,1.373 0 0 0 -1.373,-1.373 h -3.919 z m 7.247,0 v 17.244 l 3.643,0.02 c 0.76,0 1.4,-0.68 1.4,-1.44 v -7.076 c 0,-0.185 -0.288,-0.488 -0.355,-0.648 0.067,-0.16 0.356,-0.46 0.356,-0.643 v -6.084 c 0,-0.757 -0.619,-1.373 -1.376,-1.373 h -3.667 z m 8.624,0 a 1.37,1.37 0 0 0 -1.373,1.373 l 0.005,20.75 c 0,0.758 0.616,1.374 1.373,1.374 h 2.264 c 0.76,0 1.404,-0.616 1.404,-1.373 l -0.005,-20.75 c 0,-0.758 -0.619,-1.374 -1.376,-1.374 h -2.293 z m -14.372,1.747 h 2 v 5.5 h -2 z m 7.248,0 h 2.003 v 5.5 h -2.003 z m 7.25,0 h 1.998 V 49.238 H 43.147 V 29.242 Z m -7.25,7.249 h 2.003 v 6.496 h -2.003 z m 5.75,16.995 v 7.53 c 0.003,0.224 0.023,1.54 0.25,1.968 0.213,0.399 1.147,1.927 1.423,2.374 -0.276,0.45 -1.211,1.977 -1.423,2.373 -0.227,0.43 -0.247,1.747 -0.25,1.97 v 7.531 h 1.502 V 69.7 c 0.003,-0.177 0.024,-1.048 0.248,-1.468 0.116,-0.214 0.497,-0.873 0.873,-1.514 0.379,0.644 0.76,1.3 0.875,1.514 0.224,0.42 0.25,1.29 0.25,1.468 v 7.532 h 1.5 V 69.7 c -0.002,-0.224 -0.02,-1.54 -0.247,-1.968 -0.214,-0.397 -1.147,-1.924 -1.424,-2.373 0.276,-0.448 1.21,-1.976 1.424,-2.375 0.229,-0.428 0.248,-1.741 0.248,-1.968 v -7.53 h -1.5 v 7.53 c -0.003,0.178 -0.027,1.048 -0.251,1.467 a 65.733,65.733 0 0 1 -0.875,1.516 60.439,60.439 0 0 1 -0.873,-1.515 c -0.224,-0.42 -0.248,-1.29 -0.248,-1.466 V 53.486 H 41.647 Z M 16.529,53.49 a 1.373,1.373 0 0 0 -1.373,1.373 v 20.996 c 0,0.76 0.616,1.373 1.373,1.373 L 20.203,77.228 20.2,63.982 h -2.547 v 1.502 h 1 v 9.998 H 16.651 V 55.238 h 2 v 4.748 h 1.546 l -10e-4,-5.123 c 0,-0.76 -0.617,-1.373 -1.373,-1.373 H 16.53 Z m 5.371,6.496 v 17.246 h 1.5 v -8.246 l 0.748,-0.004 1.75,8.248 h 1.75 l -1.75,-8.248 c 0.714,-0.052 1.3,-0.647 1.3,-1.371 l -0.006,-6.253 c 0,-0.76 -0.616,-1.372 -1.373,-1.372 z m 8.627,0 a 1.373,1.373 0 0 0 -1.374,1.373 v 15.873 h 1.543 V 68.984 H 32.9 v 8.248 h 1.544 V 61.358 c 0,-0.76 -0.616,-1.374 -1.373,-1.374 h -2.546 z m 7.245,0 a 1.373,1.373 0 0 0 -1.373,1.373 v 15.873 h 1.545 v -8.248 h 2.204 v -1.75 h -2.204 v -5.496 h 2.453 V 59.987 L 37.771,59.986 Z M 23.4,61.732 h 1.999 v 5.499 H 23.4 Z m 7.293,0 H 32.9 v 5.499 h -2.206 v -5.499 z"
     id="path12" />
  <path
     fill="#f79820"
     d="m 26.775,46.739 a 5.875,5.875 0 0 0 0,11.746 h 7.748 a 5.877,5.877 0 0 0 5.878,-5.874 5.877,5.877 0 0 0 -5.876,-5.874 h -7.747 z m 0.114,0.706 h 7.5 a 5.155,5.155 0 1 1 0,10.31 h -7.5 a 5.155,5.155 0 1 1 0,-10.308 z m -1.987,1.667 v 0.75 h 0.997 v 5.5 h -0.998 v 0.747 h 2.748 v -0.746 h -0.998 v -6.251 h -1.75 z m 5.22,0 a 1.227,1.227 0 0 0 -1.225,1.224 v 4.55 a 1.227,1.227 0 0 0 1.225,1.223 h 4.8 c 0.677,0 1.225,-0.549 1.225,-1.224 v -1.8 c 0,-0.673 -0.3,-0.972 -0.973,-0.972 h -5.525 v -1.99 c 0,-0.254 0.009,-0.262 0.264,-0.262 h 5.226 c 0.254,0 0.258,0.007 0.258,0.262 v 0.738 h 0.75 v -0.525 c 0,-0.677 -0.546,-1.224 -1.225,-1.224 z m -0.21,3.747 h 5.227 c 0.254,0 0.258,0.009 0.258,0.264 v 1.989 h -5.748 v -1.99 c 0,-0.253 0.009,-0.262 0.264,-0.262 z"
     id="path13" />
  <path
     fill="#fdf6e7"
     d="m 26.888,47.783 a 4.865,4.865 0 0 0 -4.859,4.859 c 0,1.296 0.506,2.517 1.423,3.436 a 4.833,4.833 0 0 0 3.436,1.422 h 7.504 a 4.867,4.867 0 0 0 4.859,-4.858 4.864,4.864 0 0 0 -4.859,-4.859 z m 0,10.31 a 5.408,5.408 0 0 1 -3.852,-1.6 5.408,5.408 0 0 1 -1.599,-3.851 5.459,5.459 0 0 1 5.451,-5.451 h 7.504 a 5.457,5.457 0 0 1 5.45,5.45 5.457,5.457 0 0 1 -5.45,5.451 z"
     id="path14" />
  <path
     fill="#fafae8"
     d="m 11.738,24.327 v 55.57 h 38.324 v -55.57 z m 0.664,0.916 H 49.226 V 79.23 H 12.403 V 25.243 Z m 2.668,3 v 0.75 h 1.333 v 21.994 h 0.75 V 28.992 h 1.746 v -0.749 z m 6.08,0 0.027,15.107 c 0,0.76 0.032,1.373 0.786,1.373 h 2.078 c 0.76,0 1.365,-0.616 1.365,-1.373 l 0.033,-15.107 h -0.793 v 15.58 h -2.75 v -15.58 z m 6.75,0 V 44.74 h 0.747 v -8.248 l 1.586,-10e-4 1.746,8.248 h 0.92 l -1.75,-8.248 c 0.713,-0.053 1.3,-0.648 1.3,-1.372 l -0.006,-5.503 c 0,-0.757 -0.617,-1.373 -1.374,-1.373 z m 7.246,0 v 16.496 l 2.893,0.019 c 0.76,0 1.4,-0.68 1.4,-1.44 v -7.075 c 0,-0.187 -0.29,-0.49 -0.356,-0.65 0.067,-0.16 0.356,-0.46 0.356,-0.642 v -5.336 c 0,-0.757 -0.617,-1.373 -1.374,-1.373 h -2.92 z m 8.623,0 a 1.373,1.373 0 0 0 -1.374,1.373 l 0.006,20 c 0,0.756 0.617,1.374 1.373,1.374 h 1.515 c 0.76,0 1.404,-0.618 1.404,-1.374 l -0.006,-20 c 0,-0.758 -0.617,-1.373 -1.374,-1.373 z m -15.12,0.997 h 2.832 v 6.334 h -2.832 z m 7.248,0 h 2.749 v 6.334 h -2.75 V 29.24 Z m 7.249,0 h 2.835 V 50.07 H 43.146 V 29.243 Z m -7.25,7.251 h 2.75 v 7.332 h -2.75 V 36.49 Z m -18.62,17.827 c -0.758,0 -1.374,0.618 -1.374,1.376 v 20.16 c 0,0.76 0.616,1.373 1.373,1.373 l 2.924,-0.003 -0.002,-12.493 h -1.964 v 0.747 h 1.165 l 0.003,10.834 H 16.653 V 55.235 h 2.746 v 4.747 h 0.798 l -0.002,-4.288 c 0,-0.76 -0.617,-1.375 -1.374,-1.375 h -1.547 z m 25.202,0 v 6.698 c 0.003,0.224 0.024,1.539 0.25,1.967 0.213,0.399 1.147,1.927 1.422,2.375 -0.276,0.449 -1.21,1.976 -1.421,2.373 -0.227,0.427 -0.248,1.744 -0.251,1.968 v 7.532 h 0.667 v -7.532 c 0.002,-0.177 0.024,-1.048 0.248,-1.468 0.116,-0.215 0.912,-1.456 1.29,-2.097 0.379,0.644 1.178,1.882 1.29,2.097 0.225,0.42 0.249,1.29 0.249,1.468 v 7.532 h 0.667 v -7.532 c -0.003,-0.224 -0.022,-1.54 -0.248,-1.968 -0.214,-0.397 -1.148,-1.924 -1.424,-2.373 0.276,-0.448 1.21,-1.976 1.424,-2.375 0.229,-0.428 0.248,-1.74 0.248,-1.967 V 54.32 h -0.667 v 6.697 c -0.003,0.178 -0.024,1.047 -0.248,1.467 -0.116,0.216 -0.912,1.539 -1.29,2.183 -0.38,-0.644 -1.175,-1.964 -1.291,-2.183 -0.224,-0.42 -0.248,-1.29 -0.248,-1.467 V 54.32 h -0.667 z m -19.827,6.58 v 16.329 h 0.75 v -8.24 l 1.584,-0.007 1.749,8.247 H 27.65 L 25.903,68.98 c 0.712,-0.052 1.296,-0.646 1.296,-1.37 L 27.195,62.274 A 1.373,1.373 0 0 0 25.822,60.899 H 22.65 Z m 15.872,0 a 1.377,1.377 0 0 0 -1.374,1.376 v 14.953 h 0.796 V 68.98 h 2.208 V 68.063 H 37.945 V 61.73 H 40.4 V 60.903 H 40.396 L 38.522,60.899 Z M 31.277,60.9 c -0.76,0 -1.374,0.618 -1.374,1.375 V 77.23 h 0.796 v -8.248 h 2.955 v 8.248 h 0.79 V 62.275 A 1.373,1.373 0 0 0 33.07,60.902 h -1.793 z m -0.584,0.832 h 2.956 v 6.334 h -2.956 z m -7.294,0.003 h 2.835 v 6.332 h -2.833 v -6.333 z"
     id="path15" />
  <path
     fill="#ffffff"
     d="m 173.99,23.408 a 1.187,1.187 0 0 0 -1.187,1.082 l -0.974,10.547 a 0.83,0.83 0 0 0 -0.69,0.82 v 9.164 c 0,0.41 0.293,0.75 0.692,0.819 l 0.973,10.546 a 1.187,1.187 0 0 0 1.187,1.083 h 12.48 c 0.658,0 1.193,-0.533 1.193,-1.192 V 24.6 a 1.193,1.193 0 0 0 -1.193,-1.192 h -12.48 z m -32.931,0.084 c -7.84,0 -11.407,0.265 -12.835,0.422 a 0.916,0.916 0 0 0 -0.799,0.734 c -5.79,0.79 -8.793,1.796 -10.073,2.33 a 1.416,1.416 0 0 0 -0.848,1.038 l -1.333,6.83 a 0.867,0.867 0 0 0 -0.694,0.847 V 56.33 a 0.867,0.867 0 0 0 0.864,0.866 h 24.096 a 0.395,0.395 0 0 0 0.334,0.189 0.4,0.4 0 0 0 0.337,-0.19 h 26.667 a 0.867,0.867 0 0 0 0.866,-0.866 V 35.693 a 0.865,0.865 0 0 0 -0.693,-0.847 l -1.336,-6.83 a 1.413,1.413 0 0 0 -0.845,-1.04 c -1.28,-0.534 -4.284,-1.539 -10.076,-2.327 a 0.915,0.915 0 0 0 -0.8,-0.735 c -1.427,-0.157 -4.992,-0.422 -12.834,-0.422 z m 32.932,0.276 h 12.48 c 0.46,0 0.832,0.373 0.832,0.832 v 31.677 a 0.832,0.832 0 0 1 -0.832,0.832 h -12.48 a 0.827,0.827 0 0 1 -0.828,-0.756 l -0.97,-10.496 h 3.47 a 5.424,5.424 0 0 0 5.417,-5.417 5.424,5.424 0 0 0 -5.417,-5.419 h -3.47 l 0.97,-10.496 a 0.829,0.829 0 0 1 0.826,-0.757 z m -32.934,0.13 c 7.823,0 11.37,0.263 12.788,0.42 a 0.512,0.512 0 0 1 0.46,0.51 v 10 h -26.493 v -10 c 0,-0.263 0.2,-0.48 0.46,-0.51 1.419,-0.157 4.965,-0.42 12.787,-0.42 z m -13.649,1.163 v 9.767 h -11.82 l 1.315,-6.734 c 0.065,-0.333 0.292,-0.613 0.605,-0.744 1.253,-0.522 4.201,-1.509 9.9,-2.289 z m 27.301,0 c 5.699,0.78 8.646,1.767 9.902,2.29 a 1.016,1.016 0 0 1 0.604,0.743 l 1.314,6.734 h -11.82 V 25.06 Z m 29.136,0.844 a 2.501,2.501 0 0 0 -1.529,0.453 0.264,0.264 0 0 1 -0.152,0.052 h -6.472 a 0.787,0.787 0 0 0 -0.787,0.787 v 6.317 c 0,0.378 0.307,0.686 0.687,0.686 h 0.016 c 3.44,0 6.24,2.798 6.24,6.24 0,3.44 -2.8,6.24 -6.24,6.24 h -0.016 a 0.687,0.687 0 0 0 -0.685,0.685 v 6.377 a 0.787,0.787 0 0 0 0.785,0.786 h 3.175 a 0.547,0.547 0 0 0 0.482,-0.284 0.54,0.54 0 0 0 -0.008,-0.552 3.68,3.68 0 0 1 -0.534,-2.176 c 0.113,-1.723 1.662,-3.295 3.381,-3.434 a 3.687,3.687 0 0 1 3.004,1.158 0.62,0.62 0 0 0 0.693,0.16 0.62,0.62 0 0 0 0.398,-0.587 V 28.48 c 0,-1.355 -1.116,-2.534 -2.438,-2.575 z m -0.008,0.193 c 1.22,0.04 2.254,1.128 2.254,2.38 v 20.334 a 0.427,0.427 0 0 1 -0.276,0.405 0.435,0.435 0 0 1 -0.483,-0.11 3.88,3.88 0 0 0 -3.163,-1.218 c -1.809,0.147 -3.436,1.803 -3.556,3.615 a 3.87,3.87 0 0 0 0.563,2.289 0.353,0.353 0 0 1 0.005,0.357 0.356,0.356 0 0 1 -0.314,0.184 h -3.175 A 0.592,0.592 0 0 1 175.1,53.742 v -6.377 c 0,-0.27 0.22,-0.492 0.492,-0.492 h 0.016 a 6.44,6.44 0 0 0 6.433,-6.433 6.44,6.44 0 0 0 -6.433,-6.434 h -0.016 a 0.493,0.493 0 0 1 -0.493,-0.493 v -6.316 c 0,-0.327 0.266,-0.593 0.593,-0.593 h 6.472 c 0.093,0 0.184,-0.03 0.267,-0.087 a 2.307,2.307 0 0 1 1.406,-0.419 z m -0.118,0.795 c -0.846,0 -1.534,0.688 -1.534,1.533 0,0.846 0.688,1.534 1.534,1.534 0.845,0 1.533,-0.688 1.533,-1.534 0,-0.845 -0.688,-1.533 -1.533,-1.533 z m 0,0.124 a 1.41,1.41 0 0 1 0,2.817 1.41,1.41 0 0 1 -1.408,-1.408 c 0,-0.776 0.632,-1.409 1.408,-1.409 z m 0,0.137 a 1.272,1.272 0 0 0 0,2.543 1.272,1.272 0 0 0 0,-2.543 z m 0,0.178 a 1.0950005,1.0950005 0 1 1 -0.002,2.19 1.0950005,1.0950005 0 0 1 0.002,-2.19 z m -7,0.364 a 0.732,0.732 0 0 0 0.037,1.46 h 1.53 a 0.732,0.732 0 0 0 0,-1.46 z m 0.037,0.122 h 1.53 a 0.608,0.608 0 0 1 0,1.215 l -1.53,-0.001 a 0.607,0.607 0 0 1 0,-1.214 z m 0.001,0.087 a 0.522,0.522 0 0 0 0,1.044 h 1.528 a 0.523,0.523 0 0 0 0,-1.045 h -1.528 z m 0,0.123 h 1.528 a 0.398,0.398 0 0 1 0,0.796 h -1.528 a 0.399,0.399 0 0 1 0,-0.796 z m 0.764,0.026 a 0.373,0.373 0 0 0 -0.37,0.372 0.373,0.373 0 0 0 0.37,0.371 0.373,0.373 0 0 0 0.371,-0.37 0.373,0.373 0 0 0 -0.37,-0.373 z m 2.676,0.23 a 0.143,0.143 0 0 0 0,0.285 h 1.227 a 0.143,0.143 0 0 0 0,-0.285 z m -3.461,1.097 a 0.277,0.277 0 0 0 -0.275,0.277 0.276,0.276 0 0 0 0.551,0 0.277,0.277 0 0 0 -0.276,-0.277 z m 0.764,0.072 a 0.205,0.205 0 1 0 0.227,0.205 0.205,0.205 0 0 0 -0.206,-0.205 z m 0.728,0.061 a 0.144,0.144 0 0 0 -0.133,0.144 0.143,0.143 0 0 0 0.284,0 0.143,0.143 0 0 0 -0.143,-0.144 h -0.007 z m -1.505,0.551 a 0.279,0.279 0 0 0 -0.262,0.277 0.276,0.276 0 0 0 0.551,0 0.277,0.277 0 0 0 -0.276,-0.277 z m 0.8,0.07 a 0.207,0.207 0 0 0 -0.207,0.207 0.205,0.205 0 1 0 0.41,0 0.207,0.207 0 0 0 -0.205,-0.208 z m 0.693,0.065 a 0.144,0.144 0 0 0 -0.123,0.142 0.144,0.144 0 0 0 0.287,0 0.144,0.144 0 0 0 -0.144,-0.142 z m 5.503,0.52 c -0.846,0 -1.534,0.69 -1.534,1.533 a 1.534,1.534 0 0 0 3.067,0 c 0,-0.844 -0.688,-1.533 -1.533,-1.533 z m -6.996,0.03 a 0.277,0.277 0 0 0 0.013,0.552 0.278,0.278 0 0 0 0.276,-0.277 0.276,0.276 0 0 0 -0.276,-0.276 h -0.013 z m 0.789,0.07 a 0.205,0.205 0 1 0 0.01,0 z m 6.207,0.026 a 1.41,1.41 0 0 1 0,2.818 1.41,1.41 0 0 1 -1.408,-1.408 1.41,1.41 0 0 1 1.408,-1.408 z m -5.496,0.036 a 0.145,0.145 0 0 0 -0.13,0.144 0.143,0.143 0 0 0 0.286,0 0.143,0.143 0 0 0 -0.143,-0.144 z m 5.432,0.104 a 1.272,1.272 0 1 0 1.336,1.27 1.272,1.272 0 0 0 -1.272,-1.27 z m 0.064,0.175 a 1.096,1.096 0 0 1 0,2.19 1.096,1.096 0 0 1 0,-2.19 z m -6.96,0.364 a 0.733,0.733 0 0 0 -0.734,0.73 0.733,0.733 0 0 0 0.734,0.731 h 1.528 a 0.73,0.73 0 0 0 0,-1.46 h -1.53 z m 0,0.125 h 1.528 a 0.607,0.607 0 0 1 0,1.214 h -1.53 a 0.608,0.608 0 0 1 0,-1.214 z m 0,0.084 a 0.522,0.522 0 0 0 0,1.044 h 1.526 a 0.523,0.523 0 0 0 0,-1.044 h -1.528 z m 0,0.123 h 1.526 a 0.399,0.399 0 0 1 0,0.797 h -1.528 a 0.4,0.4 0 0 1 0,-0.797 z m 1.493,0.03 a 0.37,0.37 0 1 0 0.02,0 z m 1.945,0.003 a 0.143,0.143 0 0 0 0,0.286 h 1.227 a 0.143,0.143 0 0 0 0,-0.286 z m 0,0.462 a 0.143,0.143 0 0 0 0,0.285 h 1.227 a 0.143,0.143 0 0 0 0,-0.285 z m -64.856,2.886 h 51.435 c 0.253,0 0.459,0.203 0.459,0.456 v 12.362 h -6.286 a 0.136,0.136 0 0 0 -0.133,0.137 0.133,0.133 0 0 0 0.133,0.133 h 6.286 v 0.346 h -6.286 a 0.136,0.136 0 0 0 -0.133,0.136 0.133,0.133 0 0 0 0.133,0.134 h 6.286 v 0.347 h -6.286 a 0.133,0.133 0 0 0 -0.133,0.133 0.133,0.133 0 0 0 0.133,0.136 h 6.286 v 0.344 h -6.286 a 0.136,0.136 0 0 0 -0.133,0.136 c 0,0.075 0.059,0.138 0.133,0.138 h 6.286 v 0.342 h -6.286 a 0.133,0.133 0 0 0 -0.133,0.136 0.133,0.133 0 0 0 0.133,0.134 h 6.286 v 5.544 a 0.459,0.459 0 0 1 -0.459,0.457 h -7.055 V 44.846 a 7.323,7.323 0 0 0 -7.314,-7.317 7.325,7.325 0 0 0 -7.318,7.317 V 56.79 h -29.746 a 0.46,0.46 0 0 1 -0.46,-0.459 v -5.542 h 28.582 a 0.133,0.133 0 0 0 0.134,-0.135 0.133,0.133 0 0 0 -0.134,-0.136 h -28.582 v -0.343 h 28.582 a 0.135,0.135 0 0 0 0.134,-0.137 0.136,0.136 0 0 0 -0.134,-0.136 h -28.582 v -0.344 h 28.582 a 0.133,0.133 0 0 0 0.134,-0.135 0.133,0.133 0 0 0 -0.134,-0.134 h -28.582 v -0.347 h 28.582 a 0.135,0.135 0 1 0 0,-0.27 h -28.582 v -0.346 h 28.582 a 0.133,0.133 0 0 0 0.134,-0.133 0.136,0.136 0 0 0 -0.134,-0.138 h -28.582 v -12.36 c 0,-0.253 0.206,-0.457 0.458,-0.457 z m 56.634,0.147 h 3.688 a 5.062,5.062 0 0 1 5.056,5.056 5.063,5.063 0 0 1 -5.056,5.055 h -3.688 A 0.476,0.476 0 0 1 171.5,45.021 v -9.164 c 0,-0.263 0.213,-0.475 0.475,-0.475 z m -6.267,1.221 a 1.19,1.19 0 0 0 -0.43,0.134 c -0.227,0.125 -0.454,0.361 -0.43,0.613 0.053,0.588 0.53,0.505 0.58,0.504 a 0.813,0.813 0 0 0 0.168,-0.047 l 0.193,-0.408 c 0,0 -0.209,0.131 -0.385,0.12 -0.17,-0.01 -0.307,-0.16 -0.285,-0.329 0.042,-0.348 0.405,-0.44 0.405,-0.44 l 0.144,0.217 0.168,-0.049 -0.117,-0.315 h -0.01 z m -2.837,0.003 -0.266,0.29 0.12,0.118 -0.142,0.84 0.288,-0.143 -0.144,-0.144 0.072,-0.432 0.626,0.695 0.194,-0.96 0.217,-0.12 -0.267,-0.144 -0.144,0.672 z m 1.013,0.072 -0.01,0.03 h 0.042 c 0.037,0 0.041,0.009 0.06,0.023 a 0.067,0.067 0 0 1 0.024,0.044 0.653,0.653 0 0 1 -0.016,0.094 l -0.067,0.314 a 0.136,0.136 0 0 1 -0.046,0.04 0.245,0.245 0 0 1 -0.059,0.031 c 0,0 0.027,0.004 0.048,0.027 0.013,0.013 0.023,0.026 0.03,0.034 l -0.063,0.299 a 0.373,0.373 0 0 1 -0.032,0.105 0.093,0.093 0 0 1 -0.046,0.04 0.186,0.186 0 0 1 -0.053,0.019 l -0.004,0.027 h 0.927 l 0.065,-0.336 c -0.05,0.1 -0.06,0.153 -0.137,0.201 a 0.427,0.427 0 0 1 -0.256,0.072 h -0.07 c -0.033,0 -0.06,-10e-4 -0.073,-0.01 a 0.05,0.05 0 0 1 -0.023,-0.034 0.432,0.432 0 0 1 0.015,-0.116 l 0.067,-0.293 a 0.299,0.299 0 0 1 0.126,0.022 c 0.027,0.014 0.042,0.014 0.067,0.048 0.032,0.042 0.073,0.064 0.067,0.128 l 0.088,-0.453 c -0.028,0.088 -0.08,0.096 -0.139,0.128 a 0.316,0.316 0 0 1 -0.172,0.04 h -0.023 l 0.098,-0.46 h 0.125 a 0.653,0.653 0 0 1 0.179,0.016 c 0.053,0.016 0.066,0.043 0.088,0.079 a 0.307,0.307 0 0 1 0.057,0.176 l 0.081,-0.334 h -0.966 z m 19.91,0.377 a 0.733,0.733 0 0 0 -0.73,0.734 v 1.526 a 0.732,0.732 0 0 0 1.461,0 V 37.79 a 0.733,0.733 0 0 0 -0.73,-0.733 z m 0,0.126 a 0.607,0.607 0 0 1 0.606,0.606 v 1.528 a 0.605,0.605 0 1 1 -1.21,0 V 37.79 c 0,-0.333 0.271,-0.606 0.605,-0.606 z m 0,0.084 a 0.523,0.523 0 0 0 -0.52,0.522 v 1.526 c 0,0.288 0.233,0.524 0.52,0.524 a 0.524,0.524 0 0 0 0.522,-0.524 V 37.79 a 0.523,0.523 0 0 0 -0.52,-0.522 z m 0,0.124 a 0.4,0.4 0 0 1 0.4,0.4 v 1.524 a 0.4,0.4 0 0 1 -0.4,0.4 0.4,0.4 0 0 1 -0.398,-0.4 V 37.79 a 0.4,0.4 0 0 1 0.4,-0.398 z m -67.95,0.124 -0.56,0.565 0.56,0.57 h 3.773 c 0.134,0 0.243,-0.11 0.243,-0.243 v -0.651 a 0.242,0.242 0 0 0 -0.243,-0.241 z m 36.563,0.253 a 7.087,7.087 0 0 1 7.076,7.077 V 56.79 h -1.308 V 46.27 h -11.542 v 10.52 h -1.306 V 44.846 a 7.087,7.087 0 0 1 7.078,-7.078 z m -36.45,0.016 h 3.631 v 0.595 h -3.63 l -0.294,-0.299 z m -0.113,1.756 -0.56,0.568 0.56,0.567 h 2.664 c 0.133,0 0.241,-0.11 0.241,-0.243 v -0.65 a 0.24,0.24 0 0 0 -0.24,-0.242 h -2.666 z m 0.113,0.27 h 2.523 v 0.595 h -2.523 l -0.29,-0.297 0.29,-0.299 z m 67.8,1.075 a 0.732,0.732 0 0 0 -0.693,0.728 v 1.53 a 0.732,0.732 0 0 0 1.461,0 v -1.53 a 0.73,0.73 0 0 0 -0.73,-0.728 z m 0.038,0.123 a 0.605,0.605 0 0 1 0.605,0.605 v 1.53 a 0.605,0.605 0 1 1 -1.21,0 v -1.53 c 0,-0.333 0.271,-0.605 0.605,-0.605 z m 0,0.087 a 0.521,0.521 0 0 0 -0.52,0.52 v 1.528 a 0.521,0.521 0 0 0 1.041,0 v -1.527 a 0.521,0.521 0 0 0 -0.52,-0.521 z m 0,0.122 a 0.4,0.4 0 0 1 0.398,0.399 v 1.527 a 0.4,0.4 0 0 1 -0.797,0 v -1.527 a 0.4,0.4 0 0 1 0.4,-0.4 z m -59.672,2.691 a 0.384,0.384 0 0 0 -0.383,0.383 v 2.422 c 0,0.211 0.173,0.382 0.383,0.382 h 10.176 c 0.21,0 0.38,-0.171 0.38,-0.382 v -2.421 a 0.383,0.383 0 0 0 -0.38,-0.383 h -10.176 z m 0,0.272 h 10.176 a 0.11,0.11 0 0 1 0.11,0.11 v 2.423 a 0.11,0.11 0 0 1 -0.11,0.112 h -10.176 a 0.112,0.112 0 0 1 -0.112,-0.112 v -2.421 c 0,-0.061 0.052,-0.11 0.112,-0.11 z m 23.053,2.632 h 10.457 v 9.976 h -2.625 V 54.701 A 2.607,2.607 0 0 0 152.405,52.096 2.61,2.61 0 0 0 149.8,54.7 v 2.088 h -2.624 v -9.976 z m 35.32,1.643 a 3.315,3.315 0 0 0 -3.31,3.31 3.315,3.315 0 0 0 3.31,3.31 3.315,3.315 0 0 0 3.31,-3.31 3.315,3.315 0 0 0 -3.31,-3.31 z m 0,0.149 a 3.164,3.164 0 0 1 3.16,3.16 3.164,3.164 0 0 1 -3.16,3.16 3.164,3.164 0 0 1 -3.16,-3.16 3.164,3.164 0 0 1 3.16,-3.16 z m 0,0.08 a 3.083,3.083 0 0 0 -3.08,3.08 3.083,3.083 0 0 0 3.08,3.08 3.083,3.083 0 0 0 3.08,-3.08 3.083,3.083 0 0 0 -3.08,-3.08 z m 0,0.168 a 2.933,2.933 0 0 1 0.712,0.09 0.05,0.05 0 0 1 0.036,0.046 l 0.095,1.703 a 0.207,0.207 0 0 0 0.193,0.194 l 1.735,0.107 a 0.05,0.05 0 0 1 0.045,0.035 2.916,2.916 0 0 1 0,1.476 0.05,0.05 0 0 1 -0.045,0.036 l -1.734,0.105 a 0.207,0.207 0 0 0 -0.194,0.195 l -0.095,1.704 a 0.055,0.055 0 0 1 -0.036,0.046 2.924,2.924 0 0 1 -1.427,0 c -0.018,-0.005 -0.032,-0.026 -0.033,-0.046 l -0.096,-1.704 a 0.208,0.208 0 0 0 -0.193,-0.195 l -1.735,-0.107 a 0.048,0.048 0 0 1 -0.045,-0.034 2.936,2.936 0 0 1 0,-1.476 0.048,0.048 0 0 1 0.045,-0.036 l 1.733,-0.106 a 0.208,0.208 0 0 0 0.195,-0.194 l 0.096,-1.703 c 0,-0.021 0.013,-0.04 0.035,-0.045 a 2.933,2.933 0 0 1 0.713,-0.091 z m -0.84,0.065 a 0.15,0.15 0 0 0 -0.02,0.063 l -0.093,1.704 a 0.097,0.097 0 0 1 -0.091,0.09 l -1.733,0.106 a 0.164,0.164 0 0 0 -0.063,0.02 2.983,2.983 0 0 1 2,-1.983 z m 1.68,0 a 2.987,2.987 0 0 1 2,1.983 0.17,0.17 0 0 0 -0.063,-0.02 l -1.734,-0.107 a 0.095,0.095 0 0 1 -0.088,-0.089 l -0.096,-1.704 a 0.17,0.17 0 0 0 -0.02,-0.063 z m -0.873,2.194 a 0.656,0.656 0 1 0 0.033,0 z m 0.004,0.097 h 0.029 a 0.557,0.557 0 1 1 0,1.113 0.559,0.559 0 0 1 -0.56,-0.556 0.56,0.56 0 0 1 0.53,-0.557 z m -30.059,1.159 a 2.335,2.335 0 0 1 2.333,2.333 v 2.088 h -4.666 v -2.088 a 2.336,2.336 0 0 1 2.333,-2.333 z m 27.247,0.261 a 0.164,0.164 0 0 0 0.062,0.02 l 1.734,0.107 a 0.096,0.096 0 0 1 0.09,0.089 l 0.094,1.703 a 0.157,0.157 0 0 0 0.02,0.064 2.983,2.983 0 0 1 -2,-1.983 z m 5.68,0 a 2.987,2.987 0 0 1 -2,1.983 0.181,0.181 0 0 0 0.018,-0.064 l 0.096,-1.703 a 0.093,0.093 0 0 1 0.088,-0.09 l 1.734,-0.106 a 0.17,0.17 0 0 0 0.062,-0.02 z m -48.423,0.844 a 0.576,0.576 0 0 0 0,1.15 h 2.285 v 1.423 c 0,0.147 0.12,0.263 0.264,0.263 h 0.623 a 0.261,0.261 0 0 0 0.261,-0.263 v -2.308 a 0.263,0.263 0 0 0 -0.26,-0.264 h -3.173 z m 24.537,0 a 0.264,0.264 0 0 0 -0.264,0.264 v 2.31 c 0,0.146 0.119,0.262 0.264,0.262 h 0.622 a 0.262,0.262 0 0 0 0.262,-0.263 v -1.422 h 2.286 a 0.575,0.575 0 0 0 0,-1.15 h -3.17 z m -21.373,0.264 0.008,2.299 -0.615,0.009 v -1.693 h -2.557 a 0.304,0.304 0 0 1 0,-0.608 h 2.42 z m 21.373,0.008 h 3.17 a 0.305,0.305 0 0 1 0.305,0.303 0.307,0.307 0 0 1 -0.305,0.304 h -2.556 l 0.006,1.688 -0.613,0.006 V 54.49 l -0.008,-0.743 z m -21.706,3.45 h 0.058 c -0.009,0 -0.018,0.005 -0.029,0.005 -0.01,0 -0.02,-0.004 -0.03,-0.006 z"
     id="path16" />
</svg>
