<?xml version="1.0" encoding="UTF-8" standalone="no"?>
<svg
   width="994"
   height="619"
   viewBox="0 0 318.048 198.048"
   version="1.1"
   xml:space="preserve"
   style="clip-rule:evenodd;fill-rule:evenodd;stroke-linejoin:round;stroke-miterlimit:2"
   id="svg1"
   xmlns="http://www.w3.org/2000/svg"
   xmlns:svg="http://www.w3.org/2000/svg"
   xmlns:serif="http://www.serif.com/"><defs
   id="defs1" />
    <g
   id="Background"
   transform="scale(0.32)">
        <path
   id="White-Background"
   serif:id="White Background"
   d="M 969.144,618.9 H 24.756 C 11.093,618.9 0,607.807 0,594.144 V 24.756 C 0,11.093 11.093,0 24.756,0 H 969.144 C 982.807,0 993.9,11.093 993.9,24.756 v 569.388 c 0,13.663 -11.093,24.756 -24.756,24.756 z"
   style="fill:transparent" />
    </g>
    <g
   id="Frame"
   transform="scale(0.32)">
        <path
   id="Border"
   d="M 966.52,609.525 H 27.38 c -9.937,0 -18.005,-8.068 -18.005,-18.004 V 27.379 c 0,-9.936 8.068,-18.004 18.005,-18.004 h 939.14 c 9.937,0 18.005,8.068 18.005,18.004 v 564.142 c 0,9.936 -8.068,18.004 -18.005,18.004 z m -671.856,-12.5 H 966.52 c 3.039,0 5.505,-2.466 5.505,-5.504 V 27.379 c 0,-3.038 -2.466,-5.504 -5.505,-5.504 H 27.38 c -3.039,0 -5.505,2.466 -5.505,5.504 v 549.559 h 272.789 z" />
        <rect
   id="White-Band"
   serif:id="White Band"
   x="21.875"
   y="492.82199"
   width="272.78299"
   height="84.114998"
   style="fill:#ffffff" />
        <path
   id="Red-Band"
   serif:id="Red Band"
   d="M 294.658,21.875 V 474.897 H 21.875 V 27.379 c 0,-3.038 2.466,-5.504 5.505,-5.504 z"
   style="fill:#1B1E87" />
        <path
   id="Gold-Band"
   serif:id="Gold Band"
   d="m 21.875,474.897 h 272.783 v 17.925 H 21.875 Z"
   style="fill:#EC1B2F" />
        <path
   id="NFC-Loading-System"
   serif:id="NFC Loading System"
   d="m 48.826,568.141 h -2.358 v -1.614 H 32.535 v 1.614 h -2.358 v -20.256 h 18.649 z m -2.358,-4.028 V 550.299 H 32.535 v 13.814 z m 30.262,-5.72 H 54.957 v -2.427 H 76.73 Z m 26.922,-7.609 -1.81,0.787 c -0.315,-1.487 -0.731,-2.689 -1.249,-3.608 l 1.899,-0.8 c 0.484,0.98 0.871,2.187 1.16,3.621 z m -7.266,-0.748 H 83.333 v -2.427 h 13.053 z m 4.359,1.824 -1.797,0.774 c -0.323,-1.478 -0.739,-2.677 -1.249,-3.595 l 1.899,-0.8 c 0.485,0.979 0.867,2.186 1.147,3.621 z m 1.862,4.788 h -9.268 c 0.017,0.21 0.026,0.569 0.026,1.076 0,5.344 -2.282,9.149 -6.845,11.414 l -1.849,-2.152 c 2.074,-0.752 3.644,-1.893 4.71,-3.424 1.067,-1.53 1.6,-3.371 1.6,-5.523 0,-0.63 -0.017,-1.093 -0.051,-1.391 H 80.809 v -2.427 h 21.798 z m 22.205,-6.586 c -1.946,2.397 -3.484,4.072 -4.614,5.025 v 10.64 h -2.167 v -8.869 c -2.082,1.601 -4.084,2.821 -6.004,3.661 l -1.339,-1.968 c 2.286,-0.927 4.604,-2.338 6.954,-4.231 2.35,-1.894 4.158,-3.807 5.424,-5.74 z m 17.936,1.102 -1.402,2.1 c -2.108,-1.828 -4.589,-3.101 -7.445,-3.818 l 1.441,-2.204 c 3.008,1.119 5.477,2.427 7.406,3.922 z m 11.753,2.742 c -3,4.557 -5.974,7.841 -8.923,9.853 -2.949,2.012 -6.285,3.555 -10.007,4.631 l -1.491,-2.427 c 4.657,-1.032 8.392,-2.681 11.204,-4.946 2.813,-2.265 5.261,-5.217 7.343,-8.856 z m 26.833,-5.588 -1.798,0.774 c -0.323,-1.487 -0.739,-2.686 -1.249,-3.595 l 1.899,-0.814 c 0.485,0.98 0.867,2.191 1.148,3.635 z m -2.894,1.075 -1.071,0.538 0.995,1.01 c -0.706,4.339 -2.21,7.953 -4.513,10.844 -2.303,2.89 -5.587,5.249 -9.854,7.077 l -1.797,-2.256 c 3.884,-1.356 6.928,-3.182 9.134,-5.477 2.205,-2.296 3.677,-5.224 4.416,-8.784 h -9.713 c -1.657,2.423 -3.293,4.168 -4.908,5.235 l -1.899,-1.719 c 3.501,-2.388 6.068,-5.799 7.699,-10.233 l 2.244,1.128 c -0.493,1.172 -1.024,2.231 -1.594,3.175 h 9.013 c -0.332,-1.39 -0.735,-2.51 -1.211,-3.358 l 1.912,-0.814 c 0.484,0.98 0.867,2.191 1.147,3.634 z m 18.28,-0.538 -0.842,2.441 c -2.277,-1.347 -4.924,-2.178 -7.941,-2.493 l 0.841,-2.506 c 3.348,0.717 5.996,1.57 7.942,2.558 z m 10.198,5.235 c -2.405,3.927 -5.112,7.025 -8.12,9.295 -3.009,2.27 -6.638,3.991 -10.887,5.163 l -1.198,-2.48 c 4.428,-1.058 8.118,-2.696 11.071,-4.913 2.953,-2.217 5.322,-5.128 7.107,-8.731 z m -12.684,1.535 -0.918,2.545 c -2.005,-1.443 -4.614,-2.348 -7.827,-2.716 l 0.842,-2.44 c 3.22,0.621 5.855,1.491 7.903,2.611 z m 40.052,11.283 -2.04,1.535 c -2.515,-3.534 -5.455,-6.363 -8.821,-8.489 -2.728,3.516 -6.072,6.494 -10.032,8.935 l -1.823,-1.929 c 3.289,-1.775 6.185,-4.097 8.688,-6.966 2.502,-2.869 4.455,-6.11 5.857,-9.722 h -13.079 v -2.309 l 15.297,-0.026 0.701,0.748 c -0.952,3.437 -2.362,6.546 -4.232,9.328 3.629,2.379 6.79,5.344 9.484,8.895 z m 22.346,-16.872 h -16.661 v -2.427 h 16.661 z m 2.613,6.612 h -9.267 c 0.017,0.21 0.025,0.569 0.025,1.076 0,5.344 -2.281,9.149 -6.845,11.414 l -1.848,-2.152 c 2.073,-0.752 3.643,-1.893 4.71,-3.424 1.066,-1.53 1.6,-3.371 1.6,-5.523 0,-0.63 -0.017,-1.093 -0.051,-1.391 h -10.122 v -2.427 h 21.798 z m 26.591,10.548 -2.32,0.997 c -0.315,-1.119 -0.782,-2.326 -1.402,-3.621 -8.77,0.91 -14.689,1.671 -17.757,2.283 l -0.625,-2.611 2.996,-0.341 6.794,-17.685 2.167,0.866 -6.348,16.465 11.409,-1.286 c -1.453,-2.798 -2.8,-4.832 -4.041,-6.1 l 2.422,-1.076 c 2.328,3.009 4.563,7.045 6.705,12.109 z M 30.678,539.246 c -0.556,0 -1.008,-0.452 -1.008,-1.008 0,-0.556 0.452,-1.007 1.008,-1.007 h 255.06 c 0.556,0 1.007,0.451 1.007,1.007 0,0.556 -0.451,1.008 -1.007,1.008 z m 0,-38.22 h 5.562 l 4.313,16.886 h 0.081 v -16.886 h 3.95 v 28.211 h -4.555 l -5.32,-20.594 h -0.081 v 20.594 h -3.95 z m 17.211,0 h 11.729 v 4.03 h -7.295 v 7.859 h 5.723 v 4.03 h -5.723 v 12.292 h -4.434 z m 20.113,28.614 c -2.123,0 -3.742,-0.604 -4.857,-1.813 -1.115,-1.209 -1.673,-2.915 -1.673,-5.119 v -15.153 c 0,-2.204 0.558,-3.91 1.673,-5.119 1.115,-1.209 2.734,-1.814 4.857,-1.814 2.123,0 3.742,0.605 4.857,1.814 1.115,1.209 1.673,2.915 1.673,5.119 v 2.982 H 70.34 v -3.265 c 0,-1.746 -0.739,-2.619 -2.217,-2.619 -1.478,0 -2.217,0.873 -2.217,2.619 v 15.759 c 0,1.719 0.739,2.579 2.217,2.579 1.478,0 2.217,-0.86 2.217,-2.579 v -4.313 h 4.192 v 3.99 c 0,2.204 -0.558,3.91 -1.673,5.119 -1.115,1.209 -2.734,1.813 -4.857,1.813 z m 15.639,-28.614 h 4.434 v 24.181 h 7.295 v 4.03 H 83.641 Z m 20.113,28.614 c -2.177,0 -3.843,-0.618 -4.998,-1.854 -1.156,-1.235 -1.733,-2.982 -1.733,-5.239 v -14.831 c 0,-2.257 0.577,-4.004 1.733,-5.24 1.155,-1.236 2.821,-1.854 4.998,-1.854 2.176,0 3.842,0.618 4.998,1.854 1.155,1.236 1.733,2.983 1.733,5.24 v 14.831 c 0,2.257 -0.578,4.004 -1.733,5.239 -1.156,1.236 -2.822,1.854 -4.998,1.854 z m 0,-4.03 c 1.531,0 2.297,-0.927 2.297,-2.781 v -15.395 c 0,-1.854 -0.766,-2.781 -2.297,-2.781 -1.532,0 -2.298,0.927 -2.298,2.781 v 15.395 c 0,1.854 0.766,2.781 2.298,2.781 z m 13.059,-24.584 h 6.006 l 4.595,28.211 h -4.434 l -0.806,-5.602 v 0.081 h -5.038 l -0.807,5.521 h -4.111 z m 4.837,18.861 -1.975,-13.945 h -0.081 l -1.934,13.945 z m 7.9,-18.861 h 6.772 c 2.203,0 3.856,0.591 4.957,1.773 1.102,1.182 1.653,2.915 1.653,5.199 v 14.267 c 0,2.284 -0.551,4.017 -1.653,5.199 -1.101,1.182 -2.754,1.773 -4.957,1.773 h -6.772 z m 6.691,24.181 c 0.725,0 1.283,-0.215 1.673,-0.645 0.389,-0.43 0.584,-1.128 0.584,-2.095 v -14.671 c 0,-0.967 -0.195,-1.665 -0.584,-2.095 -0.39,-0.43 -0.948,-0.645 -1.673,-0.645 h -2.257 v 20.151 z m 9.673,-24.181 h 4.434 v 28.211 h -4.434 z m 7.739,0 h 5.563 l 4.312,16.886 h 0.081 v -16.886 h 3.95 v 28.211 h -4.555 l -5.32,-20.594 h -0.081 v 20.594 h -3.95 z m 23.499,28.614 c -2.15,0 -3.789,-0.611 -4.917,-1.833 -1.129,-1.223 -1.693,-2.976 -1.693,-5.26 v -14.831 c 0,-2.284 0.564,-4.037 1.693,-5.26 1.128,-1.222 2.767,-1.834 4.917,-1.834 2.15,0 3.789,0.612 4.917,1.834 1.129,1.223 1.693,2.976 1.693,5.26 v 2.418 h -4.192 v -2.7 c 0,-1.854 -0.765,-2.781 -2.297,-2.781 -1.532,0 -2.298,0.927 -2.298,2.781 v 15.436 c 0,1.827 0.766,2.74 2.298,2.74 1.532,0 2.297,-0.913 2.297,-2.74 v -5.522 h -2.216 v -4.03 h 6.408 v 9.229 c 0,2.284 -0.564,4.037 -1.693,5.26 -1.128,1.222 -2.767,1.833 -4.917,1.833 z m 21.685,0 c -2.15,0 -3.775,-0.611 -4.877,-1.833 -1.102,-1.223 -1.653,-2.976 -1.653,-5.26 v -1.612 h 4.192 v 1.935 c 0,1.827 0.766,2.74 2.298,2.74 0.752,0 1.323,-0.222 1.713,-0.665 0.389,-0.443 0.584,-1.162 0.584,-2.156 0,-1.182 -0.269,-2.223 -0.806,-3.124 -0.537,-0.9 -1.532,-1.981 -2.983,-3.244 -1.827,-1.612 -3.103,-3.07 -3.829,-4.373 -0.725,-1.303 -1.088,-2.774 -1.088,-4.413 0,-2.23 0.564,-3.956 1.693,-5.179 1.128,-1.222 2.767,-1.834 4.917,-1.834 2.123,0 3.729,0.612 4.817,1.834 1.088,1.223 1.632,2.976 1.632,5.26 v 1.169 h -4.192 v -1.451 c 0,-0.968 -0.188,-1.673 -0.564,-2.116 -0.376,-0.444 -0.927,-0.665 -1.653,-0.665 -1.477,0 -2.216,0.9 -2.216,2.7 0,1.021 0.275,1.975 0.826,2.862 0.551,0.886 1.552,1.961 3.003,3.224 1.854,1.612 3.13,3.076 3.829,4.393 0.698,1.316 1.048,2.861 1.048,4.635 0,2.31 -0.571,4.084 -1.713,5.319 -1.142,1.236 -2.802,1.854 -4.978,1.854 z m 13.059,-12.413 -5.361,-16.201 h 4.716 l 3.023,10.357 h 0.081 l 3.023,-10.357 h 4.313 l -5.361,16.201 v 12.01 h -4.434 z m 16.929,12.413 c -2.15,0 -3.775,-0.611 -4.877,-1.833 -1.102,-1.223 -1.653,-2.976 -1.653,-5.26 v -1.612 h 4.192 v 1.935 c 0,1.827 0.766,2.74 2.298,2.74 0.752,0 1.323,-0.222 1.713,-0.665 0.389,-0.443 0.584,-1.162 0.584,-2.156 0,-1.182 -0.269,-2.223 -0.806,-3.124 -0.537,-0.9 -1.532,-1.981 -2.983,-3.244 -1.827,-1.612 -3.103,-3.07 -3.829,-4.373 -0.725,-1.303 -1.088,-2.774 -1.088,-4.413 0,-2.23 0.564,-3.956 1.693,-5.179 1.128,-1.222 2.768,-1.834 4.917,-1.834 2.123,0 3.729,0.612 4.817,1.834 1.088,1.223 1.632,2.976 1.632,5.26 v 1.169 h -4.192 v -1.451 c 0,-0.968 -0.188,-1.673 -0.564,-2.116 -0.376,-0.444 -0.927,-0.665 -1.652,-0.665 -1.478,0 -2.217,0.9 -2.217,2.7 0,1.021 0.275,1.975 0.826,2.862 0.551,0.886 1.552,1.961 3.003,3.224 1.854,1.612 3.13,3.076 3.829,4.393 0.699,1.316 1.048,2.861 1.048,4.635 0,2.31 -0.571,4.084 -1.713,5.319 -1.142,1.236 -2.801,1.854 -4.978,1.854 z m 12.697,-24.584 h -4.636 v -4.03 h 13.705 v 4.03 h -4.636 v 24.181 h -4.433 z m 11.205,-4.03 h 12.092 v 4.03 h -7.659 v 7.456 h 6.087 v 4.03 h -6.087 v 8.665 h 7.659 v 4.03 h -12.092 z m 14.631,0 h 6.328 l 2.822,20.191 h 0.08 l 2.822,-20.191 h 6.328 v 28.211 h -4.192 v -21.36 h -0.081 l -3.224,21.36 h -3.708 l -3.225,-21.36 h -0.081 v 21.36 h -3.869 z" />
        <path
   id="TapTo-Logo"
   transform="scale(0.7315, 0.7315) translate(52.5, -312)"
   serif:id="TapTo Logo"
   d="m 269.965,399.319 h -64.057 v 47.301 h -18.136 v -47.301 h -59.895 v -16.77 h 142.088 z m 0,0 h 16.78 v 42.015 c 0,14.173 -11.498,25.663 -25.68,25.663 H 149.096 v -16.768 h 107.56 c 7.351,0 13.309,-5.955 13.309,-13.303 z m 1.146,-5.547 v -2.09 c 3.582,0 6.496,2.913 6.496,6.492 h -2.091 c 0,-2.427 -1.976,-4.402 -4.405,-4.402 z m 8.974,4.404 c 0,-4.947 -4.026,-8.971 -8.974,-8.971 v -2.089 c 6.101,0 11.065,4.962 11.065,11.06 z m 4.57,0 c 0,-7.464 -6.077,-13.536 -13.544,-13.536 v -2.091 c 8.62,0 15.634,7.01 15.634,15.627 z m -159.7,1.143 H 65.059 v 37.609 c 0,7.346 5.959,13.301 13.309,13.301 h 46.587 v 16.768 H 72.602 c -14.182,0 -25.679,-11.49 -25.679,-25.663 V 399.319 H 29.67 v -16.77 h 95.285 z m -55.734,3.608 h 55.734 V 446.62 H 106.819 V 419.698 H 87.357 v 7.833 c 0,1.281 1.038,2.319 2.32,2.319 h 14.058 v 16.77 H 80.136 c -6.029,0 -10.915,-4.883 -10.915,-10.909 z m 58.656,0 h 55.734 v 32.784 c 0,6.026 -4.887,10.909 -10.916,10.909 h -23.599 v -16.77 h 14.058 c 1.282,0 2.322,-1.038 2.322,-2.319 v -7.833 h -19.463 v 47.299 h -18.136 z m 137.927,0 v 32.784 c 0,6.026 -4.887,10.909 -10.915,10.909 h -33.904 c -6.028,0 -10.916,-4.883 -10.916,-10.909 v -32.784 z m -18.136,16.771 h -19.463 v 7.833 c 0,1.281 1.04,2.319 2.322,2.319 h 14.82 c 1.282,0 2.321,-1.038 2.321,-2.319 z"
   style="fill:#ffffff" />
      <g fill="none" stroke="#FFFFFF" stroke-linecap="round" stroke-linejoin="round" stroke-miterlimit="10" transform="scale(1.4, 1.4) translate(40, 120)"> 
   <path
     stroke-width="0.768615"
     d="m 124.72812,88.243357 c 0.23135,9.83026 -8.82795,18.540493 -18.65764,17.880253 -30.337582,-0.0775 -60.748339,0.1546 -91.04041,-0.1154 -3.36233,-0.72203 -4.429091,-4.61422 -3.802589,-7.669293 0.103721,-25.096733 -0.206591,-50.346257 0.15364,-75.348256 0.78404,-3.122197 4.409304,-4.326006 7.43342,-3.65275 34.023177,0.0773 68.156137,-0.15433 102.110979,0.11535 3.18124,0.678009 4.44904,4.359795 3.80167,7.415883 3.1e-4,20.458071 6.2e-4,40.916142 9.3e-4,61.374213 z M 0.856899,11.839631 c 44.72167,0 89.443339,0 134.165011,0 m -10.48584,0 c 0,-3.665739 0,-7.331477 0,-10.997216 M 11.342742,11.839631 c 0,-3.665739 0,-7.331477 0,-10.997216 M 76.716018,223.4399 c 4.78841,-2.51218 9.57681,-5.02437 14.36522,-7.53655 m 2.72709,-1.42272 c 1.36994,-0.71777 2.73989,-1.43553 4.10983,-2.1533 m 2.688682,-1.42272 c 1.38275,-0.71777 2.7655,-1.43553 4.14825,-2.1533 m 2.68867,-1.42271 c 1.36995,-0.71777 2.73989,-1.43554 4.10984,-2.15331 m 2.72709,-1.42271 c 1.36994,-0.71777 2.73989,-1.43553 4.10983,-2.1533 m 2.68868,-1.42272 c 1.38275,-0.71777 2.7655,-1.43553 4.14825,-2.1533 m 2.68867,-1.42272 c 2.3686,-1.24327 4.73719,-2.48655 7.10579,-3.72982"
   />
  <path
     stroke-width="1.07606"
     d="m 101.91277,155.80318 c -0.0205,-5.40593 -5.429036,-8.63459 -10.082691,-7.38589 -4.653656,1.2487 -6.866186,5.79059 -5.292958,10.33135 1.573227,4.54076 6.02786,5.70565 9.349742,4.81372 3.321881,-0.89193 6.046397,-2.35325 6.025907,-7.75918 z m 22.50807,-10.56754 c -0.12935,-5.53325 -5.3877,-8.40576 -10.05851,-7.229 -4.66131,1.17435 -7.74842,5.69235 -5.06246,11.39162 1.94192,3.57265 5.7736,4.5903 9.09408,3.69922 3.32048,-0.89109 6.15624,-2.32859 6.02689,-7.86184 z m -82.84968,43.48228 c 0.800686,1.97624 3.504523,1.28626 5.076498,0.14931 2.755471,-1.51922 6.506272,-2.42031 8.827827,-4.18648 1.479273,-1.52923 -0.386616,-4.48092 -2.535069,-3.46156 -3.497355,1.79223 -7.75091,3.17223 -10.946765,5.07577 -0.531379,0.5519 -0.821,1.65258 -0.422491,2.42296 z M 23.326562,147.61295 c 0.166174,-3.1284 -0.293115,-6.80209 0.15364,-9.68983 1.469806,-1.22171 2.944508,-0.35718 6.005051,-0.4617 1.798774,0.0521 3.102455,-0.70691 3.059647,1.8647 v 8.28669 c 3.186983,0.179 6.753723,-0.32679 9.756062,0.1923 0.377365,1.95667 0.378635,4.60045 0.422509,6.75564 0.278505,1.43156 -0.498227,2.71769 -2.218983,2.28087 h -7.921181 c -0.188742,3.11123 0.307758,6.59138 -0.11523,9.57458 -1.111302,1.38744 -3.917566,0.17059 -5.649491,0.5769 -1.590616,0.16491 -3.974319,0.38115 -3.453619,-1.8263 v -8.32514 c -3.17067,-0.15727 -6.730106,0.28062 -9.717649,-0.1538 -1.27494,-1.14496 -0.495427,-4.00413 -0.49933,-6.04472 -0.06667,-1.40616 -1.172777,-3.77337 1.786602,-3.06902 2.791341,0.0265 5.627857,-0.0525 8.391972,0.0388 z m 7.605117,-53.870983 c 0.119676,2.66767 4.201451,1.35912 6.264049,1.65271 21.784493,-0.0515 43.7145,0.10273 65.408412,-0.0768 2.22643,-0.90765 0.70753,-4.51244 1.152,-6.62068 -0.0517,-19.397103 0.10309,-38.940475 -0.0768,-58.246939 -0.93975,-2.251547 -4.510642,-0.69186 -6.619242,-1.1535 -21.64801,0.05146 -43.38128,-0.102786 -64.976132,0.0769 -2.251916,0.838464 -0.677158,4.51833 -1.152299,6.698078 z m 33.723699,94.975953 c 0.7206,1.7861 3.1886,1.47189 4.71649,0.31034 2.85681,-1.48982 6.75163,-2.65929 9.14878,-4.27051 1.41943,-1.33697 -0.0221,-4.34028 -2.18894,-3.61527 -3.548,1.6359 -7.94227,3.28895 -11.21538,5.11417 -0.59285,0.60119 -0.83718,1.64513 -0.46095,2.46127 z"
   />
  <path
     stroke-width="1.07606"
     d="m 84.129088,199.9074 c -2.06948,1.36778 0.6867,3.95173 1.3594,5.69433 2.82955,4.99065 5.50044,10.43351 8.39672,15.18563 1.38449,1.11969 3.33436,-0.8393 2.06934,-2.2852 -3.35567,-6.07016 -6.69922,-12.57122 -10.05883,-18.40247 -0.42362,-0.34974 -1.20273,-0.53087 -1.76663,-0.19229 z m 6.7601,-3.69138 c -1.44305,0.70711 -0.46647,3.02095 0.56796,4.24852 3.0982,5.47836 5.9922,11.39735 9.188152,16.63155 1.26213,1.05254 3.13159,-0.59455 2.26581,-1.92296 -3.400552,-6.18338 -6.834452,-12.76536 -10.216912,-18.72611 -0.47973,-0.42747 -1.243,-0.5245 -1.80501,-0.231 z m 6.76011,-3.69137 c -1.5123,0.84837 -0.36012,3.00559 0.60285,4.25012 3.051652,5.44065 6.024382,11.45093 9.114862,16.59114 1.65881,1.27835 3.44973,-1.00289 1.94846,-2.6081 -3.3587,-5.96297 -6.52071,-12.35964 -9.976392,-18.07916 -0.45055,-0.38345 -1.20925,-0.38841 -1.68978,-0.154 z m 6.798512,-3.65292 c -1.9045,1.00547 0.20073,3.52202 0.9574,4.93631 2.9156,5.22534 5.78101,10.93771 8.72191,15.90515 1.36601,1.15351 3.40083,-0.77483 2.14558,-2.28503 -3.42759,-6.09175 -6.63107,-12.55923 -10.17346,-18.44108 -0.34018,-0.30802 -1.21033,-0.46776 -1.65143,-0.11535 z m 6.7601,-3.69137 c -1.97714,1.09208 0.38166,3.7383 1.15674,5.33541 2.91756,5.11484 5.54178,10.65841 8.59936,15.54441 1.42278,1.0647 3.27661,-0.81238 2.069,-2.32347 -3.42503,-6.07084 -6.63162,-12.63291 -10.17372,-18.44108 -0.38684,-0.30135 -1.15463,-0.45828 -1.65138,-0.11527 z m 6.76011,-3.69138 c -1.37217,0.60885 -0.65796,2.78964 0.36957,3.88716 3.10463,5.52696 6.20458,11.75787 9.30974,16.9157 1.44679,1.22806 3.39466,-0.72587 2.14579,-2.24642 -3.40833,-6.06712 -6.63064,-12.5806 -10.13532,-18.40269 -0.42954,-0.37395 -1.18705,-0.46854 -1.68978,-0.15375 z M 18.981774,53.52576 c -1.101653,0.03804 -1.833744,-0.897806 -1.854654,-1.654197 -0.02091,-0.75639 0.360633,-1.8315 1.705684,-1.827778 1.34505,0.0037 1.776193,0.940529 1.77807,1.708199 0.0019,0.76767 -0.527446,1.735735 -1.6291,1.773776 z"
   />
  <path
     stroke-width="1.34508"
     d="m 106.60673,223.54157 c -34.066098,-0.0773 -67.803132,0.1303 -101.8133919,-0.0433 -3.010718,-0.67468 -4.06676719,-2.75792 -4.08100516,-5.84643 C 0.76357294,147.03336 0.60986597,76.348322 0.78915294,5.7714502 0.81448265,3.358153 4.2004254,0.82874353 7.8995002,0.79985297 49.174301,0.87694297 89.495469,0.46862684 130.70198,0.73802584 c 5.20524,-0.0281875 4.34237,4.82624546 4.39803,7.18997256 -0.0512,63.0121096 0.14671,126.1255516 -0.0325,189.1297016 -0.91341,14.52322 -13.90173,26.43228 -28.46077,26.48387 z" />
  </g>
        <path
   id="URL"
   d="m 94.457,584.974 h 2.501 l 1.157,12.693 h 0.047 l 1.227,-12.693 h 2.831 l 1.227,12.693 h 0.047 l 1.156,-12.693 h 2.242 l -1.675,16.515 h -3.233 l -1.18,-11.136 h -0.047 l -1.18,11.136 h -3.444 z m 13.756,0 h 2.596 v 16.515 h -2.596 z m 4.012,14.203 4.813,-11.844 h -4.577 v -2.359 h 7.361 v 2.312 l -4.813,11.844 h 4.813 v 2.359 h -7.597 z m 8.659,0 4.814,-11.844 h -4.578 v -2.359 h 7.362 v 2.312 l -4.814,11.844 h 4.814 v 2.359 h -7.598 z m 12.812,2.548 c -1.274,0 -2.249,-0.362 -2.925,-1.085 -0.677,-0.724 -1.015,-1.746 -1.015,-3.067 v -8.683 c 0,-1.321 0.338,-2.343 1.015,-3.067 0.676,-0.723 1.651,-1.085 2.925,-1.085 1.275,0 2.25,0.362 2.926,1.085 0.677,0.724 1.015,1.746 1.015,3.067 v 8.683 c 0,1.321 -0.338,2.343 -1.015,3.067 -0.676,0.723 -1.651,1.085 -2.926,1.085 z m 0,-2.359 c 0.897,0 1.345,-0.543 1.345,-1.628 v -9.013 c 0,-1.085 -0.448,-1.628 -1.345,-1.628 -0.896,0 -1.344,0.543 -1.344,1.628 v 9.013 c 0,1.085 0.448,1.628 1.344,1.628 z m 5.545,-0.378 h 2.502 v 2.501 h -2.502 z m 4.436,-14.014 h 3.964 c 1.29,0 2.258,0.346 2.903,1.038 0.645,0.692 0.967,1.707 0.967,3.043 v 8.352 c 0,1.337 -0.322,2.352 -0.967,3.044 -0.645,0.692 -1.613,1.038 -2.903,1.038 h -3.964 z m 3.917,14.156 c 0.425,0 0.751,-0.126 0.979,-0.378 0.228,-0.251 0.343,-0.66 0.343,-1.227 v -8.587 c 0,-0.567 -0.115,-0.976 -0.343,-1.227 -0.228,-0.252 -0.554,-0.378 -0.979,-0.378 h -1.321 v 11.797 z m 5.663,-14.156 h 7.079 v 2.359 h -4.483 v 4.365 h 3.562 v 2.359 h -3.562 v 5.073 h 4.483 v 2.359 h -7.079 z m 7.881,0 h 2.619 l 1.699,12.811 h 0.047 l 1.699,-12.811 h 2.383 l -2.501,16.515 h -3.445 z m 14.865,0 h 2.242 l -6.513,16.515 h -2.241 z m 5.687,2.359 h -2.714 v -2.359 h 8.023 v 2.359 h -2.714 v 14.156 h -2.595 z m 7.479,-2.359 h 3.516 l 2.69,16.515 h -2.596 l -0.471,-3.279 v 0.047 h -2.95 l -0.472,3.232 h -2.407 z m 2.832,11.041 -1.156,-8.163 h -0.048 l -1.132,8.163 z m 4.624,-11.041 h 3.823 c 1.29,0 2.257,0.346 2.902,1.038 0.645,0.692 0.968,1.707 0.968,3.043 v 1.628 c 0,1.337 -0.323,2.352 -0.968,3.044 -0.645,0.692 -1.612,1.038 -2.902,1.038 h -1.227 v 6.724 h -2.596 z m 3.823,7.432 c 0.425,0 0.743,-0.118 0.956,-0.354 0.212,-0.236 0.318,-0.637 0.318,-1.203 v -1.959 c 0,-0.566 -0.106,-0.967 -0.318,-1.203 -0.213,-0.236 -0.531,-0.354 -0.956,-0.354 h -1.227 v 5.073 z m 7.362,-5.073 h -2.714 v -2.359 h 8.023 v 2.359 h -2.714 v 14.156 h -2.595 z m 10.217,14.392 c -1.275,0 -2.25,-0.362 -2.926,-1.085 -0.677,-0.724 -1.015,-1.746 -1.015,-3.067 v -8.683 c 0,-1.321 0.338,-2.343 1.015,-3.067 0.676,-0.723 1.651,-1.085 2.926,-1.085 1.274,0 2.249,0.362 2.925,1.085 0.677,0.724 1.015,1.746 1.015,3.067 v 8.683 c 0,1.321 -0.338,2.343 -1.015,3.067 -0.676,0.723 -1.651,1.085 -2.925,1.085 z m 0,-2.359 c 0.896,0 1.344,-0.543 1.344,-1.628 v -9.013 c 0,-1.085 -0.448,-1.628 -1.344,-1.628 -0.897,0 -1.345,0.543 -1.345,1.628 v 9.013 c 0,1.085 0.448,1.628 1.345,1.628 z"
   style="fill:#ffffff" />
    </g>
</svg>