<?xml version="1.0" encoding="UTF-8" standalone="no"?>
<!DOCTYPE svg PUBLIC "-//W3C//DTD SVG 1.1//EN" "http://www.w3.org/Graphics/SVG/1.1/DTD/svg11.dtd">
<svg width="1950" height="1200" viewBox="0 0 975 600" version="1.1" xmlns="http://www.w3.org/2000/svg" xmlns:xlink="http://www.w3.org/1999/xlink" xml:space="preserve" xmlns:serif="http://www.serif.com/" style="fill-rule:evenodd;clip-rule:evenodd;stroke-linejoin:round;stroke-miterlimit:2;">
    <g id="Card-Frame" serif:id="Card Frame" transform="rotate(90) translate(-19, -994)">
        <g id="Card-Frame1" serif:id="Card Frame">
            <g transform="matrix(1,0,0,1.13781,0,-2.5839)">
                <path d="M618.75,45.116L618.75,849.294C618.75,863.846 605.307,875.661 588.75,875.661L48.75,875.661C32.193,875.661 18.75,863.846 18.75,849.294L18.75,45.116C18.75,30.564 32.193,18.75 48.75,18.75L588.75,18.75C605.307,18.75 618.75,30.564 618.75,45.116ZM599.637,246.062C599.637,235.162 589.568,226.313 577.166,226.313L60.334,226.313C47.932,226.313 37.863,235.162 37.863,246.062L37.863,838.104C37.863,849.004 47.932,857.854 60.334,857.854L577.166,857.854C589.568,857.854 599.637,849.004 599.637,838.104L599.637,246.062Z" style="fill:white;"/>
            </g>
            <g transform="matrix(0.95,0,0,1.05666,33.75,-51.4922)">
                <path d="M600,306.577L600,953.423C600,965.331 589.246,975 576,975L24,975C10.754,975 0,965.331 0,953.423L0,306.577C0,294.669 10.754,285 24,285L576,285C589.246,285 600,294.669 600,306.577ZM391.637,963.17L576,963.17C581.984,963.17 586.842,958.802 586.842,953.423L586.842,306.577C586.842,301.198 581.984,296.83 576,296.83L24,296.83C18.016,296.83 13.158,301.198 13.158,306.577L13.158,953.423C13.158,958.802 18.016,963.17 24,963.17L209.954,963.17C215.707,962.563 220.168,958.642 220.263,953.875L220.263,918.99L362.843,918.99C372.457,918.99 380.263,926.008 380.263,934.652L380.263,954.299C380.671,959.131 385.573,962.98 391.637,963.17Z"/>
            </g>
            <g id="TapTo-Logo" serif:id="TapTo Logo" transform="matrix(0.41273,0,0,0.41273,182.404,889.008)">
                <g transform="matrix(0.465628,0,0,0.465628,163.173,90.8696)">
                    <path d="M670.321,0.28L675.121,0.28C688.121,0.874 697.222,6.78 704.161,13.719C711.126,20.684 716.979,29.737 718.081,42.279L718.081,44.199C716.037,43.925 712.863,44.778 711.602,43.719C710.027,33.024 705.365,23.782 698.881,17.8C692.39,11.808 683.306,6.973 670.562,7.48C670.415,7.466 670.277,7.444 670.321,7.239L670.321,0.28Z" style="fill:white;"/>
                </g>
                <g transform="matrix(0.465628,0,0,0.465628,163.173,90.8696)">
                    <path d="M0,0.52L264.48,0.52L264.48,47.56L98.88,47.56L98.88,135.159C98.88,145.027 97.602,155.343 99.36,163.96C99.462,164.463 99.579,165.231 99.84,165.88C103.67,175.384 116.939,184.27 127.68,186.519C132.616,187.552 138.605,187.239 144.24,187.239C184.658,187.239 225.673,187.041 264.96,187.479L264.96,235L80.64,235C72.82,234.005 65.662,230.801 60,226.12C54.66,221.706 49.627,215.668 48.48,208.12C47.564,202.097 48,195.139 48,188.439C48,143.017 47.501,93.149 47.76,47.8C32.319,47.24 15.84,47.719 0,47.56L0,0.52Z" style="fill:white;"/>
                </g>
                <g transform="matrix(0.465628,0,0,0.465628,163.173,90.8696)">
                    <path d="M703.201,44.199L696.961,44.199C694.052,30.71 686.399,21.961 670.321,21.639C670.479,19.478 670.003,16.681 670.562,14.92C690.021,16.099 700.603,26.158 703.201,44.199Z" style="fill:white;"/>
                </g>
                <g transform="matrix(0.465628,0,0,0.465628,163.173,90.8696)">
                    <path d="M687.842,44.199L681.842,44.199C679.909,39.891 676.963,36.598 670.321,37L670.321,30.279C680.727,30.354 686.338,35.223 687.842,44.199Z" style="fill:white;"/>
                </g>
                <g transform="matrix(0.465628,0,0,0.465628,163.173,90.8696)">
                    <path d="M549.602,103.959L549.602,116.679C549.601,120.526 548.943,125.692 550.562,128.679C553.038,133.254 561.174,132.519 568.562,132.519C578.316,132.519 597.347,134.865 600.721,128.679C604.125,122.439 600.164,110.969 601.682,103.239L549.841,103.239C549.562,103.28 549.58,103.618 549.602,103.959ZM498.721,55.96L652.801,55.96C653.24,80.278 653.04,106.052 653.041,131.559C653.042,139.779 654.063,151.347 651.602,157.479C647.391,167.969 633.612,176.322 621.361,178.84C615.451,180.053 607.746,179.559 600.001,179.559L578.161,179.559C562.979,179.559 547.371,180.536 534.241,179.559C527.128,179.03 518.931,175.282 513.361,171.639C507.77,167.982 501.992,162.741 499.681,157C497.55,151.704 498.48,139.577 498.48,132.76C498.482,107.454 498.479,80.884 498.48,56.679C498.46,56.339 498.441,56 498.721,55.96Z" style="fill:white;"/>
                </g>
                <g transform="matrix(0.465628,0,0,0.465628,163.173,90.8696)">
                    <path d="M110.16,56.679L264.48,56.679L264.48,179.8L213.121,179.8L213.121,103.719L161.28,103.719C160.846,107.377 161.041,111.692 161.041,115.959C161.041,120.221 160.432,125.024 161.76,127.719C162.822,129.873 167.155,131.312 169.92,132.039C173.697,133.033 177.914,132.836 181.44,133C190.149,133.404 198.154,132.695 206.16,133L206.16,179.8L173.76,179.8C162.788,179.8 151.511,180.834 142.08,179.319C135.364,178.241 128.901,174.95 123.6,171.399C118.663,168.093 112.433,162.845 110.88,157C109.102,150.302 109.92,141.031 109.92,132.76L109.92,57.4C109.899,57.059 109.88,56.72 110.16,56.679Z" style="fill:white;"/>
                </g>
                <g transform="matrix(0.465628,0,0,0.465628,163.173,90.8696)">
                    <path d="M323.521,235L272.161,235C272.906,175.631 271.952,116.039 272.641,56.679C324.002,56.84 376,56.36 426.961,56.92C426.961,74.995 426.96,92.906 426.961,111.639C426.961,124.566 427.407,140.172 426.48,152.199C426.155,156.425 425.052,159.174 422.881,162.279C415.445,172.916 402.334,179.8 385.681,179.8L330.96,179.8L330.96,133L351.361,133C360.59,133 372.379,134.626 374.881,128.679C377.59,122.239 374.349,112.204 375.601,103.719L323.521,103.719L323.521,235Z" style="fill:white;"/>
                </g>
                <g transform="matrix(0.465628,0,0,0.465628,163.173,90.8696)">
                    <path d="M331.44,235L331.44,187.239C424.368,187.24 520.854,187.239 615.121,187.239C621.486,187.239 628.227,188.027 633.841,187.239C640.603,186.291 647.992,182.43 653.521,178.84C658.849,175.38 665.803,168.993 666.722,162.279C667.337,157.78 666.722,152.706 666.722,147.88C666.722,115.121 666.688,80.082 666.961,47.56L488.161,47.56C487.441,91.081 488.4,136.278 487.681,179.8L436.801,179.8C436.459,135.821 437.562,90.401 436.081,47.56L272.4,47.56C272.561,31.959 272.081,15.72 272.641,0.52C403.998,0.679 536.009,0.199 666.961,0.76L666.961,47.56L718.081,47.56L718.081,210.04L717.842,210.04C712.153,223.391 702.117,232.395 685.682,235L331.44,235Z" style="fill:white;"/>
                </g>
            </g>
        </g>
        <g id="Card-Top" serif:id="Card Top">
            <g transform="matrix(1.49312,0,0,1.19613,529.467,130.636)">
                <path d="M49.75,-75.96L49.75,81.96C49.75,84.742 47.941,87 45.712,87L-327.962,87C-330.191,87 -332,84.742 -332,81.96L-332,-75.96C-332,-78.742 -330.191,-81 -327.962,-81L45.712,-81C47.941,-81 49.75,-78.742 49.75,-75.96Z" style="fill:rgb(52,0,131);"/>
            </g>
            <g id="NFC-Loading-System" serif:id="NFC Loading System">
                <g transform="matrix(0.971546,0,0,1,129.918,-268.698)">
                    <g transform="matrix(25,0,0,25,223.166,490.923)">
                        <path d="M0.848,0.024L0.758,0.024L0.758,-0.036L0.224,-0.036L0.224,0.024L0.134,0.024L0.134,-0.73L0.848,-0.73L0.848,0.024ZM0.758,-0.126L0.758,-0.64L0.224,-0.64L0.224,-0.126L0.758,-0.126Z" style="fill:white;fill-rule:nonzero;"/>
                    </g>
                    <g transform="matrix(25,0,0,25,248.166,490.923)">
                        <rect x="0.083" y="-0.429" width="0.834" height="0.09" style="fill:white;fill-rule:nonzero;"/>
                    </g>
                    <g transform="matrix(25,0,0,25,273.166,490.923)">
                        <path d="M0.948,-0.622L0.879,-0.593C0.867,-0.648 0.851,-0.693 0.831,-0.727L0.904,-0.757C0.922,-0.72 0.937,-0.675 0.948,-0.622ZM0.67,-0.65L0.17,-0.65L0.17,-0.74L0.67,-0.74L0.67,-0.65ZM0.837,-0.582L0.768,-0.553C0.756,-0.608 0.74,-0.653 0.72,-0.687L0.793,-0.717C0.812,-0.68 0.826,-0.635 0.837,-0.582ZM0.908,-0.404L0.553,-0.404C0.554,-0.396 0.554,-0.383 0.554,-0.364C0.554,-0.165 0.467,-0.023 0.292,0.061L0.221,-0.019C0.301,-0.047 0.361,-0.09 0.402,-0.146C0.442,-0.203 0.463,-0.272 0.463,-0.352C0.463,-0.375 0.462,-0.393 0.461,-0.404L0.073,-0.404L0.073,-0.494L0.908,-0.494L0.908,-0.404Z" style="fill:white;fill-rule:nonzero;"/>
                    </g>
                    <g transform="matrix(25,0,0,25,298.166,490.923)">
                        <path d="M0.759,-0.649C0.684,-0.56 0.625,-0.497 0.582,-0.462L0.582,-0.066L0.499,-0.066L0.499,-0.396C0.419,-0.336 0.343,-0.291 0.269,-0.26L0.218,-0.333C0.305,-0.368 0.394,-0.42 0.484,-0.49C0.574,-0.561 0.643,-0.632 0.692,-0.704L0.759,-0.649Z" style="fill:white;fill-rule:nonzero;"/>
                    </g>
                    <g transform="matrix(25,0,0,25,323.166,490.923)">
                        <path d="M0.446,-0.608L0.392,-0.53C0.311,-0.598 0.216,-0.645 0.107,-0.672L0.162,-0.754C0.277,-0.712 0.372,-0.664 0.446,-0.608ZM0.896,-0.506C0.781,-0.336 0.667,-0.214 0.554,-0.139C0.441,-0.064 0.313,-0.007 0.171,0.033L0.114,-0.057C0.292,-0.096 0.435,-0.157 0.543,-0.241C0.651,-0.326 0.744,-0.435 0.824,-0.571L0.896,-0.506Z" style="fill:white;fill-rule:nonzero;"/>
                    </g>
                    <g transform="matrix(25,0,0,25,348.166,490.923)">
                        <path d="M0.924,-0.714L0.855,-0.685C0.843,-0.74 0.827,-0.785 0.807,-0.819L0.88,-0.849C0.898,-0.813 0.913,-0.768 0.924,-0.714ZM0.813,-0.674L0.772,-0.654L0.81,-0.616C0.783,-0.455 0.725,-0.32 0.637,-0.213C0.549,-0.105 0.423,-0.017 0.26,0.051L0.191,-0.033C0.34,-0.084 0.456,-0.152 0.541,-0.237C0.625,-0.323 0.682,-0.431 0.71,-0.564L0.338,-0.564C0.274,-0.474 0.212,-0.409 0.15,-0.369L0.077,-0.433C0.211,-0.522 0.31,-0.649 0.372,-0.814L0.458,-0.772C0.439,-0.728 0.419,-0.689 0.397,-0.654L0.742,-0.654C0.729,-0.706 0.714,-0.747 0.696,-0.779L0.769,-0.809C0.788,-0.773 0.802,-0.728 0.813,-0.674Z" style="fill:white;fill-rule:nonzero;"/>
                    </g>
                    <g transform="matrix(25,0,0,25,373.166,490.923)">
                        <path d="M0.513,-0.694L0.481,-0.603C0.394,-0.653 0.292,-0.684 0.177,-0.696L0.209,-0.789C0.337,-0.762 0.439,-0.731 0.513,-0.694ZM0.904,-0.499C0.812,-0.353 0.708,-0.238 0.593,-0.153C0.478,-0.069 0.339,-0.005 0.176,0.039L0.13,-0.053C0.299,-0.093 0.441,-0.154 0.554,-0.236C0.667,-0.319 0.758,-0.427 0.826,-0.561L0.904,-0.499ZM0.418,-0.442L0.383,-0.347C0.306,-0.401 0.206,-0.435 0.083,-0.448L0.115,-0.539C0.239,-0.516 0.34,-0.484 0.418,-0.442Z" style="fill:white;fill-rule:nonzero;"/>
                    </g>
                    <g transform="matrix(25,0,0,25,398.166,490.923)">
                        <path d="M0.952,-0.022L0.874,0.035C0.778,-0.096 0.665,-0.202 0.536,-0.281C0.432,-0.15 0.304,-0.039 0.152,0.052L0.082,-0.02C0.208,-0.086 0.319,-0.173 0.415,-0.279C0.511,-0.386 0.585,-0.507 0.639,-0.641L0.138,-0.641L0.138,-0.727L0.724,-0.728L0.751,-0.7C0.715,-0.572 0.66,-0.457 0.589,-0.353C0.728,-0.264 0.849,-0.154 0.952,-0.022Z" style="fill:white;fill-rule:nonzero;"/>
                    </g>
                    <g transform="matrix(25,0,0,25,423.166,490.923)">
                        <path d="M0.808,-0.65L0.17,-0.65L0.17,-0.74L0.808,-0.74L0.808,-0.65ZM0.908,-0.404L0.553,-0.404C0.554,-0.396 0.554,-0.383 0.554,-0.364C0.554,-0.165 0.467,-0.023 0.292,0.061L0.221,-0.019C0.301,-0.047 0.361,-0.09 0.402,-0.146C0.442,-0.203 0.463,-0.272 0.463,-0.352C0.463,-0.375 0.462,-0.393 0.461,-0.404L0.073,-0.404L0.073,-0.494L0.908,-0.494L0.908,-0.404Z" style="fill:white;fill-rule:nonzero;"/>
                    </g>
                    <g transform="matrix(25,0,0,25,448.166,490.923)">
                        <path d="M0.927,-0.011L0.838,0.026C0.826,-0.016 0.808,-0.061 0.784,-0.109C0.448,-0.075 0.222,-0.047 0.104,-0.024L0.08,-0.121L0.195,-0.134L0.455,-0.792L0.538,-0.76L0.295,-0.147L0.732,-0.195C0.676,-0.299 0.625,-0.375 0.577,-0.422L0.67,-0.462C0.759,-0.35 0.845,-0.2 0.927,-0.011Z" style="fill:white;fill-rule:nonzero;"/>
                    </g>
                </g>
                <g id="Divider" transform="matrix(0.639599,0,0,1.44886,271.893,-196.192)">
                    <path d="M122.823,270.647C122.014,270.647 121.357,270.357 121.357,270C121.357,269.643 122.014,269.353 122.823,269.353L493.836,269.353C494.645,269.353 495.302,269.643 495.302,270C495.302,270.357 494.645,270.647 493.836,270.647L122.823,270.647Z" style="fill:white;"/>
                </g>
                <g transform="matrix(0.93161,0,0,0.93161,235.922,-208.95)">
                    <g transform="matrix(40.2529,0,0,40.2529,121.285,424.614)">
                        <path d="M0.041,-0.7L0.179,-0.7L0.286,-0.281L0.288,-0.281L0.288,-0.7L0.386,-0.7L0.386,-0L0.273,-0L0.141,-0.511L0.139,-0.511L0.139,-0L0.041,-0L0.041,-0.7Z" style="fill:white;fill-rule:nonzero;"/>
                    </g>
                    <g transform="matrix(40.2529,0,0,40.2529,138.473,424.614)">
                        <path d="M0.041,-0.7L0.332,-0.7L0.332,-0.6L0.151,-0.6L0.151,-0.405L0.293,-0.405L0.293,-0.305L0.151,-0.305L0.151,-0L0.041,-0L0.041,-0.7Z" style="fill:white;fill-rule:nonzero;"/>
                    </g>
                    <g transform="matrix(40.2529,0,0,40.2529,152.32,424.614)">
                        <path d="M0.196,0.01C0.143,0.01 0.103,-0.005 0.076,-0.035C0.048,-0.065 0.034,-0.107 0.034,-0.162L0.034,-0.538C0.034,-0.593 0.048,-0.635 0.076,-0.665C0.103,-0.695 0.143,-0.71 0.196,-0.71C0.249,-0.71 0.289,-0.695 0.317,-0.665C0.344,-0.635 0.358,-0.593 0.358,-0.538L0.358,-0.464L0.254,-0.464L0.254,-0.545C0.254,-0.588 0.236,-0.61 0.199,-0.61C0.162,-0.61 0.144,-0.588 0.144,-0.545L0.144,-0.154C0.144,-0.111 0.162,-0.09 0.199,-0.09C0.236,-0.09 0.254,-0.111 0.254,-0.154L0.254,-0.261L0.358,-0.261L0.358,-0.162C0.358,-0.107 0.344,-0.065 0.317,-0.035C0.289,-0.005 0.249,0.01 0.196,0.01Z" style="fill:white;fill-rule:nonzero;"/>
                    </g>
                    <g transform="matrix(40.2529,0,0,40.2529,174.177,424.614)">
                        <path d="M0.041,-0.7L0.151,-0.7L0.151,-0.1L0.332,-0.1L0.332,-0L0.041,-0L0.041,-0.7Z" style="fill:white;fill-rule:nonzero;"/>
                    </g>
                    <g transform="matrix(40.2529,0,0,40.2529,187.863,424.614)">
                        <path d="M0.2,0.01C0.146,0.01 0.105,-0.005 0.076,-0.036C0.047,-0.067 0.033,-0.11 0.033,-0.166L0.033,-0.534C0.033,-0.59 0.047,-0.633 0.076,-0.664C0.105,-0.695 0.146,-0.71 0.2,-0.71C0.254,-0.71 0.295,-0.695 0.324,-0.664C0.353,-0.633 0.367,-0.59 0.367,-0.534L0.367,-0.166C0.367,-0.11 0.353,-0.067 0.324,-0.036C0.295,-0.005 0.254,0.01 0.2,0.01ZM0.2,-0.09C0.238,-0.09 0.257,-0.113 0.257,-0.159L0.257,-0.541C0.257,-0.587 0.238,-0.61 0.2,-0.61C0.162,-0.61 0.143,-0.587 0.143,-0.541L0.143,-0.159C0.143,-0.113 0.162,-0.09 0.2,-0.09Z" style="fill:white;fill-rule:nonzero;"/>
                    </g>
                    <g transform="matrix(40.2529,0,0,40.2529,203.884,424.614)">
                        <path d="M0.126,-0.7L0.275,-0.7L0.389,-0L0.279,-0L0.259,-0.139L0.259,-0.137L0.134,-0.137L0.114,-0L0.012,-0L0.126,-0.7ZM0.246,-0.232L0.197,-0.578L0.195,-0.578L0.147,-0.232L0.246,-0.232Z" style="fill:white;fill-rule:nonzero;"/>
                    </g>
                    <g transform="matrix(40.2529,0,0,40.2529,220.026,424.614)">
                        <path d="M0.041,-0.7L0.209,-0.7C0.264,-0.7 0.305,-0.685 0.332,-0.656C0.359,-0.627 0.373,-0.584 0.373,-0.527L0.373,-0.173C0.373,-0.116 0.359,-0.073 0.332,-0.044C0.305,-0.015 0.264,-0 0.209,-0L0.041,-0L0.041,-0.7ZM0.207,-0.1C0.225,-0.1 0.239,-0.105 0.249,-0.116C0.258,-0.127 0.263,-0.144 0.263,-0.168L0.263,-0.532C0.263,-0.556 0.258,-0.573 0.249,-0.584C0.239,-0.595 0.225,-0.6 0.207,-0.6L0.151,-0.6L0.151,-0.1L0.207,-0.1Z" style="fill:white;fill-rule:nonzero;"/>
                    </g>
                    <g transform="matrix(40.2529,0,0,40.2529,236.368,424.614)">
                        <rect x="0.041" y="-0.7" width="0.11" height="0.7" style="fill:white;fill-rule:nonzero;"/>
                    </g>
                    <g transform="matrix(40.2529,0,0,40.2529,244.097,424.614)">
                        <path d="M0.041,-0.7L0.179,-0.7L0.286,-0.281L0.288,-0.281L0.288,-0.7L0.386,-0.7L0.386,-0L0.273,-0L0.141,-0.511L0.139,-0.511L0.139,-0L0.041,-0L0.041,-0.7Z" style="fill:white;fill-rule:nonzero;"/>
                    </g>
                    <g transform="matrix(40.2529,0,0,40.2529,261.285,424.614)">
                        <path d="M0.197,0.01C0.144,0.01 0.103,-0.005 0.075,-0.036C0.047,-0.066 0.033,-0.109 0.033,-0.166L0.033,-0.534C0.033,-0.591 0.047,-0.634 0.075,-0.665C0.103,-0.695 0.144,-0.71 0.197,-0.71C0.25,-0.71 0.291,-0.695 0.319,-0.665C0.347,-0.634 0.361,-0.591 0.361,-0.534L0.361,-0.474L0.257,-0.474L0.257,-0.541C0.257,-0.587 0.238,-0.61 0.2,-0.61C0.162,-0.61 0.143,-0.587 0.143,-0.541L0.143,-0.158C0.143,-0.113 0.162,-0.09 0.2,-0.09C0.238,-0.09 0.257,-0.113 0.257,-0.158L0.257,-0.295L0.202,-0.295L0.202,-0.395L0.361,-0.395L0.361,-0.166C0.361,-0.109 0.347,-0.066 0.319,-0.036C0.291,-0.005 0.25,0.01 0.197,0.01Z" style="fill:white;fill-rule:nonzero;"/>
                    </g>
                    <g transform="matrix(40.2529,0,0,40.2529,283.464,424.614)">
                        <path d="M0.184,0.01C0.131,0.01 0.09,-0.005 0.063,-0.036C0.036,-0.066 0.022,-0.109 0.022,-0.166L0.022,-0.206L0.126,-0.206L0.126,-0.158C0.126,-0.113 0.145,-0.09 0.183,-0.09C0.202,-0.09 0.216,-0.095 0.226,-0.107C0.235,-0.117 0.24,-0.135 0.24,-0.16C0.24,-0.189 0.233,-0.215 0.22,-0.238C0.207,-0.26 0.182,-0.287 0.146,-0.318C0.101,-0.358 0.069,-0.394 0.051,-0.427C0.033,-0.459 0.024,-0.495 0.024,-0.536C0.024,-0.591 0.038,-0.634 0.066,-0.665C0.094,-0.695 0.135,-0.71 0.188,-0.71C0.241,-0.71 0.281,-0.695 0.308,-0.665C0.335,-0.634 0.348,-0.591 0.348,-0.534L0.348,-0.505L0.244,-0.505L0.244,-0.541C0.244,-0.565 0.239,-0.583 0.23,-0.594C0.221,-0.604 0.207,-0.61 0.189,-0.61C0.152,-0.61 0.134,-0.588 0.134,-0.543C0.134,-0.518 0.141,-0.494 0.155,-0.472C0.168,-0.45 0.193,-0.423 0.229,-0.392C0.275,-0.352 0.307,-0.316 0.324,-0.283C0.341,-0.25 0.35,-0.212 0.35,-0.168C0.35,-0.111 0.336,-0.067 0.308,-0.036C0.279,-0.005 0.238,0.01 0.184,0.01Z" style="fill:white;fill-rule:nonzero;"/>
                    </g>
                    <g transform="matrix(40.2529,0,0,40.2529,298.197,424.614)">
                        <path d="M0.142,-0.298L0.009,-0.7L0.126,-0.7L0.201,-0.443L0.203,-0.443L0.278,-0.7L0.385,-0.7L0.252,-0.298L0.252,-0L0.142,-0L0.142,-0.298Z" style="fill:white;fill-rule:nonzero;"/>
                    </g>
                    <g transform="matrix(40.2529,0,0,40.2529,313.412,424.614)">
                        <path d="M0.184,0.01C0.131,0.01 0.09,-0.005 0.063,-0.036C0.036,-0.066 0.022,-0.109 0.022,-0.166L0.022,-0.206L0.126,-0.206L0.126,-0.158C0.126,-0.113 0.145,-0.09 0.183,-0.09C0.202,-0.09 0.216,-0.095 0.226,-0.107C0.235,-0.117 0.24,-0.135 0.24,-0.16C0.24,-0.189 0.233,-0.215 0.22,-0.238C0.207,-0.26 0.182,-0.287 0.146,-0.318C0.101,-0.358 0.069,-0.394 0.051,-0.427C0.033,-0.459 0.024,-0.495 0.024,-0.536C0.024,-0.591 0.038,-0.634 0.066,-0.665C0.094,-0.695 0.135,-0.71 0.188,-0.71C0.241,-0.71 0.281,-0.695 0.308,-0.665C0.335,-0.634 0.348,-0.591 0.348,-0.534L0.348,-0.505L0.244,-0.505L0.244,-0.541C0.244,-0.565 0.239,-0.583 0.23,-0.594C0.221,-0.604 0.207,-0.61 0.189,-0.61C0.152,-0.61 0.134,-0.588 0.134,-0.543C0.134,-0.518 0.141,-0.494 0.155,-0.472C0.168,-0.45 0.193,-0.423 0.229,-0.392C0.275,-0.352 0.307,-0.316 0.324,-0.283C0.341,-0.25 0.35,-0.212 0.35,-0.168C0.35,-0.111 0.336,-0.067 0.308,-0.036C0.279,-0.005 0.238,0.01 0.184,0.01Z" style="fill:white;fill-rule:nonzero;"/>
                    </g>
                    <g transform="matrix(40.2529,0,0,40.2529,328.386,424.614)">
                        <path d="M0.127,-0.6L0.012,-0.6L0.012,-0.7L0.352,-0.7L0.352,-0.6L0.237,-0.6L0.237,-0L0.127,-0L0.127,-0.6Z" style="fill:white;fill-rule:nonzero;"/>
                    </g>
                    <g transform="matrix(40.2529,0,0,40.2529,343.038,424.614)">
                        <path d="M0.041,-0.7L0.341,-0.7L0.341,-0.6L0.151,-0.6L0.151,-0.415L0.302,-0.415L0.302,-0.315L0.151,-0.315L0.151,-0.1L0.341,-0.1L0.341,-0L0.041,-0L0.041,-0.7Z" style="fill:white;fill-rule:nonzero;"/>
                    </g>
                    <g transform="matrix(40.2529,0,0,40.2529,357.65,424.614)">
                        <path d="M0.041,-0.7L0.198,-0.7L0.268,-0.199L0.27,-0.199L0.34,-0.7L0.497,-0.7L0.497,-0L0.393,-0L0.393,-0.53L0.391,-0.53L0.311,-0L0.219,-0L0.139,-0.53L0.137,-0.53L0.137,-0L0.041,-0L0.041,-0.7Z" style="fill:white;fill-rule:nonzero;"/>
                    </g>
                </g>
            </g>
            <g id="Wizzo.dev-TapTo" serif:id="Wizzo.dev/TapTo" transform="matrix(1,0,0,1,0,20.5221)">
                <g transform="matrix(1.08795,0,0,0.844885,167.891,-168.091)">
                    <path d="M386,303.625L386,316.897C386,324.681 381.093,331 375.048,331L250.952,331C244.907,331 240,324.681 240,316.897L240,303.625C240,295.841 244.907,289.522 250.952,289.522L375.048,289.522C381.093,289.522 386,295.841 386,303.625Z" style="fill:white;"/>
                </g>
                <g transform="matrix(0.93161,0,0,0.93161,327.505,-292.781)">
                    <g transform="matrix(26.8353,0,0,26.8353,121.285,424.614)">
                        <path d="M0.015,-0.7L0.121,-0.7L0.17,-0.162L0.172,-0.162L0.224,-0.7L0.344,-0.7L0.396,-0.162L0.398,-0.162L0.447,-0.7L0.542,-0.7L0.471,-0L0.334,-0L0.284,-0.472L0.282,-0.472L0.232,-0L0.086,-0L0.015,-0.7Z" style="fill-rule:nonzero;"/>
                    </g>
                    <g transform="matrix(26.8353,0,0,26.8353,136.232,424.614)">
                        <rect x="0.041" y="-0.7" width="0.11" height="0.7" style="fill-rule:nonzero;"/>
                    </g>
                    <g transform="matrix(26.8353,0,0,26.8353,141.385,424.614)">
                        <path d="M0.019,-0.098L0.223,-0.6L0.029,-0.6L0.029,-0.7L0.341,-0.7L0.341,-0.602L0.137,-0.1L0.341,-0.1L0.341,-0L0.019,-0L0.019,-0.098Z" style="fill-rule:nonzero;"/>
                    </g>
                    <g transform="matrix(26.8353,0,0,26.8353,151.233,424.614)">
                        <path d="M0.019,-0.098L0.223,-0.6L0.029,-0.6L0.029,-0.7L0.341,-0.7L0.341,-0.602L0.137,-0.1L0.341,-0.1L0.341,-0L0.019,-0L0.019,-0.098Z" style="fill-rule:nonzero;"/>
                    </g>
                    <g transform="matrix(26.8353,0,0,26.8353,160.948,424.614)">
                        <path d="M0.2,0.01C0.146,0.01 0.105,-0.005 0.076,-0.036C0.047,-0.067 0.033,-0.11 0.033,-0.166L0.033,-0.534C0.033,-0.59 0.047,-0.633 0.076,-0.664C0.105,-0.695 0.146,-0.71 0.2,-0.71C0.254,-0.71 0.295,-0.695 0.324,-0.664C0.353,-0.633 0.367,-0.59 0.367,-0.534L0.367,-0.166C0.367,-0.11 0.353,-0.067 0.324,-0.036C0.295,-0.005 0.254,0.01 0.2,0.01ZM0.2,-0.09C0.238,-0.09 0.257,-0.113 0.257,-0.159L0.257,-0.541C0.257,-0.587 0.238,-0.61 0.2,-0.61C0.162,-0.61 0.143,-0.587 0.143,-0.541L0.143,-0.159C0.143,-0.113 0.162,-0.09 0.2,-0.09Z" style="fill-rule:nonzero;"/>
                    </g>
                    <g transform="matrix(26.8353,0,0,26.8353,171.521,424.614)">
                        <rect x="0.041" y="-0.106" width="0.106" height="0.106" style="fill-rule:nonzero;"/>
                    </g>
                    <g transform="matrix(26.8353,0,0,26.8353,176.566,424.614)">
                        <path d="M0.041,-0.7L0.209,-0.7C0.264,-0.7 0.305,-0.685 0.332,-0.656C0.359,-0.627 0.373,-0.584 0.373,-0.527L0.373,-0.173C0.373,-0.116 0.359,-0.073 0.332,-0.044C0.305,-0.015 0.264,-0 0.209,-0L0.041,-0L0.041,-0.7ZM0.207,-0.1C0.225,-0.1 0.239,-0.105 0.249,-0.116C0.258,-0.127 0.263,-0.144 0.263,-0.168L0.263,-0.532C0.263,-0.556 0.258,-0.573 0.249,-0.584C0.239,-0.595 0.225,-0.6 0.207,-0.6L0.151,-0.6L0.151,-0.1L0.207,-0.1Z" style="fill-rule:nonzero;"/>
                    </g>
                    <g transform="matrix(26.8353,0,0,26.8353,187.461,424.614)">
                        <path d="M0.041,-0.7L0.341,-0.7L0.341,-0.6L0.151,-0.6L0.151,-0.415L0.302,-0.415L0.302,-0.315L0.151,-0.315L0.151,-0.1L0.341,-0.1L0.341,-0L0.041,-0L0.041,-0.7Z" style="fill-rule:nonzero;"/>
                    </g>
                    <g transform="matrix(26.8353,0,0,26.8353,197.202,424.614)">
                        <path d="M0.012,-0.7L0.123,-0.7L0.195,-0.157L0.197,-0.157L0.269,-0.7L0.37,-0.7L0.264,-0L0.118,-0L0.012,-0.7Z" style="fill-rule:nonzero;"/>
                    </g>
                    <g transform="matrix(26.8353,0,0,26.8353,206.782,424.614)">
                        <path d="M0.285,-0.7L0.38,-0.7L0.104,-0L0.009,-0L0.285,-0.7Z" style="fill-rule:nonzero;"/>
                    </g>
                    <g transform="matrix(26.8353,0,0,26.8353,217.49,424.614)">
                        <path d="M0.127,-0.6L0.012,-0.6L0.012,-0.7L0.352,-0.7L0.352,-0.6L0.237,-0.6L0.237,-0L0.127,-0L0.127,-0.6Z" style="fill-rule:nonzero;"/>
                    </g>
                    <g transform="matrix(26.8353,0,0,26.8353,226.023,424.614)">
                        <path d="M0.126,-0.7L0.275,-0.7L0.389,-0L0.279,-0L0.259,-0.139L0.259,-0.137L0.134,-0.137L0.114,-0L0.012,-0L0.126,-0.7ZM0.246,-0.232L0.197,-0.578L0.195,-0.578L0.147,-0.232L0.246,-0.232Z" style="fill-rule:nonzero;"/>
                    </g>
                    <g transform="matrix(26.8353,0,0,26.8353,236.784,424.614)">
                        <path d="M0.041,-0.7L0.203,-0.7C0.258,-0.7 0.299,-0.685 0.326,-0.656C0.353,-0.627 0.367,-0.584 0.367,-0.527L0.367,-0.458C0.367,-0.401 0.353,-0.358 0.326,-0.329C0.299,-0.3 0.258,-0.285 0.203,-0.285L0.151,-0.285L0.151,-0L0.041,-0L0.041,-0.7ZM0.203,-0.385C0.221,-0.385 0.235,-0.39 0.244,-0.4C0.253,-0.41 0.257,-0.427 0.257,-0.451L0.257,-0.534C0.257,-0.558 0.253,-0.575 0.244,-0.585C0.235,-0.595 0.221,-0.6 0.203,-0.6L0.151,-0.6L0.151,-0.385L0.203,-0.385Z" style="fill-rule:nonzero;"/>
                    </g>
                    <g transform="matrix(26.8353,0,0,26.8353,247.196,424.614)">
                        <path d="M0.127,-0.6L0.012,-0.6L0.012,-0.7L0.352,-0.7L0.352,-0.6L0.237,-0.6L0.237,-0L0.127,-0L0.127,-0.6Z" style="fill-rule:nonzero;"/>
                    </g>
                    <g transform="matrix(26.8353,0,0,26.8353,256.857,424.614)">
                        <path d="M0.2,0.01C0.146,0.01 0.105,-0.005 0.076,-0.036C0.047,-0.067 0.033,-0.11 0.033,-0.166L0.033,-0.534C0.033,-0.59 0.047,-0.633 0.076,-0.664C0.105,-0.695 0.146,-0.71 0.2,-0.71C0.254,-0.71 0.295,-0.695 0.324,-0.664C0.353,-0.633 0.367,-0.59 0.367,-0.534L0.367,-0.166C0.367,-0.11 0.353,-0.067 0.324,-0.036C0.295,-0.005 0.254,0.01 0.2,0.01ZM0.2,-0.09C0.238,-0.09 0.257,-0.113 0.257,-0.159L0.257,-0.541C0.257,-0.587 0.238,-0.61 0.2,-0.61C0.162,-0.61 0.143,-0.587 0.143,-0.541L0.143,-0.159C0.143,-0.113 0.162,-0.09 0.2,-0.09Z" style="fill-rule:nonzero;"/>
                    </g>
                </g>
            </g>
            <g id="TapTo-Logo1" serif:id="TapTo Logo" transform="matrix(0.763401,0,0,0.763401,-74.8163,69.0966)">
                <g transform="matrix(0.465628,0,0,0.465628,163.173,90.8696)">
                    <path d="M670.321,0.28L675.121,0.28C688.121,0.874 697.222,6.78 704.161,13.719C711.126,20.684 716.979,29.737 718.081,42.279L718.081,44.199C716.037,43.925 712.863,44.778 711.602,43.719C710.027,33.024 705.365,23.782 698.881,17.8C692.39,11.808 683.306,6.973 670.562,7.48C670.415,7.466 670.277,7.444 670.321,7.239L670.321,0.28Z" style="fill:white;"/>
                </g>
                <g transform="matrix(0.465628,0,0,0.465628,163.173,90.8696)">
                    <path d="M0,0.52L264.48,0.52L264.48,47.56L98.88,47.56L98.88,135.159C98.88,145.027 97.602,155.343 99.36,163.96C99.462,164.463 99.579,165.231 99.84,165.88C103.67,175.384 116.939,184.27 127.68,186.519C132.616,187.552 138.605,187.239 144.24,187.239C184.658,187.239 225.673,187.041 264.96,187.479L264.96,235L80.64,235C72.82,234.005 65.662,230.801 60,226.12C54.66,221.706 49.627,215.668 48.48,208.12C47.564,202.097 48,195.139 48,188.439C48,143.017 47.501,93.149 47.76,47.8C32.319,47.24 15.84,47.719 0,47.56L0,0.52Z" style="fill:white;"/>
                </g>
                <g transform="matrix(0.465628,0,0,0.465628,163.173,90.8696)">
                    <path d="M703.201,44.199L696.961,44.199C694.052,30.71 686.399,21.961 670.321,21.639C670.479,19.478 670.003,16.681 670.562,14.92C690.021,16.099 700.603,26.158 703.201,44.199Z" style="fill:white;"/>
                </g>
                <g transform="matrix(0.465628,0,0,0.465628,163.173,90.8696)">
                    <path d="M687.842,44.199L681.842,44.199C679.909,39.891 676.963,36.598 670.321,37L670.321,30.279C680.727,30.354 686.338,35.223 687.842,44.199Z" style="fill:white;"/>
                </g>
                <g transform="matrix(0.465628,0,0,0.465628,163.173,90.8696)">
                    <path d="M549.602,103.959L549.602,116.679C549.601,120.526 548.943,125.692 550.562,128.679C553.038,133.254 561.174,132.519 568.562,132.519C578.316,132.519 597.347,134.865 600.721,128.679C604.125,122.439 600.164,110.969 601.682,103.239L549.841,103.239C549.562,103.28 549.58,103.618 549.602,103.959ZM498.721,55.96L652.801,55.96C653.24,80.278 653.04,106.052 653.041,131.559C653.042,139.779 654.063,151.347 651.602,157.479C647.391,167.969 633.612,176.322 621.361,178.84C615.451,180.053 607.746,179.559 600.001,179.559L578.161,179.559C562.979,179.559 547.371,180.536 534.241,179.559C527.128,179.03 518.931,175.282 513.361,171.639C507.77,167.982 501.992,162.741 499.681,157C497.55,151.704 498.48,139.577 498.48,132.76C498.482,107.454 498.479,80.884 498.48,56.679C498.46,56.339 498.441,56 498.721,55.96Z" style="fill:white;"/>
                </g>
                <g transform="matrix(0.465628,0,0,0.465628,163.173,90.8696)">
                    <path d="M110.16,56.679L264.48,56.679L264.48,179.8L213.121,179.8L213.121,103.719L161.28,103.719C160.846,107.377 161.041,111.692 161.041,115.959C161.041,120.221 160.432,125.024 161.76,127.719C162.822,129.873 167.155,131.312 169.92,132.039C173.697,133.033 177.914,132.836 181.44,133C190.149,133.404 198.154,132.695 206.16,133L206.16,179.8L173.76,179.8C162.788,179.8 151.511,180.834 142.08,179.319C135.364,178.241 128.901,174.95 123.6,171.399C118.663,168.093 112.433,162.845 110.88,157C109.102,150.302 109.92,141.031 109.92,132.76L109.92,57.4C109.899,57.059 109.88,56.72 110.16,56.679Z" style="fill:white;"/>
                </g>
                <g transform="matrix(0.465628,0,0,0.465628,163.173,90.8696)">
                    <path d="M323.521,235L272.161,235C272.906,175.631 271.952,116.039 272.641,56.679C324.002,56.84 376,56.36 426.961,56.92C426.961,74.995 426.96,92.906 426.961,111.639C426.961,124.566 427.407,140.172 426.48,152.199C426.155,156.425 425.052,159.174 422.881,162.279C415.445,172.916 402.334,179.8 385.681,179.8L330.96,179.8L330.96,133L351.361,133C360.59,133 372.379,134.626 374.881,128.679C377.59,122.239 374.349,112.204 375.601,103.719L323.521,103.719L323.521,235Z" style="fill:white;"/>
                </g>
                <g transform="matrix(0.465628,0,0,0.465628,163.173,90.8696)">
                    <path d="M331.44,235L331.44,187.239C424.368,187.24 520.854,187.239 615.121,187.239C621.486,187.239 628.227,188.027 633.841,187.239C640.603,186.291 647.992,182.43 653.521,178.84C658.849,175.38 665.803,168.993 666.722,162.279C667.337,157.78 666.722,152.706 666.722,147.88C666.722,115.121 666.688,80.082 666.961,47.56L488.161,47.56C487.441,91.081 488.4,136.278 487.681,179.8L436.801,179.8C436.459,135.821 437.562,90.401 436.081,47.56L272.4,47.56C272.561,31.959 272.081,15.72 272.641,0.52C403.998,0.679 536.009,0.199 666.961,0.76L666.961,47.56L718.081,47.56L718.081,210.04L717.842,210.04C712.153,223.391 702.117,232.395 685.682,235L331.44,235Z" style="fill:white;"/>
                </g>
            </g>
            <g transform="matrix(1,0,0,0.761104,18.75,23.0945)">
                <path d="M585,21.84L585,63L15,63L15,21.84C15,17.513 17.674,14 20.967,14L579.033,14C582.326,14 585,17.513 585,21.84Z"/>
            </g>
            <g id="Pin-Strip" serif:id="Pin Strip" transform="matrix(1,0,0,1,0.75,-13)">
                <g transform="matrix(1.10395,0,0,2.01793,-64.3566,-40.9915)">
                    <path d="M110.836,44.596L110.836,59.463L102.683,59.463L102.683,44.596L110.836,44.596ZM106.759,56.489C106.01,56.489 105.401,56.822 105.401,57.233C105.401,57.643 106.01,57.976 106.759,57.976C107.509,57.976 108.118,57.643 108.118,57.233C108.118,56.822 107.509,56.489 106.759,56.489Z" style="fill:url(#_Linear1);"/>
                </g>
                <g transform="matrix(1.10395,0,0,2.01793,64.6434,-40.9915)">
                    <path d="M110.836,44.596L110.836,59.463L102.683,59.463L102.683,44.596L110.836,44.596ZM106.759,56.489C106.01,56.489 105.401,56.822 105.401,57.233C105.401,57.643 106.01,57.976 106.759,57.976C107.509,57.976 108.118,57.643 108.118,57.233C108.118,56.822 107.509,56.489 106.759,56.489Z" style="fill:url(#_Linear2);"/>
                </g>
                <g transform="matrix(1.10395,0,0,2.01793,361.643,-40.9915)">
                    <path d="M110.836,44.596L110.836,59.463L102.683,59.463L102.683,44.596L110.836,44.596ZM106.759,56.489C106.01,56.489 105.401,56.822 105.401,57.233C105.401,57.643 106.01,57.976 106.759,57.976C107.509,57.976 108.118,57.643 108.118,57.233C108.118,56.822 107.509,56.489 106.759,56.489Z" style="fill:url(#_Linear3);"/>
                </g>
                <g transform="matrix(1.10395,0,0,2.01793,206.643,-40.9915)">
                    <path d="M110.836,44.596L110.836,59.463L102.683,59.463L102.683,44.596L110.836,44.596ZM106.759,56.489C106.01,56.489 105.401,56.822 105.401,57.233C105.401,57.643 106.01,57.976 106.759,57.976C107.509,57.976 108.118,57.643 108.118,57.233C108.118,56.822 107.509,56.489 106.759,56.489Z" style="fill:url(#_Linear4);"/>
                </g>
                <g transform="matrix(1.10395,0,0,2.01793,-25.3566,-40.9915)">
                    <path d="M110.836,44.596L110.836,59.463L102.683,59.463L102.683,44.596L110.836,44.596ZM106.759,56.489C106.01,56.489 105.401,56.822 105.401,57.233C105.401,57.643 106.01,57.976 106.759,57.976C107.509,57.976 108.118,57.643 108.118,57.233C108.118,56.822 107.509,56.489 106.759,56.489Z" style="fill:url(#_Linear5);"/>
                </g>
                <g transform="matrix(1.10395,0,0,2.01793,103.643,-40.9915)">
                    <path d="M110.836,44.596L110.836,59.463L102.683,59.463L102.683,44.596L110.836,44.596ZM106.759,56.489C106.01,56.489 105.401,56.822 105.401,57.233C105.401,57.643 106.01,57.976 106.759,57.976C107.509,57.976 108.118,57.643 108.118,57.233C108.118,56.822 107.509,56.489 106.759,56.489Z" style="fill:url(#_Linear6);"/>
                </g>
                <g transform="matrix(1.10395,0,0,2.01793,400.643,-40.9915)">
                    <path d="M110.836,44.596L110.836,59.463L102.683,59.463L102.683,44.596L110.836,44.596ZM106.759,56.489C106.01,56.489 105.401,56.822 105.401,57.233C105.401,57.643 106.01,57.976 106.759,57.976C107.509,57.976 108.118,57.643 108.118,57.233C108.118,56.822 107.509,56.489 106.759,56.489Z" style="fill:url(#_Linear7);"/>
                </g>
                <g transform="matrix(1.10395,0,0,2.01793,245.643,-40.9915)">
                    <path d="M110.836,44.596L110.836,59.463L102.683,59.463L102.683,44.596L110.836,44.596ZM106.759,56.489C106.01,56.489 105.401,56.822 105.401,57.233C105.401,57.643 106.01,57.976 106.759,57.976C107.509,57.976 108.118,57.643 108.118,57.233C108.118,56.822 107.509,56.489 106.759,56.489Z" style="fill:url(#_Linear8);"/>
                </g>
                <g transform="matrix(1.10395,0,0,2.01793,12.6434,-40.9915)">
                    <path d="M110.836,44.596L110.836,59.463L102.683,59.463L102.683,44.596L110.836,44.596ZM106.759,56.489C106.01,56.489 105.401,56.822 105.401,57.233C105.401,57.643 106.01,57.976 106.759,57.976C107.509,57.976 108.118,57.643 108.118,57.233C108.118,56.822 107.509,56.489 106.759,56.489Z" style="fill:url(#_Linear9);"/>
                </g>
                <g transform="matrix(1.10395,0,0,2.01793,141.643,-40.9915)">
                    <path d="M110.836,44.596L110.836,59.463L102.683,59.463L102.683,44.596L110.836,44.596ZM106.759,56.489C106.01,56.489 105.401,56.822 105.401,57.233C105.401,57.643 106.01,57.976 106.759,57.976C107.509,57.976 108.118,57.643 108.118,57.233C108.118,56.822 107.509,56.489 106.759,56.489Z" style="fill:url(#_Linear10);"/>
                </g>
                <g transform="matrix(1.10395,0,0,2.01793,438.643,-40.9915)">
                    <path d="M110.836,44.596L110.836,59.463L102.683,59.463L102.683,44.596L110.836,44.596ZM106.759,56.489C106.01,56.489 105.401,56.822 105.401,57.233C105.401,57.643 106.01,57.976 106.759,57.976C107.509,57.976 108.118,57.643 108.118,57.233C108.118,56.822 107.509,56.489 106.759,56.489Z" style="fill:url(#_Linear11);"/>
                </g>
                <g transform="matrix(1.10395,0,0,2.01793,283.643,-40.9915)">
                    <path d="M110.836,44.596L110.836,59.463L102.683,59.463L102.683,44.596L110.836,44.596ZM106.759,56.489C106.01,56.489 105.401,56.822 105.401,57.233C105.401,57.643 106.01,57.976 106.759,57.976C107.509,57.976 108.118,57.643 108.118,57.233C108.118,56.822 107.509,56.489 106.759,56.489Z" style="fill:url(#_Linear12);"/>
                </g>
                <g transform="matrix(1.10395,0,0,2.01793,38.6434,-40.9915)">
                    <path d="M110.836,44.596L110.836,59.463L102.683,59.463L102.683,44.596L110.836,44.596ZM106.759,56.489C106.01,56.489 105.401,56.822 105.401,57.233C105.401,57.643 106.01,57.976 106.759,57.976C107.509,57.976 108.118,57.643 108.118,57.233C108.118,56.822 107.509,56.489 106.759,56.489Z" style="fill:url(#_Linear13);"/>
                </g>
                <g transform="matrix(1.10395,0,0,2.01793,335.643,-40.9915)">
                    <path d="M110.836,44.596L110.836,59.463L102.683,59.463L102.683,44.596L110.836,44.596ZM106.759,56.489C106.01,56.489 105.401,56.822 105.401,57.233C105.401,57.643 106.01,57.976 106.759,57.976C107.509,57.976 108.118,57.643 108.118,57.233C108.118,56.822 107.509,56.489 106.759,56.489Z" style="fill:url(#_Linear14);"/>
                </g>
                <g transform="matrix(1.10395,0,0,2.01793,167.643,-40.9915)">
                    <path d="M110.836,44.596L110.836,59.463L102.683,59.463L102.683,44.596L110.836,44.596ZM106.759,56.489C106.01,56.489 105.401,56.822 105.401,57.233C105.401,57.643 106.01,57.976 106.759,57.976C107.509,57.976 108.118,57.643 108.118,57.233C108.118,56.822 107.509,56.489 106.759,56.489Z" style="fill:url(#_Linear15);"/>
                </g>
                <g transform="matrix(1.10395,0,0,2.01793,464.643,-40.9915)">
                    <path d="M110.836,44.596L110.836,59.463L102.683,59.463L102.683,44.596L110.836,44.596ZM106.759,56.489C106.01,56.489 105.401,56.822 105.401,57.233C105.401,57.643 106.01,57.976 106.759,57.976C107.509,57.976 108.118,57.643 108.118,57.233C108.118,56.822 107.509,56.489 106.759,56.489Z" style="fill:url(#_Linear16);"/>
                </g>
                <g transform="matrix(1.10395,0,0,2.01793,309.643,-40.9915)">
                    <path d="M110.836,44.596L110.836,59.463L102.683,59.463L102.683,44.596L110.836,44.596ZM106.759,56.489C106.01,56.489 105.401,56.822 105.401,57.233C105.401,57.643 106.01,57.976 106.759,57.976C107.509,57.976 108.118,57.643 108.118,57.233C108.118,56.822 107.509,56.489 106.759,56.489Z" style="fill:url(#_Linear17);"/>
                </g>
                <g transform="matrix(1.10395,0,0,2.01793,-12.3566,-40.9915)">
                    <path d="M110.836,44.596L110.836,59.463L102.683,59.463L102.683,44.596L110.836,44.596ZM106.759,56.489C106.01,56.489 105.401,56.822 105.401,57.233C105.401,57.643 106.01,57.976 106.759,57.976C107.509,57.976 108.118,57.643 108.118,57.233C108.118,56.822 107.509,56.489 106.759,56.489Z" style="fill:url(#_Linear18);"/>
                </g>
                <g transform="matrix(1.10395,0,0,2.01793,116.643,-40.9915)">
                    <path d="M110.836,44.596L110.836,59.463L102.683,59.463L102.683,44.596L110.836,44.596ZM106.759,56.489C106.01,56.489 105.401,56.822 105.401,57.233C105.401,57.643 106.01,57.976 106.759,57.976C107.509,57.976 108.118,57.643 108.118,57.233C108.118,56.822 107.509,56.489 106.759,56.489Z" style="fill:url(#_Linear19);"/>
                </g>
                <g transform="matrix(1.10395,0,0,2.01793,413.643,-40.9915)">
                    <path d="M110.836,44.596L110.836,59.463L102.683,59.463L102.683,44.596L110.836,44.596ZM106.759,56.489C106.01,56.489 105.401,56.822 105.401,57.233C105.401,57.643 106.01,57.976 106.759,57.976C107.509,57.976 108.118,57.643 108.118,57.233C108.118,56.822 107.509,56.489 106.759,56.489Z" style="fill:url(#_Linear20);"/>
                </g>
                <g transform="matrix(1.10395,0,0,2.01793,258.643,-40.9915)">
                    <path d="M110.836,44.596L110.836,59.463L102.683,59.463L102.683,44.596L110.836,44.596ZM106.759,56.489C106.01,56.489 105.401,56.822 105.401,57.233C105.401,57.643 106.01,57.976 106.759,57.976C107.509,57.976 108.118,57.643 108.118,57.233C108.118,56.822 107.509,56.489 106.759,56.489Z" style="fill:url(#_Linear21);"/>
                </g>
                <g transform="matrix(1.10395,0,0,2.01793,25.6434,-40.9915)">
                    <path d="M110.836,44.596L110.836,59.463L102.683,59.463L102.683,44.596L110.836,44.596ZM106.759,56.489C106.01,56.489 105.401,56.822 105.401,57.233C105.401,57.643 106.01,57.976 106.759,57.976C107.509,57.976 108.118,57.643 108.118,57.233C108.118,56.822 107.509,56.489 106.759,56.489Z" style="fill:url(#_Linear22);"/>
                </g>
                <g transform="matrix(1.10395,0,0,2.01793,154.643,-40.9915)">
                    <path d="M110.836,44.596L110.836,59.463L102.683,59.463L102.683,44.596L110.836,44.596ZM106.759,56.489C106.01,56.489 105.401,56.822 105.401,57.233C105.401,57.643 106.01,57.976 106.759,57.976C107.509,57.976 108.118,57.643 108.118,57.233C108.118,56.822 107.509,56.489 106.759,56.489Z" style="fill:url(#_Linear23);"/>
                </g>
                <g transform="matrix(1.10395,0,0,2.01793,451.643,-40.9915)">
                    <path d="M110.836,44.596L110.836,59.463L102.683,59.463L102.683,44.596L110.836,44.596ZM106.759,56.489C106.01,56.489 105.401,56.822 105.401,57.233C105.401,57.643 106.01,57.976 106.759,57.976C107.509,57.976 108.118,57.643 108.118,57.233C108.118,56.822 107.509,56.489 106.759,56.489Z" style="fill:url(#_Linear24);"/>
                </g>
                <g transform="matrix(1.10395,0,0,2.01793,296.643,-40.9915)">
                    <path d="M110.836,44.596L110.836,59.463L102.683,59.463L102.683,44.596L110.836,44.596ZM106.759,56.489C106.01,56.489 105.401,56.822 105.401,57.233C105.401,57.643 106.01,57.976 106.759,57.976C107.509,57.976 108.118,57.643 108.118,57.233C108.118,56.822 107.509,56.489 106.759,56.489Z" style="fill:url(#_Linear25);"/>
                </g>
                <g transform="matrix(1.10395,0,0,2.01793,51.6434,-40.9915)">
                    <path d="M110.836,44.596L110.836,59.463L102.683,59.463L102.683,44.596L110.836,44.596ZM106.759,56.489C106.01,56.489 105.401,56.822 105.401,57.233C105.401,57.643 106.01,57.976 106.759,57.976C107.509,57.976 108.118,57.643 108.118,57.233C108.118,56.822 107.509,56.489 106.759,56.489Z" style="fill:url(#_Linear26);"/>
                </g>
                <g transform="matrix(1.10395,0,0,2.01793,348.643,-40.9915)">
                    <path d="M110.836,44.596L110.836,59.463L102.683,59.463L102.683,44.596L110.836,44.596ZM106.759,56.489C106.01,56.489 105.401,56.822 105.401,57.233C105.401,57.643 106.01,57.976 106.759,57.976C107.509,57.976 108.118,57.643 108.118,57.233C108.118,56.822 107.509,56.489 106.759,56.489Z" style="fill:url(#_Linear27);"/>
                </g>
                <g transform="matrix(1.10395,0,0,2.01793,193.643,-40.9915)">
                    <path d="M110.836,44.596L110.836,59.463L102.683,59.463L102.683,44.596L110.836,44.596ZM106.759,56.489C106.01,56.489 105.401,56.822 105.401,57.233C105.401,57.643 106.01,57.976 106.759,57.976C107.509,57.976 108.118,57.643 108.118,57.233C108.118,56.822 107.509,56.489 106.759,56.489Z" style="fill:url(#_Linear28);"/>
                </g>
                <g transform="matrix(1.10395,0,0,2.01793,180.643,-40.9915)">
                    <path d="M110.836,44.596L110.836,59.463L102.683,59.463L102.683,44.596L110.836,44.596ZM106.759,56.489C106.01,56.489 105.401,56.822 105.401,57.233C105.401,57.643 106.01,57.976 106.759,57.976C107.509,57.976 108.118,57.643 108.118,57.233C108.118,56.822 107.509,56.489 106.759,56.489Z" style="fill:url(#_Linear29);"/>
                </g>
                <g transform="matrix(1.10395,0,0,2.01793,322.643,-40.9915)">
                    <path d="M110.836,44.596L110.836,59.463L102.683,59.463L102.683,44.596L110.836,44.596ZM106.759,56.489C106.01,56.489 105.401,56.822 105.401,57.233C105.401,57.643 106.01,57.976 106.759,57.976C107.509,57.976 108.118,57.643 108.118,57.233C108.118,56.822 107.509,56.489 106.759,56.489Z" style="fill:url(#_Linear30);"/>
                </g>
                <g transform="matrix(1,0,0,1,10.3788,2)">
                    <path d="M54.539,77L51.621,77L51.621,47L60.621,47L60.621,77L57.905,77L56.733,82.044L55.711,82.044L54.539,77ZM56.121,71C55.293,71 54.621,71.672 54.621,72.5C54.621,73.328 55.293,74 56.121,74C56.949,74 57.621,73.328 57.621,72.5C57.621,71.672 56.949,71 56.121,71Z" style="fill:url(#_Linear31);"/>
                </g>
                <g transform="matrix(1,0,0,1,139.379,2)">
                    <path d="M54.539,77L51.621,77L51.621,47L60.621,47L60.621,77L57.905,77L56.733,82.044L55.711,82.044L54.539,77ZM56.121,71C55.293,71 54.621,71.672 54.621,72.5C54.621,73.328 55.293,74 56.121,74C56.949,74 57.621,73.328 57.621,72.5C57.621,71.672 56.949,71 56.121,71Z" style="fill:url(#_Linear32);"/>
                </g>
                <g transform="matrix(1,0,0,1,436.379,2)">
                    <path d="M54.539,77L51.621,77L51.621,47L60.621,47L60.621,77L57.905,77L56.733,82.044L55.711,82.044L54.539,77ZM56.121,71C55.293,71 54.621,71.672 54.621,72.5C54.621,73.328 55.293,74 56.121,74C56.949,74 57.621,73.328 57.621,72.5C57.621,71.672 56.949,71 56.121,71Z" style="fill:url(#_Linear33);"/>
                </g>
                <g transform="matrix(1,0,0,1,281.379,2)">
                    <path d="M54.539,77L51.621,77L51.621,47L60.621,47L60.621,77L57.905,77L56.733,82.044L55.711,82.044L54.539,77ZM56.121,71C55.293,71 54.621,71.672 54.621,72.5C54.621,73.328 55.293,74 56.121,74C56.949,74 57.621,73.328 57.621,72.5C57.621,71.672 56.949,71 56.121,71Z" style="fill:url(#_Linear34);"/>
                </g>
                <g transform="matrix(1,0,0,1,62.3788,2)">
                    <path d="M53.539,77L51.621,77L51.621,47L60.621,47L60.621,77L55.905,77L54.733,82.044L53.711,82.044L53.539,77ZM56.121,71C55.293,71 54.621,71.672 54.621,72.5C54.621,73.328 55.293,74 56.121,74C56.949,74 57.621,73.328 57.621,72.5C57.621,71.672 56.949,71 56.121,71Z" style="fill:url(#_Linear35);"/>
                </g>
                <g transform="matrix(1,0,0,1,191.379,2)">
                    <path d="M53.539,77L51.621,77L51.621,47L60.621,47L60.621,77L55.905,77L54.733,82.044L53.711,82.044L53.539,77ZM56.121,71C55.293,71 54.621,71.672 54.621,72.5C54.621,73.328 55.293,74 56.121,74C56.949,74 57.621,73.328 57.621,72.5C57.621,71.672 56.949,71 56.121,71Z" style="fill:url(#_Linear36);"/>
                </g>
                <g transform="matrix(1,0,0,1,488.379,2)">
                    <path d="M53.539,77L51.621,77L51.621,47L60.621,47L60.621,77L55.905,77L54.733,82.044L53.711,82.044L53.539,77ZM56.121,71C55.293,71 54.621,71.672 54.621,72.5C54.621,73.328 55.293,74 56.121,74C56.949,74 57.621,73.328 57.621,72.5C57.621,71.672 56.949,71 56.121,71Z" style="fill:url(#_Linear37);"/>
                </g>
                <g transform="matrix(1,0,0,1,333.379,2)">
                    <path d="M53.539,77L51.621,77L51.621,47L60.621,47L60.621,77L55.905,77L54.733,82.044L53.711,82.044L53.539,77ZM56.121,71C55.293,71 54.621,71.672 54.621,72.5C54.621,73.328 55.293,74 56.121,74C56.949,74 57.621,73.328 57.621,72.5C57.621,71.672 56.949,71 56.121,71Z" style="fill:url(#_Linear38);"/>
                </g>
                <g transform="matrix(1,0,0,1,23.3788,2)">
                    <path d="M56.539,77L51.621,77L51.621,47L60.621,47L60.621,77L58.905,77L58.733,82.044L57.711,82.044L56.539,77ZM56.121,71C55.293,71 54.621,71.672 54.621,72.5C54.621,73.328 55.293,74 56.121,74C56.949,74 57.621,73.328 57.621,72.5C57.621,71.672 56.949,71 56.121,71Z" style="fill:url(#_Linear39);"/>
                </g>
                <g transform="matrix(1,0,0,1,152.379,2)">
                    <path d="M56.539,77L51.621,77L51.621,47L60.621,47L60.621,77L58.905,77L58.733,82.044L57.711,82.044L56.539,77ZM56.121,71C55.293,71 54.621,71.672 54.621,72.5C54.621,73.328 55.293,74 56.121,74C56.949,74 57.621,73.328 57.621,72.5C57.621,71.672 56.949,71 56.121,71Z" style="fill:url(#_Linear40);"/>
                </g>
                <g transform="matrix(1,0,0,1,449.379,2)">
                    <path d="M56.539,77L51.621,77L51.621,47L60.621,47L60.621,77L58.905,77L58.733,82.044L57.711,82.044L56.539,77ZM56.121,71C55.293,71 54.621,71.672 54.621,72.5C54.621,73.328 55.293,74 56.121,74C56.949,74 57.621,73.328 57.621,72.5C57.621,71.672 56.949,71 56.121,71Z" style="fill:url(#_Linear41);"/>
                </g>
                <g transform="matrix(1,0,0,1,294.379,2)">
                    <path d="M56.539,77L51.621,77L51.621,47L60.621,47L60.621,77L58.905,77L58.733,82.044L57.711,82.044L56.539,77ZM56.121,71C55.293,71 54.621,71.672 54.621,72.5C54.621,73.328 55.293,74 56.121,74C56.949,74 57.621,73.328 57.621,72.5C57.621,71.672 56.949,71 56.121,71Z" style="fill:url(#_Linear42);"/>
                </g>
            </g>
        </g>
    </g>
    <defs>
        <linearGradient id="_Linear1" x1="0" y1="0" x2="1" y2="0" gradientUnits="userSpaceOnUse" gradientTransform="matrix(-441.145,2.95552e-14,-5.40247e-14,-241.337,563.077,50.0471)"><stop offset="0" style="stop-color:rgb(215,192,0);stop-opacity:1"/><stop offset="0.34" style="stop-color:rgb(207,182,0);stop-opacity:1"/><stop offset="0.62" style="stop-color:rgb(255,255,191);stop-opacity:1"/><stop offset="0.76" style="stop-color:rgb(224,202,0);stop-opacity:1"/><stop offset="1" style="stop-color:rgb(255,239,122);stop-opacity:1"/></linearGradient>
        <linearGradient id="_Linear2" x1="0" y1="0" x2="1" y2="0" gradientUnits="userSpaceOnUse" gradientTransform="matrix(-441.145,2.95552e-14,-5.40247e-14,-241.337,446.224,50.0471)"><stop offset="0" style="stop-color:rgb(215,192,0);stop-opacity:1"/><stop offset="0.34" style="stop-color:rgb(207,182,0);stop-opacity:1"/><stop offset="0.62" style="stop-color:rgb(255,255,191);stop-opacity:1"/><stop offset="0.76" style="stop-color:rgb(224,202,0);stop-opacity:1"/><stop offset="1" style="stop-color:rgb(255,239,122);stop-opacity:1"/></linearGradient>
        <linearGradient id="_Linear3" x1="0" y1="0" x2="1" y2="0" gradientUnits="userSpaceOnUse" gradientTransform="matrix(-441.145,2.95552e-14,-5.40247e-14,-241.337,177.189,50.0471)"><stop offset="0" style="stop-color:rgb(215,192,0);stop-opacity:1"/><stop offset="0.34" style="stop-color:rgb(207,182,0);stop-opacity:1"/><stop offset="0.62" style="stop-color:rgb(255,255,191);stop-opacity:1"/><stop offset="0.76" style="stop-color:rgb(224,202,0);stop-opacity:1"/><stop offset="1" style="stop-color:rgb(255,239,122);stop-opacity:1"/></linearGradient>
        <linearGradient id="_Linear4" x1="0" y1="0" x2="1" y2="0" gradientUnits="userSpaceOnUse" gradientTransform="matrix(-441.145,2.95552e-14,-5.40247e-14,-241.337,317.594,50.0471)"><stop offset="0" style="stop-color:rgb(215,192,0);stop-opacity:1"/><stop offset="0.34" style="stop-color:rgb(207,182,0);stop-opacity:1"/><stop offset="0.62" style="stop-color:rgb(255,255,191);stop-opacity:1"/><stop offset="0.76" style="stop-color:rgb(224,202,0);stop-opacity:1"/><stop offset="1" style="stop-color:rgb(255,239,122);stop-opacity:1"/></linearGradient>
        <linearGradient id="_Linear5" x1="0" y1="0" x2="1" y2="0" gradientUnits="userSpaceOnUse" gradientTransform="matrix(-441.145,2.95552e-14,-5.40247e-14,-241.337,527.749,50.0471)"><stop offset="0" style="stop-color:rgb(215,192,0);stop-opacity:1"/><stop offset="0.34" style="stop-color:rgb(207,182,0);stop-opacity:1"/><stop offset="0.62" style="stop-color:rgb(255,255,191);stop-opacity:1"/><stop offset="0.76" style="stop-color:rgb(224,202,0);stop-opacity:1"/><stop offset="1" style="stop-color:rgb(255,239,122);stop-opacity:1"/></linearGradient>
        <linearGradient id="_Linear6" x1="0" y1="0" x2="1" y2="0" gradientUnits="userSpaceOnUse" gradientTransform="matrix(-441.145,2.95552e-14,-5.40247e-14,-241.337,410.896,50.0471)"><stop offset="0" style="stop-color:rgb(215,192,0);stop-opacity:1"/><stop offset="0.34" style="stop-color:rgb(207,182,0);stop-opacity:1"/><stop offset="0.62" style="stop-color:rgb(255,255,191);stop-opacity:1"/><stop offset="0.76" style="stop-color:rgb(224,202,0);stop-opacity:1"/><stop offset="1" style="stop-color:rgb(255,239,122);stop-opacity:1"/></linearGradient>
        <linearGradient id="_Linear7" x1="0" y1="0" x2="1" y2="0" gradientUnits="userSpaceOnUse" gradientTransform="matrix(-441.145,2.95552e-14,-5.40247e-14,-241.337,141.861,50.0471)"><stop offset="0" style="stop-color:rgb(215,192,0);stop-opacity:1"/><stop offset="0.34" style="stop-color:rgb(207,182,0);stop-opacity:1"/><stop offset="0.62" style="stop-color:rgb(255,255,191);stop-opacity:1"/><stop offset="0.76" style="stop-color:rgb(224,202,0);stop-opacity:1"/><stop offset="1" style="stop-color:rgb(255,239,122);stop-opacity:1"/></linearGradient>
        <linearGradient id="_Linear8" x1="0" y1="0" x2="1" y2="0" gradientUnits="userSpaceOnUse" gradientTransform="matrix(-441.145,2.95552e-14,-5.40247e-14,-241.337,282.266,50.0471)"><stop offset="0" style="stop-color:rgb(215,192,0);stop-opacity:1"/><stop offset="0.34" style="stop-color:rgb(207,182,0);stop-opacity:1"/><stop offset="0.62" style="stop-color:rgb(255,255,191);stop-opacity:1"/><stop offset="0.76" style="stop-color:rgb(224,202,0);stop-opacity:1"/><stop offset="1" style="stop-color:rgb(255,239,122);stop-opacity:1"/></linearGradient>
        <linearGradient id="_Linear9" x1="0" y1="0" x2="1" y2="0" gradientUnits="userSpaceOnUse" gradientTransform="matrix(-441.145,2.95552e-14,-5.40247e-14,-241.337,493.327,50.0471)"><stop offset="0" style="stop-color:rgb(215,192,0);stop-opacity:1"/><stop offset="0.34" style="stop-color:rgb(207,182,0);stop-opacity:1"/><stop offset="0.62" style="stop-color:rgb(255,255,191);stop-opacity:1"/><stop offset="0.76" style="stop-color:rgb(224,202,0);stop-opacity:1"/><stop offset="1" style="stop-color:rgb(255,239,122);stop-opacity:1"/></linearGradient>
        <linearGradient id="_Linear10" x1="0" y1="0" x2="1" y2="0" gradientUnits="userSpaceOnUse" gradientTransform="matrix(-441.145,2.95552e-14,-5.40247e-14,-241.337,376.474,50.0471)"><stop offset="0" style="stop-color:rgb(215,192,0);stop-opacity:1"/><stop offset="0.34" style="stop-color:rgb(207,182,0);stop-opacity:1"/><stop offset="0.62" style="stop-color:rgb(255,255,191);stop-opacity:1"/><stop offset="0.76" style="stop-color:rgb(224,202,0);stop-opacity:1"/><stop offset="1" style="stop-color:rgb(255,239,122);stop-opacity:1"/></linearGradient>
        <linearGradient id="_Linear11" x1="0" y1="0" x2="1" y2="0" gradientUnits="userSpaceOnUse" gradientTransform="matrix(-441.145,2.95552e-14,-5.40247e-14,-241.337,107.439,50.0471)"><stop offset="0" style="stop-color:rgb(215,192,0);stop-opacity:1"/><stop offset="0.34" style="stop-color:rgb(207,182,0);stop-opacity:1"/><stop offset="0.62" style="stop-color:rgb(255,255,191);stop-opacity:1"/><stop offset="0.76" style="stop-color:rgb(224,202,0);stop-opacity:1"/><stop offset="1" style="stop-color:rgb(255,239,122);stop-opacity:1"/></linearGradient>
        <linearGradient id="_Linear12" x1="0" y1="0" x2="1" y2="0" gradientUnits="userSpaceOnUse" gradientTransform="matrix(-441.145,2.95552e-14,-5.40247e-14,-241.337,247.844,50.0471)"><stop offset="0" style="stop-color:rgb(215,192,0);stop-opacity:1"/><stop offset="0.34" style="stop-color:rgb(207,182,0);stop-opacity:1"/><stop offset="0.62" style="stop-color:rgb(255,255,191);stop-opacity:1"/><stop offset="0.76" style="stop-color:rgb(224,202,0);stop-opacity:1"/><stop offset="1" style="stop-color:rgb(255,239,122);stop-opacity:1"/></linearGradient>
        <linearGradient id="_Linear13" x1="0" y1="0" x2="1" y2="0" gradientUnits="userSpaceOnUse" gradientTransform="matrix(-441.145,2.95552e-14,-5.40247e-14,-241.337,469.775,50.0471)"><stop offset="0" style="stop-color:rgb(215,192,0);stop-opacity:1"/><stop offset="0.34" style="stop-color:rgb(207,182,0);stop-opacity:1"/><stop offset="0.62" style="stop-color:rgb(255,255,191);stop-opacity:1"/><stop offset="0.76" style="stop-color:rgb(224,202,0);stop-opacity:1"/><stop offset="1" style="stop-color:rgb(255,239,122);stop-opacity:1"/></linearGradient>
        <linearGradient id="_Linear14" x1="0" y1="0" x2="1" y2="0" gradientUnits="userSpaceOnUse" gradientTransform="matrix(-441.145,2.95552e-14,-5.40247e-14,-241.337,200.741,50.0471)"><stop offset="0" style="stop-color:rgb(215,192,0);stop-opacity:1"/><stop offset="0.34" style="stop-color:rgb(207,182,0);stop-opacity:1"/><stop offset="0.62" style="stop-color:rgb(255,255,191);stop-opacity:1"/><stop offset="0.76" style="stop-color:rgb(224,202,0);stop-opacity:1"/><stop offset="1" style="stop-color:rgb(255,239,122);stop-opacity:1"/></linearGradient>
        <linearGradient id="_Linear15" x1="0" y1="0" x2="1" y2="0" gradientUnits="userSpaceOnUse" gradientTransform="matrix(-441.145,2.95552e-14,-5.40247e-14,-241.337,352.922,50.0471)"><stop offset="0" style="stop-color:rgb(215,192,0);stop-opacity:1"/><stop offset="0.34" style="stop-color:rgb(207,182,0);stop-opacity:1"/><stop offset="0.62" style="stop-color:rgb(255,255,191);stop-opacity:1"/><stop offset="0.76" style="stop-color:rgb(224,202,0);stop-opacity:1"/><stop offset="1" style="stop-color:rgb(255,239,122);stop-opacity:1"/></linearGradient>
        <linearGradient id="_Linear16" x1="0" y1="0" x2="1" y2="0" gradientUnits="userSpaceOnUse" gradientTransform="matrix(-441.145,2.95552e-14,-5.40247e-14,-241.337,83.8869,50.0471)"><stop offset="0" style="stop-color:rgb(215,192,0);stop-opacity:1"/><stop offset="0.34" style="stop-color:rgb(207,182,0);stop-opacity:1"/><stop offset="0.62" style="stop-color:rgb(255,255,191);stop-opacity:1"/><stop offset="0.76" style="stop-color:rgb(224,202,0);stop-opacity:1"/><stop offset="1" style="stop-color:rgb(255,239,122);stop-opacity:1"/></linearGradient>
        <linearGradient id="_Linear17" x1="0" y1="0" x2="1" y2="0" gradientUnits="userSpaceOnUse" gradientTransform="matrix(-441.145,2.95552e-14,-5.40247e-14,-241.337,224.292,50.0471)"><stop offset="0" style="stop-color:rgb(215,192,0);stop-opacity:1"/><stop offset="0.34" style="stop-color:rgb(207,182,0);stop-opacity:1"/><stop offset="0.62" style="stop-color:rgb(255,255,191);stop-opacity:1"/><stop offset="0.76" style="stop-color:rgb(224,202,0);stop-opacity:1"/><stop offset="1" style="stop-color:rgb(255,239,122);stop-opacity:1"/></linearGradient>
        <linearGradient id="_Linear18" x1="0" y1="0" x2="1" y2="0" gradientUnits="userSpaceOnUse" gradientTransform="matrix(-441.145,2.95552e-14,-5.40247e-14,-241.337,515.973,50.0471)"><stop offset="0" style="stop-color:rgb(215,192,0);stop-opacity:1"/><stop offset="0.34" style="stop-color:rgb(207,182,0);stop-opacity:1"/><stop offset="0.62" style="stop-color:rgb(255,255,191);stop-opacity:1"/><stop offset="0.76" style="stop-color:rgb(224,202,0);stop-opacity:1"/><stop offset="1" style="stop-color:rgb(255,239,122);stop-opacity:1"/></linearGradient>
        <linearGradient id="_Linear19" x1="0" y1="0" x2="1" y2="0" gradientUnits="userSpaceOnUse" gradientTransform="matrix(-441.145,2.95552e-14,-5.40247e-14,-241.337,399.12,50.0471)"><stop offset="0" style="stop-color:rgb(215,192,0);stop-opacity:1"/><stop offset="0.34" style="stop-color:rgb(207,182,0);stop-opacity:1"/><stop offset="0.62" style="stop-color:rgb(255,255,191);stop-opacity:1"/><stop offset="0.76" style="stop-color:rgb(224,202,0);stop-opacity:1"/><stop offset="1" style="stop-color:rgb(255,239,122);stop-opacity:1"/></linearGradient>
        <linearGradient id="_Linear20" x1="0" y1="0" x2="1" y2="0" gradientUnits="userSpaceOnUse" gradientTransform="matrix(-441.145,2.95552e-14,-5.40247e-14,-241.337,130.085,50.0471)"><stop offset="0" style="stop-color:rgb(215,192,0);stop-opacity:1"/><stop offset="0.34" style="stop-color:rgb(207,182,0);stop-opacity:1"/><stop offset="0.62" style="stop-color:rgb(255,255,191);stop-opacity:1"/><stop offset="0.76" style="stop-color:rgb(224,202,0);stop-opacity:1"/><stop offset="1" style="stop-color:rgb(255,239,122);stop-opacity:1"/></linearGradient>
        <linearGradient id="_Linear21" x1="0" y1="0" x2="1" y2="0" gradientUnits="userSpaceOnUse" gradientTransform="matrix(-441.145,2.95552e-14,-5.40247e-14,-241.337,270.49,50.0471)"><stop offset="0" style="stop-color:rgb(215,192,0);stop-opacity:1"/><stop offset="0.34" style="stop-color:rgb(207,182,0);stop-opacity:1"/><stop offset="0.62" style="stop-color:rgb(255,255,191);stop-opacity:1"/><stop offset="0.76" style="stop-color:rgb(224,202,0);stop-opacity:1"/><stop offset="1" style="stop-color:rgb(255,239,122);stop-opacity:1"/></linearGradient>
        <linearGradient id="_Linear22" x1="0" y1="0" x2="1" y2="0" gradientUnits="userSpaceOnUse" gradientTransform="matrix(-441.145,2.95552e-14,-5.40247e-14,-241.337,481.551,50.0471)"><stop offset="0" style="stop-color:rgb(215,192,0);stop-opacity:1"/><stop offset="0.34" style="stop-color:rgb(207,182,0);stop-opacity:1"/><stop offset="0.62" style="stop-color:rgb(255,255,191);stop-opacity:1"/><stop offset="0.76" style="stop-color:rgb(224,202,0);stop-opacity:1"/><stop offset="1" style="stop-color:rgb(255,239,122);stop-opacity:1"/></linearGradient>
        <linearGradient id="_Linear23" x1="0" y1="0" x2="1" y2="0" gradientUnits="userSpaceOnUse" gradientTransform="matrix(-441.145,2.95552e-14,-5.40247e-14,-241.337,364.698,50.0471)"><stop offset="0" style="stop-color:rgb(215,192,0);stop-opacity:1"/><stop offset="0.34" style="stop-color:rgb(207,182,0);stop-opacity:1"/><stop offset="0.62" style="stop-color:rgb(255,255,191);stop-opacity:1"/><stop offset="0.76" style="stop-color:rgb(224,202,0);stop-opacity:1"/><stop offset="1" style="stop-color:rgb(255,239,122);stop-opacity:1"/></linearGradient>
        <linearGradient id="_Linear24" x1="0" y1="0" x2="1" y2="0" gradientUnits="userSpaceOnUse" gradientTransform="matrix(-441.145,2.95552e-14,-5.40247e-14,-241.337,95.6629,50.0471)"><stop offset="0" style="stop-color:rgb(215,192,0);stop-opacity:1"/><stop offset="0.34" style="stop-color:rgb(207,182,0);stop-opacity:1"/><stop offset="0.62" style="stop-color:rgb(255,255,191);stop-opacity:1"/><stop offset="0.76" style="stop-color:rgb(224,202,0);stop-opacity:1"/><stop offset="1" style="stop-color:rgb(255,239,122);stop-opacity:1"/></linearGradient>
        <linearGradient id="_Linear25" x1="0" y1="0" x2="1" y2="0" gradientUnits="userSpaceOnUse" gradientTransform="matrix(-441.145,2.95552e-14,-5.40247e-14,-241.337,236.068,50.0471)"><stop offset="0" style="stop-color:rgb(215,192,0);stop-opacity:1"/><stop offset="0.34" style="stop-color:rgb(207,182,0);stop-opacity:1"/><stop offset="0.62" style="stop-color:rgb(255,255,191);stop-opacity:1"/><stop offset="0.76" style="stop-color:rgb(224,202,0);stop-opacity:1"/><stop offset="1" style="stop-color:rgb(255,239,122);stop-opacity:1"/></linearGradient>
        <linearGradient id="_Linear26" x1="0" y1="0" x2="1" y2="0" gradientUnits="userSpaceOnUse" gradientTransform="matrix(-441.145,2.95552e-14,-5.40247e-14,-241.337,457.999,50.0471)"><stop offset="0" style="stop-color:rgb(215,192,0);stop-opacity:1"/><stop offset="0.34" style="stop-color:rgb(207,182,0);stop-opacity:1"/><stop offset="0.62" style="stop-color:rgb(255,255,191);stop-opacity:1"/><stop offset="0.76" style="stop-color:rgb(224,202,0);stop-opacity:1"/><stop offset="1" style="stop-color:rgb(255,239,122);stop-opacity:1"/></linearGradient>
        <linearGradient id="_Linear27" x1="0" y1="0" x2="1" y2="0" gradientUnits="userSpaceOnUse" gradientTransform="matrix(-441.145,2.95552e-14,-5.40247e-14,-241.337,188.965,50.0471)"><stop offset="0" style="stop-color:rgb(215,192,0);stop-opacity:1"/><stop offset="0.34" style="stop-color:rgb(207,182,0);stop-opacity:1"/><stop offset="0.62" style="stop-color:rgb(255,255,191);stop-opacity:1"/><stop offset="0.76" style="stop-color:rgb(224,202,0);stop-opacity:1"/><stop offset="1" style="stop-color:rgb(255,239,122);stop-opacity:1"/></linearGradient>
        <linearGradient id="_Linear28" x1="0" y1="0" x2="1" y2="0" gradientUnits="userSpaceOnUse" gradientTransform="matrix(-441.145,2.95552e-14,-5.40247e-14,-241.337,329.37,50.0471)"><stop offset="0" style="stop-color:rgb(215,192,0);stop-opacity:1"/><stop offset="0.34" style="stop-color:rgb(207,182,0);stop-opacity:1"/><stop offset="0.62" style="stop-color:rgb(255,255,191);stop-opacity:1"/><stop offset="0.76" style="stop-color:rgb(224,202,0);stop-opacity:1"/><stop offset="1" style="stop-color:rgb(255,239,122);stop-opacity:1"/></linearGradient>
        <linearGradient id="_Linear29" x1="0" y1="0" x2="1" y2="0" gradientUnits="userSpaceOnUse" gradientTransform="matrix(-441.145,2.95552e-14,-5.40247e-14,-241.337,341.146,50.0471)"><stop offset="0" style="stop-color:rgb(215,192,0);stop-opacity:1"/><stop offset="0.34" style="stop-color:rgb(207,182,0);stop-opacity:1"/><stop offset="0.62" style="stop-color:rgb(255,255,191);stop-opacity:1"/><stop offset="0.76" style="stop-color:rgb(224,202,0);stop-opacity:1"/><stop offset="1" style="stop-color:rgb(255,239,122);stop-opacity:1"/></linearGradient>
        <linearGradient id="_Linear30" x1="0" y1="0" x2="1" y2="0" gradientUnits="userSpaceOnUse" gradientTransform="matrix(-441.145,2.95552e-14,-5.40247e-14,-241.337,212.516,50.0471)"><stop offset="0" style="stop-color:rgb(215,192,0);stop-opacity:1"/><stop offset="0.34" style="stop-color:rgb(207,182,0);stop-opacity:1"/><stop offset="0.62" style="stop-color:rgb(255,255,191);stop-opacity:1"/><stop offset="0.76" style="stop-color:rgb(224,202,0);stop-opacity:1"/><stop offset="1" style="stop-color:rgb(255,239,122);stop-opacity:1"/></linearGradient>
        <linearGradient id="_Linear31" x1="0" y1="0" x2="1" y2="0" gradientUnits="userSpaceOnUse" gradientTransform="matrix(-487,5.96403e-14,-5.96403e-14,-487,546.871,58)"><stop offset="0" style="stop-color:rgb(215,192,0);stop-opacity:1"/><stop offset="0.34" style="stop-color:rgb(207,182,0);stop-opacity:1"/><stop offset="0.62" style="stop-color:rgb(255,255,191);stop-opacity:1"/><stop offset="0.76" style="stop-color:rgb(224,202,0);stop-opacity:1"/><stop offset="1" style="stop-color:rgb(255,239,122);stop-opacity:1"/></linearGradient>
        <linearGradient id="_Linear32" x1="0" y1="0" x2="1" y2="0" gradientUnits="userSpaceOnUse" gradientTransform="matrix(-487,5.96403e-14,-5.96403e-14,-487,417.871,58)"><stop offset="0" style="stop-color:rgb(215,192,0);stop-opacity:1"/><stop offset="0.34" style="stop-color:rgb(207,182,0);stop-opacity:1"/><stop offset="0.62" style="stop-color:rgb(255,255,191);stop-opacity:1"/><stop offset="0.76" style="stop-color:rgb(224,202,0);stop-opacity:1"/><stop offset="1" style="stop-color:rgb(255,239,122);stop-opacity:1"/></linearGradient>
        <linearGradient id="_Linear33" x1="0" y1="0" x2="1" y2="0" gradientUnits="userSpaceOnUse" gradientTransform="matrix(-487,5.96403e-14,-5.96403e-14,-487,120.871,58)"><stop offset="0" style="stop-color:rgb(215,192,0);stop-opacity:1"/><stop offset="0.34" style="stop-color:rgb(207,182,0);stop-opacity:1"/><stop offset="0.62" style="stop-color:rgb(255,255,191);stop-opacity:1"/><stop offset="0.76" style="stop-color:rgb(224,202,0);stop-opacity:1"/><stop offset="1" style="stop-color:rgb(255,239,122);stop-opacity:1"/></linearGradient>
        <linearGradient id="_Linear34" x1="0" y1="0" x2="1" y2="0" gradientUnits="userSpaceOnUse" gradientTransform="matrix(-487,5.96403e-14,-5.96403e-14,-487,275.871,58)"><stop offset="0" style="stop-color:rgb(215,192,0);stop-opacity:1"/><stop offset="0.34" style="stop-color:rgb(207,182,0);stop-opacity:1"/><stop offset="0.62" style="stop-color:rgb(255,255,191);stop-opacity:1"/><stop offset="0.76" style="stop-color:rgb(224,202,0);stop-opacity:1"/><stop offset="1" style="stop-color:rgb(255,239,122);stop-opacity:1"/></linearGradient>
        <linearGradient id="_Linear35" x1="0" y1="0" x2="1" y2="0" gradientUnits="userSpaceOnUse" gradientTransform="matrix(-487,5.96403e-14,-5.96403e-14,-487,494.871,58)"><stop offset="0" style="stop-color:rgb(215,192,0);stop-opacity:1"/><stop offset="0.34" style="stop-color:rgb(207,182,0);stop-opacity:1"/><stop offset="0.62" style="stop-color:rgb(255,255,191);stop-opacity:1"/><stop offset="0.76" style="stop-color:rgb(224,202,0);stop-opacity:1"/><stop offset="1" style="stop-color:rgb(255,239,122);stop-opacity:1"/></linearGradient>
        <linearGradient id="_Linear36" x1="0" y1="0" x2="1" y2="0" gradientUnits="userSpaceOnUse" gradientTransform="matrix(-487,5.96403e-14,-5.96403e-14,-487,365.871,58)"><stop offset="0" style="stop-color:rgb(215,192,0);stop-opacity:1"/><stop offset="0.34" style="stop-color:rgb(207,182,0);stop-opacity:1"/><stop offset="0.62" style="stop-color:rgb(255,255,191);stop-opacity:1"/><stop offset="0.76" style="stop-color:rgb(224,202,0);stop-opacity:1"/><stop offset="1" style="stop-color:rgb(255,239,122);stop-opacity:1"/></linearGradient>
        <linearGradient id="_Linear37" x1="0" y1="0" x2="1" y2="0" gradientUnits="userSpaceOnUse" gradientTransform="matrix(-487,5.96403e-14,-5.96403e-14,-487,68.8712,58)"><stop offset="0" style="stop-color:rgb(215,192,0);stop-opacity:1"/><stop offset="0.34" style="stop-color:rgb(207,182,0);stop-opacity:1"/><stop offset="0.62" style="stop-color:rgb(255,255,191);stop-opacity:1"/><stop offset="0.76" style="stop-color:rgb(224,202,0);stop-opacity:1"/><stop offset="1" style="stop-color:rgb(255,239,122);stop-opacity:1"/></linearGradient>
        <linearGradient id="_Linear38" x1="0" y1="0" x2="1" y2="0" gradientUnits="userSpaceOnUse" gradientTransform="matrix(-487,5.96403e-14,-5.96403e-14,-487,223.871,58)"><stop offset="0" style="stop-color:rgb(215,192,0);stop-opacity:1"/><stop offset="0.34" style="stop-color:rgb(207,182,0);stop-opacity:1"/><stop offset="0.62" style="stop-color:rgb(255,255,191);stop-opacity:1"/><stop offset="0.76" style="stop-color:rgb(224,202,0);stop-opacity:1"/><stop offset="1" style="stop-color:rgb(255,239,122);stop-opacity:1"/></linearGradient>
        <linearGradient id="_Linear39" x1="0" y1="0" x2="1" y2="0" gradientUnits="userSpaceOnUse" gradientTransform="matrix(-487,5.96403e-14,-5.96403e-14,-487,533.871,58)"><stop offset="0" style="stop-color:rgb(215,192,0);stop-opacity:1"/><stop offset="0.34" style="stop-color:rgb(207,182,0);stop-opacity:1"/><stop offset="0.62" style="stop-color:rgb(255,255,191);stop-opacity:1"/><stop offset="0.76" style="stop-color:rgb(224,202,0);stop-opacity:1"/><stop offset="1" style="stop-color:rgb(255,239,122);stop-opacity:1"/></linearGradient>
        <linearGradient id="_Linear40" x1="0" y1="0" x2="1" y2="0" gradientUnits="userSpaceOnUse" gradientTransform="matrix(-487,5.96403e-14,-5.96403e-14,-487,404.871,58)"><stop offset="0" style="stop-color:rgb(215,192,0);stop-opacity:1"/><stop offset="0.34" style="stop-color:rgb(207,182,0);stop-opacity:1"/><stop offset="0.62" style="stop-color:rgb(255,255,191);stop-opacity:1"/><stop offset="0.76" style="stop-color:rgb(224,202,0);stop-opacity:1"/><stop offset="1" style="stop-color:rgb(255,239,122);stop-opacity:1"/></linearGradient>
        <linearGradient id="_Linear41" x1="0" y1="0" x2="1" y2="0" gradientUnits="userSpaceOnUse" gradientTransform="matrix(-487,5.96403e-14,-5.96403e-14,-487,107.871,58)"><stop offset="0" style="stop-color:rgb(215,192,0);stop-opacity:1"/><stop offset="0.34" style="stop-color:rgb(207,182,0);stop-opacity:1"/><stop offset="0.62" style="stop-color:rgb(255,255,191);stop-opacity:1"/><stop offset="0.76" style="stop-color:rgb(224,202,0);stop-opacity:1"/><stop offset="1" style="stop-color:rgb(255,239,122);stop-opacity:1"/></linearGradient>
        <linearGradient id="_Linear42" x1="0" y1="0" x2="1" y2="0" gradientUnits="userSpaceOnUse" gradientTransform="matrix(-487,5.96403e-14,-5.96403e-14,-487,262.871,58)"><stop offset="0" style="stop-color:rgb(215,192,0);stop-opacity:1"/><stop offset="0.34" style="stop-color:rgb(207,182,0);stop-opacity:1"/><stop offset="0.62" style="stop-color:rgb(255,255,191);stop-opacity:1"/><stop offset="0.76" style="stop-color:rgb(224,202,0);stop-opacity:1"/><stop offset="1" style="stop-color:rgb(255,239,122);stop-opacity:1"/></linearGradient>
    </defs>
</svg>
