<?xml version="1.0" encoding="UTF-8" standalone="no"?>
<svg
   width="619"
   height="994"
   viewBox="0 0 198.04799 318.048"
   version="1.1"
   id="svg9"
   xmlns="http://www.w3.org/2000/svg"
   xmlns:svg="http://www.w3.org/2000/svg">
  <defs
     id="defs9" />
  <rect
     style="fill:#ffffff;fill-opacity:1;stroke:none;stroke-width:0;stroke-dasharray:none"
     id="rect9"
     width="56.822937"
     height="25.363028"
     x="134.36923"
     y="276.7681" />
  <path
     fill="#a5a2a2"
     fill-rule="evenodd"
     d="M0 0v219.687a1.32 1.32 0 0 1-1.32 1.321h-135.295a1.32 1.32 0 0 1-1.32-1.321V-5.706c0-.73.591-1.321 1.32-1.321h71.797V0Zm2.998 219.687V-5.706a4.322 4.322 0 0 0-4.318-4.321h-135.295a4.322 4.322 0 0 0-4.318 4.321v225.393a4.322 4.322 0 0 0 4.318 4.321H-1.32a4.322 4.322 0 0 0 4.318-4.321z"
     transform="matrix(1.333 0 0 -1.333 190.909 301.677)"
     id="path1" />
  <path
     fill="#dd2020"
     fill-rule="evenodd"
     d="M96.571 30.971h4.375V5.243h-4.375z"
     transform="matrix(1.333 0 0 -1.333 0 318.048)"
     id="path2" />
  <path
     fill="#a5a2a2"
     d="M-37.561 1.27v-3.252h.724v2.53h1.806c.24 0 .36-.12.36-.362v-2.168h.722V.186c0 .723-.36 1.084-1.082 1.084h-2.53zm3.974 0v-3.252h.722v1.264h1.808v.724h-1.808v.542h2.529v.722h-3.25zm4.696 0c-.722 0-1.082-.36-1.082-1.084V-.898c0-.723.36-1.084 1.082-1.084h2.529v.722h-2.529c-.24 0-.361.121-.361.362V.186c0 .241.12.362.361.362h2.529v.722h-2.529zm4.335 0V-.896c0-.723.362-1.084 1.084-1.084h2.53v.72h-2.53c-.241 0-.36.123-.36.364V1.27h-.724zm5.058 0c-.722 0-1.084-.362-1.084-1.084V-.898c0-.722.362-1.082 1.084-1.082h1.626c.602 0 .902.36.902 1.082V.186c0 .722-.362 1.084-1.084 1.084h-1.444zm3.974 0c-.723 0-1.084-.362-1.084-1.084v-2.168h.722v.904h2.168v-.904h.722V.186c0 .722-.362 1.084-1.084 1.084h-1.444zm2.889 0v-3.25h2.53c.723 0 1.084.36 1.084 1.082V.186c0 .722-.361 1.084-1.084 1.084h-2.53zm3.975 0v-3.25h.723v3.25h-.723zm1.083 0v-3.252h.722v2.53h1.808c.24 0 .36-.12.36-.362v-2.168h.722V.186c0 .723-.36 1.084-1.082 1.084h-2.53zm5.058 0c-.05 0-.094-.007-.14-.01a1.581 1.581 0 0 1-.17-.02l-.068-.014-.054-.015-.006-.001-.045-.013-.008-.003a.942.942 0 0 1-.164-.073l-.006-.003-.004-.003-.004-.003a.781.781 0 0 1-.217-.19l-.028-.04a.848.848 0 0 1-.051-.085 1.112 1.112 0 0 1-.112-.362 1.656 1.656 0 0 1-.016-.253V-.902c0-.046.002-.09.005-.132.005-.085.016-.164.033-.237a1.038 1.038 0 0 1 .141-.334.752.752 0 0 1 .092-.112.806.806 0 0 1 .339-.202c.067-.022.14-.04.22-.051.078-.011.163-.016.253-.016H0v.004h.008V.006h-1.626V0h-.008v-.724h.902v-.534H-2.52a.503.503 0 0 0-.158.022c-.136.045-.204.157-.204.338V.186c0 .06.007.113.022.158.03.088.09.147.176.178l.023.005.008.002c.023.006.051.009.079.012h.006l.038.001H0v.006h.008v.722h-2.528zM-15.524.548h1.444c.241 0 .362-.12.362-.362v-.542h-2.168v.542c0 .241.121.362.362.362zm-3.974-.002h1.444c.241 0 .362-.119.362-.36V-.898c0-.24-.12-.36-.362-.36h-1.444c-.241 0-.362.12-.362.36V.186c0 .241.121.36.362.36zm7.586 0h1.807c.24 0 .36-.119.36-.36V-.898c0-.24-.12-.36-.36-.36h-1.807V.546zM-35.853-2.9c-1.139 0-1.708-.53-1.708-1.588 0-1.028.569-1.543 1.708-1.543h2.846v-.854h-4.554v-1.14h3.986c1.138 0 1.708.524 1.708 1.568 0 1.043-.57 1.564-1.708 1.564h-2.846v.854h4.554V-2.9h-3.986zm4.554 0v-1.423c0-1.139.57-1.708 1.708-1.708h.569v-1.992h1.14v1.992h.568c1.138 0 1.708.57 1.708 1.708V-2.9h-1.139v-1.423c0-.38-.19-.568-.57-.568h-2.276c-.38 0-.57.188-.57.568V-2.9h-1.138zm7.97 0c-1.139 0-1.708-.53-1.708-1.588 0-1.028.57-1.543 1.708-1.543h2.845v-.854h-4.553v-1.14h3.985c1.138 0 1.708.524 1.708 1.568 0 1.043-.57 1.564-1.708 1.564h-2.846v.854h4.554V-2.9h-3.985zm4.553 0V-4.04h2.278v-3.984h1.138v3.984h2.278V-2.9h-5.694zm6.26 0v-3.415c0-1.139.57-1.708 1.709-1.708h3.986v1.138h-3.986c-.38 0-.568.19-.568.57v.284h4.554v1.138h-4.554v.854h4.554V-2.9h-5.694zm6.263 0v-5.123h1.14v3.984h1.422v-3.984h1.138v3.984h.854c.38 0 .57-.189.57-.568v-3.416H.01v3.416C.01-3.469-.56-2.9-1.699-2.9h-4.554zm-31.159-6.41a.148.148 0 0 1-.148-.148c0-.081.067-.147.148-.147H-.139c.081 0 .147.066.147.147a.147.147 0 0 1-.147.147h-37.273zm21.849-1.09-.279-.119c.074-.133.136-.309.183-.526l.263.114a2.098 2.098 0 0 1-.167.53zm-1.938-.138c-.24-.648-.614-1.147-1.125-1.496l.276-.25c.236.156.476.41.718.764h1.42c-.108-.52-.323-.947-.646-1.283-.322-.335-.766-.603-1.333-.801l.26-.33c.624.267 1.106.613 1.442 1.035.337.423.556.95.659 1.585l-.147.146.159.08a2.108 2.108 0 0 1-.169.53l-.28-.118c.07-.124.129-.288.178-.492h-1.317c.083.138.16.293.233.464l-.328.166zm15.577-.086-.992-2.584-.44-.05.093-.383c.448.09 1.312.202 2.594.334.091-.189.16-.364.205-.528l.34.145c-.313.74-.641 1.33-.981 1.77l-.353-.158c.18-.185.377-.481.59-.89l-1.667-.19.927 2.408-.316.126zm-12.384-.012-.123-.366a2.824 2.824 0 0 0 1.16-.365l.123.357c-.284.144-.67.269-1.16.374zm-12.61-.126-.278-.117c.076-.134.138-.31.183-.528l.265.116c-.042.21-.1.386-.17.529zm4.8-.012-.21-.322c.418-.105.78-.291 1.088-.558l.205.307c-.282.22-.643.41-1.082.573zm-7.6-.053v-.354h1.907v.354h-1.907zm22.89 0v-.354h2.435v.354h-2.434zm-30.657-.04v-2.961h.344v.236h2.037v-.236h.344v2.96h-2.725zm28.957-.008-2.235-.004v-.337h1.911a4.763 4.763 0 0 0-.856-1.421 4.543 4.543 0 0 0-1.27-1.018l.268-.283a5.463 5.463 0 0 1 1.464 1.307 4.608 4.608 0 0 0 1.29-1.241l.298.224a5.57 5.57 0 0 1-1.385 1.3c.273.407.477.861.616 1.363l-.1.11zm-18.813-.045-.277-.116c.074-.134.135-.31.182-.526l.264.113c-.041.21-.098.386-.169.529zm3.43-.049a3.715 3.715 0 0 0-.793-.84 4.05 4.05 0 0 0-1.015-.617l.195-.289c.28.123.573.302.877.536v-1.296h.316v1.556c.165.139.392.383.676.733l-.257.217zm-13.23-.252h2.037v-2.018h-2.037v2.018zm17.55-.272a4.5 4.5 0 0 0-1.073-1.294c-.411-.33-.958-.572-1.638-.723l.219-.355c.544.158 1.03.383 1.461.677.431.294.866.774 1.304 1.44l-.274.255zm7.637-.038a3.515 3.515 0 0 0-1.039-1.276c-.43-.324-.97-.564-1.617-.718l.175-.363c.62.17 1.151.424 1.59.756.44.33.837.784 1.188 1.358l-.297.243zm-2.711-.087-.124-.356c.47-.054.852-.186 1.145-.397l.133.372c-.3.164-.683.29-1.154.381zm-15.42-.175v-.355h1.479a2.09 2.09 0 0 0 .005-.204c0-.315-.076-.584-.232-.807-.155-.224-.386-.39-.689-.5l.27-.314c.667.33 1 .886 1 1.667 0 .074 0 .127-.003.158h1.354v.355h-3.185zm22.889 0v-.355h1.48c.004-.043.007-.112.007-.204 0-.315-.079-.584-.235-.807-.155-.224-.385-.39-.688-.5l.27-.314c.668.33 1.001.886 1.001 1.667 0 .074-.002.127-.004.158h1.355v.355h-3.186zm-26.668-.255v-.356h3.182v.356h-3.182z"
     transform="matrix(1.333 0 0 -1.333 187.898 280.656)"
     id="path3" />
  <path
     fill="#333333"
     fill-rule="evenodd"
     d="M 6.9452954,276.77878 H 128.68152 v 34.29543 H 8.6995234 a 1.75956,1.75956 0 0 1 -1.754228,-1.7609 z"
     id="path4"
     style="stroke:none;stroke-width:0;stroke-dasharray:none" />
  <path
     fill="#ed232a"
     d="M0 0c.091 0 .186.061.186.21v.396C.186.754.091.814 0 .814S-.186.754-.186.606L-.188.21C-.188.061-.091 0 0 0m.669.407c0-.29-.298-.523-.666-.523-.368 0-.666.233-.666.523 0 .29.298.523.666.523C.371.93.669.697.669.407m-1.157.93V1.22h-.35V-.066h-.467V1.22h-.35v.116zM-2.147.056c.073 0 .18.038.18.182v.333c0 .144-.107.18-.18.18-.07 0-.177-.036-.178-.18V.24c0-.144.107-.182.178-.182m.128.848c.306 0 .534-.255.534-.49 0-.324-.272-.443-.312-.46a.56.56 0 0 0-.226-.047.608.608 0 0 0-.299.08V-.53h-.452V.871h.452v-.05a.624.624 0 0 0 .303.084M-3.368.572c-.001.144-.106.18-.178.18s-.179-.036-.179-.18V.24c0-.144.107-.182.179-.182s.179.038.179.182zm-.003.248v.051h.452v-.937h-.452v.055a.596.596 0 0 0-.524-.035.5.5 0 0 0-.312.461c0 .235.227.49.534.49A.62.62 0 0 0-3.371.82m-.668.516V1.22h-.35V-.066h-.467V1.22h-.351v.116z"
     transform="matrix(1.333 0 0 -1.333 117.546 288.245)"
     id="path5"
     style="fill:#dd2020;fill-opacity:1" />
  <path
     fill="#ed232a"
     d="M0 0v.371h.33C.412.371.454.33.454.248V0H.371v.248C.371.275.357.289.33.289H.268V0H.186v.289H.083V0Zm-.042 0H-.33c-.082 0-.123.041-.123.124v.247h.412V.289h-.33V.227h.33V.145h-.33V.124c0-.027.014-.041.041-.041h.29zm-.865.371h.412V.29H-.66V0h-.083v.29h-.165zm-.454-.288h.33v.062h-.206c-.083 0-.124.037-.124.111 0 .077.041.115.124.115h.288V.289h-.329V.227h.206c.082 0 .123-.038.123-.114C-.949.038-.989 0-1.072 0h-.289zm-.289.062h-.042c-.082 0-.123.04-.123.124v.103h.082V.269c0-.027.014-.042.041-.042h.166c.027 0 .041.015.041.042v.103h.082V.269c0-.083-.04-.124-.123-.124h-.04V0h-.084zm-.618-.062h.33v.062h-.206c-.083 0-.124.037-.124.111 0 .077.04.115.124.115h.288V.289h-.33V.227h.207c.082 0 .123-.038.123-.114C-1.856.038-1.897 0-1.98 0h-.29zm-.618.288h.412V.29h-.164V0h-.083v.29h-.165zM-3.34 0v.371h.29c.081 0 .122-.041.122-.123V0h-.082v.248c0 .027-.014.041-.04.041h-.207V0Zm-.041 0h-.29c-.081 0-.122.041-.122.124v.247h.412V.289h-.33V.227h.33V.145h-.33V.124c0-.027.014-.041.04-.041h.29zm-.907 0v.371h.33c.082 0 .124-.041.124-.123V0h-.083v.248c0 .027-.014.041-.041.041h-.062V0h-.082v.289h-.103V0Zm-.454 0v.371h.29c.081 0 .122-.041.122-.123V0h-.082v.248c0 .027-.014.041-.04.041h-.207V0Zm-.124.371h.083v-.37h-.083zM-4.99.186v.062c0 .028-.014.042-.042.042h-.165c-.027 0-.041-.014-.041-.042V.186zm-.248-.082V0h-.082v.248c0 .083.04.124.123.124h.165c.083 0 .124-.041.124-.124V0h-.082v.104Zm-.536.267h.412V.29h-.164V0h-.083v.29h-.165zm-.371-.145h.248v.062h-.248zm0-.082V0h-.082v.371h.289c.082 0 .123-.037.123-.112 0-.037-.006-.063-.017-.079a.157.157 0 0 0 .017-.077V0h-.082v.103c0 .028-.014.041-.041.041zM-6.268 0h-.289c-.082 0-.123.041-.123.124v.247h.412V.289h-.33V.227h.33V.145h-.33V.124c0-.027.014-.041.041-.041h.29zm-.865.371h.412V.29h-.164V0h-.083v.29h-.165zM-7.587 0v.371h.289c.082 0 .123-.041.123-.123V0h-.082v.248c0 .027-.014.041-.041.041h-.206V0Zm-.042 0h-.289C-8 0-8.04.041-8.04.124v.247h.412V.289h-.33V.227h.33V.145h-.33V.124c0-.027.014-.041.041-.041h.29zm7.013 1.43c.132 0 .27.09.27.305v.574c0 .215-.138.303-.27.303s-.269-.088-.27-.303l-.002-.574c0-.215.14-.305.272-.305m.97.59c0-.42-.432-.758-.966-.758s-.966.339-.966.759.432.759.966.759.966-.34.966-.76m-1.679 1.348V3.2h-.507V1.335h-.678V3.2h-.509v.17zm-2.407-1.854c.105 0 .26.055.26.264v.482c0 .209-.155.262-.26.262-.104 0-.257-.053-.258-.262l-.002-.482c0-.21.156-.264.26-.264m.185 1.229c.444 0 .775-.37.775-.71 0-.471-.394-.643-.453-.67a.815.815 0 0 0-.326-.066.87.87 0 0 0-.435.117V.66h-.655v2.034h.655v-.076c.12.063.25.124.439.124m-1.958-.483c-.001.209-.154.262-.258.262-.105 0-.26-.053-.26-.262v-.482c0-.21.155-.264.26-.264.104 0 .26.055.26.264zm-.004.359v.076h.655v-1.36h-.655v.079a.87.87 0 0 0-.434-.117.817.817 0 0 0-.327.067c-.06.026-.453.198-.453.669 0 .34.33.71.775.71a.883.883 0 0 0 .439-.124m-.972.75v-.17h-.507V1.335h-.678V3.2h-.509v.17z"
     transform="matrix(1.333 0 0 -1.333 33.47 289.38)"
     id="path6"
     style="fill:#dd2020;fill-opacity:1" />
  <path
     fill="#e5e5e5"
     fill-rule="evenodd"
     d="M95.137 30.971h1.434V5.243h-1.434z"
     transform="matrix(1.333 0 0 -1.333 0 318.048)"
     id="path7"
     style="stroke:none;stroke-width:0;stroke-dasharray:none" />
  <path
     id="path8"
     d="M 64.002063 27.200939 C 63.786063 27.200939 63.610129 27.025943 63.610129 26.809943 L 63.610129 15.86487 C 63.610679 15.648603 63.785795 15.473487 64.002063 15.472937 L 92.428028 15.472937 L 92.428966 15.471999 C 92.64468 15.4731 92.819027 15.648216 92.819024 15.863933 L 92.819024 26.810881 C 92.819025 27.026663 92.643809 27.201492 92.428028 27.200939 L 64.002063 27.200939 z M 9.8617858 27.141868 C 9.376296 27.141591 8.975616 26.762539 8.9480556 26.277832 L 8.4848614 18.059886 L 8.4848614 16.019112 C 8.4848614 15.965112 8.4948659 15.91112 8.5148658 15.86112 L 11.315128 8.690986 C 11.380298 8.5245813 11.540072 8.4147233 11.718782 8.4139134 L 57.655177 8.4139134 C 57.835177 8.4139134 57.994768 8.5239862 58.059768 8.690986 L 60.860031 15.86112 C 60.880031 15.91112 60.890035 15.965112 60.890035 16.019112 L 60.890035 18.059886 L 60.426841 26.277832 C 60.399281 26.762539 59.9986 27.141591 59.513111 27.141868 L 9.8617858 27.141868 z M 92.428966 26.951058 C 92.506446 26.950508 92.569145 26.887423 92.569143 26.809943 L 92.569143 15.863933 C 92.569143 15.785933 92.505028 15.72188 92.428028 15.72188 L 64.002063 15.72188 C 63.924063 15.72188 63.86001 15.785933 63.86001 15.863933 L 63.86001 26.809943 C 63.861104 26.887583 63.924413 26.950128 64.002063 26.95012 L 70.839803 26.95012 L 70.839803 26.528182 L 72.459107 26.528182 L 72.459107 26.950589 L 92.428966 26.951058 z M 72.333932 26.950589 L 72.333932 26.652888 L 70.964978 26.652888 L 70.964978 26.95012 L 72.333932 26.950589 z M 45.125961 26.591004 L 45.345838 26.591004 L 45.345838 24.573203 C 45.346388 24.358523 45.520398 24.184598 45.734958 24.184082 L 45.735896 24.184082 L 53.46205 24.184082 C 53.677441 24.184082 53.852109 24.35875 53.852109 24.57414 L 53.852109 26.590067 L 54.07011 26.590067 L 54.07011 17.171003 L 53.851171 17.171003 L 53.851171 19.531043 C 53.850071 19.745263 53.676272 19.91868 53.46205 19.919226 L 45.734958 19.919226 C 45.520347 19.918676 45.346388 19.744716 45.345838 19.530106 L 45.345838 17.171003 L 45.125961 17.171003 L 45.125961 26.591004 z M 59.512173 26.591004 C 59.705828 26.591242 59.865437 26.43937 59.87504 26.245953 L 60.332139 18.151775 L 54.304051 18.151775 L 54.304051 26.590067 L 59.512173 26.591004 z M 9.8617858 26.590067 L 14.852844 26.590067 L 14.852844 20.041119 C 14.852844 19.976119 14.906049 19.923914 14.970049 19.923914 L 44.89202 19.923914 L 44.89202 18.151775 L 9.043226 18.151775 L 9.4989191 26.245953 C 9.5099191 26.438953 9.668786 26.590067 9.8617858 26.590067 z M 15.086785 26.590067 L 44.89202 26.590067 L 44.89202 20.157856 L 32.99618 20.157856 L 32.99618 20.397891 C 32.99618 20.535962 32.883901 20.647773 32.74583 20.647773 L 27.232975 20.647773 C 27.094904 20.647773 26.983094 20.535962 26.983094 20.397891 L 26.983094 20.157856 L 15.086785 20.157856 L 15.086785 26.590067 z M 45.546024 26.590067 L 53.650047 26.590067 L 53.650047 24.573203 C 53.650047 24.469373 53.56588 24.385206 53.46205 24.385206 L 45.734958 24.385206 C 45.630965 24.385205 45.546574 24.469213 45.546024 24.573203 L 45.546024 26.590067 z M 64.767177 25.267994 L 64.742798 25.267056 C 64.699798 25.262056 64.676131 25.236858 64.670131 25.194858 L 64.670131 16.42511 C 64.674131 16.38011 64.696985 16.356787 64.739985 16.354787 L 64.790149 16.35385 L 91.668071 16.35385 L 91.669009 16.35385 L 91.699951 16.35385 C 91.743951 16.35585 91.766805 16.379173 91.769805 16.424173 L 91.771212 16.473868 L 91.771212 25.179856 C 91.771212 25.187856 91.770867 25.19711 91.768867 25.20611 C 91.763867 25.24411 91.743108 25.263119 91.705108 25.266119 C 91.679108 25.268119 91.653064 25.267994 91.623064 25.267994 L 64.767177 25.267994 z M 73.18906 25.140944 L 81.096179 25.140944 C 81.108179 25.140944 81.118872 25.142006 81.130872 25.140006 L 81.130872 24.299881 C 81.132492 24.271691 81.128651 24.24348 81.119151 24.2169 C 81.104391 24.17954 81.069248 24.154502 81.029138 24.152202 C 81.020498 24.151202 81.011484 24.151202 81.002884 24.152202 L 73.294076 24.152202 C 73.244076 24.159202 73.213968 24.182057 73.197968 24.222057 C 73.190968 24.242057 73.188123 24.264973 73.188123 24.290973 L 73.188123 25.115159 L 73.18906 25.139069 L 73.18906 25.140944 z M 64.799994 25.140006 L 73.018878 25.140006 C 73.031878 25.140006 73.043978 25.141069 73.054978 25.139069 L 73.055915 25.131099 L 73.055915 24.292848 C 73.055285 24.255228 73.060625 24.218117 73.071855 24.182207 C 73.098201 24.089187 73.182414 24.02397 73.279074 24.02187 L 73.304859 24.020933 L 81.001946 24.020933 C 81.032936 24.019793 81.063815 24.022978 81.093835 24.030778 C 81.165265 24.049801 81.221937 24.104585 81.243857 24.175175 C 81.255957 24.215035 81.262024 24.256365 81.261204 24.298005 C 81.260204 24.542004 81.260204 24.785835 81.261204 25.029833 L 81.261204 25.138131 C 81.263204 25.140131 81.26483 25.140006 81.26683 25.140006 L 91.609 25.140006 C 91.61961 25.141506 91.63027 25.141506 91.64088 25.140006 L 91.641817 25.130161 L 91.641817 16.518874 C 91.642316 16.507884 91.642316 16.497047 91.641817 16.486057 L 91.633847 16.485119 C 91.622197 16.484119 91.610805 16.484119 91.599155 16.485119 L 81.263079 16.485119 L 81.262141 16.484182 C 81.260141 16.498182 81.259797 16.507937 81.259797 16.517937 L 81.259797 16.982069 C 81.260297 17.008909 81.258334 17.035418 81.253234 17.061768 C 81.234537 17.158408 81.153083 17.230844 81.054923 17.238044 C 81.026923 17.242044 80.998066 17.243077 80.970066 17.245077 L 73.430971 17.245077 C 73.385971 17.245077 73.333136 17.24392 73.278136 17.23992 C 73.151136 17.22892 73.071915 17.151793 73.055915 17.023794 L 73.055915 16.507154 C 73.056412 16.500164 73.056412 16.493057 73.055915 16.486057 C 73.042625 16.484457 73.029356 16.484457 73.016066 16.486057 L 64.799057 16.486057 L 64.799057 25.089842 L 64.799994 25.140006 z M 45.734958 23.951079 C 45.519567 23.951079 45.3449 23.776411 45.3449 23.56102 L 45.3449 20.541819 C 45.346 20.327209 45.520346 20.154102 45.734958 20.154105 L 53.46205 20.154105 C 53.677051 20.154104 53.851558 20.328226 53.852109 20.543226 L 53.852109 23.561958 C 53.851558 23.776958 53.677051 23.95108 53.46205 23.951079 L 45.734958 23.951079 z M 45.734958 23.749955 L 53.46205 23.749955 C 53.56588 23.749955 53.650047 23.665788 53.650047 23.561958 L 53.650047 20.541819 C 53.6495 20.438217 53.56565 20.354369 53.46205 20.353822 L 45.734958 20.353822 C 45.630803 20.354369 45.546571 20.439076 45.546024 20.543226 L 45.546961 23.561958 C 45.546961 23.665958 45.630958 23.749955 45.734958 23.749955 z M 67.625104 22.961868 C 67.593684 22.962568 67.562031 22.96128 67.530871 22.95718 C 67.430871 22.94418 67.375879 22.884185 67.372879 22.784185 L 67.372879 21.456956 C 67.360879 21.454956 67.350999 21.455081 67.340999 21.455081 L 66.115034 21.455081 C 66.098364 21.455781 66.081501 21.455443 66.064871 21.454143 C 66.034361 21.453703 66.004057 21.448878 65.974857 21.440078 C 65.932147 21.425188 65.898311 21.392265 65.882031 21.350065 C 65.868031 21.320065 65.867966 21.291146 65.867966 21.266146 L 65.867966 19.252095 C 65.867766 19.234015 65.869286 19.216031 65.872186 19.198181 C 65.88064 19.133261 65.92679 19.079743 65.98986 19.062223 C 66.015859 19.054223 66.041808 19.053784 66.065808 19.053784 L 67.331154 19.053784 C 67.345144 19.053084 67.359009 19.054109 67.372879 19.051909 L 67.373816 19.020967 L 67.373816 17.773906 C 67.373816 17.751906 67.374098 17.726176 67.377098 17.702176 C 67.38529 17.617556 67.456175 17.552783 67.541185 17.552154 L 67.566033 17.552154 L 69.606806 17.552154 C 69.683736 17.550503 69.751293 17.603904 69.767143 17.679204 C 69.774843 17.712654 69.778285 17.746628 69.777925 17.780938 C 69.777925 18.204856 69.776863 18.629221 69.778863 19.052847 C 69.788023 19.055025 69.797592 19.056044 69.806992 19.055191 L 71.120157 19.055191 C 71.195967 19.058827 71.2593 19.113387 71.27393 19.187867 C 71.28043 19.214037 71.283674 19.241065 71.283775 19.268035 L 71.283775 21.276929 C 71.279775 21.376929 71.222845 21.438861 71.124845 21.450861 C 71.093846 21.455861 71.062019 21.456018 71.032019 21.456018 L 69.776988 21.456018 C 69.775988 21.464658 69.775988 21.473203 69.776988 21.481803 L 69.776988 22.748086 C 69.776988 22.763086 69.778988 22.778155 69.776988 22.792155 C 69.763988 22.893155 69.706088 22.951118 69.610088 22.958118 C 69.583088 22.960118 69.556044 22.961868 69.528044 22.961868 L 67.625104 22.961868 z M 67.576815 22.831067 L 69.535077 22.831067 C 69.554077 22.831067 69.571991 22.831192 69.588991 22.829192 C 69.630991 22.826192 69.647 22.806901 69.649 22.765901 L 69.649938 22.731209 L 69.649938 21.428827 C 69.648738 21.413827 69.649075 21.39875 69.650875 21.38382 C 69.654875 21.34982 69.678228 21.329155 69.713228 21.326155 L 69.754953 21.325217 L 71.039989 21.325217 C 71.057989 21.325217 71.078123 21.324873 71.098123 21.322873 C 71.140123 21.317873 71.153788 21.303051 71.155788 21.260051 L 71.155788 19.278818 C 71.157188 19.258558 71.155324 19.238189 71.149224 19.218809 C 71.140224 19.196809 71.125811 19.186116 71.102811 19.184116 L 71.068118 19.183179 L 69.76808 19.183179 C 69.75108 19.183179 69.733917 19.182835 69.717917 19.180835 C 69.675917 19.175835 69.654 19.153043 69.649 19.110043 L 69.649 17.787033 C 69.6496 17.768983 69.648787 17.750998 69.646187 17.733118 C 69.640187 17.695118 69.625178 17.683017 69.586178 17.682017 L 67.560875 17.682017 C 67.523876 17.685017 67.509024 17.699869 67.506024 17.736869 C 67.504024 17.750869 67.504148 17.765 67.504148 17.78 L 67.504148 19.111918 C 67.501148 19.156918 67.480232 19.177835 67.435232 19.180835 C 67.419232 19.182835 67.402068 19.183179 67.385068 19.183179 L 66.050806 19.183179 C 66.024676 19.183099 66.003211 19.203083 66.001111 19.229123 C 65.998111 19.244123 65.997829 19.25813 65.997829 19.27413 L 65.997829 21.225828 L 65.998767 21.275991 C 66.000767 21.297991 66.010991 21.311185 66.032991 21.318185 C 66.043861 21.320685 66.054698 21.322001 66.065808 21.322873 C 66.083808 21.324873 66.101785 21.325217 66.118785 21.325217 L 67.443202 21.325217 C 67.475302 21.327607 67.500811 21.353126 67.503211 21.385226 C 67.505211 21.400226 67.505086 21.415233 67.505086 21.430233 L 67.505086 22.737772 C 67.504132 22.751092 67.504132 22.764771 67.505086 22.778091 C 67.507086 22.807091 67.518811 22.820848 67.546811 22.826848 C 67.556811 22.830848 67.566815 22.831067 67.576815 22.831067 z M 67.867953 22.707768 C 67.838233 22.708368 67.808417 22.707317 67.778877 22.704017 C 67.695877 22.693017 67.642792 22.643184 67.629792 22.566184 C 67.625792 22.544184 67.626041 22.523175 67.626041 22.506175 L 67.626041 21.245987 L 67.624166 21.202855 L 67.581035 21.201918 L 67.178787 21.201918 L 66.376167 21.20098 C 66.341167 21.20098 66.30387 21.20123 66.26787 21.19723 C 66.19147 21.190981 66.130467 21.131377 66.122067 21.055177 C 66.119067 21.038177 66.118785 21.021013 66.118785 21.005013 L 66.118785 20.937034 L 66.120191 20.874213 L 66.120191 19.533856 C 66.120191 19.504416 66.121817 19.475347 66.125817 19.446187 C 66.134087 19.393447 66.168218 19.348359 66.216768 19.326169 C 66.248038 19.311669 66.282646 19.30461 66.317096 19.30601 L 67.625104 19.30601 L 67.626041 19.25819 L 67.626041 18.028006 C 67.626141 18.000296 67.627192 17.972615 67.629792 17.945025 C 67.636792 17.886025 67.67012 17.842975 67.73012 17.817975 C 67.75683 17.807375 67.785318 17.802282 67.814038 17.802972 L 67.814038 17.80391 L 69.368177 17.80391 C 69.439807 17.809231 69.499247 17.86086 69.514917 17.93096 C 69.521717 17.95878 69.525367 17.987187 69.525231 18.015817 L 69.526169 18.891104 L 69.526169 19.306947 L 70.861837 19.306947 C 70.938247 19.306841 71.004934 19.359557 71.022174 19.433997 C 71.030174 19.461997 71.031019 19.491792 71.032019 19.519791 L 71.032019 21.032205 C 71.034255 21.122455 70.962421 21.197067 70.872151 21.198167 C 70.843152 21.201167 70.811106 21.20098 70.775106 21.20098 C 70.441106 21.20298 70.108112 21.202855 69.775113 21.202855 L 69.561799 21.202855 C 69.551829 21.201855 69.541795 21.201855 69.531795 21.202855 L 69.525231 21.202855 L 69.525231 22.488829 L 69.526169 22.502893 C 69.526169 22.517893 69.525825 22.5329 69.523825 22.5479 C 69.507825 22.6619 69.425863 22.704955 69.357863 22.704955 L 69.327858 22.707768 L 67.867953 22.707768 z M 67.864202 22.578842 L 69.289884 22.578842 C 69.308584 22.578742 69.327542 22.577929 69.346142 22.576029 C 69.375142 22.573029 69.392837 22.553053 69.395837 22.523053 C 69.396837 22.511403 69.396837 22.499541 69.395837 22.487891 L 69.395837 21.178008 L 69.396775 21.142846 C 69.398775 21.099847 69.422223 21.076992 69.465223 21.072992 L 69.505072 21.072055 L 70.791983 21.072055 C 70.811983 21.072055 70.833868 21.071773 70.853868 21.068773 C 70.891867 21.063773 70.904156 21.037796 70.902156 21.015796 C 70.901233 21.008826 70.901233 21.002168 70.902156 20.995168 L 70.902156 19.491193 C 70.899156 19.474193 70.890085 19.433873 70.843085 19.435873 L 69.511167 19.435873 L 69.468035 19.434935 C 69.426035 19.429935 69.399837 19.401924 69.395837 19.359924 L 69.395837 18.023787 C 69.396836 18.012807 69.396836 18.001949 69.395837 17.990969 C 69.389837 17.949969 69.372015 17.932836 69.333015 17.932836 L 67.808881 17.932836 C 67.780881 17.933836 67.768062 17.94481 67.761062 17.97081 C 67.758062 17.98181 67.756967 17.995034 67.754967 18.005034 L 67.754967 19.366019 C 67.750967 19.409018 67.72905 19.429873 67.68605 19.435873 L 67.653233 19.435873 L 67.653233 19.43681 L 66.303969 19.43681 C 66.273969 19.43881 66.261805 19.450004 66.253805 19.479004 C 66.251805 19.489004 66.250055 19.499009 66.250055 19.509009 C 66.249055 19.515299 66.249055 19.52193 66.250055 19.52823 L 66.250055 20.990949 C 66.249055 21.000589 66.249055 21.010416 66.250055 21.020016 C 66.253055 21.051016 66.265999 21.064773 66.295999 21.068773 C 66.319999 21.072773 66.343791 21.072992 66.366791 21.072992 L 67.689801 21.072992 C 67.726801 21.076992 67.751029 21.099814 67.754029 21.135814 C 67.756029 21.151814 67.755905 21.168103 67.755905 21.184103 L 67.755905 22.522115 C 67.758905 22.558115 67.772006 22.571029 67.807006 22.576029 C 67.825926 22.57819 67.845162 22.579005 67.864202 22.578842 z M 68.585716 22.413349 C 68.56922 22.414099 68.552056 22.408868 68.535552 22.39694 C 68.525575 22.390188 68.515525 22.380776 68.505548 22.369749 C 68.321642 22.179764 68.135007 21.992352 67.949527 21.803883 C 67.937974 21.79143 67.927925 21.777405 67.919523 21.762627 C 67.90902 21.746873 67.906886 21.727054 67.914366 21.70965 C 67.922168 21.692096 67.938049 21.679833 67.957028 21.676833 C 67.972032 21.673082 67.988007 21.673082 68.002035 21.673082 L 68.14315 21.673082 L 68.175499 21.672144 L 68.175499 21.576036 C 68.175499 21.507994 68.177749 21.441154 68.175499 21.371162 C 68.175499 21.332152 68.177147 21.304242 68.195189 21.287243 C 68.195189 21.287243 68.19984 21.265959 68.273951 21.267084 C 68.390261 21.267301 68.901701 21.267084 68.901701 21.267084 C 68.958715 21.267084 68.981494 21.288839 68.983744 21.345846 C 68.985995 21.44316 68.984682 21.540576 68.984682 21.63792 L 68.985151 21.673082 L 69.157208 21.673082 C 69.170186 21.673082 69.183029 21.673175 69.197057 21.676364 C 69.217162 21.679364 69.234843 21.691739 69.243471 21.710119 C 69.251573 21.728348 69.250073 21.749423 69.23972 21.766377 C 69.232668 21.77823 69.223669 21.788955 69.213466 21.798257 L 68.710422 22.31349 C 68.684413 22.340497 68.659604 22.365403 68.632598 22.390377 C 68.618082 22.40478 68.602205 22.412299 68.585716 22.413349 z M 68.579153 22.272703 L 68.586185 22.267546 C 68.67266 22.177411 68.854415 21.992278 69.015155 21.831543 L 69.02922 21.816541 L 68.941082 21.816541 C 68.882087 21.81279 68.853881 21.784509 68.853881 21.726527 L 68.853881 21.501494 C 68.853731 21.470811 68.853206 21.44028 68.852006 21.409605 C 68.844879 21.408105 68.837248 21.407167 68.829971 21.408667 C 68.660103 21.40854 68.490233 21.408356 68.320364 21.408199 C 68.315263 21.408199 68.310238 21.409042 68.305362 21.410543 C 68.305401 21.516927 68.305362 21.62353 68.305362 21.729809 C 68.303336 21.789824 68.278228 21.816541 68.218161 21.816541 L 68.129085 21.816541 C 68.274697 21.968244 68.423662 22.116863 68.571183 22.266608 L 68.579153 22.272703 z M 70.004366 20.92672 C 69.99527 20.927649 69.985876 20.926214 69.977174 20.922501 C 69.95962 20.914699 69.947357 20.898818 69.944357 20.879838 C 69.940606 20.864835 69.940606 20.84886 69.940606 20.834832 L 69.940606 20.693717 L 69.940137 20.661368 L 69.844029 20.661368 C 69.775987 20.661368 69.709147 20.659118 69.639155 20.661368 C 69.600145 20.661368 69.572235 20.659907 69.555236 20.641678 C 69.555236 20.641678 69.533951 20.637177 69.535077 20.562916 C 69.535294 20.446607 69.535077 19.935166 69.535077 19.935166 C 69.535077 19.878152 69.556832 19.855373 69.613838 19.853123 C 69.711153 19.850872 69.808569 19.852185 69.905913 19.852185 L 69.941075 19.851716 L 69.941075 19.679659 C 69.941075 19.666681 69.9407 19.653838 69.943888 19.639809 C 69.946889 19.619704 69.959732 19.602023 69.978112 19.593396 C 69.996341 19.585294 70.016947 19.586644 70.033901 19.597147 C 70.045754 19.603898 70.056479 19.613198 70.065781 19.623401 L 70.581014 20.126445 C 70.608021 20.152476 70.632927 20.177232 70.657901 20.204269 C 70.672304 20.218822 70.680291 20.234647 70.681342 20.251151 L 70.680873 20.251151 C 70.681623 20.267655 70.676392 20.28481 70.664464 20.301314 C 70.657713 20.311292 70.6483 20.321341 70.637273 20.331319 C 70.447288 20.515227 70.259876 20.701863 70.071407 20.88734 C 70.058954 20.898892 70.044929 20.908942 70.030151 20.917344 C 70.022274 20.922595 70.013462 20.925792 70.004366 20.92672 z M 67.102838 20.914531 C 67.093283 20.913893 67.083655 20.910875 67.075178 20.905624 C 67.063325 20.898872 67.0526 20.889572 67.043298 20.87937 L 66.528065 20.376326 C 66.501058 20.350294 66.476152 20.325538 66.451178 20.298502 C 66.436775 20.283948 66.428788 20.268124 66.427737 20.25162 L 66.428206 20.252088 C 66.427456 20.235584 66.432687 20.218429 66.444615 20.201925 C 66.451367 20.191947 66.460779 20.181898 66.471807 20.17192 C 66.661791 19.988012 66.849203 19.801383 67.037672 19.6159 C 67.050125 19.604347 67.06415 19.594297 67.078928 19.585895 C 67.094682 19.575392 67.114501 19.572842 67.131905 19.580269 C 67.14946 19.588071 67.161722 19.603952 67.164723 19.622932 C 67.168473 19.637936 67.168473 19.65391 67.168473 19.667939 L 67.168473 19.809053 L 67.169411 19.841402 L 67.265519 19.841402 C 67.333561 19.841402 67.400401 19.843653 67.470393 19.841402 C 67.509403 19.841402 67.537313 19.842863 67.554312 19.861092 C 67.554312 19.861092 67.575597 19.865593 67.574471 19.939854 C 67.574254 20.056163 67.574471 20.567604 67.574471 20.567604 C 67.574471 20.624618 67.552716 20.647397 67.49571 20.649648 C 67.398395 20.651898 67.300979 20.650585 67.203635 20.650585 L 67.168473 20.651054 L 67.168473 20.823111 C 67.168473 20.836089 67.16838 20.848932 67.165191 20.862961 C 67.162191 20.883066 67.149347 20.900747 67.130968 20.909374 C 67.121853 20.913425 67.112394 20.915169 67.102838 20.914531 z M 70.084065 20.707781 C 70.235768 20.56217 70.384387 20.413208 70.534132 20.265684 L 70.540227 20.257714 L 70.53507 20.251151 C 70.444935 20.164677 70.259802 19.982915 70.099067 19.82218 L 70.084065 19.808116 L 70.084065 19.896254 C 70.080314 19.955219 70.052033 19.982986 69.994052 19.982986 L 69.769018 19.982986 C 69.738335 19.983136 69.707804 19.984036 69.677129 19.984861 C 69.675629 19.992363 69.67516 19.999619 69.67666 20.006896 C 69.676533 20.176768 69.676349 20.346638 69.676192 20.516503 C 69.676192 20.521754 69.676566 20.526629 69.678067 20.531505 C 69.784451 20.531468 69.891054 20.531505 69.997333 20.531505 C 70.057348 20.533756 70.084065 20.558661 70.084065 20.618706 L 70.084065 20.707781 z M 67.025014 20.695123 L 67.025014 20.606985 C 67.028765 20.54802 67.057046 20.519785 67.115028 20.519785 L 67.340061 20.519785 C 67.370744 20.519635 67.401275 20.519203 67.43195 20.518378 C 67.43345 20.510876 67.434388 20.503152 67.432888 20.495875 C 67.433015 20.326003 67.433199 20.15614 67.433356 19.986267 C 67.433356 19.981016 67.432513 19.976141 67.431012 19.971265 C 67.324628 19.97131 67.218025 19.971265 67.111746 19.971265 C 67.051731 19.969015 67.025014 19.94411 67.025014 19.884065 L 67.025014 19.794989 C 66.873311 19.9406 66.724692 20.089569 66.574947 20.237086 L 66.568852 20.245056 L 66.574009 20.252088 C 66.664144 20.338562 66.849277 20.520316 67.010012 20.681059 L 67.025014 20.695123 z M 27.232975 20.513221 L 32.74583 20.513221 C 32.80989 20.513221 32.862097 20.461014 32.862097 20.396954 L 32.862097 20.157856 L 27.117176 20.157856 L 27.117176 20.397891 C 27.117176 20.460891 27.168975 20.513221 27.232975 20.513221 z M 45.735896 19.71904 L 53.46205 19.71904 C 53.566041 19.71849 53.650048 19.634095 53.650047 19.530106 L 53.650047 17.171003 L 45.546024 17.171003 L 45.546024 19.531043 C 45.547124 19.635195 45.631736 19.719046 45.735896 19.71904 z M 68.253323 19.304134 C 68.196309 19.304134 68.17353 19.282379 68.171279 19.225372 C 68.169029 19.128058 68.170342 19.030642 68.170342 18.933298 L 68.169873 18.898136 L 67.997816 18.898136 C 67.984838 18.898136 67.971995 18.898511 67.957966 18.895323 C 67.937861 18.892322 67.92018 18.879479 67.911553 18.861099 C 67.903451 18.84287 67.904801 18.822264 67.915303 18.80531 C 67.922055 18.793457 67.931355 18.782732 67.941557 18.77343 L 68.444601 18.258197 C 68.470633 18.23119 68.495389 18.206284 68.522425 18.18131 C 68.536774 18.167036 68.552962 18.159033 68.569307 18.157869 C 68.585674 18.157234 68.602648 18.162458 68.619002 18.174278 C 68.62898 18.18103 68.639029 18.190442 68.649007 18.20147 C 68.832915 18.391454 69.019551 18.578866 69.205027 18.767335 C 69.21658 18.779788 69.22663 18.793813 69.235032 18.808591 C 69.245535 18.824345 69.248085 18.844164 69.240658 18.861568 C 69.232856 18.879123 69.216975 18.891385 69.197995 18.894386 C 69.182991 18.898136 69.167017 18.898136 69.152988 18.898136 L 69.011874 18.898136 L 68.979525 18.899074 L 68.979525 18.995182 C 68.979525 19.063224 68.977274 19.130064 68.979525 19.200056 C 68.979525 19.239066 68.978064 19.266976 68.959835 19.283975 C 68.959835 19.283975 68.955334 19.30526 68.881073 19.304134 C 68.764764 19.303917 68.253323 19.304134 68.253323 19.304134 z M 68.83466 19.163019 C 68.839911 19.163019 68.844786 19.162176 68.849662 19.160675 C 68.849624 19.054291 68.849662 18.947688 68.849662 18.841409 C 68.851912 18.781394 68.876817 18.754677 68.936862 18.754677 L 69.025938 18.754677 C 68.880327 18.602974 68.731365 18.454355 68.583841 18.30461 L 68.575871 18.298515 L 68.568839 18.303672 C 68.482365 18.393807 68.300603 18.57894 68.139868 18.739675 L 68.125804 18.754677 L 68.213942 18.754677 C 68.272907 18.758428 68.301142 18.786709 68.301142 18.844691 L 68.301142 19.069724 C 68.301292 19.100407 68.301724 19.130938 68.302549 19.161613 C 68.310051 19.163113 68.317775 19.164051 68.325052 19.162551 C 68.494924 19.162678 68.664795 19.162862 68.83466 19.163019 z M 9.0361937 17.917833 L 13.619847 17.917833 L 13.619847 11.194016 L 28.250783 11.194016 L 28.250783 17.917833 L 44.89202 17.917833 L 44.89202 8.9647769 L 11.799888 8.9647769 L 9.0361937 16.040209 L 9.0361937 17.917833 z M 13.75393 17.917833 L 28.118107 17.917833 L 28.118107 11.328099 L 13.75393 11.328099 L 13.75393 17.917833 z M 54.304051 17.917833 L 60.339171 17.917833 L 60.339171 16.040209 L 57.575008 8.9647769 L 54.304989 8.9647769 L 54.304051 17.917833 z M 73.398154 17.115213 L 80.924122 17.115213 C 80.956122 17.115213 80.991013 17.113119 81.031013 17.109119 C 81.085253 17.104499 81.127228 17.059471 81.128059 17.005041 L 81.128059 16.518874 C 81.128559 16.508884 81.128559 16.49887 81.128059 16.48887 C 80.660059 16.48087 73.53878 16.477057 73.200781 16.486057 L 73.187185 16.486057 L 73.184841 16.495902 L 73.184841 16.992851 C 73.184841 17.046851 73.208164 17.082087 73.255164 17.102086 C 73.264654 17.106386 73.274798 17.109071 73.285168 17.110056 L 73.292201 17.110056 C 73.327201 17.112056 73.363154 17.115213 73.398154 17.115213 z M 45.125961 16.970817 L 54.07011 16.970817 L 54.07011 11.111035 L 45.125961 11.111035 L 45.125961 16.970817 z M 46.251129 16.802979 C 45.888278 16.802979 45.593843 16.509013 45.593843 16.146162 L 45.593843 11.932877 C 45.593843 11.570877 45.889129 11.27606 46.251129 11.27606 L 48.777131 11.27606 C 49.140131 11.27606 49.433948 11.570877 49.433948 11.932877 L 49.433948 16.146162 C 49.433948 16.509013 49.139982 16.802979 48.777131 16.802979 L 46.251129 16.802979 z M 50.419877 16.802979 C 50.056864 16.802979 49.762674 16.509175 49.762122 16.146162 L 49.762122 11.932877 C 49.762122 11.570877 50.056877 11.27606 50.419877 11.27606 L 52.944942 11.27606 C 53.307941 11.27606 53.602227 11.570877 53.602227 11.932877 L 53.602227 16.146162 C 53.602227 16.509013 53.307792 16.802979 52.944942 16.802979 L 50.419877 16.802979 z M 46.252067 16.536221 L 48.777131 16.536221 C 48.992522 16.536221 49.16719 16.361553 49.16719 16.146162 L 49.16719 11.932877 C 49.16719 11.717486 48.992522 11.542818 48.777131 11.542818 L 46.251129 11.542818 C 46.036129 11.543369 45.862007 11.717876 45.862008 11.932877 L 45.862008 16.146162 C 45.862008 16.361162 46.037067 16.536221 46.252067 16.536221 z M 50.419877 16.536221 L 52.944942 16.536221 C 53.160332 16.536221 53.335 16.361553 53.335 16.146162 L 53.335 11.932877 C 53.335 11.717486 53.160332 11.542818 52.944942 11.542818 L 50.419877 11.542818 C 50.204486 11.542818 50.029819 11.717486 50.029819 11.932877 L 50.029819 16.146162 C 50.029819 16.361162 50.204877 16.536221 50.419877 16.536221 z M 46.949202 16.079121 C 46.601653 16.078569 46.320046 15.796576 46.320046 15.449027 L 46.320046 12.63095 C 46.320046 12.283401 46.601653 12.001408 46.949202 12.000856 L 48.079996 12.000856 C 48.427935 12.000856 48.71009 12.283011 48.71009 12.63095 L 48.71009 14.699853 C 48.709315 14.868605 48.640998 15.030186 48.520218 15.148045 L 47.73682 15.902845 C 47.620479 16.016238 47.464682 16.079712 47.302224 16.079121 L 46.949202 16.079121 z M 51.116075 16.079121 C 50.768526 16.078569 50.486918 15.796576 50.486918 15.449027 L 50.486918 12.63095 C 50.486918 12.283011 50.769074 12.000856 51.117012 12.000856 L 52.246869 12.000856 C 52.594807 12.000856 52.876963 12.283011 52.876963 12.63095 L 52.876963 14.699853 C 52.876188 14.868605 52.807871 15.030186 52.687091 15.148045 L 51.904161 15.902845 C 51.78782 16.016238 51.631555 16.079712 51.469096 16.079121 L 51.116075 16.079121 z M 46.949202 15.878935 L 47.302224 15.878935 C 47.41274 15.878942 47.518737 15.835877 47.598049 15.758917 L 48.380041 15.003179 C 48.462301 14.923819 48.508776 14.814154 48.508966 14.699853 L 48.508966 12.63095 C 48.508967 12.393858 48.317088 12.201593 48.079996 12.201042 L 46.949202 12.201042 C 46.71211 12.201593 46.520231 12.393858 46.520232 12.63095 L 46.520232 15.449965 C 46.520782 15.686666 46.7125 15.878385 46.949202 15.878935 z M 51.117012 15.878935 L 51.469096 15.878935 C 51.579612 15.878942 51.68561 15.835877 51.764922 15.758917 L 52.546913 15.003179 C 52.629543 14.923989 52.676325 14.814302 52.676777 14.699853 L 52.675839 12.63095 C 52.67584 12.393858 52.48396 12.201593 52.246869 12.201042 L 51.117012 12.201042 C 50.879531 12.201042 50.687104 12.393468 50.687104 12.63095 L 50.687104 15.449965 C 50.687655 15.687056 50.879921 15.878936 51.117012 15.878935 z M 47.117977 15.502941 C 46.730584 15.526371 46.730584 14.932393 47.117977 14.955828 C 47.46125 14.976598 47.46125 15.482175 47.117977 15.502941 z M 51.28485 15.502941 C 50.897456 15.526371 50.897456 14.932393 51.28485 14.955828 C 51.628123 14.976598 51.628123 15.482175 51.28485 15.502941 z M 47.117977 14.710167 C 46.730584 14.733597 46.730584 14.139619 47.117977 14.163054 C 47.46125 14.183824 47.46125 14.689401 47.117977 14.710167 z M 47.911221 14.710167 C 47.523827 14.733597 47.523827 14.139619 47.911221 14.163054 C 48.254494 14.183824 48.254494 14.689401 47.911221 14.710167 z M 51.28485 14.710167 C 50.897456 14.733597 50.897456 14.139619 51.28485 14.163054 C 51.628123 14.183824 51.628123 14.689401 51.28485 14.710167 z M 52.079031 14.710167 C 51.691637 14.733597 51.691637 14.139619 52.079031 14.163054 C 52.422304 14.183824 52.422304 14.689401 52.079031 14.710167 z M 16.450114 14.524045 L 16.450114 11.999918 L 21.255988 11.999918 L 21.255988 14.524045 L 16.450114 14.524045 z M 22.057202 14.524045 L 22.057202 11.999918 L 26.863076 11.999918 L 26.863076 14.524045 L 22.057202 14.524045 z M 16.783914 14.189776 L 20.922188 14.189776 L 20.922188 12.335124 L 16.783914 12.335124 L 16.783914 14.189776 z M 22.391002 14.189776 L 26.528807 14.189776 L 26.528807 12.335124 L 22.391002 12.335124 L 22.391002 14.189776 z M 47.117977 13.916923 C 46.730584 13.940363 46.730584 13.346375 47.117977 13.36981 C 47.46125 13.39058 47.46125 13.896157 47.117977 13.916923 z M 47.911221 13.916923 C 47.523827 13.940363 47.523827 13.346375 47.911221 13.36981 C 48.254494 13.39058 48.254494 13.896157 47.911221 13.916923 z M 51.28485 13.916923 C 50.897456 13.940363 50.897456 13.346375 51.28485 13.36981 C 51.628123 13.39058 51.628123 13.896157 51.28485 13.916923 z M 52.079031 13.916923 C 51.691637 13.940363 51.691637 13.346375 52.079031 13.36981 C 52.422304 13.39058 52.422304 13.896157 52.079031 13.916923 z M 14.654064 13.742991 L 14.654064 12.780034 L 15.649838 12.780034 L 15.649838 13.742991 L 14.654064 13.742991 z M 47.117977 13.124148 C 46.730584 13.147578 46.730584 12.5536 47.117977 12.577035 C 47.46125 12.597805 47.46125 13.103382 47.117977 13.124148 z M 47.911221 13.124148 C 47.523827 13.147578 47.523827 12.5536 47.911221 12.577035 C 48.254494 12.597805 48.254494 13.103382 47.911221 13.124148 z M 51.28485 13.124148 C 50.897456 13.147578 50.897456 12.5536 51.28485 12.577035 C 51.628123 12.597805 51.628123 13.103382 51.28485 13.124148 z M 52.079031 13.124148 C 51.691637 13.147578 51.691637 12.5536 52.079031 12.577035 C 52.422304 12.597805 52.422304 13.103382 52.079031 13.124148 z M 45.125961 10.910849 L 54.07011 10.910849 L 54.07011 8.9647769 L 53.851171 8.9647769 L 53.851171 10.367018 C 53.851172 10.582018 53.67705 10.756525 53.46205 10.757076 L 53.46205 10.756138 L 45.734958 10.756138 C 45.520347 10.755588 45.346388 10.581628 45.345838 10.367018 L 45.345838 8.9647769 L 45.125961 8.9647769 L 45.125961 10.910849 z M 45.735896 10.555015 L 53.46205 10.555015 C 53.56588 10.555015 53.650047 10.470848 53.650047 10.367018 L 53.650047 8.9647769 L 45.546024 8.9647769 L 45.546024 10.367018 C 45.547124 10.47117 45.631736 10.555021 45.735896 10.555015 z "
     transform="matrix(1.333,0,0,-1.333,0,318.048)"
     style="fill:#e5e5e5;fill-opacity:1" />
  <path
     fill="#231f20"
     fill-rule="evenodd"
     d="M0 0c.215 0 .323.13.323.391v2.163c0 .26-.108.39-.323.39-.215 0-.323-.13-.323-.39V.391C-.323.13-.215 0 0 0m0-.566c-.306 0-.54.086-.702.26-.162.174-.243.419-.243.736v2.084c0 .317.081.563.243.736.162.174.396.26.702.26.306 0 .54-.086.702-.26.162-.173.243-.419.243-.736V.43c0-.317-.081-.562-.243-.736C.54-.48.306-.566 0-.566m-2.45 3.454h-.651v.566h1.924v-.566h-.651V-.51h-.622ZM-4.216 1.67c.102 0 .178.029.229.085.051.057.077.153.077.289v.47c0 .136-.026.232-.077.289-.051.056-.127.085-.229.085h-.294V1.67Zm-.916 1.784h.916c.31 0 .542-.083.696-.249.155-.166.232-.41.232-.731v-.39c0-.321-.077-.565-.232-.731-.154-.166-.386-.249-.696-.249h-.294V-.51h-.622zm-1.11-2.65-.277 1.959h-.011L-6.802.804Zm-.679 2.65h.843l.646-3.964h-.623l-.113.787V.266h-.708l-.113-.776h-.577Zm-1.793-.566h-.651v.566h1.924v-.566h-.651V-.51h-.622zm-1.364.566h.537L-11.102-.51h-.538zm-3.565 0h.628l.407-3.075h.012l.407 3.075h.572l-.6-3.964h-.827zm-1.89 0h1.697v-.566h-1.075V1.84h.855v-.566h-.855V.057h1.075V-.51h-1.697zM-16.891.057c.101 0 .18.03.235.09.054.061.082.159.082.295v2.061c0 .136-.028.234-.082.294a.304.304 0 0 1-.235.091h-.317V.057Zm-.94 3.397h.951c.309 0 .541-.083.696-.249.155-.166.232-.41.232-.731V.47c0-.321-.077-.565-.232-.731-.155-.166-.387-.249-.696-.249h-.951zM-18.894.09h.6v-.6h-.6zm-1.33-.09c.215 0 .322.13.322.391v2.163c0 .26-.107.39-.322.39-.216 0-.323-.13-.323-.39V.391c0-.261.107-.391.323-.391m0-.566c-.306 0-.54.087-.702.26-.163.174-.243.419-.243.736v2.084c0 .317.08.563.243.736.162.174.396.261.702.261.305 0 .539-.087.701-.261.162-.173.244-.419.244-.736V.43c0-.317-.082-.562-.244-.736-.162-.173-.396-.26-.701-.26m-3.073.611 1.154 2.843h-1.098v.566h1.766v-.555L-22.629.057h1.154V-.51h-1.822zm-2.077 0 1.154 2.843h-1.097v.566h1.765v-.555L-24.706.057h1.154V-.51h-1.822zm-.962 3.409h.622V-.51h-.622zm-3.299 0h.6l.277-3.046h.012l.294 3.046h.679l.294-3.046h.012l.277 3.046h.537l-.402-3.964h-.775l-.283 2.673h-.011l-.283-2.673h-.826z"
     transform="matrix(1.333 0 0 -1.333 181.91 308.451)"
     id="path9" />
  <path
     style="fill:none;stroke:#e5e5e5;stroke-width:0.188205;stroke-linejoin:round"
     d="m 104.09561,292.21868 h 2.49671 c 0.17726,0 0.31997,0.1427 0.31997,0.31997 v 0.48955 c 0,0.17726 -0.14271,0.31996 -0.31997,0.31996 h -2.49671 c -0.17726,0 -0.31997,-0.1427 -0.31997,-0.31996 v -0.48955 c 0,-0.17727 0.14271,-0.31997 0.31997,-0.31997 z"
     id="path13" />
  <path
     id="rect10-9"
     style="fill:none;stroke:#e5e5e5;stroke-width:0.188205;stroke-linejoin:round"
     d="m 97.691484,286.48444 h 10.274746 c 0.12408,0 0.22397,0.0999 0.22397,0.22397 v 1.2283 c 0,0.12408 -0.0999,0.22397 -0.22397,0.22397 H 97.691484 c -0.124084,0 -0.223978,-0.0999 -0.223978,-0.22397 v -1.2283 c 0,-0.12408 0.09989,-0.22397 0.223978,-0.22397 z m 0.183726,4.43048 h 9.96058 c 0.21272,0 0.38396,0.17124 0.38396,0.38396 v 2.86593 c 0,0.21272 -0.17124,0.38396 -0.38396,0.38396 h -9.96058 c -0.212714,0 -0.383961,-0.17124 -0.383961,-0.38396 v -2.86593 c 0,-0.21272 0.171247,-0.38396 0.383961,-0.38396 z m 17.27632,-0.24848 h 3.87257 c 0.0886,0 0.15998,0.0714 0.15998,0.15999 v 3.88121 c 0,0.0886 -0.0713,0.15998 -0.15998,0.15998 h -3.87257 c -0.0886,0 -0.15998,-0.0713 -0.15998,-0.15998 v -3.88121 c 0,-0.0886 0.0713,-0.15999 0.15998,-0.15999 z m -5.00689,0.0285 h 3.87257 c 0.0886,0 0.15999,0.0713 0.15999,0.15998 v 3.88121 c 0,0.0886 -0.0714,0.15998 -0.15999,0.15998 h -3.87257 c -0.0886,0 -0.15998,-0.0713 -0.15998,-0.15998 v -3.88121 c 0,-0.0886 0.0713,-0.15998 0.15998,-0.15998 z m -10.948947,1.52374 h 2.496707 c 0.17726,0 0.31997,0.1427 0.31997,0.31997 v 0.48955 c 0,0.17726 -0.14271,0.31996 -0.31997,0.31996 h -2.496707 c -0.177263,0 -0.319968,-0.1427 -0.319968,-0.31996 v -0.48955 c 0,-0.17727 0.142705,-0.31997 0.319968,-0.31997 z m -1.078157,-0.76648 h 9.504074 c 0.0532,0 0.096,0.0428 0.096,0.096 v 2.40942 c 0,0.0532 -0.0428,0.096 -0.096,0.096 h -9.504074 c -0.05318,0 -0.09599,-0.0428 -0.09599,-0.096 v -2.40942 c 0,-0.0532 0.04281,-0.096 0.09599,-0.096 z m -5.922315,-0.40405 a 0.78381401,0.7794835 0 0 1 -0.783814,0.77948 0.78381401,0.7794835 0 0 1 -0.783814,-0.77948 0.78381401,0.7794835 0 0 1 0.783814,-0.77949 0.78381401,0.7794835 0 0 1 0.783814,0.77949 z m 21.486419,1.69555 a 1.6054372,1.5965673 0 0 1 -1.60544,1.59657 1.6054372,1.5965673 0 0 1 -1.60543,-1.59657 1.6054372,1.5965673 0 0 1 1.60543,-1.59656 1.6054372,1.5965673 0 0 1 1.60544,1.59656 z m 5.03709,0.0262 a 1.6054372,1.5965673 0 0 1 -1.60544,1.59656 1.6054372,1.5965673 0 0 1 -1.60544,-1.59656 1.6054372,1.5965673 0 0 1 1.60544,-1.59657 1.6054372,1.5965673 0 0 1 1.60544,1.59657 z m -21.018312,-4.08994 h 10.274742 c 0.12408,0 0.22398,0.0999 0.22398,0.22398 v 1.22829 c 0,0.12409 -0.0999,0.22398 -0.22398,0.22398 H 97.700418 c -0.124084,0 -0.223978,-0.0999 -0.223978,-0.22398 v -1.22829 c 0,-0.12408 0.09989,-0.22398 0.223978,-0.22398 z" />
</svg>
