<?xml version="1.0" encoding="UTF-8" standalone="no"?>
<svg
   width="619"
   height="994"
   viewBox="0 0 198.04802 318.04802"
   version="1.1"
   xml:space="preserve"
   style="clip-rule:evenodd;fill-rule:evenodd;stroke-linejoin:round;stroke-miterlimit:2"
   id="svg10"
   xmlns="http://www.w3.org/2000/svg"
   xmlns:svg="http://www.w3.org/2000/svg"
   xmlns:rdf="http://www.w3.org/1999/02/22-rdf-syntax-ns#"
   xmlns:cc="http://creativecommons.org/ns#"
   xmlns:dc="http://purl.org/dc/elements/1.1/"
   xmlns:serif="http://www.serif.com/"><metadata
   id="metadata27"><rdf:RDF><cc:Work
       rdf:about=""><dc:format>image/svg+xml</dc:format><dc:type
         rdf:resource="http://purl.org/dc/dcmitype/StillImage" /></cc:Work></rdf:RDF></metadata>
    
    <g
   id="Card-Frame"
   serif:id="Card Frame"
   transform="scale(0.31999999)">
        <g
   id="Artwork-Area"
   serif:id="Artwork Area"
   transform="translate(232.09984,5.2218012)">
            
            
        <path
   id="Header-Background-5"
   serif:id="Header Background"
   d="m 386.785,919.72105 v 50.94283 c 0,9.958 -8.084,18.042 -18.041,18.042 H 228.08852 l -0.0243,-50.9326 c -0.005,-11.23664 7.25883,-18.05223 17.9982,-18.05223 z"
   style="clip-rule:evenodd;fill:#000000;fill-rule:evenodd;stroke-linejoin:round;stroke-miterlimit:2" /><path
   id="TapTo-Logo---Bottom"
   serif:id="TapTo Logo - Bottom"
   d="m 368.00231,940.81792 h -34.407 v 26.612 h -9.741 v -26.612 h -32.172 v -9.435 h 76.32 z m 0,0 h 9.014 v 23.638 c 0,7.974 -6.176,14.438 -13.794,14.438 h -60.142 v -9.434 h 57.774 c 3.948,0 7.148,-3.35 7.148,-7.484 z m 0.616,-3.121 v -1.175 c 1.924,0 3.489,1.638 3.489,3.652 h -1.123 c 0,-1.366 -1.062,-2.477 -2.366,-2.477 z m 4.82,2.478 c 0,-2.783 -2.162,-5.047 -4.82,-5.047 v -1.176 c 3.277,0 5.943,2.792 5.943,6.223 z m 2.455,0 c 0,-4.199 -3.264,-7.616 -7.275,-7.616 v -1.176 c 4.63,0 8.398,3.944 8.398,8.792 z m -85.78,0.643 h -32.172 v 21.159 c 0,4.133 3.2,7.483 7.149,7.483 h 25.023 v 9.434 h -28.121 c -7.617,0 -13.793,-6.464 -13.793,-14.438 v -23.638 h -9.267 v -9.435 h 51.181 z m -29.937,2.03 h 29.937 v 24.582 h -9.741 v -15.147 h -10.455 v 4.407 c 0,0.721 0.558,1.305 1.247,1.305 h 7.551 v 9.435 h -12.676 c -3.238,0 -5.863,-2.748 -5.863,-6.138 z m 31.506,0 h 29.937 v 18.444 c 0,3.39 -2.625,6.138 -5.863,6.138 h -12.676 v -9.435 h 7.55 c 0.689,0 1.248,-0.584 1.248,-1.305 v -4.407 h -10.454 v 26.611 h -9.742 z m 74.085,0 v 18.444 c 0,3.39 -2.625,6.138 -5.863,6.138 h -18.21 c -3.238,0 -5.864,-2.748 -5.864,-6.138 v -18.444 z m -9.741,9.435 h -10.454 v 4.407 c 0,0.721 0.558,1.305 1.247,1.305 h 7.96 c 0.689,0 1.247,-0.584 1.247,-1.305 z"
   style="clip-rule:evenodd;fill:#ffffff;fill-rule:evenodd;stroke-linejoin:round;stroke-miterlimit:2" /></g>
        <g
   id="Card-Top"
   serif:id="Card Top">
            <path
   id="Header-Background"
   style="fill:#000000"
   d="m 27.415891,9.3740577 c -9.957,0 -18.0411554,8.0841553 -18.0411554,18.0411553 v 21.158029 52.943898 c 0,9.958 8.0841554,18.04115 18.0411554,18.04115 H 591.48419 c 9.957,0 18.04116,-8.08315 18.04116,-18.04115 V 48.573242 27.415213 c 0,-9.957 -8.08416,-18.0411553 -18.04116,-18.0411553 z" />
            
            
            
            
            <path
   id="NFC-Loading-System"
   serif:id="NFC Loading System"
   d="m 410.50954,105.6136 h -1.79559 v -1.22922 h -10.6102 v 1.22922 h -1.79637 V 90.187661 h 14.20216 z m -1.79559,-3.0676 V 92.026051 h -10.6102 V 102.546 Z m 23.04477,-4.355959 h -16.5797 v -1.84849 h 16.5797 z m 20.50231,-5.79445 -1.37859,0.59905 c -0.23884,-1.13197 -0.55626,-2.04766 -0.9507,-2.74707 l 1.44628,-0.60917 c 0.36876,0.74532 0.66284,1.6649 0.88301,2.75719 z m -5.53304,-0.56949 h -9.94035 v -1.84849 h 9.94035 z m 3.31967,1.38871 -1.36848,0.58972 c -0.24585,-1.12575 -0.56326,-2.03833 -0.95148,-2.73774 l 1.44628,-0.60917 c 0.36954,0.74532 0.66051,1.6649 0.87368,2.75719 z m 1.41749,3.64643 h -7.05712 c 0.0124,0.16027 0.0195,0.43334 0.0195,0.81922 0,4.069659 -1.73803,6.966879 -5.2133,8.692459 l -1.40738,-1.63844 c 1.57931,-0.57338 2.77508,-1.44239 3.5873,-2.60782 0.81222,-1.16542 1.21755,-2.568129 1.21755,-4.206579 0,-0.47924 -0.0125,-0.83244 -0.0381,-1.05884 h -7.7083 v -1.8485 h 16.59992 z m 16.91035,-5.01491 c -1.48207,1.82438 -2.65294,3.10028 -3.51418,3.82615 v 8.102739 h -1.65011 v -6.753709 c -1.58554,1.21833 -3.10961,2.14802 -4.57223,2.78753 l -1.01917,-1.49918 c 1.74114,-0.70564 3.50562,-1.78004 5.29499,-3.22165 1.79015,-1.44239 3.16641,-2.89956 4.13111,-4.37152 z m 13.65835,0.83867 -1.0674,1.59877 c -1.60499,-1.39182 -3.49472,-2.36119 -5.6692,-2.90734 l 1.09697,-1.67812 c 2.29039,0.85189 4.17079,1.84772 5.63963,2.98669 z m 8.95075,2.08812 c -2.28495,3.47061 -4.54967,5.971059 -6.79573,7.502919 -2.24527,1.53263 -4.7854,2.70817 -7.62039,3.52739 l -1.13586,-1.8485 c 3.54685,-0.78576 6.39117,-2.04144 8.53297,-3.76623 2.14258,-1.725579 4.00586,-3.973189 5.5914,-6.744379 z m 20.43385,-4.25559 -1.36848,0.58894 c -0.24585,-1.13198 -0.56327,-2.04456 -0.95148,-2.73696 l 1.44628,-0.62006 c 0.36876,0.74609 0.65973,1.66878 0.87368,2.76808 z m -2.20326,0.81922 -0.81611,0.40922 0.75776,0.76943 c -0.53759,3.30334 -1.68279,6.05586 -3.43638,8.257559 -1.75436,2.20093 -4.25559,3.99808 -7.50447,5.3899 l -1.36848,-1.71857 c 2.95791,-1.03239 5.27632,-2.42266 6.95521,-4.17079 1.67968,-1.748919 2.80076,-3.978629 3.36402,-6.689139 h -7.3971 c -1.2619,1.84538 -2.50824,3.17341 -3.73746,3.98641 l -1.44628,-1.30858 c 2.66617,-1.81893 4.62047,-4.41586 5.86292,-7.7931 l 1.70846,0.8589 c -0.37499,0.89313 -0.77954,1.69912 -1.21288,2.41798 h 6.86263 c -0.25207,-1.05884 -0.55938,-1.91151 -0.92192,-2.55724 l 1.4564,-0.62006 c 0.36876,0.74609 0.65973,1.66878 0.87368,2.76808 z m 13.92053,-0.41 -0.64106,1.85861 c -1.73414,-1.02616 -3.75068,-1.65867 -6.04808,-1.89829 l 0.64106,-1.9084 c 2.54947,0.54615 4.56601,1.19577 6.04808,1.94808 z m 7.76588,3.98641 c -1.83139,2.99059 -3.89306,5.350219 -6.18423,7.078129 -2.2904,1.72869 -5.05381,3.0396 -8.29024,3.93195 l -0.9118,-1.88817 c 3.37102,-0.806 6.18189,-2.05311 8.43028,-3.74212 2.24916,-1.688239 4.05331,-3.904719 5.41246,-6.648689 z m -9.6595,1.16932 -0.69863,1.93796 c -1.52719,-1.09929 -3.51417,-1.78859 -5.96017,-2.06789 l 0.64029,-1.85861 c 2.45299,0.47302 4.45942,1.13586 6.01851,1.98854 z m 30.50101,8.591319 -1.55286,1.16931 c -1.91619,-2.69106 -4.15524,-4.84531 -6.71793,-6.464299 -2.07723,2.677829 -4.62358,4.945669 -7.63984,6.804279 l -1.38793,-1.46884 c 2.50434,-1.35214 4.70994,-3.12051 6.61523,-5.305099 1.90607,-2.18459 3.39281,-4.65237 4.46098,-7.40333 h -9.9598 v -1.75825 l 11.64882,-0.0202 0.53369,0.56949 c -0.7243,2.61793 -1.7987,4.98534 -3.22242,7.1038 2.76341,1.81116 5.17051,4.069659 7.22206,6.773169 z m 17.01693,-12.847699 h -12.68743 v -1.84849 h 12.68743 z m 1.99009,5.03514 H 563.693 c 0.0132,0.16027 0.0195,0.43334 0.0195,0.81922 0,4.069659 -1.73724,6.966879 -5.21252,8.692459 l -1.40815,-1.63844 c 1.57931,-0.57338 2.77508,-1.44239 3.5873,-2.60782 0.81222,-1.16542 1.21833,-2.568129 1.21833,-4.206579 0,-0.47924 -0.0132,-0.83244 -0.0389,-1.05884 h -7.70753 v -1.8485 h 16.59915 z m 20.25024,8.032729 -1.76681,0.75931 c -0.23962,-0.85267 -0.59594,-1.77148 -1.06817,-2.75719 -6.67825,0.69241 -11.18591,1.27201 -13.52221,1.73803 l -0.47613,-1.98776 2.28184,-0.25985 5.17362,-13.467749 1.65011,0.65896 -4.83364,12.538829 8.68779,-0.97949 c -1.1063,-2.130909 -2.13246,-3.679879 -3.07694,-4.645359 l 1.84383,-0.81922 c 1.77381,2.29117 3.47527,5.364999 5.10671,9.221489 z m -194.311,-21.284968 c -0.42323,0 -0.7671,-0.343871 -0.7671,-0.767096 0,-0.424003 0.34387,-0.767874 0.7671,-0.767874 h 194.23632 c 0.42322,0 0.76709,0.343871 0.76709,0.767874 0,0.423225 -0.34387,0.767096 -0.76709,0.767096 z m 0,-29.106079 h 4.23614 l 3.28389,12.860138 h 0.0615 V 54.502923 h 3.00848 v 21.484133 h -3.46905 L 399.75857,60.3036 h -0.0607 v 15.683456 h -3.00848 z m 13.10676,0 h 8.93208 v 3.069162 h -5.55562 v 5.98506 h 4.35829 v 3.069162 h -4.35829 v 9.360749 h -3.37646 z m 15.31624,21.791438 c -1.61588,0 -2.84899,-0.460569 -3.69855,-1.381706 -0.84879,-0.92036 -1.27357,-2.219599 -1.27357,-3.897719 V 59.475043 c 0,-1.678119 0.42478,-2.977359 1.27357,-3.897719 0.84956,-0.921137 2.08267,-1.381706 3.69855,-1.381706 1.61666,0 2.84977,0.460569 3.69933,1.381706 0.84879,0.92036 1.27357,2.2196 1.27357,3.897719 v 2.270946 h -3.19208 v -2.48567 c 0,-1.33036 -0.56327,-1.995539 -1.68824,-1.995539 -1.12574,0 -1.68823,0.665179 -1.68823,1.995539 V 71.26078 c 0,1.309353 0.56249,1.964419 1.68823,1.964419 1.12497,0 1.68824,-0.655066 1.68824,-1.964419 v -3.283886 h 3.19208 v 3.038042 c 0,1.67812 -0.42478,2.977359 -1.27357,3.897719 -0.84956,0.921137 -2.08267,1.381706 -3.69933,1.381706 z m 11.91022,-21.791438 h 3.37569 v 18.414971 h 5.55639 v 3.069162 h -8.93208 z m 15.31624,21.791438 c -1.65711,0 -2.92601,-0.470683 -3.80591,-1.412048 -0.87991,-0.941365 -1.32025,-2.270946 -1.32025,-3.990299 V 59.597965 c 0,-1.719353 0.44034,-3.048934 1.32025,-3.990299 0.8799,-0.941365 2.1488,-1.412048 3.80591,-1.412048 1.6579,0 2.92602,0.470683 3.80592,1.412048 0.8799,0.941365 1.32024,2.270946 1.32024,3.990299 v 11.294049 c 0,1.719353 -0.44034,3.048934 -1.32024,3.990299 -0.8799,0.941365 -2.14802,1.412048 -3.80592,1.412048 z m 0,-3.069162 c 1.16621,0 1.7497,-0.706413 1.7497,-2.118461 V 59.382463 c 0,-1.41127 -0.58349,-2.117683 -1.7497,-2.117683 -1.1662,0 -1.74969,0.706413 -1.74969,2.117683 v 11.724275 c 0,1.412048 0.58349,2.118461 1.74969,2.118461 z m 9.94502,-18.722276 h 4.57379 l 3.49939,21.484133 h -3.37647 l -0.61383,-4.266485 v 0.06146 h -3.83703 l -0.61384,4.205024 h -3.1314 z m 3.68377,14.363989 -1.50463,-10.619534 h -0.0615 l -1.47273,10.619534 z m 6.01618,-14.363989 h 5.15651 c 1.67812,0 2.93612,0.450455 3.77557,1.350587 0.83867,0.900132 1.25801,2.219599 1.25801,3.95918 v 10.864599 c 0,1.739581 -0.41934,3.059048 -1.25801,3.95918 -0.83945,0.900132 -2.09745,1.350587 -3.77557,1.350587 h -5.15651 z m 5.09504,18.414971 c 0.55238,0 0.97716,-0.163377 1.27357,-0.49091 0.29719,-0.327533 0.44501,-0.859677 0.44501,-1.596431 V 59.659426 c 0,-0.736754 -0.14782,-1.268898 -0.44501,-1.596431 -0.29641,-0.327533 -0.72119,-0.49091 -1.27357,-0.49091 h -1.71857 v 15.345809 z m 7.36677,-18.414971 h 3.37647 v 21.484133 h -3.37647 z m 5.89326,0 h 4.23614 l 3.28389,12.860138 h 0.0615 V 54.502923 h 3.00848 v 21.484133 h -3.46905 L 493.40807,60.3036 h -0.0607 v 15.683456 h -3.00848 z m 17.89527,21.791438 c -1.63688,0 -2.88555,-0.466015 -3.74523,-1.396488 -0.8589,-0.931251 -1.28913,-2.266278 -1.28913,-4.005859 V 59.597965 c 0,-1.73958 0.43023,-3.074607 1.28913,-4.005859 0.85968,-0.930473 2.10835,-1.396488 3.74523,-1.396488 1.63689,0 2.88478,0.466015 3.74446,1.396488 0.85967,0.931252 1.28912,2.266279 1.28912,4.005859 v 1.841497 h -3.19208 v -2.056999 c 0,-1.41127 -0.58349,-2.117683 -1.74969,-2.117683 -1.16621,0 -1.7497,0.706413 -1.7497,2.117683 v 11.755395 c 0,1.391042 0.58349,2.087341 1.7497,2.087341 1.1662,0 1.74969,-0.696299 1.74969,-2.087341 v -4.205024 h -1.68823 v -3.069162 h 4.88031 v 7.028342 c 0,1.739581 -0.42945,3.074608 -1.28912,4.005859 -0.85968,0.930473 -2.10757,1.396488 -3.74446,1.396488 z m 16.51357,0 c -1.63688,0 -2.87544,-0.466015 -3.71411,-1.396488 -0.83867,-0.931251 -1.25879,-2.266278 -1.25879,-4.005859 v -1.227665 h 3.19287 v 1.473509 c 0,1.391042 0.58271,2.087341 1.74891,2.087341 0.57338,0 1.00827,-0.168823 1.30469,-0.50647 0.29719,-0.337647 0.44501,-0.88535 0.44501,-1.642332 0,-0.900132 -0.20461,-1.692901 -0.61384,-2.378309 -0.40922,-0.685407 -1.1662,-1.509296 -2.27094,-2.470889 -1.39182,-1.227665 -2.36353,-2.337853 -2.9159,-3.329788 -0.55315,-0.992712 -0.82933,-2.113014 -0.82933,-3.360907 0,-1.698347 0.43022,-3.013146 1.28912,-3.944398 0.85968,-0.930473 2.10835,-1.396488 3.74523,-1.396488 1.61666,0 2.83888,0.466015 3.66822,1.396488 0.82855,0.931252 1.24244,2.266279 1.24244,4.005859 v 0.890018 h -3.19208 v -1.10552 c 0,-0.735977 -0.14315,-1.273566 -0.42945,-1.611213 -0.2863,-0.337647 -0.70641,-0.50647 -1.25878,-0.50647 -1.12497,0 -1.68824,0.685407 -1.68824,2.057 0,0.777209 0.21006,1.50385 0.62939,2.179143 0.41934,0.674516 1.18177,1.492959 2.28651,2.45533 1.41205,1.227664 2.38453,2.342521 2.9159,3.345347 0.53214,1.002048 0.79821,2.179144 0.79821,3.528953 0,1.759808 -0.43489,3.110395 -1.3039,4.05176 -0.86979,0.941365 -2.13402,1.412048 -3.79114,1.412048 z m 9.94502,-9.45333 -4.0821,-12.338108 h 3.59119 l 2.30207,7.888018 h 0.0615 l 2.30206,-7.888018 h 3.28389 l -4.0821,12.338108 v 9.146025 h -3.37647 z m 12.89204,9.45333 c -1.63767,0 -2.87545,-0.466015 -3.71412,-1.396488 -0.83945,-0.931251 -1.25878,-2.266278 -1.25878,-4.005859 v -1.227665 h 3.19208 v 1.473509 c 0,1.391042 0.58349,2.087341 1.7497,2.087341 0.57337,0 1.00827,-0.168823 1.30468,-0.50647 0.29641,-0.337647 0.44501,-0.88535 0.44501,-1.642332 0,-0.900132 -0.20461,-1.692901 -0.61383,-2.378309 -0.40922,-0.685407 -1.16621,-1.509296 -2.27173,-2.470889 -1.39104,-1.227665 -2.36352,-2.337853 -2.91589,-3.329788 -0.55238,-0.992712 -0.82856,-2.113014 -0.82856,-3.360907 0,-1.698347 0.42945,-3.013146 1.28912,-3.944398 0.85968,-0.930473 2.10757,-1.396488 3.74446,-1.396488 1.61666,0 2.83965,0.466015 3.66821,1.396488 0.82856,0.931252 1.24323,2.266279 1.24323,4.005859 v 0.890018 h -3.19209 v -1.10552 c 0,-0.735977 -0.14315,-1.273566 -0.42945,-1.611213 -0.28707,-0.337647 -0.70641,-0.50647 -1.25878,-0.50647 -1.12575,0 -1.68823,0.685407 -1.68823,2.057 0,0.777209 0.21005,1.50385 0.62939,2.179143 0.41933,0.674516 1.18176,1.492959 2.2865,2.45533 1.41205,1.227664 2.38376,2.342521 2.9159,3.345347 0.53215,1.002048 0.79822,2.179144 0.79822,3.528953 0,1.759808 -0.4349,3.110395 -1.30469,4.05176 -0.86979,0.941365 -2.13324,1.412048 -3.79035,1.412048 z m 9.66883,-18.722276 h -3.53051 v -3.069162 h 10.4367 v 3.069162 h -3.52973 v 18.414971 h -3.37646 z m 8.53297,-3.069162 h 9.20826 v 3.069162 h -5.8318 v 5.677755 h 4.63448 v 3.069162 h -4.63448 v 6.598892 h 5.8318 v 3.069162 h -9.20826 z m 11.14234,0 h 4.81885 l 2.14881,15.376151 h 0.0615 l 2.14802,-15.376151 h 4.81964 v 21.484133 h -3.19287 V 59.720109 h -0.0607 l -2.45611,16.266947 h -2.82409 l -2.45533,-16.266947 h -0.0615 v 16.266947 h -2.94624 z"
   style="clip-rule:evenodd;fill:#ffffff;fill-rule:evenodd;stroke-width:1;stroke-linejoin:round;stroke-miterlimit:2" /><path
   id="Pins"
   d="M 35.903,11.708 V 43.269 H 26.434 V 11.708 Z m -4.735,25.247 c -0.87,0 -1.577,0.707 -1.577,1.58 0,0.87 0.707,1.577 1.577,1.577 0.871,0 1.578,-0.707 1.578,-1.577 0,-0.873 -0.707,-1.58 -1.578,-1.58 z M 171.65,11.708 v 31.561 h -9.469 V 11.708 Z m -4.735,25.247 c -0.87,0 -1.577,0.707 -1.577,1.58 0,0.87 0.707,1.577 1.577,1.577 0.871,0 1.578,-0.707 1.578,-1.577 0,-0.873 -0.707,-1.58 -1.578,-1.58 z M 483.869,11.708 v 31.561 h -9.47 V 11.708 Z m -4.736,25.247 c -0.87,0 -1.577,0.707 -1.577,1.58 0,0.87 0.707,1.577 1.577,1.577 0.871,0 1.579,-0.707 1.579,-1.577 0,-0.873 -0.708,-1.58 -1.579,-1.58 z M 320.972,11.708 v 31.561 h -9.469 V 11.708 Z m -4.735,25.247 c -0.87,0 -1.578,0.707 -1.578,1.58 0,0.87 0.708,1.577 1.578,1.577 0.871,0 1.578,-0.707 1.578,-1.577 0,-0.873 -0.707,-1.58 -1.578,-1.58 z M 76.627,11.708 V 43.269 H 67.158 V 11.708 Z m -4.735,25.247 c -0.87,0 -1.577,0.707 -1.577,1.58 0,0.87 0.707,1.577 1.577,1.577 0.871,0 1.578,-0.707 1.578,-1.577 0,-0.873 -0.707,-1.58 -1.578,-1.58 z M 212.374,11.708 v 31.561 h -9.469 V 11.708 Z m -4.735,25.247 c -0.87,0 -1.577,0.707 -1.577,1.58 0,0.87 0.707,1.577 1.577,1.577 0.871,0 1.579,-0.707 1.579,-1.577 0,-0.873 -0.708,-1.58 -1.579,-1.58 z M 524.593,11.708 v 31.561 h -9.47 V 11.708 Z m -4.736,25.247 c -0.869,0 -1.577,0.707 -1.577,1.58 0,0.87 0.708,1.577 1.577,1.577 0.872,0 1.579,-0.707 1.579,-1.577 0,-0.873 -0.707,-1.58 -1.579,-1.58 z M 361.696,11.708 v 31.561 h -9.469 V 11.708 Z m -4.735,25.247 c -0.87,0 -1.577,0.707 -1.577,1.58 0,0.87 0.707,1.577 1.577,1.577 0.871,0 1.578,-0.707 1.578,-1.577 0,-0.873 -0.707,-1.58 -1.578,-1.58 z M 117.351,11.708 v 31.561 h -9.469 V 11.708 Z m -4.735,25.247 c -0.87,0 -1.577,0.707 -1.577,1.58 0,0.87 0.707,1.577 1.577,1.577 0.871,0 1.579,-0.707 1.579,-1.577 0,-0.873 -0.708,-1.58 -1.579,-1.58 z M 253.099,11.708 v 31.561 h -9.47 V 11.708 Z m -4.736,25.247 c -0.87,0 -1.577,0.707 -1.577,1.58 0,0.87 0.707,1.577 1.577,1.577 0.871,0 1.579,-0.707 1.579,-1.577 0,-0.873 -0.708,-1.58 -1.579,-1.58 z M 565.317,11.708 v 31.561 h -9.47 V 11.708 Z m -4.735,25.247 c -0.87,0 -1.578,0.707 -1.578,1.58 0,0.87 0.708,1.577 1.578,1.577 0.871,0 1.578,-0.707 1.578,-1.577 0,-0.873 -0.707,-1.58 -1.578,-1.58 z M 402.42,11.708 v 31.561 h -9.469 V 11.708 Z m -4.735,25.247 c -0.87,0 -1.577,0.707 -1.577,1.58 0,0.87 0.707,1.577 1.577,1.577 0.871,0 1.578,-0.707 1.578,-1.577 0,-0.873 -0.707,-1.58 -1.578,-1.58 z M 144.501,11.708 v 31.561 h -9.47 V 11.708 Z m -4.736,25.247 c -0.869,0 -1.577,0.707 -1.577,1.58 0,0.87 0.708,1.577 1.577,1.577 0.872,0 1.579,-0.707 1.579,-1.577 0,-0.873 -0.707,-1.58 -1.579,-1.58 z M 456.719,11.708 V 43.269 H 447.25 V 11.708 Z m -4.735,25.247 c -0.87,0 -1.577,0.707 -1.577,1.58 0,0.87 0.707,1.577 1.577,1.577 0.871,0 1.578,-0.707 1.578,-1.577 0,-0.873 -0.707,-1.58 -1.578,-1.58 z M 280.248,11.708 v 31.561 h -9.47 V 11.708 Z m -4.735,25.247 c -0.87,0 -1.578,0.707 -1.578,1.58 0,0.87 0.708,1.577 1.578,1.577 0.871,0 1.578,-0.707 1.578,-1.577 0,-0.873 -0.707,-1.58 -1.578,-1.58 z M 592.466,11.708 v 31.561 h -9.469 V 11.708 Z m -4.735,25.247 c -0.87,0 -1.577,0.707 -1.577,1.58 0,0.87 0.707,1.577 1.577,1.577 0.871,0 1.578,-0.707 1.578,-1.577 0,-0.873 -0.707,-1.58 -1.578,-1.58 z M 429.57,11.708 V 43.269 H 420.1 V 11.708 Z m -4.736,25.247 c -0.869,0 -1.577,0.707 -1.577,1.58 0,0.87 0.708,1.577 1.577,1.577 0.872,0 1.579,-0.707 1.579,-1.577 0,-0.873 -0.707,-1.58 -1.579,-1.58 z M 90.202,11.708 v 31.561 h -9.47 V 11.708 Z m -4.735,25.247 c -0.87,0 -1.578,0.707 -1.578,1.58 0,0.87 0.708,1.577 1.578,1.577 0.871,0 1.578,-0.707 1.578,-1.577 0,-0.873 -0.707,-1.58 -1.578,-1.58 z M 225.949,11.708 V 43.269 H 216.48 V 11.708 Z m -4.735,25.247 c -0.87,0 -1.577,0.707 -1.577,1.58 0,0.87 0.707,1.577 1.577,1.577 0.871,0 1.578,-0.707 1.578,-1.577 0,-0.873 -0.707,-1.58 -1.578,-1.58 z M 538.168,11.708 v 31.561 h -9.47 V 11.708 Z m -4.736,25.247 c -0.87,0 -1.577,0.707 -1.577,1.58 0,0.87 0.707,1.577 1.577,1.577 0.871,0 1.579,-0.707 1.579,-1.577 0,-0.873 -0.708,-1.58 -1.579,-1.58 z M 375.271,11.708 v 31.561 h -9.47 V 11.708 Z m -4.735,25.247 c -0.87,0 -1.578,0.707 -1.578,1.58 0,0.87 0.708,1.577 1.578,1.577 0.871,0 1.578,-0.707 1.578,-1.577 0,-0.873 -0.707,-1.58 -1.578,-1.58 z M 130.926,11.708 v 31.561 h -9.469 V 11.708 Z m -4.735,25.247 c -0.87,0 -1.577,0.707 -1.577,1.58 0,0.87 0.707,1.577 1.577,1.577 0.871,0 1.578,-0.707 1.578,-1.577 0,-0.873 -0.707,-1.58 -1.578,-1.58 z M 266.673,11.708 v 31.561 h -9.469 V 11.708 Z m -4.735,25.247 c -0.87,0 -1.577,0.707 -1.577,1.58 0,0.87 0.707,1.577 1.577,1.577 0.871,0 1.578,-0.707 1.578,-1.577 0,-0.873 -0.707,-1.58 -1.578,-1.58 z M 578.892,11.708 v 31.561 h -9.47 V 11.708 Z m -4.736,25.247 c -0.87,0 -1.577,0.707 -1.577,1.58 0,0.87 0.707,1.577 1.577,1.577 0.871,0 1.579,-0.707 1.579,-1.577 0,-0.873 -0.708,-1.58 -1.579,-1.58 z M 415.995,11.708 v 31.561 h -9.469 V 11.708 Z m -4.735,25.247 c -0.87,0 -1.578,0.707 -1.578,1.58 0,0.87 0.708,1.577 1.578,1.577 0.871,0 1.578,-0.707 1.578,-1.577 0,-0.873 -0.707,-1.58 -1.578,-1.58 z M 158.076,11.708 v 31.561 h -9.47 V 11.708 Z m -4.736,25.247 c -0.87,0 -1.577,0.707 -1.577,1.58 0,0.87 0.707,1.577 1.577,1.577 0.871,0 1.579,-0.707 1.579,-1.577 0,-0.873 -0.708,-1.58 -1.579,-1.58 z M 470.294,11.708 v 31.561 h -9.47 V 11.708 Z m -4.735,25.247 c -0.87,0 -1.578,0.707 -1.578,1.58 0,0.87 0.708,1.577 1.578,1.577 0.871,0 1.578,-0.707 1.578,-1.577 0,-0.873 -0.707,-1.58 -1.578,-1.58 z M 307.397,11.708 v 31.561 h -9.469 V 11.708 Z m -4.735,25.247 c -0.87,0 -1.577,0.707 -1.577,1.58 0,0.87 0.707,1.577 1.577,1.577 0.871,0 1.579,-0.707 1.579,-1.577 0,-0.873 -0.708,-1.58 -1.579,-1.58 z m -8.839,-25.247 v 31.561 h -9.47 V 11.708 Z m -4.736,25.247 c -0.87,0 -1.577,0.707 -1.577,1.58 0,0.87 0.707,1.577 1.577,1.577 0.871,0 1.579,-0.707 1.579,-1.577 0,-0.873 -0.708,-1.58 -1.579,-1.58 z M 443.145,11.708 v 31.561 h -9.47 V 11.708 Z m -4.736,25.247 c -0.87,0 -1.577,0.707 -1.577,1.58 0,0.87 0.707,1.577 1.577,1.577 0.871,0 1.579,-0.707 1.579,-1.577 0,-0.873 -0.708,-1.58 -1.579,-1.58 z m -395.33,6.313 h -3.07 v -31.56 h 9.469 v 31.56 H 46.62 l -1.233,5.306 h -1.075 z m 1.664,-6.312 c -0.871,0 -1.578,0.707 -1.578,1.578 0,0.871 0.707,1.578 1.578,1.578 0.871,0 1.578,-0.707 1.578,-1.578 0,-0.871 -0.707,-1.578 -1.578,-1.578 z m 134.083,6.312 h -3.07 v -31.56 h 9.469 v 31.56 h -2.858 l -1.233,5.306 h -1.075 z m 1.664,-6.312 c -0.871,0 -1.578,0.707 -1.578,1.578 0,0.871 0.707,1.578 1.578,1.578 0.871,0 1.578,-0.707 1.578,-1.578 0,-0.871 -0.707,-1.578 -1.578,-1.578 z m 310.554,6.312 h -3.07 v -31.56 h 9.469 v 31.56 h -2.857 l -1.233,5.306 h -1.076 z m 1.665,-6.312 c -0.872,0 -1.579,0.707 -1.579,1.578 0,0.871 0.707,1.578 1.579,1.578 0.871,0 1.578,-0.707 1.578,-1.578 0,-0.871 -0.707,-1.578 -1.578,-1.578 z m -164.561,6.312 h -3.07 v -31.56 h 9.469 v 31.56 h -2.858 l -1.233,5.306 h -1.075 z m 1.664,-6.312 c -0.871,0 -1.578,0.707 -1.578,1.578 0,0.871 0.707,1.578 1.578,1.578 0.871,0 1.578,-0.707 1.578,-1.578 0,-0.871 -0.707,-1.578 -1.578,-1.578 z M 96.325,43.268 h -2.018 v -31.56 h 9.469 v 31.56 h -4.961 l -1.233,5.306 h -1.076 z m 2.717,-6.312 c -0.871,0 -1.578,0.707 -1.578,1.578 0,0.871 0.707,1.578 1.578,1.578 0.871,0 1.578,-0.707 1.578,-1.578 0,-0.871 -0.707,-1.578 -1.578,-1.578 z m 133.031,6.312 h -2.018 v -31.56 h 9.469 v 31.56 h -4.962 l -1.233,5.306 h -1.075 z m 2.716,-6.312 c -0.871,0 -1.578,0.707 -1.578,1.578 0,0.871 0.707,1.578 1.578,1.578 0.871,0 1.578,-0.707 1.578,-1.578 0,-0.871 -0.707,-1.578 -1.578,-1.578 z m 309.502,6.312 h -2.018 v -31.56 h 9.469 v 31.56 h -4.962 l -1.233,5.306 h -1.075 z m 2.716,-6.312 c -0.871,0 -1.578,0.707 -1.578,1.578 0,0.871 0.707,1.578 1.578,1.578 0.872,0 1.579,-0.707 1.579,-1.578 0,-0.871 -0.707,-1.578 -1.579,-1.578 z m -165.613,6.312 h -2.018 v -31.56 h 9.469 v 31.56 h -4.961 l -1.233,5.306 h -1.076 z m 2.717,-6.312 c -0.871,0 -1.578,0.707 -1.578,1.578 0,0.871 0.707,1.578 1.578,1.578 0.871,0 1.578,-0.707 1.578,-1.578 0,-0.871 -0.707,-1.578 -1.578,-1.578 z M 58.758,43.268 h -5.175 v -31.56 h 9.469 v 31.56 h -1.805 l -0.181,5.306 h -1.075 z m -0.44,-6.312 c -0.871,0 -1.578,0.707 -1.578,1.578 0,0.871 0.707,1.578 1.578,1.578 0.871,0 1.578,-0.707 1.578,-1.578 0,-0.871 -0.707,-1.578 -1.578,-1.578 z m 136.187,6.312 h -5.175 v -31.56 h 9.469 v 31.56 h -1.805 l -0.181,5.306 h -1.075 z m -0.44,-6.312 c -0.871,0 -1.578,0.707 -1.578,1.578 0,0.871 0.707,1.578 1.578,1.578 0.871,0 1.578,-0.707 1.578,-1.578 0,-0.871 -0.707,-1.578 -1.578,-1.578 z m 312.658,6.312 h -5.174 v -31.56 h 9.469 v 31.56 h -1.806 l -0.181,5.306 h -1.075 z m -0.44,-6.312 c -0.871,0 -1.578,0.707 -1.578,1.578 0,0.871 0.707,1.578 1.578,1.578 0.871,0 1.579,-0.707 1.579,-1.578 0,-0.871 -0.708,-1.578 -1.579,-1.578 z m -162.456,6.312 h -5.175 v -31.56 h 9.469 v 31.56 h -1.805 l -0.181,5.306 h -1.075 z m -0.44,-6.312 c -0.871,0 -1.578,0.707 -1.578,1.578 0,0.871 0.707,1.578 1.578,1.578 0.871,0 1.578,-0.707 1.578,-1.578 0,-0.871 -0.707,-1.578 -1.578,-1.578 z"
   style="fill:url(#_Linear1)" />
        </g>
    </g>
    <defs
   id="defs10"><linearGradient
     id="_Linear1"
     x1="0"
     y1="0"
     x2="1"
     y2="0"
     gradientUnits="userSpaceOnUse"
     gradientTransform="matrix(-464.131,0,0,-464.086,567.296,12.8094)"><stop
       offset="0"
       style="stop-color:#d7c000;stop-opacity:1"
       id="stop6" /><stop
       offset="0.34"
       style="stop-color:#cfb600;stop-opacity:1"
       id="stop7" /><stop
       offset="0.62"
       style="stop-color:#ffffbf;stop-opacity:1"
       id="stop8" /><stop
       offset="0.76"
       style="stop-color:#e0ca00;stop-opacity:1"
       id="stop9" /><stop
       offset="1"
       style="stop-color:#ffef7a;stop-opacity:1"
       id="stop10" /></linearGradient></defs>
</svg>
