<?xml version="1.0" encoding="UTF-8" standalone="no"?>
<svg
   version="1.1"
   id="svg1"
   width="619"
   height="994"
   viewBox="0 0 197.90401 318.048"
   xmlns:xlink="http://www.w3.org/1999/xlink"
   xmlns="http://www.w3.org/2000/svg"
   xmlns:svg="http://www.w3.org/2000/svg">
  <defs
     id="defs1">
    <linearGradient
       id="linearGradient2"
       x1="99.805603"
       y1="311.86804"
       x2="99.853477"
       y2="298.58112"
       gradientUnits="userSpaceOnUse">
      <stop
         style="stop-opacity:1;stop-color:#4875cb"
         offset="0"
         id="stop6" />
      <stop
         style="stop-opacity:1;stop-color:#ffffff"
         offset="0.430986"
         id="stop7" />
      <stop
         style="stop-opacity:1;stop-color:#100f09"
         offset="0.486928"
         id="stop8" />
      <stop
         style="stop-opacity:1;stop-color:#d2b059"
         offset="0.533471"
         id="stop9" />
      <stop
         style="stop-opacity:1;stop-color:#eef7f7"
         offset="0.944809"
         id="stop10" />
      <stop
         style="stop-opacity:1;stop-color:#8d8987"
         offset="1"
         id="stop11" />
    </linearGradient>
    <linearGradient
       xlink:href="#linearGradient11"
       id="linearGradient5"
       x1="59.654282"
       y1="230.55017"
       x2="59.657627"
       y2="236.18782"
       gradientUnits="userSpaceOnUse" >
      <stop
         style="stop-opacity:1;stop-color:#4875cb"
         offset="0"
         id="stop6" />
      <stop
         style="stop-opacity:1;stop-color:#ffffff"
         offset="0.430986"
         id="stop7" />
      <stop
         style="stop-opacity:1;stop-color:#100f09"
         offset="0.486928"
         id="stop8" />
      <stop
         style="stop-opacity:1;stop-color:#d2b059"
         offset="0.533471"
         id="stop9" />
      <stop
         style="stop-opacity:1;stop-color:#eef7f7"
         offset="0.944809"
         id="stop10" />
      <stop
         style="stop-opacity:1;stop-color:#8d8987"
         offset="1"
         id="stop11" />
    </linearGradient>
  </defs>
  <path
     id="path1"
     style="display:inline;fill:#000000;fill-opacity:1;fill-rule:evenodd;stroke:none"
     d="M -142.5946 5.9414002 C -145.87359 5.9414002 -148.536 3.2789905 -148.536 -6.2250002e-06 L -148.536 -226.65236 C -148.536 -229.93135 -145.87359 -232.59523 -142.5946 -232.59523 L -5.9407853 -232.59523 C -2.6617886 -232.59523 0.00062109377 -229.93135 0.00062109377 -226.65236 L 0.00062109377 -6.2250002e-06 C 0.00062109377 3.2789905 -2.6617886 5.9414002 -5.9407853 5.9414002 L -142.5946 5.9414002 z M -141.96471 -54.785164 L -6.5706681 -54.785164 C -5.8416688 -54.785164 -5.249379 -55.374991 -5.249379 -56.104988 L -5.249379 -226.02394 C -5.249379 -226.75394 -5.8416688 -227.34523 -6.5706681 -227.34523 L -141.96471 -227.34523 C -142.69471 -227.34523 -143.286 -226.75394 -143.286 -226.02394 L -143.286 -56.104988 C -143.286 -55.374991 -142.69471 -54.785164 -141.96471 -54.785164 z "
     transform="matrix(1.3333333,0,0,-1.3333333,198.048,7.9218667)" />
  <path
     id="path5"
     d="m 0,0 h 47.305 c 0.729,0 1.321,0.591 1.321,1.321 v 169.918 c 0,0.73 -0.592,1.321 -1.321,1.321 H -88.089 c -0.73,0 -1.321,-0.591 -1.321,-1.321 V 1.321 C -89.41,0.591 -88.819,0 -88.089,0 h 47.304 c 1.323,0.045 2.383,1.133 2.383,2.466 v 6.347 c 0,1.364 1.105,2.47 2.469,2.47 H -4.85 c 1.363,0 2.468,-1.105 2.468,-2.468 V 2.466 C -2.382,1.133 -1.322,0.045 0,0 M 51.626,1.321 C 51.626,-1.064 49.689,-3 47.305,-3 H -88.089 c -2.385,0 -4.321,1.936 -4.321,4.321 V 175.56 l 144.036,-0.027 z"
     style="display:inline;fill:#ffffff;fill-opacity:1;fill-rule:evenodd;stroke:none"
     transform="matrix(1.3333333,0,0,-1.3333333,126.21373,311.048)" />
  <path
     id="gradient_bnd"
     d="m 6.58,236.286 c -2.39,0 -4.33,-1.94 -4.33,-4.33 v 0 -1.674 h 144.036 v 1.674 c 0,2.39 -1.94,4.33 -4.33,4.33 v 0 z"
     transform="matrix(1.3333333,0,0,-1.3333333,0,318.048)"
     style="display:inline;fill:url(#linearGradient5);stroke:none;fill-opacity:1" />
  <path
     id="grid"
     style="display:inline;fill:#333333;fill-opacity:1;fill-rule:nonzero;stroke:none"
     transform="matrix(1.3333333,0,0,-1.3333333,0,318.048)"
     d="M 146.286,186.041 H 2.25 v 0.75 h 144.036 z m 0,18.674 H 2.25 v 0.75 h 144.036 z m 0,18.673 H 2.25 v 0.75 h 144.036 z m -2.903,-42.606 h -0.75 v 49.501 h 0.75 z m -19.624,0 h -0.75 v 49.501 h 0.75 z m -19.624,0 h -0.75 v 49.501 h 0.75 z m -19.625,0 h -0.75 v 49.501 h 0.75 z m -19.624,0 h -0.75 v 49.501 h 0.75 z m -19.624,0 h -0.75 v 49.501 h 0.75 z m -19.625,0 h -0.75 v 49.501 h 0.75 z m -19.624,0 h -0.75 v 49.501 h 0.75 z" />
  <path
     id="path34"
     d="M 146.286,230.282 H 2.25 v -49.501 h 144.036 z m -0.25,-49.25 H 2.5 v 49.001 h 143.536 z"
     style="display:inline;fill:#ffffff;fill-opacity:1;fill-rule:nonzero;stroke:none"
     transform="matrix(1.3333333,0,0,-1.3333333,0,318.048)" />
  <path
     d="m 0,0 v 0.002 c -0.059,0 -0.119,-0.001 -0.178,0.001 -0.853,0.023 -1.706,0.003 -2.559,-0.021 -0.152,-0.004 -0.304,-0.009 -0.455,-0.016 -0.423,-0.02 -0.846,-0.039 -1.268,-0.061 -0.277,-0.015 -0.555,-0.029 -0.831,-0.052 -0.349,-0.029 -0.698,-0.067 -1.046,-0.101 -0.441,-0.044 -0.882,-0.081 -1.322,-0.134 -0.59,-0.072 -1.18,-0.146 -1.768,-0.237 -0.763,-0.12 -1.525,-0.253 -2.286,-0.39 -0.968,-0.174 -1.929,-0.391 -2.885,-0.626 -0.866,-0.213 -1.724,-0.455 -2.578,-0.71 -1.343,-0.4 -2.666,-0.859 -3.972,-1.365 -1.171,-0.453 -2.325,-0.948 -3.458,-1.487 -0.454,-0.216 -0.904,-0.439 -1.357,-0.655 -1,-0.479 -1.93,-1.069 -2.799,-1.756 -0.592,-0.468 -1.149,-0.974 -1.679,-1.512 -0.828,-0.842 -1.56,-1.759 -2.183,-2.763 -0.567,-0.913 -1.029,-1.875 -1.378,-2.893 -0.404,-1.181 -0.658,-2.395 -0.762,-3.637 -0.09,-1.076 -0.087,-2.152 0.021,-3.228 0.082,-0.823 0.22,-1.636 0.441,-2.435 0.049,-0.178 0.09,-0.358 0.128,-0.539 0.315,-1.491 0.763,-2.941 1.368,-4.34 0.612,-1.419 1.36,-2.761 2.259,-4.019 0.742,-1.041 1.557,-2.021 2.446,-2.939 0.492,-0.509 1.005,-0.995 1.542,-1.456 0.356,-0.306 0.71,-0.615 1.082,-0.901 0.956,-0.738 2.044,-1.145 3.247,-1.249 0.503,-0.044 1.003,-0.032 1.504,0.034 0.414,0.056 0.821,0.135 1.217,0.269 0.792,0.269 1.5,0.683 2.129,1.235 0.877,0.769 1.538,1.686 1.933,2.788 0.033,0.093 0.077,0.183 0.125,0.269 0.07,0.127 0.147,0.251 0.225,0.374 0.627,0.984 1.391,1.844 2.306,2.571 0.802,0.637 1.675,1.156 2.607,1.575 1.039,0.468 2.112,0.837 3.227,1.079 0.316,0.069 0.632,0.14 0.949,0.202 0.545,0.105 1.093,0.195 1.645,0.257 0.44,0.049 0.88,0.096 1.321,0.134 0.323,0.027 0.647,0.042 0.971,0.057 0.64,0.029 1.282,0.028 1.923,0.003 0.33,-0.013 0.66,-0.032 0.991,-0.032 0.608,-10e-4 1.216,0.019 1.824,0.017 0.907,-0.003 1.811,-0.061 2.71,-0.171 0.847,-0.104 1.688,-0.242 2.522,-0.422 0.86,-0.185 1.705,-0.424 2.528,-0.734 1.157,-0.435 2.249,-0.99 3.245,-1.726 0.684,-0.505 1.299,-1.084 1.848,-1.732 0.385,-0.456 0.721,-0.946 1.021,-1.461 0.06,-0.102 0.11,-0.211 0.151,-0.322 0.124,-0.335 0.264,-0.662 0.444,-0.972 0.499,-0.859 1.156,-1.574 1.955,-2.161 0.958,-0.704 2.037,-1.083 3.219,-1.16 0.541,-0.036 1.082,-0.019 1.621,0.068 0.979,0.156 1.866,0.524 2.666,1.105 0.402,0.292 0.768,0.627 1.141,0.954 1.061,0.929 2.057,1.922 2.948,3.018 0.459,0.565 0.901,1.142 1.31,1.744 0.692,1.019 1.29,2.092 1.807,3.209 0.621,1.342 1.098,2.733 1.445,4.169 0.087,0.36 0.157,0.724 0.253,1.081 0.322,1.206 0.508,2.431 0.538,3.678 0.021,0.88 0.004,1.758 -0.112,2.633 -0.084,0.636 -0.195,1.265 -0.349,1.889 -0.387,1.56 -1.026,3.01 -1.9,4.358 -0.505,0.778 -1.078,1.503 -1.709,2.183 -0.509,0.548 -1.05,1.062 -1.624,1.542 -0.452,0.378 -0.923,0.729 -1.414,1.054 -0.59,0.392 -1.21,0.73 -1.845,1.044 -1.381,0.682 -2.78,1.325 -4.211,1.894 -0.817,0.324 -1.637,0.639 -2.47,0.92 -0.525,0.178 -1.053,0.35 -1.582,0.517 -0.989,0.313 -1.989,0.586 -2.995,0.839 -0.942,0.237 -1.89,0.448 -2.846,0.622 -0.643,0.118 -1.287,0.234 -1.933,0.335 -0.627,0.098 -1.256,0.18 -1.885,0.261 -0.439,0.056 -0.88,0.1 -1.32,0.144 -0.342,0.035 -0.685,0.066 -1.027,0.09 C 6.269,-0.157 5.722,-0.125 5.174,-0.09 5.062,-0.083 4.95,-0.079 4.838,-0.074 4.455,-0.055 4.072,-0.033 3.689,-0.019 3.378,-0.008 3.067,-0.005 2.757,-0.003 2.234,0 1.712,-0.001 1.19,0 0.793,0 0.397,0 0,0"
     style="display:inline;fill:#000000;fill-opacity:1;fill-rule:nonzero;stroke:none"
     transform="matrix(1.3333333,0,0,-1.3333333,59.011867,18.250133)"
     id="padbg" />
  <path
     id="padoutline"
     style="display:inline;fill:#ffffff;fill-opacity:1;fill-rule:nonzero;stroke:none"
     transform="matrix(1.3333333,0,0,-1.3333333,62.450533,56.275333)"
     d="m 0,0 h 0.089 c 0.904,-0.003 1.823,-0.061 2.73,-0.172 0.879,-0.108 1.733,-0.251 2.536,-0.425 0.918,-0.197 1.753,-0.44 2.553,-0.74 1.261,-0.475 2.336,-1.047 3.285,-1.749 0.686,-0.507 1.318,-1.099 1.876,-1.759 0.374,-0.442 0.714,-0.927 1.039,-1.484 0.061,-0.106 0.116,-0.223 0.163,-0.348 0.141,-0.382 0.278,-0.682 0.432,-0.947 0.475,-0.817 1.117,-1.527 1.908,-2.109 0.915,-0.673 1.969,-1.052 3.131,-1.128 0.559,-0.038 1.076,-0.016 1.584,0.066 2.515702,0.401131 5.130327,3.1462571 6.651,5.017 0.52,0.641 0.933,1.192 1.301,1.732 0.665,0.98 1.269,2.052 1.793,3.186 0.604,1.304 1.086,2.696 1.435,4.138 0.035,0.147 0.068,0.295 0.101,0.443 0.047,0.215 0.095,0.429 0.153,0.641 0.325,1.217 0.504,2.441 0.532,3.639 0.023,1.029 -0.012,1.856 -0.111,2.606 -0.091,0.688 -0.203,1.3 -0.345,1.871 -0.376,1.515 -1.008,2.964 -1.879,4.307 -0.483,0.746 -1.052,1.472 -1.69,2.16 -0.502,0.541 -1.043,1.055 -1.609,1.529 -0.44,0.367 -0.91,0.718 -1.399,1.042 -0.525,0.348 -1.105,0.676 -1.827,1.033 -1.525,0.754 -2.899,1.371 -4.198,1.888 -0.674,0.268 -1.562,0.614 -2.461,0.918 -0.525,0.178 -1.051,0.349 -1.58,0.515 -0.885,0.281 -1.862,0.554 -2.985,0.837 -0.994,0.25 -1.921,0.453 -2.835,0.62 -0.642,0.117 -1.284,0.233 -1.929,0.334 -0.625,0.097 -1.253,0.18 -1.881,0.26 -0.418,0.054 -0.84,0.096 -1.26,0.139 l -0.055,0.005 c -0.34,0.034 -0.682,0.065 -1.022,0.089 -0.437,0.032 -0.873,0.059 -1.31,0.086 l -1.02,0.054 c -0.264,0.014 -0.528,0.028 -0.792,0.038 -0.309,0.011 -0.619,0.013 -0.927,0.015 -0.365,0.003 -0.731,0.003 -1.096,0.003 l -1.843,0.004 c -0.841,0.024 -1.685,0.003 -2.55,-0.021 -0.15,-0.004 -0.301,-0.009 -0.452,-0.016 -0.422,-0.02 -0.844,-0.039 -1.266,-0.061 L -7.105,28.252 C -7.356,28.239 -7.606,28.226 -7.856,28.205 -8.11,28.184 -8.363,28.158 -8.617,28.132 l -0.656,-0.065 c -0.315,-0.029 -0.63,-0.059 -0.945,-0.097 -0.567,-0.069 -1.171,-0.144 -1.762,-0.237 -0.762,-0.119 -1.522,-0.252 -2.282,-0.388 -0.861,-0.156 -1.774,-0.354 -2.875,-0.625 -0.772,-0.19 -1.589,-0.415 -2.571,-0.707 -1.279,-0.382 -2.611,-0.839 -3.959,-1.361 -1.184,-0.459 -2.344,-0.958 -3.446,-1.483 -0.254,-0.12 -0.507,-0.243 -0.76,-0.366 l -0.596,-0.288 c -0.961,-0.46 -1.892,-1.044 -2.767,-1.736 -0.569,-0.45 -1.128,-0.954 -1.663,-1.498 -0.835,-0.848 -1.562,-1.768 -2.161,-2.734 -0.566,-0.912 -1.024,-1.874 -1.361,-2.859 -0.398,-1.161 -0.652,-2.371 -0.755,-3.597 -0.09,-1.079 -0.083,-2.155 0.021,-3.196 0.088,-0.874 0.23,-1.662 0.436,-2.407 0.05,-0.182 0.093,-0.365 0.131,-0.55 0.318,-1.509 0.775,-2.959 1.357,-4.308 0.615,-1.424 1.37,-2.766 2.241,-3.988 0.738,-1.033 1.555,-2.015 2.43,-2.919 0.496,-0.513 1.012,-0.999 1.532,-1.446 l 0.126,-0.108 c 0.307,-0.264 0.625,-0.537 0.948,-0.787 0.913,-0.704 1.976,-1.112 3.16,-1.215 0.487,-0.043 0.98,-0.032 1.466,0.034 0.465,0.062 0.842,0.145 1.185,0.261 0.76,0.258 1.457,0.663 2.073,1.203 0.881,0.772 1.516,1.686 1.886,2.717 0.036,0.102 0.083,0.201 0.136,0.295 0.072,0.13 0.15,0.257 0.23,0.382 0.643,1.009 1.431,1.888 2.343,2.613 0.787,0.624 1.676,1.161 2.643,1.597 1.087,0.489 2.184,0.856 3.26,1.089 l 0.202,0.044 c 0.25,0.056 0.5,0.111 0.752,0.159 0.617,0.119 1.159,0.204 1.658,0.259 0.441,0.05 0.883,0.096 1.325,0.134 0.325,0.028 0.651,0.043 0.977,0.058 0.624,0.027 1.275,0.03 1.937,0.003 l 0.244,-0.01 C -1.941,-0.02 -1.405,-0.018 -0.871,-0.009 -0.581,-0.004 -0.291,0 0,0 m 20.225,-11.457 c -0.09,0 -0.18,0.004 -0.271,0.012 -0.462,0.043 -1.006,0.105 -1.532,0.243 -0.859,0.226 -1.644,0.617 -2.335,1.163 -0.605,0.479 -1.128,1.032 -1.554,1.643 -0.303,0.435 -0.528,0.858 -0.688,1.296 -0.14,0.383 -0.352,0.725 -0.542,1.01 -0.467,0.701 -1.033,1.354 -1.683,1.941 -0.457,0.412 -0.978,0.799 -1.549,1.15 -1.085,0.668 -2.282,1.183 -3.66,1.575 -0.739,0.21 -1.511,0.38 -2.36,0.52 -0.245,0.04 -0.49,0.071 -0.736,0.101 -0.186,0.023 -0.372,0.046 -0.558,0.074 -0.511,0.075 -1.022,0.109 -1.545,0.14 -0.747,0.045 -1.436,0.056 -2.106,0.04 l -0.255,-0.01 c -0.127,-0.005 -0.254,-0.011 -0.381,-0.013 -0.196,-0.001 -0.388,0 -0.582,0.006 -0.12,0.003 -0.241,0.007 -0.361,0.013 -0.183,0.007 -0.365,0.014 -0.548,0.016 l -0.077,0.001 c -0.512,0.003 -1.027,0.007 -1.543,-0.006 -0.375,-0.011 -0.787,-0.038 -1.295,-0.083 -0.558,-0.051 -0.986,-0.1 -1.389,-0.159 -0.539,-0.078 -1.075,-0.171 -1.593,-0.273 -0.706,-0.141 -1.345,-0.306 -1.955,-0.506 -1.256,-0.413 -2.231,-0.848 -3.069,-1.368 -0.928,-0.575 -1.68,-1.184 -2.3,-1.862 -0.535,-0.585 -0.966,-1.169 -1.316,-1.785 -0.051,-0.09 -0.091,-0.187 -0.129,-0.284 -0.152,-0.389 -0.367,-0.895 -0.681,-1.36 -0.678,-1.005 -1.462,-1.756 -2.395,-2.297 -0.715,-0.413 -1.499,-0.684 -2.331,-0.806 -0.472,-0.069 -0.889,-0.099 -1.274,-0.084 -1.49,0.045 -2.802,0.492 -3.899,1.326 -0.252,0.191 -0.513,0.403 -0.823,0.667 -0.729,0.623 -1.348,1.202 -1.895,1.771 -0.849,0.884 -1.632,1.821 -2.329,2.784 -1.16,1.603 -2.111,3.381 -2.827,5.285 -0.438,1.162 -0.783,2.361 -1.025,3.564 -0.025,0.127 -0.06,0.253 -0.095,0.378 l -0.055,0.209 c -0.157,0.618 -0.274,1.262 -0.358,1.969 -0.082,0.691 -0.12,1.375 -0.114,2.034 -0.006,0.621 0.019,1.198 0.078,1.764 0.102,0.975 0.272,1.868 0.518,2.732 0.311,1.091 0.731,2.119 1.246,3.056 0.544,0.987 1.186,1.909 1.911,2.741 0.549,0.63 1.167,1.242 1.888,1.871 0.754,0.658 1.569,1.242 2.424,1.736 0.317,0.183 0.626,0.347 0.921,0.49 0.786,0.381 1.572,0.761 2.365,1.124 1.13,0.518 2.39,1.028 3.853,1.557 1.094,0.396 2.169,0.745 3.196,1.037 l 0.17,0.049 c 0.421,0.119 0.842,0.239 1.265,0.349 1.203,0.313 2.28,0.56 3.294,0.754 0.741,0.143 1.72,0.325 2.724,0.466 0.634,0.089 1.268,0.164 1.904,0.24 l 0.125,0.015 c 0.441,0.052 0.883,0.098 1.325,0.14 0.384,0.035 0.768,0.069 1.152,0.091 1.814,0.106 3.477,0.147 5.087,0.116 0.381,-0.008 0.759,-0.005 1.139,-0.002 0.347,0.002 0.695,0.005 1.042,0.001 0.741,-0.01 1.47,-0.031 2.166,-0.061 0.711,-0.031 1.471,-0.075 2.32,-0.134 0.379,-0.027 0.758,-0.067 1.135,-0.108 L 5.752,28.571 C 6.121,28.532 6.49,28.489 6.858,28.443 7.187,28.402 7.517,28.359 7.845,28.309 L 8.179,28.257 C 8.703,28.176 9.226,28.095 9.748,28 c 0.709,-0.129 1.42,-0.275 2.084,-0.415 0.845,-0.177 1.738,-0.397 2.895,-0.713 0.964,-0.264 1.952,-0.568 3.02,-0.93 1.196,-0.404 2.416,-0.867 3.623,-1.374 0.991,-0.416 2.042,-0.9 3.214,-1.478 0.51,-0.252 1.176,-0.593 1.82,-1.006 0.697,-0.446 1.382,-0.968 2.038,-1.552 0.72,-0.641 1.394,-1.346 2.002,-2.097 1.055,-1.301 1.879,-2.74 2.45,-4.278 0.384,-1.039 0.653,-2.109 0.799,-3.181 0.076,-0.546 0.12,-1.002 0.141,-1.435 0.005,-0.093 0.013,-0.187 0.02,-0.28 C 33.86,9.191 33.866,9.12 33.871,9.049 33.893,8.744 33.892,8.425 33.868,8.077 L 33.86,7.966 C 33.82,7.396 33.779,6.808 33.698,6.229 33.619,5.663 33.5,5.071 33.325,4.367 33.274,4.162 33.226,3.957 33.177,3.751 33.128,3.546 33.078,3.34 33.027,3.134 32.715,1.863 32.351,0.741 31.913,-0.299 31.49,-1.304 31.048,-2.199 30.561,-3.035 29.851,-4.253 29.009,-5.433 28.06,-6.541 27.337,-7.383 26.549,-8.189 25.715,-8.935 l -0.052,-0.047 c -1.235935,-1.228763 -2.666474,-2.064903 -4.389,-2.38 l -0.169,-0.024 c -0.15,-0.022 -0.3,-0.043 -0.452,-0.053 -0.144,-0.009 -0.286,-0.018 -0.428,-0.018 M -14.5176,3.5223001 c 0,-0.153 -0.124,-0.278 -0.278,-0.278 -0.153,0 -0.277,0.125 -0.277,0.278 0,0.153 0.124,0.278 0.277,0.278 0.154,0 0.278,-0.125 0.278,-0.278 m -14.6521,0 c 0,-0.153 -0.124,-0.278 -0.278,-0.278 -0.153,0 -0.277,0.125 -0.277,0.278 0,0.153 0.124,0.278 0.277,0.278 0.154,0 0.278,-0.125 0.278,-0.278 M -14.5176,17.087 c 0,-0.153 -0.124,-0.278 -0.278,-0.278 -0.153,0 -0.277,0.125 -0.277,0.278 0,0.153 0.124,0.278 0.277,0.278 0.154,0 0.278,-0.125 0.278,-0.278 m -14.6521,0 c 0,-0.153 -0.124,-0.278 -0.278,-0.278 -0.153,0 -0.277,0.125 -0.277,0.278 0,0.153 0.124,0.278 0.277,0.278 0.154,0 0.278,-0.125 0.278,-0.278 m -3.6514,-6.7017 1.482,-0.6420002 V 11.0273 Z m 21.3813,0 -1.482,0.642 V 9.7432998 Z m -10.690601,-10.69070001 0.642,1.48200001 h -1.284 z m 0,21.38130101 -0.642,-1.482 h 1.284 z M 23.785101,12.8702 c -0.067,0.182 -0.051,0.359 0.049,0.531 0.114,0.198 0.299,0.344 0.552,0.438 0.331,0.123 0.641,0.098 0.929,-0.073 l -0.238,-0.2 c -0.208,0.096 -0.416,0.103 -0.626,0.025 -0.153,-0.056 -0.264,-0.142 -0.331,-0.256 -0.067,-0.112 -0.078,-0.231 -0.033,-0.353 0.046,-0.125 0.133,-0.207 0.26,-0.249 0.129,-0.04 0.274,-0.031 0.438,0.029 0.205,0.076 0.35,0.218 0.436,0.426 l 0.307,-0.044 c -0.06,-0.154 -0.141,-0.279 -0.243,-0.378 -0.103,-0.098 -0.234,-0.177 -0.397,-0.237 -0.217,-0.08 -0.432,-0.098 -0.644,-0.056 -0.104,0.019 -0.196,0.065 -0.278,0.136 -0.082,0.069 -0.142,0.157 -0.181,0.261 m -6.4092,-3.4356003 0.727,0.352 c 0.058,0.028 0.097,0.062 0.117,0.099 0.019,0.037 0.019,0.075 0,0.1150003 -0.021,0.043 -0.053,0.07 -0.097,0.081 -0.043,0.012 -0.092,0.004 -0.146,-0.022 l -0.732,-0.3540003 z m -0.242,0.5 0.726,0.3520003 c 0.034,0.016 0.056,0.04 0.068,0.075 0.012,0.034 0.01,0.068 -0.007,0.102 -0.016,0.033 -0.042,0.056 -0.076,0.065 -0.034,0.01 -0.071,0.007 -0.11,-0.012 l -0.714,-0.347 z m 0.063,-0.87 -0.577,1.1940003 1.004,0.486 c 0.067,0.032 0.137,0.05 0.209,0.054 0.072,0.005 0.139,-0.006 0.2,-0.031 0.082,-0.033 0.141,-0.088 0.178,-0.163 0.046,-0.096 0.043,-0.191 -0.009,-0.288 0.159,-0.006 0.267,-0.069 0.323,-0.186 0.049,-0.1 0.048,-0.2020003 -0.003,-0.3050003 -0.05,-0.104 -0.145,-0.19 -0.283,-0.256 z M 10.2675,6.0903999 l 0.498,0.302 -0.531,0.313 z m -0.24,-0.778 -0.087,1.498 0.34,0.206 1.289,-0.767 -0.279,-0.169 -0.277,0.165 -0.725,-0.441 0.018,-0.323 z m -35.674801,1.3618998 c -0.071,0.074 -0.116,0.164 -0.217,0.202 -0.06,-0.09 -0.075,-0.184 -0.094,-0.3 0.119,0.008 0.216,0.025 0.311,0.098 m -0.475,-0.386 c -0.091,-0.003 -0.13,0.04 -0.113,0.123 0.014,0.071 0.036,0.141 0.055,0.211 0.039,0.139 0.078,0.279 0.117,0.418 0.011,0.038 0.02,0.077 0.034,0.113 0.041,0.101 0.106,0.122 0.181,0.05 0.17,-0.165 0.337,-0.333 0.501,-0.505 0.077,-0.082 0.059,-0.171 -0.042,-0.203 -0.225,-0.072 -0.454,-0.135 -0.682,-0.201 -0.018,-0.006 -0.039,-0.004 -0.051,-0.006 M -18.4432,13.8546 c 0.087,0.081 0.105,0.134 0.098,0.307 -0.098,-0.031 -0.199,-0.032 -0.286,-0.109 0.052,-0.084 0.115,-0.146 0.188,-0.198 m 0.117,-0.389 c -0.059,0.041 -0.106,0.065 -0.142,0.1 -0.144,0.136 -0.284,0.276 -0.425,0.414 -0.014,0.014 -0.028,0.028 -0.041,0.043 -0.075,0.093 -0.062,0.153 0.042,0.201 0.03,0.014 0.061,0.026 0.092,0.035 0.177,0.054 0.353,0.108 0.529,0.161 0.032,0.009 0.064,0.017 0.097,0.022 0.103,0.016 0.154,-0.035 0.128,-0.136 -0.063,-0.242 -0.13,-0.483 -0.199,-0.723 -0.01,-0.035 -0.043,-0.064 -0.081,-0.117 m -7.6297,0.7215 c 0.003,-0.124 0.039,-0.219 0.093,-0.325 0.098,0.061 0.172,0.124 0.213,0.225 -0.085,0.074 -0.187,0.065 -0.306,0.1 m -0.166,0.276 c 0.009,-0.002 0.035,-0.003 0.06,-0.01 0.215,-0.061 0.431,-0.118 0.644,-0.185 0.145,-0.046 0.166,-0.12 0.063,-0.23 -0.152,-0.163 -0.315,-0.317 -0.474,-0.474 -0.018,-0.018 -0.043,-0.037 -0.066,-0.04 -0.029,-0.002 -0.07,0.003 -0.087,0.021 -0.03,0.033 -0.051,0.077 -0.065,0.12 -0.067,0.213 -0.131,0.427 -0.196,0.64 -0.003,0.013 -0.005,0.026 -0.007,0.039 -0.012,0.082 0.026,0.123 0.128,0.119 m 7.7816,-7.9251001 c -0.006,0.059 -0.004,0.085 -0.011,0.108 -0.021,0.068 -0.045,0.134 -0.071,0.212 -0.108,-0.056 -0.174,-0.129 -0.241,-0.228 0.11,-0.031 0.202,-0.058 0.323,-0.092 m 0.167,-0.268 c -0.067,0.017 -0.144,0.036 -0.22,0.057 -0.139,0.037 -0.279,0.076 -0.418,0.115 -0.038,0.01 -0.077,0.019 -0.113,0.035 -0.082,0.036 -0.1,0.105 -0.047,0.175 0.011,0.016 0.025,0.03 0.039,0.044 0.149,0.149 0.298,0.297 0.448,0.445 0.014,0.014 0.029,0.027 0.044,0.039 0.066,0.049 0.122,0.036 0.158,-0.041 0.017,-0.036 0.031,-0.073 0.042,-0.111 0.06,-0.194 0.119,-0.39 0.178,-0.585 0.006,-0.018 0.013,-0.037 0.016,-0.056 0.011,-0.073 -0.043,-0.127 -0.127,-0.117 M -23.192,10.3713 c -0.02,-0.5929997 0.543,-1.0609997 1.042,-1.0589997 0.496,0.002 1.051,0.399 1.052,1.0419997 10e-4,0.572 -0.458,1.043 -1.017,1.057 -0.621,0.016 -1.092,-0.535 -1.077,-1.04 m 1.031,-1.2649997 c -0.614,-0.036 -1.244,0.543 -1.247,1.2489997 -0.002,0.6 0.484,1.281 1.272,1.271 0.791,-0.009 1.254,-0.646 1.252,-1.266 -0.002,-0.7439997 -0.631,-1.2939997 -1.277,-1.2539997 M 24.529001,16.2979 c -0.433,0 -0.62,-0.024 -0.92,-0.114 -0.634,-0.188 -1.151,-0.552 -1.58,-1.048 -0.311,-0.361 -0.539,-0.768 -0.656,-1.231 -0.131,-0.52 -0.136,-1.048 -0.028,-1.572 0.132,-0.641 0.454,-1.179 0.924,-1.63 0.419,-0.4 0.899,-0.695 1.471,-0.8189998 0.993,-0.216 1.919,-0.07 2.747,0.5449998 0.591,0.439 0.996,1.014 1.203,1.724 0.107,0.366 0.125,0.741 0.104,1.119 -0.02,0.381 -0.103,0.746 -0.261,1.092 -0.269,0.593 -0.685,1.063 -1.224,1.425 -0.321,0.216 -0.672,0.363 -1.051,0.449 -0.241,0.055 -0.484,0.06 -0.729,0.06 m -3.473,-3.295 c -0.068,1.895 1.568,3.518 3.373,3.522 1.917,0.085 3.561,-1.48 3.595,-3.403 0.036,-1.95 -1.518,-3.4909998 -3.369,-3.5499998 -2.07,-0.065 -3.625,1.6319998 -3.599,3.4309998 m -10.4356,-3.6071 c -0.112,0 -0.225,0.002 -0.337,0 -0.219,-0.005 -0.4330002,-0.047 -0.6410002,-0.116 -0.708,-0.233 -1.266,-0.67 -1.703,-1.267 -0.379,-0.518 -0.554,-1.105 -0.573,-1.741 -0.014,-0.447 0.045,-0.885 0.215,-1.3 0.278,-0.682 0.735,-1.222 1.362,-1.604 0.757,-0.462 1.5800002,-0.576 2.4410002,-0.38 0.883,0.201 1.55,0.715 2.036,1.467 0.352,0.543 0.493,1.149 0.475,1.792 -0.015,0.529 -0.138,1.032 -0.406,1.494 -0.341,0.586 -0.813,1.035 -1.413,1.35 -0.236,0.124 -0.485,0.205 -0.746,0.259 -0.235,0.049 -0.472,0.046 -0.71,0.046 m 3.484,-3.223 c 0.049,-1.821 -1.453,-3.481 -3.458,-3.492 -2.0660002,-0.011 -3.5250002,1.711 -3.5060002,3.517 0.02,1.942 1.726,3.532 3.5220002,3.434 1.78,0.06 3.486,-1.533 3.442,-3.459 m 3.428,0.4710999 c 1.733,-0.053 3.292,1.408 3.291,3.253 -0.002,1.8210001 -1.576,3.3420001 -3.357,3.2540001 -1.556,0.031 -3.194,-1.379 -3.189,-3.2580001 0.006,-1.867 1.614,-3.309 3.255,-3.249 m -0.001,6.7170001 c 0.825,0.016 1.533,-0.221 2.149,-0.712 0.64,-0.51 1.087,-1.15 1.263,-1.959 0.19,-0.8730001 0.096,-1.7150001 -0.35,-2.4930001 -0.499,-0.87 -1.234,-1.451 -2.224,-1.684 -0.708,-0.167 -1.403,-0.119 -2.084,0.135 -0.598,0.222 -1.08,0.605 -1.477,1.098 -0.421,0.523 -0.65,1.122 -0.72,1.792 -0.197,1.8670001 1.051,3.1590001 2.178,3.6020001 0.417,0.164 0.851,0.239 1.265,0.221 M -23.6183,12.0894 c -0.082,-0.082 -0.151,-0.152 -0.225,-0.227 0.236,-0.077 0.269,-0.053 0.254,0.17 -10e-4,0.011 -0.011,0.022 -0.029,0.057 m 2.929,-3.1939997 c 0,-0.114 -0.001,-0.211 0,-0.308 10e-4,-0.017 0.011,-0.033 0.023,-0.069 0.123,0.127 0.236,0.244 0.376,0.388 -0.148,0.008 -0.26,0.014 -0.399,-0.011 m -3.304,0.009 c 0.133,-0.138 0.241,-0.249 0.363,-0.374 0.036,0.138 0.042,0.256 0,0.379 -0.114,0.015 -0.222,0.01 -0.363,-0.005 m 3.326,3.2779997 c -0.032,-0.156 -0.031,-0.219 0.004,-0.355 0.184,-0.028 0.242,-0.025 0.358,0.018 -0.116,0.115 -0.23,0.227 -0.345,0.34 -0.002,0.002 -0.011,-0.002 -0.017,-0.003 m -7.159,-3.2749997 c -0.006,-0.037 -0.012,-0.05 -0.01,-0.062 0.009,-0.045 0.018,-0.091 0.03,-0.135 0.155,-0.573 0.406,-1.103 0.745,-1.589 0.394,-0.568 0.863,-1.067 1.415,-1.487 0.569,-0.434 1.195,-0.754 1.884,-0.945 0.041,-0.011 0.086,-0.01 0.139,-0.015 0.005,0.059 0.011,0.104 0.011,0.149 0.001,0.932 0.001,1.864 0,2.796 0,0.079 0.003,0.159 -0.008,0.237 -0.012,0.091 -0.027,0.184 -0.058,0.27 -0.156,0.429 -0.616,0.808 -1.109,0.787 -0.046,-0.002 -0.093,0.001 -0.139,0.001 -0.899,0 -1.798,10e-4 -2.697,10e-4 -0.065,0 -0.13,-0.005 -0.203,-0.008 m 11.372,2.9129997 c 0.007,0.035 0.012,0.048 0.011,0.061 -10e-4,0.019 -0.004,0.039 -0.009,0.058 -0.159,0.549 -0.379,1.07 -0.694,1.549 -0.434,0.658 -0.975,1.215 -1.61,1.679 -0.544,0.398 -1.141,0.69 -1.793,0.863 -0.043,0.011 -0.086,0.035 -0.142,-0.015 v -0.165 c 0,-0.872 -0.001,-1.744 -0.001,-2.616 0,-0.093 -0.002,-0.186 0.004,-0.278 0.021,-0.348 0.165,-0.635 0.435,-0.857 0.233,-0.191 0.496,-0.29 0.802,-0.289 0.945,0.005 1.89,0.002 2.835,0.002 0.052,0 0.104,0.005 0.162,0.008 m -11.38,0.019 c 0.052,-0.006 0.091,-0.014 0.129,-0.014 0.766,-10e-4 1.532,-0.002 2.298,-0.002 0.185,0 0.37,0 0.555,0.002 0.179,0.002 0.357,0.015 0.529,0.068 0.315,0.096 0.546,0.285 0.654,0.607 0.055,0.164 0.078,0.334 0.079,0.506 0.002,0.977 10e-4,1.954 0,2.932 0,0.036 -0.011,0.072 -0.016,0.103 -0.027,0.004 -0.04,0.009 -0.053,0.007 -0.02,-0.001 -0.039,-0.005 -0.058,-0.01 -0.536,-0.155 -1.046,-0.368 -1.515,-0.671 -0.632,-0.409 -1.178,-0.913 -1.642,-1.506 -0.437,-0.558 -0.748,-1.18 -0.937,-1.863 -0.014,-0.048 -0.015,-0.1 -0.023,-0.159 m 11.386,-2.9359997 c -0.057,0.003 -0.114,0.008 -0.172,0.008 -0.879,0 -1.758,0 -2.637,-0.001 -0.086,0 -0.172,0 -0.258,-0.002 -0.688,-0.019 -1.186,-0.603 -1.176,-1.205 0.003,-0.166 -0.001,-0.331 -0.001,-0.496 0,-0.78 -0.001,-1.56 0,-2.34 0,-0.063 -0.015,-0.131 0.025,-0.189 0.323,0.011 1.169,0.374 1.571,0.63 0.866,0.554 1.573,1.265 2.096,2.153 0.271,0.462 0.546,1.177 0.552,1.442 m -6.939,-4.288 c 0.558,-0.159 2.001,-0.155 2.472,0.002 0.004,0.041 0.013,0.085 0.013,0.13 0.002,0.205 0.001,0.41 0.001,0.615 0,1.163 0,2.326 0.002,3.49 0,0.085 -0.015,0.172 0.024,0.253 0.075,0.044 0.156,0.03 0.234,0.03 1.335,0.002 2.671,0.002 4.006,0.004 0.085,0 0.172,-0.013 0.267,0.022 0.014,0.074 0.034,0.15 0.043,0.228 0.02,0.164 0.035,0.328 0.051,0.493 0.054,0.5299997 0.008,1.0559997 -0.073,1.5789997 -0.006,0.044 -0.027,0.085 -0.043,0.135 -0.094,0.001 -0.179,0.004 -0.264,0.004 -1.349,0 -2.697,-0.001 -4.046,-0.001 -0.058,0 -0.119,-0.016 -0.184,0.039 -0.024,0.11 -0.017,0.235 -0.017,0.359 -0.001,1.064 0,2.128 0,3.192 10e-4,0.265 10e-4,0.529 -0.001,0.794 0,0.043 -0.013,0.087 -0.018,0.126 -0.647,0.179 -1.911,0.174 -2.456,-0.014 -0.002,-0.066 -0.007,-0.137 -0.007,-0.209 v -2.974 c 0,-0.35 0.002,-0.701 0,-1.051 0,-0.078 0.008,-0.158 -0.024,-0.236 -0.081,-0.03 -0.16,-0.018 -0.238,-0.018 -1.355,-10e-4 -2.71,-10e-4 -4.066,-0.002 -0.058,0 -0.117,-0.005 -0.17,-0.008 -0.193,-0.469 -0.197,-1.9299997 -0.005,-2.4429997 0.034,-0.004 0.072,-0.011 0.111,-0.011 h 3.53 c 0.232,0 0.463,10e-4 0.694,0 0.052,0 0.108,0.006 0.16,-0.061 0.001,-0.351 0.002,-0.721 0.003,-1.09 0.001,-0.377 0.001,-0.754 0.001,-1.13 0,-0.37 -0.002,-0.741 -0.001,-1.111 0,-0.375 -0.004,-0.751 0.001,-1.136 m 7.36,5.7209997 c -0.02,-0.8359997 -0.17,-1.6429997 -0.502,-2.4119997 -0.248,-0.576 -0.587,-1.093 -1,-1.563 -0.721,-0.821 -1.584,-1.431 -2.625,-1.782 -0.544,-0.183 -1.102,-0.277 -1.672,-0.305 -0.684,-0.032 -1.358,0.035 -2.02,0.22 -0.782,0.219 -1.484,0.588 -2.112,1.1 -0.443,0.361 -0.831,0.774 -1.169,1.234 -0.493,0.671 -0.816,1.415 -0.986,2.23 -0.091,0.436 -0.138,0.877 -0.133,1.3189997 0.015,1.318 0.37,2.528 1.183,3.586 0.472,0.614 1.025,1.138 1.675,1.558 0.675,0.436 1.411,0.714 2.204,0.849 0.498,0.086 1,0.108 1.501,0.069 1.138,-0.088 2.186,-0.435 3.105,-1.128 0.869,-0.655 1.57,-1.45 2.017,-2.454 0.257,-0.577 0.427,-1.179 0.481,-1.81 0.021,-0.237 0.035,-0.474 0.053,-0.711 m 31.016701,11.3883 c -0.113,0.011 -0.224,-0.023 -0.335,-0.072 -0.248,-0.11 -0.497,-0.215 -0.746,-0.321 -1.246,-0.531 -2.491,-1.061 -3.737,-1.591 -0.054,-0.024 -0.109,-0.048 -0.16,-0.078 -0.2940004,-0.172 -0.4110004,-0.489 -0.3200004,-0.818 0.067,-0.246 0.3560004,-0.534 0.7050004,-0.493 0.104,0.012 0.208,0.036 0.308,0.067 0.094,0.029 0.185,0.071 0.276,0.11 1.403,0.599 2.806,1.198 4.208,1.797 0.043,0.018 0.087,0.033 0.127,0.055 0.219,0.123 0.371,0.296 0.399,0.556 0.044,0.408 -0.282,0.819 -0.725,0.788 m -5.5380004,-2.657 c 0.006,0.407 0.211,0.684 0.5740004,0.847 0.307,0.138 0.62,0.262 0.93,0.394 1.203,0.512 2.406,1.025 3.608,1.54 0.194,0.083 0.39,0.118 0.599,0.086 0.462,-0.07 0.74,-0.463 0.766,-0.841 0.028,-0.405 -0.162,-0.735 -0.535,-0.914 -0.209,-0.099 -0.424,-0.184 -0.637,-0.275 -1.287,-0.549 -2.576,-1.098 -3.863,-1.649 -0.197,-0.084 -0.397,-0.138 -0.614,-0.128 -0.4390004,0.022 -0.8180004,0.422 -0.8280004,0.841 -10e-4,0.033 0,0.066 0,0.099 M 28.462701,12.8696 c 0.011,0.741 -0.139,1.405 -0.469,2.025 -0.316,0.593 -0.753,1.082 -1.287,1.487 -0.52,0.395 -1.101,0.649 -1.744,0.763 -0.307,0.055 -0.618,0.058 -0.929,0.056 -0.213,-0.001 -0.42,-0.036 -0.623,-0.1 -0.088,-0.028 -0.176,-0.057 -0.263,-0.087 -1.583,-0.554 -3.167,-1.108 -4.749,-1.664 -0.548,-0.192 -1.097,-0.383 -1.636,-0.603 -1.643,-0.673 -3.204,-1.503 -4.702,-2.454 -1.027,-0.652 -2.019,-1.356 -2.969,-2.116 -0.465,-0.3710002 -0.922,-0.7520002 -1.38,-1.1310002 -0.234,-0.194 -0.454,-0.404 -0.652,-0.636 -0.334,-0.395 -0.571,-0.84 -0.677,-1.35 -0.065,-0.313 -0.077,-0.629 -0.055,-0.947 0.035,-0.498 0.138,-0.979 0.348,-1.436 0.192,-0.418 0.444,-0.793 0.755,-1.132 0.385,-0.419 0.827,-0.759 1.337,-1.011 0.48,-0.237 0.994,-0.359 1.525,-0.394 0.858,-0.057 1.67,0.109 2.427,0.525 0.792,0.436 1.586,0.872 2.381,1.305 1.962,1.067 3.961,2.06 5.994,2.984 1.498,0.68 3.009,1.329 4.547,1.913 0.565,0.215 1.063,0.531 1.497,0.948 0.494,0.4730002 0.873,1.0250002 1.099,1.6740002 0.159,0.46 0.239,0.934 0.225,1.381 m 0.227,0.036 c -0.012,-0.824 -0.203,-1.599 -0.641,-2.301 -0.567,-0.9080002 -1.34,-1.5750002 -2.35,-1.9520002 -0.96,-0.357 -1.902,-0.759 -2.844,-1.159 -0.883,-0.373 -1.752,-0.775 -2.62,-1.179 -0.802,-0.375 -1.602,-0.754 -2.389,-1.159 -0.664,-0.342 -1.334,-0.671 -1.993,-1.022 -0.868,-0.464 -1.728,-0.943 -2.591,-1.415 -0.163,-0.089 -0.323,-0.182 -0.485,-0.27 -0.464,-0.252 -0.957,-0.405 -1.479,-0.488 -0.874,-0.139 -1.71,-0.008 -2.521,0.326 -0.258,0.106 -0.496,0.249 -0.722,0.411 -0.768,0.547 -1.341,1.25 -1.678,2.134 -0.254,0.667 -0.327,1.361 -0.243,2.067 0.062,0.514 0.267,0.979 0.564,1.402 0.202,0.289 0.443,0.542 0.709,0.772 1.039,0.902 2.114,1.7580002 3.244,2.5430002 1.45,1.009 2.958,1.922 4.557,2.679 0.83,0.393 1.676,0.749 2.543,1.054 1.315,0.463 2.627,0.929 3.942,1.391 0.542,0.19 1.088,0.371 1.631,0.557 0.214,0.074 0.435,0.107 0.661,0.116 0.546,0.02 1.081,-0.031 1.604,-0.202 0.456,-0.15 0.875,-0.37 1.259,-0.657 0.483,-0.359 0.884,-0.795 1.197,-1.308 0.362,-0.591 0.567,-1.234 0.621,-1.925 0.011,-0.138 0.016,-0.277 0.024,-0.415 M -22.0022,19.0152 c -0.779,-0.001 -1.222,-0.039 -1.84,-0.156 -1.261,-0.239 -2.404,-0.748 -3.431,-1.518 -0.445,-0.335 -0.849,-0.714 -1.234,-1.116 -0.593,-0.62 -1.082,-1.315 -1.461,-2.086 -0.532,-1.084 -0.795,-2.235 -0.833,-3.44 -0.019,-0.602 0.016,-1.2019995 0.106,-1.7979995 0.148,-0.971 0.466,-1.883 0.95,-2.736 0.646,-1.138 1.521,-2.074 2.567,-2.853 1.244,-0.928 2.65,-1.436 4.193,-1.575 0.695,-0.062 1.388,-0.044 2.077,0.048 1.188,0.159 2.299,0.538 3.316,1.181 0.85,0.539 1.592,1.199 2.23,1.977 0.473,0.575 0.87,1.197 1.174,1.877 0.451,1.007 0.676,2.068 0.721,3.168 0.031,0.7769995 -0.04,1.5449995 -0.205,2.3039995 -0.203,0.938 -0.551,1.821 -1.075,2.627 -0.846,1.304 -1.941,2.348 -3.304,3.102 -0.628,0.348 -1.295,0.599 -1.993,0.761 -0.691,0.161 -1.394,0.231 -1.958,0.233 m 8.753,-8.681 c 0.003,-1.2059995 -0.222,-2.3659995 -0.693,-3.4759995 -0.238,-0.562 -0.54,-1.089 -0.895,-1.585 -0.336,-0.468 -0.707,-0.908 -1.124,-1.306 -0.847,-0.805 -1.797,-1.454 -2.89,-1.881 -0.574,-0.224 -1.166,-0.383 -1.775,-0.481 -0.656,-0.106 -1.315,-0.137 -1.977,-0.11 -0.722,0.03 -1.43,0.152 -2.126,0.353 -1.117,0.321 -2.114,0.869 -3.004,1.606 -0.908,0.753 -1.674,1.632 -2.246,2.671 -0.417,0.758 -0.705,1.563 -0.874,2.412 -0.14,0.705 -0.176,1.415 -0.162,2.1309995 0.014,0.684 0.109,1.355 0.281,2.017 0.266,1.023 0.715,1.959 1.34,2.81 0.579,0.788 1.26,1.479 2.046,2.062 1.041,0.771 2.202,1.275 3.477,1.516 0.83,0.157 1.667,0.185 2.508,0.126 0.776,-0.055 1.53,-0.213 2.262,-0.474 0.899,-0.321 1.719,-0.783 2.461,-1.382 0.771,-0.623 1.439,-1.342 1.988,-2.169 0.676,-1.019 1.095,-2.136 1.29,-3.34 0.081,-0.496 0.105,-0.998 0.113,-1.5 m 28.277301,12.2203 c -0.218,0.01 -0.434,-0.041 -0.643,-0.133 -0.242,-0.107 -0.485,-0.209 -0.728,-0.313 -1.342,-0.573 -2.681,-1.152 -4.0270004,-1.716 -0.498,-0.209 -0.974,-0.727 -0.968,-1.457 0.006,-0.706 0.499,-1.227 0.999,-1.417 0.4040004,-0.154 0.8030004,-0.123 1.1960004,0.044 1.482,0.63 2.965,1.261 4.447,1.892 0.139,0.06 0.282,0.114 0.416,0.186 0.659,0.353 0.972,0.966 0.831,1.701 -0.12,0.631 -0.733,1.234 -1.523,1.213 m -0.042,0.213 c 0.765,0.008 1.278,-0.326 1.608,-0.925 0.441,-0.8 0.178,-1.907 -0.76,-2.388 -0.205,-0.105 -0.422,-0.188 -0.634,-0.278 -1.246,-0.53 -2.492,-1.058 -3.737,-1.588 -0.188,-0.08 -0.374,-0.167 -0.563,-0.244 -1.0850004,-0.446 -2.1760004,0.213 -2.4040004,1.191 -0.234,1.004 0.336,1.754 1.027,2.046 0.5480004,0.231 1.0940004,0.464 1.6410004,0.697 0.893,0.381 1.785,0.762 2.677,1.143 0.146,0.062 0.295,0.118 0.437,0.188 0.243,0.118 0.5,0.164 0.708,0.158 M 4.3933006,6.0873002 c 0.02,-0.283 0.033,-0.567 0.062,-0.85 0.076,-0.732 0.295,-1.421 0.657,-2.062 0.448,-0.795 1.043,-1.459 1.777,-2.002 0.681,-0.50200005 1.432,-0.84400005 2.263,-1.00600005 0.721,-0.14 1.4460004,-0.153 2.1710004,-0.049 0.89,0.128 1.712,0.439 2.45,0.95800005 0.076,0.054 0.154,0.104 0.232,0.153 0.898,0.571 1.814,1.113 2.74,1.636 1.624,0.916 3.277,1.774 4.964,2.568 1.172,0.551 2.358,1.071 3.559,1.555 0.307,0.124 0.617,0.237 0.92,0.369 0.869,0.379 1.601,0.945 2.215,1.665 0.42,0.491 0.762,1.0309998 0.996,1.6339998 0.414,1.069 0.495,2.171 0.306,3.295 -0.154,0.91 -0.516,1.731 -1.077,2.464 -0.29,0.38 -0.616,0.724 -0.982,1.032 -0.588,0.497 -1.241,0.872 -1.975,1.108 -0.501,0.161 -1.014,0.248 -1.538,0.27 -0.29,0.012 -0.581,0.015 -0.871,-0.02 -0.407,-0.049 -0.814,-0.096 -1.22,-0.146 -0.696,-0.085 -1.388,-0.19 -2.076,-0.321 -1.574,-0.301 -3.114,-0.721 -4.61,-1.297 -1.511,-0.58 -2.943,-1.313 -4.298,-2.198 -0.72,-0.471 -1.4010004,-0.994 -2.0580004,-1.55 -1.079,-0.912 -2.051,-1.926 -2.92,-3.04 -0.151,-0.193 -0.305,-0.3819998 -0.467,-0.5649998 -0.477,-0.541 -0.799,-1.162 -0.99,-1.855 -0.156,-0.571 -0.218,-1.154 -0.23,-1.746 M 23.816301,19.0633 c 0.92,-0.01 1.8,-0.187 2.634,-0.579 0.549,-0.257 1.045,-0.596 1.494,-1 0.631,-0.568 1.142,-1.229 1.504,-1.999 0.304,-0.646 0.484,-1.326 0.538,-2.039 0.061,-0.79 0.007,-1.57 -0.215,-2.336 -0.21,-0.726 -0.549,-1.3859998 -1.008,-1.9849998 -0.592,-0.773 -1.317,-1.389 -2.188,-1.826 -0.265,-0.133 -0.544,-0.241 -0.82,-0.349 -1.607,-0.628 -3.181,-1.33 -4.733,-2.083 -1.457,-0.707 -2.888,-1.463 -4.299,-2.258 -0.91,-0.512 -1.806,-1.048 -2.684,-1.61300005 -0.106,-0.068 -0.206,-0.144 -0.312,-0.211 -0.78,-0.502 -1.636,-0.795 -2.555,-0.908 -0.816,-0.101 -1.6240004,-0.041 -2.4200004,0.16 -0.752,0.191 -1.436,0.531 -2.054,0.99900005 -0.628,0.475 -1.164,1.038 -1.586,1.704 -0.519,0.818 -0.82,1.712 -0.894,2.68 -0.009,0.112 -0.023,0.224 -0.027,0.336 -0.027,0.818 0.054,1.623 0.311,2.405 0.222,0.676 0.569,1.276 1.063,1.791 0.123,0.1279998 0.229,0.2739998 0.338,0.4139998 0.916,1.18 1.949,2.244 3.091,3.206 1.2900004,1.088 2.6960004,1.997 4.2020004,2.752 1.434,0.72 2.929,1.279 4.474,1.707 0.879,0.243 1.769,0.44 2.667,0.599 0.67,0.118 1.344,0.211 2.021,0.285 0.197,0.022 0.392,0.059 0.589,0.078 0.29,0.029 0.58,0.047 0.869,0.07 M -11.1003,10.3944 c -0.011,0.619 -0.057,1.304 -0.178,1.983 -0.215,1.215 -0.621,2.36 -1.242,3.428 -0.838,1.44 -1.956,2.624 -3.297,3.6 -1.097,0.8 -2.312,1.352 -3.633,1.668 -0.82,0.196 -1.651,0.3 -2.494,0.293 -0.179,-10e-4 -0.357,-0.004 -0.536,0.001 -0.418,0.011 -0.832,-0.039 -1.244,-0.092 -0.643,-0.084 -1.276,-0.223 -1.891,-0.43 -0.88,-0.297 -1.715,-0.688 -2.491,-1.203 -1.112,-0.739 -2.071,-1.64 -2.889,-2.691 -0.634,-0.813 -1.132,-1.705 -1.492,-2.672 -0.417,-1.118 -0.642,-2.274 -0.668,-3.467 -0.017,-0.761 0.002,-1.5199997 0.121,-2.2739997 0.144,-0.912 0.398,-1.792 0.771,-2.636 0.393,-0.888 0.907,-1.7 1.526,-2.448 0.584,-0.706 1.238,-1.338 1.963,-1.897 1.2,-0.92500004 2.532,-1.57300004 4.01,-1.91900004 0.716,-0.167 1.443,-0.261 2.178,-0.285 0.814,-0.026 1.625,0.02 2.429,0.156 0.918,0.155 1.8,0.425 2.644,0.813 1.098,0.505 2.066,1.19900004 2.947,2.02100004 0.465,0.434 0.882,0.912 1.272,1.413 0.946,1.214 1.578,2.575 1.923,4.072 0.189,0.821 0.264,1.656 0.271,2.5659997 m -10.836,-11.26599974 c -1.125,0.001 -2.03,0.092 -2.922,0.306 -1.293,0.31 -2.487,0.842 -3.581,1.59700004 -0.65,0.449 -1.251,0.955 -1.798,1.523 -0.891,0.926 -1.633,1.957 -2.171,3.129 -0.351,0.767 -0.608,1.564 -0.767,2.391 -0.186,0.965 -0.247,1.9399997 -0.198,2.9209997 0.047,0.954 0.202,1.892 0.491,2.804 0.496,1.563 1.319,2.934 2.436,4.132 0.812,0.872 1.717,1.627 2.752,2.22 1.006,0.576 2.074,0.987 3.212,1.215 0.682,0.137 1.37,0.22 2.066,0.217 0.403,-0.001 0.807,-0.004 1.21,-0.022 0.256,-0.011 0.513,-0.047 0.768,-0.082 0.557,-0.078 1.106,-0.195 1.644,-0.359 1.038,-0.317 2.008,-0.776 2.903,-1.391 1.335,-0.918 2.443,-2.059 3.32,-3.421 0.75,-1.164 1.24,-2.432 1.489,-3.794 0.173,-0.948 0.231,-1.903 0.178,-2.8629997 -0.066,-1.182 -0.304,-2.33 -0.739,-3.434 -0.351,-0.891 -0.82,-1.716 -1.393,-2.482 -0.892,-1.193 -1.962,-2.196 -3.227,-2.98600004 -0.85,-0.532 -1.759,-0.937 -2.728,-1.204 -0.479,-0.132 -0.964,-0.229 -1.454,-0.303 -0.563,-0.084 -1.131,-0.109 -1.491,-0.114" />
  <path
     id="NFC_LOADING"
     style="fill:#ffffff;fill-opacity:1;fill-rule:evenodd;stroke:none"
     d="M 85.664065 206.57311 L 85.664065 205.79235 L 91.136721 205.79235 C 91.136721 206.31235 90.962236 206.57311 90.615237 206.57311 L 85.664065 206.57311 z M 92.178225 206.57311 C 91.831225 206.57311 91.656741 206.31189 91.656741 205.79089 L 96.607913 205.79089 L 96.607913 206.57311 L 92.178225 206.57311 z M 97.649417 206.57311 C 97.302417 206.57311 97.129397 206.31235 97.129397 205.79235 L 102.60059 205.79235 L 102.60059 206.57311 L 97.649417 206.57311 z M 105.02783 206.57311 L 105.02783 205.79089 L 106.33008 205.79089 L 106.33008 206.57311 L 105.02783 206.57311 z M 110.76123 206.57311 C 110.41323 206.57311 110.23828 206.31189 110.23828 205.79089 L 115.71094 205.79089 C 115.71094 206.31189 115.53792 206.57311 115.19092 206.57311 L 110.76123 206.57311 z M 116.75391 206.57311 C 116.40591 206.57311 116.23242 206.31189 116.23242 205.79089 L 121.70508 205.79089 C 121.70508 206.31189 121.5306 206.57311 121.1836 206.57311 L 116.75391 206.57311 z M 122.22657 206.57311 L 122.22657 205.79089 L 127.69776 205.79089 C 127.69776 206.31189 127.52474 206.57311 127.17774 206.57311 L 122.22657 206.57311 z M 128.21924 206.57311 L 128.21924 205.79089 L 129.52149 205.79089 L 129.52149 206.57311 L 128.21924 206.57311 z M 130.04297 206.57311 L 130.04297 205.79235 L 135.51563 205.79235 C 135.51563 206.31235 135.34114 206.57311 134.99414 206.57311 L 130.04297 206.57311 z M 136.55713 206.57311 C 136.21013 206.57311 136.03565 206.31235 136.03565 205.79235 L 141.24903 205.79235 L 141.24903 206.57311 L 136.55713 206.57311 z M 85.664065 205.53161 L 85.664065 203.44714 L 86.966311 203.44714 L 86.966311 205.53161 L 85.664065 205.53161 z M 89.83301 205.53161 L 89.83301 203.44714 L 91.136721 203.44714 L 91.136721 205.53161 L 89.83301 205.53161 z M 97.129397 205.53161 L 97.129397 204.2279 C 97.129397 203.7069 97.302417 203.44567 97.649417 203.44567 L 102.60059 203.44567 L 102.60059 204.2279 L 98.692385 204.2279 C 98.518385 204.2279 98.431643 204.31564 98.431643 204.48864 L 98.431643 205.53161 L 97.129397 205.53161 z M 128.21924 205.53161 L 128.21924 203.44714 L 129.52149 203.44714 L 129.52149 205.53161 L 128.21924 205.53161 z M 130.04297 205.53161 L 130.04297 203.44714 L 131.34668 203.44714 L 131.34668 205.53161 L 130.04297 205.53161 z M 134.21192 205.53161 L 134.21192 203.44714 L 135.51563 203.44714 L 135.51563 205.53161 L 134.21192 205.53161 z M 136.03565 205.53161 L 136.03565 204.2279 C 136.03565 203.7069 136.21013 203.44567 136.55713 203.44567 L 140.98682 203.44567 C 141.33382 203.44567 141.5083 203.7069 141.5083 204.2279 L 141.5083 204.48864 C 141.5083 205.01064 141.24808 205.2694 140.72608 205.2694 L 138.38086 205.2694 L 138.38086 204.48864 L 139.94385 204.48864 C 140.11885 204.48864 140.20459 204.44527 140.20459 204.35827 C 140.20459 204.27127 140.11885 204.2279 139.94385 204.2279 L 137.33936 204.2279 L 137.33936 205.53161 L 136.03565 205.53161 z M 91.656741 205.53015 L 91.656741 203.44567 L 92.960452 203.44567 L 92.960452 203.96716 L 96.34717 203.96716 L 96.34717 204.74938 L 93.221194 204.74938 C 93.047194 204.74938 92.960452 204.83613 92.960452 205.01013 L 92.960452 205.53015 L 91.656741 205.53015 z M 105.02783 205.53015 L 105.02783 204.2279 C 105.02783 203.7059 105.20132 203.44567 105.54932 203.44567 L 109.71826 203.44567 L 109.71826 204.2279 L 106.59082 204.2279 C 106.41782 204.2279 106.33008 204.31564 106.33008 204.48864 L 106.33008 205.53015 L 105.02783 205.53015 z M 110.23828 205.53015 L 110.23828 204.2279 C 110.23828 203.7059 110.41323 203.44567 110.76123 203.44567 L 111.54199 203.44567 L 111.54199 205.53015 L 110.23828 205.53015 z M 114.40869 205.53015 L 114.40869 204.48864 C 114.40869 204.31564 114.32195 204.2279 114.14795 204.2279 L 111.80274 204.2279 L 111.80274 203.44567 L 115.19092 203.44567 C 115.53792 203.44567 115.71094 203.7059 115.71094 204.2279 L 115.71094 205.53015 L 114.40869 205.53015 z M 116.23242 205.53015 L 116.23242 203.44567 L 117.53614 203.44567 L 117.53614 205.53015 L 116.23242 205.53015 z M 120.40137 205.53015 L 120.40137 204.74938 L 117.79541 204.74938 L 117.79541 203.96716 L 120.40137 203.96716 L 120.40137 203.44567 L 121.70508 203.44567 L 121.70508 205.53015 L 120.40137 205.53015 z M 122.22657 205.53015 L 122.22657 203.44567 L 123.52881 203.44567 L 123.52881 205.53015 L 122.22657 205.53015 z M 126.39551 205.53015 L 126.39551 204.2279 L 123.78955 204.2279 L 123.78955 203.44567 L 127.17774 203.44567 C 127.52474 203.44567 127.69776 203.7059 127.69776 204.2279 L 127.69776 205.53015 L 126.39551 205.53015 z M 121.96289 201.40075 L 121.96289 200.22741 L 129.39112 200.22741 L 129.39112 201.40075 L 121.96289 201.40075 z M 86.444826 201.39929 C 85.922827 201.39929 85.6626 201.00941 85.6626 200.22741 L 93.481936 200.22741 L 93.481936 201.39929 L 86.444826 201.39929 z M 94.653811 201.39929 L 96.396975 200.22741 L 98.736331 200.22741 L 97.000491 201.39929 L 94.653811 201.39929 z M 101.63526 201.39929 L 99.897952 200.22741 L 102.23731 200.22741 L 103.98047 201.39929 L 101.63526 201.39929 z M 105.54492 201.39929 C 105.02293 201.39929 104.7627 201.00941 104.7627 200.22741 L 112.58057 200.22741 L 112.58057 201.39929 L 105.54492 201.39929 z M 113.75244 201.39929 L 113.75244 200.22741 L 121.18067 200.22741 L 121.18067 201.39929 L 113.75244 201.39929 z M 130.17188 201.39929 L 130.17188 200.22741 L 141.50977 200.22741 C 141.50977 201.00841 141.24754 201.39929 140.72754 201.39929 L 130.17188 201.39929 z M 85.6626 199.8363 L 85.6626 199.44518 C 85.6626 198.66319 85.922827 198.27184 86.444826 198.27184 L 91.526369 198.27184 C 91.787369 198.27184 91.917483 198.20702 91.917483 198.07702 C 91.917483 197.94602 91.787369 197.88073 91.526369 197.88073 L 85.6626 197.88073 L 85.6626 196.70886 L 93.090823 196.70886 C 93.611822 196.70886 93.871584 197.09873 93.871584 197.88073 L 93.871584 198.27184 C 93.871584 199.05384 93.481244 199.44518 92.698245 199.44518 L 88.007815 199.44518 C 87.746815 199.44518 87.616701 199.5753 87.616701 199.8363 L 85.6626 199.8363 z M 96.977053 199.8363 L 98.144534 199.04821 L 98.144534 196.70739 L 100.48975 196.70739 L 100.48975 199.04821 L 101.65723 199.8363 L 96.977053 199.8363 z M 104.7627 199.8363 L 104.7627 199.44518 C 104.7627 198.66319 105.02293 198.27184 105.54492 198.27184 L 110.62647 198.27184 C 110.88747 198.27184 111.01758 198.20702 111.01758 198.07702 C 111.01758 197.94602 110.88747 197.88073 110.62647 197.88073 L 104.7627 197.88073 L 104.7627 196.70886 L 112.19092 196.70886 C 112.71192 196.70886 112.97168 197.09873 112.97168 197.88073 L 112.97168 198.27184 C 112.97168 199.05384 112.58134 199.44518 111.79834 199.44518 L 107.10791 199.44518 C 106.84691 199.44518 106.7168 199.5753 106.7168 199.8363 L 104.7627 199.8363 z M 116.48877 199.83483 L 116.48877 196.70739 L 118.44434 196.70739 L 118.44434 199.83483 L 116.48877 199.83483 z M 121.96289 199.83483 L 121.96289 197.88073 C 121.96289 197.09873 122.22312 196.70739 122.74512 196.70739 L 129.39112 196.70739 L 129.39112 197.88073 L 124.30957 197.88073 C 124.04857 197.88073 123.917 198.01085 123.917 198.27184 L 128.99854 198.27184 L 128.99854 199.44518 L 124.30957 199.44518 C 124.04857 199.44518 123.917 199.57483 123.917 199.83483 L 121.96289 199.83483 z M 130.17188 199.83483 L 130.17188 196.70739 L 132.12598 196.70739 L 132.12598 199.83483 L 130.17188 199.83483 z M 134.86377 199.83483 L 134.86377 196.70739 L 136.81787 196.70739 L 136.81787 199.83483 L 134.86377 199.83483 z M 139.55567 199.83483 L 139.55567 196.70739 L 141.50977 196.70739 L 141.50977 199.83483 L 139.55567 199.83483 z M 85.880862 194.55407 C 85.759862 194.55407 85.6626 194.45534 85.6626 194.33434 C 85.6626 194.21334 85.759862 194.11608 85.880862 194.11608 L 141.29004 194.11608 C 141.41104 194.11608 141.50977 194.21334 141.50977 194.33434 C 141.50977 194.45534 141.41104 194.55407 141.29004 194.55407 L 85.880862 194.55407 z M 118.36084 192.93542 L 117.94776 192.75817 C 118.05876 192.56017 118.14922 192.30041 118.22022 191.97741 L 118.60987 192.1444 C 118.54887 192.4584 118.46584 192.72242 118.36084 192.93542 z M 115.48096 192.72888 C 115.12696 191.76588 114.56811 191.02571 113.80811 190.50671 L 114.21973 190.13317 C 114.57073 190.36517 114.92714 190.74289 115.28614 191.26989 L 117.39698 191.26989 C 117.23598 190.49689 116.9165 189.86166 116.4375 189.36266 C 115.9585 188.86367 115.29664 188.46575 114.45264 188.17175 L 114.84375 187.68249 C 115.77075 188.07949 116.48389 188.59111 116.98389 189.21911 C 117.48389 189.84711 117.81087 190.63304 117.96387 191.57604 L 117.74854 191.79431 L 117.98145 191.91149 C 117.92045 192.22549 117.83742 192.48804 117.73242 192.70104 L 117.31641 192.5238 C 117.42041 192.3398 117.50662 192.09631 117.57862 191.79431 L 115.62158 191.79431 C 115.74458 191.99931 115.86175 192.22925 115.96875 192.48425 L 115.48096 192.72888 z M 138.63721 192.60143 L 137.16065 188.75915 L 136.51026 188.68444 L 136.64649 188.11755 C 137.31249 188.25055 138.59842 188.41613 140.50342 188.61413 C 140.63842 188.33313 140.74011 188.07151 140.80811 187.82751 L 141.31202 188.04431 C 140.84702 189.1443 140.3605 190.02117 139.8545 190.67516 L 139.32862 190.44079 C 139.59862 190.16479 139.89152 189.72457 140.20752 189.11657 L 137.72901 188.83532 L 139.10743 192.41247 L 138.63721 192.60143 z M 120.22705 192.58386 L 120.04395 192.03893 C 120.69895 191.97093 121.27453 191.79141 121.76953 191.49841 L 121.95264 192.02868 C 121.52964 192.24368 120.95405 192.42786 120.22705 192.58386 z M 101.48145 192.39636 L 101.06983 192.22204 C 101.18183 192.02204 101.27282 191.76135 101.34082 191.43835 L 101.7334 191.60974 C 101.6704 191.92173 101.58645 192.18336 101.48145 192.39636 z M 108.61817 192.37878 L 108.30469 191.89977 C 108.92569 191.74377 109.46488 191.46767 109.92188 191.07067 L 110.22803 191.52624 C 109.80903 191.85124 109.27217 192.13578 108.61817 192.37878 z M 97.319827 192.29968 L 97.319827 191.77233 L 100.15576 191.77233 L 100.15576 192.29968 L 97.319827 192.29968 z M 131.34815 192.29968 L 131.34815 191.77233 L 134.96631 191.77233 L 134.96631 192.29968 L 131.34815 192.29968 z M 85.772463 192.23962 L 85.772463 187.83923 L 86.285158 187.83923 L 86.285158 188.18933 L 89.311526 188.18933 L 89.311526 187.83923 L 89.824221 187.83923 L 89.824221 192.23962 L 85.772463 192.23962 z M 128.81983 192.2279 L 125.49756 192.22204 L 125.49756 191.72106 L 128.33789 191.72106 C 128.03289 190.93606 127.60894 190.23176 127.06494 189.60876 C 126.52195 188.98576 125.89323 188.48011 125.17823 188.09411 L 125.57373 187.67516 C 126.43473 188.20616 127.16042 188.85308 127.75342 189.61608 C 128.48442 189.15508 129.12244 188.54131 129.66944 187.77331 L 130.11328 188.10729 C 129.52829 188.87829 128.84171 189.52242 128.05371 190.03942 C 128.45971 190.64342 128.76517 191.3183 128.97217 192.0653 L 128.81983 192.2279 z M 100.85303 192.16198 L 100.44141 191.98913 C 100.55241 191.78913 100.6414 191.52937 100.7124 191.20837 L 101.10205 191.37536 C 101.04105 191.68736 100.95803 191.94898 100.85303 192.16198 z M 105.95215 192.08874 C 105.67715 191.66874 105.28395 191.25269 104.77295 190.84069 C 104.26295 190.42969 103.7587 190.12324 103.2627 189.92224 L 103.55274 189.4945 C 103.97074 189.6765 104.40591 189.94191 104.85791 190.28991 L 104.85791 188.36364 L 105.32959 188.36364 L 105.32959 190.67516 C 105.57459 190.88216 105.90855 191.24647 106.33155 191.76647 L 105.95215 192.08874 z M 86.285158 191.7152 L 89.311526 191.7152 L 89.311526 188.71374 L 86.285158 188.71374 L 86.285158 191.7152 z M 112.37403 191.30944 C 111.92103 190.51944 111.38981 189.8781 110.77881 189.3861 C 110.16781 188.8941 109.35524 188.53637 108.34424 188.31237 L 108.66944 187.78356 C 109.47744 188.01756 110.2018 188.35338 110.8418 188.79138 C 111.4828 189.22838 112.12925 189.94151 112.78125 190.93151 L 112.37403 191.30944 z M 123.72803 191.25378 C 123.34003 190.47078 122.82508 189.83881 122.18409 189.35681 C 121.54209 188.87581 120.73981 188.51893 119.77881 188.28893 L 120.03809 187.74987 C 120.96109 188.00487 121.74981 188.37894 122.40381 188.87194 C 123.05681 189.36494 123.64548 190.0375 124.16748 190.8905 L 123.72803 191.25378 z M 119.69532 191.12487 L 119.51221 190.5946 C 120.21021 190.5146 120.77689 190.31827 121.21289 190.00427 L 121.41211 190.55798 C 120.96711 190.80098 120.39531 190.98987 119.69532 191.12487 z M 96.771975 190.86266 L 96.771975 190.33532 L 98.970706 190.33532 C 98.977706 190.27032 98.98096 190.17056 98.98096 190.03356 C 98.98096 189.56656 98.865791 189.16586 98.633792 188.83386 C 98.401792 188.50086 98.06133 188.25372 97.611331 188.08972 L 98.012698 187.62243 C 99.004697 188.11443 99.499514 188.93995 99.499514 190.10095 C 99.499514 190.21095 99.496655 190.28932 99.493655 190.33532 L 101.50782 190.33532 L 101.50782 190.86266 L 96.771975 190.86266 z M 130.8003 190.86266 L 130.8003 190.33532 L 132.99903 190.33532 C 133.00603 190.27032 133.01075 190.17056 133.01075 190.03356 C 133.01075 189.56656 132.89411 189.16586 132.66211 188.83386 C 132.43011 188.50086 132.08965 188.25372 131.63965 188.08972 L 132.03955 187.62243 C 133.03155 188.11443 133.52784 188.93995 133.52784 190.10095 C 133.52784 190.21095 133.52598 190.28932 133.52198 190.33532 L 135.53467 190.33532 L 135.53467 190.86266 L 130.8003 190.86266 z M 91.155764 190.48327 L 91.155764 189.95593 L 95.885745 189.95593 L 95.885745 190.48327 L 91.155764 190.48327 z "
     transform="matrix(1.3333333,0,0,-1.3333333,0,318.048)" />
  <path
     id="white_bg"
     d="m 0,0 v -0.002 c 0,-2.483 -2.016,-4.499 -4.499,-4.499 h -32.762 c -2.483,0 -4.499,2.016 -4.499,4.499 V 0 c 0,2.483 2.016,4.499 4.499,4.499 H -4.499 C -2.016,4.499 0,2.483 0,0 Z"
     style="display:inline;fill:#ffffff;fill-opacity:1;fill-rule:evenodd;stroke:none"
     transform="matrix(1.3333333,0,0,-1.3333333,187.99947,22.559333)" />
  <path
     id="wizzo_dev"
     d="m 0,0 c 0.24,0 0.36,0.145 0.36,0.436 v 2.411 c 0,0.29 -0.12,0.435 -0.36,0.435 -0.24,0 -0.36,-0.145 -0.36,-0.435 V 0.436 C -0.36,0.145 -0.24,0 0,0 m 0,-0.631 c -0.341,0 -0.602,0.097 -0.783,0.29 -0.181,0.194 -0.271,0.467 -0.271,0.821 v 2.322 c 0,0.354 0.09,0.628 0.271,0.821 0.181,0.194 0.442,0.29 0.783,0.29 0.341,0 0.602,-0.096 0.783,-0.29 C 0.964,3.43 1.054,3.156 1.054,2.802 V 0.48 C 1.054,0.126 0.964,-0.147 0.783,-0.341 0.602,-0.534 0.341,-0.631 0,-0.631 m -2.733,3.85 H -3.459 V 3.85 h 2.146 V 3.219 h -0.726 v -3.787 h -0.694 z m -1.97,-1.357 c 0.114,0 0.199,0.032 0.256,0.095 0.057,0.063 0.085,0.17 0.085,0.322 v 0.523 c 0,0.152 -0.028,0.259 -0.085,0.323 -0.057,0.063 -0.142,0.094 -0.256,0.094 H -5.031 V 1.862 Z M -5.725,3.85 h 1.022 c 0.345,0 0.604,-0.092 0.777,-0.277 0.172,-0.185 0.258,-0.457 0.258,-0.815 V 2.323 C -3.668,1.965 -3.754,1.694 -3.926,1.509 -4.099,1.323 -4.358,1.231 -4.703,1.231 H -5.031 V -0.568 H -5.725 Z M -6.963,0.896 -7.272,3.08 H -7.285 L -7.588,0.896 Z M -7.72,3.85 h 0.94 l 0.72,-4.418 H -6.755 L -6.881,0.309 V 0.297 H -7.67 L -7.796,-0.568 H -8.44 Z M -9.721,3.219 h -0.726 V 3.85 h 2.146 V 3.219 h -0.726 v -3.787 h -0.694 z m -1.522,0.631 h 0.6 l -1.742,-4.418 h -0.6 z m -3.977,0 h 0.701 l 0.455,-3.427 h 0.012 l 0.455,3.427 h 0.637 l -0.669,-4.418 h -0.921 z m -2.108,0 h 1.894 V 3.219 h -1.2 V 2.052 h 0.953 V 1.42 h -0.953 V 0.063 h 1.2 v -0.631 h -1.894 z m -1.515,-3.787 c 0.113,0 0.201,0.034 0.262,0.101 0.061,0.067 0.091,0.177 0.091,0.328 V 2.79 c 0,0.151 -0.03,0.261 -0.091,0.328 -0.061,0.068 -0.149,0.101 -0.262,0.101 h -0.354 V 0.063 Z m -1.048,3.787 h 1.06 c 0.345,0 0.604,-0.092 0.777,-0.277 0.173,-0.185 0.259,-0.457 0.259,-0.815 V 0.524 c 0,-0.358 -0.086,-0.629 -0.259,-0.814 -0.173,-0.185 -0.432,-0.278 -0.777,-0.278 h -1.06 z m -1.187,-3.749 h 0.669 v -0.669 h -0.669 z M -22.561,0 c 0.24,0 0.36,0.145 0.36,0.436 v 2.411 c 0,0.29 -0.12,0.435 -0.36,0.435 -0.24,0 -0.36,-0.145 -0.36,-0.435 V 0.436 c 0,-0.291 0.12,-0.436 0.36,-0.436 m 0,-0.631 c -0.341,0 -0.602,0.097 -0.783,0.29 -0.181,0.194 -0.272,0.467 -0.272,0.821 v 2.322 c 0,0.354 0.091,0.628 0.272,0.821 0.181,0.194 0.442,0.29 0.783,0.29 0.341,0 0.601,-0.096 0.782,-0.29 0.181,-0.193 0.272,-0.467 0.272,-0.821 V 0.48 c 0,-0.354 -0.091,-0.627 -0.272,-0.821 -0.181,-0.193 -0.441,-0.29 -0.782,-0.29 m -3.428,0.682 1.288,3.168 h -1.225 V 3.85 h 1.97 V 3.232 l -1.288,-3.169 h 1.288 v -0.631 h -2.033 z m -2.317,0 1.288,3.168 h -1.225 V 3.85 h 1.97 V 3.232 l -1.288,-3.169 h 1.288 v -0.631 h -2.033 z m -1.073,3.799 h 0.694 v -4.418 h -0.694 z m -3.68,0 h 0.669 l 0.309,-3.395 h 0.013 l 0.328,3.395 h 0.758 l 0.328,-3.395 h 0.013 l 0.309,3.395 h 0.6 l -0.449,-4.418 h -0.864 l -0.316,2.979 h -0.013 l -0.315,-2.979 h -0.922 z"
     style="display:inline;fill:#000000;fill-opacity:1;fill-rule:evenodd;stroke:none"
     transform="matrix(1.3333333,0,0,-1.3333333,181.49613,24.749067)" />
  <path
     id="TapTo-Logo"
     d="m 116.16127,301.37088 h -10.15002 v 7.49498 h -2.87369 v -7.49498 h -9.490546 v -2.65725 h 22.514256 z m 0,0 h 2.65884 v 6.65741 c 0,2.24574 -1.82188,4.06637 -4.06907,4.06637 H 97.009227 v -2.65694 h 17.043203 c 1.16479,0 2.10884,-0.94358 2.10884,-2.1079 z m 0.1816,-0.87893 v -0.33117 c 0.56757,0 1.0293,0.46157 1.0293,1.02868 h -0.33133 c 0,-0.38457 -0.31309,-0.69751 -0.69797,-0.69751 z m 1.42194,0.69783 c 0,-0.78388 -0.63793,-1.42149 -1.42194,-1.42149 v -0.331 c 0.96672,0 1.75328,0.78623 1.75328,1.75249 z m 0.72414,0 c 0,-1.18269 -0.96292,-2.14483 -2.14608,-2.14483 v -0.33132 c 1.36585,0 2.47724,1.11076 2.47724,2.47615 z m -25.304934,0.1811 H 83.69332 v 5.95926 c 0,1.164 0.944219,2.10758 2.108848,2.10758 h 7.381848 v 2.65694 H 84.88853 c -2.24718,0 -4.068911,-1.82063 -4.068911,-4.06637 v -6.65741 H 78.08583 v -2.65725 h 15.098186 z m -8.831215,0.57171 h 8.831215 v 6.92327 H 90.310312 V 304.6 h -3.08381 v 1.24115 c 0,0.20299 0.164475,0.36746 0.367609,0.36746 h 2.227533 v 2.65725 h -3.739331 c -0.955313,0 -1.729512,-0.77372 -1.729512,-1.72856 z m 9.294213,0 h 8.831216 v 5.19471 c 0,0.95484 -0.77435,1.72856 -1.72968,1.72856 h -3.739323 v -2.65725 h 2.227529 c 0.203132,0 0.367928,-0.16447 0.367928,-0.36746 V 304.6 h -3.08397 v 7.49466 h -2.8737 z m 21.854936,0 v 5.19471 c 0,0.95484 -0.77435,1.72856 -1.72951,1.72856 h -5.37219 c -0.95515,0 -1.72967,-0.77372 -1.72967,-1.72856 v -5.19471 z m -2.8737,2.65741 h -3.08396 v 1.24115 c 0,0.20299 0.16479,0.36746 0.36792,0.36746 h 2.34827 c 0.20313,0 0.36777,-0.16447 0.36777,-0.36746 z"
     style="clip-rule:evenodd;fill:url(#linearGradient2);fill-rule:nonzero;stroke-width:0.132;stroke-linejoin:round;stroke-miterlimit:2;stroke:#000000;stroke-opacity:1;stroke-dasharray:none;fill-opacity:1" />
  <use
     x="0"
     y="0"
     xlink:href="#TapTo-Logo"
     id="use1"
     transform="matrix(0.49756683,0,0,0.49756683,10.233652,-125.15219)"
     style="stroke-width:2.00978;stroke:none;stroke-opacity:1" />
</svg>
