<?xml version="1.0" encoding="UTF-8" standalone="no"?>
<svg
   width="994"
   height="619"
   viewBox="0 0 318.048 198.048"
   version="1.1"
   xml:space="preserve"
   style="clip-rule:evenodd;fill-rule:evenodd;stroke-linejoin:round;stroke-miterlimit:2"
   id="svg1"
   xmlns="http://www.w3.org/2000/svg"
   xmlns:svg="http://www.w3.org/2000/svg"
   xmlns:serif="http://www.serif.com/">
    <g
   id="Background"
   transform="scale(0.32)">
        <path
   id="White-Background"
   serif:id="White Background"
   d="M 969.144,618.9 H 24.756 C 11.093,618.9 0,607.807 0,594.144 V 24.756 C 0,11.093 11.093,0 24.756,0 H 969.144 C 982.807,0 993.9,11.093 993.9,24.756 v 569.388 c 0,13.663 -11.093,24.756 -24.756,24.756 z"
   style="fill:transparent" />
    </g>
    <g
   id="Frame"
   transform="scale(0.32)">
        <path
   id="Border"
   d="M 966.52,609.525 H 27.38 c -9.937,0 -18.005,-8.068 -18.005,-18.004 V 27.379 c 0,-9.936 8.068,-18.004 18.005,-18.004 h 939.14 c 9.937,0 18.005,8.068 18.005,18.004 v 564.142 c 0,9.936 -8.068,18.004 -18.005,18.004 z m -671.856,-12.5 H 966.52 c 3.039,0 5.505,-2.466 5.505,-5.504 V 27.379 c 0,-3.038 -2.466,-5.504 -5.505,-5.504 H 27.38 c -3.039,0 -5.505,2.466 -5.505,5.504 v 549.559 h 272.789 z" />
        <rect
   id="White-Band"
   serif:id="White Band"
   x="21.875"
   y="492.82199"
   width="272.78299"
   height="84.114998"
   style="fill:#ffffff" />
        <path
   id="Red-Band"
   serif:id="Red Band"
   d="M 294.658,21.875 V 474.897 H 21.875 V 27.379 c 0,-3.038 2.466,-5.504 5.505,-5.504 z"
   style="fill:#1B1E87" />
        <path
   id="Gold-Band"
   serif:id="Gold Band"
   d="m 21.875,474.897 h 272.783 v 17.925 H 21.875 Z"
   style="fill:#EC1B2F" />
        <path
   id="NFC-Loading-System"
   serif:id="NFC Loading System"
   d="m 48.826,568.141 h -2.358 v -1.614 H 32.535 v 1.614 h -2.358 v -20.256 h 18.649 z m -2.358,-4.028 V 550.299 H 32.535 v 13.814 z m 30.262,-5.72 H 54.957 v -2.427 H 76.73 Z m 26.922,-7.609 -1.81,0.787 c -0.315,-1.487 -0.731,-2.689 -1.249,-3.608 l 1.899,-0.8 c 0.484,0.98 0.871,2.187 1.16,3.621 z m -7.266,-0.748 H 83.333 v -2.427 h 13.053 z m 4.359,1.824 -1.797,0.774 c -0.323,-1.478 -0.739,-2.677 -1.249,-3.595 l 1.899,-0.8 c 0.485,0.979 0.867,2.186 1.147,3.621 z m 1.862,4.788 h -9.268 c 0.017,0.21 0.026,0.569 0.026,1.076 0,5.344 -2.282,9.149 -6.845,11.414 l -1.849,-2.152 c 2.074,-0.752 3.644,-1.893 4.71,-3.424 1.067,-1.53 1.6,-3.371 1.6,-5.523 0,-0.63 -0.017,-1.093 -0.051,-1.391 H 80.809 v -2.427 h 21.798 z m 22.205,-6.586 c -1.946,2.397 -3.484,4.072 -4.614,5.025 v 10.64 h -2.167 v -8.869 c -2.082,1.601 -4.084,2.821 -6.004,3.661 l -1.339,-1.968 c 2.286,-0.927 4.604,-2.338 6.954,-4.231 2.35,-1.894 4.158,-3.807 5.424,-5.74 z m 17.936,1.102 -1.402,2.1 c -2.108,-1.828 -4.589,-3.101 -7.445,-3.818 l 1.441,-2.204 c 3.008,1.119 5.477,2.427 7.406,3.922 z m 11.753,2.742 c -3,4.557 -5.974,7.841 -8.923,9.853 -2.949,2.012 -6.285,3.555 -10.007,4.631 l -1.491,-2.427 c 4.657,-1.032 8.392,-2.681 11.204,-4.946 2.813,-2.265 5.261,-5.217 7.343,-8.856 z m 26.833,-5.588 -1.798,0.774 c -0.323,-1.487 -0.739,-2.686 -1.249,-3.595 l 1.899,-0.814 c 0.485,0.98 0.867,2.191 1.148,3.635 z m -2.894,1.075 -1.071,0.538 0.995,1.01 c -0.706,4.339 -2.21,7.953 -4.513,10.844 -2.303,2.89 -5.587,5.249 -9.854,7.077 l -1.797,-2.256 c 3.884,-1.356 6.928,-3.182 9.134,-5.477 2.205,-2.296 3.677,-5.224 4.416,-8.784 h -9.713 c -1.657,2.423 -3.293,4.168 -4.908,5.235 l -1.899,-1.719 c 3.501,-2.388 6.068,-5.799 7.699,-10.233 l 2.244,1.128 c -0.493,1.172 -1.024,2.231 -1.594,3.175 h 9.013 c -0.332,-1.39 -0.735,-2.51 -1.211,-3.358 l 1.912,-0.814 c 0.484,0.98 0.867,2.191 1.147,3.634 z m 18.28,-0.538 -0.842,2.441 c -2.277,-1.347 -4.924,-2.178 -7.941,-2.493 l 0.841,-2.506 c 3.348,0.717 5.996,1.57 7.942,2.558 z m 10.198,5.235 c -2.405,3.927 -5.112,7.025 -8.12,9.295 -3.009,2.27 -6.638,3.991 -10.887,5.163 l -1.198,-2.48 c 4.428,-1.058 8.118,-2.696 11.071,-4.913 2.953,-2.217 5.322,-5.128 7.107,-8.731 z m -12.684,1.535 -0.918,2.545 c -2.005,-1.443 -4.614,-2.348 -7.827,-2.716 l 0.842,-2.44 c 3.22,0.621 5.855,1.491 7.903,2.611 z m 40.052,11.283 -2.04,1.535 c -2.515,-3.534 -5.455,-6.363 -8.821,-8.489 -2.728,3.516 -6.072,6.494 -10.032,8.935 l -1.823,-1.929 c 3.289,-1.775 6.185,-4.097 8.688,-6.966 2.502,-2.869 4.455,-6.11 5.857,-9.722 h -13.079 v -2.309 l 15.297,-0.026 0.701,0.748 c -0.952,3.437 -2.362,6.546 -4.232,9.328 3.629,2.379 6.79,5.344 9.484,8.895 z m 22.346,-16.872 h -16.661 v -2.427 h 16.661 z m 2.613,6.612 h -9.267 c 0.017,0.21 0.025,0.569 0.025,1.076 0,5.344 -2.281,9.149 -6.845,11.414 l -1.848,-2.152 c 2.073,-0.752 3.643,-1.893 4.71,-3.424 1.066,-1.53 1.6,-3.371 1.6,-5.523 0,-0.63 -0.017,-1.093 -0.051,-1.391 h -10.122 v -2.427 h 21.798 z m 26.591,10.548 -2.32,0.997 c -0.315,-1.119 -0.782,-2.326 -1.402,-3.621 -8.77,0.91 -14.689,1.671 -17.757,2.283 l -0.625,-2.611 2.996,-0.341 6.794,-17.685 2.167,0.866 -6.348,16.465 11.409,-1.286 c -1.453,-2.798 -2.8,-4.832 -4.041,-6.1 l 2.422,-1.076 c 2.328,3.009 4.563,7.045 6.705,12.109 z M 30.678,539.246 c -0.556,0 -1.008,-0.452 -1.008,-1.008 0,-0.556 0.452,-1.007 1.008,-1.007 h 255.06 c 0.556,0 1.007,0.451 1.007,1.007 0,0.556 -0.451,1.008 -1.007,1.008 z m 0,-38.22 h 5.562 l 4.313,16.886 h 0.081 v -16.886 h 3.95 v 28.211 h -4.555 l -5.32,-20.594 h -0.081 v 20.594 h -3.95 z m 17.211,0 h 11.729 v 4.03 h -7.295 v 7.859 h 5.723 v 4.03 h -5.723 v 12.292 h -4.434 z m 20.113,28.614 c -2.123,0 -3.742,-0.604 -4.857,-1.813 -1.115,-1.209 -1.673,-2.915 -1.673,-5.119 v -15.153 c 0,-2.204 0.558,-3.91 1.673,-5.119 1.115,-1.209 2.734,-1.814 4.857,-1.814 2.123,0 3.742,0.605 4.857,1.814 1.115,1.209 1.673,2.915 1.673,5.119 v 2.982 H 70.34 v -3.265 c 0,-1.746 -0.739,-2.619 -2.217,-2.619 -1.478,0 -2.217,0.873 -2.217,2.619 v 15.759 c 0,1.719 0.739,2.579 2.217,2.579 1.478,0 2.217,-0.86 2.217,-2.579 v -4.313 h 4.192 v 3.99 c 0,2.204 -0.558,3.91 -1.673,5.119 -1.115,1.209 -2.734,1.813 -4.857,1.813 z m 15.639,-28.614 h 4.434 v 24.181 h 7.295 v 4.03 H 83.641 Z m 20.113,28.614 c -2.177,0 -3.843,-0.618 -4.998,-1.854 -1.156,-1.235 -1.733,-2.982 -1.733,-5.239 v -14.831 c 0,-2.257 0.577,-4.004 1.733,-5.24 1.155,-1.236 2.821,-1.854 4.998,-1.854 2.176,0 3.842,0.618 4.998,1.854 1.155,1.236 1.733,2.983 1.733,5.24 v 14.831 c 0,2.257 -0.578,4.004 -1.733,5.239 -1.156,1.236 -2.822,1.854 -4.998,1.854 z m 0,-4.03 c 1.531,0 2.297,-0.927 2.297,-2.781 v -15.395 c 0,-1.854 -0.766,-2.781 -2.297,-2.781 -1.532,0 -2.298,0.927 -2.298,2.781 v 15.395 c 0,1.854 0.766,2.781 2.298,2.781 z m 13.059,-24.584 h 6.006 l 4.595,28.211 h -4.434 l -0.806,-5.602 v 0.081 h -5.038 l -0.807,5.521 h -4.111 z m 4.837,18.861 -1.975,-13.945 h -0.081 l -1.934,13.945 z m 7.9,-18.861 h 6.772 c 2.203,0 3.856,0.591 4.957,1.773 1.102,1.182 1.653,2.915 1.653,5.199 v 14.267 c 0,2.284 -0.551,4.017 -1.653,5.199 -1.101,1.182 -2.754,1.773 -4.957,1.773 h -6.772 z m 6.691,24.181 c 0.725,0 1.283,-0.215 1.673,-0.645 0.389,-0.43 0.584,-1.128 0.584,-2.095 v -14.671 c 0,-0.967 -0.195,-1.665 -0.584,-2.095 -0.39,-0.43 -0.948,-0.645 -1.673,-0.645 h -2.257 v 20.151 z m 9.673,-24.181 h 4.434 v 28.211 h -4.434 z m 7.739,0 h 5.563 l 4.312,16.886 h 0.081 v -16.886 h 3.95 v 28.211 h -4.555 l -5.32,-20.594 h -0.081 v 20.594 h -3.95 z m 23.499,28.614 c -2.15,0 -3.789,-0.611 -4.917,-1.833 -1.129,-1.223 -1.693,-2.976 -1.693,-5.26 v -14.831 c 0,-2.284 0.564,-4.037 1.693,-5.26 1.128,-1.222 2.767,-1.834 4.917,-1.834 2.15,0 3.789,0.612 4.917,1.834 1.129,1.223 1.693,2.976 1.693,5.26 v 2.418 h -4.192 v -2.7 c 0,-1.854 -0.765,-2.781 -2.297,-2.781 -1.532,0 -2.298,0.927 -2.298,2.781 v 15.436 c 0,1.827 0.766,2.74 2.298,2.74 1.532,0 2.297,-0.913 2.297,-2.74 v -5.522 h -2.216 v -4.03 h 6.408 v 9.229 c 0,2.284 -0.564,4.037 -1.693,5.26 -1.128,1.222 -2.767,1.833 -4.917,1.833 z m 21.685,0 c -2.15,0 -3.775,-0.611 -4.877,-1.833 -1.102,-1.223 -1.653,-2.976 -1.653,-5.26 v -1.612 h 4.192 v 1.935 c 0,1.827 0.766,2.74 2.298,2.74 0.752,0 1.323,-0.222 1.713,-0.665 0.389,-0.443 0.584,-1.162 0.584,-2.156 0,-1.182 -0.269,-2.223 -0.806,-3.124 -0.537,-0.9 -1.532,-1.981 -2.983,-3.244 -1.827,-1.612 -3.103,-3.07 -3.829,-4.373 -0.725,-1.303 -1.088,-2.774 -1.088,-4.413 0,-2.23 0.564,-3.956 1.693,-5.179 1.128,-1.222 2.767,-1.834 4.917,-1.834 2.123,0 3.729,0.612 4.817,1.834 1.088,1.223 1.632,2.976 1.632,5.26 v 1.169 h -4.192 v -1.451 c 0,-0.968 -0.188,-1.673 -0.564,-2.116 -0.376,-0.444 -0.927,-0.665 -1.653,-0.665 -1.477,0 -2.216,0.9 -2.216,2.7 0,1.021 0.275,1.975 0.826,2.862 0.551,0.886 1.552,1.961 3.003,3.224 1.854,1.612 3.13,3.076 3.829,4.393 0.698,1.316 1.048,2.861 1.048,4.635 0,2.31 -0.571,4.084 -1.713,5.319 -1.142,1.236 -2.802,1.854 -4.978,1.854 z m 13.059,-12.413 -5.361,-16.201 h 4.716 l 3.023,10.357 h 0.081 l 3.023,-10.357 h 4.313 l -5.361,16.201 v 12.01 h -4.434 z m 16.929,12.413 c -2.15,0 -3.775,-0.611 -4.877,-1.833 -1.102,-1.223 -1.653,-2.976 -1.653,-5.26 v -1.612 h 4.192 v 1.935 c 0,1.827 0.766,2.74 2.298,2.74 0.752,0 1.323,-0.222 1.713,-0.665 0.389,-0.443 0.584,-1.162 0.584,-2.156 0,-1.182 -0.269,-2.223 -0.806,-3.124 -0.537,-0.9 -1.532,-1.981 -2.983,-3.244 -1.827,-1.612 -3.103,-3.07 -3.829,-4.373 -0.725,-1.303 -1.088,-2.774 -1.088,-4.413 0,-2.23 0.564,-3.956 1.693,-5.179 1.128,-1.222 2.768,-1.834 4.917,-1.834 2.123,0 3.729,0.612 4.817,1.834 1.088,1.223 1.632,2.976 1.632,5.26 v 1.169 h -4.192 v -1.451 c 0,-0.968 -0.188,-1.673 -0.564,-2.116 -0.376,-0.444 -0.927,-0.665 -1.652,-0.665 -1.478,0 -2.217,0.9 -2.217,2.7 0,1.021 0.275,1.975 0.826,2.862 0.551,0.886 1.552,1.961 3.003,3.224 1.854,1.612 3.13,3.076 3.829,4.393 0.699,1.316 1.048,2.861 1.048,4.635 0,2.31 -0.571,4.084 -1.713,5.319 -1.142,1.236 -2.801,1.854 -4.978,1.854 z m 12.697,-24.584 h -4.636 v -4.03 h 13.705 v 4.03 h -4.636 v 24.181 h -4.433 z m 11.205,-4.03 h 12.092 v 4.03 h -7.659 v 7.456 h 6.087 v 4.03 h -6.087 v 8.665 h 7.659 v 4.03 h -12.092 z m 14.631,0 h 6.328 l 2.822,20.191 h 0.08 l 2.822,-20.191 h 6.328 v 28.211 h -4.192 v -21.36 h -0.081 l -3.224,21.36 h -3.708 l -3.225,-21.36 h -0.081 v 21.36 h -3.869 z" />
        <path
   id="TapTo-Logo"
   transform="scale(0.7315, 0.7315) translate(52.5, -312)"
   serif:id="TapTo Logo"
   d="m 269.965,399.319 h -64.057 v 47.301 h -18.136 v -47.301 h -59.895 v -16.77 h 142.088 z m 0,0 h 16.78 v 42.015 c 0,14.173 -11.498,25.663 -25.68,25.663 H 149.096 v -16.768 h 107.56 c 7.351,0 13.309,-5.955 13.309,-13.303 z m 1.146,-5.547 v -2.09 c 3.582,0 6.496,2.913 6.496,6.492 h -2.091 c 0,-2.427 -1.976,-4.402 -4.405,-4.402 z m 8.974,4.404 c 0,-4.947 -4.026,-8.971 -8.974,-8.971 v -2.089 c 6.101,0 11.065,4.962 11.065,11.06 z m 4.57,0 c 0,-7.464 -6.077,-13.536 -13.544,-13.536 v -2.091 c 8.62,0 15.634,7.01 15.634,15.627 z m -159.7,1.143 H 65.059 v 37.609 c 0,7.346 5.959,13.301 13.309,13.301 h 46.587 v 16.768 H 72.602 c -14.182,0 -25.679,-11.49 -25.679,-25.663 V 399.319 H 29.67 v -16.77 h 95.285 z m -55.734,3.608 h 55.734 V 446.62 H 106.819 V 419.698 H 87.357 v 7.833 c 0,1.281 1.038,2.319 2.32,2.319 h 14.058 v 16.77 H 80.136 c -6.029,0 -10.915,-4.883 -10.915,-10.909 z m 58.656,0 h 55.734 v 32.784 c 0,6.026 -4.887,10.909 -10.916,10.909 h -23.599 v -16.77 h 14.058 c 1.282,0 2.322,-1.038 2.322,-2.319 v -7.833 h -19.463 v 47.299 h -18.136 z m 137.927,0 v 32.784 c 0,6.026 -4.887,10.909 -10.915,10.909 h -33.904 c -6.028,0 -10.916,-4.883 -10.916,-10.909 v -32.784 z m -18.136,16.771 h -19.463 v 7.833 c 0,1.281 1.04,2.319 2.322,2.319 h 14.82 c 1.282,0 2.321,-1.038 2.321,-2.319 z"
   style="fill:#ffffff" />
          <path
   id="URL"
   d="m 94.457,584.974 h 2.501 l 1.157,12.693 h 0.047 l 1.227,-12.693 h 2.831 l 1.227,12.693 h 0.047 l 1.156,-12.693 h 2.242 l -1.675,16.515 h -3.233 l -1.18,-11.136 h -0.047 l -1.18,11.136 h -3.444 z m 13.756,0 h 2.596 v 16.515 h -2.596 z m 4.012,14.203 4.813,-11.844 h -4.577 v -2.359 h 7.361 v 2.312 l -4.813,11.844 h 4.813 v 2.359 h -7.597 z m 8.659,0 4.814,-11.844 h -4.578 v -2.359 h 7.362 v 2.312 l -4.814,11.844 h 4.814 v 2.359 h -7.598 z m 12.812,2.548 c -1.274,0 -2.249,-0.362 -2.925,-1.085 -0.677,-0.724 -1.015,-1.746 -1.015,-3.067 v -8.683 c 0,-1.321 0.338,-2.343 1.015,-3.067 0.676,-0.723 1.651,-1.085 2.925,-1.085 1.275,0 2.25,0.362 2.926,1.085 0.677,0.724 1.015,1.746 1.015,3.067 v 8.683 c 0,1.321 -0.338,2.343 -1.015,3.067 -0.676,0.723 -1.651,1.085 -2.926,1.085 z m 0,-2.359 c 0.897,0 1.345,-0.543 1.345,-1.628 v -9.013 c 0,-1.085 -0.448,-1.628 -1.345,-1.628 -0.896,0 -1.344,0.543 -1.344,1.628 v 9.013 c 0,1.085 0.448,1.628 1.344,1.628 z m 5.545,-0.378 h 2.502 v 2.501 h -2.502 z m 4.436,-14.014 h 3.964 c 1.29,0 2.258,0.346 2.903,1.038 0.645,0.692 0.967,1.707 0.967,3.043 v 8.352 c 0,1.337 -0.322,2.352 -0.967,3.044 -0.645,0.692 -1.613,1.038 -2.903,1.038 h -3.964 z m 3.917,14.156 c 0.425,0 0.751,-0.126 0.979,-0.378 0.228,-0.251 0.343,-0.66 0.343,-1.227 v -8.587 c 0,-0.567 -0.115,-0.976 -0.343,-1.227 -0.228,-0.252 -0.554,-0.378 -0.979,-0.378 h -1.321 v 11.797 z m 5.663,-14.156 h 7.079 v 2.359 h -4.483 v 4.365 h 3.562 v 2.359 h -3.562 v 5.073 h 4.483 v 2.359 h -7.079 z m 7.881,0 h 2.619 l 1.699,12.811 h 0.047 l 1.699,-12.811 h 2.383 l -2.501,16.515 h -3.445 z m 14.865,0 h 2.242 l -6.513,16.515 h -2.241 z m 5.687,2.359 h -2.714 v -2.359 h 8.023 v 2.359 h -2.714 v 14.156 h -2.595 z m 7.479,-2.359 h 3.516 l 2.69,16.515 h -2.596 l -0.471,-3.279 v 0.047 h -2.95 l -0.472,3.232 h -2.407 z m 2.832,11.041 -1.156,-8.163 h -0.048 l -1.132,8.163 z m 4.624,-11.041 h 3.823 c 1.29,0 2.257,0.346 2.902,1.038 0.645,0.692 0.968,1.707 0.968,3.043 v 1.628 c 0,1.337 -0.323,2.352 -0.968,3.044 -0.645,0.692 -1.612,1.038 -2.902,1.038 h -1.227 v 6.724 h -2.596 z m 3.823,7.432 c 0.425,0 0.743,-0.118 0.956,-0.354 0.212,-0.236 0.318,-0.637 0.318,-1.203 v -1.959 c 0,-0.566 -0.106,-0.967 -0.318,-1.203 -0.213,-0.236 -0.531,-0.354 -0.956,-0.354 h -1.227 v 5.073 z m 7.362,-5.073 h -2.714 v -2.359 h 8.023 v 2.359 h -2.714 v 14.156 h -2.595 z m 10.217,14.392 c -1.275,0 -2.25,-0.362 -2.926,-1.085 -0.677,-0.724 -1.015,-1.746 -1.015,-3.067 v -8.683 c 0,-1.321 0.338,-2.343 1.015,-3.067 0.676,-0.723 1.651,-1.085 2.926,-1.085 1.274,0 2.249,0.362 2.925,1.085 0.677,0.724 1.015,1.746 1.015,3.067 v 8.683 c 0,1.321 -0.338,2.343 -1.015,3.067 -0.676,0.723 -1.651,1.085 -2.925,1.085 z m 0,-2.359 c 0.896,0 1.344,-0.543 1.344,-1.628 v -9.013 c 0,-1.085 -0.448,-1.628 -1.344,-1.628 -0.897,0 -1.345,0.543 -1.345,1.628 v 9.013 c 0,1.085 0.448,1.628 1.345,1.628 z"
   style="fill:#ffffff" />
    </g>
   <g fill-rule="nonzero" fill="#5656C7" transform="translate(-42, 7) scale(1.35)" >
    <path
         d="m 90.28125,31.574219 c 0.203125,-2.207031 -0.597656,-3.171875 -3.054688,-2.921875 v 2.921875 z M 49.25,28.65625 c -2.277344,-0.246094 -3.34375,0.582031 -3.066406,2.90625 H 49.25 Z m 18.566406,71.77344 c 0.253906,0.0742 0.335938,0.004 0.347656,-0.23047 0.0078,-0.14453 0.07031,-0.339845 0.175782,-0.410158 0.382812,-0.257812 0.554687,-0.53125 0.472656,-0.886718 -0.08594,-0.363282 -0.351562,-0.5625 -0.824219,-0.566406 -1.660156,-0.0078 -3.320312,-0.0039 -4.980469,0.0039 -0.519531,0.0039 -0.8125,0.285156 -0.808593,0.730468 0,0.453126 0.320312,0.734376 0.839843,0.738282 0.789063,0.0039 1.578126,0.01172 2.363282,-0.0039 0.304687,-0.0078 0.429687,0.08203 0.390625,0.386722 -0.03125,0.26562 0.105469,0.30468 0.308593,0.24609 0.121094,-0.22656 -0.128906,-0.621094 0.363282,-0.632812 0.539062,-0.01953 0.230468,0.425782 0.378906,0.628902 0.242188,0.0937 0.328125,-0.0117 0.304688,-0.25 -0.02344,-0.253902 0.05469,-0.374996 0.339843,-0.378902 0.3125,-0.0078 0.328125,0.164062 0.316407,0.394532 -0.0039,0.0703 0.0078,0.14062 0.01172,0.23047 m -15.5,-71.582034 c -0.214844,-0.07422 -0.3125,-0.01563 -0.304687,0.230469 0.0078,0.167969 0.05078,0.347656 -0.195313,0.445313 -0.402344,0.15625 -0.542968,0.476562 -0.453125,0.871093 0.07422,0.34375 0.34375,0.546875 0.75,0.550781 0.425781,0.0078 0.847657,0.0039 1.273438,0.0039 1.804687,0 3.609375,0 5.414062,-0.0039 0.5,0 0.8125,-0.320312 0.789063,-0.785156 -0.01563,-0.414062 -0.308594,-0.6875 -0.773438,-0.691406 -1.28125,-0.0078 -2.566406,-0.0039 -3.851562,-0.0039 -0.578125,0 -0.578125,0 -0.621094,-0.566406 0,-0.01953 -0.01953,-0.03906 -0.03125,-0.05859 -0.21875,-0.0625 -0.328125,0.0078 -0.304688,0.242187 0.02344,0.234375 -0.0078,0.390625 -0.316406,0.390625 -0.300781,0 -0.347656,-0.144531 -0.328125,-0.382812 0.01563,-0.257813 -0.09375,-0.328125 -0.308593,-0.234375 -0.117188,0.21875 0.148437,0.613281 -0.363282,0.617187 -0.515625,0.0078 -0.238281,-0.394531 -0.375,-0.625 m 34.257813,0.140625 c 0,0.757813 0,1.496094 0,2.234375 0,0.65625 0,0.65625 -0.65625,0.65625 -11.84375,0 -23.6875,-0.0039 -35.535157,-0.0039 -0.480468,0 -0.480468,0 -0.480468,-0.46875 0,-0.808594 0,-1.617188 0,-2.414062 -0.300782,-0.113282 -0.347656,0.01562 -0.34375,0.246093 0.0078,0.75 -0.01172,1.503907 0.0078,2.253907 0.0078,0.300781 -0.08594,0.398437 -0.390625,0.390624 -0.824219,-0.01953 -1.648437,0 -2.472656,-0.0078 -0.21875,0 -0.367187,0.02734 -0.246094,0.296875 h 43.582031 c 0.07813,-0.269531 -0.07031,-0.285156 -0.261718,-0.285156 -0.777344,0.0039 -1.550782,0.0039 -2.328125,0.0039 -0.542969,0 -0.542969,0 -0.542969,-0.5625 0,-0.703125 -0.0039,-1.402344 0.0039,-2.105469 0,-0.222656 -0.05859,-0.332031 -0.335937,-0.234375 M 86.265625,28.640625 H 54.664062 v 0.53125 c 0.148438,0 0.28125,0 0.410157,0 1.285156,0.0039 2.570312,-0.0039 3.855469,0.01563 0.558593,0.0078 0.960937,0.472656 0.949218,1.03125 -0.0078,0.5625 -0.425781,1.011719 -0.96875,1.015625 -2.28125,0.0039 -4.558594,0.0039 -6.835937,0 -0.4375,0 -0.832031,-0.277344 -0.96875,-0.648437 -0.148438,-0.421876 -0.05469,-0.949219 0.324219,-1.175782 0.347656,-0.207031 0.316406,-0.453125 0.269531,-0.773437 H 50.214844 V 31.5625 h 36.050781 z m -40.125,3.863281 v 0.5 c 0,21.859375 0,43.714844 0,65.574219 0,0.265625 -0.01172,0.53125 0,0.796875 0.03516,0.74219 0.585937,1.26563 1.320313,1.26563 5.878906,0 11.761718,0 17.640624,0 0.125,0 0.253907,-0.0117 0.375,-0.0156 v -0.52734 c -0.859374,0 -1.695312,0.004 -2.53125,0 -0.585937,-0.008 -1.027343,-0.433598 -1.039062,-0.992191 -0.01563,-0.582031 0.378906,-1.039063 0.976562,-1.042969 1.757813,-0.01953 3.511719,-0.01172 5.273438,-0.0039 0.429688,0 0.78125,0.300781 0.917969,0.703125 0.132812,0.402343 0.02344,0.855469 -0.351563,1.097656 -0.3125,0.203129 -0.300781,0.445319 -0.253906,0.781259 0.164062,0 0.320312,0 0.472656,0 3.566406,0 7.128906,0 10.695313,0 0.230469,0 0.457031,0.004 0.6875,-0.008 5.519531,-0.28906 9.980469,-4.992189 9.980469,-10.546876 0.0078,-19.046876 0.0039,-38.089844 0.0039,-57.132813 0,-0.140625 0,-0.285156 0,-0.449219 z m -0.289063,33.453125 c 0,-11.105469 0,-22.207031 0.0078,-33.3125 0,-0.152343 0.132813,-0.300781 0.175781,-0.457031 0.02734,-0.09375 0.02734,-0.207031 0,-0.296875 -0.04297,-0.128906 -0.171875,-0.246094 -0.175781,-0.371094 -0.01172,-0.375 -0.01172,-0.753906 0.03125,-1.125 0.160156,-1.3125 0.921875,-2.003906 2.246094,-2.054687 0.3125,-0.01172 0.628906,-0.01953 0.945312,-0.01172 0.199219,0.0039 0.464844,-0.09375 0.492188,0.253906 0.109375,-0.02344 0.226562,-0.03125 0.332031,-0.07031 0.105469,-0.04687 0.199219,-0.175781 0.300781,-0.179688 0.496094,-0.01953 1.003907,-0.07031 1.488281,0.01172 0.34375,0.0625 0.636719,0.05859 0.980469,0.02734 0.328125,-0.03125 0.6875,0.128906 1.042969,-0.03906 0.0625,-0.02734 0.183594,0.07813 0.28125,0.101563 0.113281,0.03125 0.238281,0.06641 0.347656,0.04687 0.175782,-0.03125 0.347656,-0.152344 0.519532,-0.152344 6.328124,-0.0078 12.652343,-0.0039 18.980468,-0.0039 4.0625,0 8.121094,-0.0039 12.183594,0.0039 0.214844,0 0.515625,-0.121094 0.5625,0.265625 0.105469,-0.02344 0.214844,-0.03125 0.308594,-0.07422 0.109375,-0.04687 0.203125,-0.1875 0.300781,-0.1875 0.484375,0 0.972656,-0.0039 1.453125,0.05469 1.339844,0.167969 1.847656,1.023437 1.980469,2.261719 0.03125,0.296874 0.02344,0.605468 -0.0039,0.90625 -0.0078,0.117187 -0.125,0.21875 -0.171874,0.335937 -0.03516,0.09375 -0.05859,0.28125 -0.04688,0.285156 0.324219,0.101563 0.226563,0.367188 0.226563,0.578125 0,16.71875 0,33.433594 0,50.148438 0,2.367187 0.02734,4.730468 -0.0039,7.09375 -0.08203,5.828125 -4.441407,10.035159 -8.976563,10.753909 -0.8125,0.12891 -1.636718,0.21094 -2.453125,0.21875 -3.527343,0.0195 -7.054687,0.008 -10.582031,0.008 -0.183594,0 -0.390625,0.0664 -0.507812,-0.17187 -0.01953,-0.0391 -0.25,-0.0312 -0.308594,0.0234 -0.234375,0.23046 -0.429688,0.22656 -0.667969,0.004 -0.0625,-0.0586 -0.269531,-0.0586 -0.332031,0 -0.238282,0.22266 -0.4375,0.22656 -0.671875,-0.004 -0.05859,-0.0586 -0.289063,-0.0625 -0.304688,-0.0234 -0.121093,0.23437 -0.324219,0.17187 -0.507812,0.17187 -5.890625,0 -11.78125,0 -17.671875,0 -1.113282,0 -1.804688,-0.69922 -1.804688,-1.816407 0,-11.070312 0,-22.136718 0,-33.203125 z m 0,0" />
    <path
         d="m 66.394531,62.699219 c 4.933594,0 9.867188,0.0078 14.800781,0 2.957032,-0.0078 5.4375,-2.503907 5.4375,-5.464844 0.0039,-6.921875 0,-13.84375 -0.0039,-20.765625 0,-0.230469 -0.01953,-0.460938 -0.0625,-0.6875 -0.128906,-0.726562 -0.582031,-1.191406 -1.3125,-1.316406 -0.320312,-0.05469 -0.652344,-0.05469 -0.980468,-0.05469 -7.839844,-0.0039 -15.683594,-0.0039 -23.527344,-0.0039 -3.101563,0 -6.203125,0 -9.308594,0.01172 -1.277344,0.0039 -1.894531,0.632812 -1.894531,1.917969 -0.0039,8.132812 -0.0039,16.265624 0,24.398437 0,1.3125 0.667969,1.964844 1.976562,1.964844 4.960938,0 9.917969,0 14.875,0 m 1.734375,-28.582031 c 5.371094,0 10.742188,-0.0039 16.113282,0 0.359374,0 0.730468,0.0039 1.085937,0.06641 0.84375,0.144531 1.339844,0.683594 1.515625,1.507812 0.05859,0.257813 0.07813,0.527344 0.07813,0.792969 0.0039,6.898437 0.0039,13.796875 0,20.691406 0,3.210938 -2.621094,5.816407 -5.839844,5.816407 -9.84375,-0.0039 -19.6875,-0.0039 -29.527343,-0.0039 -0.171876,0 -0.339844,0 -0.507813,-0.02734 C 49.960938,62.800781 49.34375,62.136719 49.261719,61.042969 49.246094,60.851562 49.25,60.65625 49.25,60.460938 c 0,-7.988282 0,-15.972657 0,-23.960938 0,-0.207031 0,-0.417969 0.03125,-0.617188 0.191406,-1.160156 0.875,-1.746093 2.085938,-1.753906 2.289062,-0.01563 4.582031,-0.0078 6.871093,-0.01172 3.296875,0 6.59375,0 9.890625,0 z m 0,0"
    />
    <path
         d="m 53.101562,83.324219 h 3.785157 c 0,-0.152344 0,-0.28125 0,-0.410157 0,-0.875 0,-1.746093 0,-2.617187 0,-0.449219 0.01172,-0.464844 0.472656,-0.464844 0.839844,0 1.675781,0 2.511719,0 0.128906,0 0.253906,-0.01172 0.367187,-0.01563 v -3.773437 c -0.980469,0 -1.925781,0 -2.871093,0 -0.480469,0 -0.480469,0 -0.480469,-0.46875 0,-0.859375 -0.0078,-1.71875 0.0039,-2.582031 0.0039,-0.253907 -0.08203,-0.332032 -0.332031,-0.328126 -1.03125,0.01172 -2.058594,0.01172 -3.089844,0 -0.277344,-0.0039 -0.378906,0.07031 -0.375,0.367188 0.01953,0.859375 -0.0078,1.71875 0.01563,2.578125 0.01172,0.363281 -0.113281,0.457031 -0.457031,0.4375 -0.53125,-0.02344 -1.066406,-0.0039 -1.597656,-0.0039 -0.429688,0 -0.863282,0 -1.304688,0 v 3.789062 c 0.976562,0 1.921875,0 2.867188,0.0039 0.488281,0 0.488281,0 0.484374,0.476562 0,0.992188 0,1.984375 0,3.011719 M 57.175781,75.75 c 0.941407,0 1.824219,0 2.707031,0 0.652344,0.0039 0.679688,0.03125 0.679688,0.671875 0,1.054687 0.0039,2.109375 0,3.164063 0,0.488281 -0.05078,0.535156 -0.542969,0.535156 -0.933593,0.0039 -1.863281,0 -2.84375,0 0,0.214844 0,0.390625 0,0.566406 0,0.8125 0.0039,1.625 0,2.4375 -0.0039,0.410156 -0.105469,0.511719 -0.519531,0.511719 -1.113281,0.0039 -2.230469,0.0039 -3.34375,0 -0.40625,0 -0.496094,-0.08594 -0.5,-0.488281 -0.0039,-0.859376 0,-1.71875 0,-2.578126 0,-0.132812 0,-0.265624 0,-0.449218 -0.160156,0 -0.285156,0 -0.414062,0 -0.835938,0.0039 -1.671876,-0.0078 -2.507813,0.0078 -0.332031,0.0039 -0.464844,-0.136718 -0.464844,-0.453125 0.0039,-1.152343 0.0078,-2.300781 0,-3.453125 C 49.421875,75.875 49.589844,75.75 49.917969,75.75 c 0.808593,0.0039 1.621093,0 2.433593,0 0.132813,0 0.265626,0 0.441407,0 0.0078,-0.144531 0.01953,-0.269531 0.01953,-0.398438 0,-0.835937 0.0078,-1.671874 -0.0039,-2.507812 -0.0039,-0.332031 0.140625,-0.464844 0.453125,-0.464844 1.152343,0.0039 2.304687,0.0039 3.453125,0 0.34375,0 0.46875,0.15625 0.464844,0.492188 -0.01172,0.8125 -0.0039,1.625 -0.0039,2.433594 0,0.132812 0,0.265624 0,0.445312"
    />
    <path
         d="m 73.316406,78.828125 c -0.01563,2.796875 2.578125,4.472656 4.878906,3.40625 2.582032,-1.199219 5.160157,-2.40625 7.734376,-3.613281 1.808593,-0.847656 2.511718,-2.949219 1.589843,-4.738282 -0.785156,-1.523437 -2.746093,-2.300781 -4.207031,-1.625 -2.703125,1.25 -5.402344,2.511719 -8.089844,3.796876 -1.25,0.597656 -1.847656,1.65625 -1.90625,2.773437 m 11.167969,-7.058594 c 1.804687,0.0039 3.292969,1.230469 3.667969,3.027344 0.347656,1.65625 -0.601563,3.402344 -2.1875,4.128906 -2.527344,1.160157 -5.050782,2.335938 -7.558594,3.542969 -1.859375,0.898438 -4.132812,0.113281 -5.039062,-1.792969 -0.867188,-1.8125 -0.03516,-4.070312 1.785156,-4.917969 2.589844,-1.203124 5.164062,-2.433593 7.761718,-3.625 0.480469,-0.222656 1.027344,-0.308593 1.546876,-0.457031 0.0078,0.03125 0.01562,0.0625 0.02344,0.09375"
    />
    <path
         d="m 62.703125,64.300781 c -0.140625,0.246094 -0.230469,0.40625 -0.339844,0.589844 h 0.429688 c -0.02734,-0.179687 -0.05078,-0.335937 -0.08984,-0.589844 m -1.15625,-0.355469 c -0.01172,0.113282 -0.01953,0.226563 -0.03516,0.382813 -0.128907,-0.02734 -0.230469,-0.05078 -0.332031,-0.06641 -0.617188,-0.105469 -1.058594,0.191406 -1.136719,0.816406 -0.01953,0.164063 0.04687,0.417969 0.164062,0.507813 0.140625,0.105468 0.394531,0.128906 0.574219,0.08594 0.105469,-0.02734 0.160156,-0.253906 0.253906,-0.421875 -0.148437,-0.05859 -0.242187,-0.09375 -0.332031,-0.128906 0.0078,-0.386719 0.01563,-0.390625 0.789063,-0.316406 -0.04688,0.304687 -0.09375,0.605468 -0.140626,0.90625 0.01563,0.0078 0.03516,0.01562 0.05078,0.02344 0.300781,-0.5 0.601562,-1.003906 0.902344,-1.503906 0.238281,-0.398438 0.238281,-0.398438 0.742187,-0.316407 0.109375,0.59375 0.222656,1.195313 0.332031,1.800782 0.02344,0.0039 0.04687,0.0039 0.06641,0.0078 0.101563,-0.460937 0.207032,-0.925781 0.304688,-1.386718 0.113281,-0.511719 0.113281,-0.511719 0.667969,-0.417969 0.05078,0.453125 0.101562,0.914062 0.152343,1.375 0.02344,0.0039 0.04688,0.0078 0.07422,0.01172 0.15625,-0.332032 0.347657,-0.652344 0.464844,-1 0.136719,-0.40625 0.382813,-0.511719 0.808594,-0.382813 -0.101563,0.65625 -0.195313,1.324219 -0.320313,1.984375 -0.01953,0.07813 -0.222656,0.125 -0.441406,0.238281 0.08594,-0.585937 0.15625,-1.046875 0.222656,-1.507812 -0.01953,-0.0078 -0.03906,-0.01563 -0.05859,-0.02734 -0.140624,0.320313 -0.285156,0.636719 -0.429687,0.953125 -0.05078,0.109375 -0.07813,0.242188 -0.15625,0.324219 -0.07813,0.08203 -0.210937,0.15625 -0.316406,0.152343 -0.0625,-0.0039 -0.160157,-0.152343 -0.175781,-0.242187 -0.05859,-0.339844 -0.09375,-0.6875 -0.191407,-1.023437 -0.08203,0.414062 -0.164062,0.828124 -0.25,1.257812 h -0.835937 c -0.02734,-0.105469 -0.03906,-0.226562 -0.08594,-0.332031 -0.05469,-0.136719 -0.117187,-0.355469 -0.210937,-0.375 -0.242188,-0.04297 -0.539063,-0.109375 -0.664063,0.246093 -0.136718,0.386719 -0.375,0.585938 -0.824218,0.453126 -0.15625,-0.04688 -0.355469,0.05078 -0.535157,0.06641 -0.847656,0.08594 -1.28125,-0.453125 -1.023437,-1.273438 0.253906,-0.800781 0.960937,-1.128906 1.925781,-0.871094"
    />
    <path
         d="m 60.160156,90.640625 c 0.08203,-0.02344 0.265625,-0.04297 0.425782,-0.117187 1.292968,-0.605469 2.582031,-1.214844 3.867187,-1.835938 0.394531,-0.191406 0.585937,-0.539062 0.578125,-0.972656 -0.01172,-0.433594 -0.1875,-0.789063 -0.597656,-1.007813 -0.347656,-0.183593 -0.695313,-0.179687 -1.042969,-0.01563 C 62.132812,87.28125 60.875,87.875 59.617188,88.46875 c -0.515626,0.242188 -0.769532,0.734375 -0.652344,1.242188 0.132812,0.578124 0.539062,0.921874 1.195312,0.929687 m 3.726563,-4.367187 c 0.703125,0.03125 1.21875,0.441406 1.398437,1.132812 0.148438,0.570312 -0.144531,1.257812 -0.707031,1.535156 -1.308594,0.636719 -2.617187,1.261719 -3.941406,1.863282 -0.742188,0.335937 -1.507813,0.0078 -1.847657,-0.726563 -0.332031,-0.714844 -0.07031,-1.476563 0.667969,-1.835937 1.285157,-0.628907 2.578125,-1.234376 3.871094,-1.839844 0.171875,-0.07813 0.371094,-0.08984 0.558594,-0.128906"
         />
         <path
         d="m 74.09375,93.617188 c -0.402344,0.01562 -0.511719,0.257812 -0.320312,0.578124 1.03125,1.742188 2.070312,3.472657 3.101562,5.214844 0.136719,0.234375 0.34375,0.269532 0.511719,0.136719 0.08984,-0.07031 0.132812,-0.347656 0.07031,-0.457031 -1.03125,-1.769532 -2.082031,-3.523438 -3.136719,-5.28125 -0.05859,-0.09766 -0.183593,-0.15625 -0.226562,-0.191406 m 3.75,5.597656 c -0.02344,0.371094 -0.15625,0.589844 -0.445312,0.675781 -0.3125,0.09375 -0.574219,0.0039 -0.75,-0.285156 -0.378907,-0.632813 -0.757813,-1.265625 -1.136719,-1.898438 -0.664063,-1.113281 -1.324219,-2.226562 -1.984375,-3.339843 -0.242188,-0.40625 -0.167969,-0.808594 0.179687,-1.007813 0.316407,-0.175781 0.675781,-0.03906 0.90625,0.347656 1.007813,1.695313 2.015625,3.390625 3.023438,5.085938 0.08984,0.152343 0.15625,0.320312 0.207031,0.421875"
         />
         <path
         d="m 79.695312,98.074219 c -0.07031,-0.128907 -0.117187,-0.226563 -0.167968,-0.320313 -0.5625,-0.945312 -1.125,-1.890625 -1.6875,-2.835937 -0.472656,-0.792969 -0.933594,-1.585938 -1.421875,-2.363281 -0.0625,-0.105469 -0.25,-0.183594 -0.375,-0.179688 -0.08594,0 -0.222657,0.152344 -0.238281,0.253906 -0.01953,0.113282 0.05469,0.253906 0.121093,0.363282 0.925781,1.5625 1.851563,3.121093 2.78125,4.679687 0.117188,0.195313 0.222657,0.40625 0.371094,0.578125 0.07031,0.07813 0.246094,0.121094 0.347656,0.09375 0.105469,-0.03125 0.175781,-0.171875 0.269531,-0.269531 M 76.144531,91.96875 c 0.179688,0.140625 0.417969,0.242188 0.527344,0.425781 1.066406,1.757813 2.117187,3.527344 3.164063,5.296875 0.207031,0.347656 0.125,0.691406 -0.183594,0.882813 -0.316406,0.195312 -0.667969,0.121093 -0.875,-0.21875 -1.074219,-1.785157 -2.140625,-3.570313 -3.199219,-5.363281 -0.253906,-0.433594 0.03516,-0.949219 0.566406,-1.023438"
        />
         <path
         d="M 86.019531,94.292969 C 85.949219,94.160156 85.90625,94.0625 85.851562,93.972656 85.097656,92.703125 84.34375,91.4375 83.589844,90.167969 83.3125,89.703125 83.035156,89.234375 82.757812,88.765625 c -0.125,-0.207031 -0.328124,-0.25 -0.488281,-0.113281 -0.08984,0.07422 -0.08984,0.285156 -0.08203,0.433594 0.0039,0.09766 0.09375,0.191406 0.152344,0.285156 0.886718,1.496094 1.773437,2.992187 2.660156,4.488281 0.117188,0.199219 0.210938,0.417969 0.363281,0.582031 0.08594,0.09375 0.273438,0.140625 0.40625,0.121094 0.08984,-0.01172 0.164063,-0.167969 0.25,-0.269531 m -4.203125,-5.320313 c 0.02344,-0.402344 0.1875,-0.605468 0.472656,-0.671875 0.277344,-0.06641 0.535157,0.0039 0.695313,0.265625 0.304687,0.507813 0.605469,1.019532 0.910156,1.53125 0.726563,1.214844 1.449219,2.433594 2.175781,3.652344 0.04297,0.07031 0.08984,0.144531 0.125,0.222656 0.152344,0.324219 0.05469,0.675782 -0.242187,0.855469 -0.273437,0.164063 -0.632813,0.09766 -0.828125,-0.203125 -0.371094,-0.582031 -0.71875,-1.179688 -1.070312,-1.773438 -0.675782,-1.136718 -1.347657,-2.269531 -2.019532,-3.410156 -0.101562,-0.171875 -0.171875,-0.363281 -0.21875,-0.46875"
         />
         <path
         d="m 71.445312,86.546875 c -0.175781,0.04687 -0.359374,0.06641 -0.519531,0.140625 -1.273437,0.589844 -2.542969,1.1875 -3.808593,1.789062 -0.589844,0.28125 -0.824219,0.917969 -0.558594,1.492188 0.269531,0.59375 0.867187,0.828125 1.484375,0.5625 0.378906,-0.160156 0.75,-0.34375 1.121093,-0.515625 0.910157,-0.425781 1.820313,-0.847656 2.726563,-1.28125 0.507813,-0.242187 0.757813,-0.773437 0.632813,-1.292969 -0.125,-0.515625 -0.554688,-0.863281 -1.078126,-0.894531 m -5.261718,2.824219 c 0.01953,-0.429688 0.246094,-0.875 0.765625,-1.125 1.320312,-0.632813 2.640625,-1.265625 3.96875,-1.875 0.664062,-0.300782 1.480469,0.0625 1.792969,0.75 0.308593,0.683594 0.04687,1.496094 -0.628907,1.832031 -0.945312,0.464844 -1.902343,0.898437 -2.855469,1.347656 -0.359374,0.167969 -0.71875,0.34375 -1.089843,0.5 -0.949219,0.398438 -1.953125,-0.273437 -1.953125,-1.429687"
         />
         <path
         d="m 78.316406,91.089844 c -0.386718,-0.0039 -0.511718,0.273437 -0.328125,0.582031 1.035157,1.75 2.074219,3.492187 3.109375,5.242187 0.125,0.210938 0.3125,0.28125 0.480469,0.140626 0.09766,-0.08203 0.08984,-0.296876 0.113281,-0.457032 0.0078,-0.03906 -0.03906,-0.08594 -0.0625,-0.125 -1.023437,-1.71875 -2.039062,-3.433594 -3.066406,-5.144531 -0.06641,-0.113281 -0.195312,-0.191406 -0.246094,-0.238281 m 3.8125,5.769531 c -0.164062,0.175781 -0.296875,0.394531 -0.492187,0.507813 -0.21875,0.132812 -0.476563,0.07422 -0.652344,-0.144532 -0.132813,-0.167968 -0.257813,-0.351562 -0.367187,-0.539062 -0.941407,-1.578125 -1.878907,-3.15625 -2.816407,-4.738282 -0.02734,-0.04297 -0.05078,-0.08203 -0.07422,-0.125 -0.214843,-0.40625 -0.148437,-0.753906 0.183594,-0.949218 0.328125,-0.195313 0.679688,-0.08203 0.914063,0.304687 0.375,0.621094 0.746093,1.246094 1.113281,1.871094 0.652344,1.089844 1.300781,2.183594 1.945312,3.277344 0.08203,0.140625 0.136719,0.300781 0.246094,0.535156"
         />
         <path
         d="m 80.414062,89.839844 c -0.410156,0.0078 -0.5,0.269531 -0.292968,0.617187 0.960937,1.613281 1.921875,3.226563 2.882812,4.839844 0.08984,0.144531 0.144532,0.328125 0.269532,0.421875 0.113281,0.08203 0.335937,0.132812 0.4375,0.07031 0.08984,-0.05078 0.140624,-0.296874 0.09766,-0.417968 -0.07813,-0.226563 -0.238282,-0.421875 -0.359375,-0.628906 -0.917969,-1.539063 -1.835938,-3.078126 -2.757813,-4.613282 -0.07813,-0.132812 -0.214844,-0.226562 -0.277344,-0.289062 m 3.003907,6.335937 c -0.09375,-0.07422 -0.332031,-0.183593 -0.441407,-0.367187 -1.070312,-1.757813 -2.117187,-3.527344 -3.164062,-5.292969 -0.210938,-0.359375 -0.113281,-0.714844 0.222656,-0.90625 0.308594,-0.179687 0.652344,-0.07422 0.863282,0.273437 1.042968,1.742188 2.082031,3.488282 3.117187,5.238282 0.292969,0.496094 0.04687,1.035156 -0.597656,1.054687"
         />
         <path
         d="m 87.652344,93.34375 c 0.414062,-0.01172 0.519531,-0.246094 0.335937,-0.5625 C 86.960938,91.054688 85.933594,89.328125 84.914062,87.597656 84.78125,87.375 84.628906,87.238281 84.390625,87.359375 84.125,87.5 84.214844,87.722656 84.335938,87.921875 c 1.03125,1.738281 2.0625,3.480469 3.097656,5.214844 0.05859,0.101562 0.175781,0.167969 0.21875,0.207031 m 0.796875,-0.253906 c -0.140625,0.160156 -0.25,0.398437 -0.429688,0.46875 -0.175781,0.07031 -0.429687,0.0078 -0.632812,-0.05469 -0.105469,-0.03125 -0.191407,-0.179687 -0.257813,-0.292968 -1.023437,-1.714844 -2.042968,-3.433594 -3.0625,-5.152344 -0.164062,-0.273438 -0.214844,-0.542969 0.0039,-0.804688 0.308594,-0.363281 0.796876,-0.308594 1.054688,0.125 0.679688,1.132813 1.351562,2.269532 2.027344,3.402344 0.351562,0.59375 0.707031,1.1875 1.054687,1.78125 0.08203,0.144531 0.140625,0.304688 0.242188,0.527344"
        />
         <path
         d="m 68.527344,64.828125 c 0.257812,-0.08984 0.445312,-0.132813 0.601562,-0.222656 0.05078,-0.02734 0.05078,-0.269531 0.02734,-0.277344 -0.160156,-0.05859 -0.332031,-0.07422 -0.515625,-0.105469 -0.03516,0.191406 -0.0625,0.328125 -0.113281,0.605469 m -0.136719,0.832031 c 0.292969,0.02734 0.59375,0.121094 0.6875,-0.253906 0.01953,-0.06641 -0.152344,-0.246094 -0.257813,-0.269531 -0.464843,-0.113281 -0.34375,0.28125 -0.429687,0.523437 m 0.933594,-0.75 c 0.25,0.226563 0.277343,0.457032 0.164062,0.71875 -0.125,0.289063 -0.339843,0.425782 -0.652343,0.425782 -0.308594,-0.0039 -0.621094,-0.0039 -0.976563,-0.0039 0.128906,-0.738281 0.25,-1.4375 0.375,-2.15625 0.3125,0 0.605469,-0.02344 0.890625,0.0078 0.171875,0.01953 0.433594,0.09375 0.476562,0.207031 0.06641,0.171875 -0.01562,0.40625 -0.0625,0.609375 -0.01562,0.06641 -0.121093,0.113281 -0.214843,0.191406"
         />
         <path
         d="m 71.410156,64.839844 c 0.01563,-0.371094 -0.15625,-0.578125 -0.484375,-0.589844 -0.40625,-0.01953 -0.746093,0.351562 -0.777343,0.839844 -0.02344,0.351562 0.199218,0.613281 0.519531,0.617187 0.40625,0.0039 0.722656,-0.367187 0.742187,-0.867187 M 69.6875,65.171875 c 0.01563,-0.796875 0.554688,-1.328125 1.328125,-1.3125 0.574219,0.01172 0.886719,0.347656 0.871094,0.925781 -0.02734,0.761719 -0.566407,1.328125 -1.265625,1.316406 -0.648438,-0.0078 -0.949219,-0.308593 -0.933594,-0.929687"
         />
         <path
         d="m 66.34375,65.671875 h 0.84375 c 0.03906,0.28125 -0.03516,0.398437 -0.300781,0.382813 -0.359375,-0.01563 -0.722657,-0.0039 -1.125,-0.0039 0.128906,-0.738281 0.253906,-1.433593 0.382812,-2.152343 H 67.5 c 0.05859,0.265624 -0.0078,0.414062 -0.316406,0.375 -0.08203,-0.0078 -0.171875,0.01172 -0.253906,0 -0.34375,-0.05078 -0.464844,0.109374 -0.417969,0.472656 h 0.734375 c 0.0625,0.398437 -0.167969,0.429687 -0.425782,0.394531 C 66.4375,65.089844 66.285156,65.25 66.34375,65.671875"
         />
         <path
         d="m 73.648438,63.90625 c -0.414063,0.707031 -1.042969,1.257812 -1.015626,2.125 h -0.535156 c 0.425782,-0.777344 -0.01563,-1.433594 -0.199218,-2.117188 0.4375,-0.07422 0.4375,-0.07422 0.730468,0.730469 0.378906,-0.179687 0.339844,-0.910156 1.019532,-0.738281"
         />
         <path
         d="m 49.558594,66.082031 h -0.363282 v -1.273437 c 0.28125,-0.132813 0.425782,0.02344 0.550782,0.234375 0.113281,0.183593 0.234375,0.359375 0.425781,0.519531 v -0.777344 h 0.371094 v 1.292969 c -0.65625,0.132813 -0.574219,-0.609375 -0.984375,-0.804687 z m 0,0"
         />
         <path
         d="m 56.96875,65.351562 c -0.03125,-0.01953 -0.05859,-0.03516 -0.08594,-0.05469 -0.05859,0.06641 -0.167968,0.136719 -0.164062,0.199219 0.0039,0.160156 0.05859,0.3125 0.09375,0.472656 0.05078,-0.05078 0.140625,-0.09375 0.148438,-0.152344 0.01953,-0.152344 0.0078,-0.308594 0.0078,-0.464844 m 0.382812,0.6875 c -0.195312,0.01953 -0.347656,0.02734 -0.503906,0.05078 -0.382812,0.05469 -0.578125,-0.08203 -0.597656,-0.433594 -0.02344,-0.359375 0.132812,-0.507812 0.527344,-0.507812 0.05859,0 0.117187,0.0039 0.183594,0.0078 0.01562,-0.128906 0.02734,-0.246094 0.04297,-0.375 h 0.347656 z m 0,0"
         />
         <path
         d="m 54.738281,65.628906 h -0.777343 c 0.03125,0.148438 0.05469,0.257813 0.07812,0.363282 0.08984,-0.04688 0.175782,-0.109376 0.273438,-0.136719 0.09375,-0.03125 0.199219,-0.03125 0.332031,-0.04687 -0.214843,0.300781 -0.578125,0.421875 -0.859375,0.230468 -0.148437,-0.09766 -0.285156,-0.355468 -0.265625,-0.523437 0.03906,-0.347656 0.355469,-0.378906 0.644531,-0.371094 0.296876,0.0039 0.554688,0.07813 0.574219,0.484375"
         />
         <path
         d="m 57.996094,65.597656 c 0.0039,0.09375 -0.0078,0.195313 0.01563,0.285156 0.01953,0.05078 0.08594,0.109376 0.144531,0.125 0.03516,0.0078 0.132812,-0.05078 0.132812,-0.08203 0.01172,-0.199219 0.01172,-0.402343 -0.0039,-0.601562 0,-0.03125 -0.09375,-0.07422 -0.140625,-0.07031 -0.04687,0.0039 -0.113281,0.05078 -0.128906,0.09375 -0.02344,0.07813 -0.01563,0.164063 -0.01953,0.25 m 0.160156,0.511719 c -0.410156,0.0039 -0.648438,-0.1875 -0.640625,-0.515625 0.0039,-0.285156 0.230469,-0.453125 0.617187,-0.457031 0.417969,-0.0039 0.648438,0.15625 0.65625,0.453125 0.0078,0.335937 -0.214843,0.519531 -0.632812,0.519531"
         />
         <path
         d="m 51.875,66.042969 h -0.382812 v -0.816407 c 0.253906,-0.03125 0.507812,-0.07422 0.761718,-0.08594 0.234375,-0.01172 0.394532,0.101563 0.402344,0.359375 0.0039,0.175781 0,0.355469 0,0.546875 h -0.414062 c 0,-0.179687 0.02344,-0.347656 -0.0078,-0.503906 -0.01563,-0.07813 -0.128906,-0.132813 -0.195313,-0.195313 -0.05469,0.0625 -0.144531,0.121094 -0.15625,0.191406 -0.02344,0.152344 -0.0078,0.308594 -0.0078,0.503907"
         />
         <path
         d="m 54.9375,65.226562 c 0.246094,-0.03125 0.46875,-0.07031 0.691406,-0.08984 0.328125,-0.03125 0.460938,0.09766 0.46875,0.433593 0,0.15625 0,0.308594 0,0.472657 h -0.40625 c -0.0078,-0.109375 -0.01172,-0.203125 -0.02734,-0.296875 -0.02734,-0.144532 0.09766,-0.382813 -0.175781,-0.394532 -0.277343,-0.0078 -0.175781,0.226563 -0.191406,0.378907 -0.01172,0.09375 -0.01563,0.1875 -0.01953,0.304687 H 54.9375 Z m 0,0"
         />
         <path
         d="m 52.855469,65.050781 h 0.574219 c -0.04297,0.203125 -0.08984,0.339844 -0.101563,0.480469 -0.01563,0.164062 -0.0039,0.335938 -0.0039,0.511719 -0.308594,0.144531 -0.421875,0.05078 -0.410157,-0.277344 0.0078,-0.203125 -0.03125,-0.410156 -0.05859,-0.714844"
         />
         <path
         d="M 50.816406,66.050781 V 65.1875 h 0.324219 c 0.195313,0.675781 0.08984,0.957031 -0.324219,0.863281"
         />
         <path
         d="M 56.476562,59.285156 H 79.925781 V 37.804688 H 56.476562 Z m 11.703126,0.316406 c -3.867188,0 -7.734376,-0.0039 -11.597657,0.0078 -0.339843,0 -0.425781,-0.09375 -0.425781,-0.425781 0.0078,-7.054688 0.0078,-14.109375 0.0078,-21.160156 0,-0.523438 0,-0.527344 0.519532,-0.527344 7.695312,0 15.390625,0.0039 23.085937,-0.0078 0.359375,0 0.476563,0.08984 0.476563,0.464844 -0.01172,7.09375 -0.0078,14.183594 0,21.273437 0,0.351563 -0.144532,0.382813 -0.433594,0.382813 -3.875,-0.0078 -7.753906,-0.0039 -11.632812,-0.0039 z m 0,0"
         />
         <path
         d="m 52.6875,45.226562 c 0,-0.28125 -0.199219,-0.472656 -0.484375,-0.464843 -0.289063,0.0039 -0.476563,0.199219 -0.460937,0.488281 0.01562,0.289062 0.183593,0.4375 0.464843,0.449219 0.28125,0.01172 0.480469,-0.195313 0.480469,-0.472657 m -0.472656,0.761719 c -0.445313,0 -0.769532,-0.328125 -0.765625,-0.777343 0.0039,-0.425782 0.328125,-0.742188 0.761719,-0.742188 0.425781,-0.0039 0.761718,0.320312 0.769531,0.738281 0.0078,0.441407 -0.324219,0.78125 -0.765625,0.78125"
         />
         <path
         d="m 54.992188,78.941406 c 0.550781,-0.0039 0.960937,-0.417968 0.953124,-0.964844 -0.0078,-0.519531 -0.433593,-0.917968 -0.96875,-0.910156 -0.527343,0.0039 -0.9375,0.417969 -0.933593,0.945313 0.0039,0.523437 0.421875,0.929687 0.949219,0.929687 m -0.02344,0.289063 c -0.691406,-0.0039 -1.222656,-0.558594 -1.210938,-1.261719 0.01172,-0.671875 0.554688,-1.195312 1.238282,-1.195312 0.699218,0.0039 1.25,0.554687 1.238281,1.242187 -0.01172,0.695313 -0.558594,1.222656 -1.265625,1.214844"
         />
         <path
         d="m 54.941406,81.34375 c 0.335938,0 0.675782,0.01563 1.011719,-0.0078 0.08203,-0.0078 0.160156,-0.132813 0.238281,-0.203126 -0.07422,-0.06641 -0.144531,-0.191406 -0.214844,-0.191406 -0.675781,-0.01563 -1.351562,-0.01953 -2.023437,-0.0039 -0.08203,0.0039 -0.160156,0.140625 -0.238281,0.214844 0.08203,0.0625 0.164062,0.175781 0.25,0.179687 0.324218,0.02344 0.652344,0.01172 0.976562,0.01172 m -0.0039,0.289062 c -0.339844,0 -0.675781,0.0039 -1.015625,0 -0.296875,-0.0039 -0.488281,-0.148437 -0.511719,-0.449218 -0.02344,-0.320313 0.144532,-0.523438 0.464844,-0.53125 0.722656,-0.01563 1.453125,-0.01953 2.175781,0 0.296875,0.0078 0.457031,0.214844 0.441407,0.515625 -0.01953,0.300781 -0.203126,0.457031 -0.5,0.464843 -0.351563,0.0078 -0.703126,0 -1.054688,0 z m 0,0"
         />
         <path
         d="m 54.925781,80.171875 c 0.328125,0 0.652344,0.01953 0.976563,-0.0078 0.101562,-0.0078 0.191406,-0.128906 0.289062,-0.199218 -0.09375,-0.07031 -0.183594,-0.199219 -0.277344,-0.203125 -0.640624,-0.01953 -1.277343,-0.01953 -1.917968,0 -0.09766,0 -0.195313,0.125 -0.289063,0.191406 0.105469,0.07422 0.203125,0.199219 0.316407,0.210937 0.296874,0.03125 0.601562,0.0078 0.902343,0.0078 m 0.02344,0.292969 c -0.339844,0 -0.679688,0.0039 -1.015625,-0.0039 -0.3125,-0.0039 -0.511719,-0.15625 -0.523438,-0.476563 -0.01172,-0.316406 0.175782,-0.503906 0.488282,-0.507813 0.699218,-0.01562 1.402343,-0.01562 2.101562,-0.0039 0.308594,0.0078 0.496094,0.1875 0.488281,0.511719 -0.0039,0.289063 -0.222656,0.472656 -0.5625,0.476563 -0.324219,0.0078 -0.652343,0.0039 -0.976562,0.0039"
         />
         <path
         d="m 54.964844,82.144531 v -0.0039 c -0.324219,0 -0.652344,-0.01172 -0.976563,0.01172 -0.101562,0.0078 -0.191406,0.128906 -0.285156,0.195312 0.09375,0.07031 0.1875,0.195313 0.285156,0.199219 0.640625,0.01563 1.28125,0.01563 1.921875,0 0.09375,-0.0039 0.1875,-0.128906 0.28125,-0.199219 -0.09375,-0.06641 -0.183594,-0.183594 -0.28125,-0.195312 -0.3125,-0.02344 -0.628906,-0.0078 -0.945312,-0.0078 m -0.01563,0.703125 c -0.324219,0 -0.652344,0.0039 -0.980469,0 -0.335938,-0.0078 -0.554688,-0.199218 -0.5625,-0.488281 -0.0039,-0.292969 0.199219,-0.492187 0.542969,-0.5 0.664062,-0.01172 1.332031,-0.01172 1.996093,-0.0039 0.339844,0.0039 0.554688,0.214843 0.550782,0.5 -0.0039,0.28125 -0.230469,0.484375 -0.566406,0.488281 -0.324219,0.0078 -0.652344,0.0039 -0.980469,0.0039 z m 0,0"
         />
         <path
         d="m 54.992188,76.125 v -0.0039 c 0.339843,0 0.679687,0.01172 1.015624,-0.0078 0.08984,-0.0078 0.167969,-0.117187 0.253907,-0.183593 -0.08594,-0.06641 -0.167969,-0.1875 -0.253907,-0.1875 -0.652343,-0.01563 -1.308593,-0.01953 -1.960937,0 -0.08984,0 -0.179687,0.136718 -0.265625,0.210937 0.08984,0.05859 0.175781,0.15625 0.269531,0.164063 0.3125,0.01953 0.628907,0.0078 0.941407,0.0078 m 0.03516,0.285156 c -0.351563,0 -0.699219,0.0039 -1.050782,0 -0.300781,-0.0039 -0.472656,-0.164062 -0.492187,-0.464844 -0.01953,-0.285156 0.175781,-0.492187 0.5,-0.496093 0.699219,-0.01172 1.398437,-0.0078 2.101563,0 0.304687,0.0039 0.46875,0.1875 0.472656,0.484375 0,0.304687 -0.179688,0.46875 -0.480469,0.476562 -0.347656,0.01172 -0.699219,0.0039 -1.050781,0.0039 z m 0,0"
         />
         <path
         d="m 55.011719,73.761719 c 0.304687,0 0.609375,0.01953 0.90625,-0.01172 0.125,-0.01172 0.234375,-0.140625 0.351562,-0.21875 -0.109375,-0.0625 -0.214843,-0.183594 -0.328125,-0.1875 -0.617187,-0.01563 -1.234375,-0.01563 -1.851562,0.0039 -0.105469,0.0039 -0.210938,0.128906 -0.3125,0.203125 0.109375,0.06641 0.210937,0.1875 0.328125,0.199219 0.296875,0.03125 0.601562,0.01172 0.90625,0.01172 m 0.0039,0.289062 c -0.324219,0 -0.652344,0.0078 -0.976563,0 -0.328124,-0.0078 -0.554687,-0.210937 -0.5625,-0.492187 -0.0078,-0.289063 0.203126,-0.5 0.535157,-0.507813 0.675781,-0.0078 1.351562,-0.0039 2.027343,0 0.316407,0 0.5,0.164063 0.519532,0.480469 0.01563,0.292969 -0.207032,0.511719 -0.527344,0.519531 -0.335938,0.0078 -0.675781,0 -1.015625,0"
         />
         <path
         d="m 50.410156,77.886719 c 0,0.339843 -0.01172,0.679687 0.0078,1.015625 0.0078,0.08984 0.125,0.167968 0.191406,0.253906 0.06641,-0.08594 0.1875,-0.167969 0.191406,-0.253906 0.01563,-0.65625 0.01563,-1.308594 0,-1.964844 -0.0039,-0.08984 -0.113281,-0.175781 -0.175781,-0.265625 -0.07031,0.08984 -0.195312,0.175781 -0.203125,0.269531 -0.02734,0.3125 -0.01172,0.628906 -0.01172,0.945313 m -0.289062,0.0039 c 0,-0.335937 -0.0078,-0.675781 0,-1.011719 0.0078,-0.292968 0.144531,-0.484375 0.460937,-0.496094 0.304688,-0.01562 0.507813,0.152344 0.511719,0.476563 0.01172,0.699219 0.0078,1.398437 0,2.101563 -0.0039,0.296874 -0.175781,0.46875 -0.476562,0.484374 -0.285157,0.01172 -0.484376,-0.1875 -0.496094,-0.503906 -0.0078,-0.347656 0,-0.699218 0,-1.050781"
         />
         <path
         d="m 57.195312,77.992188 c 0,-0.335938 0.01172,-0.675782 -0.01172,-1.015626 -0.0039,-0.07812 -0.128906,-0.152343 -0.203125,-0.230468 -0.05859,0.07813 -0.164063,0.152344 -0.167969,0.230468 -0.01172,0.664063 -0.01563,1.328126 0,1.996094 0.0039,0.08594 0.121094,0.167969 0.1875,0.253906 0.0625,-0.08594 0.179688,-0.167968 0.183594,-0.253906 0.02344,-0.324218 0.01172,-0.652344 0.01172,-0.980468 m 0.289063,0.02344 c 0,0.328125 0.0078,0.652344 0,0.980469 -0.0078,0.332031 -0.183594,0.523437 -0.46875,0.523437 -0.308594,0.0039 -0.492187,-0.1875 -0.496094,-0.535156 -0.0078,-0.675781 -0.0078,-1.355469 0,-2.03125 0.0039,-0.328125 0.1875,-0.503906 0.484375,-0.503906 0.292969,0 0.472656,0.183593 0.480469,0.515625 0.0078,0.351562 0,0.703125 0,1.050781"
         />
         <path
         d="m 59.582031,77.996094 c 0,-0.316406 0.01953,-0.632813 -0.0078,-0.941406 -0.01172,-0.109376 -0.132813,-0.207032 -0.203125,-0.308594 -0.07031,0.09375 -0.191406,0.1875 -0.195313,0.285156 -0.01563,0.640625 -0.01563,1.28125 0.0039,1.917969 0,0.09375 0.132812,0.1875 0.203124,0.277343 0.07031,-0.09766 0.183594,-0.1875 0.191407,-0.292968 0.02734,-0.308594 0.01172,-0.625 0.0078,-0.9375 m 0.292969,-0.0078 c 0,0.328125 0.0039,0.652344 0,0.980469 -0.01172,0.34375 -0.195312,0.546875 -0.492188,0.550781 -0.292968,0.0039 -0.496093,-0.203125 -0.503906,-0.546875 -0.0078,-0.664062 -0.0078,-1.328125 0.0039,-1.996094 0.0039,-0.34375 0.203126,-0.535156 0.511719,-0.523437 0.332031,0.01172 0.46875,0.214844 0.476563,0.519531 0.01172,0.339844 0.0039,0.679688 0.0039,1.015625"
         />
         <path
         d="m 57.972656,77.960938 c 0,0.328124 -0.01563,0.65625 0.01172,0.980468 0.0078,0.101563 0.125,0.191406 0.195313,0.285156 0.0625,-0.09766 0.179687,-0.195312 0.179687,-0.292968 0.01953,-0.640625 0.01953,-1.285156 0.0039,-1.925782 -0.0039,-0.08984 -0.113281,-0.175781 -0.175781,-0.261718 -0.07031,0.08984 -0.195312,0.175781 -0.203125,0.269531 -0.02734,0.316406 -0.01172,0.628906 -0.01172,0.945313 m -0.289062,-0.0039 c 0,-0.335937 -0.0078,-0.675781 0.0039,-1.011719 0.01172,-0.328124 0.199219,-0.5 0.5,-0.492187 0.316406,0.0078 0.464844,0.191406 0.46875,0.484375 0.01172,0.699219 0.0078,1.402344 0,2.101562 -0.0039,0.300782 -0.179688,0.476563 -0.476562,0.476563 -0.300782,0 -0.476563,-0.175781 -0.492188,-0.46875 -0.01563,-0.363281 -0.0039,-0.726563 -0.0039,-1.089844"
         />
         <path
         d="m 52.015625,77.925781 c 0,-0.328125 0.01563,-0.652343 -0.01172,-0.976562 -0.0078,-0.09766 -0.128906,-0.183594 -0.199218,-0.277344 -0.06641,0.08594 -0.1875,0.167969 -0.191407,0.25 -0.01563,0.652344 -0.01563,1.300781 0,1.953125 0,0.09375 0.132813,0.1875 0.203125,0.277344 0.06641,-0.09375 0.179688,-0.1875 0.191406,-0.289063 0.02344,-0.3125 0.0078,-0.625 0.0078,-0.9375 m 0.289063,-0.01563 c 0,0.339844 0.0078,0.675782 -0.0039,1.015625 -0.0078,0.308594 -0.160156,0.503907 -0.480469,0.519531 -0.277343,0.01953 -0.492187,-0.1875 -0.5,-0.503906 -0.01172,-0.691406 -0.01172,-1.378906 0,-2.066406 0.0039,-0.324219 0.203126,-0.5 0.503907,-0.492188 0.332031,0.0078 0.46875,0.207032 0.476562,0.511719 0.0078,0.339844 0.0039,0.675781 0.0039,1.015625"
         />
         <path
         d="m 55.039062,74.953125 c 0.328126,0 0.652344,0.01172 0.976563,-0.0078 0.08594,-0.0039 0.164063,-0.09766 0.246094,-0.152343 -0.07031,-0.08203 -0.136719,-0.234375 -0.210938,-0.234375 -0.6875,-0.01563 -1.371093,-0.01563 -2.058593,0.0039 -0.07422,0 -0.144532,0.128906 -0.21875,0.199219 0.08594,0.0625 0.167968,0.175781 0.253906,0.183593 0.335937,0.01953 0.675781,0.0078 1.011718,0.0078 m -0.01562,0.289063 c -0.339844,0 -0.675782,0.0039 -1.015626,0 -0.3125,0 -0.511718,-0.152344 -0.519531,-0.472657 -0.0078,-0.304687 0.160157,-0.503906 0.484375,-0.507812 0.699219,-0.0078 1.398438,-0.0078 2.097656,0 0.320313,0.0039 0.480469,0.195312 0.488282,0.507812 0.0078,0.277344 -0.199219,0.464844 -0.523438,0.472657 -0.339844,0.0078 -0.675781,0 -1.011718,0"
         />
         <path
         d="m 53.1875,77.914062 c 0,-0.316406 0.01563,-0.632812 -0.0078,-0.945312 C 53.1719,76.867188 53.0625,76.773438 53,76.671875 c -0.07422,0.09375 -0.203125,0.1875 -0.207031,0.28125 -0.01563,0.640625 -0.01953,1.28125 0,1.925781 0,0.09375 0.132812,0.183594 0.207031,0.273438 0.0625,-0.09766 0.171875,-0.191406 0.179688,-0.296875 0.02344,-0.3125 0.0078,-0.628907 0.0078,-0.941407 m -0.691406,0.0078 c 0,-0.328125 -0.0039,-0.652344 0.0039,-0.980469 0.0078,-0.382812 0.152344,-0.554687 0.460938,-0.5625 0.332031,-0.0078 0.511718,0.179688 0.515624,0.554688 0.0078,0.652344 0.0078,1.304687 0,1.957031 -0.0039,0.351563 -0.195312,0.554687 -0.488281,0.558594 C 52.695312,79.453125 52.507812,79.25 52.5,78.902344 52.4922,78.574219 52.4961,78.246094 52.4961,77.921875"
         id="path40" />
         <path
         d="m 76.746094,81.636719 c 1.371094,0.01172 2.519531,-1.101563 2.539062,-2.46875 0.02344,-1.371094 -1.097656,-2.539063 -2.445312,-2.546875 -1.445313,-0.01172 -2.5625,1.042968 -2.578125,2.441406 -0.01953,1.445312 1.054687,2.558594 2.484375,2.574219 m 0.05078,0.289062 c -1.550781,0.0039 -2.828125,-1.246093 -2.828125,-2.769531 0,-1.597656 1.230469,-2.828125 2.832031,-2.828125 1.496094,0 2.742188,1.25 2.757813,2.765625 0.01563,1.539062 -1.238282,2.824219 -2.761719,2.832031"
         />
         <path
         d="m 84.53125,77.988281 c 1.390625,0 2.539062,-1.132812 2.539062,-2.503906 0,-1.394531 -1.125,-2.511719 -2.527343,-2.511719 -1.394531,0 -2.503907,1.097656 -2.507813,2.476563 0,1.410156 1.113282,2.539062 2.496094,2.539062 m 0.0039,-5.304687 c 1.546875,-0.0039 2.808594,1.25 2.804688,2.785156 0,1.527344 -1.253906,2.8125 -2.75,2.8125 -1.558594,0 -2.835938,-1.257812 -2.84375,-2.796875 -0.0078,-1.539063 1.25,-2.800781 2.789062,-2.800781"
         />
         <path
         d="m 63.800781,87.167969 c -0.242187,0.0625 -0.390625,0.07813 -0.519531,0.136719 -1.027344,0.480468 -2.0625,0.957031 -3.078125,1.46875 -0.210937,0.105468 -0.410156,0.304687 -0.523437,0.511718 -0.183594,0.335938 0.01953,0.683594 0.40625,0.699219 0.253906,0.01172 0.53125,-0.04297 0.761718,-0.148437 0.960938,-0.429688 1.910156,-0.886719 2.855469,-1.34375 0.160156,-0.07813 0.355469,-0.171876 0.433594,-0.3125 0.109375,-0.195313 0.21875,-0.472657 0.152343,-0.65625 -0.05859,-0.171876 -0.34375,-0.261719 -0.488281,-0.355469 m -3.558593,3.167969 c -0.394532,-0.03516 -0.695313,-0.171876 -0.863282,-0.535157 -0.175781,-0.378906 -0.01563,-0.691406 0.226563,-0.960937 0.132812,-0.148438 0.320312,-0.257813 0.503906,-0.347656 1.023437,-0.496094 2.042969,-0.996094 3.085937,-1.453126 0.257813,-0.109374 0.597657,-0.121093 0.882813,-0.06641 0.496094,0.09375 0.742187,0.679688 0.46875,1.117188 -0.152344,0.246094 -0.382813,0.488281 -0.636719,0.613281 -1.027344,0.515625 -2.074218,0.988281 -3.121094,1.46875 -0.171874,0.07813 -0.363281,0.109375 -0.546874,0.164063"
         />
         <path
         d="m 71.316406,87.160156 c -0.234375,0.05859 -0.382812,0.07031 -0.507812,0.128906 -1.03125,0.480469 -2.058594,0.960938 -3.078125,1.464844 -0.195313,0.09766 -0.390625,0.253906 -0.507813,0.4375 -0.242187,0.390625 -0.0039,0.800782 0.464844,0.796875 0.21875,-0.0039 0.453125,-0.06641 0.65625,-0.15625 0.980469,-0.445312 1.949219,-0.910156 2.917969,-1.371093 0.140625,-0.06641 0.3125,-0.148438 0.375,-0.269532 0.109375,-0.210937 0.238281,-0.488281 0.179687,-0.679687 -0.05078,-0.167969 -0.351562,-0.253907 -0.5,-0.351563 M 67.738281,90.3125 c -0.398437,-0.0078 -0.695312,-0.175781 -0.847656,-0.53125 -0.144531,-0.347656 -0.05469,-0.683594 0.214844,-0.929688 0.210937,-0.191406 0.46875,-0.34375 0.726562,-0.46875 0.941407,-0.460937 1.882813,-0.929687 2.847657,-1.335937 0.289062,-0.121094 0.667968,-0.117187 0.984374,-0.05469 0.425782,0.08984 0.648438,0.589843 0.449219,0.984374 C 71.984375,88.230469 71.773438,88.5 71.53125,88.625 c -1.089844,0.550781 -2.199219,1.050781 -3.308594,1.5625 -0.148437,0.06641 -0.320312,0.08594 -0.484375,0.125"
         />
         </g>
</svg>