<?xml version="1.0" encoding="UTF-8" standalone="no"?>
<!DOCTYPE svg PUBLIC "-//W3C//DTD SVG 1.1//EN" "http://www.w3.org/Graphics/SVG/1.1/DTD/svg11.dtd">
<svg width="975" height="600" viewBox="0 0 975 600" version="1.1" xmlns="http://www.w3.org/2000/svg" xmlns:xlink="http://www.w3.org/1999/xlink" xml:space="preserve" xmlns:serif="http://www.serif.com/" style="fill-rule:evenodd;clip-rule:evenodd;stroke-linejoin:round;stroke-miterlimit:2;">
    <g id="Label-Edge" serif:id="Label Edge" transform="matrix(6.26952e-17,1.02389,-1.32293,8.10061e-17,1280.6,-7.16724)">
        <path d="M593,244.606L593,954.394C593,961.903 585.123,968 575.42,968L24.58,968C14.877,968 7,961.903 7,954.394L7,244.606C7,237.097 14.877,231 24.58,231L575.42,231C585.123,231 593,237.097 593,244.606Z" style="fill:transparent;"/>
    </g>
    <g id="Frame" transform="matrix(5.95605e-17,0.972696,-1.2821,7.8506e-17,1256.07,8.19113)">
        <path d="M593,248.982L593,950.018C593,959.942 582.38,968 569.298,968L30.702,968C17.62,968 7,959.942 7,950.018L7,248.982C7,239.058 17.62,231 30.702,231L569.298,231C582.38,231 593,239.058 593,248.982ZM580.577,745.708L580.577,248.982C580.577,244.259 575.523,240.425 569.298,240.425L30.702,240.425C24.477,240.425 19.423,244.259 19.423,248.982L19.423,950.018C19.423,954.741 24.477,958.575 30.702,958.575L569.298,958.575C569.508,958.575 569.717,958.571 569.924,958.562L518.697,958.562L518.697,958.559L546.27,958.559C553.457,958.559 559.293,954.132 559.293,948.679L559.293,745.708L580.577,745.708Z"/>
    </g>
    <g id="Red-Band" serif:id="Red Band" transform="matrix(1,0,0,5.07245,0.00416657,-3643.65)">
        <rect x="27.1" y="723.664" width="272.9" height="83.34" style="fill:rgb(162,29,32);"/>
    </g>
    <g id="White-Band" serif:id="White Band" transform="matrix(12.9952,0,1.2326e-32,1.08129,-4326.3,-447.977)">
        <path d="M356,846.9L356,925L335.975,925C335.437,925 335,919.751 335,913.285L335,846.9L356,846.9Z" style="fill:white;"/>
    </g>
    <g id="Gold-Band" serif:id="Gold Band" transform="matrix(5.22662e-17,-0.853571,3.49424,2.1396e-16,-2932.17,753.711)">
        <rect x="335" y="846.9" width="21" height="78.1" style="fill:rgb(255,204,84);"/>
    </g>
    <g id="NFC-Loading-System" serif:id="NFC Loading System" transform="matrix(1.07484,0,0,1.07474,-1056.62,230.15)">
        <path d="M1033.43,291.264L1031.24,291.264L1031.24,289.763L1018.28,289.763L1018.28,291.264L1016.08,291.264L1016.08,272.416L1033.43,272.416L1033.43,291.264ZM1031.24,287.517L1031.24,274.663L1018.28,274.663L1018.28,287.517L1031.24,287.517ZM1059.39,282.194L1039.14,282.194L1039.14,279.936L1059.39,279.936L1059.39,282.194ZM1084.44,275.114L1082.76,275.847C1082.47,274.463 1082.08,273.344 1081.6,272.49L1083.36,271.745C1083.81,272.657 1084.17,273.78 1084.44,275.114ZM1077.68,274.418L1065.54,274.418L1065.54,272.16L1077.68,272.16L1077.68,274.418ZM1081.74,276.115L1080.07,276.835C1079.77,275.46 1079.38,274.345 1078.9,273.491L1080.67,272.746C1081.12,273.658 1081.48,274.781 1081.74,276.115ZM1083.47,280.571L1074.85,280.571C1074.86,280.766 1074.87,281.1 1074.87,281.572C1074.87,286.544 1072.75,290.084 1068.5,292.192L1066.78,290.19C1068.71,289.49 1070.17,288.428 1071.17,287.004C1072.16,285.58 1072.65,283.867 1072.65,281.865C1072.65,281.279 1072.64,280.847 1072.61,280.571L1063.19,280.571L1063.19,278.312L1083.47,278.312L1083.47,280.571ZM1104.13,274.443C1102.32,276.673 1100.89,278.231 1099.84,279.118L1099.84,289.018L1097.82,289.018L1097.82,280.766C1095.88,282.255 1094.02,283.391 1092.23,284.172L1090.99,282.341C1093.12,281.478 1095.27,280.166 1097.46,278.404C1099.64,276.642 1101.33,274.862 1102.51,273.063L1104.13,274.443ZM1120.82,275.468L1119.51,277.421C1117.55,275.721 1115.24,274.536 1112.59,273.869L1113.93,271.818C1116.73,272.86 1119.02,274.077 1120.82,275.468ZM1131.75,278.02C1128.96,282.259 1126.19,285.315 1123.45,287.187C1120.71,289.059 1117.6,290.495 1114.14,291.496L1112.75,289.238C1117.08,288.277 1120.56,286.743 1123.18,284.636C1125.79,282.528 1128.07,279.781 1130.01,276.396L1131.75,278.02ZM1156.72,272.819L1155.04,273.54C1154.74,272.156 1154.36,271.041 1153.88,270.195L1155.65,269.438C1156.1,270.349 1156.45,271.477 1156.72,272.819ZM1154.02,273.82L1153.03,274.321L1153.95,275.261C1153.3,279.297 1151.9,282.66 1149.75,285.35C1147.61,288.039 1144.56,290.235 1140.59,291.936L1138.91,289.836C1142.53,288.575 1145.36,286.876 1147.41,284.739C1149.46,282.603 1150.83,279.879 1151.52,276.567L1142.48,276.567C1140.94,278.821 1139.42,280.445 1137.92,281.437L1136.15,279.838C1139.41,277.617 1141.8,274.443 1143.31,270.317L1145.4,271.367C1144.94,272.457 1144.45,273.442 1143.92,274.321L1152.3,274.321C1152,273.027 1151.62,271.985 1151.18,271.196L1152.96,270.439C1153.41,271.35 1153.76,272.478 1154.02,273.82ZM1171.03,273.32L1170.25,275.59C1168.13,274.337 1165.67,273.564 1162.86,273.271L1163.64,270.939C1166.76,271.607 1169.22,272.4 1171.03,273.32ZM1180.52,278.19C1178.28,281.844 1175.76,284.727 1172.96,286.839C1170.16,288.951 1166.79,290.552 1162.84,291.643L1161.72,289.335C1165.84,288.351 1169.27,286.827 1172.02,284.764C1174.77,282.701 1176.97,279.993 1178.63,276.64L1180.52,278.19ZM1168.72,279.619L1167.86,281.987C1166,280.644 1163.57,279.802 1160.58,279.46L1161.37,277.189C1164.36,277.767 1166.81,278.577 1168.72,279.619ZM1205.98,290.117L1204.08,291.545C1201.74,288.257 1199.01,285.624 1195.88,283.647C1193.34,286.918 1190.23,289.689 1186.54,291.96L1184.85,290.166C1187.91,288.513 1190.6,286.353 1192.93,283.684C1195.26,281.014 1197.07,277.999 1198.38,274.638L1186.21,274.638L1186.21,272.49L1200.44,272.465L1201.1,273.161C1200.21,276.359 1198.9,279.252 1197.16,281.84C1200.53,284.054 1203.47,286.813 1205.98,290.117ZM1226.77,274.418L1211.27,274.418L1211.27,272.16L1226.77,272.16L1226.77,274.418ZM1229.2,280.571L1220.58,280.571C1220.6,280.766 1220.6,281.1 1220.6,281.572C1220.6,286.544 1218.48,290.084 1214.24,292.192L1212.52,290.19C1214.44,289.49 1215.9,288.428 1216.9,287.004C1217.89,285.58 1218.39,283.867 1218.39,281.865C1218.39,281.279 1218.37,280.847 1218.34,280.571L1208.92,280.571L1208.92,278.312L1229.2,278.312L1229.2,280.571ZM1253.94,290.385L1251.78,291.313C1251.49,290.271 1251.06,289.148 1250.48,287.944C1242.32,288.79 1236.81,289.498 1233.96,290.068L1233.38,287.639L1236.16,287.321L1242.49,270.866L1244.5,271.672L1238.6,286.992L1249.21,285.795C1247.86,283.191 1246.6,281.299 1245.45,280.119L1247.7,279.118C1249.87,281.918 1251.95,285.673 1253.94,290.385ZM1016.55,264.378C1016.03,264.378 1015.61,263.958 1015.61,263.441C1015.61,262.924 1016.03,262.503 1016.55,262.503L1253.85,262.503C1254.37,262.503 1254.79,262.924 1254.79,263.441C1254.79,263.958 1254.37,264.378 1253.85,264.378L1016.55,264.378ZM1016.55,228.816L1021.73,228.816L1025.74,244.528L1025.81,244.528L1025.81,228.816L1029.49,228.816L1029.49,255.066L1025.25,255.066L1020.3,235.903L1020.23,235.903L1020.23,255.066L1016.55,255.066L1016.55,228.816ZM1032.56,228.816L1043.47,228.816L1043.47,232.566L1036.69,232.566L1036.69,239.878L1042.01,239.878L1042.01,243.628L1036.69,243.628L1036.69,255.066L1032.56,255.066L1032.56,228.816ZM1051.28,255.441C1049.3,255.441 1047.79,254.878 1046.76,253.753C1045.72,252.628 1045.2,251.041 1045.2,248.991L1045.2,234.891C1045.2,232.841 1045.72,231.253 1046.76,230.128C1047.79,229.003 1049.3,228.441 1051.28,228.441C1053.25,228.441 1054.76,229.003 1055.79,230.128C1056.83,231.253 1057.35,232.841 1057.35,234.891L1057.35,237.666L1053.45,237.666L1053.45,234.628C1053.45,233.003 1052.76,232.191 1051.39,232.191C1050.01,232.191 1049.33,233.003 1049.33,234.628L1049.33,249.291C1049.33,250.891 1050.01,251.691 1051.39,251.691C1052.76,251.691 1053.45,250.891 1053.45,249.291L1053.45,245.278L1057.35,245.278L1057.35,248.991C1057.35,251.041 1056.83,252.628 1055.79,253.753C1054.76,254.878 1053.25,255.441 1051.28,255.441ZM1065.83,228.816L1069.95,228.816L1069.95,251.316L1076.74,251.316L1076.74,255.066L1065.83,255.066L1065.83,228.816ZM1084.54,255.441C1082.51,255.441 1080.96,254.866 1079.89,253.716C1078.81,252.566 1078.28,250.941 1078.28,248.841L1078.28,235.041C1078.28,232.941 1078.81,231.316 1079.89,230.166C1080.96,229.016 1082.51,228.441 1084.54,228.441C1086.56,228.441 1088.11,229.016 1089.19,230.166C1090.26,231.316 1090.8,232.941 1090.8,235.041L1090.8,248.841C1090.8,250.941 1090.26,252.566 1089.19,253.716C1088.11,254.866 1086.56,255.441 1084.54,255.441ZM1084.54,251.691C1085.96,251.691 1086.67,250.828 1086.67,249.103L1086.67,234.778C1086.67,233.053 1085.96,232.191 1084.54,232.191C1083.11,232.191 1082.4,233.053 1082.4,234.778L1082.4,249.103C1082.4,250.828 1083.11,251.691 1084.54,251.691ZM1096.69,228.816L1102.28,228.816L1106.55,255.066L1102.42,255.066L1101.67,249.853L1101.67,249.928L1096.99,249.928L1096.24,255.066L1092.41,255.066L1096.69,228.816ZM1101.19,246.366L1099.35,233.391L1099.28,233.391L1097.48,246.366L1101.19,246.366ZM1108.54,228.816L1114.84,228.816C1116.89,228.816 1118.42,229.366 1119.45,230.466C1120.48,231.566 1120.99,233.178 1120.99,235.303L1120.99,248.578C1120.99,250.703 1120.48,252.316 1119.45,253.416C1118.42,254.516 1116.89,255.066 1114.84,255.066L1108.54,255.066L1108.54,228.816ZM1114.76,251.316C1115.44,251.316 1115.96,251.116 1116.32,250.716C1116.68,250.316 1116.86,249.666 1116.86,248.766L1116.86,235.116C1116.86,234.216 1116.68,233.566 1116.32,233.166C1115.96,232.766 1115.44,232.566 1114.76,232.566L1112.66,232.566L1112.66,251.316L1114.76,251.316ZM1123.76,228.816L1127.89,228.816L1127.89,255.066L1123.76,255.066L1123.76,228.816ZM1130.96,228.816L1136.14,228.816L1140.15,244.528L1140.23,244.528L1140.23,228.816L1143.9,228.816L1143.9,255.066L1139.66,255.066L1134.71,235.903L1134.64,235.903L1134.64,255.066L1130.96,255.066L1130.96,228.816ZM1152.83,255.441C1150.83,255.441 1149.3,254.872 1148.25,253.735C1147.2,252.597 1146.67,250.966 1146.67,248.841L1146.67,235.041C1146.67,232.916 1147.2,231.285 1148.25,230.147C1149.3,229.01 1150.83,228.441 1152.83,228.441C1154.83,228.441 1156.35,229.01 1157.4,230.147C1158.45,231.285 1158.98,232.916 1158.98,235.041L1158.98,237.291L1155.08,237.291L1155.08,234.778C1155.08,233.053 1154.36,232.191 1152.94,232.191C1151.51,232.191 1150.8,233.053 1150.8,234.778L1150.8,249.141C1150.8,250.841 1151.51,251.691 1152.94,251.691C1154.36,251.691 1155.08,250.841 1155.08,249.141L1155.08,244.003L1153.01,244.003L1153.01,240.253L1158.98,240.253L1158.98,248.841C1158.98,250.966 1158.45,252.597 1157.4,253.735C1156.35,254.872 1154.83,255.441 1152.83,255.441ZM1173,255.441C1171,255.441 1169.49,254.872 1168.46,253.735C1167.44,252.597 1166.92,250.966 1166.92,248.841L1166.92,247.341L1170.83,247.341L1170.83,249.141C1170.83,250.841 1171.54,251.691 1172.96,251.691C1173.66,251.691 1174.19,251.485 1174.56,251.072C1174.92,250.66 1175.1,249.991 1175.1,249.066C1175.1,247.966 1174.85,246.997 1174.35,246.16C1173.85,245.322 1172.92,244.316 1171.58,243.141C1169.88,241.641 1168.69,240.285 1168.01,239.072C1167.34,237.86 1167,236.491 1167,234.966C1167,232.891 1167.53,231.285 1168.58,230.147C1169.62,229.01 1171.15,228.441 1173.15,228.441C1175.12,228.441 1176.62,229.01 1177.63,230.147C1178.64,231.285 1179.15,232.916 1179.15,235.041L1179.15,236.128L1175.25,236.128L1175.25,234.778C1175.25,233.878 1175.08,233.222 1174.73,232.81C1174.38,232.397 1173.86,232.191 1173.19,232.191C1171.81,232.191 1171.12,233.028 1171.12,234.703C1171.12,235.653 1171.38,236.541 1171.89,237.366C1172.41,238.191 1173.34,239.191 1174.69,240.366C1176.41,241.866 1177.6,243.228 1178.25,244.453C1178.9,245.678 1179.23,247.116 1179.23,248.766C1179.23,250.916 1178.69,252.566 1177.63,253.716C1176.57,254.866 1175.03,255.441 1173,255.441ZM1185.15,243.891L1180.16,228.816L1184.55,228.816L1187.36,238.453L1187.44,238.453L1190.25,228.816L1194.26,228.816L1189.28,243.891L1189.28,255.066L1185.15,255.066L1185.15,243.891ZM1200.9,255.441C1198.9,255.441 1197.39,254.872 1196.36,253.735C1195.34,252.597 1194.83,250.966 1194.83,248.841L1194.83,247.341L1198.73,247.341L1198.73,249.141C1198.73,250.841 1199.44,251.691 1200.86,251.691C1201.56,251.691 1202.09,251.485 1202.46,251.072C1202.82,250.66 1203,249.991 1203,249.066C1203,247.966 1202.75,246.997 1202.25,246.16C1201.75,245.322 1200.83,244.316 1199.48,243.141C1197.78,241.641 1196.59,240.285 1195.91,239.072C1195.24,237.86 1194.9,236.491 1194.9,234.966C1194.9,232.891 1195.42,231.285 1196.48,230.147C1197.53,229.01 1199.05,228.441 1201.05,228.441C1203.03,228.441 1204.52,229.01 1205.53,230.147C1206.54,231.285 1207.05,232.916 1207.05,235.041L1207.05,236.128L1203.15,236.128L1203.15,234.778C1203.15,233.878 1202.98,233.222 1202.62,232.81C1202.28,232.397 1201.76,232.191 1201.09,232.191C1199.71,232.191 1199.03,233.028 1199.03,234.703C1199.03,235.653 1199.28,236.541 1199.79,237.366C1200.31,238.191 1201.24,239.191 1202.59,240.366C1204.31,241.866 1205.5,243.228 1206.15,244.453C1206.8,245.678 1207.12,247.116 1207.12,248.766C1207.12,250.916 1206.59,252.566 1205.53,253.716C1204.47,254.866 1202.92,255.441 1200.9,255.441ZM1212.71,232.566L1208.4,232.566L1208.4,228.816L1221.15,228.816L1221.15,232.566L1216.84,232.566L1216.84,255.066L1212.71,255.066L1212.71,232.566ZM1223.14,228.816L1234.39,228.816L1234.39,232.566L1227.26,232.566L1227.26,239.503L1232.92,239.503L1232.92,243.253L1227.26,243.253L1227.26,251.316L1234.39,251.316L1234.39,255.066L1223.14,255.066L1223.14,228.816ZM1236.75,228.816L1242.64,228.816L1245.26,247.603L1245.34,247.603L1247.96,228.816L1253.85,228.816L1253.85,255.066L1249.95,255.066L1249.95,235.191L1249.88,235.191L1246.88,255.066L1243.42,255.066L1240.42,235.191L1240.35,235.191L1240.35,255.066L1236.75,255.066L1236.75,228.816Z"/>
    </g>
    <g id="TapTo-Logo" serif:id="TapTo Logo" transform="matrix(0.124372,1.54074e-33,0,0.124297,-73.2506,158.5)">
        <path d="M2802.55,1735.85L2287.5,1735.85L2287.5,2116.4L2141.68,2116.4L2141.68,1735.85L1660.1,1735.85L1660.1,1600.93L2802.55,1600.93L2802.55,1735.85ZM2802.55,1735.85L2937.47,1735.85L2937.47,2073.87C2937.47,2187.9 2845.02,2280.34 2730.99,2280.34L1830.71,2280.34L1830.71,2145.43L2695.54,2145.43C2754.64,2145.43 2802.55,2097.52 2802.55,2038.41L2802.55,1735.85ZM2811.76,1691.22L2811.76,1674.41C2840.56,1674.41 2863.99,1697.84 2863.99,1726.64L2847.18,1726.64C2847.18,1707.11 2831.29,1691.22 2811.76,1691.22ZM2883.92,1726.65C2883.92,1686.85 2851.55,1654.48 2811.76,1654.48L2811.76,1637.67C2860.82,1637.67 2900.73,1677.59 2900.73,1726.65L2883.92,1726.65ZM2920.66,1726.65C2920.66,1666.6 2871.8,1617.75 2811.76,1617.75L2811.76,1600.93C2881.07,1600.93 2937.47,1657.33 2937.47,1726.65L2920.66,1726.65ZM1636.61,1735.85L1155.02,1735.85L1155.02,2038.42C1155.02,2097.52 1202.93,2145.43 1262.03,2145.43L1636.61,2145.43L1636.61,2280.34L1215.67,2280.34C1101.64,2280.34 1009.2,2187.9 1009.2,2073.87L1009.2,1735.85L870.48,1735.85L870.48,1600.93L1636.61,1600.93L1636.61,1735.85ZM1188.48,1764.88L1636.61,1764.88L1636.61,2116.4L1490.79,2116.4L1490.79,1899.8L1334.3,1899.8L1334.3,1962.82C1334.3,1973.13 1342.65,1981.48 1352.96,1981.48L1465.99,1981.48L1465.99,2116.4L1276.24,2116.4C1227.77,2116.4 1188.48,2077.11 1188.48,2028.63L1188.48,1764.88ZM1660.1,1764.88L2108.23,1764.88L2108.23,2028.63C2108.23,2077.11 2068.93,2116.4 2020.46,2116.4L1830.71,2116.4L1830.71,1981.48L1943.74,1981.48C1954.05,1981.48 1962.41,1973.13 1962.41,1962.82L1962.41,1899.8L1805.92,1899.8L1805.92,2280.34L1660.1,2280.34L1660.1,1764.88ZM2769.09,1764.88L2769.09,2028.63C2769.09,2077.11 2729.8,2116.4 2681.33,2116.4L2408.73,2116.4C2360.26,2116.4 2320.96,2077.11 2320.96,2028.63L2320.96,1764.88L2769.09,1764.88ZM2623.27,1899.8L2466.78,1899.8L2466.78,1962.82C2466.78,1973.13 2475.14,1981.48 2485.45,1981.48L2604.61,1981.48C2614.92,1981.48 2623.27,1973.13 2623.27,1962.82L2623.27,1899.8Z" style="fill:white;"/>
    </g>
    <g id="URL" transform="matrix(0.879269,0,0,0.879185,-596.151,17.7293)">
        <path d="M791.496,617.185L794.341,617.185L795.655,631.622L795.709,631.622L797.105,617.185L800.325,617.185L801.72,631.622L801.774,631.622L803.089,617.185L805.638,617.185L803.733,635.97L800.056,635.97L798.715,623.303L798.661,623.303L797.319,635.97L793.401,635.97L791.496,617.185ZM807.141,617.185L810.093,617.185L810.093,635.97L807.141,635.97L807.141,617.185ZM811.703,633.34L817.177,619.868L811.971,619.868L811.971,617.185L820.344,617.185L820.344,619.815L814.87,633.286L820.344,633.286L820.344,635.97L811.703,635.97L811.703,633.34ZM821.552,633.34L827.026,619.868L821.82,619.868L821.82,617.185L830.192,617.185L830.192,619.815L824.718,633.286L830.192,633.286L830.192,635.97L821.552,635.97L821.552,633.34ZM836.123,636.238C834.674,636.238 833.565,635.826 832.796,635.003C832.026,634.181 831.642,633.018 831.642,631.515L831.642,621.639C831.642,620.137 832.026,618.974 832.796,618.151C833.565,617.328 834.674,616.916 836.123,616.916C837.572,616.916 838.681,617.328 839.451,618.151C840.22,618.974 840.605,620.137 840.605,621.639L840.605,631.515C840.605,633.018 840.22,634.181 839.451,635.003C838.681,635.826 837.572,636.238 836.123,636.238ZM836.123,633.554C837.143,633.554 837.653,632.937 837.653,631.703L837.653,621.452C837.653,620.217 837.143,619.6 836.123,619.6C835.103,619.6 834.593,620.217 834.593,621.452L834.593,631.703C834.593,632.937 835.103,633.554 836.123,633.554ZM842.429,633.125L845.274,633.125L845.274,635.97L842.429,635.97L842.429,633.125ZM847.474,617.185L851.983,617.185C853.45,617.185 854.55,617.578 855.283,618.366C856.017,619.153 856.384,620.307 856.384,621.827L856.384,631.327C856.384,632.848 856.017,634.002 855.283,634.789C854.55,635.576 853.45,635.97 851.983,635.97L847.474,635.97L847.474,617.185ZM851.929,633.286C852.412,633.286 852.783,633.143 853.043,632.857C853.302,632.57 853.432,632.105 853.432,631.461L853.432,621.693C853.432,621.049 853.302,620.584 853.043,620.298C852.783,620.011 852.412,619.868 851.929,619.868L850.426,619.868L850.426,633.286L851.929,633.286ZM858.37,617.185L866.42,617.185L866.42,619.868L861.321,619.868L861.321,624.833L865.374,624.833L865.374,627.516L861.321,627.516L861.321,633.286L866.42,633.286L866.42,635.97L858.37,635.97L858.37,617.185ZM867.332,617.185L870.311,617.185L872.243,631.756L872.297,631.756L874.229,617.185L876.94,617.185L874.095,635.97L870.177,635.97L867.332,617.185ZM884.239,617.185L886.788,617.185L879.382,635.97L876.832,635.97L884.239,617.185ZM890.706,619.868L887.62,619.868L887.62,617.185L896.744,617.185L896.744,619.868L893.658,619.868L893.658,635.97L890.706,635.97L890.706,619.868ZM899.213,617.185L903.211,617.185L906.27,635.97L903.319,635.97L902.782,632.239L902.782,632.293L899.427,632.293L898.891,635.97L896.154,635.97L899.213,617.185ZM902.433,629.744L901.118,620.459L901.064,620.459L899.776,629.744L902.433,629.744ZM907.693,617.185L912.04,617.185C913.507,617.185 914.607,617.578 915.341,618.366C916.074,619.153 916.441,620.307 916.441,621.827L916.441,623.679C916.441,625.2 916.074,626.354 915.341,627.141C914.607,627.928 913.507,628.321 912.04,628.321L910.645,628.321L910.645,635.97L907.693,635.97L907.693,617.185ZM912.04,625.638C912.523,625.638 912.885,625.504 913.127,625.235C913.368,624.967 913.489,624.511 913.489,623.867L913.489,621.639C913.489,620.995 913.368,620.539 913.127,620.271C912.885,620.003 912.523,619.868 912.04,619.868L910.645,619.868L910.645,625.638L912.04,625.638ZM920.413,619.868L917.327,619.868L917.327,617.185L926.451,617.185L926.451,619.868L923.365,619.868L923.365,635.97L920.413,635.97L920.413,619.868ZM932.032,636.238C930.583,636.238 929.474,635.826 928.705,635.003C927.935,634.181 927.551,633.018 927.551,631.515L927.551,621.639C927.551,620.137 927.935,618.974 928.705,618.151C929.474,617.328 930.583,616.916 932.032,616.916C933.481,616.916 934.591,617.328 935.36,618.151C936.129,618.974 936.514,620.137 936.514,621.639L936.514,631.515C936.514,633.018 936.129,634.181 935.36,635.003C934.591,635.826 933.481,636.238 932.032,636.238ZM932.032,633.554C933.052,633.554 933.562,632.937 933.562,631.703L933.562,621.452C933.562,620.217 933.052,619.6 932.032,619.6C931.013,619.6 930.503,620.217 930.503,621.452L930.503,631.703C930.503,632.937 931.013,633.554 932.032,633.554Z" style="fill:white;"/>
    </g>
</svg>
