<?xml version="1.0" encoding="UTF-8" standalone="no"?>
<!DOCTYPE svg PUBLIC "-//W3C//DTD SVG 1.1//EN" "http://www.w3.org/Graphics/SVG/1.1/DTD/svg11.dtd">
<svg width="975" height="600" viewBox="0 0 975 600" version="1.1" xmlns="http://www.w3.org/2000/svg" xmlns:xlink="http://www.w3.org/1999/xlink" xml:space="preserve" xmlns:serif="http://www.serif.com/" style="fill-rule:evenodd;clip-rule:evenodd;stroke-linejoin:round;stroke-miterlimit:2;">
    <g id="Frame">
        <g transform="matrix(0.860543,0,0,0.139439,1.80947,451.139)">
            <path d="M314.025,771.16L314.025,960L37.838,960C25.233,960 15,896.846 15,819.059L15,771.16L314.025,771.16Z"/>
        </g>
        <g transform="matrix(0.93161,0,0,0.93152,-37.536,189.213)">
            <g id="Wizzo.dev-TapTo" serif:id="Wizzo.dev/TapTo">
                <g>
                    <path d="M121.688,405.83L124.532,405.83L125.847,420.267L125.901,420.267L127.296,405.83L130.517,405.83L131.912,420.267L131.966,420.267L133.281,405.83L135.83,405.83L133.925,424.614L130.248,424.614L128.906,411.948L128.853,411.948L127.511,424.614L123.593,424.614L121.688,405.83Z" style="fill:white;"/>
                    <rect x="137.333" y="405.83" width="2.952" height="18.785" style="fill:white;"/>
                    <path d="M141.895,421.985L147.369,408.513L142.163,408.513L142.163,405.83L150.536,405.83L150.536,408.46L145.061,421.931L150.536,421.931L150.536,424.614L141.895,424.614L141.895,421.985Z" style="fill:white;"/>
                    <path d="M151.743,421.985L157.218,408.513L152.012,408.513L152.012,405.83L160.384,405.83L160.384,408.46L154.91,421.931L160.384,421.931L160.384,424.614L151.743,424.614L151.743,421.985Z" style="fill:white;"/>
                    <path d="M166.315,424.883C164.866,424.883 163.756,424.471 162.987,423.648C162.218,422.825 161.833,421.663 161.833,420.16L161.833,410.284C161.833,408.782 162.218,407.619 162.987,406.796C163.756,405.973 164.866,405.561 166.315,405.561C167.764,405.561 168.873,405.973 169.642,406.796C170.412,407.619 170.796,408.782 170.796,410.284L170.796,420.16C170.796,421.663 170.412,422.825 169.642,423.648C168.873,424.471 167.764,424.883 166.315,424.883ZM166.315,422.199C167.335,422.199 167.844,421.582 167.844,420.348L167.844,410.097C167.844,408.862 167.335,408.245 166.315,408.245C165.295,408.245 164.785,408.862 164.785,410.097L164.785,420.348C164.785,421.582 165.295,422.199 166.315,422.199Z" style="fill:white;"/>
                    <rect x="172.621" y="421.77" width="2.845" height="2.845" style="fill:white;"/>
                    <path d="M177.666,405.83L182.174,405.83C183.641,405.83 184.742,406.223 185.475,407.01C186.209,407.798 186.575,408.952 186.575,410.472L186.575,419.972C186.575,421.493 186.209,422.646 185.475,423.434C184.742,424.221 183.641,424.614 182.174,424.614L177.666,424.614L177.666,405.83ZM182.121,421.931C182.604,421.931 182.975,421.788 183.234,421.502C183.494,421.215 183.624,420.75 183.624,420.106L183.624,410.338C183.624,409.694 183.494,409.229 183.234,408.943C182.975,408.656 182.604,408.513 182.121,408.513L180.618,408.513L180.618,421.931L182.121,421.931Z" style="fill:white;"/>
                    <path d="M188.561,405.83L196.612,405.83L196.612,408.513L191.513,408.513L191.513,413.478L195.565,413.478L195.565,416.161L191.513,416.161L191.513,421.931L196.612,421.931L196.612,424.614L188.561,424.614L188.561,405.83Z" style="fill:white;"/>
                    <path d="M197.524,405.83L200.503,405.83L202.435,420.401L202.489,420.401L204.421,405.83L207.131,405.83L204.287,424.614L200.369,424.614L197.524,405.83Z" style="fill:white;"/>
                    <path d="M214.43,405.83L216.98,405.83L209.573,424.614L207.024,424.614L214.43,405.83Z" style="fill:white;"/>
                    <path d="M220.898,408.513L217.812,408.513L217.812,405.83L226.936,405.83L226.936,408.513L223.85,408.513L223.85,424.614L220.898,424.614L220.898,408.513Z" style="fill:white;"/>
                    <path d="M229.404,405.83L233.403,405.83L236.462,424.614L233.51,424.614L232.974,420.884L232.974,420.938L229.619,420.938L229.082,424.614L226.345,424.614L229.404,405.83ZM232.625,418.389L231.31,409.104L231.256,409.104L229.968,418.389L232.625,418.389Z" style="fill:white;"/>
                    <path d="M237.884,405.83L242.232,405.83C243.699,405.83 244.799,406.223 245.532,407.01C246.266,407.798 246.633,408.952 246.633,410.472L246.633,412.324C246.633,413.845 246.266,414.998 245.532,415.786C244.799,416.573 243.699,416.966 242.232,416.966L240.836,416.966L240.836,424.614L237.884,424.614L237.884,405.83ZM242.232,414.283C242.715,414.283 243.077,414.149 243.319,413.88C243.56,413.612 243.681,413.156 243.681,412.512L243.681,410.284C243.681,409.64 243.56,409.184 243.319,408.916C243.077,408.647 242.715,408.513 242.232,408.513L240.836,408.513L240.836,414.283L242.232,414.283Z" style="fill:white;"/>
                    <path d="M250.604,408.513L247.518,408.513L247.518,405.83L256.642,405.83L256.642,408.513L253.556,408.513L253.556,424.614L250.604,424.614L250.604,408.513Z" style="fill:white;"/>
                    <path d="M262.224,424.883C260.775,424.883 259.666,424.471 258.896,423.648C258.127,422.825 257.743,421.663 257.743,420.16L257.743,410.284C257.743,408.782 258.127,407.619 258.896,406.796C259.666,405.973 260.775,405.561 262.224,405.561C263.673,405.561 264.782,405.973 265.552,406.796C266.321,407.619 266.706,408.782 266.706,410.284L266.706,420.16C266.706,421.663 266.321,422.825 265.552,423.648C264.782,424.471 263.673,424.883 262.224,424.883ZM262.224,422.199C263.244,422.199 263.754,421.582 263.754,420.348L263.754,410.097C263.754,408.862 263.244,408.245 262.224,408.245C261.204,408.245 260.694,408.862 260.694,410.097L260.694,420.348C260.694,421.582 261.204,422.199 262.224,422.199Z" style="fill:white;"/>
                </g>
            </g>
        </g>
        <g id="White-Stripe" serif:id="White Stripe" transform="matrix(5.55697,0,0,1.7706,-5145.84,132.669)">
            <rect x="928.731" y="193.265" width="46.269" height="47.331" style="fill:white;"/>
        </g>
        <g id="NFC-LOADING-SYSTEM" serif:id="NFC LOADING SYSTEM" transform="matrix(0.952274,0,0,0.952183,-302.738,337.286)">
            <g transform="matrix(0.971546,0,0,1,129.918,-268.698)">
                <path d="M244.37,491.522L242.112,491.522L242.112,490.02L228.769,490.02L228.769,491.522L226.511,491.522L226.511,472.674L244.37,472.674L244.37,491.522ZM242.112,487.774L242.112,474.92L228.769,474.92L228.769,487.774L242.112,487.774Z"/>
            </g>
            <g transform="matrix(0.971546,0,0,1,129.918,-268.698)">
                <rect x="250.242" y="480.193" width="20.85" height="2.258"/>
            </g>
            <g transform="matrix(0.971546,0,0,1,129.918,-268.698)">
                <path d="M296.872,475.372L295.139,476.104C294.838,474.721 294.439,473.602 293.943,472.747L295.762,472.002C296.225,472.914 296.596,474.037 296.872,475.372ZM289.914,474.676L277.414,474.676L277.414,472.418L289.914,472.418L289.914,474.676ZM294.089,476.373L292.368,477.093C292.059,475.717 291.66,474.603 291.172,473.748L292.991,473.003C293.454,473.915 293.821,475.038 294.089,476.373ZM295.871,480.828L286.997,480.828C287.013,481.023 287.021,481.357 287.021,481.829C287.021,486.801 284.836,490.342 280.466,492.449L278.696,490.447C280.682,489.747 282.185,488.685 283.207,487.261C284.228,485.837 284.739,484.124 284.739,482.122C284.739,481.536 284.722,481.105 284.69,480.828L274.997,480.828L274.997,478.57L295.871,478.57L295.871,480.828Z"/>
            </g>
            <g transform="matrix(0.971546,0,0,1,129.918,-268.698)">
                <path d="M317.136,474.7C315.272,476.93 313.799,478.488 312.717,479.376L312.717,489.275L310.642,489.275L310.642,481.023C308.648,482.513 306.732,483.648 304.892,484.429L303.611,482.598C305.8,481.736 308.019,480.423 310.27,478.661C312.52,476.9 314.251,475.119 315.464,473.321L317.136,474.7Z"/>
            </g>
            <g transform="matrix(0.971546,0,0,1,129.918,-268.698)">
                <path d="M334.311,475.726L332.969,477.679C330.95,475.978 328.574,474.794 325.84,474.127L327.219,472.076C330.1,473.117 332.464,474.334 334.311,475.726ZM345.566,478.277C342.694,482.517 339.845,485.573 337.021,487.444C334.197,489.316 331.003,490.752 327.439,491.753L326.011,489.495C330.47,488.535 334.047,487.001 336.741,484.893C339.434,482.785 341.778,480.039 343.772,476.653L345.566,478.277Z"/>
            </g>
            <g transform="matrix(0.971546,0,0,1,129.918,-268.698)">
                <path d="M371.262,473.077L369.541,473.797C369.232,472.413 368.833,471.299 368.345,470.452L370.163,469.695C370.627,470.607 370.993,471.734 371.262,473.077ZM368.491,474.078L367.466,474.578L368.418,475.518C367.742,479.555 366.302,482.918 364.097,485.607C361.891,488.297 358.746,490.492 354.66,492.193L352.939,490.093C356.658,488.832 359.574,487.133 361.686,484.997C363.797,482.861 365.207,480.136 365.915,476.824L356.614,476.824C355.027,479.078 353.46,480.702 351.914,481.695L350.095,480.096C353.448,477.874 355.906,474.7 357.468,470.574L359.617,471.624C359.145,472.715 358.636,473.699 358.091,474.578L366.721,474.578C366.404,473.284 366.017,472.243 365.561,471.453L367.392,470.696C367.856,471.608 368.222,472.735 368.491,474.078Z"/>
            </g>
            <g transform="matrix(0.971546,0,0,1,129.918,-268.698)">
                <path d="M385.996,473.577L385.19,475.848C383.009,474.594 380.474,473.821 377.585,473.528L378.391,471.197C381.597,471.864 384.132,472.658 385.996,473.577ZM395.762,478.448C393.458,482.102 390.867,484.985 387.986,487.096C385.105,489.208 381.63,490.809 377.561,491.9L376.413,489.593C380.653,488.608 384.187,487.084 387.015,485.021C389.843,482.958 392.112,480.25 393.821,476.898L395.762,478.448ZM383.616,479.876L382.737,482.244C380.816,480.901 378.318,480.059 375.242,479.717L376.047,477.447C379.131,478.025 381.654,478.834 383.616,479.876Z"/>
            </g>
            <g transform="matrix(0.971546,0,0,1,129.918,-268.698)">
                <path d="M421.97,490.374L420.017,491.802C417.608,488.515 414.792,485.882 411.57,483.904C408.957,487.176 405.755,489.947 401.963,492.217L400.217,490.423C403.367,488.771 406.14,486.61 408.536,483.941C410.933,481.272 412.803,478.257 414.145,474.896L401.621,474.896L401.621,472.747L416.269,472.723L416.941,473.419C416.029,476.617 414.678,479.51 412.888,482.098C416.363,484.311 419.39,487.07 421.97,490.374Z"/>
            </g>
            <g transform="matrix(0.971546,0,0,1,129.918,-268.698)">
                <path d="M443.369,474.676L427.414,474.676L427.414,472.418L443.369,472.418L443.369,474.676ZM445.871,480.828L436.997,480.828C437.013,481.023 437.021,481.357 437.021,481.829C437.021,486.801 434.836,490.342 430.466,492.449L428.696,490.447C430.682,489.747 432.185,488.685 433.207,487.261C434.228,485.837 434.739,484.124 434.739,482.122C434.739,481.536 434.722,481.105 434.69,480.828L424.997,480.828L424.997,478.57L445.871,478.57L445.871,480.828Z"/>
            </g>
            <g transform="matrix(0.971546,0,0,1,129.918,-268.698)">
                <path d="M471.335,490.643L469.114,491.57C468.812,490.529 468.365,489.406 467.771,488.201C459.372,489.048 453.704,489.756 450.766,490.325L450.168,487.896L453.037,487.579L459.543,471.124L461.618,471.929L455.539,487.249L466.465,486.053C465.073,483.449 463.783,481.557 462.595,480.377L464.914,479.376C467.144,482.175 469.284,485.931 471.335,490.643Z"/>
            </g>
            <g transform="matrix(0.639599,0,0,1.44886,271.893,-196.192)">
                <path d="M122.823,270.647C122.014,270.647 121.357,270.357 121.357,270C121.357,269.643 122.014,269.353 122.823,269.353L493.836,269.353C494.645,269.353 495.302,269.643 495.302,270C495.302,270.357 494.645,270.647 493.836,270.647L122.823,270.647Z"/>
            </g>
            <g transform="matrix(0.93161,0,0,0.93161,235.922,-208.95)">
                <path d="M122.936,396.437L128.49,396.437L132.798,413.303L132.878,413.303L132.878,396.437L136.823,396.437L136.823,424.614L132.274,424.614L126.961,404.045L126.88,404.045L126.88,424.614L122.936,424.614L122.936,396.437Z"/>
            </g>
            <g transform="matrix(0.93161,0,0,0.93161,235.922,-208.95)">
                <path d="M140.124,396.437L151.837,396.437L151.837,400.463L144.551,400.463L144.551,408.312L150.267,408.312L150.267,412.337L144.551,412.337L144.551,424.614L140.124,424.614L140.124,396.437Z"/>
            </g>
            <g transform="matrix(0.93161,0,0,0.93161,235.922,-208.95)">
                <path d="M160.21,425.017C158.09,425.017 156.473,424.413 155.359,423.206C154.246,421.998 153.689,420.294 153.689,418.093L153.689,402.958C153.689,400.758 154.246,399.054 155.359,397.846C156.473,396.639 158.09,396.035 160.21,396.035C162.33,396.035 163.947,396.639 165.06,397.846C166.174,399.054 166.731,400.758 166.731,402.958L166.731,405.937L162.544,405.937L162.544,402.677C162.544,400.932 161.806,400.06 160.33,400.06C158.855,400.06 158.117,400.932 158.117,402.677L158.117,418.415C158.117,420.133 158.855,420.992 160.33,420.992C161.806,420.992 162.544,420.133 162.544,418.415L162.544,414.108L166.731,414.108L166.731,418.093C166.731,420.294 166.174,421.998 165.06,423.206C163.947,424.413 162.33,425.017 160.21,425.017Z"/>
            </g>
            <g transform="matrix(0.93161,0,0,0.93161,235.922,-208.95)">
                <path d="M175.828,396.437L180.256,396.437L180.256,420.589L187.541,420.589L187.541,424.614L175.828,424.614L175.828,396.437Z"/>
            </g>
            <g transform="matrix(0.93161,0,0,0.93161,235.922,-208.95)">
                <path d="M195.914,425.017C193.74,425.017 192.077,424.4 190.923,423.165C189.769,421.931 189.192,420.187 189.192,417.932L189.192,403.119C189.192,400.865 189.769,399.121 190.923,397.886C192.077,396.652 193.74,396.035 195.914,396.035C198.088,396.035 199.752,396.652 200.905,397.886C202.059,399.121 202.636,400.865 202.636,403.119L202.636,417.932C202.636,420.187 202.059,421.931 200.905,423.165C199.752,424.4 198.088,425.017 195.914,425.017ZM195.914,420.992C197.444,420.992 198.208,420.066 198.208,418.214L198.208,402.838C198.208,400.986 197.444,400.06 195.914,400.06C194.384,400.06 193.62,400.986 193.62,402.838L193.62,418.214C193.62,420.066 194.384,420.992 195.914,420.992Z"/>
            </g>
            <g transform="matrix(0.93161,0,0,0.93161,235.922,-208.95)">
                <path d="M208.956,396.437L214.954,396.437L219.543,424.614L215.115,424.614L214.31,419.019L214.31,419.1L209.278,419.1L208.473,424.614L204.367,424.614L208.956,396.437ZM213.786,415.276L211.814,401.348L211.733,401.348L209.801,415.276L213.786,415.276Z"/>
            </g>
            <g transform="matrix(0.93161,0,0,0.93161,235.922,-208.95)">
                <path d="M221.676,396.437L228.438,396.437C230.639,396.437 232.289,397.028 233.39,398.209C234.49,399.389 235.04,401.12 235.04,403.401L235.04,417.651C235.04,419.932 234.49,421.663 233.39,422.843C232.289,424.024 230.639,424.614 228.438,424.614L221.676,424.614L221.676,396.437ZM228.358,420.589C229.082,420.589 229.639,420.374 230.028,419.945C230.418,419.516 230.612,418.818 230.612,417.852L230.612,403.2C230.612,402.234 230.418,401.536 230.028,401.107C229.639,400.677 229.082,400.463 228.358,400.463L226.104,400.463L226.104,420.589L228.358,420.589Z"/>
            </g>
            <g transform="matrix(0.93161,0,0,0.93161,235.922,-208.95)">
                <rect x="238.019" y="396.437" width="4.428" height="28.177"/>
            </g>
            <g transform="matrix(0.93161,0,0,0.93161,235.922,-208.95)">
                <path d="M245.747,396.437L251.302,396.437L255.609,413.303L255.69,413.303L255.69,396.437L259.634,396.437L259.634,424.614L255.086,424.614L249.772,404.045L249.692,404.045L249.692,424.614L245.747,424.614L245.747,396.437Z"/>
            </g>
            <g transform="matrix(0.93161,0,0,0.93161,235.922,-208.95)">
                <path d="M269.215,425.017C267.068,425.017 265.431,424.406 264.304,423.185C263.177,421.964 262.613,420.213 262.613,417.932L262.613,403.119C262.613,400.838 263.177,399.087 264.304,397.866C265.431,396.645 267.068,396.035 269.215,396.035C271.361,396.035 272.998,396.645 274.125,397.866C275.253,399.087 275.816,400.838 275.816,403.119L275.816,405.535L271.63,405.535L271.63,402.838C271.63,400.986 270.865,400.06 269.335,400.06C267.806,400.06 267.041,400.986 267.041,402.838L267.041,418.254C267.041,420.079 267.806,420.992 269.335,420.992C270.865,420.992 271.63,420.079 271.63,418.254L271.63,412.74L269.416,412.74L269.416,408.715L275.816,408.715L275.816,417.932C275.816,420.213 275.253,421.964 274.125,423.185C272.998,424.406 271.361,425.017 269.215,425.017Z"/>
            </g>
            <g transform="matrix(0.93161,0,0,0.93161,235.922,-208.95)">
                <path d="M290.871,425.017C288.724,425.017 287.1,424.406 286,423.185C284.9,421.964 284.35,420.213 284.35,417.932L284.35,416.322L288.536,416.322L288.536,418.254C288.536,420.079 289.301,420.992 290.83,420.992C291.582,420.992 292.152,420.77 292.541,420.327C292.93,419.885 293.125,419.167 293.125,418.174C293.125,416.993 292.856,415.953 292.32,415.054C291.783,414.155 290.79,413.075 289.341,411.814C287.516,410.204 286.242,408.748 285.517,407.447C284.792,406.145 284.43,404.676 284.43,403.039C284.43,400.812 284.994,399.087 286.121,397.866C287.248,396.645 288.885,396.035 291.032,396.035C293.152,396.035 294.755,396.645 295.842,397.866C296.929,399.087 297.472,400.838 297.472,403.119L297.472,404.287L293.286,404.287L293.286,402.838C293.286,401.872 293.098,401.167 292.722,400.724C292.347,400.282 291.796,400.06 291.072,400.06C289.596,400.06 288.858,400.959 288.858,402.757C288.858,403.777 289.133,404.729 289.683,405.615C290.233,406.501 291.233,407.574 292.682,408.835C294.534,410.445 295.808,411.908 296.506,413.223C297.204,414.538 297.553,416.081 297.553,417.852C297.553,420.16 296.982,421.931 295.842,423.165C294.701,424.4 293.044,425.017 290.871,425.017Z"/>
            </g>
            <g transform="matrix(0.93161,0,0,0.93161,235.922,-208.95)">
                <path d="M303.913,412.619L298.559,396.437L303.269,396.437L306.288,406.782L306.368,406.782L309.387,396.437L313.694,396.437L308.34,412.619L308.34,424.614L303.913,424.614L303.913,412.619Z"/>
            </g>
            <g transform="matrix(0.93161,0,0,0.93161,235.922,-208.95)">
                <path d="M320.819,425.017C318.672,425.017 317.048,424.406 315.948,423.185C314.848,421.964 314.298,420.213 314.298,417.932L314.298,416.322L318.484,416.322L318.484,418.254C318.484,420.079 319.249,420.992 320.779,420.992C321.53,420.992 322.1,420.77 322.489,420.327C322.878,419.885 323.073,419.167 323.073,418.174C323.073,416.993 322.805,415.953 322.268,415.054C321.731,414.155 320.738,413.075 319.289,411.814C317.464,410.204 316.19,408.748 315.465,407.447C314.741,406.145 314.378,404.676 314.378,403.039C314.378,400.812 314.942,399.087 316.069,397.866C317.196,396.645 318.833,396.035 320.98,396.035C323.1,396.035 324.703,396.645 325.79,397.866C326.877,399.087 327.42,400.838 327.42,403.119L327.42,404.287L323.234,404.287L323.234,402.838C323.234,401.872 323.046,401.167 322.67,400.724C322.295,400.282 321.745,400.06 321.02,400.06C319.544,400.06 318.806,400.959 318.806,402.757C318.806,403.777 319.081,404.729 319.631,405.615C320.181,406.501 321.181,407.574 322.63,408.835C324.482,410.445 325.757,411.908 326.454,413.223C327.152,414.538 327.501,416.081 327.501,417.852C327.501,420.16 326.931,421.931 325.79,423.165C324.65,424.4 322.992,425.017 320.819,425.017Z"/>
            </g>
            <g transform="matrix(0.93161,0,0,0.93161,235.922,-208.95)">
                <path d="M333.498,400.463L328.869,400.463L328.869,396.437L342.555,396.437L342.555,400.463L337.926,400.463L337.926,424.614L333.498,424.614L333.498,400.463Z"/>
            </g>
            <g transform="matrix(0.93161,0,0,0.93161,235.922,-208.95)">
                <path d="M344.689,396.437L356.765,396.437L356.765,400.463L349.117,400.463L349.117,407.909L355.195,407.909L355.195,411.935L349.117,411.935L349.117,420.589L356.765,420.589L356.765,424.614L344.689,424.614L344.689,396.437Z"/>
            </g>
            <g transform="matrix(0.93161,0,0,0.93161,235.922,-208.95)">
                <path d="M359.301,396.437L365.62,396.437L368.438,416.604L368.519,416.604L371.336,396.437L377.656,396.437L377.656,424.614L373.47,424.614L373.47,403.28L373.389,403.28L370.169,424.614L366.466,424.614L363.245,403.28L363.165,403.28L363.165,424.614L359.301,424.614L359.301,396.437Z"/>
            </g>
        </g>
        <g id="Gold-Stripe" serif:id="Gold Stripe" transform="matrix(17.1549,0,0,0.280705,15.0938,347.118)">
            <rect x="0" y="401.65" width="15" height="53.437" style="fill:rgb(255,204,84);"/>
        </g>
        <g id="Red-Stripe" serif:id="Red Stripe" transform="matrix(0.860947,0,0,2.35577,1.74298,-1801.67)">
            <path d="M314.025,771.16L314.025,960L15,960L15,780.314C15,775.262 26.224,771.16 40.049,771.16L314.025,771.16Z" style="fill:rgb(162,0,11);"/>
        </g>
        <g id="TapTo" transform="matrix(0.110189,0,0,0.110189,-66.4184,193.594)">
            <path d="M2802.55,1735.85L2287.5,1735.85L2287.5,2116.4L2141.68,2116.4L2141.68,1735.85L1660.1,1735.85L1660.1,1600.93L2802.55,1600.93L2802.55,1735.85ZM2802.55,1735.85L2937.47,1735.85L2937.47,2073.87C2937.47,2187.9 2845.02,2280.34 2730.99,2280.34L1830.71,2280.34L1830.71,2145.43L2695.54,2145.43C2754.64,2145.43 2802.55,2097.52 2802.55,2038.41L2802.55,1735.85ZM2920.66,1726.65C2920.66,1666.6 2871.8,1617.75 2811.76,1617.75L2811.76,1600.93C2881.07,1600.93 2937.47,1657.33 2937.47,1726.65L2920.66,1726.65ZM2883.92,1726.65C2883.92,1686.85 2851.55,1654.48 2811.76,1654.48L2811.76,1637.67C2860.82,1637.67 2900.73,1677.59 2900.73,1726.65L2883.92,1726.65ZM2811.76,1691.22L2811.76,1674.41C2840.56,1674.41 2863.99,1697.84 2863.99,1726.64L2847.18,1726.64C2847.18,1707.11 2831.29,1691.22 2811.76,1691.22ZM1636.61,1735.85L1155.02,1735.85L1155.02,2038.42C1155.02,2097.52 1202.93,2145.43 1262.03,2145.43L1636.61,2145.43L1636.61,2280.34L1215.67,2280.34C1101.64,2280.34 1009.2,2187.9 1009.2,2073.87L1009.2,1735.85L870.48,1735.85L870.48,1600.93L1636.61,1600.93L1636.61,1735.85ZM1660.1,1764.88L2108.23,1764.88L2108.23,2028.63C2108.23,2077.11 2068.93,2116.4 2020.46,2116.4L1830.71,2116.4L1830.71,1981.48L1943.74,1981.48C1954.05,1981.48 1962.41,1973.13 1962.41,1962.82L1962.41,1899.8L1805.92,1899.8L1805.92,2280.34L1660.1,2280.34L1660.1,1764.88ZM2769.09,1764.88L2769.09,2028.63C2769.09,2077.11 2729.8,2116.4 2681.33,2116.4L2408.73,2116.4C2360.26,2116.4 2320.96,2077.11 2320.96,2028.63L2320.96,1764.88L2769.09,1764.88ZM2623.27,1899.8L2466.78,1899.8L2466.78,1962.82C2466.78,1973.13 2475.14,1981.48 2485.45,1981.48L2604.61,1981.48C2614.92,1981.48 2623.27,1973.13 2623.27,1962.82L2623.27,1899.8ZM1188.48,1764.88L1636.61,1764.88L1636.61,2116.4L1490.79,2116.4L1490.79,1899.8L1334.3,1899.8L1334.3,1962.82C1334.3,1973.13 1342.65,1981.48 1352.96,1981.48L1465.99,1981.48L1465.99,2116.4L1276.24,2116.4C1227.77,2116.4 1188.48,2077.11 1188.48,2028.63L1188.48,1764.88Z" style="fill:white;"/>
        </g>
        <g id="Border" transform="matrix(7.15842e-17,1.16906,-1.12007,6.85846e-17,1024.08,-40.5111)">
            <path d="M542.184,83.934L542.184,874.007C542.184,892.911 527.479,908.259 509.367,908.259L73.172,908.259C55.06,908.259 40.355,892.911 40.355,874.007L40.355,83.934C40.355,65.03 55.06,49.683 73.172,49.683L509.367,49.683C527.479,49.683 542.184,65.03 542.184,83.934ZM535.055,83.934C535.055,69.137 523.545,57.123 509.367,57.123L73.172,57.123C58.994,57.123 47.484,69.137 47.484,83.934L47.484,874.007C47.484,888.805 58.994,900.819 73.172,900.819L509.367,900.819C523.545,900.819 535.055,888.805 535.055,874.007L535.055,83.934Z"/>
        </g>
    </g>
</svg>
