<svg xml:space="preserve" fill-rule="evenodd" stroke-linejoin="round" stroke-miterlimit="2" clip-rule="evenodd" version="1.1" id="svg9" width="640" height="1006" xmlns="http://www.w3.org/2000/svg">
  <path id="enforceSpace" fill="none" stroke="none" stroke-width="0" d="M0 0h640v1006H0z"/>
  <path id="path1" d="M640.265 936.267v69.92h-160.94v-51.64c0-11.373 7.35-18.28 18.217-18.28z" style="stroke-width:1"/>
  <path id="path2" d="M620.347 957.652h-34.85v26.992h-9.884v-26.992h-32.631v-9.568h77.365zm0 0h9.155v23.982a14.32 14.32 0 0 1-14.002 14.637h-60.955v-9.568h58.578a7.413 7.413 0 0 0 7.224-7.603zm.633-3.168v-1.172c1.965 0 3.549 1.647 3.549 3.706h-1.14c0-1.394-1.078-2.534-2.409-2.534zm4.88 2.534c0-2.851-2.187-5.132-4.88-5.132v-1.172c3.327 0 6.02 2.82 6.02 6.304zm2.502 0a7.572 7.572 0 0 0-7.382-7.73v-1.204a8.744 8.744 0 0 1 8.522 8.934zm-86.964.634h-32.632V979.1c0 4.214 3.263 7.603 7.287 7.603h25.345v9.568h-28.513a14.32 14.32 0 0 1-13.971-14.637v-23.982h-9.41v-9.568h51.894zm-30.35 2.06h30.35v24.932h-9.885V969.28h-10.581v4.467c0 .729.538 1.33 1.267 1.33h7.635v9.568h-12.862a6.083 6.083 0 0 1-5.925-6.241zm31.934 0h30.35v18.691c0 3.453-2.661 6.241-5.956 6.241h-12.83v-9.568h7.634a1.267 1.267 0 0 0 1.268-1.33v-4.435h-10.582v26.928h-9.884zm75.084 0v18.691c0 3.453-2.63 6.241-5.925 6.241h-18.47a6.083 6.083 0 0 1-5.924-6.241v-18.692Zm-9.853 9.567H597.63v4.467c0 .729.539 1.33 1.268 1.33h8.047a1.267 1.267 0 0 0 1.267-1.33z" style="fill:#fff;fill-opacity:1;stroke:none;stroke-width:.999991;stroke-dasharray:none"/>
  <path id="path3" d="M33.28 16.09A18.312 18.312 0 0 0 15 34.37v75.18a18.312 18.312 0 0 0 18.28 18.28h571.842a18.312 18.312 0 0 0 18.311-18.28V34.37a18.312 18.312 0 0 0-18.311-18.28z" style="fill:#000;fill-opacity:1;stroke:none;stroke-width:1"/>
  <path id="path4" fill="#fff" d="M421.657 113.668h-1.806v-1.267H409.08v1.267h-1.806v-15.65h14.383Zm-1.806-3.136V99.887H409.08v10.645zm23.35-4.404h-16.792v-1.9H443.2zm20.782-5.86-1.394.601a9.884 9.884 0 0 0-.95-2.788l1.457-.633c.38.76.665 1.71.887 2.82zm-5.608-.603h-10.074v-1.869h10.074zm3.39 1.426-1.394.602a10.296 10.296 0 0 0-.95-2.788l1.457-.634c.349.76.634 1.711.887 2.82zm1.426 3.707h-7.16v.823c0 4.119-1.743 7.065-5.26 8.808l-1.425-1.648c1.584-.602 2.82-1.489 3.643-2.661.824-1.172 1.236-2.598 1.236-4.277 0-.475 0-.824-.063-1.045h-7.794v-1.901h16.791zm17.14-5.07c-1.49 1.806-2.694 3.105-3.55 3.866v8.205h-1.678v-6.843c-1.616 1.236-3.168 2.154-4.657 2.82l-1.014-1.521a21.543 21.543 0 0 0 5.386-3.263 19.737 19.737 0 0 0 4.15-4.436zm13.844.824-1.077 1.616a13.75 13.75 0 0 0-5.735-2.946l1.11-1.711c2.312.887 4.213 1.9 5.702 3.041zm9.092 2.123a27.15 27.15 0 0 1-6.906 7.603c-2.281 1.553-4.847 2.725-7.73 3.58l-1.14-1.9a20.783 20.783 0 0 0 8.648-3.802 23.824 23.824 0 0 0 5.67-6.843zm20.688-4.309-1.362.57a10.138 10.138 0 0 0-.95-2.756l1.425-.633c.38.76.697 1.679.887 2.82zm-2.218.824-.824.412.76.76a17.741 17.741 0 0 1-3.484 8.396 19.104 19.104 0 0 1-7.604 5.449l-1.393-1.743a17.646 17.646 0 0 0 7.064-4.213c1.68-1.774 2.852-4.055 3.39-6.78h-7.476c-1.268 1.87-2.535 3.2-3.802 4.024l-1.458-1.331a15.872 15.872 0 0 0 5.925-7.889l1.742.856a19.009 19.009 0 0 1-1.235 2.471h6.97a10.17 10.17 0 0 0-.95-2.598l1.488-.634c.38.76.665 1.711.887 2.82zm14.098-.412-.633 1.901a14.922 14.922 0 0 0-6.147-1.964l.634-1.901c2.598.539 4.657 1.204 6.146 1.964zm7.889 4.024a25.535 25.535 0 0 1-6.273 7.191 24.711 24.711 0 0 1-8.396 3.992l-.95-1.9a22.937 22.937 0 0 0 8.554-3.802 18.565 18.565 0 0 0 5.48-6.749zm-9.821 1.204-.697 1.964a12.672 12.672 0 0 0-6.02-2.123l.634-1.869c2.503.475 4.53 1.14 6.114 2.028zm30.952 8.712-1.584 1.172a24.268 24.268 0 0 0-6.811-6.558 28.83 28.83 0 0 1-7.73 6.907l-1.426-1.49a25.186 25.186 0 0 0 11.215-12.894h-10.075v-1.774h11.817l.539.539a24.968 24.968 0 0 1-3.263 7.223 28.85 28.85 0 0 1 7.286 6.875zm17.234-13.053h-12.862v-1.869h12.862zm2.028 5.133h-7.16v.823c0 4.119-1.742 7.065-5.259 8.808l-1.426-1.648c1.584-.602 2.82-1.489 3.644-2.661.823-1.172 1.235-2.598 1.235-4.277 0-.475 0-.824-.063-1.045h-7.794v-1.901h16.823zm20.53 8.142-1.807.76c-.221-.855-.601-1.806-1.077-2.788-6.748.697-11.341 1.267-13.686 1.743l-.507-1.996 2.313-.286 5.259-13.622 1.68.633-4.911 12.736 8.807-1.014a20.308 20.308 0 0 0-3.105-4.689l1.87-.823c1.773 2.312 3.484 5.417 5.163 9.346zM407.653 91.333a.792.792 0 0 1 0-1.552h196.929a.792.792 0 0 1 0 1.584zm0-29.463h4.309l3.326 12.99h.064V61.87h3.04v21.765h-3.516L410.76 67.73h-.064v15.904h-3.041Zm13.306 0h9.03v3.073h-5.608v6.083h4.403v3.104h-4.435v9.505h-3.422zm15.524 22.05c-1.648 0-2.915-.444-3.77-1.394-.856-.95-1.268-2.218-1.268-3.96v-11.69c0-1.68.412-3.01 1.268-3.96.855-.92 2.122-1.395 3.77-1.395 1.615 0 2.851.476 3.738 1.394.855.95 1.267 2.281 1.267 3.96v2.313h-3.2v-2.534c0-1.33-.57-2.028-1.71-2.028-1.14 0-1.711.697-1.711 2.028v12.165c0 1.33.57 1.996 1.71 1.996 1.141 0 1.712-.633 1.712-1.996v-3.326h3.231v3.073c0 1.71-.444 3.041-1.299 3.96-.855.95-2.123 1.394-3.738 1.394zm12.038-22.082h3.454V80.53h5.639v3.105h-9.06zm15.524 22.082c-1.647 0-2.946-.475-3.802-1.426a5.703 5.703 0 0 1-1.362-4.023V67.002c0-1.742.444-3.073 1.33-4.055.888-.95 2.187-1.426 3.866-1.426 1.679 0 2.946.476 3.865 1.426.887.95 1.33 2.313 1.33 4.055v11.469c0 1.742-.443 3.073-1.33 4.023-.919.95-2.218 1.426-3.865 1.426zm0-3.105c1.204 0 1.806-.697 1.806-2.154V66.78c0-1.426-.602-2.155-1.774-2.155-1.172 0-1.774.729-1.774 2.154v11.88c0 1.458.602 2.155 1.774 2.155zm10.138-18.977h4.594l3.548 21.797h-3.421l-.634-4.34v.063h-3.865l-.634 4.277h-3.168zm3.707 14.573L476.37 65.64h-.063l-1.49 10.771zm6.082-14.573h5.228c1.71 0 2.978.475 3.833 1.363.856.95 1.267 2.249 1.267 4.023v11.025c0 1.742-.411 3.105-1.267 3.992-.855.95-2.122 1.394-3.801 1.394h-5.26zm5.196 18.692c.539 0 .95-.19 1.267-.507.317-.317.476-.887.476-1.616V67.066c0-.73-.159-1.268-.476-1.616-.316-.317-.728-.507-1.267-.507h-1.742v15.555zm7.445-18.692h3.422v21.797h-3.422zm5.988 0h4.277l3.326 13.053h.064V61.838h3.073v21.797h-3.517l-4.118-15.904h-.064v15.904h-3.041zm18.121 22.082c-1.647 0-2.914-.444-3.801-1.394-.856-.95-1.268-2.313-1.268-4.055V67.002c0-1.774.412-3.105 1.268-4.055.887-.95 2.154-1.426 3.801-1.426 1.68 0 2.947.476 3.802 1.426.887.95 1.33 2.281 1.33 4.055v1.901h-3.262V66.78c0-1.425-.57-2.154-1.775-2.154-1.172 0-1.774.729-1.774 2.154v11.913c0 1.425.634 2.122 1.774 2.122 1.204 0 1.775-.697 1.775-2.122v-4.246h-1.711v-3.104h4.974v7.128c0 1.742-.444 3.104-1.33 4.055-.856.95-2.123 1.394-3.803 1.394zm16.76 0c-1.648 0-2.915-.444-3.77-1.394-.856-.95-1.268-2.313-1.268-4.055v-1.267h3.232v1.489c0 1.425.602 2.122 1.774 2.122.57 0 1.014-.158 1.33-.507.317-.317.444-.887.444-1.679 0-.887-.222-1.71-.634-2.408a11.5 11.5 0 0 0-2.28-2.502c-1.426-1.236-2.408-2.376-2.979-3.359a6.875 6.875 0 0 1-.823-3.421c0-1.71.443-3.042 1.299-3.992.887-.95 2.122-1.426 3.801-1.426 1.648 0 2.852.476 3.707 1.426s1.267 2.281 1.267 4.055v.919h-3.231v-1.14c0-.73-.159-1.268-.444-1.616-.285-.349-.697-.539-1.267-.539-1.14 0-1.71.697-1.71 2.091 0 .792.221 1.52.633 2.218.412.697 1.204 1.52 2.313 2.503 1.425 1.235 2.407 2.376 2.946 3.39.539 1.013.824 2.217.824 3.58 0 1.774-.444 3.167-1.331 4.118-.887.95-2.154 1.394-3.833 1.394zm10.074-9.568-4.118-12.514h3.611l2.345 8.016h.063l2.344-8.016h3.327l-4.119 12.514v9.283h-3.453zm13.084 9.568c-1.679 0-2.914-.444-3.801-1.394-.824-.95-1.268-2.313-1.268-4.055v-1.267h3.264v1.489c0 1.425.57 2.122 1.774 2.122.57 0 1.014-.158 1.299-.507.316-.317.475-.887.475-1.679 0-.887-.222-1.71-.634-2.408a11.5 11.5 0 0 0-2.312-2.502c-1.394-1.236-2.377-2.376-2.947-3.359a6.875 6.875 0 0 1-.823-3.421c0-1.71.411-3.042 1.267-3.992.887-.95 2.154-1.426 3.801-1.426 1.648 0 2.883.476 3.739 1.426.855.95 1.267 2.281 1.267 4.055v.919h-3.231v-1.14c0-.73-.159-1.268-.444-1.616-.317-.349-.729-.539-1.267-.539-1.14 0-1.71.697-1.71 2.091 0 .792.19 1.52.633 2.218.412.697 1.204 1.52 2.312 2.503 1.426 1.235 2.408 2.376 2.947 3.39.538 1.013.823 2.217.823 3.58 0 1.774-.443 3.167-1.33 4.118-.887.95-2.154 1.394-3.834 1.394zm9.822-18.977h-3.612v-3.105h10.581v3.105h-3.58v18.692h-3.421zm8.617-3.105h9.346v3.105H582.5v5.766h4.72v3.105h-4.72v6.684h5.925v3.137h-9.346zm11.31 0h4.879l2.186 15.587h.063l2.154-15.587h4.911v21.797h-3.263V67.097h-.032l-2.534 16.474h-2.852l-2.47-16.474h-.064v16.474h-2.978z" style="stroke:none;stroke-width:1;stroke-opacity:1"/>
  <path id="path5" fill="url(#a)" d="M41.89 18.448v32.005h-9.6V18.448Zm-4.794 25.608a1.602 1.602 0 1 0 0 3.194 1.602 1.602 0 0 0 0-3.204zm142.417-25.608v31.995h-9.6V18.448Zm-4.805 25.588a1.602 1.602 0 1 0 0 3.204 1.602 1.602 0 0 0 0-3.204zm321.33-25.588v31.995h-9.6V18.448Zm-4.805 25.588a1.602 1.602 0 1 0 0 3.204 1.602 1.602 0 0 0 0-3.204zm-160.34-25.578v31.995h-9.601V18.448Zm-4.796 25.588a1.602 1.602 0 1 0 0 3.204 1.602 1.602 0 0 0 0-3.204zM83.183 18.458v31.995h-9.601V18.448Zm-4.806 25.588a1.602 1.602 0 1 0 0 3.204 1.602 1.602 0 0 0 0-3.204zm142.418-25.588v31.995h-9.601V18.448Zm-4.796 25.588a1.602 1.602 0 1 0 0 3.204 1.602 1.602 0 0 0 0-3.204zM537.32 18.458v31.995h-9.6V18.448Zm-4.795 25.588a1.602 1.602 0 1 0 0 3.204 1.602 1.602 0 0 0 0-3.204zM372.184 18.458v31.995h-9.6V18.448Zm-4.805 25.588a1.602 1.602 0 1 0 0 3.204 1.602 1.602 0 0 0 0-3.204zM124.474 18.458v31.995h-9.61V18.448Zm-4.805 25.588a1.602 1.602 0 1 0 0 3.204 1.602 1.602 0 0 0 0-3.204zm142.417-25.588v31.995h-9.6V18.448Zm-4.805 25.588a1.602 1.602 0 1 0 0 3.204 1.602 1.602 0 0 0 0-3.204zm321.331-25.588v31.995h-9.6V18.448Zm-4.805 25.588a1.602 1.602 0 1 0 0 3.204 1.602 1.602 0 0 0 0-3.204zM413.466 18.458v31.995h-9.601V18.448Zm-4.806 25.588a1.602 1.602 0 1 0 0 3.204 1.602 1.602 0 0 0 0-3.204zM151.99 18.458v31.995h-9.601V18.448Zm-4.796 25.588a1.602 1.602 0 1 0 0 3.204 1.602 1.602 0 0 0 0-3.204zm321.321-25.588v31.995h-9.6V18.448Zm-4.805 25.588a1.602 1.602 0 1 0 0 3.204 1.602 1.602 0 0 0 0-3.204zM289.611 18.458v31.995h-9.6V18.448Zm-4.806 25.588a1.602 1.602 0 1 0 0 3.204 1.602 1.602 0 0 0 0-3.204zm321.332-25.588v31.995h-9.601V18.448Zm-4.806 25.588a1.602 1.602 0 1 0 0 3.204 1.602 1.602 0 0 0 0-3.204zM440.99 18.458v31.995h-9.6V18.448Zm-4.805 25.588a1.602 1.602 0 1 0 0 3.204 1.602 1.602 0 0 0 0-3.204zM96.94 18.458v31.995h-9.6V18.448Zm-4.796 25.588a1.602 1.602 0 1 0 0 3.204 1.602 1.602 0 0 0 0-3.204zm142.418-25.588v31.995h-9.6V18.448Zm-4.806 25.588a1.602 1.602 0 1 0 0 3.204 1.602 1.602 0 0 0 0-3.204zm321.332-25.588v31.995h-9.6V18.448Zm-4.806 25.588a1.602 1.602 0 1 0 0 3.204 1.602 1.602 0 0 0 0-3.204zm-160.34-25.588v31.995h-9.601V18.448Zm-4.796 25.588a1.602 1.602 0 1 0 0 3.204 1.602 1.602 0 0 0 0-3.204zM138.23 18.458v31.995h-9.6V18.448Zm-4.805 25.588a1.602 1.602 0 1 0 0 3.204 1.602 1.602 0 0 0 0-3.204zm142.417-25.588v31.995h-9.6V18.448Zm-4.795 25.588a1.602 1.602 0 1 0 0 3.204 1.602 1.602 0 0 0 0-3.204zM592.37 18.458v31.995h-9.6V18.448Zm-4.795 25.588a1.602 1.602 0 1 0 0 3.204 1.602 1.602 0 0 0 0-3.204zM427.233 18.458v31.995h-9.6V18.448Zm-4.806 25.588a1.602 1.602 0 1 0 0 3.204 1.602 1.602 0 0 0 0-3.204zM165.756 18.458v31.995h-9.6V18.448Zm-4.806 25.588a1.602 1.602 0 1 0 0 3.204 1.602 1.602 0 0 0 0-3.204zm321.322-25.588v31.995h-9.601V18.448Zm-4.796 25.588a1.602 1.602 0 1 0 0 3.204 1.602 1.602 0 0 0 0-3.204zm-160.34-25.588v31.995h-9.601V18.448Zm-4.806 25.588a1.602 1.602 0 1 0 0 3.204 1.602 1.602 0 0 0 0-3.204zm-8.962-25.588v31.995h-9.6V18.448Zm-4.795 25.588a1.602 1.602 0 1 0 0 3.204 1.602 1.602 0 0 0 0-3.204zm156.184-25.588v31.995h-9.6V18.448Zm-4.805 25.588a1.602 1.602 0 1 0 0 3.204 1.602 1.602 0 0 0 0-3.204zM49.17 50.453h-3.123V18.448h9.601v31.995h-2.9l-1.246 5.373h-1.095zm1.683-6.397a1.602 1.602 0 1 0 0 3.194 1.602 1.602 0 0 0 0-3.194zm135.939 6.387h-3.112V18.468h9.6v31.995h-2.9l-1.256 5.374h-1.085zm1.683-6.387a1.602 1.602 0 1 0 0 3.194 1.602 1.602 0 0 0 0-3.194zm314.833 6.387h-3.113V18.468h9.601v31.995h-2.89l-1.256 5.374h-1.085zM505 44.056a1.602 1.602 0 1 0 0 3.194 1.602 1.602 0 0 0 0-3.194zm-166.83 6.387h-3.112V18.468h9.6v31.995h-2.899l-1.247 5.374h-1.095zm1.683-6.387a1.602 1.602 0 1 0 0 3.194 1.602 1.602 0 0 0 0-3.194zm-236.71 6.387h-2.038V18.468h9.601v31.995h-5.049l-1.247 5.374h-1.084zm2.758-6.387a1.602 1.602 0 1 0 0 3.194 1.602 1.602 0 0 0 0-3.194zm134.864 6.387h-2.048V18.468h9.601v31.995h-5.028l-1.247 5.374h-1.095zm2.758-6.387a1.602 1.602 0 1 0 0 3.194 1.602 1.602 0 0 0 0-3.194zm313.768 6.387h-2.048V18.468h9.6v31.995h-5.028l-1.247 5.374h-1.094zm2.758-6.387a1.602 1.602 0 1 0 0 3.194 1.602 1.602 0 0 0 0-3.194zm-167.904 6.387h-2.038V18.468h9.59v31.995h-5.028l-1.247 5.374h-1.095zm2.757-6.387a1.602 1.602 0 1 0 0 3.194 1.602 1.602 0 0 0 0-3.194zM65.066 50.443h-5.251V18.468h9.6v31.995H67.59l-.182 5.374h-1.095Zm-.446-6.387a1.602 1.602 0 1 0 0 3.194 1.602 1.602 0 0 0 0-3.194zm138.068 6.387h-5.251V18.468h9.6v31.995h-1.824l-.193 5.374h-1.085zm-.446-6.387a1.602 1.602 0 1 0 0 3.194 1.602 1.602 0 0 0 0-3.194zm316.962 6.387h-5.241V18.468h9.6v31.995h-1.825l-.192 5.374h-1.085zm-.446-6.387a1.602 1.602 0 1 0 0 3.194 1.602 1.602 0 0 0 0-3.194zm-164.69 6.387h-5.252V18.468h9.6v31.995h-1.824l-.193 5.374h-1.084zm-.447-6.387a1.602 1.602 0 1 0 0 3.194 1.602 1.602 0 0 0 0-3.194z" style="fill:url(#a);stroke-width:.32"/>
  <rect stroke-width="0" fill="none" id="placeholder_logo" width="350" height="53" x="36" y="61" />
  <defs id="defs9">
    <linearGradient id="a" x1="0" x2="1" y1="0" y2="0" gradientTransform="matrix(-470.53192 0 0 -470.4863 580.62 19.563)" gradientUnits="userSpaceOnUse">
      <stop offset="0" stop-color="#d7c000" id="stop5"/>
      <stop offset=".34" stop-color="#cfb600" id="stop6"/>
      <stop offset=".62" stop-color="#ffffbf" id="stop7"/>
      <stop offset=".76" stop-color="#e0ca00" id="stop8"/>
      <stop offset="1" stop-color="#ffef7a" id="stop9"/>
    </linearGradient>
  </defs>
</svg>