<?xml version="1.0" encoding="UTF-8" standalone="no"?>
<svg
   xmlns:serif="http://www.serif.com/"
   xmlns:dc="http://purl.org/dc/elements/1.1/"
   xmlns:cc="http://creativecommons.org/ns#"
   xmlns:rdf="http://www.w3.org/1999/02/22-rdf-syntax-ns#"
   xmlns:svg="http://www.w3.org/2000/svg"
   xmlns="http://www.w3.org/2000/svg"
   xmlns:sodipodi="http://sodipodi.sourceforge.net/DTD/sodipodi-0.dtd"
   xmlns:inkscape="http://www.inkscape.org/namespaces/inkscape"
   width="619"
   height="994"
   viewBox="0 0 198.04802 318.04802"
   version="1.1"
   xml:space="preserve"
   style="clip-rule:evenodd;fill-rule:evenodd;stroke-linejoin:round;stroke-miterlimit:2"
   id="svg10"
   sodipodi:docname="tapto_hucard_c64.svg"
   inkscape:version="0.92.4 (5da689c313, 2019-01-14)"><metadata
   id="metadata27"><rdf:RDF><cc:Work
       rdf:about=""><dc:format>image/svg+xml</dc:format><dc:type
         rdf:resource="http://purl.org/dc/dcmitype/StillImage" /><dc:title></dc:title></cc:Work></rdf:RDF></metadata><sodipodi:namedview
   pagecolor="#ffffff"
   bordercolor="#666666"
   borderopacity="1"
   objecttolerance="10"
   gridtolerance="10"
   guidetolerance="10"
   inkscape:pageopacity="0"
   inkscape:pageshadow="2"
   inkscape:window-width="1920"
   inkscape:window-height="1017"
   id="namedview25"
   showgrid="false"
   inkscape:zoom="0.67153803"
   inkscape:cx="301.15264"
   inkscape:cy="460.51356"
   inkscape:window-x="-8"
   inkscape:window-y="-8"
   inkscape:window-maximized="1"
   inkscape:current-layer="Card-Top" />
    <g
   id="Background"
   transform="scale(0.31999999)"
   style="display:inline">
        <path
   id="Sticker-Rounded"
   serif:id="Sticker Rounded"
   d="m 618.9,24.756 v 944.388 c 0,13.663 -11.093,24.756 -24.756,24.756 H 24.756 C 11.093,993.9 0,982.807 0,969.144 V 24.756 C 0,11.093 11.093,0 24.756,0 H 594.144 C 607.807,0 618.9,11.093 618.9,24.756 Z"
   inkscape:connector-curvature="0"
   style="fill-opacity:0" />
    </g>
    <g
   id="Card-Frame"
   serif:id="Card Frame"
   transform="scale(0.31999999)">
        <g
   id="Artwork-Area"
   serif:id="Artwork Area">
            <path
   d="m 609.525,258.529 v 707.992 c 0,9.936 -8.068,18.004 -18.004,18.004 H 27.379 c -9.936,0 -18.004,-8.068 -18.004,-18.004 V 258.529 c 0,-9.936 8.068,-18.004 18.004,-18.004 h 564.142 c 9.936,0 18.004,8.068 18.004,18.004 z M 394.418,972.025 h 197.103 c 3.038,0 5.504,-2.466 5.504,-5.504 V 258.529 c 0,-3.038 -2.466,-5.504 -5.504,-5.504 H 27.379 c -3.038,0 -5.504,2.466 -5.504,5.504 v 707.992 c 0,3.038 2.466,5.504 5.504,5.504 h 197.103 c 5.51,-0.187 9.926,-4.719 9.926,-10.274 v -36.737 h 139.803 c 5.674,0 10.281,4.607 10.281,10.281 v 26.456 c 0,5.555 4.416,10.087 9.926,10.274 z"
   id="path1"
   inkscape:connector-curvature="0" />
            <path
   id="TapTo-Logo---Bottom"
   serif:id="TapTo Logo - Bottom"
   d="m 369.478,940.449 h -34.407 v 26.612 h -9.741 v -26.612 h -32.172 v -9.435 h 76.32 z m 0,0 h 9.014 v 23.638 c 0,7.974 -6.176,14.438 -13.794,14.438 h -60.142 v -9.434 h 57.774 c 3.948,0 7.148,-3.35 7.148,-7.484 z m 0.616,-3.121 v -1.175 c 1.924,0 3.489,1.638 3.489,3.652 h -1.123 c 0,-1.366 -1.062,-2.477 -2.366,-2.477 z m 4.82,2.478 c 0,-2.783 -2.162,-5.047 -4.82,-5.047 v -1.176 c 3.277,0 5.943,2.792 5.943,6.223 z m 2.455,0 c 0,-4.199 -3.264,-7.616 -7.275,-7.616 v -1.176 c 4.63,0 8.398,3.944 8.398,8.792 z m -85.78,0.643 h -32.172 v 21.159 c 0,4.133 3.2,7.483 7.149,7.483 h 25.023 v 9.434 h -28.121 c -7.617,0 -13.793,-6.464 -13.793,-14.438 v -23.638 h -9.267 v -9.435 h 51.181 z m -29.937,2.03 h 29.937 v 24.582 h -9.741 v -15.147 h -10.455 v 4.407 c 0,0.721 0.558,1.305 1.247,1.305 h 7.551 v 9.435 h -12.676 c -3.238,0 -5.863,-2.748 -5.863,-6.138 z m 31.506,0 h 29.937 v 18.444 c 0,3.39 -2.625,6.138 -5.863,6.138 h -12.676 v -9.435 h 7.55 c 0.689,0 1.248,-0.584 1.248,-1.305 v -4.407 H 302.9 v 26.611 h -9.742 z m 74.085,0 v 18.444 c 0,3.39 -2.625,6.138 -5.863,6.138 h -18.21 c -3.238,0 -5.864,-2.748 -5.864,-6.138 v -18.444 z m -9.741,9.435 h -10.454 v 4.407 c 0,0.721 0.558,1.305 1.247,1.305 h 7.96 c 0.689,0 1.247,-0.584 1.247,-1.305 z"
   style="fill:#ffffff"
   inkscape:connector-curvature="0" />
        </g>
        <g
   id="Card-Top"
   serif:id="Card Top">
            <path
   id="Header-Background"
   serif:id="Header Background"
   d="m 609.525,48.574 v 158.932 c 0,9.958 -8.084,18.042 -18.041,18.042 H 27.416 c -9.957,0 -18.041,-8.084 -18.041,-18.042 V 48.574 Z"
   style="fill:#000000"
   inkscape:connector-curvature="0" />
            
            
            
            <path
   id="Pins-Background"
   serif:id="Pins Background"
   d="M 9.375,48.574 V 27.416 c 0,-9.957 8.084,-18.041 18.041,-18.041 h 564.068 c 9.957,0 18.041,8.084 18.041,18.041 v 21.158 z"
   inkscape:connector-curvature="0" />
            <path
   id="Pins"
   d="M 35.903,11.708 V 43.269 H 26.434 V 11.708 Z m -4.735,25.247 c -0.87,0 -1.577,0.707 -1.577,1.58 0,0.87 0.707,1.577 1.577,1.577 0.871,0 1.578,-0.707 1.578,-1.577 0,-0.873 -0.707,-1.58 -1.578,-1.58 z M 171.65,11.708 v 31.561 h -9.469 V 11.708 Z m -4.735,25.247 c -0.87,0 -1.577,0.707 -1.577,1.58 0,0.87 0.707,1.577 1.577,1.577 0.871,0 1.578,-0.707 1.578,-1.577 0,-0.873 -0.707,-1.58 -1.578,-1.58 z M 483.869,11.708 v 31.561 h -9.47 V 11.708 Z m -4.736,25.247 c -0.87,0 -1.577,0.707 -1.577,1.58 0,0.87 0.707,1.577 1.577,1.577 0.871,0 1.579,-0.707 1.579,-1.577 0,-0.873 -0.708,-1.58 -1.579,-1.58 z M 320.972,11.708 v 31.561 h -9.469 V 11.708 Z m -4.735,25.247 c -0.87,0 -1.578,0.707 -1.578,1.58 0,0.87 0.708,1.577 1.578,1.577 0.871,0 1.578,-0.707 1.578,-1.577 0,-0.873 -0.707,-1.58 -1.578,-1.58 z M 76.627,11.708 V 43.269 H 67.158 V 11.708 Z m -4.735,25.247 c -0.87,0 -1.577,0.707 -1.577,1.58 0,0.87 0.707,1.577 1.577,1.577 0.871,0 1.578,-0.707 1.578,-1.577 0,-0.873 -0.707,-1.58 -1.578,-1.58 z M 212.374,11.708 v 31.561 h -9.469 V 11.708 Z m -4.735,25.247 c -0.87,0 -1.577,0.707 -1.577,1.58 0,0.87 0.707,1.577 1.577,1.577 0.871,0 1.579,-0.707 1.579,-1.577 0,-0.873 -0.708,-1.58 -1.579,-1.58 z M 524.593,11.708 v 31.561 h -9.47 V 11.708 Z m -4.736,25.247 c -0.869,0 -1.577,0.707 -1.577,1.58 0,0.87 0.708,1.577 1.577,1.577 0.872,0 1.579,-0.707 1.579,-1.577 0,-0.873 -0.707,-1.58 -1.579,-1.58 z M 361.696,11.708 v 31.561 h -9.469 V 11.708 Z m -4.735,25.247 c -0.87,0 -1.577,0.707 -1.577,1.58 0,0.87 0.707,1.577 1.577,1.577 0.871,0 1.578,-0.707 1.578,-1.577 0,-0.873 -0.707,-1.58 -1.578,-1.58 z M 117.351,11.708 v 31.561 h -9.469 V 11.708 Z m -4.735,25.247 c -0.87,0 -1.577,0.707 -1.577,1.58 0,0.87 0.707,1.577 1.577,1.577 0.871,0 1.579,-0.707 1.579,-1.577 0,-0.873 -0.708,-1.58 -1.579,-1.58 z M 253.099,11.708 v 31.561 h -9.47 V 11.708 Z m -4.736,25.247 c -0.87,0 -1.577,0.707 -1.577,1.58 0,0.87 0.707,1.577 1.577,1.577 0.871,0 1.579,-0.707 1.579,-1.577 0,-0.873 -0.708,-1.58 -1.579,-1.58 z M 565.317,11.708 v 31.561 h -9.47 V 11.708 Z m -4.735,25.247 c -0.87,0 -1.578,0.707 -1.578,1.58 0,0.87 0.708,1.577 1.578,1.577 0.871,0 1.578,-0.707 1.578,-1.577 0,-0.873 -0.707,-1.58 -1.578,-1.58 z M 402.42,11.708 v 31.561 h -9.469 V 11.708 Z m -4.735,25.247 c -0.87,0 -1.577,0.707 -1.577,1.58 0,0.87 0.707,1.577 1.577,1.577 0.871,0 1.578,-0.707 1.578,-1.577 0,-0.873 -0.707,-1.58 -1.578,-1.58 z M 144.501,11.708 v 31.561 h -9.47 V 11.708 Z m -4.736,25.247 c -0.869,0 -1.577,0.707 -1.577,1.58 0,0.87 0.708,1.577 1.577,1.577 0.872,0 1.579,-0.707 1.579,-1.577 0,-0.873 -0.707,-1.58 -1.579,-1.58 z M 456.719,11.708 V 43.269 H 447.25 V 11.708 Z m -4.735,25.247 c -0.87,0 -1.577,0.707 -1.577,1.58 0,0.87 0.707,1.577 1.577,1.577 0.871,0 1.578,-0.707 1.578,-1.577 0,-0.873 -0.707,-1.58 -1.578,-1.58 z M 280.248,11.708 v 31.561 h -9.47 V 11.708 Z m -4.735,25.247 c -0.87,0 -1.578,0.707 -1.578,1.58 0,0.87 0.708,1.577 1.578,1.577 0.871,0 1.578,-0.707 1.578,-1.577 0,-0.873 -0.707,-1.58 -1.578,-1.58 z M 592.466,11.708 v 31.561 h -9.469 V 11.708 Z m -4.735,25.247 c -0.87,0 -1.577,0.707 -1.577,1.58 0,0.87 0.707,1.577 1.577,1.577 0.871,0 1.578,-0.707 1.578,-1.577 0,-0.873 -0.707,-1.58 -1.578,-1.58 z M 429.57,11.708 V 43.269 H 420.1 V 11.708 Z m -4.736,25.247 c -0.869,0 -1.577,0.707 -1.577,1.58 0,0.87 0.708,1.577 1.577,1.577 0.872,0 1.579,-0.707 1.579,-1.577 0,-0.873 -0.707,-1.58 -1.579,-1.58 z M 90.202,11.708 v 31.561 h -9.47 V 11.708 Z m -4.735,25.247 c -0.87,0 -1.578,0.707 -1.578,1.58 0,0.87 0.708,1.577 1.578,1.577 0.871,0 1.578,-0.707 1.578,-1.577 0,-0.873 -0.707,-1.58 -1.578,-1.58 z M 225.949,11.708 V 43.269 H 216.48 V 11.708 Z m -4.735,25.247 c -0.87,0 -1.577,0.707 -1.577,1.58 0,0.87 0.707,1.577 1.577,1.577 0.871,0 1.578,-0.707 1.578,-1.577 0,-0.873 -0.707,-1.58 -1.578,-1.58 z M 538.168,11.708 v 31.561 h -9.47 V 11.708 Z m -4.736,25.247 c -0.87,0 -1.577,0.707 -1.577,1.58 0,0.87 0.707,1.577 1.577,1.577 0.871,0 1.579,-0.707 1.579,-1.577 0,-0.873 -0.708,-1.58 -1.579,-1.58 z M 375.271,11.708 v 31.561 h -9.47 V 11.708 Z m -4.735,25.247 c -0.87,0 -1.578,0.707 -1.578,1.58 0,0.87 0.708,1.577 1.578,1.577 0.871,0 1.578,-0.707 1.578,-1.577 0,-0.873 -0.707,-1.58 -1.578,-1.58 z M 130.926,11.708 v 31.561 h -9.469 V 11.708 Z m -4.735,25.247 c -0.87,0 -1.577,0.707 -1.577,1.58 0,0.87 0.707,1.577 1.577,1.577 0.871,0 1.578,-0.707 1.578,-1.577 0,-0.873 -0.707,-1.58 -1.578,-1.58 z M 266.673,11.708 v 31.561 h -9.469 V 11.708 Z m -4.735,25.247 c -0.87,0 -1.577,0.707 -1.577,1.58 0,0.87 0.707,1.577 1.577,1.577 0.871,0 1.578,-0.707 1.578,-1.577 0,-0.873 -0.707,-1.58 -1.578,-1.58 z M 578.892,11.708 v 31.561 h -9.47 V 11.708 Z m -4.736,25.247 c -0.87,0 -1.577,0.707 -1.577,1.58 0,0.87 0.707,1.577 1.577,1.577 0.871,0 1.579,-0.707 1.579,-1.577 0,-0.873 -0.708,-1.58 -1.579,-1.58 z M 415.995,11.708 v 31.561 h -9.469 V 11.708 Z m -4.735,25.247 c -0.87,0 -1.578,0.707 -1.578,1.58 0,0.87 0.708,1.577 1.578,1.577 0.871,0 1.578,-0.707 1.578,-1.577 0,-0.873 -0.707,-1.58 -1.578,-1.58 z M 158.076,11.708 v 31.561 h -9.47 V 11.708 Z m -4.736,25.247 c -0.87,0 -1.577,0.707 -1.577,1.58 0,0.87 0.707,1.577 1.577,1.577 0.871,0 1.579,-0.707 1.579,-1.577 0,-0.873 -0.708,-1.58 -1.579,-1.58 z M 470.294,11.708 v 31.561 h -9.47 V 11.708 Z m -4.735,25.247 c -0.87,0 -1.578,0.707 -1.578,1.58 0,0.87 0.708,1.577 1.578,1.577 0.871,0 1.578,-0.707 1.578,-1.577 0,-0.873 -0.707,-1.58 -1.578,-1.58 z M 307.397,11.708 v 31.561 h -9.469 V 11.708 Z m -4.735,25.247 c -0.87,0 -1.577,0.707 -1.577,1.58 0,0.87 0.707,1.577 1.577,1.577 0.871,0 1.579,-0.707 1.579,-1.577 0,-0.873 -0.708,-1.58 -1.579,-1.58 z m -8.839,-25.247 v 31.561 h -9.47 V 11.708 Z m -4.736,25.247 c -0.87,0 -1.577,0.707 -1.577,1.58 0,0.87 0.707,1.577 1.577,1.577 0.871,0 1.579,-0.707 1.579,-1.577 0,-0.873 -0.708,-1.58 -1.579,-1.58 z M 443.145,11.708 v 31.561 h -9.47 V 11.708 Z m -4.736,25.247 c -0.87,0 -1.577,0.707 -1.577,1.58 0,0.87 0.707,1.577 1.577,1.577 0.871,0 1.579,-0.707 1.579,-1.577 0,-0.873 -0.708,-1.58 -1.579,-1.58 z m -395.33,6.313 h -3.07 v -31.56 h 9.469 v 31.56 H 46.62 l -1.233,5.306 h -1.075 z m 1.664,-6.312 c -0.871,0 -1.578,0.707 -1.578,1.578 0,0.871 0.707,1.578 1.578,1.578 0.871,0 1.578,-0.707 1.578,-1.578 0,-0.871 -0.707,-1.578 -1.578,-1.578 z m 134.083,6.312 h -3.07 v -31.56 h 9.469 v 31.56 h -2.858 l -1.233,5.306 h -1.075 z m 1.664,-6.312 c -0.871,0 -1.578,0.707 -1.578,1.578 0,0.871 0.707,1.578 1.578,1.578 0.871,0 1.578,-0.707 1.578,-1.578 0,-0.871 -0.707,-1.578 -1.578,-1.578 z m 310.554,6.312 h -3.07 v -31.56 h 9.469 v 31.56 h -2.857 l -1.233,5.306 h -1.076 z m 1.665,-6.312 c -0.872,0 -1.579,0.707 -1.579,1.578 0,0.871 0.707,1.578 1.579,1.578 0.871,0 1.578,-0.707 1.578,-1.578 0,-0.871 -0.707,-1.578 -1.578,-1.578 z m -164.561,6.312 h -3.07 v -31.56 h 9.469 v 31.56 h -2.858 l -1.233,5.306 h -1.075 z m 1.664,-6.312 c -0.871,0 -1.578,0.707 -1.578,1.578 0,0.871 0.707,1.578 1.578,1.578 0.871,0 1.578,-0.707 1.578,-1.578 0,-0.871 -0.707,-1.578 -1.578,-1.578 z M 96.325,43.268 h -2.018 v -31.56 h 9.469 v 31.56 h -4.961 l -1.233,5.306 h -1.076 z m 2.717,-6.312 c -0.871,0 -1.578,0.707 -1.578,1.578 0,0.871 0.707,1.578 1.578,1.578 0.871,0 1.578,-0.707 1.578,-1.578 0,-0.871 -0.707,-1.578 -1.578,-1.578 z m 133.031,6.312 h -2.018 v -31.56 h 9.469 v 31.56 h -4.962 l -1.233,5.306 h -1.075 z m 2.716,-6.312 c -0.871,0 -1.578,0.707 -1.578,1.578 0,0.871 0.707,1.578 1.578,1.578 0.871,0 1.578,-0.707 1.578,-1.578 0,-0.871 -0.707,-1.578 -1.578,-1.578 z m 309.502,6.312 h -2.018 v -31.56 h 9.469 v 31.56 h -4.962 l -1.233,5.306 h -1.075 z m 2.716,-6.312 c -0.871,0 -1.578,0.707 -1.578,1.578 0,0.871 0.707,1.578 1.578,1.578 0.872,0 1.579,-0.707 1.579,-1.578 0,-0.871 -0.707,-1.578 -1.579,-1.578 z m -165.613,6.312 h -2.018 v -31.56 h 9.469 v 31.56 h -4.961 l -1.233,5.306 h -1.076 z m 2.717,-6.312 c -0.871,0 -1.578,0.707 -1.578,1.578 0,0.871 0.707,1.578 1.578,1.578 0.871,0 1.578,-0.707 1.578,-1.578 0,-0.871 -0.707,-1.578 -1.578,-1.578 z M 58.758,43.268 h -5.175 v -31.56 h 9.469 v 31.56 h -1.805 l -0.181,5.306 h -1.075 z m -0.44,-6.312 c -0.871,0 -1.578,0.707 -1.578,1.578 0,0.871 0.707,1.578 1.578,1.578 0.871,0 1.578,-0.707 1.578,-1.578 0,-0.871 -0.707,-1.578 -1.578,-1.578 z m 136.187,6.312 h -5.175 v -31.56 h 9.469 v 31.56 h -1.805 l -0.181,5.306 h -1.075 z m -0.44,-6.312 c -0.871,0 -1.578,0.707 -1.578,1.578 0,0.871 0.707,1.578 1.578,1.578 0.871,0 1.578,-0.707 1.578,-1.578 0,-0.871 -0.707,-1.578 -1.578,-1.578 z m 312.658,6.312 h -5.174 v -31.56 h 9.469 v 31.56 h -1.806 l -0.181,5.306 h -1.075 z m -0.44,-6.312 c -0.871,0 -1.578,0.707 -1.578,1.578 0,0.871 0.707,1.578 1.578,1.578 0.871,0 1.579,-0.707 1.579,-1.578 0,-0.871 -0.708,-1.578 -1.579,-1.578 z m -162.456,6.312 h -5.175 v -31.56 h 9.469 v 31.56 h -1.805 l -0.181,5.306 h -1.075 z m -0.44,-6.312 c -0.871,0 -1.578,0.707 -1.578,1.578 0,0.871 0.707,1.578 1.578,1.578 0.871,0 1.578,-0.707 1.578,-1.578 0,-0.871 -0.707,-1.578 -1.578,-1.578 z"
   style="fill:url(#_Linear1)"
   inkscape:connector-curvature="0" />
        <rect
   style="clip-rule:evenodd;fill:#e2e3db;fill-rule:evenodd;stroke:#000000;stroke-width:3.2922821;stroke-linejoin:round;stroke-miterlimit:4;stroke-dasharray:none;stroke-opacity:1"
   id="Top-Silver-Label"
   width="497.24759"
   height="120.0171"
   x="58.79166"
   y="74.778839"
   ry="17.219872"
   transform="matrix(0.99998046,-0.00625102,0,1,0,0)" /><g
   transform="matrix(0.05869924,0,0,0.05869924,-6.3266382,-7.9751297)"
   aria-label="8-BIT SOFTWARE"
   style="font-style:normal;font-variant:normal;font-weight:normal;font-stretch:normal;font-size:573.33331299px;line-height:1;font-family:'Microgramma D Extended';-inkscape-font-specification:'Microgramma D Extended';text-align:center;letter-spacing:0px;word-spacing:0px;text-anchor:middle;clip-rule:evenodd;fill:#008dff;fill-opacity:1;fill-rule:evenodd;stroke:none;stroke-width:17.91666794;stroke-linejoin:round;stroke-miterlimit:2"
   id="8bit-Software"><path
     inkscape:connector-curvature="0"
     d="m 4470.3968,1724.2016 c -21.7867,3.44 -30.3867,5.7333 -39.56,10.32 -25.2267,12.6133 -34.9734,36.6933 -34.9734,85.4267 0,51.0266 12.6134,75.68 45.2934,90.0133 28.6666,12.04 56.1866,14.3333 178.88,14.3333 107.7866,0 134.7333,-1.72 162.2533,-8.6 46.44,-12.04 62.4933,-37.2666 62.4933,-95.7466 0,-44.1467 -7.4533,-66.5067 -27.52,-80.84 -9.7467,-7.4534 -18.92,-10.32 -47.0133,-14.9067 52.7466,-4.0133 69.9466,-24.6533 69.9466,-84.8533 0,-49.88 -12.6133,-76.2534 -44.1466,-90.5867 -24.08,-10.8933 -81.4133,-16.0533 -176.0133,-16.0533 -75.1067,0 -137.0267,4.0133 -161.1067,10.8933 -41.8533,12.04 -58.48,38.9867 -58.48,95.7467 0,60.2 17.2,80.84 69.9467,84.8533 z m 138.1733,-105.4933 c 41.8533,0 87.1467,1.72 99.76,4.0133 14.9067,2.8667 21.2133,11.4667 21.2133,29.24 0,32.68 0,32.68 -113.52,32.68 -100.3333,0 -104.92,-1.1467 -104.92,-32.68 0,-29.8133 10.32,-33.2533 97.4667,-33.2533 z m 11.4667,148.4933 c 41.28,0 87.72,1.72 95.7466,4.0133 13.76,3.44 18.3467,10.32 18.3467,29.8134 0,35.5466 -5.16,37.2666 -124.9867,37.2666 -98.6133,0 -102.6266,-1.1466 -102.6266,-34.4 0,-35.5466 2.8666,-36.6933 113.52,-36.6933 z"
     style="font-size:573.33331299px;line-height:1;text-align:center;text-anchor:middle;fill:#008dff;fill-opacity:1;stroke-width:17.91666794"
     id="path4572" /><path
     inkscape:connector-curvature="0"
     d="m 4880.4734,1743.6949 -0.5733,77.4 h 241.9466 v -77.4 z"
     style="font-size:573.33331299px;line-height:1;text-align:center;text-anchor:middle;fill:#008dff;fill-opacity:1;stroke-width:17.91666794"
     id="path4574" /><path
     inkscape:connector-curvature="0"
     d="m 5148.7217,1919.7083 h 275.2 c 128.4267,-0.5734 134.7334,-1.1467 156.52,-8.6 33.8267,-11.4667 48.16,-39.56 48.16,-94.0267 0,-61.3467 -15.48,-83.7067 -65.9333,-92.3067 38.4133,-10.8933 51.6,-33.2533 51.6,-87.72 0,-69.3733 -20.64,-93.4533 -83.1333,-98.04 -17.2,-1.1466 -17.2,-1.1466 -107.7867,-1.72 h -274.6267 z m 110.6534,-231.6267 v -60.7733 h 163.9733 c 52.7467,0.5733 54.4667,0.5733 60.7733,1.72 12.04,2.8666 17.2,11.4666 17.2,27.52 0,13.76 -4.0133,23.5066 -12.6133,26.9466 -7.4533,3.44 -24.08,4.5867 -65.36,4.5867 z m 0,139.8933 v -63.64 h 164.5466 c 67.6534,0.5734 67.6534,0.5734 73.3867,1.72 13.1867,2.8667 18.3467,10.8934 18.3467,28.6667 0,16.0533 -4.0134,24.6533 -13.76,28.6667 -8.6,4.0133 -8.6,4.0133 -77.9734,4.5866 z"
     style="font-size:573.33331299px;line-height:1;text-align:center;text-anchor:middle;fill:#008dff;fill-opacity:1;stroke-width:17.91666794"
     id="path4576" /><path
     inkscape:connector-curvature="0"
     d="m 5669.4248,1537.2949 v 382.4134 h 122.12 v -382.4134 z"
     style="font-size:573.33331299px;line-height:1;text-align:center;text-anchor:middle;fill:#008dff;fill-opacity:1;stroke-width:17.91666794"
     id="path4578" /><path
     inkscape:connector-curvature="0"
     d="m 5818.2855,1537.2949 v 97.4667 h 170.28 v 284.9467 h 122.12 v -284.9467 h 170.28 v -97.4667 z"
     style="font-size:573.33331299px;line-height:1;text-align:center;text-anchor:middle;fill:#008dff;fill-opacity:1;stroke-width:17.91666794"
     id="path4580" /><path
     inkscape:connector-curvature="0"
     d="m 3203.3212,2366.3349 v 18.3467 c 0,52.7466 8.6,75.1066 34.9733,91.7333 26.9467,17.2 73.3867,22.36 192.0667,22.36 114.0933,0 162.2533,-2.8667 185.1866,-11.4667 39.56,-14.9066 55.6134,-47.5866 55.6134,-114.0933 0,-53.32 -9.7467,-79.12 -36.12,-96.32 -24.6534,-15.48 -49.3067,-18.3467 -175.44,-22.36 -80.84,-2.2933 -112.3734,-4.0133 -122.6934,-6.88 -12.04,-2.8667 -17.2,-10.32 -17.2,-24.6533 0,-28.0934 8.0267,-30.3867 106.64,-30.3867 82.56,0 96.8934,1.1467 106.64,6.88 8.6,5.16 10.32,10.32 11.4667,31.5333 h 112.3733 c 0.5734,-7.4533 0.5734,-15.48 0.5734,-17.7733 0,-45.2933 -9.1734,-69.3733 -32.1067,-84.8533 -26.9467,-18.3467 -67.08,-23.5067 -178.3067,-23.5067 -91.7333,0 -144.48,2.2933 -166.84,6.88 -52.7466,11.4667 -73.3866,44.1467 -73.3866,116.96 0,84.28 26.3733,108.36 120.9733,111.2267 l 30.96,1.1466 61.92,2.8667 91.7333,3.44 c 37.2667,0.5733 45.8667,6.3067 45.8667,29.24 0,33.8267 0,33.8267 -124.9867,33.8267 -81.9866,0 -94.6,-1.1467 -105.4933,-8.0267 -9.1733,-5.7333 -11.4667,-13.1867 -11.4667,-36.12 z"
     style="font-size:573.33331299px;line-height:1;text-align:center;text-anchor:middle;fill:#008dff;fill-opacity:1;stroke-width:17.91666794"
     id="path4582" /><path
     inkscape:connector-curvature="0"
     d="m 3966.5891,2104.8949 c -159.96,0 -195.5067,4.0133 -224.7467,26.3733 -29.24,22.36 -37.84,61.3467 -37.84,167.9867 0,112.3733 8.0267,150.2133 37.84,173.1467 29.24,22.36 64.7867,26.3733 225.8933,26.3733 158.24,0 194.36,-4.0133 223.6,-26.3733 29.24,-22.36 37.84,-60.7734 37.84,-170.8534 0,-109.5066 -8.6,-147.92 -37.84,-170.28 -29.24,-22.36 -64.7866,-26.3733 -224.7466,-26.3733 z m 0,99.1867 c 106.64,0 119.2533,1.72 132.44,17.2 10.32,12.6133 13.76,34.4 13.76,91.16 0,46.44 -4.0134,63.0666 -17.2,73.3866 -15.48,11.4667 -34.4,13.76 -127.8534,13.76 -96.32,0 -114.6666,-1.72 -130.1466,-13.76 -13.76,-10.8933 -17.2,-26.3733 -17.2,-73.96 0,-48.7333 2.2933,-70.52 9.1733,-83.7066 11.4667,-22.36 22.36,-24.08 137.0267,-24.08 z"
     style="font-size:573.33331299px;line-height:1;text-align:center;text-anchor:middle;fill:#008dff;fill-opacity:1;stroke-width:17.91666794"
     id="path4584" /><path
     inkscape:connector-curvature="0"
     d="m 4275.2843,2110.6282 v 382.4134 h 116.3867 v -132.44 h 273.48 v -87.72 h -273.48 v -72.24 h 287.8133 v -90.0134 z"
     style="font-size:573.33331299px;line-height:1;text-align:center;text-anchor:middle;fill:#008dff;fill-opacity:1;stroke-width:17.91666794"
     id="path4586" /><path
     inkscape:connector-curvature="0"
     d="m 4679.4574,2110.6282 v 97.4667 h 170.28 v 284.9467 h 122.12 v -284.9467 h 170.28 v -97.4667 z"
     style="font-size:573.33331299px;line-height:1;text-align:center;text-anchor:middle;fill:#008dff;fill-opacity:1;stroke-width:17.91666794"
     id="path4588" /><path
     inkscape:connector-curvature="0"
     d="m 5155.7541,2110.6282 143.9066,382.4134 h 180.6 l 75.68,-280.36 76.8267,280.36 h 179.4533 l 148.4933,-382.4134 h -123.2666 l -103.2,286.0934 h -21.7867 l -87.1467,-286.0934 h -140.4666 l -86.5733,286.0934 h -21.2134 l -102.6266,-286.0934 z"
     style="font-size:573.33331299px;line-height:1;text-align:center;text-anchor:middle;fill:#008dff;fill-opacity:1;stroke-width:17.91666794"
     id="path4590" /><path
     inkscape:connector-curvature="0"
     d="m 6349.3355,2493.0416 h 132.44 l -200.0933,-382.4134 h -181.1733 l -202.3867,382.4134 h 133.0134 l 32.68,-64.7867 h 252.8399 z m -73.3866,-148.4934 h -170.8533 l 73.9599,-145.0533 h 22.9334 z"
     style="font-size:573.33331299px;line-height:1;text-align:center;text-anchor:middle;fill:#008dff;fill-opacity:1;stroke-width:17.91666794"
     id="path4592" /><path
     inkscape:connector-curvature="0"
     d="m 6499.1906,2493.0416 h 116.3866 v -96.8934 h 164.5467 c 48.16,0 56.76,1.1467 64.7866,10.32 9.1734,9.7467 11.4667,23.5067 11.4667,66.5067 v 20.0667 h 114.6667 v -35.5467 c 2.2933,-88.2933 -8.0267,-105.4933 -67.08,-112.3733 22.9333,-3.44 33.8266,-7.4534 44.72,-16.0534 20.64,-15.48 26.3733,-37.2666 26.3733,-94.0266 0,-66.5067 -8.6,-91.7334 -37.84,-109.5067 -24.6533,-14.9067 -24.6533,-14.9067 -156.52,-14.9067 h -281.5066 z m 116.3866,-192.64 v -94.0267 h 163.9733 c 52.7467,0.5733 54.4667,0.5733 62.4934,4.0133 12.04,5.16 16.6266,16.0534 16.6266,41.8534 0,24.08 -3.44,35.5466 -12.6133,41.28 -8.0267,5.7333 -8.0267,5.7333 -66.5067,6.88 z"
     style="font-size:573.33331299px;line-height:1;text-align:center;text-anchor:middle;fill:#008dff;fill-opacity:1;stroke-width:17.91666794"
     id="path4594" /><path
     inkscape:connector-curvature="0"
     d="m 7015.4144,2110.6282 v 382.4134 h 425.4134 v -91.7334 h -310.7467 v -60.7733 h 292.9733 v -84.28 h -292.9733 v -55.6133 h 308.4533 v -90.0134 z"
     style="font-size:573.33331299px;line-height:1;text-align:center;text-anchor:middle;fill:#008dff;fill-opacity:1;stroke-width:17.91666794"
     id="path4596" /></g><g
   style="clip-rule:evenodd;fill-rule:evenodd;stroke-linejoin:round;stroke-miterlimit:2"
   id="Commodore-64"
   transform="matrix(0.12454926,0,0,0.12454926,88.795176,286.30336)"><g
     id="g1056"
     transform="translate(-132.91819,-1174.4004)"><g
       id="g1020"><polygon
         style="clip-rule:evenodd;opacity:1;fill:#f20029;fill-rule:evenodd"
         id="polygon7_00000001656786455258842800000011693801996860144811_-0"
         class="st34"
         points="2114,55.5 3132,55.5 3132,83.5 2114,83.5 " /><polygon
         style="clip-rule:evenodd;opacity:1;fill:#fd7801;fill-rule:evenodd"
         class="st31"
         points="2114,116.6 3132,116.6 3132,144.7 2114,144.7 "
         id="polygon1013" /><polygon
         style="clip-rule:evenodd;opacity:1;fill:#f2f540;fill-rule:evenodd"
         class="st27"
         points="2114,177.8 3132,177.8 3132,205.7 2114,205.7 "
         id="polygon1015" /><polygon
         style="clip-rule:evenodd;opacity:1;fill:#48cc31;fill-rule:evenodd"
         class="st22"
         points="2114,238.8 3132,238.8 3132,266.9 2114,266.9 "
         id="polygon1017" /><polygon
         style="clip-rule:evenodd;opacity:1;fill:#14a3fd;fill-rule:evenodd"
         id="polygon15_00000025427389810582415990000006569259060333928854_-1"
         class="st38"
         points="2114,300 3132,300 3132,328 2114,328 " /></g><g
       id="g1040"><path
         style="opacity:1;fill:#000000"
         inkscape:connector-curvature="0"
         class="st37"
         d="m 505.9,182.6 c -1.8,-16.4 -20,-15.9 -32.8,-15.9 -7,0 -21.6,0.2 -27.2,4.9 -5.4,4.5 -5.4,16.2 -5.4,22.5 0,6.1 0.2,14.1 4.9,18.6 5.6,5.4 21.1,5.8 28.3,5.8 4.9,0 9.7,0 14.6,-0.7 9.9,-1.3 15.7,-4.3 17.3,-14.8 H 546 c -0.4,11.9 -1.1,23.4 -9.9,32.3 -9.2,9.7 -23.4,11.7 -36.2,12.4 -9.7,0.4 -19.1,0.7 -28.7,0.7 -17.3,0 -42,0.4 -56.8,-9.9 -14.4,-10.1 -13.7,-31.2 -13.7,-46.7 0,-15.3 -0.2,-33.5 12.6,-44.2 13.9,-11.7 42.9,-10.8 60,-10.8 17.1,0 46.7,-0.7 60.9,10.8 3.8,3.1 6.3,6.3 8.3,11 3.4,7.9 3.6,15.5 3.8,24 z"
         id="path1022" /><path
         style="opacity:1;fill:#000000"
         inkscape:connector-curvature="0"
         class="st37"
         d="m 714.2,211.3 c -0.9,10.3 -3.6,19.5 -11.7,26.5 -13.7,11.9 -46,10.6 -62.9,10.6 -17.5,0 -48.5,1.6 -62.9,-10.6 -4,-3.4 -6.5,-7 -8.5,-11.7 -4.5,-11 -3.8,-24.9 -3.8,-36.6 0,-5.8 0,-11.9 0.7,-17.7 0.9,-10.1 4.7,-19.1 13,-25.4 13.5,-10.3 45.6,-9.7 61.5,-9.7 16.2,0 47.8,-0.7 61.5,9.7 3.8,2.9 6.3,5.8 8.5,10.1 5.8,10.3 5.2,23.6 5.2,35 0.1,6.5 -0.1,13.3 -0.6,19.8 z m -44,-38.8 c -5.8,-5.6 -22.9,-5.8 -30.3,-5.8 -7.2,0 -14.6,0.2 -21.6,1.6 -13.9,2.7 -14.1,13.5 -14.1,25.6 0,5.8 -0.2,13.7 4,18.2 6.1,6.5 23.6,6.5 31.7,6.5 7.6,0 15.7,0 23.1,-2 12.4,-3.4 12.1,-14.6 12.1,-25.6 0,-6.1 -0.2,-14 -4.9,-18.5 z"
         id="path1024" /><path
         style="opacity:1;fill:#000000"
         inkscape:connector-curvature="0"
         class="st37"
         d="M 928.7,245.6 V 196 c 0,-22.9 -2.5,-29.4 -26.9,-29.4 -27.4,0 -29.4,10.8 -29.4,35.3 v 43.8 h -39.7 v -49.6 -7.4 c 0,-19.3 -8.3,-22 -26.3,-22 -28.3,0 -30.1,10.1 -30.1,35.3 v 43.8 H 736.6 V 139.5 h 37.5 v 15.9 h 1.8 c 7.4,-16.4 27.2,-18.6 43.1,-18.6 20.2,0 38,3.4 48.3,22.2 8.1,-19.8 26.9,-22.2 46,-22.2 15.5,0 32.8,1.8 44,13.7 3.8,4 6.7,8.3 8.3,13.7 3.1,10.3 2.9,21.3 2.9,31.9 v 49.6 z"
         id="path1026" /><path
         style="opacity:1;fill:#000000"
         inkscape:connector-curvature="0"
         class="st37"
         d="M 1183.5,245.6 V 196 c 0,-22.9 -2.5,-29.4 -26.9,-29.4 -27.4,0 -29.4,10.8 -29.4,35.3 v 43.8 h -39.7 v -49.6 -7.4 c 0,-19.3 -8.3,-22 -26.3,-22 -28.3,0 -30.1,10.1 -30.1,35.3 v 43.8 H 991.4 V 139.5 h 37.5 v 15.9 h 1.8 c 7.4,-16.4 27.2,-18.6 43.1,-18.6 20.2,0 38,3.4 48.3,22.2 8.1,-19.8 26.9,-22.2 46,-22.2 15.5,0 32.8,1.8 44,13.7 3.8,4 6.7,8.3 8.3,13.7 3.1,10.3 2.9,21.3 2.9,31.9 v 49.6 z"
         id="path1028" /><path
         style="opacity:1;fill:#000000"
         inkscape:connector-curvature="0"
         class="st37"
         d="m 1393.6,211.3 c -0.9,10.3 -3.6,19.5 -11.7,26.5 -13.7,11.9 -46,10.6 -62.9,10.6 -17.5,0 -48.5,1.6 -62.9,-10.6 -4,-3.4 -6.5,-7 -8.5,-11.7 -4.5,-11 -3.8,-24.9 -3.8,-36.6 0,-5.8 0,-11.9 0.7,-17.7 0.9,-10.1 4.7,-19.1 13,-25.4 13.5,-10.3 45.6,-9.7 61.5,-9.7 16.2,0 47.8,-0.7 61.5,9.7 3.8,2.9 6.3,5.8 8.5,10.1 5.8,10.3 5.2,23.6 5.2,35 0.1,6.5 -0.1,13.3 -0.6,19.8 z m -44,-38.8 c -5.8,-5.6 -22.9,-5.8 -30.3,-5.8 -7.2,0 -14.6,0.2 -21.6,1.6 -13.9,2.7 -14.1,13.5 -14.1,25.6 0,5.8 -0.2,13.7 4,18.2 6.1,6.5 23.6,6.5 31.7,6.5 7.6,0 15.7,0 23.1,-2 12.4,-3.4 12.1,-14.6 12.1,-25.6 0.1,-6.1 -0.2,-14 -4.9,-18.5 z"
         id="path1030" /><path
         style="opacity:1;fill:#000000"
         inkscape:connector-curvature="0"
         class="st37"
         d="m 1525.7,245.6 v -13.9 h -2 c -2.7,4.5 -4.7,7.4 -9.2,10.1 -9.9,6.1 -26.5,6.5 -37.7,6.5 -16.4,0 -38.6,0.2 -51.6,-11.2 -11.7,-10.3 -11.5,-30.8 -11.5,-45.1 0,-16.6 0.4,-36.8 15.7,-47.2 13.5,-9 32.3,-8.1 47.8,-8.1 11.7,0 24.5,-0.2 34.8,5.8 5.2,2.9 7,5.8 9.9,11 h 1.6 V 95.9 h 39.7 v 149.8 z m -4,-69 c -4.7,-10.8 -21.8,-9.9 -31.4,-9.9 -9.9,0 -29.9,-1.1 -34.8,10.1 -1.8,4.5 -2,10.3 -2,15 0,6.3 -0.2,15.9 4.5,20.9 5.4,5.8 22.7,5.8 29.9,5.8 8.1,0 18,-0.4 25.6,-2.9 10.8,-3.4 10.6,-13.7 10.6,-23.4 -0.2,-4.9 -0.4,-10.9 -2.4,-15.6 z"
         id="path1032" /><path
         style="opacity:1;fill:#000000"
         inkscape:connector-curvature="0"
         class="st37"
         d="m 1734.5,211.3 c -0.9,10.3 -3.6,19.5 -11.7,26.5 -13.7,11.9 -46,10.6 -62.9,10.6 -17.5,0 -48.5,1.6 -62.9,-10.6 -4,-3.4 -6.5,-7 -8.5,-11.7 -4.5,-11 -3.8,-24.9 -3.8,-36.6 0,-5.8 0,-11.9 0.7,-17.7 0.9,-10.1 4.7,-19.1 13,-25.4 13.5,-10.3 45.6,-9.7 61.5,-9.7 16.2,0 47.8,-0.7 61.5,9.7 3.8,2.9 6.3,5.8 8.5,10.1 5.8,10.3 5.2,23.6 5.2,35 0.1,6.5 -0.2,13.3 -0.6,19.8 z m -43.9,-38.8 c -5.8,-5.6 -22.9,-5.8 -30.3,-5.8 -7.2,0 -14.6,0.2 -21.6,1.6 -13.9,2.7 -14.1,13.5 -14.1,25.6 0,5.8 -0.2,13.7 4,18.2 6.1,6.5 23.6,6.5 31.7,6.5 7.6,0 15.7,0 23.1,-2 12.4,-3.4 12.1,-14.6 12.1,-25.6 0,-6.1 -0.2,-14 -4.9,-18.5 z"
         id="path1034" /><path
         style="opacity:1;fill:#000000"
         inkscape:connector-curvature="0"
         class="st37"
         d="m 1879.8,186.7 h -37.3 c 0,-15.7 -5.2,-20 -20.9,-20 -24.5,0 -25.2,15.5 -25.2,35 v 44 h -39.7 V 139.5 h 37.5 v 15.9 h 1.8 c 9.2,-16.4 24,-18.6 41.3,-18.6 12.4,0 27.2,1.6 35.5,11.9 7.4,9.2 7.2,22.5 7.2,33.7 0,1.4 -0.2,2.9 -0.2,4.3 z"
         id="path1036" /><path
         style="opacity:1;fill:#000000"
         inkscape:connector-curvature="0"
         class="st37"
         d="m 2038.4,201.2 h -103.7 c 0,6.1 -0.2,13 4.9,17.3 5.4,4.3 20.4,4.5 26.9,4.5 6.5,0 24.7,0.2 29,-4.5 1.8,-1.8 2.2,-4.3 2.7,-6.7 h 39.5 c -0.9,10.1 -2.9,18 -10.6,24.9 -13.7,12.4 -46.5,11.7 -63.8,11.7 -15.7,0 -42,0.2 -55,-9.9 -4,-3.1 -6.7,-6.7 -9,-11.2 -4.9,-10.3 -4.5,-23.1 -4.5,-34.1 0,-6.7 0,-13.5 0.7,-20 1.1,-10.8 4.7,-20.4 13.7,-26.9 13.9,-10.1 41.8,-9.4 58.2,-9.4 15,0 31.4,-0.4 46,3.8 23.6,7 25.2,28.5 25.2,49.9 0,3.4 0,7 -0.2,10.6 z M 1998.6,177 c 0,-4 -0.2,-7.2 -3.1,-10.3 -4.7,-5.2 -20.9,-5.2 -27.4,-5.2 -6.1,0 -12.1,0 -18,0.9 -11.2,1.6 -15.3,5.8 -15.5,17.1 h 64 z"
         id="path1038" /></g><g
       id="g1046"><path
         style="opacity:1;fill:#000000"
         inkscape:connector-curvature="0"
         class="st37"
         d="m 3381.8,148.6 c 0,-2.9 -0.3,-7 -2.9,-9.1 -2.6,-2 -6.7,-2.3 -9.6,-2.6 -15.2,-1.5 -31,-1.5 -46.4,-1.5 -14.3,0 -29.8,0 -43.8,2.6 -3.2,0.6 -6.1,1.5 -8.8,3.5 -6.7,5.3 -6.1,19.9 -6.1,27.4 v 7.6 3.2 c 3.5,-3.5 7,-6.4 11.4,-8.8 16.4,-9.3 49.1,-8.5 67.4,-8.5 19.9,0 44.1,0.3 63.1,6.4 7,2.3 12.8,5.5 18.1,10.8 11.7,11.4 12,33.3 12,48.5 0,27.7 -4.7,52.6 -35.6,58.7 -12,2.3 -24.2,3.2 -36.2,3.5 -17.5,0.3 -34.7,0.6 -52.3,0.6 -24.5,0 -70.4,1.5 -89.1,-15.5 -13.4,-12 -14.3,-35.3 -14.9,-52 -0.3,-12.8 -0.6,-26 -0.6,-38.8 0,-23.4 -2.6,-61.3 16.6,-78 18.4,-16.1 81.2,-15.2 104.2,-15.2 12.8,0 25.7,0 38.5,0.6 17.8,0.6 47.9,1.5 61.3,15.2 9.3,9.6 9.1,28.6 9.1,41.2 h -55.4 z m -16.9,59.5 c -15.8,-2.3 -32.7,-1.8 -48.8,-1.8 -11.7,0 -23.7,-0.6 -35.3,1.2 -11.4,1.8 -15.8,8.8 -15.8,19.9 0,5 1.2,11.4 4.7,15.2 5.8,6.1 38.8,4.7 46.4,4.7 10.2,0 20.1,-0.3 30.4,-0.6 7.3,-0.3 22.2,0.6 28,-5 3.5,-3.5 4.1,-9.9 4.1,-14.6 0,-10.8 -2.3,-17.3 -13.7,-19 z"
         id="path1042" /><path
         style="opacity:1;fill:#000000"
         inkscape:connector-curvature="0"
         class="st37"
         d="m 3667.9,252.5 v 36.2 h -56.4 V 252.5 H 3456.2 V 178 l 115.7,-84 h 96.1 v 114.8 h 37.7 v 43.8 h -37.8 z m -56.3,-113.2 h -12 l -90.5,61.9 v 7.6 h 102.5 z"
         id="path1044" /></g><g
       id="g1054"><path
         style="opacity:1;fill:#000000"
         inkscape:connector-curvature="0"
         class="st37"
         d="m 129.3,191.8 c 0,-34.4 28,-62.5 62.5,-62.5 11.1,0 21.4,2.9 30.5,8 V 78 C 212.6,75.4 202.4,74 191.8,74 126.7,74 74,126.7 74,191.8 c 0,65.1 52.7,117.8 117.8,117.8 10.5,0 20.7,-1.4 30.5,-4 v -59.3 c -9,5.1 -19.4,8 -30.5,8 -34.5,-0.1 -62.5,-28.2 -62.5,-62.5 z"
         id="path1048" /><polygon
         style="opacity:1;fill:#000000"
         class="st37"
         points="277.7,187.5 324.8,140.4 222.2,140.4 222.2,187.5 "
         id="polygon1050" /><polygon
         style="opacity:1;fill:#000000"
         class="st37"
         points="222.2,243.1 324.8,243.1 277.7,196 222.2,196 "
         id="polygon1052" /></g></g></g></g>
    </g>
    <defs
   id="defs10"><linearGradient
     id="_Linear1"
     x1="0"
     y1="0"
     x2="1"
     y2="0"
     gradientUnits="userSpaceOnUse"
     gradientTransform="matrix(-464.131,0,0,-464.086,567.296,12.8094)"><stop
       offset="0"
       style="stop-color:#d7c000;stop-opacity:1"
       id="stop6" /><stop
       offset="0.34"
       style="stop-color:#cfb600;stop-opacity:1"
       id="stop7" /><stop
       offset="0.62"
       style="stop-color:#ffffbf;stop-opacity:1"
       id="stop8" /><stop
       offset="0.76"
       style="stop-color:#e0ca00;stop-opacity:1"
       id="stop9" /><stop
       offset="1"
       style="stop-color:#ffef7a;stop-opacity:1"
       id="stop10" /></linearGradient></defs>
</svg>