<?xml version="1.0" encoding="UTF-8" standalone="no"?>
<!DOCTYPE svg PUBLIC "-//W3C//DTD SVG 1.1//EN" "http://www.w3.org/Graphics/SVG/1.1/DTD/svg11.dtd">
<svg width="619" height="994" viewBox="0 0 10750 17259" version="1.1" xmlns="http://www.w3.org/2000/svg" xmlns:xlink="http://www.w3.org/1999/xlink" xml:space="preserve" xmlns:serif="http://www.serif.com/" style="fill-rule:evenodd;clip-rule:evenodd;stroke-linejoin:round;stroke-miterlimit:2;">
    <rect id="White-Edge-Straight" serif:id="White Edge Straight" x="5.208" y="5.208" width="10744.8" height="17255.2" style="fill:transparent;"/>
    <path d="M10587.2,4557.25L10587.2,16785.1C10587.2,16957.6 10447.2,17097.7 10274.7,17097.7L480.538,17097.7C308.038,17097.7 167.971,16957.6 167.971,16785.1L167.971,4557.25C167.971,4384.71 308.038,4244.67 480.538,4244.67L10274.7,4244.67C10447.2,4244.67 10587.2,4384.71 10587.2,4557.25ZM6852.75,16880.6L10274.7,16880.6C10327.4,16880.6 10370.2,16837.8 10370.2,16785.1L10370.2,4557.25C10370.2,4504.5 10327.4,4461.67 10274.7,4461.67L480.538,4461.67C427.796,4461.67 384.983,4504.5 384.983,4557.25L384.983,16785.1C384.983,16837.8 427.796,16880.6 480.538,16880.6L3902.47,16880.6C3998.12,16877.4 4074.79,16798.7 4074.79,16702.3L4074.79,16064.5L6501.92,16064.5C6600.42,16064.5 6680.42,16144.5 6680.42,16243L6680.42,16702.3C6680.42,16798.7 6757.08,16877.4 6852.75,16880.6Z"/>
    <path id="TapTo-Logo---Bottom" serif:id="TapTo Logo - Bottom" d="M6419.75,16332.5L5822.42,16332.5L5822.42,16794.5L5653.29,16794.5L5653.29,16332.5L5094.75,16332.5L5094.75,16168.6L6419.75,16168.6L6419.75,16332.5ZM6419.75,16332.5L6576.25,16332.5L6576.25,16742.8C6576.25,16881.2 6469.04,16993.5 6336.79,16993.5L5292.62,16993.5L5292.62,16829.7L6295.67,16829.7C6364.21,16829.7 6419.75,16771.5 6419.75,16699.8L6419.75,16332.5ZM6430.46,16278.2L6430.46,16257.9C6463.88,16257.9 6491.04,16286.3 6491.04,16321.2L6471.54,16321.2C6471.54,16297.5 6453.08,16278.2 6430.46,16278.2ZM6514.12,16321.3C6514.12,16273 6476.58,16233.7 6430.46,16233.7L6430.46,16213.2C6487.33,16213.2 6533.62,16261.7 6533.62,16321.3L6514.12,16321.3ZM6556.75,16321.3C6556.75,16248.4 6500.08,16189.1 6430.46,16189.1L6430.46,16168.6C6510.83,16168.6 6576.25,16237.1 6576.25,16321.3L6556.75,16321.3ZM5067.5,16332.5L4508.96,16332.5L4508.96,16699.8C4508.96,16771.5 4564.54,16829.7 4633.08,16829.7L5067.5,16829.7L5067.5,16993.5L4579.29,16993.5C4447.08,16993.5 4339.83,16881.2 4339.83,16742.8L4339.83,16332.5L4178.96,16332.5L4178.96,16168.6L5067.5,16168.6L5067.5,16332.5ZM4547.79,16367.7L5067.5,16367.7L5067.5,16794.5L4898.42,16794.5L4898.42,16531.5L4716.88,16531.5L4716.88,16608C4716.88,16620.5 4726.58,16630.7 4738.54,16630.7L4869.62,16630.7L4869.62,16794.5L4649.58,16794.5C4593.33,16794.5 4547.79,16746.8 4547.79,16687.9L4547.79,16367.7ZM5094.75,16367.7L5614.5,16367.7L5614.5,16687.9C5614.5,16746.8 5568.92,16794.5 5512.71,16794.5L5292.62,16794.5L5292.62,16630.7L5423.71,16630.7C5435.67,16630.7 5445.38,16620.5 5445.38,16608L5445.38,16531.5L5263.88,16531.5L5263.88,16993.5L5094.75,16993.5L5094.75,16367.7ZM6380.96,16367.7L6380.96,16687.9C6380.96,16746.8 6335.38,16794.5 6279.17,16794.5L5963,16794.5C5906.79,16794.5 5861.21,16746.8 5861.21,16687.9L5861.21,16367.7L6380.96,16367.7ZM6211.83,16531.5L6030.33,16531.5L6030.33,16608C6030.33,16620.5 6040.04,16630.7 6052,16630.7L6190.21,16630.7C6202.17,16630.7 6211.83,16620.5 6211.83,16608L6211.83,16531.5Z" style="fill:#fff;"/>
    <path id="Header-Background" serif:id="Header Background" d="M10587.2,848.508L10587.2,3769.98C10587.2,3942.87 10446.9,4083.21 10274,4083.21L481.179,4083.21C308.317,4083.21 167.971,3942.87 167.971,3769.98L167.971,848.508L10587.2,848.508Z" style="fill:#340083;"/>
    <path id="NFC-Loading-System" serif:id="NFC Loading System" d="M6247.92,3769.39L6207.83,3769.39L6207.83,3741.96L5971.04,3741.96L5971.04,3769.39L5931,3769.39L5931,3425.16L6247.92,3425.16L6247.92,3769.39ZM6207.83,3700.94L6207.83,3466.18L5971.04,3466.18L5971.04,3700.94L6207.83,3700.94ZM6722.08,3603.73L6352.08,3603.73L6352.08,3562.5L6722.08,3562.5L6722.08,3603.73ZM7179.62,3474.43L7148.88,3487.81C7143.5,3462.53 7136.42,3442.1 7127.62,3426.49L7159.92,3412.9C7168.12,3429.55 7174.71,3450.05 7179.62,3474.43ZM7056.12,3461.72L6834.29,3461.72L6834.29,3420.47L7056.12,3420.47L7056.12,3461.72ZM7130.21,3492.71L7099.67,3505.87C7094.17,3480.75 7087.12,3460.38 7078.46,3444.78L7110.75,3431.18C7118.96,3447.83 7125.46,3468.33 7130.21,3492.71ZM7161.83,3574.08L7004.38,3574.08C7004.67,3577.66 7004.79,3583.75 7004.79,3592.36C7004.79,3683.18 6966.04,3747.83 6888.46,3786.34L6857.04,3749.78C6892.29,3736.98 6918.96,3717.59 6937.08,3691.58C6955.21,3665.58 6964.29,3634.29 6964.29,3597.72C6964.29,3587.01 6964,3579.13 6963.42,3574.08L6791.42,3574.08L6791.42,3532.85L7161.83,3532.85L7161.83,3574.08ZM7539.21,3462.17C7506.17,3502.9 7480,3531.35 7460.79,3547.55L7460.79,3728.37L7423.96,3728.37L7423.96,3577.66C7388.58,3604.86 7354.58,3625.59 7321.92,3639.86L7299.17,3606.41C7338.04,3590.66 7377.42,3566.68 7417.38,3534.51C7457.29,3502.33 7488,3469.83 7509.54,3436.98L7539.21,3462.17ZM7844,3480.89L7820.17,3516.56C7784.38,3485.5 7742.17,3463.87 7693.67,3451.68L7718.12,3414.24C7769.25,3433.26 7811.21,3455.47 7844,3480.89ZM8043.75,3527.48C7992.75,3604.93 7942.21,3660.75 7892.08,3694.93C7842,3729.12 7785.29,3755.35 7722.04,3773.63L7696.71,3732.38C7775.83,3714.85 7839.29,3686.83 7887.12,3648.33C7934.92,3609.83 7976.5,3559.67 8011.88,3497.83L8043.75,3527.48ZM8499.71,3432.52L8469.17,3445.66C8463.71,3420.4 8456.62,3400.03 8447.96,3384.58L8480.21,3370.76C8488.46,3387.4 8494.96,3407.99 8499.71,3432.52ZM8450.54,3450.8L8432.38,3459.93L8449.25,3477.1C8437.29,3550.83 8411.71,3612.24 8372.58,3661.37C8333.46,3710.49 8277.62,3750.59 8205.12,3781.65L8174.58,3743.3C8240.58,3720.26 8292.29,3689.24 8329.79,3650.22C8367.25,3611.22 8392.29,3561.46 8404.83,3500.95L8239.79,3500.95C8211.62,3542.13 8183.83,3571.79 8156.38,3589.91L8124.08,3560.71C8183.58,3520.14 8227.21,3462.17 8254.96,3386.8L8293.08,3405.99C8284.71,3425.9 8275.67,3443.89 8266,3459.93L8419.17,3459.93C8413.5,3436.3 8406.67,3417.28 8398.54,3402.87L8431.04,3389.05C8439.29,3405.68 8445.79,3426.27 8450.54,3450.8ZM8761.21,3441.65L8746.88,3483.12C8708.21,3460.22 8663.21,3446.11 8611.96,3440.76L8626.25,3398.18C8683.12,3410.37 8728.12,3424.86 8761.21,3441.65ZM8934.5,3530.61C8893.62,3597.35 8847.62,3650 8796.5,3688.58C8745.38,3727.14 8683.71,3756.39 8611.5,3776.3L8591.17,3734.17C8666.38,3716.18 8729.08,3688.35 8779.29,3650.68C8829.46,3612.99 8869.71,3563.54 8900.04,3502.29L8934.5,3530.61ZM8718.96,3556.7L8703.33,3599.95C8669.25,3575.42 8624.92,3560.03 8570.33,3553.8L8584.67,3512.33C8639.38,3522.88 8684.17,3537.68 8718.96,3556.7ZM9399.58,3748.44L9364.92,3774.51C9322.21,3714.46 9272.21,3666.39 9215.04,3630.28C9168.67,3690.02 9111.83,3740.62 9044.54,3782.1L9013.54,3749.33C9069.46,3719.15 9118.67,3679.69 9161.21,3630.94C9203.75,3582.19 9236.92,3527.12 9260.75,3465.73L9038.46,3465.73L9038.46,3426.49L9298.42,3426.04L9310.33,3438.75C9294.17,3497.17 9270.21,3550 9238.42,3597.28C9300.08,3637.71 9353.83,3688.09 9399.58,3748.44ZM9779.33,3461.72L9496.21,3461.72L9496.21,3420.47L9779.33,3420.47L9779.33,3461.72ZM9823.75,3574.08L9666.25,3574.08C9666.54,3577.66 9666.67,3583.75 9666.67,3592.36C9666.67,3683.18 9627.92,3747.83 9550.38,3786.34L9518.96,3749.78C9554.17,3736.98 9580.88,3717.59 9599,3691.58C9617.12,3665.58 9626.17,3634.29 9626.17,3597.72C9626.17,3587.01 9625.88,3579.13 9625.33,3574.08L9453.33,3574.08L9453.33,3532.85L9823.75,3532.85L9823.75,3574.08ZM10275.6,3753.33L10236.2,3770.28C10230.8,3751.25 10222.9,3730.75 10212.4,3708.75C10063.3,3724.2 9962.75,3737.14 9910.62,3747.53L9900,3703.18L9950.92,3697.38L10066.4,3396.84L10103.2,3411.56L9995.33,3691.35L10189.2,3669.51C10164.5,3621.95 10141.6,3587.4 10120.5,3565.83L10161.7,3547.55C10201.2,3598.68 10239.2,3667.28 10275.6,3753.33ZM5939.5,3278.35C5930.04,3278.35 5922.38,3270.68 5922.38,3261.23C5922.38,3251.77 5930.04,3244.12 5939.5,3244.12L10274,3244.12C10283.4,3244.12 10291.1,3251.77 10291.1,3261.23C10291.1,3270.68 10283.4,3278.35 10274,3278.35L5939.5,3278.35ZM5939.5,2628.84L6034.04,2628.84L6107.33,2915.82L6108.71,2915.82L6108.71,2628.84L6175.83,2628.84L6175.83,3108.26L6098.42,3108.26L6008,2758.28L6006.62,2758.28L6006.62,3108.26L5939.5,3108.26L5939.5,2628.84ZM6231.96,2628.84L6431.29,2628.84L6431.29,2697.33L6307.33,2697.33L6307.33,2830.89L6404.58,2830.89L6404.58,2899.38L6307.33,2899.38L6307.33,3108.26L6231.96,3108.26L6231.96,2628.84ZM6573.79,3115.12C6537.71,3115.12 6510.21,3104.85 6491.25,3084.29C6472.29,3063.75 6462.83,3034.76 6462.83,2997.31L6462.83,2739.79C6462.83,2702.35 6472.29,2673.35 6491.25,2652.81C6510.21,2632.26 6537.71,2622 6573.79,2622C6609.88,2622 6637.38,2632.26 6656.33,2652.81C6675.29,2673.35 6684.75,2702.35 6684.75,2739.79L6684.75,2790.47L6613.5,2790.47L6613.5,2735C6613.5,2705.31 6600.96,2690.49 6575.83,2690.49C6550.71,2690.49 6538.17,2705.31 6538.17,2735L6538.17,3002.8C6538.17,3032.01 6550.71,3046.63 6575.83,3046.63C6600.96,3046.63 6613.5,3032.01 6613.5,3002.8L6613.5,2929.51L6684.75,2929.51L6684.75,2997.31C6684.75,3034.76 6675.29,3063.75 6656.33,3084.29C6637.38,3104.85 6609.88,3115.12 6573.79,3115.12ZM6839.54,2628.84L6914.92,2628.84L6914.92,3039.78L7038.88,3039.78L7038.88,3108.26L6839.54,3108.26L6839.54,2628.84ZM7181.33,3115.12C7144.38,3115.12 7116.04,3104.62 7096.42,3083.61C7076.75,3062.6 7066.96,3032.93 7066.96,2994.57L7066.96,2742.53C7066.96,2704.18 7076.75,2674.5 7096.42,2653.49C7116.04,2632.5 7144.38,2622 7181.33,2622C7218.33,2622 7246.67,2632.5 7266.29,2653.49C7285.92,2674.5 7295.75,2704.18 7295.75,2742.53L7295.75,2994.57C7295.75,3032.93 7285.92,3062.6 7266.29,3083.61C7246.67,3104.62 7218.33,3115.12 7181.33,3115.12ZM7181.33,3046.63C7207.38,3046.63 7220.38,3030.87 7220.38,2999.38L7220.38,2737.74C7220.38,2706.23 7207.38,2690.49 7181.33,2690.49C7155.33,2690.49 7142.29,2706.23 7142.29,2737.74L7142.29,2999.38C7142.29,3030.87 7155.33,3046.63 7181.33,3046.63ZM7403.29,2628.84L7505.33,2628.84L7583.42,3108.26L7508.08,3108.26L7494.38,3013.08L7494.38,3014.45L7408.75,3014.45L7395.04,3108.26L7325.21,3108.26L7403.29,2628.84ZM7485.46,2949.38L7451.92,2712.4L7450.54,2712.4L7417.67,2949.38L7485.46,2949.38ZM7619.71,2628.84L7734.79,2628.84C7772.25,2628.84 7800.33,2638.89 7819.04,2658.97C7837.75,2679.06 7847.12,2708.51 7847.12,2747.33L7847.12,2989.78C7847.12,3028.6 7837.75,3058.04 7819.04,3078.12C7800.33,3098.23 7772.25,3108.26 7734.79,3108.26L7619.71,3108.26L7619.71,2628.84ZM7733.42,3039.78C7745.75,3039.78 7755.21,3036.13 7761.88,3028.82C7768.46,3021.51 7771.79,3009.64 7771.79,2993.21L7771.79,2743.91C7771.79,2727.47 7768.46,2715.59 7761.88,2708.28C7755.21,2700.99 7745.75,2697.33 7733.42,2697.33L7695.08,2697.33L7695.08,3039.78L7733.42,3039.78ZM7897.83,2628.84L7973.17,2628.84L7973.17,3108.26L7897.83,3108.26L7897.83,2628.84ZM8029.33,2628.84L8123.88,2628.84L8197.17,2915.82L8198.54,2915.82L8198.54,2628.84L8265.62,2628.84L8265.62,3108.26L8188.25,3108.26L8097.83,2758.28L8096.46,2758.28L8096.46,3108.26L8029.33,3108.26L8029.33,2628.84ZM8428.67,3115.12C8392.12,3115.12 8364.25,3104.72 8345.12,3083.96C8325.92,3063.18 8316.33,3033.39 8316.33,2994.57L8316.33,2742.53C8316.33,2703.72 8325.92,2673.93 8345.12,2653.16C8364.25,2632.38 8392.12,2622 8428.67,2622C8465.21,2622 8493.04,2632.38 8512.21,2653.16C8531.42,2673.93 8541,2703.72 8541,2742.53L8541,2783.63L8469.75,2783.63L8469.75,2737.74C8469.75,2706.23 8456.75,2690.49 8430.71,2690.49C8404.67,2690.49 8391.67,2706.23 8391.67,2737.74L8391.67,3000.05C8391.67,3031.11 8404.67,3046.63 8430.71,3046.63C8456.75,3046.63 8469.75,3031.11 8469.75,3000.05L8469.75,2906.22L8432.08,2906.22L8432.08,2837.72L8541,2837.72L8541,2994.57C8541,3033.39 8531.42,3063.18 8512.21,3083.96C8493.04,3104.72 8465.21,3115.12 8428.67,3115.12ZM8797.17,3115.12C8760.62,3115.12 8733.04,3104.72 8714.29,3083.96C8695.58,3063.18 8686.21,3033.39 8686.21,2994.57L8686.21,2967.17L8757.46,2967.17L8757.46,3000.05C8757.46,3031.11 8770.46,3046.63 8796.5,3046.63C8809.25,3046.63 8818.96,3042.87 8825.62,3035.33C8832.21,3027.8 8835.54,3015.58 8835.54,2998.68C8835.54,2978.6 8830.96,2960.9 8821.83,2945.61C8812.71,2930.31 8795.79,2911.93 8771.12,2890.47C8740.08,2863.08 8718.42,2838.3 8706.08,2816.16C8693.75,2794.01 8687.58,2769.01 8687.58,2741.16C8687.58,2703.26 8697.17,2673.93 8716.38,2653.16C8735.54,2632.38 8763.38,2622 8799.92,2622C8836,2622 8863.29,2632.38 8881.75,2653.16C8900.25,2673.93 8909.5,2703.72 8909.5,2742.53L8909.5,2762.4L8838.29,2762.4L8838.29,2737.74C8838.29,2721.3 8835.08,2709.32 8828.67,2701.79C8822.29,2694.25 8812.92,2690.49 8800.62,2690.49C8775.5,2690.49 8762.92,2705.78 8762.92,2736.37C8762.92,2753.72 8767.58,2769.93 8776.96,2785C8786.33,2800.07 8803.33,2818.33 8828,2839.79C8859.5,2867.19 8881.21,2892.07 8893.08,2914.45C8904.96,2936.83 8910.88,2963.08 8910.88,2993.21C8910.88,3032.47 8901.17,3062.6 8881.75,3083.61C8862.38,3104.62 8834.17,3115.12 8797.17,3115.12ZM9019.08,2904.17L8928,2628.84L9008.12,2628.84L9059.5,2804.86L9060.88,2804.86L9112.25,2628.84L9185.54,2628.84L9094.46,2904.17L9094.46,3108.26L9019.08,3108.26L9019.08,2904.17ZM9306.79,3115.12C9270.25,3115.12 9242.62,3104.72 9223.92,3083.96C9205.21,3063.18 9195.83,3033.39 9195.83,2994.57L9195.83,2967.17L9267.08,2967.17L9267.08,3000.05C9267.08,3031.11 9280.08,3046.63 9306.12,3046.63C9318.88,3046.63 9328.58,3042.87 9335.21,3035.33C9341.83,3027.8 9345.12,3015.58 9345.12,2998.68C9345.12,2978.6 9340.58,2960.9 9331.46,2945.61C9322.29,2930.31 9305.42,2911.93 9280.75,2890.47C9249.71,2863.08 9228,2838.3 9215.71,2816.16C9203.38,2794.01 9197.21,2769.01 9197.21,2741.16C9197.21,2703.26 9206.79,2673.93 9225.96,2653.16C9245.12,2632.38 9273,2622 9309.54,2622C9345.62,2622 9372.88,2632.38 9391.38,2653.16C9409.88,2673.93 9419.12,2703.72 9419.12,2742.53L9419.12,2762.4L9347.88,2762.4L9347.88,2737.74C9347.88,2721.3 9344.67,2709.32 9338.29,2701.79C9331.92,2694.25 9322.54,2690.49 9310.21,2690.49C9285.12,2690.49 9272.54,2705.78 9272.54,2736.37C9272.54,2753.72 9277.21,2769.93 9286.58,2785C9295.96,2800.07 9312.96,2818.33 9337.62,2839.79C9369.12,2867.19 9390.83,2892.07 9402.71,2914.45C9414.54,2936.83 9420.5,2963.08 9420.5,2993.21C9420.5,3032.47 9410.79,3062.6 9391.38,3083.61C9372,3104.62 9343.79,3115.12 9306.79,3115.12ZM9522.54,2697.33L9443.79,2697.33L9443.79,2628.84L9676.67,2628.84L9676.67,2697.33L9597.92,2697.33L9597.92,3108.26L9522.54,3108.26L9522.54,2697.33ZM9712.96,2628.84L9918.46,2628.84L9918.46,2697.33L9788.33,2697.33L9788.33,2824.03L9891.75,2824.03L9891.75,2892.52L9788.33,2892.52L9788.33,3039.78L9918.46,3039.78L9918.46,3108.26L9712.96,3108.26L9712.96,2628.84ZM9961.62,2628.84L10069.2,2628.84L10117.1,2971.98L10118.5,2971.98L10166.4,2628.84L10274,2628.84L10274,3108.26L10202.7,3108.26L10202.7,2745.28L10201.4,2745.28L10146.6,3108.26L10083.5,3108.26L10028.8,2745.28L10027.4,2745.28L10027.4,3108.26L9961.62,3108.26L9961.62,2628.84Z" style="fill:#fff;"/>
    <path id="TapTo-Logo---Top" serif:id="TapTo Logo - Top" d="M5137.71,2470.03L3891.8,2470.03L3891.8,3390.02L3539.08,3390.02L3539.08,2470.03L2374.17,2470.03L2374.17,2143.87L5137.71,2143.87L5137.71,2470.03ZM5137.71,2470.03L5464.04,2470.03L5464.04,3287.19C5464.04,3562.87 5240.42,3786.34 4964.58,3786.34L2786.86,3786.34L2786.86,3460.19L4878.83,3460.19C5021.79,3460.19 5137.71,3344.38 5137.71,3201.47L5137.71,2470.03ZM5159.96,2362.15L5159.96,2321.51C5229.62,2321.51 5286.29,2378.14 5286.29,2447.78L5245.62,2447.78C5245.62,2400.55 5207.21,2362.15 5159.96,2362.15ZM5334.5,2447.8C5334.5,2351.58 5256.21,2273.33 5159.96,2273.33L5159.96,2232.69C5278.62,2232.69 5375.17,2329.2 5375.17,2447.8L5334.5,2447.8ZM5423.38,2447.8C5423.38,2302.62 5305.21,2184.53 5159.96,2184.53L5159.96,2143.87C5327.62,2143.87 5464.04,2280.22 5464.04,2447.8L5423.38,2447.8ZM2317.35,2470.03L1152.41,2470.03L1152.41,3201.49C1152.41,3344.38 1268.3,3460.19 1411.27,3460.19L2317.35,3460.19L2317.35,3786.34L1299.12,3786.34C1023.28,3786.34 799.688,3562.87 799.688,3287.19L799.688,2470.03L464.133,2470.03L464.133,2143.87L2317.35,2143.87L2317.35,2470.03ZM1233.35,2540.22L2317.35,2540.22L2317.35,3390.02L1964.62,3390.02L1964.62,2866.39L1586.08,2866.39L1586.08,3018.73C1586.08,3043.66 1606.27,3063.84 1631.22,3063.84L1904.64,3063.84L1904.64,3390.02L1445.64,3390.02C1328.39,3390.02 1233.35,3295.03 1233.35,3177.83L1233.35,2540.22ZM2374.17,2540.22L3458.16,2540.22L3458.16,3177.83C3458.16,3295.03 3363.11,3390.02 3245.85,3390.02L2786.86,3390.02L2786.86,3063.84L3060.28,3063.84C3085.21,3063.84 3105.43,3043.66 3105.43,3018.73L3105.43,2866.39L2726.89,2866.39L2726.89,3786.34L2374.17,3786.34L2374.17,2540.22ZM5056.75,2540.22L5056.75,3177.83C5056.75,3295.03 4961.71,3390.02 4844.46,3390.02L4185.04,3390.02C4067.81,3390.02 3972.74,3295.03 3972.74,3177.83L3972.74,2540.22L5056.75,2540.22ZM4704,2866.39L4325.46,2866.39L4325.46,3018.73C4325.46,3043.66 4345.71,3063.84 4370.62,3063.84L4658.88,3063.84C4683.83,3063.84 4704,3043.66 4704,3018.73L4704,2866.39Z" style="fill:#fff;"/>
    <path id="URL-Background" serif:id="URL Background" d="M10291.1,1735.17L10291.1,1735.33C10291.1,1914.95 10145.2,2060.76 9965.62,2060.76L7595.71,2060.76C7416.08,2060.76 7270.25,1914.95 7270.25,1735.33L7270.25,1735.17C7270.25,1555.55 7416.08,1409.72 7595.71,1409.72L9965.62,1409.72C10145.2,1409.72 10291.1,1555.55 10291.1,1735.17Z" style="fill:#fff;"/>
    <path id="URL" d="M7546.83,1575.43L7595.21,1575.43L7617.62,1821.1L7618.5,1821.1L7642.25,1575.43L7697.04,1575.43L7720.79,1821.1L7721.71,1821.1L7744.08,1575.43L7787.46,1575.43L7755.04,1895.05L7692.5,1895.05L7669.67,1679.55L7668.75,1679.55L7645.92,1895.05L7579.25,1895.05L7546.83,1575.43ZM7813.04,1575.43L7863.25,1575.43L7863.25,1895.05L7813.04,1895.05L7813.04,1575.43ZM7890.67,1850.31L7983.83,1621.1L7895.25,1621.1L7895.25,1575.43L8037.71,1575.43L8037.71,1620.19L7944.54,1849.39L8037.71,1849.39L8037.71,1895.05L7890.67,1895.05L7890.67,1850.31ZM8058.25,1850.31L8151.42,1621.1L8062.83,1621.1L8062.83,1575.43L8205.29,1575.43L8205.29,1620.19L8112.12,1849.39L8205.29,1849.39L8205.29,1895.05L8058.25,1895.05L8058.25,1850.31ZM8306.21,1899.62C8281.58,1899.62 8262.67,1892.62 8249.58,1878.63C8236.5,1864.62 8229.96,1844.83 8229.96,1819.27L8229.96,1651.23C8229.96,1625.66 8236.5,1605.89 8249.58,1591.88C8262.67,1577.88 8281.58,1570.87 8306.21,1570.87C8330.88,1570.87 8349.75,1577.88 8362.83,1591.88C8375.92,1605.89 8382.46,1625.66 8382.46,1651.23L8382.46,1819.27C8382.46,1844.83 8375.92,1864.62 8362.83,1878.63C8349.75,1892.62 8330.88,1899.62 8306.21,1899.62ZM8306.21,1853.96C8323.54,1853.96 8332.25,1843.47 8332.25,1822.47L8332.25,1648.04C8332.25,1627.03 8323.54,1616.53 8306.21,1616.53C8288.88,1616.53 8280.21,1627.03 8280.21,1648.04L8280.21,1822.47C8280.21,1843.47 8288.88,1853.96 8306.21,1853.96ZM8413.54,1846.67L8461.92,1846.67L8461.92,1895.05L8413.54,1895.05L8413.54,1846.67ZM8499.38,1575.43L8576.08,1575.43C8601.04,1575.43 8619.79,1582.14 8632.25,1595.54C8644.75,1608.92 8650.96,1628.56 8650.96,1654.43L8650.96,1816.08C8650.96,1841.95 8644.75,1861.58 8632.25,1874.97C8619.79,1888.37 8601.04,1895.05 8576.08,1895.05L8499.38,1895.05L8499.38,1575.43ZM8575.17,1849.39C8583.42,1849.39 8589.71,1846.96 8594.12,1842.1C8598.54,1837.22 8600.75,1829.3 8600.75,1818.35L8600.75,1652.15C8600.75,1641.2 8598.54,1633.28 8594.12,1628.4C8589.71,1623.54 8583.42,1621.1 8575.17,1621.1L8549.58,1621.1L8549.58,1849.39L8575.17,1849.39ZM8684.79,1575.43L8821.75,1575.43L8821.75,1621.1L8735,1621.1L8735,1705.58L8803.96,1705.58L8803.96,1751.23L8735,1751.23L8735,1849.39L8821.75,1849.39L8821.75,1895.05L8684.79,1895.05L8684.79,1575.43ZM8837.29,1575.43L8887.96,1575.43L8920.83,1823.37L8921.75,1823.37L8954.67,1575.43L9000.75,1575.43L8952.38,1895.05L8885.71,1895.05L8837.29,1575.43ZM9125,1575.43L9168.33,1575.43L9042.33,1895.05L8998.96,1895.05L9125,1575.43ZM9235,1621.1L9182.5,1621.1L9182.5,1575.43L9337.79,1575.43L9337.79,1621.1L9285.25,1621.1L9285.25,1895.05L9235,1895.05L9235,1621.1ZM9379.79,1575.43L9447.83,1575.43L9499.88,1895.05L9449.67,1895.05L9440.5,1831.6L9440.5,1832.5L9383.46,1832.5L9374.29,1895.05L9327.71,1895.05L9379.79,1575.43ZM9434.58,1789.13L9412.21,1631.15L9411.29,1631.15L9389.38,1789.13L9434.58,1789.13ZM9524.08,1575.43L9598.04,1575.43C9623.04,1575.43 9641.75,1582.14 9654.21,1595.54C9666.71,1608.92 9672.96,1628.56 9672.96,1654.43L9672.96,1685.94C9672.96,1711.8 9666.71,1731.44 9654.21,1744.85C9641.75,1758.23 9623.04,1764.93 9598.04,1764.93L9574.29,1764.93L9574.29,1895.05L9524.08,1895.05L9524.08,1575.43ZM9598.04,1719.27C9606.29,1719.27 9612.46,1716.98 9616.54,1712.41C9620.67,1707.85 9622.71,1700.09 9622.71,1689.13L9622.71,1651.23C9622.71,1640.28 9620.67,1632.52 9616.54,1627.95C9612.46,1623.39 9606.29,1621.1 9598.04,1621.1L9574.29,1621.1L9574.29,1719.27L9598.04,1719.27ZM9740.54,1621.1L9688,1621.1L9688,1575.43L9843.29,1575.43L9843.29,1621.1L9790.75,1621.1L9790.75,1895.05L9740.54,1895.05L9740.54,1621.1ZM9938.25,1899.62C9913.58,1899.62 9894.71,1892.62 9881.62,1878.63C9868.54,1864.62 9862,1844.83 9862,1819.27L9862,1651.23C9862,1625.66 9868.54,1605.89 9881.62,1591.88C9894.71,1577.88 9913.58,1570.87 9938.25,1570.87C9962.92,1570.87 9981.79,1577.88 9994.88,1591.88C10008,1605.89 10014.5,1625.66 10014.5,1651.23L10014.5,1819.27C10014.5,1844.83 10008,1864.62 9994.88,1878.63C9981.79,1892.62 9962.92,1899.62 9938.25,1899.62ZM9938.25,1853.96C9955.62,1853.96 9964.29,1843.47 9964.29,1822.47L9964.29,1648.04C9964.29,1627.03 9955.62,1616.53 9938.25,1616.53C9920.92,1616.53 9912.21,1627.03 9912.21,1648.04L9912.21,1822.47C9912.21,1843.47 9920.92,1853.96 9938.25,1853.96Z"/>
    <path id="Pins-Background" serif:id="Pins Background" d="M167.971,848.508L167.971,481.179C167.971,308.317 308.317,167.971 481.179,167.971L10274,167.971C10446.9,167.971 10587.2,308.317 10587.2,481.179L10587.2,848.508L167.971,848.508Z"/>
    <path id="Pins" d="M628.525,208.471L628.525,756.408L464.133,756.408L464.133,208.471L628.525,208.471ZM546.321,646.788C531.217,646.788 518.942,659.063 518.942,674.221C518.942,689.325 531.217,701.596 546.321,701.596C561.442,701.596 573.717,689.325 573.717,674.221C573.717,659.063 561.442,646.788 546.321,646.788ZM2985.24,208.471L2985.24,756.408L2820.85,756.408L2820.85,208.471L2985.24,208.471ZM2903.04,646.788C2887.93,646.788 2875.66,659.063 2875.66,674.221C2875.66,689.325 2887.93,701.596 2903.04,701.596C2918.16,701.596 2930.43,689.325 2930.43,674.221C2930.43,659.063 2918.16,646.788 2903.04,646.788ZM8405.71,208.471L8405.71,756.408L8241.29,756.408L8241.29,208.471L8405.71,208.471ZM8323.5,646.788C8308.38,646.788 8296.12,659.063 8296.12,674.221C8296.12,689.325 8308.38,701.596 8323.5,701.596C8338.62,701.596 8350.92,689.325 8350.92,674.221C8350.92,659.063 8338.62,646.788 8323.5,646.788ZM5577.62,208.471L5577.62,756.408L5413.25,756.408L5413.25,208.471L5577.62,208.471ZM5495.42,646.788C5480.33,646.788 5468.04,659.063 5468.04,674.221C5468.04,689.325 5480.33,701.596 5495.42,701.596C5510.54,701.596 5522.83,689.325 5522.83,674.221C5522.83,659.063 5510.54,646.788 5495.42,646.788ZM1335.54,208.471L1335.54,756.408L1171.15,756.408L1171.15,208.471L1335.54,208.471ZM1253.33,646.788C1238.23,646.788 1225.95,659.063 1225.95,674.221C1225.95,689.325 1238.23,701.596 1253.33,701.596C1268.45,701.596 1280.73,689.325 1280.73,674.221C1280.73,659.063 1268.45,646.788 1253.33,646.788ZM3692.26,208.471L3692.26,756.408L3527.87,756.408L3527.87,208.471L3692.26,208.471ZM3610.05,646.788C3594.95,646.788 3582.68,659.063 3582.68,674.221C3582.68,689.325 3594.95,701.596 3610.05,701.596C3625.18,701.596 3637.47,689.325 3637.47,674.221C3637.47,659.063 3625.18,646.788 3610.05,646.788ZM9112.71,208.471L9112.71,756.408L8948.33,756.408L8948.33,208.471L9112.71,208.471ZM9030.5,646.788C9015.42,646.788 9003.12,659.063 9003.12,674.221C9003.12,689.325 9015.42,701.596 9030.5,701.596C9045.62,701.596 9057.92,689.325 9057.92,674.221C9057.92,659.063 9045.62,646.788 9030.5,646.788ZM6284.67,208.471L6284.67,756.408L6120.25,756.408L6120.25,208.471L6284.67,208.471ZM6202.46,646.788C6187.33,646.788 6175.08,659.063 6175.08,674.221C6175.08,689.325 6187.33,701.596 6202.46,701.596C6217.58,701.596 6229.83,689.325 6229.83,674.221C6229.83,659.063 6217.58,646.788 6202.46,646.788ZM2042.55,208.471L2042.55,756.408L1878.16,756.408L1878.16,208.471L2042.55,208.471ZM1960.35,646.788C1945.24,646.788 1932.97,659.063 1932.97,674.221C1932.97,689.325 1945.24,701.596 1960.35,701.596C1975.47,701.596 1987.76,689.325 1987.76,674.221C1987.76,659.063 1975.47,646.788 1960.35,646.788ZM4399.29,208.471L4399.29,756.408L4234.88,756.408L4234.88,208.471L4399.29,208.471ZM4317.08,646.788C4301.96,646.788 4289.71,659.063 4289.71,674.221C4289.71,689.325 4301.96,701.596 4317.08,701.596C4332.17,701.596 4344.46,689.325 4344.46,674.221C4344.46,659.063 4332.17,646.788 4317.08,646.788ZM9819.75,208.471L9819.75,756.408L9655.33,756.408L9655.33,208.471L9819.75,208.471ZM9737.54,646.788C9722.42,646.788 9710.12,659.063 9710.12,674.221C9710.12,689.325 9722.42,701.596 9737.54,701.596C9752.67,701.596 9764.92,689.325 9764.92,674.221C9764.92,659.063 9752.67,646.788 9737.54,646.788ZM6991.67,208.471L6991.67,756.408L6827.29,756.408L6827.29,208.471L6991.67,208.471ZM6909.46,646.788C6894.38,646.788 6882.08,659.063 6882.08,674.221C6882.08,689.325 6894.38,701.596 6909.46,701.596C6924.58,701.596 6936.88,689.325 6936.88,674.221C6936.88,659.063 6924.58,646.788 6909.46,646.788ZM2513.91,208.471L2513.91,756.408L2349.5,756.408L2349.5,208.471L2513.91,208.471ZM2431.68,646.788C2416.6,646.788 2404.3,659.063 2404.3,674.221C2404.3,689.325 2416.6,701.596 2431.68,701.596C2446.83,701.596 2459.1,689.325 2459.1,674.221C2459.1,659.063 2446.83,646.788 2431.68,646.788ZM7934.38,208.471L7934.38,756.408L7769.96,756.408L7769.96,208.471L7934.38,208.471ZM7852.17,646.788C7837.04,646.788 7824.79,659.063 7824.79,674.221C7824.79,689.325 7837.04,701.596 7852.17,701.596C7867.29,701.596 7879.54,689.325 7879.54,674.221C7879.54,659.063 7867.29,646.788 7852.17,646.788ZM4870.62,208.471L4870.62,756.408L4706.21,756.408L4706.21,208.471L4870.62,208.471ZM4788.42,646.788C4773.33,646.788 4761.04,659.063 4761.04,674.221C4761.04,689.325 4773.33,701.596 4788.42,701.596C4803.54,701.596 4815.83,689.325 4815.83,674.221C4815.83,659.063 4803.54,646.788 4788.42,646.788ZM10291.1,208.471L10291.1,756.408L10126.7,756.408L10126.7,208.471L10291.1,208.471ZM10208.9,646.788C10193.8,646.788 10181.5,659.063 10181.5,674.221C10181.5,689.325 10193.8,701.596 10208.9,701.596C10224,701.596 10236.2,689.325 10236.2,674.221C10236.2,659.063 10224,646.788 10208.9,646.788ZM7463,208.471L7463,756.408L7298.62,756.408L7298.62,208.471L7463,208.471ZM7380.79,646.788C7365.71,646.788 7353.42,659.063 7353.42,674.221C7353.42,689.325 7365.71,701.596 7380.79,701.596C7395.96,701.596 7408.21,689.325 7408.21,674.221C7408.21,659.063 7395.96,646.788 7380.79,646.788ZM1571.22,208.471L1571.22,756.408L1406.8,756.408L1406.8,208.471L1571.22,208.471ZM1489.01,646.788C1473.91,646.788 1461.62,659.063 1461.62,674.221C1461.62,689.325 1473.91,701.596 1489.01,701.596C1504.13,701.596 1516.41,689.325 1516.41,674.221C1516.41,659.063 1504.13,646.788 1489.01,646.788ZM3927.93,208.471L3927.93,756.408L3763.54,756.408L3763.54,208.471L3927.93,208.471ZM3845.73,646.788C3830.62,646.788 3818.35,659.063 3818.35,674.221C3818.35,689.325 3830.62,701.596 3845.73,701.596C3860.85,701.596 3873.12,689.325 3873.12,674.221C3873.12,659.063 3860.85,646.788 3845.73,646.788ZM9348.42,208.471L9348.42,756.408L9184,756.408L9184,208.471L9348.42,208.471ZM9266.17,646.788C9251.08,646.788 9238.79,659.063 9238.79,674.221C9238.79,689.325 9251.08,701.596 9266.17,701.596C9281.29,701.596 9293.58,689.325 9293.58,674.221C9293.58,659.063 9281.29,646.788 9266.17,646.788ZM6520.33,208.471L6520.33,756.408L6355.92,756.408L6355.92,208.471L6520.33,208.471ZM6438.12,646.788C6423.04,646.788 6410.75,659.063 6410.75,674.221C6410.75,689.325 6423.04,701.596 6438.12,701.596C6453.25,701.596 6465.54,689.325 6465.54,674.221C6465.54,659.063 6453.25,646.788 6438.12,646.788ZM2278.23,208.471L2278.23,756.408L2113.84,756.408L2113.84,208.471L2278.23,208.471ZM2196.03,646.788C2180.92,646.788 2168.65,659.063 2168.65,674.221C2168.65,689.325 2180.92,701.596 2196.03,701.596C2211.15,701.596 2223.42,689.325 2223.42,674.221C2223.42,659.063 2211.15,646.788 2196.03,646.788ZM4634.96,208.471L4634.96,756.408L4470.54,756.408L4470.54,208.471L4634.96,208.471ZM4552.75,646.788C4537.62,646.788 4525.38,659.063 4525.38,674.221C4525.38,689.325 4537.62,701.596 4552.75,701.596C4567.88,701.596 4580.12,689.325 4580.12,674.221C4580.12,659.063 4567.88,646.788 4552.75,646.788ZM10055.4,208.471L10055.4,756.408L9891,756.408L9891,208.471L10055.4,208.471ZM9973.21,646.788C9958.08,646.788 9945.83,659.063 9945.83,674.221C9945.83,689.325 9958.08,701.596 9973.21,701.596C9988.33,701.596 10000.6,689.325 10000.6,674.221C10000.6,659.063 9988.33,646.788 9973.21,646.788ZM7227.33,208.471L7227.33,756.408L7062.96,756.408L7062.96,208.471L7227.33,208.471ZM7145.12,646.788C7130.04,646.788 7117.75,659.063 7117.75,674.221C7117.75,689.325 7130.04,701.596 7145.12,701.596C7160.25,701.596 7172.54,689.325 7172.54,674.221C7172.54,659.063 7160.25,646.788 7145.12,646.788ZM2749.58,208.471L2749.58,756.408L2585.18,756.408L2585.18,208.471L2749.58,208.471ZM2667.36,646.788C2652.26,646.788 2639.98,659.063 2639.98,674.221C2639.98,689.325 2652.26,701.596 2667.36,701.596C2682.48,701.596 2694.78,689.325 2694.78,674.221C2694.78,659.063 2682.48,646.788 2667.36,646.788ZM8170.04,208.471L8170.04,756.408L8005.62,756.408L8005.62,208.471L8170.04,208.471ZM8087.83,646.788C8072.71,646.788 8060.42,659.063 8060.42,674.221C8060.42,689.325 8072.71,701.596 8087.83,701.596C8102.96,701.596 8115.21,689.325 8115.21,674.221C8115.21,659.063 8102.96,646.788 8087.83,646.788ZM5341.96,208.471L5341.96,756.408L5177.58,756.408L5177.58,208.471L5341.96,208.471ZM5259.75,646.788C5244.67,646.788 5232.38,659.063 5232.38,674.221C5232.38,689.325 5244.67,701.596 5259.75,701.596C5274.88,701.596 5287.17,689.325 5287.17,674.221C5287.17,659.063 5274.88,646.788 5259.75,646.788ZM5106.29,208.471L5106.29,756.408L4941.88,756.408L4941.88,208.471L5106.29,208.471ZM5024.08,646.788C5008.96,646.788 4996.71,659.063 4996.71,674.221C4996.71,689.325 5008.96,701.596 5024.08,701.596C5039.21,701.596 5051.5,689.325 5051.5,674.221C5051.5,659.063 5039.21,646.788 5024.08,646.788ZM7698.71,208.471L7698.71,756.408L7534.29,756.408L7534.29,208.471L7698.71,208.471ZM7616.46,646.788C7601.38,646.788 7589.08,659.063 7589.08,674.221C7589.08,689.325 7601.38,701.596 7616.46,701.596C7631.58,701.596 7643.88,689.325 7643.88,674.221C7643.88,659.063 7631.58,646.788 7616.46,646.788ZM753.108,756.388L699.808,756.388L699.808,208.471L864.2,208.471L864.2,756.388L814.583,756.388L793.179,848.508L774.513,848.508L753.108,756.388ZM781.996,646.804C766.875,646.804 754.6,659.079 754.6,674.2C754.6,689.325 766.875,701.596 781.996,701.596C797.117,701.596 809.392,689.325 809.392,674.2C809.392,659.079 797.117,646.804 781.996,646.804ZM3109.83,756.388L3056.53,756.388L3056.53,208.471L3220.92,208.471L3220.92,756.388L3171.3,756.388L3149.9,848.508L3131.23,848.508L3109.83,756.388ZM3138.72,646.804C3123.6,646.804 3111.32,659.079 3111.32,674.2C3111.32,689.325 3123.6,701.596 3138.72,701.596C3153.84,701.596 3166.11,689.325 3166.11,674.2C3166.11,659.079 3153.84,646.804 3138.72,646.804ZM8530.29,756.388L8477,756.388L8477,208.471L8641.38,208.471L8641.38,756.388L8591.79,756.388L8570.38,848.508L8551.67,848.508L8530.29,756.388ZM8559.17,646.804C8544.04,646.804 8531.75,659.079 8531.75,674.2C8531.75,689.325 8544.04,701.596 8559.17,701.596C8574.29,701.596 8586.58,689.325 8586.58,674.2C8586.58,659.079 8574.29,646.804 8559.17,646.804ZM5702.21,756.388L5648.92,756.388L5648.92,208.471L5813.33,208.471L5813.33,756.388L5763.71,756.388L5742.29,848.508L5723.62,848.508L5702.21,756.388ZM5731.12,646.804C5716,646.804 5703.71,659.079 5703.71,674.2C5703.71,689.325 5716,701.596 5731.12,701.596C5746.25,701.596 5758.5,689.325 5758.5,674.2C5758.5,659.079 5746.25,646.804 5731.12,646.804ZM1677.52,756.388L1642.48,756.388L1642.48,208.471L1806.88,208.471L1806.88,756.388L1720.75,756.388L1699.34,848.508L1680.66,848.508L1677.52,756.388ZM1724.69,646.804C1709.57,646.804 1697.29,659.079 1697.29,674.2C1697.29,689.325 1709.57,701.596 1724.69,701.596C1739.81,701.596 1752.08,689.325 1752.08,674.2C1752.08,659.079 1739.81,646.804 1724.69,646.804ZM4034.25,756.388L3999.22,756.388L3999.22,208.471L4163.61,208.471L4163.61,756.388L4077.47,756.388L4056.06,848.508L4037.4,848.508L4034.25,756.388ZM4081.41,646.804C4066.28,646.804 4054.01,659.079 4054.01,674.2C4054.01,689.325 4066.28,701.596 4081.41,701.596C4096.53,701.596 4108.8,689.325 4108.8,674.2C4108.8,659.079 4096.53,646.804 4081.41,646.804ZM9454.71,756.388L9419.67,756.388L9419.67,208.471L9584.08,208.471L9584.08,756.388L9497.92,756.388L9476.5,848.508L9457.83,848.508L9454.71,756.388ZM9501.88,646.804C9486.75,646.804 9474.46,659.079 9474.46,674.2C9474.46,689.325 9486.75,701.596 9501.88,701.596C9517,701.596 9529.29,689.325 9529.29,674.2C9529.29,659.079 9517,646.804 9501.88,646.804ZM6626.62,756.388L6591.58,756.388L6591.58,208.471L6756,208.471L6756,756.388L6669.88,756.388L6648.46,848.508L6629.79,848.508L6626.62,756.388ZM6673.79,646.804C6658.67,646.804 6646.42,659.079 6646.42,674.2C6646.42,689.325 6658.67,701.596 6673.79,701.596C6688.92,701.596 6701.21,689.325 6701.21,674.2C6701.21,659.079 6688.92,646.804 6673.79,646.804ZM1025.31,756.388L935.471,756.388L935.471,208.471L1099.86,208.471L1099.86,756.388L1068.53,756.388L1065.38,848.508L1046.72,848.508L1025.31,756.388ZM1017.68,646.804C1002.55,646.804 990.279,659.079 990.279,674.2C990.279,689.325 1002.55,701.596 1017.68,701.596C1032.8,701.596 1045.07,689.325 1045.07,674.2C1045.07,659.079 1032.8,646.804 1017.68,646.804ZM3382.03,756.388L3292.19,756.388L3292.19,208.471L3456.58,208.471L3456.58,756.388L3425.24,756.388L3422.1,848.508L3403.44,848.508L3382.03,756.388ZM3374.39,646.804C3359.27,646.804 3347,659.079 3347,674.2C3347,689.325 3359.27,701.596 3374.39,701.596C3389.51,701.596 3401.79,689.325 3401.79,674.2C3401.79,659.079 3389.51,646.804 3374.39,646.804ZM8802.5,756.388L8712.67,756.388L8712.67,208.471L8877.04,208.471L8877.04,756.388L8845.71,756.388L8842.54,848.508L8823.88,848.508L8802.5,756.388ZM8794.83,646.804C8779.71,646.804 8767.46,659.079 8767.46,674.2C8767.46,689.325 8779.71,701.596 8794.83,701.596C8809.96,701.596 8822.25,689.325 8822.25,674.2C8822.25,659.079 8809.96,646.804 8794.83,646.804ZM5974.42,756.388L5884.58,756.388L5884.58,208.471L6048.96,208.471L6048.96,756.388L6017.62,756.388L6014.5,848.508L5995.83,848.508L5974.42,756.388ZM5966.79,646.804C5951.67,646.804 5939.38,659.079 5939.38,674.2C5939.38,689.325 5951.67,701.596 5966.79,701.596C5981.92,701.596 5994.17,689.325 5994.17,674.2C5994.17,659.079 5981.92,646.804 5966.79,646.804Z" style="fill:url(#_Linear1);"/>
    <defs>
        <linearGradient id="_Linear1" x1="0" y1="0" x2="1" y2="0" gradientUnits="userSpaceOnUse" gradientTransform="matrix(-8057.83,0,0,-8057.83,9854.08,227.594)"><stop offset="0" style="stop-color:#d7c000;stop-opacity:1"/><stop offset="0.34" style="stop-color:#cfb600;stop-opacity:1"/><stop offset="0.62" style="stop-color:#ffffbf;stop-opacity:1"/><stop offset="0.76" style="stop-color:#e0ca00;stop-opacity:1"/><stop offset="1" style="stop-color:#ffef7a;stop-opacity:1"/></linearGradient>
    </defs>
</svg>
