<?xml version="1.0" encoding="UTF-8" standalone="no"?>
<svg
   width="619"
   height="994"
   viewBox="0 0 198.04802 318.04802"
   version="1.1"
   xml:space="preserve"
   style="clip-rule:evenodd;fill-rule:evenodd;stroke-linejoin:round;stroke-miterlimit:2"
   id="svg10"
   sodipodi:docname="tapto_hucard_steamVR.svg"
   inkscape:version="1.3.2 (091e20e, 2023-11-25, custom)"
   xmlns:inkscape="http://www.inkscape.org/namespaces/inkscape"
   xmlns:sodipodi="http://sodipodi.sourceforge.net/DTD/sodipodi-0.dtd"
   xmlns="http://www.w3.org/2000/svg"
   xmlns:svg="http://www.w3.org/2000/svg"
   xmlns:serif="http://www.serif.com/"><sodipodi:namedview
   id="namedview1"
   pagecolor="#505050"
   bordercolor="#eeeeee"
   borderopacity="1"
   inkscape:showpageshadow="0"
   inkscape:pageopacity="0"
   inkscape:pagecheckerboard="0"
   inkscape:deskcolor="#505050"
   inkscape:zoom="4"
   inkscape:cx="155.125"
   inkscape:cy="929.125"
   inkscape:window-width="5120"
   inkscape:window-height="1369"
   inkscape:window-x="-8"
   inkscape:window-y="331"
   inkscape:window-maximized="1"
   inkscape:current-layer="Card-Top" />
    <g
   id="Background"
   transform="scale(0.31999999)"
   style="display:none">
        <path
   id="Sticker-Rounded"
   serif:id="Sticker Rounded"
   d="m 618.9,24.756 v 944.388 c 0,13.663 -11.093,24.756 -24.756,24.756 H 24.756 C 11.093,993.9 0,982.807 0,969.144 V 24.756 C 0,11.093 11.093,0 24.756,0 H 594.144 C 607.807,0 618.9,11.093 618.9,24.756 Z" />
    </g>
    <g
   id="Card-Frame"
   serif:id="Card Frame"
   transform="scale(0.31999999)"
   style="display:inline">
        <g
   id="Artwork-Area"
   serif:id="Artwork Area"
   transform="matrix(1,0,0,1.1491912,0,-146.88243)">
            <path
   d="m 609.525,258.529 v 707.992 c 0,9.936 -8.068,18.004 -18.004,18.004 H 27.379 c -9.936,0 -18.004,-8.068 -18.004,-18.004 V 258.529 c 0,-9.936 8.068,-18.004 18.004,-18.004 h 564.142 c 9.936,0 18.004,8.068 18.004,18.004 z M 394.418,972.025 h 197.103 c 3.038,0 5.504,-2.466 5.504,-5.504 V 258.529 c 0,-3.038 -2.466,-5.504 -5.504,-5.504 H 27.379 c -3.038,0 -5.504,2.466 -5.504,5.504 v 707.992 c 0,3.038 2.466,5.504 5.504,5.504 h 197.103 c 5.51,-0.187 9.926,-4.719 9.926,-10.274 v -36.737 h 139.803 c 5.674,0 10.281,4.607 10.281,10.281 v 26.456 c 0,5.555 4.416,10.087 9.926,10.274 z"
   id="path1" />
            <path
   id="TapTo-Logo---Bottom"
   serif:id="TapTo Logo - Bottom"
   d="m 369.478,940.449 h -34.407 v 26.612 h -9.741 v -26.612 h -32.172 v -9.435 h 76.32 z m 0,0 h 9.014 v 23.638 c 0,7.974 -6.176,14.438 -13.794,14.438 h -60.142 v -9.434 h 57.774 c 3.948,0 7.148,-3.35 7.148,-7.484 z m 0.616,-3.121 v -1.175 c 1.924,0 3.489,1.638 3.489,3.652 h -1.123 c 0,-1.366 -1.062,-2.477 -2.366,-2.477 z m 4.82,2.478 c 0,-2.783 -2.162,-5.047 -4.82,-5.047 v -1.176 c 3.277,0 5.943,2.792 5.943,6.223 z m 2.455,0 c 0,-4.199 -3.264,-7.616 -7.275,-7.616 v -1.176 c 4.63,0 8.398,3.944 8.398,8.792 z m -85.78,0.643 h -32.172 v 21.159 c 0,4.133 3.2,7.483 7.149,7.483 h 25.023 v 9.434 h -28.121 c -7.617,0 -13.793,-6.464 -13.793,-14.438 v -23.638 h -9.267 v -9.435 h 51.181 z m -29.937,2.03 h 29.937 v 24.582 h -9.741 v -15.147 h -10.455 v 4.407 c 0,0.721 0.558,1.305 1.247,1.305 h 7.551 v 9.435 h -12.676 c -3.238,0 -5.863,-2.748 -5.863,-6.138 z m 31.506,0 h 29.937 v 18.444 c 0,3.39 -2.625,6.138 -5.863,6.138 h -12.676 v -9.435 h 7.55 c 0.689,0 1.248,-0.584 1.248,-1.305 v -4.407 H 302.9 v 26.611 h -9.742 z m 74.085,0 v 18.444 c 0,3.39 -2.625,6.138 -5.863,6.138 h -18.21 c -3.238,0 -5.864,-2.748 -5.864,-6.138 v -18.444 z m -9.741,9.435 h -10.454 v 4.407 c 0,0.721 0.558,1.305 1.247,1.305 h 7.96 c 0.689,0 1.247,-0.584 1.247,-1.305 z"
   style="display:inline;fill:#ffffff" />
        </g>
        <g
   id="Card-Top"
   serif:id="Card Top">
            <path
   id="path15"
   style="clip-rule:evenodd;fill-rule:evenodd;stroke-linejoin:round;stroke-miterlimit:2;display:inline;fill:#2a7fff;stroke-width:0.985151"
   inkscape:label="Header-Background"
   d="M 609.525 48.534703 L 609.525 108.83123 C 609.525 118.49576 601.44099 126.34149 591.484 126.34149 L 27.416 126.34149 C 17.45901 126.34149 9.375 118.49576 9.375 108.83123 L 9.3749997 48.534704 " />
            <path
   id="NFC-Loading-System"
   serif:id="NFC Loading System"
   d="m 406.81369,107.97912 h -1.79264 v -1.2272 h -10.59278 v 1.2272 h -1.79344 V 92.578504 h 14.17886 z m -1.79264,-3.06257 V 94.413868 h -10.59278 v 10.502682 z m 23.00697,-4.34879 h -16.55249 v -1.845469 h 16.55249 z m 20.46869,-5.78495 -1.37635,0.59808 c -0.23844,-1.130114 -0.55534,-2.044304 -0.94913,-2.742583 l 1.44391,-0.608154 c 0.36815,0.744089 0.66176,1.662161 0.88157,2.752657 z m -5.52397,-0.568549 h -9.92406 v -1.845463 h 9.92406 z m 3.31421,1.386434 -1.36623,0.588747 c -0.24544,-1.123909 -0.56233,-2.034997 -0.94992,-2.73325 l 1.44391,-0.608167 c 0.36894,0.74409 0.65943,1.662173 0.87224,2.75267 z m 1.41518,3.640446 h -7.04556 c 0.0128,0.16 0.0194,0.43261 0.0194,0.817859 0,4.06298 -1.73517,6.95544 -5.20473,8.6782 l -1.40508,-1.63575 c 1.57671,-0.57245 2.77052,-1.44003 3.58141,-2.60353 0.81088,-1.16353 1.21556,-2.56393 1.21556,-4.19967 0,-0.478459 -0.0128,-0.831089 -0.0382,-1.057109 h -7.69566 V 97.395662 H 447.702 Z m 16.8826,-5.006695 c -1.47964,1.821396 -2.64859,3.095196 -3.50841,3.819865 v 8.089439 h -1.64741 v -6.742609 c -1.58294,1.216329 -3.10452,2.144499 -4.56472,2.782949 l -1.0175,-1.49673 c 1.73827,-0.704469 3.49985,-1.777099 5.28631,-3.216348 1.7872,-1.44003 3.16121,-2.894793 4.12432,-4.364343 z m 13.63593,0.837305 -1.06565,1.596141 c -1.60233,-1.389525 -3.48898,-2.357313 -5.65988,-2.902561 l 1.09516,-1.675375 c 2.28663,0.850493 4.16395,1.844685 5.63037,2.981795 z m 8.93607,2.084691 c -2.28119,3.464898 -4.5422,5.961248 -6.78457,7.490588 -2.24158,1.53013 -4.77755,2.70375 -7.60789,3.52162 l -1.13399,-1.84548 c 3.54102,-0.78447 6.38069,-2.03808 8.51896,-3.76005 2.13907,-1.72274 3.9993,-3.966649 5.58223,-6.733287 z m 20.40032,-4.248601 -1.36622,0.587969 c -0.24545,-1.130115 -0.56235,-2.041202 -0.94993,-2.732472 l 1.44391,-0.619032 c 0.36817,0.744856 0.65865,1.666029 0.87224,2.763535 z m -2.19963,0.81786 -0.81479,0.408558 0.75653,0.768169 c -0.53671,3.297903 -1.68004,6.045912 -3.43073,8.244002 -1.75149,2.19731 -4.24862,3.99151 -7.49217,5.38105 l -1.36623,-1.71576 c 2.95307,-1.03069 5.26766,-2.41867 6.9438,-4.16392 1.67692,-1.74606 2.79616,-3.972109 3.3585,-6.678163 h -7.38497 c -1.25983,1.842345 -2.50413,3.168204 -3.73133,3.979864 l -1.4439,-1.30644 c 2.6618,-1.815949 4.61289,-4.408615 5.8533,-7.780303 l 1.70565,0.857489 c -0.37437,0.891669 -0.77826,1.69634 -1.2109,2.414012 h 6.85138 c -0.25166,-1.057095 -0.55845,-1.908368 -0.92041,-2.553037 l 1.454,-0.619056 c 0.36817,0.744867 0.65865,1.666054 0.87227,2.763535 z m 13.89768,-0.409313 -0.64002,1.855562 c -1.73128,-1.024476 -3.74452,-1.655942 -6.03815,-1.895167 l 0.64001,-1.905278 c 2.54528,0.545247 4.55852,1.193797 6.03816,1.944883 z m 7.75313,3.979864 c -1.82838,2.985668 -3.88666,5.341438 -6.17409,7.066508 -2.28663,1.72586 -5.04551,3.03461 -8.27663,3.9255 l -0.91029,-1.88509 c 3.36548,-0.80467 6.17174,-2.04973 8.41643,-3.73597 2.24548,-1.68546 4.04667,-3.898309 5.40359,-6.637758 z m -9.64365,1.167399 -0.69748,1.934769 c -1.52468,-1.097479 -3.50842,-1.785649 -5.95038,-2.064479 l 0.63923,-1.855569 c 2.44896,0.47224 4.45209,1.13399 6.00863,1.985279 z m 30.45096,8.577209 -1.55033,1.16739 c -1.91303,-2.68663 -4.1484,-4.83735 -6.70689,-6.45368 -2.07381,2.67344 -4.616,4.93755 -7.6273,6.79311 l -1.38566,-1.46643 c 2.50024,-1.34991 4.70222,-3.11539 6.60438,-5.29638 1.90295,-2.181009 3.38725,-4.644738 4.45366,-7.391175 h -9.94345 v -1.755388 l 11.62969,-0.02017 0.53283,0.568562 c -0.72313,2.613632 -1.79576,4.977162 -3.21714,7.092141 2.75889,1.80818 5.16202,4.06297 7.21021,6.76204 z m 16.98901,-12.826599 h -12.66661 v -1.845463 h 12.66661 z m 1.98683,5.02688 h -7.04556 c 0.0138,0.16 0.0194,0.43261 0.0194,0.817859 0,4.06298 -1.73438,6.95544 -5.20395,8.6782 l -1.40585,-1.63575 c 1.57672,-0.57245 2.77053,-1.44003 3.58142,-2.60353 0.81087,-1.16353 1.21632,-2.56393 1.21632,-4.19967 0,-0.478459 -0.0138,-0.831089 -0.0389,-1.057109 h -7.69488 v -1.845479 h 16.57191 z m 20.217,8.019519 -1.76391,0.75809 c -0.23922,-0.85128 -0.59497,-1.76858 -1.06644,-2.75266 -6.66728,0.69127 -11.16753,1.26992 -13.50001,1.73516 l -0.47534,-1.9845 2.2781,-0.25942 5.16512,-13.445628 1.6474,0.657856 -4.8257,12.518252 8.67355,-0.97788 c -1.10451,-2.1274 -2.12898,-3.673839 -3.07191,-4.637729 l 1.84081,-0.81789 c 1.77089,2.287409 3.46957,5.356219 5.09833,9.206349 z M 393.0162,86.010642 c -0.42253,0 -0.76583,-0.343305 -0.76583,-0.765832 0,-0.423306 0.3433,-0.766624 0.76583,-0.766624 h 193.9176 c 0.42254,0 0.76585,0.343318 0.76585,0.766624 0,0.422527 -0.34331,0.765832 -0.76585,0.765832 z m 0,-29.058307 h 4.22919 l 3.2785,12.839043 h 0.0614 V 56.952335 h 3.00354 v 21.448874 h -3.46334 l -4.04512,-15.657712 h -0.0606 v 15.657712 h -3.00354 z m 13.08526,0 h 8.91742 v 3.06413 h -5.5465 v 5.975234 h 4.35115 v 3.064119 h -4.35115 v 9.345391 h -3.37092 z m 15.29111,21.755676 c -1.61322,0 -2.84431,-0.459808 -3.69248,-1.379438 -0.84739,-0.91885 -1.27148,-2.215962 -1.27148,-3.891324 V 61.916304 c 0,-1.675374 0.42409,-2.972474 1.27148,-3.891337 0.84817,-0.919627 2.07926,-1.379425 3.69248,-1.379425 1.61402,0 2.84511,0.459798 3.69328,1.379425 0.84738,0.918863 1.27146,2.215963 1.27146,3.891337 v 2.267225 h -3.18685 v -2.481604 c 0,-1.328175 -0.56233,-1.992276 -1.68545,-1.992276 -1.12391,0 -1.68546,0.664101 -1.68546,1.992276 v 11.980766 c 0,1.307198 0.56155,1.961188 1.68546,1.961188 1.12312,0 1.68545,-0.65399 1.68545,-1.961188 v -3.278499 h 3.18685 v 3.033057 c 0,1.675362 -0.42408,2.972474 -1.27146,3.891324 -0.84817,0.91963 -2.07926,1.379438 -3.69328,1.379438 z m 11.89069,-21.755676 h 3.37014 v 18.384741 h 5.54727 v 3.064133 h -8.91741 z m 15.29111,21.755676 c -1.65439,0 -2.92121,-0.46992 -3.79967,-1.409722 -0.87845,-0.939828 -1.31809,-2.267224 -1.31809,-3.983761 V 62.039026 c 0,-1.716537 0.43964,-3.043935 1.31809,-3.983758 0.87846,-0.939822 2.14528,-1.409726 3.79967,-1.409726 1.65518,0 2.92121,0.469904 3.79968,1.409726 0.87846,0.939823 1.31808,2.267221 1.31808,3.983758 v 11.275502 c 0,1.716537 -0.43962,3.043933 -1.31808,3.983761 -0.87847,0.939802 -2.1445,1.409722 -3.79968,1.409722 z m 0,-3.064132 c 1.16431,0 1.74684,-0.705251 1.74684,-2.114972 V 61.823868 c 0,-1.408955 -0.58253,-2.114219 -1.74684,-2.114219 -1.16429,0 -1.74682,0.705264 -1.74682,2.114219 v 11.705039 c 0,1.409721 0.58253,2.114972 1.74682,2.114972 z m 9.9287,-18.691544 h 4.56628 l 3.49366,21.448874 h -3.37094 l -0.61281,-4.259489 v 0.06141 h -3.83074 l -0.61283,4.198116 h -3.12626 z m 3.67773,14.340422 -1.50216,-10.602105 h -0.0614 l -1.47032,10.602105 z m 6.00631,-14.340422 h 5.14805 c 1.67537,0 2.93131,0.449723 3.76937,1.348373 0.8373,0.89865 1.25595,2.215961 1.25595,3.952684 v 10.84677 c 0,1.736722 -0.41865,3.054021 -1.25595,3.952685 -0.83806,0.898652 -2.094,1.348362 -3.76937,1.348362 h -5.14805 z m 5.08669,18.384741 c 0.55146,0 0.97555,-0.163092 1.27147,-0.490093 0.29672,-0.326988 0.44429,-0.858269 0.44429,-1.593816 V 62.100373 c 0,-0.735535 -0.14761,-1.266814 -0.44429,-1.593815 -0.29592,-0.326989 -0.72001,-0.490093 -1.27147,-0.490093 h -1.71576 v 15.320611 z m 7.35467,-18.384741 h 3.37094 v 21.448874 h -3.37094 z m 5.88361,0 h 4.22919 l 3.27849,12.839043 h 0.0614 V 56.952335 h 3.00354 v 21.448874 h -3.46336 l -4.04511,-15.657712 h -0.0607 v 15.657712 h -3.00354 z m 17.8659,21.755676 c -1.63421,0 -2.88082,-0.465247 -3.7391,-1.394197 -0.85749,-0.929716 -1.287,-2.262551 -1.287,-3.999286 V 62.039026 c 0,-1.736735 0.42951,-3.069572 1.287,-3.9993 0.85828,-0.928935 2.10489,-1.394184 3.7391,-1.394184 1.63419,0 2.88004,0.465249 3.7383,1.394184 0.85827,0.929728 1.28703,2.262565 1.28703,3.9993 v 1.838466 h -3.18686 v -2.053624 c 0,-1.408955 -0.58253,-2.114219 -1.74683,-2.114219 -1.16428,0 -1.74683,0.705264 -1.74683,2.114219 V 73.55997 c 0,1.388757 0.58255,2.083909 1.74683,2.083909 1.1643,0 1.74683,-0.695152 1.74683,-2.083909 v -4.198128 h -1.68546 v -3.06412 h 4.87232 v 7.016806 c 0,1.736735 -0.42876,3.06957 -1.28703,3.999286 -0.85826,0.92895 -2.10411,1.394197 -3.7383,1.394197 z m 16.48647,0 c -1.63421,0 -2.87073,-0.465247 -3.70803,-1.394197 -0.8373,-0.929716 -1.25672,-2.262551 -1.25672,-3.999286 v -1.225654 h 3.18763 v 1.471096 c 0,1.388757 0.58175,2.083909 1.74603,2.083909 0.57245,0 1.00663,-0.168544 1.30256,-0.505631 0.2967,-0.3371 0.44428,-0.883894 0.44428,-1.639638 0,-0.898653 -0.20428,-1.690123 -0.61283,-2.374408 -0.40856,-0.684273 -1.16429,-1.506806 -2.26722,-2.466832 -1.38953,-1.225653 -2.35964,-2.334024 -2.91111,-3.32432 -0.55224,-0.99109 -0.82797,-2.109546 -0.82797,-3.355398 0,-1.69556 0.42951,-3.008198 1.287,-3.937926 0.85827,-0.928935 2.10489,-1.394184 3.7391,-1.394184 1.61399,0 2.83421,0.465249 3.66218,1.394184 0.82719,0.929728 1.24043,2.262565 1.24043,3.9993 v 0.888553 h -3.18686 v -1.103711 c 0,-0.734757 -0.14286,-1.271475 -0.42874,-1.608575 -0.28583,-0.337087 -0.70526,-0.505644 -1.25672,-0.505644 -1.12313,0 -1.68548,0.684299 -1.68548,2.053637 0,0.775944 0.20972,1.501393 0.62837,2.175566 0.41866,0.673422 1.17983,1.490503 2.28276,2.451306 1.40972,1.225654 2.38062,2.338671 2.9111,3.339847 0.53127,1.00041 0.79691,2.175566 0.79691,3.523162 0,1.756921 -0.43418,3.105294 -1.30177,4.045122 -0.86836,0.939802 -2.13051,1.409722 -3.7849,1.409722 z m 9.92868,-9.437814 -4.07538,-12.317862 h 3.58529 l 2.29829,7.875071 h 0.0614 l 2.2983,-7.875071 h 3.27849 l -4.0754,12.317862 v 9.131012 h -3.37094 z m 12.87089,9.437814 c -1.63499,0 -2.87073,-0.465247 -3.70802,-1.394197 -0.83807,-0.929716 -1.25673,-2.262551 -1.25673,-3.999286 v -1.225654 h 3.18686 v 1.471096 c 0,1.388757 0.58253,2.083909 1.74682,2.083909 0.57244,0 1.00661,-0.168544 1.30254,-0.505631 0.29594,-0.3371 0.44429,-0.883894 0.44429,-1.639638 0,-0.898653 -0.20429,-1.690123 -0.61284,-2.374408 -0.40854,-0.684273 -1.16429,-1.506806 -2.26799,-2.466832 -1.38876,-1.225653 -2.35965,-2.334024 -2.91111,-3.32432 -0.55147,-0.99109 -0.8272,-2.109546 -0.8272,-3.355398 0,-1.69556 0.42875,-3.008198 1.28701,-3.937926 0.85826,-0.928935 2.1041,-1.394184 3.73832,-1.394184 1.614,0 2.83499,0.465249 3.66219,1.394184 0.82719,0.929728 1.24119,2.262565 1.24119,3.9993 v 0.888553 h -3.18686 v -1.103711 c 0,-0.734757 -0.14284,-1.271475 -0.42874,-1.608575 -0.28661,-0.337087 -0.70525,-0.505644 -1.25672,-0.505644 -1.1239,0 -1.68546,0.684299 -1.68546,2.053637 0,0.775944 0.20972,1.501393 0.62835,2.175566 0.41866,0.673422 1.17983,1.490503 2.28276,2.451306 1.40973,1.225654 2.37984,2.338671 2.91111,3.339847 0.53128,1.00041 0.79691,2.175566 0.79691,3.523162 0,1.756921 -0.43419,3.105294 -1.30254,4.045122 -0.86837,0.939802 -2.12975,1.409722 -3.78414,1.409722 z m 9.65297,-18.691546 h -3.52472 v -3.06413 h 10.41957 v 3.06413 h -3.52394 v 18.384744 h -3.37091 z m 8.51895,-3.06413 h 9.19316 v 3.06413 h -5.82222 v 5.668431 h 4.62686 v 3.064132 h -4.62686 v 6.588048 h 5.82222 v 3.064133 h -9.19316 z m 11.12406,0 h 4.81095 l 2.14528,15.350918 h 0.0614 l 2.14451,-15.350918 h 4.81172 v 21.448874 h -3.18761 V 62.160955 h -0.0607 l -2.45207,16.240254 h -2.81947 l -2.45129,-16.240254 h -0.0614 v 16.240254 h -2.94137 z"
   style="fill:#ffffff;stroke-width:0.776712" />
            <path
   id="TapTo-Logo---Top"
   serif:id="TapTo Logo - Top"
   d="m 295.631,132.729 h -71.763 v 52.99 h -20.317 v -52.99 h -67.099 v -18.787 h 159.179 z m 0,0 h 18.798 v 47.068 c 0,15.879 -12.881,28.751 -28.769,28.751 H 160.223 v -18.786 h 120.498 c 8.234,0 14.91,-6.672 14.91,-14.902 z m 1.283,-6.215 v -2.34 c 4.013,0 7.277,3.262 7.277,7.273 h -2.342 c 0,-2.72 -2.214,-4.933 -4.935,-4.933 z m 10.054,4.934 c 0,-5.542 -4.51,-10.05 -10.054,-10.05 v -2.34 c 6.835,0 12.396,5.558 12.396,12.39 z m 5.119,0 c 0,-8.362 -6.808,-15.164 -15.173,-15.164 v -2.342 c 9.657,0 17.515,7.853 17.515,17.506 z m -178.908,1.281 h -67.1 v 42.132 c 0,8.229 6.675,14.901 14.91,14.901 h 52.19 v 18.786 h -58.65 c -15.888,0 -28.767,-12.872 -28.767,-28.751 V 132.729 H 26.434 v -18.787 h 106.745 z m -62.438,4.042 h 62.438 v 48.948 h -20.317 v -30.16 H 91.058 v 8.775 c 0,1.436 1.163,2.598 2.6,2.598 h 15.749 v 18.787 H 82.969 c -6.754,0 -12.228,-5.471 -12.228,-12.221 z m 65.711,0 h 62.438 v 36.727 c 0,6.75 -5.475,12.221 -12.229,12.221 h -26.438 v -18.787 h 15.749 c 1.436,0 2.601,-1.162 2.601,-2.598 v -8.775 h -21.804 v 52.989 h -20.317 z m 154.517,0 v 36.727 c 0,6.75 -5.475,12.221 -12.228,12.221 h -37.982 c -6.753,0 -12.229,-5.471 -12.229,-12.221 v -36.727 z m -20.318,18.788 h -21.804 v 8.775 c 0,1.436 1.165,2.598 2.602,2.598 h 16.602 c 1.437,0 2.6,-1.162 2.6,-2.598 z"
   style="display:none;fill:#ffffff" /><g
   id="g17"
   serif:id="Wizzo.dev/TapTo"
   inkscape:label="Wizzo.dev-TapTo"
   transform="translate(-13.998593,849.91495)"
   style="clip-rule:evenodd;fill-rule:evenodd;stroke-linejoin:round;stroke-miterlimit:2;display:inline">
                <path
   d="m 592.525,95.023 v 0.009 c 0,10.346 -8.4,18.746 -18.745,18.746 H 437.27 c -10.345,0 -18.745,-8.4 -18.745,-18.746 v -0.009 c 0,-10.346 8.4,-18.745 18.745,-18.745 h 136.51 c 10.345,0 18.745,8.399 18.745,18.745 z"
   style="fill:#000000"
   id="path16" />
                <path
   d="m 434.455,85.823 h 2.788 l 1.289,14.149 h 0.053 l 1.368,-14.149 h 3.156 l 1.368,14.149 h 0.052 l 1.289,-14.149 h 2.499 l -1.868,18.41 h -3.603 l -1.315,-12.414 h -0.053 l -1.315,12.414 h -3.84 z m 15.335,0 h 2.893 v 18.41 h -2.893 z m 4.471,15.832 5.366,-13.202 h -5.103 v -2.63 h 8.207 V 88.4 l -5.366,13.203 h 5.366 v 2.63 h -8.47 z m 9.653,0 5.366,-13.202 h -5.103 v -2.63 h 8.207 V 88.4 l -5.366,13.203 h 5.366 v 2.63 h -8.47 z m 14.283,2.841 c -1.421,0 -2.508,-0.403 -3.262,-1.21 -0.754,-0.806 -1.131,-1.946 -1.131,-3.419 v -9.678 c 0,-1.473 0.377,-2.613 1.131,-3.419 0.754,-0.807 1.841,-1.21 3.262,-1.21 1.42,0 2.507,0.403 3.261,1.21 0.754,0.806 1.131,1.946 1.131,3.419 v 9.678 c 0,1.473 -0.377,2.613 -1.131,3.419 -0.754,0.807 -1.841,1.21 -3.261,1.21 z m 0,-2.63 c 0.999,0 1.499,-0.605 1.499,-1.815 V 90.005 c 0,-1.21 -0.5,-1.815 -1.499,-1.815 -1,0 -1.5,0.605 -1.5,1.815 v 10.046 c 0,1.21 0.5,1.815 1.5,1.815 z m 6.181,-0.421 h 2.788 v 2.788 h -2.788 z m 4.945,-15.622 h 4.418 c 1.438,0 2.517,0.386 3.236,1.157 0.719,0.771 1.078,1.902 1.078,3.393 v 9.31 c 0,1.49 -0.359,2.621 -1.078,3.393 -0.719,0.771 -1.798,1.157 -3.236,1.157 h -4.418 z m 4.366,15.78 c 0.473,0 0.837,-0.14 1.091,-0.421 0.255,-0.28 0.382,-0.736 0.382,-1.368 v -9.573 c 0,-0.631 -0.127,-1.087 -0.382,-1.367 -0.254,-0.281 -0.618,-0.421 -1.091,-0.421 h -1.473 v 13.15 z m 6.312,-15.78 h 7.891 v 2.63 h -4.997 v 4.865 h 3.971 v 2.63 h -3.971 v 5.655 h 4.997 v 2.63 h -7.891 z m 8.786,0 h 2.919 l 1.894,14.281 h 0.053 l 1.893,-14.281 h 2.657 l -2.788,18.41 h -3.84 z m 16.57,0 h 2.499 l -7.26,18.41 h -2.498 z m 6.339,2.63 h -3.025 v -2.63 h 8.943 v 2.63 h -3.025 v 15.78 h -2.893 z m 8.338,-2.63 h 3.919 l 2.999,18.41 h -2.894 l -0.526,-3.656 v 0.053 h -3.288 l -0.526,3.603 h -2.682 z m 3.156,12.308 -1.288,-9.1 h -0.053 l -1.263,9.1 z m 5.156,-12.308 h 4.261 c 1.438,0 2.516,0.386 3.235,1.157 0.719,0.771 1.078,1.902 1.078,3.393 v 1.814 c 0,1.491 -0.359,2.622 -1.078,3.393 -0.719,0.772 -1.797,1.157 -3.235,1.157 h -1.368 v 7.496 h -2.893 z m 4.261,8.284 c 0.473,0 0.828,-0.131 1.065,-0.394 0.237,-0.263 0.355,-0.71 0.355,-1.341 v -2.183 c 0,-0.632 -0.118,-1.079 -0.355,-1.342 -0.237,-0.263 -0.592,-0.394 -1.065,-0.394 h -1.368 v 5.654 z m 8.206,-5.654 h -3.025 v -2.63 h 8.943 v 2.63 h -3.025 v 15.78 h -2.893 z m 11.389,16.043 c -1.42,0 -2.507,-0.403 -3.261,-1.21 -0.754,-0.806 -1.131,-1.946 -1.131,-3.419 v -9.678 c 0,-1.473 0.377,-2.613 1.131,-3.419 0.754,-0.807 1.841,-1.21 3.261,-1.21 1.421,0 2.508,0.403 3.262,1.21 0.754,0.806 1.131,1.946 1.131,3.419 v 9.678 c 0,1.473 -0.377,2.613 -1.131,3.419 -0.754,0.807 -1.841,1.21 -3.262,1.21 z m 0,-2.63 c 1,0 1.499,-0.605 1.499,-1.815 V 90.005 c 0,-1.21 -0.499,-1.815 -1.499,-1.815 -0.999,0 -1.499,0.605 -1.499,1.815 v 10.046 c 0,1.21 0.5,1.815 1.499,1.815 z"
   id="path17"
   style="fill:#ffffff" />
            </g>
            
            <path
   id="Pins-Background"
   serif:id="Pins Background"
   d="M 9.375,48.574 V 27.416 c 0,-9.957 8.084,-18.041 18.041,-18.041 h 564.068 c 9.957,0 18.041,8.084 18.041,18.041 v 21.158 z" />
            <path
   id="Pins"
   d="M 35.903,11.708 V 43.269 H 26.434 V 11.708 Z m -4.735,25.247 c -0.87,0 -1.577,0.707 -1.577,1.58 0,0.87 0.707,1.577 1.577,1.577 0.871,0 1.578,-0.707 1.578,-1.577 0,-0.873 -0.707,-1.58 -1.578,-1.58 z M 171.65,11.708 v 31.561 h -9.469 V 11.708 Z m -4.735,25.247 c -0.87,0 -1.577,0.707 -1.577,1.58 0,0.87 0.707,1.577 1.577,1.577 0.871,0 1.578,-0.707 1.578,-1.577 0,-0.873 -0.707,-1.58 -1.578,-1.58 z M 483.869,11.708 v 31.561 h -9.47 V 11.708 Z m -4.736,25.247 c -0.87,0 -1.577,0.707 -1.577,1.58 0,0.87 0.707,1.577 1.577,1.577 0.871,0 1.579,-0.707 1.579,-1.577 0,-0.873 -0.708,-1.58 -1.579,-1.58 z M 320.972,11.708 v 31.561 h -9.469 V 11.708 Z m -4.735,25.247 c -0.87,0 -1.578,0.707 -1.578,1.58 0,0.87 0.708,1.577 1.578,1.577 0.871,0 1.578,-0.707 1.578,-1.577 0,-0.873 -0.707,-1.58 -1.578,-1.58 z M 76.627,11.708 V 43.269 H 67.158 V 11.708 Z m -4.735,25.247 c -0.87,0 -1.577,0.707 -1.577,1.58 0,0.87 0.707,1.577 1.577,1.577 0.871,0 1.578,-0.707 1.578,-1.577 0,-0.873 -0.707,-1.58 -1.578,-1.58 z M 212.374,11.708 v 31.561 h -9.469 V 11.708 Z m -4.735,25.247 c -0.87,0 -1.577,0.707 -1.577,1.58 0,0.87 0.707,1.577 1.577,1.577 0.871,0 1.579,-0.707 1.579,-1.577 0,-0.873 -0.708,-1.58 -1.579,-1.58 z M 524.593,11.708 v 31.561 h -9.47 V 11.708 Z m -4.736,25.247 c -0.869,0 -1.577,0.707 -1.577,1.58 0,0.87 0.708,1.577 1.577,1.577 0.872,0 1.579,-0.707 1.579,-1.577 0,-0.873 -0.707,-1.58 -1.579,-1.58 z M 361.696,11.708 v 31.561 h -9.469 V 11.708 Z m -4.735,25.247 c -0.87,0 -1.577,0.707 -1.577,1.58 0,0.87 0.707,1.577 1.577,1.577 0.871,0 1.578,-0.707 1.578,-1.577 0,-0.873 -0.707,-1.58 -1.578,-1.58 z M 117.351,11.708 v 31.561 h -9.469 V 11.708 Z m -4.735,25.247 c -0.87,0 -1.577,0.707 -1.577,1.58 0,0.87 0.707,1.577 1.577,1.577 0.871,0 1.579,-0.707 1.579,-1.577 0,-0.873 -0.708,-1.58 -1.579,-1.58 z M 253.099,11.708 v 31.561 h -9.47 V 11.708 Z m -4.736,25.247 c -0.87,0 -1.577,0.707 -1.577,1.58 0,0.87 0.707,1.577 1.577,1.577 0.871,0 1.579,-0.707 1.579,-1.577 0,-0.873 -0.708,-1.58 -1.579,-1.58 z M 565.317,11.708 v 31.561 h -9.47 V 11.708 Z m -4.735,25.247 c -0.87,0 -1.578,0.707 -1.578,1.58 0,0.87 0.708,1.577 1.578,1.577 0.871,0 1.578,-0.707 1.578,-1.577 0,-0.873 -0.707,-1.58 -1.578,-1.58 z M 402.42,11.708 v 31.561 h -9.469 V 11.708 Z m -4.735,25.247 c -0.87,0 -1.577,0.707 -1.577,1.58 0,0.87 0.707,1.577 1.577,1.577 0.871,0 1.578,-0.707 1.578,-1.577 0,-0.873 -0.707,-1.58 -1.578,-1.58 z M 144.501,11.708 v 31.561 h -9.47 V 11.708 Z m -4.736,25.247 c -0.869,0 -1.577,0.707 -1.577,1.58 0,0.87 0.708,1.577 1.577,1.577 0.872,0 1.579,-0.707 1.579,-1.577 0,-0.873 -0.707,-1.58 -1.579,-1.58 z M 456.719,11.708 V 43.269 H 447.25 V 11.708 Z m -4.735,25.247 c -0.87,0 -1.577,0.707 -1.577,1.58 0,0.87 0.707,1.577 1.577,1.577 0.871,0 1.578,-0.707 1.578,-1.577 0,-0.873 -0.707,-1.58 -1.578,-1.58 z M 280.248,11.708 v 31.561 h -9.47 V 11.708 Z m -4.735,25.247 c -0.87,0 -1.578,0.707 -1.578,1.58 0,0.87 0.708,1.577 1.578,1.577 0.871,0 1.578,-0.707 1.578,-1.577 0,-0.873 -0.707,-1.58 -1.578,-1.58 z M 592.466,11.708 v 31.561 h -9.469 V 11.708 Z m -4.735,25.247 c -0.87,0 -1.577,0.707 -1.577,1.58 0,0.87 0.707,1.577 1.577,1.577 0.871,0 1.578,-0.707 1.578,-1.577 0,-0.873 -0.707,-1.58 -1.578,-1.58 z M 429.57,11.708 V 43.269 H 420.1 V 11.708 Z m -4.736,25.247 c -0.869,0 -1.577,0.707 -1.577,1.58 0,0.87 0.708,1.577 1.577,1.577 0.872,0 1.579,-0.707 1.579,-1.577 0,-0.873 -0.707,-1.58 -1.579,-1.58 z M 90.202,11.708 v 31.561 h -9.47 V 11.708 Z m -4.735,25.247 c -0.87,0 -1.578,0.707 -1.578,1.58 0,0.87 0.708,1.577 1.578,1.577 0.871,0 1.578,-0.707 1.578,-1.577 0,-0.873 -0.707,-1.58 -1.578,-1.58 z M 225.949,11.708 V 43.269 H 216.48 V 11.708 Z m -4.735,25.247 c -0.87,0 -1.577,0.707 -1.577,1.58 0,0.87 0.707,1.577 1.577,1.577 0.871,0 1.578,-0.707 1.578,-1.577 0,-0.873 -0.707,-1.58 -1.578,-1.58 z M 538.168,11.708 v 31.561 h -9.47 V 11.708 Z m -4.736,25.247 c -0.87,0 -1.577,0.707 -1.577,1.58 0,0.87 0.707,1.577 1.577,1.577 0.871,0 1.579,-0.707 1.579,-1.577 0,-0.873 -0.708,-1.58 -1.579,-1.58 z M 375.271,11.708 v 31.561 h -9.47 V 11.708 Z m -4.735,25.247 c -0.87,0 -1.578,0.707 -1.578,1.58 0,0.87 0.708,1.577 1.578,1.577 0.871,0 1.578,-0.707 1.578,-1.577 0,-0.873 -0.707,-1.58 -1.578,-1.58 z M 130.926,11.708 v 31.561 h -9.469 V 11.708 Z m -4.735,25.247 c -0.87,0 -1.577,0.707 -1.577,1.58 0,0.87 0.707,1.577 1.577,1.577 0.871,0 1.578,-0.707 1.578,-1.577 0,-0.873 -0.707,-1.58 -1.578,-1.58 z M 266.673,11.708 v 31.561 h -9.469 V 11.708 Z m -4.735,25.247 c -0.87,0 -1.577,0.707 -1.577,1.58 0,0.87 0.707,1.577 1.577,1.577 0.871,0 1.578,-0.707 1.578,-1.577 0,-0.873 -0.707,-1.58 -1.578,-1.58 z M 578.892,11.708 v 31.561 h -9.47 V 11.708 Z m -4.736,25.247 c -0.87,0 -1.577,0.707 -1.577,1.58 0,0.87 0.707,1.577 1.577,1.577 0.871,0 1.579,-0.707 1.579,-1.577 0,-0.873 -0.708,-1.58 -1.579,-1.58 z M 415.995,11.708 v 31.561 h -9.469 V 11.708 Z m -4.735,25.247 c -0.87,0 -1.578,0.707 -1.578,1.58 0,0.87 0.708,1.577 1.578,1.577 0.871,0 1.578,-0.707 1.578,-1.577 0,-0.873 -0.707,-1.58 -1.578,-1.58 z M 158.076,11.708 v 31.561 h -9.47 V 11.708 Z m -4.736,25.247 c -0.87,0 -1.577,0.707 -1.577,1.58 0,0.87 0.707,1.577 1.577,1.577 0.871,0 1.579,-0.707 1.579,-1.577 0,-0.873 -0.708,-1.58 -1.579,-1.58 z M 470.294,11.708 v 31.561 h -9.47 V 11.708 Z m -4.735,25.247 c -0.87,0 -1.578,0.707 -1.578,1.58 0,0.87 0.708,1.577 1.578,1.577 0.871,0 1.578,-0.707 1.578,-1.577 0,-0.873 -0.707,-1.58 -1.578,-1.58 z M 307.397,11.708 v 31.561 h -9.469 V 11.708 Z m -4.735,25.247 c -0.87,0 -1.577,0.707 -1.577,1.58 0,0.87 0.707,1.577 1.577,1.577 0.871,0 1.579,-0.707 1.579,-1.577 0,-0.873 -0.708,-1.58 -1.579,-1.58 z m -8.839,-25.247 v 31.561 h -9.47 V 11.708 Z m -4.736,25.247 c -0.87,0 -1.577,0.707 -1.577,1.58 0,0.87 0.707,1.577 1.577,1.577 0.871,0 1.579,-0.707 1.579,-1.577 0,-0.873 -0.708,-1.58 -1.579,-1.58 z M 443.145,11.708 v 31.561 h -9.47 V 11.708 Z m -4.736,25.247 c -0.87,0 -1.577,0.707 -1.577,1.58 0,0.87 0.707,1.577 1.577,1.577 0.871,0 1.579,-0.707 1.579,-1.577 0,-0.873 -0.708,-1.58 -1.579,-1.58 z m -395.33,6.313 h -3.07 v -31.56 h 9.469 v 31.56 H 46.62 l -1.233,5.306 h -1.075 z m 1.664,-6.312 c -0.871,0 -1.578,0.707 -1.578,1.578 0,0.871 0.707,1.578 1.578,1.578 0.871,0 1.578,-0.707 1.578,-1.578 0,-0.871 -0.707,-1.578 -1.578,-1.578 z m 134.083,6.312 h -3.07 v -31.56 h 9.469 v 31.56 h -2.858 l -1.233,5.306 h -1.075 z m 1.664,-6.312 c -0.871,0 -1.578,0.707 -1.578,1.578 0,0.871 0.707,1.578 1.578,1.578 0.871,0 1.578,-0.707 1.578,-1.578 0,-0.871 -0.707,-1.578 -1.578,-1.578 z m 310.554,6.312 h -3.07 v -31.56 h 9.469 v 31.56 h -2.857 l -1.233,5.306 h -1.076 z m 1.665,-6.312 c -0.872,0 -1.579,0.707 -1.579,1.578 0,0.871 0.707,1.578 1.579,1.578 0.871,0 1.578,-0.707 1.578,-1.578 0,-0.871 -0.707,-1.578 -1.578,-1.578 z m -164.561,6.312 h -3.07 v -31.56 h 9.469 v 31.56 h -2.858 l -1.233,5.306 h -1.075 z m 1.664,-6.312 c -0.871,0 -1.578,0.707 -1.578,1.578 0,0.871 0.707,1.578 1.578,1.578 0.871,0 1.578,-0.707 1.578,-1.578 0,-0.871 -0.707,-1.578 -1.578,-1.578 z M 96.325,43.268 h -2.018 v -31.56 h 9.469 v 31.56 h -4.961 l -1.233,5.306 h -1.076 z m 2.717,-6.312 c -0.871,0 -1.578,0.707 -1.578,1.578 0,0.871 0.707,1.578 1.578,1.578 0.871,0 1.578,-0.707 1.578,-1.578 0,-0.871 -0.707,-1.578 -1.578,-1.578 z m 133.031,6.312 h -2.018 v -31.56 h 9.469 v 31.56 h -4.962 l -1.233,5.306 h -1.075 z m 2.716,-6.312 c -0.871,0 -1.578,0.707 -1.578,1.578 0,0.871 0.707,1.578 1.578,1.578 0.871,0 1.578,-0.707 1.578,-1.578 0,-0.871 -0.707,-1.578 -1.578,-1.578 z m 309.502,6.312 h -2.018 v -31.56 h 9.469 v 31.56 h -4.962 l -1.233,5.306 h -1.075 z m 2.716,-6.312 c -0.871,0 -1.578,0.707 -1.578,1.578 0,0.871 0.707,1.578 1.578,1.578 0.872,0 1.579,-0.707 1.579,-1.578 0,-0.871 -0.707,-1.578 -1.579,-1.578 z m -165.613,6.312 h -2.018 v -31.56 h 9.469 v 31.56 h -4.961 l -1.233,5.306 h -1.076 z m 2.717,-6.312 c -0.871,0 -1.578,0.707 -1.578,1.578 0,0.871 0.707,1.578 1.578,1.578 0.871,0 1.578,-0.707 1.578,-1.578 0,-0.871 -0.707,-1.578 -1.578,-1.578 z M 58.758,43.268 h -5.175 v -31.56 h 9.469 v 31.56 h -1.805 l -0.181,5.306 h -1.075 z m -0.44,-6.312 c -0.871,0 -1.578,0.707 -1.578,1.578 0,0.871 0.707,1.578 1.578,1.578 0.871,0 1.578,-0.707 1.578,-1.578 0,-0.871 -0.707,-1.578 -1.578,-1.578 z m 136.187,6.312 h -5.175 v -31.56 h 9.469 v 31.56 h -1.805 l -0.181,5.306 h -1.075 z m -0.44,-6.312 c -0.871,0 -1.578,0.707 -1.578,1.578 0,0.871 0.707,1.578 1.578,1.578 0.871,0 1.578,-0.707 1.578,-1.578 0,-0.871 -0.707,-1.578 -1.578,-1.578 z m 312.658,6.312 h -5.174 v -31.56 h 9.469 v 31.56 h -1.806 l -0.181,5.306 h -1.075 z m -0.44,-6.312 c -0.871,0 -1.578,0.707 -1.578,1.578 0,0.871 0.707,1.578 1.578,1.578 0.871,0 1.579,-0.707 1.579,-1.578 0,-0.871 -0.708,-1.578 -1.579,-1.578 z m -162.456,6.312 h -5.175 v -31.56 h 9.469 v 31.56 h -1.805 l -0.181,5.306 h -1.075 z m -0.44,-6.312 c -0.871,0 -1.578,0.707 -1.578,1.578 0,0.871 0.707,1.578 1.578,1.578 0.871,0 1.578,-0.707 1.578,-1.578 0,-0.871 -0.707,-1.578 -1.578,-1.578 z"
   style="fill:url(#_Linear1)" />
        <g
   id="g1"
   transform="matrix(0.72216363,0,0,0.72216363,31.002141,54.181596)"
   inkscape:label="SteamLogo"><path
     d="M 45.084,1 C 21.846,1 2.809,18.918 1,41.689 l 23.71,9.803 c 2.009,-1.374 4.436,-2.179 7.047,-2.179 0.234,0 0.467,0.01 0.698,0.021 L 42.999,34.051 c 0,-0.073 0,-0.144 0,-0.216 0,-9.199 7.483,-16.683 16.683,-16.683 9.199,0 16.682,7.484 16.682,16.683 0,9.199 -7.483,16.684 -16.682,16.684 -0.127,0 -0.253,0 -0.379,-0.01 l -15.038,10.73 c 0.01,0.195 0.015,0.394 0.015,0.592 0,6.906 -5.617,12.522 -12.522,12.522 -6.061,0 -11.129,-4.326 -12.277,-10.055 L 2.524,57.292 c 5.25,18.568 22.309,32.181 42.56,32.181 24.432,0 44.237,-19.806 44.237,-44.235 C 89.321,20.805 69.515,1 45.084,1"
     id="path1-8"
     style="fill:#ffffff" /><path
     d="m 28.721,68.122 -5.434,-2.245 c 0.963,2.005 2.629,3.684 4.841,4.606 4.782,1.992 10.295,-0.277 12.288,-5.063 0.965,-2.314 0.971,-4.869 0.014,-7.189 C 39.475,55.91 37.673,54.1 35.356,53.134 33.057,52.177 30.594,52.212 28.43,53.029 l 5.613,2.321 c 3.527,1.47 5.195,5.52 3.725,9.047 -1.467,3.528 -5.52,5.196 -9.047,3.725"
     id="path2-2"
     style="fill:#ffffff" /><path
     d="m 70.796,33.835 c 0,-6.129 -4.986,-11.116 -11.116,-11.116 -6.129,0 -11.116,4.987 -11.116,11.116 0,6.13 4.987,11.115 11.116,11.115 6.13,0 11.116,-4.986 11.116,-11.115 M 51.348,33.816 c 0,-4.612 3.739,-8.35 8.351,-8.35 4.612,0 8.351,3.738 8.351,8.35 0,4.612 -3.739,8.35 -8.351,8.35 -4.612,0 -8.351,-3.739 -8.351,-8.35"
     id="path3-5"
     style="fill:#ffffff" /><path
     d="m 136.564,31.267 -2.964,5.21 c -2.283,-1.595 -5.377,-2.555 -8.078,-2.555 -3.087,0 -4.997,1.278 -4.997,3.567 0,2.781 3.393,3.428 8.436,5.238 5.421,1.917 8.537,4.17 8.537,9.135 0,6.793 -5.342,10.608 -13.02,10.608 -3.742,0 -8.256,-0.966 -11.726,-3.077 l 2.162,-5.776 c 2.819,1.489 6.191,2.372 9.197,2.372 4.052,0 5.978,-1.495 5.978,-3.705 0,-2.529 -2.937,-3.289 -7.678,-4.859 -5.403,-1.804 -9.147,-4.171 -9.147,-9.666 0,-6.197 4.963,-9.756 12.104,-9.756 4.977,0 8.977,1.577 11.196,3.264"
     id="path4"
     style="fill:#ffffff" /><path
     d="M 152.755,61.899 V 34.56 h -10.13 v -5.986 h 27.209 v 5.986 h -10.1 v 27.339 z"
     id="path5"
     style="fill:#ffffff" /><path
     d="m 197.902,42.051 v 5.986 h -13.356 v 7.821 h 15.496 v 6.041 H 177.569 V 28.574 h 22.473 v 5.968 h -15.496 v 7.509 z"
     id="path6"
     style="fill:#ffffff" /><path
     d="m 215.619,55.429 -2.206,6.471 h -7.316 l 12.495,-33.325 h 7.025 l 12.848,33.324 h -7.563 l -2.254,-6.471 h -13.029 z m 6.446,-18.905 -4.551,13.343 h 9.196 z"
     id="path7"
     style="fill:#ffffff" /><path
     d="m 261.224,60.928 -8.972,-19.299 v 20.27 h -6.683 V 28.574 h 6.668 l 11.2,24.056 10.802,-24.056 h 6.726 v 33.325 h -6.682 V 41.455 l -9.12,19.473 z"
     id="path8"
     style="fill:#ffffff" /><path
     d="m 294.457,32.778 c 0,2.864 -2.146,4.649 -4.609,4.649 -2.472,0 -4.623,-1.785 -4.623,-4.649 0,-2.863 2.151,-4.636 4.623,-4.636 2.464,0 4.609,1.773 4.609,4.636 m -8.457,0 c 0,2.396 1.726,3.901 3.848,3.901 2.114,0 3.833,-1.505 3.833,-3.901 0,-2.403 -1.719,-3.885 -3.833,-3.885 -2.116,0 -3.848,1.5 -3.848,3.885 m 3.912,-2.369 c 1.195,0 1.597,0.632 1.597,1.315 0,0.626 -0.371,1.046 -0.823,1.26 l 1.071,2.007 h -0.877 l -0.903,-1.779 h -0.931 v 1.779 h -0.73 v -4.582 z m -0.859,2.132 h 0.814 c 0.527,0 0.838,-0.331 0.838,-0.747 0,-0.42 -0.223,-0.69 -0.84,-0.69 h -0.813 v 1.437 z"
     id="path9"
     style="display:inline;fill:#ffffff" /></g><g
   id="g18"
   inkscape:label="VR"
   transform="translate(-30.996884,13.998593)"><rect
     style="clip-rule:evenodd;display:inline;fill:#ffffff;fill-rule:evenodd;stroke-width:0.9999;stroke-linejoin:round;stroke-miterlimit:2"
     id="rect19"
     width="106.76238"
     height="66.461357"
     x="72.805832"
     y="867.17932"
     inkscape:label="fuller"
     transform="translate(1.999799)" /><g
     style="clip-rule:evenodd;display:inline;fill:currentColor;fill-rule:evenodd;stroke-linejoin:round;stroke-miterlimit:2"
     id="g19"
     transform="matrix(8.3324957,0,0,8.3324957,60.225097,833.49955)"
     inkscape:label="VR"><path
       d="m 9.673,5.933 v 1.938 h 1.033 c 0.66,0 1.068,-0.316 1.068,-0.95 0,-0.64 -0.422,-0.988 -1.05,-0.988 h -1.05 z"
       id="path1-3" /><path
       d="M 0,4 A 2,2 0 0 1 2,2 h 12 a 2,2 0 0 1 2,2 v 8 a 2,2 0 0 1 -2,2 H 2 A 2,2 0 0 1 0,12 Z m 5.937,7 1.99,-5.999 H 6.61 L 5.277,9.708 H 5.22 L 3.875,5.001 H 2.5 L 4.508,11 Z M 8.5,5.001 V 11 H 9.673 V 8.763 h 1.064 L 11.787,11 h 1.327 L 11.91,8.583 C 12.455,8.373 13,7.779 13,6.9 13,5.753 12.227,5 10.895,5 H 8.5 Z"
       id="path2" /></g></g></g>
    </g>
    <defs
   id="defs10"><rect
     x="89.802561"
     y="867.62002"
     width="70.710678"
     height="65.053824"
     id="rect18" /><rect
     x="59.5"
     y="908"
     width="81"
     height="29"
     id="rect15" /><linearGradient
     id="_Linear1"
     x1="0"
     y1="0"
     x2="1"
     y2="0"
     gradientUnits="userSpaceOnUse"
     gradientTransform="matrix(-464.131,0,0,-464.086,567.296,12.8094)"><stop
       offset="0"
       style="stop-color:#d7c000;stop-opacity:1"
       id="stop6" /><stop
       offset="0.34"
       style="stop-color:#cfb600;stop-opacity:1"
       id="stop7" /><stop
       offset="0.62"
       style="stop-color:#ffffbf;stop-opacity:1"
       id="stop8" /><stop
       offset="0.76"
       style="stop-color:#e0ca00;stop-opacity:1"
       id="stop9" /><stop
       offset="1"
       style="stop-color:#ffef7a;stop-opacity:1"
       id="stop10" /></linearGradient></defs>
<style
   type="text/css"
   id="style1">
	.st0{fill:none;stroke:#FFFFFF;stroke-width:1.25;stroke-linecap:round;stroke-linejoin:round;stroke-miterlimit:10;}
	.st1{fill:none;stroke:#FFFFFF;stroke-width:1.3692;stroke-linecap:round;stroke-linejoin:round;stroke-miterlimit:10;}
	.st2{fill:none;stroke:#FFFFFF;stroke-linecap:round;stroke-linejoin:round;stroke-miterlimit:10;}
	.st3{display:none;fill:none;stroke:#EC1C24;stroke-width:0.5;stroke-miterlimit:10;}
</style></svg>
