<?xml version="1.0" encoding="UTF-8" standalone="no"?>
<svg
   width="618.6"
   height="994"
   version="1.1"
   id="svg2"
   xmlns="http://www.w3.org/2000/svg"
   xmlns:svg="http://www.w3.org/2000/svg">
  <path
     id="path2-3"
     style="fill:#666666;stroke-width:0"
     d="M 24.30078,0.09961 C 10.3008,0.29961 0,11.09962 0,24.09961 V 970 c 0,11.8 11.50001,24 23,24 h 164 c 0,-6.8 6.30001,-12.1992 14,-12.1992 7.59999,0 13.80078,5.3996 13.80078,12.0996 v 0.1992 h 179.5 v -0.1992 c 0,-6.7 6.19884,-12.0996 13.79883,-12.0996 7.69999,0 13.90039,5.3996 13.90039,12.0996 v 0.1992 h 172.8008 c 13.4,0 23.6992,-12.8988 23.6992,-24.2988 V 273.40039 h -25.0996 c -1.8946,7.7e-4 -3.4459,-1.50656 -3.5,-3.40039 v -37.69922 c 0,-1.9 1.6,-3.40039 3.5,-3.40039 H 618.5 V 25.09961 c 10e-5,-13.84626 -11.2534,-25.05539 -25.0996,-25 z M 37,12.59961 v 0.0996 h 519.9004 c 10.3,0 18.5996,9.40001 18.5996,21 v 274.20117 c 0,11.69999 -8.2996,21.09961 -18.5996,21.09961 H 37 c -10.19999,0 -18.5,-9.40001 -18.5,-21 V 33.69922 C 18.5,21.99923 26.80001,12.59961 37,12.59961 Z m 270.30078,335.5 c 84.49992,0 152.79883,68.20047 152.79883,152.40039 0,84.09992 -68.29891,152.30078 -152.79883,152.30078 -84.23967,0.1659 -152.67974,-67.96162 -152.90039,-152.20117 0,-84.19992 68.50009,-152.40039 153,-152.40039 z M 497.3008,517.90039 c 12.1,0 22,9.90001 22,22 0,12.15025 -9.8497,22 -22,22 -12.1503,0 -22,-9.84975 -22,-22 0,-12.15025 9.8497,-22 22,-22 z M 280.52148,678.50781 v 2.35938 c -8.41928,0 -15.26757,6.86256 -15.26757,15.29687 h -2.35938 c 0,-9.73629 7.90785,-17.65625 17.62695,-17.65625 z m 1.29102,0 h 47.39063 c 15.98812,0 28.94726,12.98285 28.94726,28.99999 V 833.959 H 339.23633 V 712.4863 c 0,-8.301 -6.71689,-15.02927 -15.00391,-15.02927 H 281.8125 v 72.34377 h 53.35352 v 20.4805 H 281.8125 v 67.6425 H 262.89453 V 697.45703 h 18.91797 z m -1.29102,5.15821 v 2.36328 c -5.57988,0 -10.11718,4.54629 -10.11718,10.13476 h -2.35742 c 0,-6.89152 5.59598,-12.49804 12.4746,-12.49804 z m -0.002,5.16015 v 2.36133 c -2.73834,0 -4.96484,2.23287 -4.96484,4.97656 h -2.35742 c 0,-4.04674 3.28411,-7.33789 7.32226,-7.33789 z m 5.36328,13.33008 h 36.97852 c 6.79691,0 12.30469,5.51845 12.30469,12.32615 v 38.2891 c 0,6.8087 -5.50778,12.3281 -12.30469,12.3281 h -36.97852 z m 18.91407,20.48245 v 21.9804 h 8.83789 c 1.44494,0 2.61523,-1.1748 2.61523,-2.623 v -16.7383 c 0,-1.4482 -1.17029,-2.6191 -2.61523,-2.6191 z m -18.91407,72.3398 h 36.97852 c 6.79691,0 12.30469,5.5205 12.30469,12.3281 V 833.959 H 316.25 v -15.875 c 0,-1.4482 -1.17029,-2.6231 -2.61523,-2.6231 h -8.83789 v 21.9805 h 53.35351 v 20.4824 h -72.26758 z m -22.98828,66.2442 h 18.91797 v 67.6425 h 42.41992 c 8.28595,0 15.00391,-6.7293 15.00391,-15.0293 v -52.6132 h 18.91406 v 59.125 c 0,16.016 -12.95914,29 -28.94726,29 H 281.8125 v 19.4843 h -18.91797 z m 22.98828,0 h 49.28321 v 20.4804 h -30.36914 v 21.9805 h 8.83789 c 1.44494,0 2.61523,-1.171 2.61523,-2.6191 v -15.877 h 18.91602 v 26.6523 c 0,6.8077 -5.50778,12.3262 -12.30469,12.3262 h -36.97852 z" />
</svg>
