<?xml version="1.0" encoding="UTF-8" standalone="no"?>
<svg
   width="994"
   height="619"
   viewBox="0 0 318.048 198.048"
   version="1.1"
   xml:space="preserve"
   style="clip-rule:evenodd;fill-rule:evenodd;stroke-linejoin:round;stroke-miterlimit:2"
   id="svg1"
   xmlns="http://www.w3.org/2000/svg"
   xmlns:svg="http://www.w3.org/2000/svg"
   xmlns:serif="http://www.serif.com/"><defs
   id="defs1" />
    <g
   id="Background"
   transform="scale(0.32)">
        <path
   id="White-Background"
   serif:id="White Background"
   d="M 969.144,618.9 H 24.756 C 11.093,618.9 0,607.807 0,594.144 V 24.756 C 0,11.093 11.093,0 24.756,0 H 969.144 C 982.807,0 993.9,11.093 993.9,24.756 v 569.388 c 0,13.663 -11.093,24.756 -24.756,24.756 z"
   style="fill:transparent" />
    </g>
    <g
   id="Frame"
   transform="scale(0.32)">
        <path
   id="Border"
   d="M 966.52,609.525 H 27.38 c -9.937,0 -18.005,-8.068 -18.005,-18.004 V 27.379 c 0,-9.936 8.068,-18.004 18.005,-18.004 h 939.14 c 9.937,0 18.005,8.068 18.005,18.004 v 564.142 c 0,9.936 -8.068,18.004 -18.005,18.004 z m -671.856,-12.5 H 966.52 c 3.039,0 5.505,-2.466 5.505,-5.504 V 27.379 c 0,-3.038 -2.466,-5.504 -5.505,-5.504 H 27.38 c -3.039,0 -5.505,2.466 -5.505,5.504 v 549.559 h 272.789 z" />
        <rect
   id="White-Band"
   serif:id="White Band"
   x="21.875"
   y="492.82199"
   width="272.78299"
   height="84.114998"
   style="fill:#ffffff" />
        <path
   id="Red-Band"
   serif:id="Red Band"
   d="M 294.658,21.875 V 474.897 H 21.875 V 27.379 c 0,-3.038 2.466,-5.504 5.505,-5.504 z"
   style="fill:#a21d20" />
        <path
   id="Gold-Band"
   serif:id="Gold Band"
   d="m 21.875,474.897 h 272.783 v 17.925 H 21.875 Z"
   style="fill:#ffcc54" />
        <path
   id="NFC-Loading-System"
   serif:id="NFC Loading System"
   d="m 48.826,568.141 h -2.358 v -1.614 H 32.535 v 1.614 h -2.358 v -20.256 h 18.649 z m -2.358,-4.028 V 550.299 H 32.535 v 13.814 z m 30.262,-5.72 H 54.957 v -2.427 H 76.73 Z m 26.922,-7.609 -1.81,0.787 c -0.315,-1.487 -0.731,-2.689 -1.249,-3.608 l 1.899,-0.8 c 0.484,0.98 0.871,2.187 1.16,3.621 z m -7.266,-0.748 H 83.333 v -2.427 h 13.053 z m 4.359,1.824 -1.797,0.774 c -0.323,-1.478 -0.739,-2.677 -1.249,-3.595 l 1.899,-0.8 c 0.485,0.979 0.867,2.186 1.147,3.621 z m 1.862,4.788 h -9.268 c 0.017,0.21 0.026,0.569 0.026,1.076 0,5.344 -2.282,9.149 -6.845,11.414 l -1.849,-2.152 c 2.074,-0.752 3.644,-1.893 4.71,-3.424 1.067,-1.53 1.6,-3.371 1.6,-5.523 0,-0.63 -0.017,-1.093 -0.051,-1.391 H 80.809 v -2.427 h 21.798 z m 22.205,-6.586 c -1.946,2.397 -3.484,4.072 -4.614,5.025 v 10.64 h -2.167 v -8.869 c -2.082,1.601 -4.084,2.821 -6.004,3.661 l -1.339,-1.968 c 2.286,-0.927 4.604,-2.338 6.954,-4.231 2.35,-1.894 4.158,-3.807 5.424,-5.74 z m 17.936,1.102 -1.402,2.1 c -2.108,-1.828 -4.589,-3.101 -7.445,-3.818 l 1.441,-2.204 c 3.008,1.119 5.477,2.427 7.406,3.922 z m 11.753,2.742 c -3,4.557 -5.974,7.841 -8.923,9.853 -2.949,2.012 -6.285,3.555 -10.007,4.631 l -1.491,-2.427 c 4.657,-1.032 8.392,-2.681 11.204,-4.946 2.813,-2.265 5.261,-5.217 7.343,-8.856 z m 26.833,-5.588 -1.798,0.774 c -0.323,-1.487 -0.739,-2.686 -1.249,-3.595 l 1.899,-0.814 c 0.485,0.98 0.867,2.191 1.148,3.635 z m -2.894,1.075 -1.071,0.538 0.995,1.01 c -0.706,4.339 -2.21,7.953 -4.513,10.844 -2.303,2.89 -5.587,5.249 -9.854,7.077 l -1.797,-2.256 c 3.884,-1.356 6.928,-3.182 9.134,-5.477 2.205,-2.296 3.677,-5.224 4.416,-8.784 h -9.713 c -1.657,2.423 -3.293,4.168 -4.908,5.235 l -1.899,-1.719 c 3.501,-2.388 6.068,-5.799 7.699,-10.233 l 2.244,1.128 c -0.493,1.172 -1.024,2.231 -1.594,3.175 h 9.013 c -0.332,-1.39 -0.735,-2.51 -1.211,-3.358 l 1.912,-0.814 c 0.484,0.98 0.867,2.191 1.147,3.634 z m 18.28,-0.538 -0.842,2.441 c -2.277,-1.347 -4.924,-2.178 -7.941,-2.493 l 0.841,-2.506 c 3.348,0.717 5.996,1.57 7.942,2.558 z m 10.198,5.235 c -2.405,3.927 -5.112,7.025 -8.12,9.295 -3.009,2.27 -6.638,3.991 -10.887,5.163 l -1.198,-2.48 c 4.428,-1.058 8.118,-2.696 11.071,-4.913 2.953,-2.217 5.322,-5.128 7.107,-8.731 z m -12.684,1.535 -0.918,2.545 c -2.005,-1.443 -4.614,-2.348 -7.827,-2.716 l 0.842,-2.44 c 3.22,0.621 5.855,1.491 7.903,2.611 z m 40.052,11.283 -2.04,1.535 c -2.515,-3.534 -5.455,-6.363 -8.821,-8.489 -2.728,3.516 -6.072,6.494 -10.032,8.935 l -1.823,-1.929 c 3.289,-1.775 6.185,-4.097 8.688,-6.966 2.502,-2.869 4.455,-6.11 5.857,-9.722 h -13.079 v -2.309 l 15.297,-0.026 0.701,0.748 c -0.952,3.437 -2.362,6.546 -4.232,9.328 3.629,2.379 6.79,5.344 9.484,8.895 z m 22.346,-16.872 h -16.661 v -2.427 h 16.661 z m 2.613,6.612 h -9.267 c 0.017,0.21 0.025,0.569 0.025,1.076 0,5.344 -2.281,9.149 -6.845,11.414 l -1.848,-2.152 c 2.073,-0.752 3.643,-1.893 4.71,-3.424 1.066,-1.53 1.6,-3.371 1.6,-5.523 0,-0.63 -0.017,-1.093 -0.051,-1.391 h -10.122 v -2.427 h 21.798 z m 26.591,10.548 -2.32,0.997 c -0.315,-1.119 -0.782,-2.326 -1.402,-3.621 -8.77,0.91 -14.689,1.671 -17.757,2.283 l -0.625,-2.611 2.996,-0.341 6.794,-17.685 2.167,0.866 -6.348,16.465 11.409,-1.286 c -1.453,-2.798 -2.8,-4.832 -4.041,-6.1 l 2.422,-1.076 c 2.328,3.009 4.563,7.045 6.705,12.109 z M 30.678,539.246 c -0.556,0 -1.008,-0.452 -1.008,-1.008 0,-0.556 0.452,-1.007 1.008,-1.007 h 255.06 c 0.556,0 1.007,0.451 1.007,1.007 0,0.556 -0.451,1.008 -1.007,1.008 z m 0,-38.22 h 5.562 l 4.313,16.886 h 0.081 v -16.886 h 3.95 v 28.211 h -4.555 l -5.32,-20.594 h -0.081 v 20.594 h -3.95 z m 17.211,0 h 11.729 v 4.03 h -7.295 v 7.859 h 5.723 v 4.03 h -5.723 v 12.292 h -4.434 z m 20.113,28.614 c -2.123,0 -3.742,-0.604 -4.857,-1.813 -1.115,-1.209 -1.673,-2.915 -1.673,-5.119 v -15.153 c 0,-2.204 0.558,-3.91 1.673,-5.119 1.115,-1.209 2.734,-1.814 4.857,-1.814 2.123,0 3.742,0.605 4.857,1.814 1.115,1.209 1.673,2.915 1.673,5.119 v 2.982 H 70.34 v -3.265 c 0,-1.746 -0.739,-2.619 -2.217,-2.619 -1.478,0 -2.217,0.873 -2.217,2.619 v 15.759 c 0,1.719 0.739,2.579 2.217,2.579 1.478,0 2.217,-0.86 2.217,-2.579 v -4.313 h 4.192 v 3.99 c 0,2.204 -0.558,3.91 -1.673,5.119 -1.115,1.209 -2.734,1.813 -4.857,1.813 z m 15.639,-28.614 h 4.434 v 24.181 h 7.295 v 4.03 H 83.641 Z m 20.113,28.614 c -2.177,0 -3.843,-0.618 -4.998,-1.854 -1.156,-1.235 -1.733,-2.982 -1.733,-5.239 v -14.831 c 0,-2.257 0.577,-4.004 1.733,-5.24 1.155,-1.236 2.821,-1.854 4.998,-1.854 2.176,0 3.842,0.618 4.998,1.854 1.155,1.236 1.733,2.983 1.733,5.24 v 14.831 c 0,2.257 -0.578,4.004 -1.733,5.239 -1.156,1.236 -2.822,1.854 -4.998,1.854 z m 0,-4.03 c 1.531,0 2.297,-0.927 2.297,-2.781 v -15.395 c 0,-1.854 -0.766,-2.781 -2.297,-2.781 -1.532,0 -2.298,0.927 -2.298,2.781 v 15.395 c 0,1.854 0.766,2.781 2.298,2.781 z m 13.059,-24.584 h 6.006 l 4.595,28.211 h -4.434 l -0.806,-5.602 v 0.081 h -5.038 l -0.807,5.521 h -4.111 z m 4.837,18.861 -1.975,-13.945 h -0.081 l -1.934,13.945 z m 7.9,-18.861 h 6.772 c 2.203,0 3.856,0.591 4.957,1.773 1.102,1.182 1.653,2.915 1.653,5.199 v 14.267 c 0,2.284 -0.551,4.017 -1.653,5.199 -1.101,1.182 -2.754,1.773 -4.957,1.773 h -6.772 z m 6.691,24.181 c 0.725,0 1.283,-0.215 1.673,-0.645 0.389,-0.43 0.584,-1.128 0.584,-2.095 v -14.671 c 0,-0.967 -0.195,-1.665 -0.584,-2.095 -0.39,-0.43 -0.948,-0.645 -1.673,-0.645 h -2.257 v 20.151 z m 9.673,-24.181 h 4.434 v 28.211 h -4.434 z m 7.739,0 h 5.563 l 4.312,16.886 h 0.081 v -16.886 h 3.95 v 28.211 h -4.555 l -5.32,-20.594 h -0.081 v 20.594 h -3.95 z m 23.499,28.614 c -2.15,0 -3.789,-0.611 -4.917,-1.833 -1.129,-1.223 -1.693,-2.976 -1.693,-5.26 v -14.831 c 0,-2.284 0.564,-4.037 1.693,-5.26 1.128,-1.222 2.767,-1.834 4.917,-1.834 2.15,0 3.789,0.612 4.917,1.834 1.129,1.223 1.693,2.976 1.693,5.26 v 2.418 h -4.192 v -2.7 c 0,-1.854 -0.765,-2.781 -2.297,-2.781 -1.532,0 -2.298,0.927 -2.298,2.781 v 15.436 c 0,1.827 0.766,2.74 2.298,2.74 1.532,0 2.297,-0.913 2.297,-2.74 v -5.522 h -2.216 v -4.03 h 6.408 v 9.229 c 0,2.284 -0.564,4.037 -1.693,5.26 -1.128,1.222 -2.767,1.833 -4.917,1.833 z m 21.685,0 c -2.15,0 -3.775,-0.611 -4.877,-1.833 -1.102,-1.223 -1.653,-2.976 -1.653,-5.26 v -1.612 h 4.192 v 1.935 c 0,1.827 0.766,2.74 2.298,2.74 0.752,0 1.323,-0.222 1.713,-0.665 0.389,-0.443 0.584,-1.162 0.584,-2.156 0,-1.182 -0.269,-2.223 -0.806,-3.124 -0.537,-0.9 -1.532,-1.981 -2.983,-3.244 -1.827,-1.612 -3.103,-3.07 -3.829,-4.373 -0.725,-1.303 -1.088,-2.774 -1.088,-4.413 0,-2.23 0.564,-3.956 1.693,-5.179 1.128,-1.222 2.767,-1.834 4.917,-1.834 2.123,0 3.729,0.612 4.817,1.834 1.088,1.223 1.632,2.976 1.632,5.26 v 1.169 h -4.192 v -1.451 c 0,-0.968 -0.188,-1.673 -0.564,-2.116 -0.376,-0.444 -0.927,-0.665 -1.653,-0.665 -1.477,0 -2.216,0.9 -2.216,2.7 0,1.021 0.275,1.975 0.826,2.862 0.551,0.886 1.552,1.961 3.003,3.224 1.854,1.612 3.13,3.076 3.829,4.393 0.698,1.316 1.048,2.861 1.048,4.635 0,2.31 -0.571,4.084 -1.713,5.319 -1.142,1.236 -2.802,1.854 -4.978,1.854 z m 13.059,-12.413 -5.361,-16.201 h 4.716 l 3.023,10.357 h 0.081 l 3.023,-10.357 h 4.313 l -5.361,16.201 v 12.01 h -4.434 z m 16.929,12.413 c -2.15,0 -3.775,-0.611 -4.877,-1.833 -1.102,-1.223 -1.653,-2.976 -1.653,-5.26 v -1.612 h 4.192 v 1.935 c 0,1.827 0.766,2.74 2.298,2.74 0.752,0 1.323,-0.222 1.713,-0.665 0.389,-0.443 0.584,-1.162 0.584,-2.156 0,-1.182 -0.269,-2.223 -0.806,-3.124 -0.537,-0.9 -1.532,-1.981 -2.983,-3.244 -1.827,-1.612 -3.103,-3.07 -3.829,-4.373 -0.725,-1.303 -1.088,-2.774 -1.088,-4.413 0,-2.23 0.564,-3.956 1.693,-5.179 1.128,-1.222 2.768,-1.834 4.917,-1.834 2.123,0 3.729,0.612 4.817,1.834 1.088,1.223 1.632,2.976 1.632,5.26 v 1.169 h -4.192 v -1.451 c 0,-0.968 -0.188,-1.673 -0.564,-2.116 -0.376,-0.444 -0.927,-0.665 -1.652,-0.665 -1.478,0 -2.217,0.9 -2.217,2.7 0,1.021 0.275,1.975 0.826,2.862 0.551,0.886 1.552,1.961 3.003,3.224 1.854,1.612 3.13,3.076 3.829,4.393 0.699,1.316 1.048,2.861 1.048,4.635 0,2.31 -0.571,4.084 -1.713,5.319 -1.142,1.236 -2.801,1.854 -4.978,1.854 z m 12.697,-24.584 h -4.636 v -4.03 h 13.705 v 4.03 h -4.636 v 24.181 h -4.433 z m 11.205,-4.03 h 12.092 v 4.03 h -7.659 v 7.456 h 6.087 v 4.03 h -6.087 v 8.665 h 7.659 v 4.03 h -12.092 z m 14.631,0 h 6.328 l 2.822,20.191 h 0.08 l 2.822,-20.191 h 6.328 v 28.211 h -4.192 v -21.36 h -0.081 l -3.224,21.36 h -3.708 l -3.225,-21.36 h -0.081 v 21.36 h -3.869 z" />
        <path
   id="TapTo-Logo"
   serif:id="TapTo Logo"
   d="m 269.965,399.319 h -64.057 v 47.301 h -18.136 v -47.301 h -59.895 v -16.77 h 142.088 z m 0,0 h 16.78 v 42.015 c 0,14.173 -11.498,25.663 -25.68,25.663 H 149.096 v -16.768 h 107.56 c 7.351,0 13.309,-5.955 13.309,-13.303 z m 1.146,-5.547 v -2.09 c 3.582,0 6.496,2.913 6.496,6.492 h -2.091 c 0,-2.427 -1.976,-4.402 -4.405,-4.402 z m 8.974,4.404 c 0,-4.947 -4.026,-8.971 -8.974,-8.971 v -2.089 c 6.101,0 11.065,4.962 11.065,11.06 z m 4.57,0 c 0,-7.464 -6.077,-13.536 -13.544,-13.536 v -2.091 c 8.62,0 15.634,7.01 15.634,15.627 z m -159.7,1.143 H 65.059 v 37.609 c 0,7.346 5.959,13.301 13.309,13.301 h 46.587 v 16.768 H 72.602 c -14.182,0 -25.679,-11.49 -25.679,-25.663 V 399.319 H 29.67 v -16.77 h 95.285 z m -55.734,3.608 h 55.734 V 446.62 H 106.819 V 419.698 H 87.357 v 7.833 c 0,1.281 1.038,2.319 2.32,2.319 h 14.058 v 16.77 H 80.136 c -6.029,0 -10.915,-4.883 -10.915,-10.909 z m 58.656,0 h 55.734 v 32.784 c 0,6.026 -4.887,10.909 -10.916,10.909 h -23.599 v -16.77 h 14.058 c 1.282,0 2.322,-1.038 2.322,-2.319 v -7.833 h -19.463 v 47.299 h -18.136 z m 137.927,0 v 32.784 c 0,6.026 -4.887,10.909 -10.915,10.909 h -33.904 c -6.028,0 -10.916,-4.883 -10.916,-10.909 v -32.784 z m -18.136,16.771 h -19.463 v 7.833 c 0,1.281 1.04,2.319 2.322,2.319 h 14.82 c 1.282,0 2.321,-1.038 2.321,-2.319 z"
   style="fill:#ffffff" />
        <path
   id="URL"
   d="m 94.457,584.974 h 2.501 l 1.157,12.693 h 0.047 l 1.227,-12.693 h 2.831 l 1.227,12.693 h 0.047 l 1.156,-12.693 h 2.242 l -1.675,16.515 h -3.233 l -1.18,-11.136 h -0.047 l -1.18,11.136 h -3.444 z m 13.756,0 h 2.596 v 16.515 h -2.596 z m 4.012,14.203 4.813,-11.844 h -4.577 v -2.359 h 7.361 v 2.312 l -4.813,11.844 h 4.813 v 2.359 h -7.597 z m 8.659,0 4.814,-11.844 h -4.578 v -2.359 h 7.362 v 2.312 l -4.814,11.844 h 4.814 v 2.359 h -7.598 z m 12.812,2.548 c -1.274,0 -2.249,-0.362 -2.925,-1.085 -0.677,-0.724 -1.015,-1.746 -1.015,-3.067 v -8.683 c 0,-1.321 0.338,-2.343 1.015,-3.067 0.676,-0.723 1.651,-1.085 2.925,-1.085 1.275,0 2.25,0.362 2.926,1.085 0.677,0.724 1.015,1.746 1.015,3.067 v 8.683 c 0,1.321 -0.338,2.343 -1.015,3.067 -0.676,0.723 -1.651,1.085 -2.926,1.085 z m 0,-2.359 c 0.897,0 1.345,-0.543 1.345,-1.628 v -9.013 c 0,-1.085 -0.448,-1.628 -1.345,-1.628 -0.896,0 -1.344,0.543 -1.344,1.628 v 9.013 c 0,1.085 0.448,1.628 1.344,1.628 z m 5.545,-0.378 h 2.502 v 2.501 h -2.502 z m 4.436,-14.014 h 3.964 c 1.29,0 2.258,0.346 2.903,1.038 0.645,0.692 0.967,1.707 0.967,3.043 v 8.352 c 0,1.337 -0.322,2.352 -0.967,3.044 -0.645,0.692 -1.613,1.038 -2.903,1.038 h -3.964 z m 3.917,14.156 c 0.425,0 0.751,-0.126 0.979,-0.378 0.228,-0.251 0.343,-0.66 0.343,-1.227 v -8.587 c 0,-0.567 -0.115,-0.976 -0.343,-1.227 -0.228,-0.252 -0.554,-0.378 -0.979,-0.378 h -1.321 v 11.797 z m 5.663,-14.156 h 7.079 v 2.359 h -4.483 v 4.365 h 3.562 v 2.359 h -3.562 v 5.073 h 4.483 v 2.359 h -7.079 z m 7.881,0 h 2.619 l 1.699,12.811 h 0.047 l 1.699,-12.811 h 2.383 l -2.501,16.515 h -3.445 z m 14.865,0 h 2.242 l -6.513,16.515 h -2.241 z m 5.687,2.359 h -2.714 v -2.359 h 8.023 v 2.359 h -2.714 v 14.156 h -2.595 z m 7.479,-2.359 h 3.516 l 2.69,16.515 h -2.596 l -0.471,-3.279 v 0.047 h -2.95 l -0.472,3.232 h -2.407 z m 2.832,11.041 -1.156,-8.163 h -0.048 l -1.132,8.163 z m 4.624,-11.041 h 3.823 c 1.29,0 2.257,0.346 2.902,1.038 0.645,0.692 0.968,1.707 0.968,3.043 v 1.628 c 0,1.337 -0.323,2.352 -0.968,3.044 -0.645,0.692 -1.612,1.038 -2.902,1.038 h -1.227 v 6.724 h -2.596 z m 3.823,7.432 c 0.425,0 0.743,-0.118 0.956,-0.354 0.212,-0.236 0.318,-0.637 0.318,-1.203 v -1.959 c 0,-0.566 -0.106,-0.967 -0.318,-1.203 -0.213,-0.236 -0.531,-0.354 -0.956,-0.354 h -1.227 v 5.073 z m 7.362,-5.073 h -2.714 v -2.359 h 8.023 v 2.359 h -2.714 v 14.156 h -2.595 z m 10.217,14.392 c -1.275,0 -2.25,-0.362 -2.926,-1.085 -0.677,-0.724 -1.015,-1.746 -1.015,-3.067 v -8.683 c 0,-1.321 0.338,-2.343 1.015,-3.067 0.676,-0.723 1.651,-1.085 2.926,-1.085 1.274,0 2.249,0.362 2.925,1.085 0.677,0.724 1.015,1.746 1.015,3.067 v 8.683 c 0,1.321 -0.338,2.343 -1.015,3.067 -0.676,0.723 -1.651,1.085 -2.925,1.085 z m 0,-2.359 c 0.896,0 1.344,-0.543 1.344,-1.628 v -9.013 c 0,-1.085 -0.448,-1.628 -1.344,-1.628 -0.897,0 -1.345,0.543 -1.345,1.628 v 9.013 c 0,1.085 0.448,1.628 1.345,1.628 z"
   style="fill:#ffffff" />
    </g>
</svg>