<?xml version="1.0" encoding="UTF-8" standalone="no"?>
<!DOCTYPE svg PUBLIC "-//W3C//DTD SVG 1.1//EN" "http://www.w3.org/Graphics/SVG/1.1/DTD/svg11.dtd">
<svg width="600" height="975" viewBox="0 0 600 975" version="1.1" xmlns="http://www.w3.org/2000/svg" xmlns:xlink="http://www.w3.org/1999/xlink" xml:space="preserve" xmlns:serif="http://www.serif.com/" style="fill-rule:evenodd;clip-rule:evenodd;stroke-linejoin:round;stroke-miterlimit:2;">
    <g id="Card-Frame" serif:id="Card Frame" transform="matrix(1,0,0,0.999904,-18.75,-18.6544)">
        <g id="Card-Background" serif:id="Card Background">
            <g transform="matrix(1,0,0,1.13781,0,-2.5839)">
                <path d="M618.75,45.116L618.75,849.294C618.75,863.846 605.307,875.661 588.75,875.661L48.75,875.661C32.193,875.661 18.75,863.846 18.75,849.294L18.75,45.116C18.75,30.564 32.193,18.75 48.75,18.75L588.75,18.75C605.307,18.75 618.75,30.564 618.75,45.116ZM599.637,246.062C599.637,235.162 589.568,226.313 577.166,226.313L60.334,226.313C47.932,226.313 37.863,235.162 37.863,246.062L37.863,838.104C37.863,849.004 47.932,857.854 60.334,857.854L577.166,857.854C589.568,857.854 599.637,849.004 599.637,838.104L599.637,246.062Z" style="fill:white;"/>
            </g>
            <g transform="matrix(0.95,0,0,1.05666,33.75,-51.4922)">
                <path d="M600,306.577L600,953.423C600,965.331 589.246,975 576,975L24,975C10.754,975 0,965.331 0,953.423L0,306.577C0,294.669 10.754,285 24,285L576,285C589.246,285 600,294.669 600,306.577ZM391.637,963.17L576,963.17C581.984,963.17 586.842,958.802 586.842,953.423L586.842,306.577C586.842,301.198 581.984,296.83 576,296.83L24,296.83C18.016,296.83 13.158,301.198 13.158,306.577L13.158,953.423C13.158,958.802 18.016,963.17 24,963.17L209.954,963.17C215.707,962.563 220.168,958.642 220.263,953.875L220.263,918.99L362.843,918.99C372.457,918.99 380.263,926.008 380.263,934.652L380.263,954.299C380.671,959.131 385.573,962.98 391.637,963.17Z"/>
            </g>
            <g id="TapTo" transform="matrix(0.0667638,0,0,0.0667703,191.633,819.671)">
                <path d="M2802.55,1735.85L2287.5,1735.85L2287.5,2116.4L2141.68,2116.4L2141.68,1735.85L1660.1,1735.85L1660.1,1600.93L2802.55,1600.93L2802.55,1735.85ZM2802.55,1735.85L2937.47,1735.85L2937.47,2073.87C2937.47,2187.9 2845.02,2280.34 2730.99,2280.34L1830.71,2280.34L1830.71,2145.43L2695.54,2145.43C2754.64,2145.43 2802.55,2097.52 2802.55,2038.41L2802.55,1735.85ZM2920.66,1726.65C2920.66,1666.6 2871.8,1617.75 2811.76,1617.75L2811.76,1600.93C2881.07,1600.93 2937.47,1657.33 2937.47,1726.65L2920.66,1726.65ZM2883.92,1726.65C2883.92,1686.85 2851.55,1654.48 2811.76,1654.48L2811.76,1637.67C2860.82,1637.67 2900.73,1677.59 2900.73,1726.65L2883.92,1726.65ZM2811.76,1691.22L2811.76,1674.41C2840.56,1674.41 2863.99,1697.84 2863.99,1726.64L2847.18,1726.64C2847.18,1707.11 2831.29,1691.22 2811.76,1691.22ZM1636.61,1735.85L1155.02,1735.85L1155.02,2038.42C1155.02,2097.52 1202.93,2145.43 1262.03,2145.43L1636.61,2145.43L1636.61,2280.34L1215.67,2280.34C1101.64,2280.34 1009.2,2187.9 1009.2,2073.87L1009.2,1735.85L870.48,1735.85L870.48,1600.93L1636.61,1600.93L1636.61,1735.85ZM1660.1,1764.88L2108.23,1764.88L2108.23,2028.63C2108.23,2077.11 2068.93,2116.4 2020.46,2116.4L1830.71,2116.4L1830.71,1981.48L1943.74,1981.48C1954.05,1981.48 1962.41,1973.13 1962.41,1962.82L1962.41,1899.8L1805.92,1899.8L1805.92,2280.34L1660.1,2280.34L1660.1,1764.88ZM2769.09,1764.88L2769.09,2028.63C2769.09,2077.11 2729.8,2116.4 2681.33,2116.4L2408.73,2116.4C2360.26,2116.4 2320.96,2077.11 2320.96,2028.63L2320.96,1764.88L2769.09,1764.88ZM2623.27,1899.8L2466.78,1899.8L2466.78,1962.82C2466.78,1973.13 2475.14,1981.48 2485.45,1981.48L2604.61,1981.48C2614.92,1981.48 2623.27,1973.13 2623.27,1962.82L2623.27,1899.8ZM1188.48,1764.88L1636.61,1764.88L1636.61,2116.4L1490.79,2116.4L1490.79,1899.8L1334.3,1899.8L1334.3,1962.82C1334.3,1973.13 1342.65,1981.48 1352.96,1981.48L1465.99,1981.48L1465.99,2116.4L1276.24,2116.4C1227.77,2116.4 1188.48,2077.11 1188.48,2028.63L1188.48,1764.88Z" style="fill:white;"/>
            </g>
        </g>
        <g id="Card-Top" serif:id="Card Top">
            <g id="Fill" transform="matrix(1.49312,0,0,1.19613,529.467,130.636)">
                <path d="M49.75,-75.96L49.75,81.96C49.75,84.742 47.941,87 45.713,87L-327.963,87C-330.191,87 -332,84.742 -332,81.96L-332,-75.96C-332,-78.742 -330.191,-81 -327.963,-81L45.713,-81C47.941,-81 49.75,-78.742 49.75,-75.96Z" style="fill:rgb(52,0,131);"/>
            </g>
            <g id="NFC-Loading-System" serif:id="NFC Loading System" transform="matrix(1,0,0,1,2.57495,-1.9118)">
                <g transform="matrix(0.971546,0,0,1,129.918,-268.698)">
                    <g transform="matrix(25,0,0,25,223.166,490.923)">
                        <path d="M0.848,0.024L0.758,0.024L0.758,-0.036L0.224,-0.036L0.224,0.024L0.134,0.024L0.134,-0.73L0.848,-0.73L0.848,0.024ZM0.758,-0.126L0.758,-0.64L0.224,-0.64L0.224,-0.126L0.758,-0.126Z" style="fill:white;fill-rule:nonzero;"/>
                    </g>
                    <g transform="matrix(25,0,0,25,248.166,490.923)">
                        <rect x="0.083" y="-0.429" width="0.834" height="0.09" style="fill:white;fill-rule:nonzero;"/>
                    </g>
                    <g transform="matrix(25,0,0,25,273.166,490.923)">
                        <path d="M0.948,-0.622L0.879,-0.593C0.867,-0.648 0.851,-0.693 0.831,-0.727L0.904,-0.757C0.922,-0.72 0.937,-0.675 0.948,-0.622ZM0.67,-0.65L0.17,-0.65L0.17,-0.74L0.67,-0.74L0.67,-0.65ZM0.837,-0.582L0.768,-0.553C0.756,-0.608 0.74,-0.653 0.72,-0.687L0.793,-0.717C0.812,-0.68 0.826,-0.635 0.837,-0.582ZM0.908,-0.404L0.553,-0.404C0.554,-0.396 0.554,-0.383 0.554,-0.364C0.554,-0.165 0.467,-0.023 0.292,0.061L0.221,-0.019C0.301,-0.047 0.361,-0.09 0.402,-0.146C0.442,-0.203 0.463,-0.272 0.463,-0.352C0.463,-0.375 0.462,-0.393 0.461,-0.404L0.073,-0.404L0.073,-0.494L0.908,-0.494L0.908,-0.404Z" style="fill:white;fill-rule:nonzero;"/>
                    </g>
                    <g transform="matrix(25,0,0,25,298.166,490.923)">
                        <path d="M0.759,-0.649C0.684,-0.56 0.625,-0.497 0.582,-0.462L0.582,-0.066L0.499,-0.066L0.499,-0.396C0.419,-0.336 0.343,-0.291 0.269,-0.26L0.218,-0.333C0.305,-0.368 0.394,-0.42 0.484,-0.49C0.574,-0.561 0.643,-0.632 0.692,-0.704L0.759,-0.649Z" style="fill:white;fill-rule:nonzero;"/>
                    </g>
                    <g transform="matrix(25,0,0,25,323.166,490.923)">
                        <path d="M0.446,-0.608L0.392,-0.53C0.311,-0.598 0.216,-0.645 0.107,-0.672L0.162,-0.754C0.277,-0.712 0.372,-0.664 0.446,-0.608ZM0.896,-0.506C0.781,-0.336 0.667,-0.214 0.554,-0.139C0.441,-0.064 0.313,-0.007 0.171,0.033L0.114,-0.057C0.292,-0.096 0.435,-0.157 0.543,-0.241C0.651,-0.326 0.744,-0.435 0.824,-0.571L0.896,-0.506Z" style="fill:white;fill-rule:nonzero;"/>
                    </g>
                    <g transform="matrix(25,0,0,25,348.166,490.923)">
                        <path d="M0.924,-0.714L0.855,-0.685C0.843,-0.74 0.827,-0.785 0.807,-0.819L0.88,-0.849C0.898,-0.813 0.913,-0.768 0.924,-0.714ZM0.813,-0.674L0.772,-0.654L0.81,-0.616C0.783,-0.455 0.725,-0.32 0.637,-0.213C0.549,-0.105 0.423,-0.017 0.26,0.051L0.191,-0.033C0.34,-0.084 0.456,-0.152 0.541,-0.237C0.625,-0.323 0.682,-0.431 0.71,-0.564L0.338,-0.564C0.274,-0.474 0.212,-0.409 0.15,-0.369L0.077,-0.433C0.211,-0.522 0.31,-0.649 0.372,-0.814L0.458,-0.772C0.439,-0.728 0.419,-0.689 0.397,-0.654L0.742,-0.654C0.729,-0.706 0.714,-0.747 0.696,-0.779L0.769,-0.809C0.788,-0.773 0.802,-0.728 0.813,-0.674Z" style="fill:white;fill-rule:nonzero;"/>
                    </g>
                    <g transform="matrix(25,0,0,25,373.166,490.923)">
                        <path d="M0.513,-0.694L0.481,-0.603C0.394,-0.653 0.292,-0.684 0.177,-0.696L0.209,-0.789C0.337,-0.762 0.439,-0.731 0.513,-0.694ZM0.904,-0.499C0.812,-0.353 0.708,-0.238 0.593,-0.153C0.478,-0.069 0.339,-0.005 0.176,0.039L0.13,-0.053C0.299,-0.093 0.441,-0.154 0.554,-0.236C0.667,-0.319 0.758,-0.427 0.826,-0.561L0.904,-0.499ZM0.418,-0.442L0.383,-0.347C0.306,-0.401 0.206,-0.435 0.083,-0.448L0.115,-0.539C0.239,-0.516 0.34,-0.484 0.418,-0.442Z" style="fill:white;fill-rule:nonzero;"/>
                    </g>
                    <g transform="matrix(25,0,0,25,398.166,490.923)">
                        <path d="M0.952,-0.022L0.874,0.035C0.778,-0.096 0.665,-0.202 0.536,-0.281C0.432,-0.15 0.304,-0.039 0.152,0.052L0.082,-0.02C0.208,-0.086 0.319,-0.173 0.415,-0.279C0.511,-0.386 0.585,-0.507 0.639,-0.641L0.138,-0.641L0.138,-0.727L0.724,-0.728L0.751,-0.7C0.715,-0.572 0.66,-0.457 0.589,-0.353C0.728,-0.264 0.849,-0.154 0.952,-0.022Z" style="fill:white;fill-rule:nonzero;"/>
                    </g>
                    <g transform="matrix(25,0,0,25,423.166,490.923)">
                        <path d="M0.808,-0.65L0.17,-0.65L0.17,-0.74L0.808,-0.74L0.808,-0.65ZM0.908,-0.404L0.553,-0.404C0.554,-0.396 0.554,-0.383 0.554,-0.364C0.554,-0.165 0.467,-0.023 0.292,0.061L0.221,-0.019C0.301,-0.047 0.361,-0.09 0.402,-0.146C0.442,-0.203 0.463,-0.272 0.463,-0.352C0.463,-0.375 0.462,-0.393 0.461,-0.404L0.073,-0.404L0.073,-0.494L0.908,-0.494L0.908,-0.404Z" style="fill:white;fill-rule:nonzero;"/>
                    </g>
                    <g transform="matrix(25,0,0,25,448.166,490.923)">
                        <path d="M0.927,-0.011L0.838,0.026C0.826,-0.016 0.808,-0.061 0.784,-0.109C0.448,-0.075 0.222,-0.047 0.104,-0.024L0.08,-0.121L0.195,-0.134L0.455,-0.792L0.538,-0.76L0.295,-0.147L0.732,-0.195C0.676,-0.299 0.625,-0.375 0.577,-0.422L0.67,-0.462C0.759,-0.35 0.845,-0.2 0.927,-0.011Z" style="fill:white;fill-rule:nonzero;"/>
                    </g>
                </g>
                <g id="Divider" transform="matrix(0.639599,0,0,1.44886,271.893,-196.192)">
                    <path d="M122.823,270.647C122.014,270.647 121.357,270.357 121.357,270C121.357,269.643 122.014,269.353 122.823,269.353L493.836,269.353C494.645,269.353 495.302,269.643 495.302,270C495.302,270.357 494.645,270.647 493.836,270.647L122.823,270.647Z" style="fill:white;"/>
                </g>
                <g transform="matrix(0.93161,0,0,0.93161,235.922,-208.95)">
                    <g transform="matrix(40.2529,0,0,40.2529,121.285,424.614)">
                        <path d="M0.041,-0.7L0.179,-0.7L0.286,-0.281L0.288,-0.281L0.288,-0.7L0.386,-0.7L0.386,-0L0.273,-0L0.141,-0.511L0.139,-0.511L0.139,-0L0.041,-0L0.041,-0.7Z" style="fill:white;fill-rule:nonzero;"/>
                    </g>
                    <g transform="matrix(40.2529,0,0,40.2529,138.473,424.614)">
                        <path d="M0.041,-0.7L0.332,-0.7L0.332,-0.6L0.151,-0.6L0.151,-0.405L0.293,-0.405L0.293,-0.305L0.151,-0.305L0.151,-0L0.041,-0L0.041,-0.7Z" style="fill:white;fill-rule:nonzero;"/>
                    </g>
                    <g transform="matrix(40.2529,0,0,40.2529,152.32,424.614)">
                        <path d="M0.196,0.01C0.143,0.01 0.103,-0.005 0.076,-0.035C0.048,-0.065 0.034,-0.107 0.034,-0.162L0.034,-0.538C0.034,-0.593 0.048,-0.635 0.076,-0.665C0.103,-0.695 0.143,-0.71 0.196,-0.71C0.249,-0.71 0.289,-0.695 0.317,-0.665C0.344,-0.635 0.358,-0.593 0.358,-0.538L0.358,-0.464L0.254,-0.464L0.254,-0.545C0.254,-0.588 0.236,-0.61 0.199,-0.61C0.162,-0.61 0.144,-0.588 0.144,-0.545L0.144,-0.154C0.144,-0.111 0.162,-0.09 0.199,-0.09C0.236,-0.09 0.254,-0.111 0.254,-0.154L0.254,-0.261L0.358,-0.261L0.358,-0.162C0.358,-0.107 0.344,-0.065 0.317,-0.035C0.289,-0.005 0.249,0.01 0.196,0.01Z" style="fill:white;fill-rule:nonzero;"/>
                    </g>
                    <g transform="matrix(40.2529,0,0,40.2529,174.177,424.614)">
                        <path d="M0.041,-0.7L0.151,-0.7L0.151,-0.1L0.332,-0.1L0.332,-0L0.041,-0L0.041,-0.7Z" style="fill:white;fill-rule:nonzero;"/>
                    </g>
                    <g transform="matrix(40.2529,0,0,40.2529,187.863,424.614)">
                        <path d="M0.2,0.01C0.146,0.01 0.105,-0.005 0.076,-0.036C0.047,-0.067 0.033,-0.11 0.033,-0.166L0.033,-0.534C0.033,-0.59 0.047,-0.633 0.076,-0.664C0.105,-0.695 0.146,-0.71 0.2,-0.71C0.254,-0.71 0.295,-0.695 0.324,-0.664C0.353,-0.633 0.367,-0.59 0.367,-0.534L0.367,-0.166C0.367,-0.11 0.353,-0.067 0.324,-0.036C0.295,-0.005 0.254,0.01 0.2,0.01ZM0.2,-0.09C0.238,-0.09 0.257,-0.113 0.257,-0.159L0.257,-0.541C0.257,-0.587 0.238,-0.61 0.2,-0.61C0.162,-0.61 0.143,-0.587 0.143,-0.541L0.143,-0.159C0.143,-0.113 0.162,-0.09 0.2,-0.09Z" style="fill:white;fill-rule:nonzero;"/>
                    </g>
                    <g transform="matrix(40.2529,0,0,40.2529,203.884,424.614)">
                        <path d="M0.126,-0.7L0.275,-0.7L0.389,-0L0.279,-0L0.259,-0.139L0.259,-0.137L0.134,-0.137L0.114,-0L0.012,-0L0.126,-0.7ZM0.246,-0.232L0.197,-0.578L0.195,-0.578L0.147,-0.232L0.246,-0.232Z" style="fill:white;fill-rule:nonzero;"/>
                    </g>
                    <g transform="matrix(40.2529,0,0,40.2529,220.026,424.614)">
                        <path d="M0.041,-0.7L0.209,-0.7C0.264,-0.7 0.305,-0.685 0.332,-0.656C0.359,-0.627 0.373,-0.584 0.373,-0.527L0.373,-0.173C0.373,-0.116 0.359,-0.073 0.332,-0.044C0.305,-0.015 0.264,-0 0.209,-0L0.041,-0L0.041,-0.7ZM0.207,-0.1C0.225,-0.1 0.239,-0.105 0.249,-0.116C0.258,-0.127 0.263,-0.144 0.263,-0.168L0.263,-0.532C0.263,-0.556 0.258,-0.573 0.249,-0.584C0.239,-0.595 0.225,-0.6 0.207,-0.6L0.151,-0.6L0.151,-0.1L0.207,-0.1Z" style="fill:white;fill-rule:nonzero;"/>
                    </g>
                    <g transform="matrix(40.2529,0,0,40.2529,236.368,424.614)">
                        <rect x="0.041" y="-0.7" width="0.11" height="0.7" style="fill:white;fill-rule:nonzero;"/>
                    </g>
                    <g transform="matrix(40.2529,0,0,40.2529,244.097,424.614)">
                        <path d="M0.041,-0.7L0.179,-0.7L0.286,-0.281L0.288,-0.281L0.288,-0.7L0.386,-0.7L0.386,-0L0.273,-0L0.141,-0.511L0.139,-0.511L0.139,-0L0.041,-0L0.041,-0.7Z" style="fill:white;fill-rule:nonzero;"/>
                    </g>
                    <g transform="matrix(40.2529,0,0,40.2529,261.285,424.614)">
                        <path d="M0.197,0.01C0.144,0.01 0.103,-0.005 0.075,-0.036C0.047,-0.066 0.033,-0.109 0.033,-0.166L0.033,-0.534C0.033,-0.591 0.047,-0.634 0.075,-0.665C0.103,-0.695 0.144,-0.71 0.197,-0.71C0.25,-0.71 0.291,-0.695 0.319,-0.665C0.347,-0.634 0.361,-0.591 0.361,-0.534L0.361,-0.474L0.257,-0.474L0.257,-0.541C0.257,-0.587 0.238,-0.61 0.2,-0.61C0.162,-0.61 0.143,-0.587 0.143,-0.541L0.143,-0.158C0.143,-0.113 0.162,-0.09 0.2,-0.09C0.238,-0.09 0.257,-0.113 0.257,-0.158L0.257,-0.295L0.202,-0.295L0.202,-0.395L0.361,-0.395L0.361,-0.166C0.361,-0.109 0.347,-0.066 0.319,-0.036C0.291,-0.005 0.25,0.01 0.197,0.01Z" style="fill:white;fill-rule:nonzero;"/>
                    </g>
                    <g transform="matrix(40.2529,0,0,40.2529,283.464,424.614)">
                        <path d="M0.184,0.01C0.131,0.01 0.09,-0.005 0.063,-0.036C0.036,-0.066 0.022,-0.109 0.022,-0.166L0.022,-0.206L0.126,-0.206L0.126,-0.158C0.126,-0.113 0.145,-0.09 0.183,-0.09C0.202,-0.09 0.216,-0.095 0.226,-0.107C0.235,-0.117 0.24,-0.135 0.24,-0.16C0.24,-0.189 0.233,-0.215 0.22,-0.238C0.207,-0.26 0.182,-0.287 0.146,-0.318C0.101,-0.358 0.069,-0.394 0.051,-0.427C0.033,-0.459 0.024,-0.495 0.024,-0.536C0.024,-0.591 0.038,-0.634 0.066,-0.665C0.094,-0.695 0.135,-0.71 0.188,-0.71C0.241,-0.71 0.281,-0.695 0.308,-0.665C0.335,-0.634 0.348,-0.591 0.348,-0.534L0.348,-0.505L0.244,-0.505L0.244,-0.541C0.244,-0.565 0.239,-0.583 0.23,-0.594C0.221,-0.604 0.207,-0.61 0.189,-0.61C0.152,-0.61 0.134,-0.588 0.134,-0.543C0.134,-0.518 0.141,-0.494 0.155,-0.472C0.168,-0.45 0.193,-0.423 0.229,-0.392C0.275,-0.352 0.307,-0.316 0.324,-0.283C0.341,-0.25 0.35,-0.212 0.35,-0.168C0.35,-0.111 0.336,-0.067 0.308,-0.036C0.279,-0.005 0.238,0.01 0.184,0.01Z" style="fill:white;fill-rule:nonzero;"/>
                    </g>
                    <g transform="matrix(40.2529,0,0,40.2529,298.197,424.614)">
                        <path d="M0.142,-0.298L0.009,-0.7L0.126,-0.7L0.201,-0.443L0.203,-0.443L0.278,-0.7L0.385,-0.7L0.252,-0.298L0.252,-0L0.142,-0L0.142,-0.298Z" style="fill:white;fill-rule:nonzero;"/>
                    </g>
                    <g transform="matrix(40.2529,0,0,40.2529,313.412,424.614)">
                        <path d="M0.184,0.01C0.131,0.01 0.09,-0.005 0.063,-0.036C0.036,-0.066 0.022,-0.109 0.022,-0.166L0.022,-0.206L0.126,-0.206L0.126,-0.158C0.126,-0.113 0.145,-0.09 0.183,-0.09C0.202,-0.09 0.216,-0.095 0.226,-0.107C0.235,-0.117 0.24,-0.135 0.24,-0.16C0.24,-0.189 0.233,-0.215 0.22,-0.238C0.207,-0.26 0.182,-0.287 0.146,-0.318C0.101,-0.358 0.069,-0.394 0.051,-0.427C0.033,-0.459 0.024,-0.495 0.024,-0.536C0.024,-0.591 0.038,-0.634 0.066,-0.665C0.094,-0.695 0.135,-0.71 0.188,-0.71C0.241,-0.71 0.281,-0.695 0.308,-0.665C0.335,-0.634 0.348,-0.591 0.348,-0.534L0.348,-0.505L0.244,-0.505L0.244,-0.541C0.244,-0.565 0.239,-0.583 0.23,-0.594C0.221,-0.604 0.207,-0.61 0.189,-0.61C0.152,-0.61 0.134,-0.588 0.134,-0.543C0.134,-0.518 0.141,-0.494 0.155,-0.472C0.168,-0.45 0.193,-0.423 0.229,-0.392C0.275,-0.352 0.307,-0.316 0.324,-0.283C0.341,-0.25 0.35,-0.212 0.35,-0.168C0.35,-0.111 0.336,-0.067 0.308,-0.036C0.279,-0.005 0.238,0.01 0.184,0.01Z" style="fill:white;fill-rule:nonzero;"/>
                    </g>
                    <g transform="matrix(40.2529,0,0,40.2529,328.386,424.614)">
                        <path d="M0.127,-0.6L0.012,-0.6L0.012,-0.7L0.352,-0.7L0.352,-0.6L0.237,-0.6L0.237,-0L0.127,-0L0.127,-0.6Z" style="fill:white;fill-rule:nonzero;"/>
                    </g>
                    <g transform="matrix(40.2529,0,0,40.2529,343.038,424.614)">
                        <path d="M0.041,-0.7L0.341,-0.7L0.341,-0.6L0.151,-0.6L0.151,-0.415L0.302,-0.415L0.302,-0.315L0.151,-0.315L0.151,-0.1L0.341,-0.1L0.341,-0L0.041,-0L0.041,-0.7Z" style="fill:white;fill-rule:nonzero;"/>
                    </g>
                    <g transform="matrix(40.2529,0,0,40.2529,357.65,424.614)">
                        <path d="M0.041,-0.7L0.198,-0.7L0.268,-0.199L0.27,-0.199L0.34,-0.7L0.497,-0.7L0.497,-0L0.393,-0L0.393,-0.53L0.391,-0.53L0.311,-0L0.219,-0L0.139,-0.53L0.137,-0.53L0.137,-0L0.041,-0L0.041,-0.7Z" style="fill:white;fill-rule:nonzero;"/>
                    </g>
                </g>
            </g>
            <g id="Wizzo.dev-TapTo" serif:id="Wizzo.dev/TapTo" transform="matrix(1,0,0,1,3.42117,20.5221)">
                <g transform="matrix(1.08795,0,0,0.844885,167.891,-168.091)">
                    <path d="M386,303.625L386,316.897C386,324.681 381.093,331 375.049,331L250.951,331C244.907,331 240,324.681 240,316.897L240,303.625C240,295.841 244.907,289.522 250.951,289.522L375.049,289.522C381.093,289.522 386,295.841 386,303.625Z" style="fill:white;"/>
                </g>
                <g transform="matrix(0.93161,0,0,0.93161,327.505,-292.781)">
                    <path d="M121.688,405.83L124.532,405.83L125.847,420.267L125.901,420.267L127.296,405.83L130.517,405.83L131.912,420.267L131.966,420.267L133.281,405.83L135.83,405.83L133.925,424.614L130.248,424.614L128.906,411.948L128.853,411.948L127.511,424.614L123.593,424.614L121.688,405.83Z"/>
                    <rect x="137.333" y="405.83" width="2.952" height="18.785"/>
                    <path d="M141.895,421.985L147.369,408.513L142.163,408.513L142.163,405.83L150.536,405.83L150.536,408.46L145.061,421.931L150.536,421.931L150.536,424.614L141.895,424.614L141.895,421.985Z"/>
                    <path d="M151.743,421.985L157.218,408.513L152.012,408.513L152.012,405.83L160.384,405.83L160.384,408.46L154.91,421.931L160.384,421.931L160.384,424.614L151.743,424.614L151.743,421.985Z"/>
                    <path d="M166.315,424.883C164.866,424.883 163.756,424.471 162.987,423.648C162.218,422.825 161.833,421.663 161.833,420.16L161.833,410.284C161.833,408.782 162.218,407.619 162.987,406.796C163.756,405.973 164.866,405.561 166.315,405.561C167.764,405.561 168.873,405.973 169.642,406.796C170.412,407.619 170.796,408.782 170.796,410.284L170.796,420.16C170.796,421.663 170.412,422.825 169.642,423.648C168.873,424.471 167.764,424.883 166.315,424.883ZM166.315,422.199C167.335,422.199 167.844,421.582 167.844,420.348L167.844,410.097C167.844,408.862 167.335,408.245 166.315,408.245C165.295,408.245 164.785,408.862 164.785,410.097L164.785,420.348C164.785,421.582 165.295,422.199 166.315,422.199Z"/>
                    <rect x="172.621" y="421.77" width="2.845" height="2.845"/>
                    <path d="M177.666,405.83L182.174,405.83C183.641,405.83 184.742,406.223 185.475,407.01C186.209,407.798 186.575,408.952 186.575,410.472L186.575,419.972C186.575,421.493 186.209,422.646 185.475,423.434C184.742,424.221 183.641,424.614 182.174,424.614L177.666,424.614L177.666,405.83ZM182.121,421.931C182.604,421.931 182.975,421.788 183.234,421.502C183.494,421.215 183.624,420.75 183.624,420.106L183.624,410.338C183.624,409.694 183.494,409.229 183.234,408.943C182.975,408.656 182.604,408.513 182.121,408.513L180.618,408.513L180.618,421.931L182.121,421.931Z"/>
                    <path d="M188.561,405.83L196.612,405.83L196.612,408.513L191.513,408.513L191.513,413.478L195.565,413.478L195.565,416.161L191.513,416.161L191.513,421.931L196.612,421.931L196.612,424.614L188.561,424.614L188.561,405.83Z"/>
                    <path d="M197.524,405.83L200.503,405.83L202.435,420.401L202.489,420.401L204.421,405.83L207.131,405.83L204.287,424.614L200.369,424.614L197.524,405.83Z"/>
                    <path d="M214.43,405.83L216.98,405.83L209.573,424.614L207.024,424.614L214.43,405.83Z"/>
                    <path d="M220.898,408.513L217.812,408.513L217.812,405.83L226.936,405.83L226.936,408.513L223.85,408.513L223.85,424.614L220.898,424.614L220.898,408.513Z"/>
                    <path d="M229.404,405.83L233.403,405.83L236.462,424.614L233.51,424.614L232.974,420.884L232.974,420.938L229.619,420.938L229.082,424.614L226.345,424.614L229.404,405.83ZM232.625,418.389L231.31,409.104L231.256,409.104L229.968,418.389L232.625,418.389Z"/>
                    <path d="M237.884,405.83L242.232,405.83C243.699,405.83 244.799,406.223 245.532,407.01C246.266,407.798 246.633,408.952 246.633,410.472L246.633,412.324C246.633,413.845 246.266,414.998 245.532,415.786C244.799,416.573 243.699,416.966 242.232,416.966L240.836,416.966L240.836,424.614L237.884,424.614L237.884,405.83ZM242.232,414.283C242.715,414.283 243.077,414.149 243.319,413.88C243.56,413.612 243.681,413.156 243.681,412.512L243.681,410.284C243.681,409.64 243.56,409.184 243.319,408.916C243.077,408.647 242.715,408.513 242.232,408.513L240.836,408.513L240.836,414.283L242.232,414.283Z"/>
                    <path d="M250.604,408.513L247.518,408.513L247.518,405.83L256.642,405.83L256.642,408.513L253.556,408.513L253.556,424.614L250.604,424.614L250.604,408.513Z"/>
                    <path d="M262.224,424.883C260.775,424.883 259.666,424.471 258.896,423.648C258.127,422.825 257.743,421.663 257.743,420.16L257.743,410.284C257.743,408.782 258.127,407.619 258.896,406.796C259.666,405.973 260.775,405.561 262.224,405.561C263.673,405.561 264.782,405.973 265.552,406.796C266.321,407.619 266.706,408.782 266.706,410.284L266.706,420.16C266.706,421.663 266.321,422.825 265.552,423.648C264.782,424.471 263.673,424.883 262.224,424.883ZM262.224,422.199C263.244,422.199 263.754,421.582 263.754,420.348L263.754,410.097C263.754,408.862 263.244,408.245 262.224,408.245C261.204,408.245 260.694,408.862 260.694,410.097L260.694,420.348C260.694,421.582 261.204,422.199 262.224,422.199Z"/>
                </g>
            </g>
            <g id="TapTo1" serif:id="TapTo" transform="matrix(0.131842,0,0,0.131855,-68.5325,-78.8357)">
                <path d="M2802.55,1735.85L2287.5,1735.85L2287.5,2116.4L2141.68,2116.4L2141.68,1735.85L1660.1,1735.85L1660.1,1600.93L2802.55,1600.93L2802.55,1735.85ZM2802.55,1735.85L2937.47,1735.85L2937.47,2073.87C2937.47,2187.9 2845.02,2280.34 2730.99,2280.34L1830.71,2280.34L1830.71,2145.43L2695.54,2145.43C2754.64,2145.43 2802.55,2097.52 2802.55,2038.41L2802.55,1735.85ZM2920.66,1726.65C2920.66,1666.6 2871.8,1617.75 2811.76,1617.75L2811.76,1600.93C2881.07,1600.93 2937.47,1657.33 2937.47,1726.65L2920.66,1726.65ZM2883.92,1726.65C2883.92,1686.85 2851.55,1654.48 2811.76,1654.48L2811.76,1637.67C2860.82,1637.67 2900.73,1677.59 2900.73,1726.65L2883.92,1726.65ZM2811.76,1691.22L2811.76,1674.41C2840.56,1674.41 2863.99,1697.84 2863.99,1726.64L2847.18,1726.64C2847.18,1707.11 2831.29,1691.22 2811.76,1691.22ZM1636.61,1735.85L1155.02,1735.85L1155.02,2038.42C1155.02,2097.52 1202.93,2145.43 1262.03,2145.43L1636.61,2145.43L1636.61,2280.34L1215.67,2280.34C1101.64,2280.34 1009.2,2187.9 1009.2,2073.87L1009.2,1735.85L870.48,1735.85L870.48,1600.93L1636.61,1600.93L1636.61,1735.85ZM1660.1,1764.88L2108.23,1764.88L2108.23,2028.63C2108.23,2077.11 2068.93,2116.4 2020.46,2116.4L1830.71,2116.4L1830.71,1981.48L1943.74,1981.48C1954.05,1981.48 1962.41,1973.13 1962.41,1962.82L1962.41,1899.8L1805.92,1899.8L1805.92,2280.34L1660.1,2280.34L1660.1,1764.88ZM2769.09,1764.88L2769.09,2028.63C2769.09,2077.11 2729.8,2116.4 2681.33,2116.4L2408.73,2116.4C2360.26,2116.4 2320.96,2077.11 2320.96,2028.63L2320.96,1764.88L2769.09,1764.88ZM2623.27,1899.8L2466.78,1899.8L2466.78,1962.82C2466.78,1973.13 2475.14,1981.48 2485.45,1981.48L2604.61,1981.48C2614.92,1981.48 2623.27,1973.13 2623.27,1962.82L2623.27,1899.8ZM1188.48,1764.88L1636.61,1764.88L1636.61,2116.4L1490.79,2116.4L1490.79,1899.8L1334.3,1899.8L1334.3,1962.82C1334.3,1973.13 1342.65,1981.48 1352.96,1981.48L1465.99,1981.48L1465.99,2116.4L1276.24,2116.4C1227.77,2116.4 1188.48,2077.11 1188.48,2028.63L1188.48,1764.88Z" style="fill:white;"/>
            </g>
            <g transform="matrix(1,0,0,0.761104,18.75,23.0945)">
                <path d="M585,21.84L585,63L15,63L15,21.84C15,17.513 17.673,14 20.966,14L579.034,14C582.327,14 585,17.513 585,21.84Z"/>
            </g>
            <g transform="matrix(1,0,0,1,0.75,-13)">
                <g transform="matrix(1.10395,0,0,2.01793,-64.3566,-40.9915)">
                    <path d="M110.836,44.596L110.836,59.463L102.683,59.463L102.683,44.596L110.836,44.596ZM106.759,56.489C106.01,56.489 105.401,56.822 105.401,57.233C105.401,57.643 106.01,57.976 106.759,57.976C107.509,57.976 108.118,57.643 108.118,57.233C108.118,56.822 107.509,56.489 106.759,56.489Z" style="fill:url(#_Linear1);"/>
                </g>
                <g transform="matrix(1.10395,0,0,2.01793,64.6434,-40.9915)">
                    <path d="M110.836,44.596L110.836,59.463L102.683,59.463L102.683,44.596L110.836,44.596ZM106.759,56.489C106.01,56.489 105.401,56.822 105.401,57.233C105.401,57.643 106.01,57.976 106.759,57.976C107.509,57.976 108.118,57.643 108.118,57.233C108.118,56.822 107.509,56.489 106.759,56.489Z" style="fill:url(#_Linear2);"/>
                </g>
                <g transform="matrix(1.10395,0,0,2.01793,361.643,-40.9915)">
                    <path d="M110.836,44.596L110.836,59.463L102.683,59.463L102.683,44.596L110.836,44.596ZM106.759,56.489C106.01,56.489 105.401,56.822 105.401,57.233C105.401,57.643 106.01,57.976 106.759,57.976C107.509,57.976 108.118,57.643 108.118,57.233C108.118,56.822 107.509,56.489 106.759,56.489Z" style="fill:url(#_Linear3);"/>
                </g>
                <g transform="matrix(1.10395,0,0,2.01793,206.643,-40.9915)">
                    <path d="M110.836,44.596L110.836,59.463L102.683,59.463L102.683,44.596L110.836,44.596ZM106.759,56.489C106.01,56.489 105.401,56.822 105.401,57.233C105.401,57.643 106.01,57.976 106.759,57.976C107.509,57.976 108.118,57.643 108.118,57.233C108.118,56.822 107.509,56.489 106.759,56.489Z" style="fill:url(#_Linear4);"/>
                </g>
                <g transform="matrix(1.10395,0,0,2.01793,-25.3566,-40.9915)">
                    <path d="M110.836,44.596L110.836,59.463L102.683,59.463L102.683,44.596L110.836,44.596ZM106.759,56.489C106.01,56.489 105.401,56.822 105.401,57.233C105.401,57.643 106.01,57.976 106.759,57.976C107.509,57.976 108.118,57.643 108.118,57.233C108.118,56.822 107.509,56.489 106.759,56.489Z" style="fill:url(#_Linear5);"/>
                </g>
                <g transform="matrix(1.10395,0,0,2.01793,103.643,-40.9915)">
                    <path d="M110.836,44.596L110.836,59.463L102.683,59.463L102.683,44.596L110.836,44.596ZM106.759,56.489C106.01,56.489 105.401,56.822 105.401,57.233C105.401,57.643 106.01,57.976 106.759,57.976C107.509,57.976 108.118,57.643 108.118,57.233C108.118,56.822 107.509,56.489 106.759,56.489Z" style="fill:url(#_Linear6);"/>
                </g>
                <g transform="matrix(1.10395,0,0,2.01793,400.643,-40.9915)">
                    <path d="M110.836,44.596L110.836,59.463L102.683,59.463L102.683,44.596L110.836,44.596ZM106.759,56.489C106.01,56.489 105.401,56.822 105.401,57.233C105.401,57.643 106.01,57.976 106.759,57.976C107.509,57.976 108.118,57.643 108.118,57.233C108.118,56.822 107.509,56.489 106.759,56.489Z" style="fill:url(#_Linear7);"/>
                </g>
                <g transform="matrix(1.10395,0,0,2.01793,245.643,-40.9915)">
                    <path d="M110.836,44.596L110.836,59.463L102.683,59.463L102.683,44.596L110.836,44.596ZM106.759,56.489C106.01,56.489 105.401,56.822 105.401,57.233C105.401,57.643 106.01,57.976 106.759,57.976C107.509,57.976 108.118,57.643 108.118,57.233C108.118,56.822 107.509,56.489 106.759,56.489Z" style="fill:url(#_Linear8);"/>
                </g>
                <g transform="matrix(1.10395,0,0,2.01793,12.6434,-40.9915)">
                    <path d="M110.836,44.596L110.836,59.463L102.683,59.463L102.683,44.596L110.836,44.596ZM106.759,56.489C106.01,56.489 105.401,56.822 105.401,57.233C105.401,57.643 106.01,57.976 106.759,57.976C107.509,57.976 108.118,57.643 108.118,57.233C108.118,56.822 107.509,56.489 106.759,56.489Z" style="fill:url(#_Linear9);"/>
                </g>
                <g transform="matrix(1.10395,0,0,2.01793,141.643,-40.9915)">
                    <path d="M110.836,44.596L110.836,59.463L102.683,59.463L102.683,44.596L110.836,44.596ZM106.759,56.489C106.01,56.489 105.401,56.822 105.401,57.233C105.401,57.643 106.01,57.976 106.759,57.976C107.509,57.976 108.118,57.643 108.118,57.233C108.118,56.822 107.509,56.489 106.759,56.489Z" style="fill:url(#_Linear10);"/>
                </g>
                <g transform="matrix(1.10395,0,0,2.01793,438.643,-40.9915)">
                    <path d="M110.836,44.596L110.836,59.463L102.683,59.463L102.683,44.596L110.836,44.596ZM106.759,56.489C106.01,56.489 105.401,56.822 105.401,57.233C105.401,57.643 106.01,57.976 106.759,57.976C107.509,57.976 108.118,57.643 108.118,57.233C108.118,56.822 107.509,56.489 106.759,56.489Z" style="fill:url(#_Linear11);"/>
                </g>
                <g transform="matrix(1.10395,0,0,2.01793,283.643,-40.9915)">
                    <path d="M110.836,44.596L110.836,59.463L102.683,59.463L102.683,44.596L110.836,44.596ZM106.759,56.489C106.01,56.489 105.401,56.822 105.401,57.233C105.401,57.643 106.01,57.976 106.759,57.976C107.509,57.976 108.118,57.643 108.118,57.233C108.118,56.822 107.509,56.489 106.759,56.489Z" style="fill:url(#_Linear12);"/>
                </g>
                <g transform="matrix(1.10395,0,0,2.01793,38.6434,-40.9915)">
                    <path d="M110.836,44.596L110.836,59.463L102.683,59.463L102.683,44.596L110.836,44.596ZM106.759,56.489C106.01,56.489 105.401,56.822 105.401,57.233C105.401,57.643 106.01,57.976 106.759,57.976C107.509,57.976 108.118,57.643 108.118,57.233C108.118,56.822 107.509,56.489 106.759,56.489Z" style="fill:url(#_Linear13);"/>
                </g>
                <g transform="matrix(1.10395,0,0,2.01793,335.643,-40.9915)">
                    <path d="M110.836,44.596L110.836,59.463L102.683,59.463L102.683,44.596L110.836,44.596ZM106.759,56.489C106.01,56.489 105.401,56.822 105.401,57.233C105.401,57.643 106.01,57.976 106.759,57.976C107.509,57.976 108.118,57.643 108.118,57.233C108.118,56.822 107.509,56.489 106.759,56.489Z" style="fill:url(#_Linear14);"/>
                </g>
                <g transform="matrix(1.10395,0,0,2.01793,167.643,-40.9915)">
                    <path d="M110.836,44.596L110.836,59.463L102.683,59.463L102.683,44.596L110.836,44.596ZM106.759,56.489C106.01,56.489 105.401,56.822 105.401,57.233C105.401,57.643 106.01,57.976 106.759,57.976C107.509,57.976 108.118,57.643 108.118,57.233C108.118,56.822 107.509,56.489 106.759,56.489Z" style="fill:url(#_Linear15);"/>
                </g>
                <g transform="matrix(1.10395,0,0,2.01793,464.643,-40.9915)">
                    <path d="M110.836,44.596L110.836,59.463L102.683,59.463L102.683,44.596L110.836,44.596ZM106.759,56.489C106.01,56.489 105.401,56.822 105.401,57.233C105.401,57.643 106.01,57.976 106.759,57.976C107.509,57.976 108.118,57.643 108.118,57.233C108.118,56.822 107.509,56.489 106.759,56.489Z" style="fill:url(#_Linear16);"/>
                </g>
                <g transform="matrix(1.10395,0,0,2.01793,309.643,-40.9915)">
                    <path d="M110.836,44.596L110.836,59.463L102.683,59.463L102.683,44.596L110.836,44.596ZM106.759,56.489C106.01,56.489 105.401,56.822 105.401,57.233C105.401,57.643 106.01,57.976 106.759,57.976C107.509,57.976 108.118,57.643 108.118,57.233C108.118,56.822 107.509,56.489 106.759,56.489Z" style="fill:url(#_Linear17);"/>
                </g>
                <g transform="matrix(1.10395,0,0,2.01793,-12.3566,-40.9915)">
                    <path d="M110.836,44.596L110.836,59.463L102.683,59.463L102.683,44.596L110.836,44.596ZM106.759,56.489C106.01,56.489 105.401,56.822 105.401,57.233C105.401,57.643 106.01,57.976 106.759,57.976C107.509,57.976 108.118,57.643 108.118,57.233C108.118,56.822 107.509,56.489 106.759,56.489Z" style="fill:url(#_Linear18);"/>
                </g>
                <g transform="matrix(1.10395,0,0,2.01793,116.643,-40.9915)">
                    <path d="M110.836,44.596L110.836,59.463L102.683,59.463L102.683,44.596L110.836,44.596ZM106.759,56.489C106.01,56.489 105.401,56.822 105.401,57.233C105.401,57.643 106.01,57.976 106.759,57.976C107.509,57.976 108.118,57.643 108.118,57.233C108.118,56.822 107.509,56.489 106.759,56.489Z" style="fill:url(#_Linear19);"/>
                </g>
                <g transform="matrix(1.10395,0,0,2.01793,413.643,-40.9915)">
                    <path d="M110.836,44.596L110.836,59.463L102.683,59.463L102.683,44.596L110.836,44.596ZM106.759,56.489C106.01,56.489 105.401,56.822 105.401,57.233C105.401,57.643 106.01,57.976 106.759,57.976C107.509,57.976 108.118,57.643 108.118,57.233C108.118,56.822 107.509,56.489 106.759,56.489Z" style="fill:url(#_Linear20);"/>
                </g>
                <g transform="matrix(1.10395,0,0,2.01793,258.643,-40.9915)">
                    <path d="M110.836,44.596L110.836,59.463L102.683,59.463L102.683,44.596L110.836,44.596ZM106.759,56.489C106.01,56.489 105.401,56.822 105.401,57.233C105.401,57.643 106.01,57.976 106.759,57.976C107.509,57.976 108.118,57.643 108.118,57.233C108.118,56.822 107.509,56.489 106.759,56.489Z" style="fill:url(#_Linear21);"/>
                </g>
                <g transform="matrix(1.10395,0,0,2.01793,25.6434,-40.9915)">
                    <path d="M110.836,44.596L110.836,59.463L102.683,59.463L102.683,44.596L110.836,44.596ZM106.759,56.489C106.01,56.489 105.401,56.822 105.401,57.233C105.401,57.643 106.01,57.976 106.759,57.976C107.509,57.976 108.118,57.643 108.118,57.233C108.118,56.822 107.509,56.489 106.759,56.489Z" style="fill:url(#_Linear22);"/>
                </g>
                <g transform="matrix(1.10395,0,0,2.01793,154.643,-40.9915)">
                    <path d="M110.836,44.596L110.836,59.463L102.683,59.463L102.683,44.596L110.836,44.596ZM106.759,56.489C106.01,56.489 105.401,56.822 105.401,57.233C105.401,57.643 106.01,57.976 106.759,57.976C107.509,57.976 108.118,57.643 108.118,57.233C108.118,56.822 107.509,56.489 106.759,56.489Z" style="fill:url(#_Linear23);"/>
                </g>
                <g transform="matrix(1.10395,0,0,2.01793,451.643,-40.9915)">
                    <path d="M110.836,44.596L110.836,59.463L102.683,59.463L102.683,44.596L110.836,44.596ZM106.759,56.489C106.01,56.489 105.401,56.822 105.401,57.233C105.401,57.643 106.01,57.976 106.759,57.976C107.509,57.976 108.118,57.643 108.118,57.233C108.118,56.822 107.509,56.489 106.759,56.489Z" style="fill:url(#_Linear24);"/>
                </g>
                <g transform="matrix(1.10395,0,0,2.01793,296.643,-40.9915)">
                    <path d="M110.836,44.596L110.836,59.463L102.683,59.463L102.683,44.596L110.836,44.596ZM106.759,56.489C106.01,56.489 105.401,56.822 105.401,57.233C105.401,57.643 106.01,57.976 106.759,57.976C107.509,57.976 108.118,57.643 108.118,57.233C108.118,56.822 107.509,56.489 106.759,56.489Z" style="fill:url(#_Linear25);"/>
                </g>
                <g transform="matrix(1.10395,0,0,2.01793,51.6434,-40.9915)">
                    <path d="M110.836,44.596L110.836,59.463L102.683,59.463L102.683,44.596L110.836,44.596ZM106.759,56.489C106.01,56.489 105.401,56.822 105.401,57.233C105.401,57.643 106.01,57.976 106.759,57.976C107.509,57.976 108.118,57.643 108.118,57.233C108.118,56.822 107.509,56.489 106.759,56.489Z" style="fill:url(#_Linear26);"/>
                </g>
                <g transform="matrix(1.10395,0,0,2.01793,348.643,-40.9915)">
                    <path d="M110.836,44.596L110.836,59.463L102.683,59.463L102.683,44.596L110.836,44.596ZM106.759,56.489C106.01,56.489 105.401,56.822 105.401,57.233C105.401,57.643 106.01,57.976 106.759,57.976C107.509,57.976 108.118,57.643 108.118,57.233C108.118,56.822 107.509,56.489 106.759,56.489Z" style="fill:url(#_Linear27);"/>
                </g>
                <g transform="matrix(1.10395,0,0,2.01793,193.643,-40.9915)">
                    <path d="M110.836,44.596L110.836,59.463L102.683,59.463L102.683,44.596L110.836,44.596ZM106.759,56.489C106.01,56.489 105.401,56.822 105.401,57.233C105.401,57.643 106.01,57.976 106.759,57.976C107.509,57.976 108.118,57.643 108.118,57.233C108.118,56.822 107.509,56.489 106.759,56.489Z" style="fill:url(#_Linear28);"/>
                </g>
                <g transform="matrix(1.10395,0,0,2.01793,180.643,-40.9915)">
                    <path d="M110.836,44.596L110.836,59.463L102.683,59.463L102.683,44.596L110.836,44.596ZM106.759,56.489C106.01,56.489 105.401,56.822 105.401,57.233C105.401,57.643 106.01,57.976 106.759,57.976C107.509,57.976 108.118,57.643 108.118,57.233C108.118,56.822 107.509,56.489 106.759,56.489Z" style="fill:url(#_Linear29);"/>
                </g>
                <g transform="matrix(1.10395,0,0,2.01793,322.643,-40.9915)">
                    <path d="M110.836,44.596L110.836,59.463L102.683,59.463L102.683,44.596L110.836,44.596ZM106.759,56.489C106.01,56.489 105.401,56.822 105.401,57.233C105.401,57.643 106.01,57.976 106.759,57.976C107.509,57.976 108.118,57.643 108.118,57.233C108.118,56.822 107.509,56.489 106.759,56.489Z" style="fill:url(#_Linear30);"/>
                </g>
                <g transform="matrix(1,0,0,1,10.3788,2)">
                    <path d="M54.539,77L51.621,77L51.621,47L60.621,47L60.621,77L57.905,77L56.733,82.044L55.711,82.044L54.539,77ZM56.121,71C55.293,71 54.621,71.672 54.621,72.5C54.621,73.328 55.293,74 56.121,74C56.949,74 57.621,73.328 57.621,72.5C57.621,71.672 56.949,71 56.121,71Z" style="fill:url(#_Linear31);"/>
                </g>
                <g transform="matrix(1,0,0,1,139.379,2)">
                    <path d="M54.539,77L51.621,77L51.621,47L60.621,47L60.621,77L57.905,77L56.733,82.044L55.711,82.044L54.539,77ZM56.121,71C55.293,71 54.621,71.672 54.621,72.5C54.621,73.328 55.293,74 56.121,74C56.949,74 57.621,73.328 57.621,72.5C57.621,71.672 56.949,71 56.121,71Z" style="fill:url(#_Linear32);"/>
                </g>
                <g transform="matrix(1,0,0,1,436.379,2)">
                    <path d="M54.539,77L51.621,77L51.621,47L60.621,47L60.621,77L57.905,77L56.733,82.044L55.711,82.044L54.539,77ZM56.121,71C55.293,71 54.621,71.672 54.621,72.5C54.621,73.328 55.293,74 56.121,74C56.949,74 57.621,73.328 57.621,72.5C57.621,71.672 56.949,71 56.121,71Z" style="fill:url(#_Linear33);"/>
                </g>
                <g transform="matrix(1,0,0,1,281.379,2)">
                    <path d="M54.539,77L51.621,77L51.621,47L60.621,47L60.621,77L57.905,77L56.733,82.044L55.711,82.044L54.539,77ZM56.121,71C55.293,71 54.621,71.672 54.621,72.5C54.621,73.328 55.293,74 56.121,74C56.949,74 57.621,73.328 57.621,72.5C57.621,71.672 56.949,71 56.121,71Z" style="fill:url(#_Linear34);"/>
                </g>
                <g transform="matrix(1,0,0,1,62.3788,2)">
                    <path d="M53.539,77L51.621,77L51.621,47L60.621,47L60.621,77L55.905,77L54.733,82.044L53.711,82.044L53.539,77ZM56.121,71C55.293,71 54.621,71.672 54.621,72.5C54.621,73.328 55.293,74 56.121,74C56.949,74 57.621,73.328 57.621,72.5C57.621,71.672 56.949,71 56.121,71Z" style="fill:url(#_Linear35);"/>
                </g>
                <g transform="matrix(1,0,0,1,191.379,2)">
                    <path d="M53.539,77L51.621,77L51.621,47L60.621,47L60.621,77L55.905,77L54.733,82.044L53.711,82.044L53.539,77ZM56.121,71C55.293,71 54.621,71.672 54.621,72.5C54.621,73.328 55.293,74 56.121,74C56.949,74 57.621,73.328 57.621,72.5C57.621,71.672 56.949,71 56.121,71Z" style="fill:url(#_Linear36);"/>
                </g>
                <g transform="matrix(1,0,0,1,488.379,2)">
                    <path d="M53.539,77L51.621,77L51.621,47L60.621,47L60.621,77L55.905,77L54.733,82.044L53.711,82.044L53.539,77ZM56.121,71C55.293,71 54.621,71.672 54.621,72.5C54.621,73.328 55.293,74 56.121,74C56.949,74 57.621,73.328 57.621,72.5C57.621,71.672 56.949,71 56.121,71Z" style="fill:url(#_Linear37);"/>
                </g>
                <g transform="matrix(1,0,0,1,333.379,2)">
                    <path d="M53.539,77L51.621,77L51.621,47L60.621,47L60.621,77L55.905,77L54.733,82.044L53.711,82.044L53.539,77ZM56.121,71C55.293,71 54.621,71.672 54.621,72.5C54.621,73.328 55.293,74 56.121,74C56.949,74 57.621,73.328 57.621,72.5C57.621,71.672 56.949,71 56.121,71Z" style="fill:url(#_Linear38);"/>
                </g>
                <g transform="matrix(1,0,0,1,23.3788,2)">
                    <path d="M56.539,77L51.621,77L51.621,47L60.621,47L60.621,77L58.905,77L58.733,82.044L57.711,82.044L56.539,77ZM56.121,71C55.293,71 54.621,71.672 54.621,72.5C54.621,73.328 55.293,74 56.121,74C56.949,74 57.621,73.328 57.621,72.5C57.621,71.672 56.949,71 56.121,71Z" style="fill:url(#_Linear39);"/>
                </g>
                <g transform="matrix(1,0,0,1,152.379,2)">
                    <path d="M56.539,77L51.621,77L51.621,47L60.621,47L60.621,77L58.905,77L58.733,82.044L57.711,82.044L56.539,77ZM56.121,71C55.293,71 54.621,71.672 54.621,72.5C54.621,73.328 55.293,74 56.121,74C56.949,74 57.621,73.328 57.621,72.5C57.621,71.672 56.949,71 56.121,71Z" style="fill:url(#_Linear40);"/>
                </g>
                <g transform="matrix(1,0,0,1,449.379,2)">
                    <path d="M56.539,77L51.621,77L51.621,47L60.621,47L60.621,77L58.905,77L58.733,82.044L57.711,82.044L56.539,77ZM56.121,71C55.293,71 54.621,71.672 54.621,72.5C54.621,73.328 55.293,74 56.121,74C56.949,74 57.621,73.328 57.621,72.5C57.621,71.672 56.949,71 56.121,71Z" style="fill:url(#_Linear41);"/>
                </g>
                <g transform="matrix(1,0,0,1,294.379,2)">
                    <path d="M56.539,77L51.621,77L51.621,47L60.621,47L60.621,77L58.905,77L58.733,82.044L57.711,82.044L56.539,77ZM56.121,71C55.293,71 54.621,71.672 54.621,72.5C54.621,73.328 55.293,74 56.121,74C56.949,74 57.621,73.328 57.621,72.5C57.621,71.672 56.949,71 56.121,71Z" style="fill:url(#_Linear42);"/>
                </g>
            </g>
        </g>
    </g>
    <defs>
        <linearGradient id="_Linear1" x1="0" y1="0" x2="1" y2="0" gradientUnits="userSpaceOnUse" gradientTransform="matrix(-441.145,2.95552e-14,-5.40247e-14,-241.337,563.077,50.0471)"><stop offset="0" style="stop-color:rgb(215,192,0);stop-opacity:1"/><stop offset="0.34" style="stop-color:rgb(207,182,0);stop-opacity:1"/><stop offset="0.62" style="stop-color:rgb(255,255,191);stop-opacity:1"/><stop offset="0.76" style="stop-color:rgb(224,202,0);stop-opacity:1"/><stop offset="1" style="stop-color:rgb(255,239,122);stop-opacity:1"/></linearGradient>
        <linearGradient id="_Linear2" x1="0" y1="0" x2="1" y2="0" gradientUnits="userSpaceOnUse" gradientTransform="matrix(-441.145,2.95552e-14,-5.40247e-14,-241.337,446.224,50.0471)"><stop offset="0" style="stop-color:rgb(215,192,0);stop-opacity:1"/><stop offset="0.34" style="stop-color:rgb(207,182,0);stop-opacity:1"/><stop offset="0.62" style="stop-color:rgb(255,255,191);stop-opacity:1"/><stop offset="0.76" style="stop-color:rgb(224,202,0);stop-opacity:1"/><stop offset="1" style="stop-color:rgb(255,239,122);stop-opacity:1"/></linearGradient>
        <linearGradient id="_Linear3" x1="0" y1="0" x2="1" y2="0" gradientUnits="userSpaceOnUse" gradientTransform="matrix(-441.145,2.95552e-14,-5.40247e-14,-241.337,177.189,50.0471)"><stop offset="0" style="stop-color:rgb(215,192,0);stop-opacity:1"/><stop offset="0.34" style="stop-color:rgb(207,182,0);stop-opacity:1"/><stop offset="0.62" style="stop-color:rgb(255,255,191);stop-opacity:1"/><stop offset="0.76" style="stop-color:rgb(224,202,0);stop-opacity:1"/><stop offset="1" style="stop-color:rgb(255,239,122);stop-opacity:1"/></linearGradient>
        <linearGradient id="_Linear4" x1="0" y1="0" x2="1" y2="0" gradientUnits="userSpaceOnUse" gradientTransform="matrix(-441.145,2.95552e-14,-5.40247e-14,-241.337,317.594,50.0471)"><stop offset="0" style="stop-color:rgb(215,192,0);stop-opacity:1"/><stop offset="0.34" style="stop-color:rgb(207,182,0);stop-opacity:1"/><stop offset="0.62" style="stop-color:rgb(255,255,191);stop-opacity:1"/><stop offset="0.76" style="stop-color:rgb(224,202,0);stop-opacity:1"/><stop offset="1" style="stop-color:rgb(255,239,122);stop-opacity:1"/></linearGradient>
        <linearGradient id="_Linear5" x1="0" y1="0" x2="1" y2="0" gradientUnits="userSpaceOnUse" gradientTransform="matrix(-441.145,2.95552e-14,-5.40247e-14,-241.337,527.749,50.0471)"><stop offset="0" style="stop-color:rgb(215,192,0);stop-opacity:1"/><stop offset="0.34" style="stop-color:rgb(207,182,0);stop-opacity:1"/><stop offset="0.62" style="stop-color:rgb(255,255,191);stop-opacity:1"/><stop offset="0.76" style="stop-color:rgb(224,202,0);stop-opacity:1"/><stop offset="1" style="stop-color:rgb(255,239,122);stop-opacity:1"/></linearGradient>
        <linearGradient id="_Linear6" x1="0" y1="0" x2="1" y2="0" gradientUnits="userSpaceOnUse" gradientTransform="matrix(-441.145,2.95552e-14,-5.40247e-14,-241.337,410.896,50.0471)"><stop offset="0" style="stop-color:rgb(215,192,0);stop-opacity:1"/><stop offset="0.34" style="stop-color:rgb(207,182,0);stop-opacity:1"/><stop offset="0.62" style="stop-color:rgb(255,255,191);stop-opacity:1"/><stop offset="0.76" style="stop-color:rgb(224,202,0);stop-opacity:1"/><stop offset="1" style="stop-color:rgb(255,239,122);stop-opacity:1"/></linearGradient>
        <linearGradient id="_Linear7" x1="0" y1="0" x2="1" y2="0" gradientUnits="userSpaceOnUse" gradientTransform="matrix(-441.145,2.95552e-14,-5.40247e-14,-241.337,141.861,50.0471)"><stop offset="0" style="stop-color:rgb(215,192,0);stop-opacity:1"/><stop offset="0.34" style="stop-color:rgb(207,182,0);stop-opacity:1"/><stop offset="0.62" style="stop-color:rgb(255,255,191);stop-opacity:1"/><stop offset="0.76" style="stop-color:rgb(224,202,0);stop-opacity:1"/><stop offset="1" style="stop-color:rgb(255,239,122);stop-opacity:1"/></linearGradient>
        <linearGradient id="_Linear8" x1="0" y1="0" x2="1" y2="0" gradientUnits="userSpaceOnUse" gradientTransform="matrix(-441.145,2.95552e-14,-5.40247e-14,-241.337,282.266,50.0471)"><stop offset="0" style="stop-color:rgb(215,192,0);stop-opacity:1"/><stop offset="0.34" style="stop-color:rgb(207,182,0);stop-opacity:1"/><stop offset="0.62" style="stop-color:rgb(255,255,191);stop-opacity:1"/><stop offset="0.76" style="stop-color:rgb(224,202,0);stop-opacity:1"/><stop offset="1" style="stop-color:rgb(255,239,122);stop-opacity:1"/></linearGradient>
        <linearGradient id="_Linear9" x1="0" y1="0" x2="1" y2="0" gradientUnits="userSpaceOnUse" gradientTransform="matrix(-441.145,2.95552e-14,-5.40247e-14,-241.337,493.327,50.0471)"><stop offset="0" style="stop-color:rgb(215,192,0);stop-opacity:1"/><stop offset="0.34" style="stop-color:rgb(207,182,0);stop-opacity:1"/><stop offset="0.62" style="stop-color:rgb(255,255,191);stop-opacity:1"/><stop offset="0.76" style="stop-color:rgb(224,202,0);stop-opacity:1"/><stop offset="1" style="stop-color:rgb(255,239,122);stop-opacity:1"/></linearGradient>
        <linearGradient id="_Linear10" x1="0" y1="0" x2="1" y2="0" gradientUnits="userSpaceOnUse" gradientTransform="matrix(-441.145,2.95552e-14,-5.40247e-14,-241.337,376.474,50.0471)"><stop offset="0" style="stop-color:rgb(215,192,0);stop-opacity:1"/><stop offset="0.34" style="stop-color:rgb(207,182,0);stop-opacity:1"/><stop offset="0.62" style="stop-color:rgb(255,255,191);stop-opacity:1"/><stop offset="0.76" style="stop-color:rgb(224,202,0);stop-opacity:1"/><stop offset="1" style="stop-color:rgb(255,239,122);stop-opacity:1"/></linearGradient>
        <linearGradient id="_Linear11" x1="0" y1="0" x2="1" y2="0" gradientUnits="userSpaceOnUse" gradientTransform="matrix(-441.145,2.95552e-14,-5.40247e-14,-241.337,107.439,50.0471)"><stop offset="0" style="stop-color:rgb(215,192,0);stop-opacity:1"/><stop offset="0.34" style="stop-color:rgb(207,182,0);stop-opacity:1"/><stop offset="0.62" style="stop-color:rgb(255,255,191);stop-opacity:1"/><stop offset="0.76" style="stop-color:rgb(224,202,0);stop-opacity:1"/><stop offset="1" style="stop-color:rgb(255,239,122);stop-opacity:1"/></linearGradient>
        <linearGradient id="_Linear12" x1="0" y1="0" x2="1" y2="0" gradientUnits="userSpaceOnUse" gradientTransform="matrix(-441.145,2.95552e-14,-5.40247e-14,-241.337,247.844,50.0471)"><stop offset="0" style="stop-color:rgb(215,192,0);stop-opacity:1"/><stop offset="0.34" style="stop-color:rgb(207,182,0);stop-opacity:1"/><stop offset="0.62" style="stop-color:rgb(255,255,191);stop-opacity:1"/><stop offset="0.76" style="stop-color:rgb(224,202,0);stop-opacity:1"/><stop offset="1" style="stop-color:rgb(255,239,122);stop-opacity:1"/></linearGradient>
        <linearGradient id="_Linear13" x1="0" y1="0" x2="1" y2="0" gradientUnits="userSpaceOnUse" gradientTransform="matrix(-441.145,2.95552e-14,-5.40247e-14,-241.337,469.775,50.0471)"><stop offset="0" style="stop-color:rgb(215,192,0);stop-opacity:1"/><stop offset="0.34" style="stop-color:rgb(207,182,0);stop-opacity:1"/><stop offset="0.62" style="stop-color:rgb(255,255,191);stop-opacity:1"/><stop offset="0.76" style="stop-color:rgb(224,202,0);stop-opacity:1"/><stop offset="1" style="stop-color:rgb(255,239,122);stop-opacity:1"/></linearGradient>
        <linearGradient id="_Linear14" x1="0" y1="0" x2="1" y2="0" gradientUnits="userSpaceOnUse" gradientTransform="matrix(-441.145,2.95552e-14,-5.40247e-14,-241.337,200.741,50.0471)"><stop offset="0" style="stop-color:rgb(215,192,0);stop-opacity:1"/><stop offset="0.34" style="stop-color:rgb(207,182,0);stop-opacity:1"/><stop offset="0.62" style="stop-color:rgb(255,255,191);stop-opacity:1"/><stop offset="0.76" style="stop-color:rgb(224,202,0);stop-opacity:1"/><stop offset="1" style="stop-color:rgb(255,239,122);stop-opacity:1"/></linearGradient>
        <linearGradient id="_Linear15" x1="0" y1="0" x2="1" y2="0" gradientUnits="userSpaceOnUse" gradientTransform="matrix(-441.145,2.95552e-14,-5.40247e-14,-241.337,352.922,50.0471)"><stop offset="0" style="stop-color:rgb(215,192,0);stop-opacity:1"/><stop offset="0.34" style="stop-color:rgb(207,182,0);stop-opacity:1"/><stop offset="0.62" style="stop-color:rgb(255,255,191);stop-opacity:1"/><stop offset="0.76" style="stop-color:rgb(224,202,0);stop-opacity:1"/><stop offset="1" style="stop-color:rgb(255,239,122);stop-opacity:1"/></linearGradient>
        <linearGradient id="_Linear16" x1="0" y1="0" x2="1" y2="0" gradientUnits="userSpaceOnUse" gradientTransform="matrix(-441.145,2.95552e-14,-5.40247e-14,-241.337,83.8869,50.0471)"><stop offset="0" style="stop-color:rgb(215,192,0);stop-opacity:1"/><stop offset="0.34" style="stop-color:rgb(207,182,0);stop-opacity:1"/><stop offset="0.62" style="stop-color:rgb(255,255,191);stop-opacity:1"/><stop offset="0.76" style="stop-color:rgb(224,202,0);stop-opacity:1"/><stop offset="1" style="stop-color:rgb(255,239,122);stop-opacity:1"/></linearGradient>
        <linearGradient id="_Linear17" x1="0" y1="0" x2="1" y2="0" gradientUnits="userSpaceOnUse" gradientTransform="matrix(-441.145,2.95552e-14,-5.40247e-14,-241.337,224.292,50.0471)"><stop offset="0" style="stop-color:rgb(215,192,0);stop-opacity:1"/><stop offset="0.34" style="stop-color:rgb(207,182,0);stop-opacity:1"/><stop offset="0.62" style="stop-color:rgb(255,255,191);stop-opacity:1"/><stop offset="0.76" style="stop-color:rgb(224,202,0);stop-opacity:1"/><stop offset="1" style="stop-color:rgb(255,239,122);stop-opacity:1"/></linearGradient>
        <linearGradient id="_Linear18" x1="0" y1="0" x2="1" y2="0" gradientUnits="userSpaceOnUse" gradientTransform="matrix(-441.145,2.95552e-14,-5.40247e-14,-241.337,515.973,50.0471)"><stop offset="0" style="stop-color:rgb(215,192,0);stop-opacity:1"/><stop offset="0.34" style="stop-color:rgb(207,182,0);stop-opacity:1"/><stop offset="0.62" style="stop-color:rgb(255,255,191);stop-opacity:1"/><stop offset="0.76" style="stop-color:rgb(224,202,0);stop-opacity:1"/><stop offset="1" style="stop-color:rgb(255,239,122);stop-opacity:1"/></linearGradient>
        <linearGradient id="_Linear19" x1="0" y1="0" x2="1" y2="0" gradientUnits="userSpaceOnUse" gradientTransform="matrix(-441.145,2.95552e-14,-5.40247e-14,-241.337,399.12,50.0471)"><stop offset="0" style="stop-color:rgb(215,192,0);stop-opacity:1"/><stop offset="0.34" style="stop-color:rgb(207,182,0);stop-opacity:1"/><stop offset="0.62" style="stop-color:rgb(255,255,191);stop-opacity:1"/><stop offset="0.76" style="stop-color:rgb(224,202,0);stop-opacity:1"/><stop offset="1" style="stop-color:rgb(255,239,122);stop-opacity:1"/></linearGradient>
        <linearGradient id="_Linear20" x1="0" y1="0" x2="1" y2="0" gradientUnits="userSpaceOnUse" gradientTransform="matrix(-441.145,2.95552e-14,-5.40247e-14,-241.337,130.085,50.0471)"><stop offset="0" style="stop-color:rgb(215,192,0);stop-opacity:1"/><stop offset="0.34" style="stop-color:rgb(207,182,0);stop-opacity:1"/><stop offset="0.62" style="stop-color:rgb(255,255,191);stop-opacity:1"/><stop offset="0.76" style="stop-color:rgb(224,202,0);stop-opacity:1"/><stop offset="1" style="stop-color:rgb(255,239,122);stop-opacity:1"/></linearGradient>
        <linearGradient id="_Linear21" x1="0" y1="0" x2="1" y2="0" gradientUnits="userSpaceOnUse" gradientTransform="matrix(-441.145,2.95552e-14,-5.40247e-14,-241.337,270.49,50.0471)"><stop offset="0" style="stop-color:rgb(215,192,0);stop-opacity:1"/><stop offset="0.34" style="stop-color:rgb(207,182,0);stop-opacity:1"/><stop offset="0.62" style="stop-color:rgb(255,255,191);stop-opacity:1"/><stop offset="0.76" style="stop-color:rgb(224,202,0);stop-opacity:1"/><stop offset="1" style="stop-color:rgb(255,239,122);stop-opacity:1"/></linearGradient>
        <linearGradient id="_Linear22" x1="0" y1="0" x2="1" y2="0" gradientUnits="userSpaceOnUse" gradientTransform="matrix(-441.145,2.95552e-14,-5.40247e-14,-241.337,481.551,50.0471)"><stop offset="0" style="stop-color:rgb(215,192,0);stop-opacity:1"/><stop offset="0.34" style="stop-color:rgb(207,182,0);stop-opacity:1"/><stop offset="0.62" style="stop-color:rgb(255,255,191);stop-opacity:1"/><stop offset="0.76" style="stop-color:rgb(224,202,0);stop-opacity:1"/><stop offset="1" style="stop-color:rgb(255,239,122);stop-opacity:1"/></linearGradient>
        <linearGradient id="_Linear23" x1="0" y1="0" x2="1" y2="0" gradientUnits="userSpaceOnUse" gradientTransform="matrix(-441.145,2.95552e-14,-5.40247e-14,-241.337,364.698,50.0471)"><stop offset="0" style="stop-color:rgb(215,192,0);stop-opacity:1"/><stop offset="0.34" style="stop-color:rgb(207,182,0);stop-opacity:1"/><stop offset="0.62" style="stop-color:rgb(255,255,191);stop-opacity:1"/><stop offset="0.76" style="stop-color:rgb(224,202,0);stop-opacity:1"/><stop offset="1" style="stop-color:rgb(255,239,122);stop-opacity:1"/></linearGradient>
        <linearGradient id="_Linear24" x1="0" y1="0" x2="1" y2="0" gradientUnits="userSpaceOnUse" gradientTransform="matrix(-441.145,2.95552e-14,-5.40247e-14,-241.337,95.6629,50.0471)"><stop offset="0" style="stop-color:rgb(215,192,0);stop-opacity:1"/><stop offset="0.34" style="stop-color:rgb(207,182,0);stop-opacity:1"/><stop offset="0.62" style="stop-color:rgb(255,255,191);stop-opacity:1"/><stop offset="0.76" style="stop-color:rgb(224,202,0);stop-opacity:1"/><stop offset="1" style="stop-color:rgb(255,239,122);stop-opacity:1"/></linearGradient>
        <linearGradient id="_Linear25" x1="0" y1="0" x2="1" y2="0" gradientUnits="userSpaceOnUse" gradientTransform="matrix(-441.145,2.95552e-14,-5.40247e-14,-241.337,236.068,50.0471)"><stop offset="0" style="stop-color:rgb(215,192,0);stop-opacity:1"/><stop offset="0.34" style="stop-color:rgb(207,182,0);stop-opacity:1"/><stop offset="0.62" style="stop-color:rgb(255,255,191);stop-opacity:1"/><stop offset="0.76" style="stop-color:rgb(224,202,0);stop-opacity:1"/><stop offset="1" style="stop-color:rgb(255,239,122);stop-opacity:1"/></linearGradient>
        <linearGradient id="_Linear26" x1="0" y1="0" x2="1" y2="0" gradientUnits="userSpaceOnUse" gradientTransform="matrix(-441.145,2.95552e-14,-5.40247e-14,-241.337,457.999,50.0471)"><stop offset="0" style="stop-color:rgb(215,192,0);stop-opacity:1"/><stop offset="0.34" style="stop-color:rgb(207,182,0);stop-opacity:1"/><stop offset="0.62" style="stop-color:rgb(255,255,191);stop-opacity:1"/><stop offset="0.76" style="stop-color:rgb(224,202,0);stop-opacity:1"/><stop offset="1" style="stop-color:rgb(255,239,122);stop-opacity:1"/></linearGradient>
        <linearGradient id="_Linear27" x1="0" y1="0" x2="1" y2="0" gradientUnits="userSpaceOnUse" gradientTransform="matrix(-441.145,2.95552e-14,-5.40247e-14,-241.337,188.965,50.0471)"><stop offset="0" style="stop-color:rgb(215,192,0);stop-opacity:1"/><stop offset="0.34" style="stop-color:rgb(207,182,0);stop-opacity:1"/><stop offset="0.62" style="stop-color:rgb(255,255,191);stop-opacity:1"/><stop offset="0.76" style="stop-color:rgb(224,202,0);stop-opacity:1"/><stop offset="1" style="stop-color:rgb(255,239,122);stop-opacity:1"/></linearGradient>
        <linearGradient id="_Linear28" x1="0" y1="0" x2="1" y2="0" gradientUnits="userSpaceOnUse" gradientTransform="matrix(-441.145,2.95552e-14,-5.40247e-14,-241.337,329.37,50.0471)"><stop offset="0" style="stop-color:rgb(215,192,0);stop-opacity:1"/><stop offset="0.34" style="stop-color:rgb(207,182,0);stop-opacity:1"/><stop offset="0.62" style="stop-color:rgb(255,255,191);stop-opacity:1"/><stop offset="0.76" style="stop-color:rgb(224,202,0);stop-opacity:1"/><stop offset="1" style="stop-color:rgb(255,239,122);stop-opacity:1"/></linearGradient>
        <linearGradient id="_Linear29" x1="0" y1="0" x2="1" y2="0" gradientUnits="userSpaceOnUse" gradientTransform="matrix(-441.145,2.95552e-14,-5.40247e-14,-241.337,341.146,50.0471)"><stop offset="0" style="stop-color:rgb(215,192,0);stop-opacity:1"/><stop offset="0.34" style="stop-color:rgb(207,182,0);stop-opacity:1"/><stop offset="0.62" style="stop-color:rgb(255,255,191);stop-opacity:1"/><stop offset="0.76" style="stop-color:rgb(224,202,0);stop-opacity:1"/><stop offset="1" style="stop-color:rgb(255,239,122);stop-opacity:1"/></linearGradient>
        <linearGradient id="_Linear30" x1="0" y1="0" x2="1" y2="0" gradientUnits="userSpaceOnUse" gradientTransform="matrix(-441.145,2.95552e-14,-5.40247e-14,-241.337,212.516,50.0471)"><stop offset="0" style="stop-color:rgb(215,192,0);stop-opacity:1"/><stop offset="0.34" style="stop-color:rgb(207,182,0);stop-opacity:1"/><stop offset="0.62" style="stop-color:rgb(255,255,191);stop-opacity:1"/><stop offset="0.76" style="stop-color:rgb(224,202,0);stop-opacity:1"/><stop offset="1" style="stop-color:rgb(255,239,122);stop-opacity:1"/></linearGradient>
        <linearGradient id="_Linear31" x1="0" y1="0" x2="1" y2="0" gradientUnits="userSpaceOnUse" gradientTransform="matrix(-487,5.96403e-14,-5.96403e-14,-487,546.871,58)"><stop offset="0" style="stop-color:rgb(215,192,0);stop-opacity:1"/><stop offset="0.34" style="stop-color:rgb(207,182,0);stop-opacity:1"/><stop offset="0.62" style="stop-color:rgb(255,255,191);stop-opacity:1"/><stop offset="0.76" style="stop-color:rgb(224,202,0);stop-opacity:1"/><stop offset="1" style="stop-color:rgb(255,239,122);stop-opacity:1"/></linearGradient>
        <linearGradient id="_Linear32" x1="0" y1="0" x2="1" y2="0" gradientUnits="userSpaceOnUse" gradientTransform="matrix(-487,5.96403e-14,-5.96403e-14,-487,417.871,58)"><stop offset="0" style="stop-color:rgb(215,192,0);stop-opacity:1"/><stop offset="0.34" style="stop-color:rgb(207,182,0);stop-opacity:1"/><stop offset="0.62" style="stop-color:rgb(255,255,191);stop-opacity:1"/><stop offset="0.76" style="stop-color:rgb(224,202,0);stop-opacity:1"/><stop offset="1" style="stop-color:rgb(255,239,122);stop-opacity:1"/></linearGradient>
        <linearGradient id="_Linear33" x1="0" y1="0" x2="1" y2="0" gradientUnits="userSpaceOnUse" gradientTransform="matrix(-487,5.96403e-14,-5.96403e-14,-487,120.871,58)"><stop offset="0" style="stop-color:rgb(215,192,0);stop-opacity:1"/><stop offset="0.34" style="stop-color:rgb(207,182,0);stop-opacity:1"/><stop offset="0.62" style="stop-color:rgb(255,255,191);stop-opacity:1"/><stop offset="0.76" style="stop-color:rgb(224,202,0);stop-opacity:1"/><stop offset="1" style="stop-color:rgb(255,239,122);stop-opacity:1"/></linearGradient>
        <linearGradient id="_Linear34" x1="0" y1="0" x2="1" y2="0" gradientUnits="userSpaceOnUse" gradientTransform="matrix(-487,5.96403e-14,-5.96403e-14,-487,275.871,58)"><stop offset="0" style="stop-color:rgb(215,192,0);stop-opacity:1"/><stop offset="0.34" style="stop-color:rgb(207,182,0);stop-opacity:1"/><stop offset="0.62" style="stop-color:rgb(255,255,191);stop-opacity:1"/><stop offset="0.76" style="stop-color:rgb(224,202,0);stop-opacity:1"/><stop offset="1" style="stop-color:rgb(255,239,122);stop-opacity:1"/></linearGradient>
        <linearGradient id="_Linear35" x1="0" y1="0" x2="1" y2="0" gradientUnits="userSpaceOnUse" gradientTransform="matrix(-487,5.96403e-14,-5.96403e-14,-487,494.871,58)"><stop offset="0" style="stop-color:rgb(215,192,0);stop-opacity:1"/><stop offset="0.34" style="stop-color:rgb(207,182,0);stop-opacity:1"/><stop offset="0.62" style="stop-color:rgb(255,255,191);stop-opacity:1"/><stop offset="0.76" style="stop-color:rgb(224,202,0);stop-opacity:1"/><stop offset="1" style="stop-color:rgb(255,239,122);stop-opacity:1"/></linearGradient>
        <linearGradient id="_Linear36" x1="0" y1="0" x2="1" y2="0" gradientUnits="userSpaceOnUse" gradientTransform="matrix(-487,5.96403e-14,-5.96403e-14,-487,365.871,58)"><stop offset="0" style="stop-color:rgb(215,192,0);stop-opacity:1"/><stop offset="0.34" style="stop-color:rgb(207,182,0);stop-opacity:1"/><stop offset="0.62" style="stop-color:rgb(255,255,191);stop-opacity:1"/><stop offset="0.76" style="stop-color:rgb(224,202,0);stop-opacity:1"/><stop offset="1" style="stop-color:rgb(255,239,122);stop-opacity:1"/></linearGradient>
        <linearGradient id="_Linear37" x1="0" y1="0" x2="1" y2="0" gradientUnits="userSpaceOnUse" gradientTransform="matrix(-487,5.96403e-14,-5.96403e-14,-487,68.8712,58)"><stop offset="0" style="stop-color:rgb(215,192,0);stop-opacity:1"/><stop offset="0.34" style="stop-color:rgb(207,182,0);stop-opacity:1"/><stop offset="0.62" style="stop-color:rgb(255,255,191);stop-opacity:1"/><stop offset="0.76" style="stop-color:rgb(224,202,0);stop-opacity:1"/><stop offset="1" style="stop-color:rgb(255,239,122);stop-opacity:1"/></linearGradient>
        <linearGradient id="_Linear38" x1="0" y1="0" x2="1" y2="0" gradientUnits="userSpaceOnUse" gradientTransform="matrix(-487,5.96403e-14,-5.96403e-14,-487,223.871,58)"><stop offset="0" style="stop-color:rgb(215,192,0);stop-opacity:1"/><stop offset="0.34" style="stop-color:rgb(207,182,0);stop-opacity:1"/><stop offset="0.62" style="stop-color:rgb(255,255,191);stop-opacity:1"/><stop offset="0.76" style="stop-color:rgb(224,202,0);stop-opacity:1"/><stop offset="1" style="stop-color:rgb(255,239,122);stop-opacity:1"/></linearGradient>
        <linearGradient id="_Linear39" x1="0" y1="0" x2="1" y2="0" gradientUnits="userSpaceOnUse" gradientTransform="matrix(-487,5.96403e-14,-5.96403e-14,-487,533.871,58)"><stop offset="0" style="stop-color:rgb(215,192,0);stop-opacity:1"/><stop offset="0.34" style="stop-color:rgb(207,182,0);stop-opacity:1"/><stop offset="0.62" style="stop-color:rgb(255,255,191);stop-opacity:1"/><stop offset="0.76" style="stop-color:rgb(224,202,0);stop-opacity:1"/><stop offset="1" style="stop-color:rgb(255,239,122);stop-opacity:1"/></linearGradient>
        <linearGradient id="_Linear40" x1="0" y1="0" x2="1" y2="0" gradientUnits="userSpaceOnUse" gradientTransform="matrix(-487,5.96403e-14,-5.96403e-14,-487,404.871,58)"><stop offset="0" style="stop-color:rgb(215,192,0);stop-opacity:1"/><stop offset="0.34" style="stop-color:rgb(207,182,0);stop-opacity:1"/><stop offset="0.62" style="stop-color:rgb(255,255,191);stop-opacity:1"/><stop offset="0.76" style="stop-color:rgb(224,202,0);stop-opacity:1"/><stop offset="1" style="stop-color:rgb(255,239,122);stop-opacity:1"/></linearGradient>
        <linearGradient id="_Linear41" x1="0" y1="0" x2="1" y2="0" gradientUnits="userSpaceOnUse" gradientTransform="matrix(-487,5.96403e-14,-5.96403e-14,-487,107.871,58)"><stop offset="0" style="stop-color:rgb(215,192,0);stop-opacity:1"/><stop offset="0.34" style="stop-color:rgb(207,182,0);stop-opacity:1"/><stop offset="0.62" style="stop-color:rgb(255,255,191);stop-opacity:1"/><stop offset="0.76" style="stop-color:rgb(224,202,0);stop-opacity:1"/><stop offset="1" style="stop-color:rgb(255,239,122);stop-opacity:1"/></linearGradient>
        <linearGradient id="_Linear42" x1="0" y1="0" x2="1" y2="0" gradientUnits="userSpaceOnUse" gradientTransform="matrix(-487,5.96403e-14,-5.96403e-14,-487,262.871,58)"><stop offset="0" style="stop-color:rgb(215,192,0);stop-opacity:1"/><stop offset="0.34" style="stop-color:rgb(207,182,0);stop-opacity:1"/><stop offset="0.62" style="stop-color:rgb(255,255,191);stop-opacity:1"/><stop offset="0.76" style="stop-color:rgb(224,202,0);stop-opacity:1"/><stop offset="1" style="stop-color:rgb(255,239,122);stop-opacity:1"/></linearGradient>
    </defs>
</svg>
