<?xml version="1.0" encoding="UTF-8" standalone="no"?>
<!DOCTYPE svg PUBLIC "-//W3C//DTD SVG 1.1//EN" "http://www.w3.org/Graphics/SVG/1.1/DTD/svg11.dtd">
<svg width="600" height="975" viewBox="0 0 600 975" version="1.1" xmlns="http://www.w3.org/2000/svg" xmlns:xlink="http://www.w3.org/1999/xlink" xml:space="preserve" xmlns:serif="http://www.serif.com/" style="fill-rule:evenodd;clip-rule:evenodd;stroke-linejoin:round;stroke-miterlimit:2;">
    <g id="Card-Frame" serif:id="Card Frame" transform="matrix(1,0,0,0.999904,-18.75,-18.6544)">
        <g id="Artwork-Area" serif:id="Artwork Area">
            <g transform="matrix(0.972696,0,0,0.98924,26.9411,21.1639)">
                <path d="M593,254.308L593,944.692C593,957.556 582.38,968 569.298,968L30.702,968C17.62,968 7,957.556 7,944.692L7,254.308C7,241.444 17.62,231 30.702,231L569.298,231C582.38,231 593,241.444 593,254.308ZM393.554,955.784L569.298,955.784C575.523,955.784 580.577,950.814 580.577,944.692L580.577,254.308C580.577,248.186 575.523,243.216 569.298,243.216L30.702,243.216C24.477,243.216 19.423,248.186 19.423,254.308L19.423,944.692C19.423,950.814 24.477,955.784 30.702,955.784L207.576,955.784L207.576,955.769L210.279,955.769C216.164,955.769 220.941,951.07 220.941,945.283L220.941,906.17L368.285,906.17C374.288,906.17 379.161,910.963 379.161,916.866L379.161,945.283C379.161,951.07 383.939,955.769 389.824,955.769L393.554,955.769L393.554,955.784Z"/>
            </g>
            <g id="Logo" transform="matrix(0.066804,0,0,0.0667702,191.598,818.591)">
                <path d="M2802.55,1735.85L2937.47,1735.85L2937.47,2073.87C2937.47,2187.9 2845.02,2280.34 2730.99,2280.34L1830.71,2280.34L1830.71,2145.43L2695.54,2145.43C2754.64,2145.43 2802.55,2097.52 2802.55,2038.41L2802.55,1735.85ZM2802.55,1735.85L2287.5,1735.85L2287.5,2116.4L2141.68,2116.4L2141.68,1735.85L1660.1,1735.85L1660.1,1600.93L2802.55,1600.93L2802.55,1735.85ZM2811.76,1691.22L2811.76,1674.41C2840.56,1674.41 2863.99,1697.84 2863.99,1726.64L2847.18,1726.64C2847.18,1707.11 2831.29,1691.22 2811.76,1691.22ZM2883.92,1726.65C2883.92,1686.85 2851.55,1654.48 2811.76,1654.48L2811.76,1637.67C2860.82,1637.67 2900.73,1677.59 2900.73,1726.65L2883.92,1726.65ZM2920.66,1726.65C2920.66,1666.6 2871.8,1617.75 2811.76,1617.75L2811.76,1600.93C2881.07,1600.93 2937.47,1657.33 2937.47,1726.65L2920.66,1726.65ZM1636.61,1735.85L1155.02,1735.85L1155.02,2038.42C1155.02,2097.52 1202.93,2145.43 1262.03,2145.43L1636.61,2145.43L1636.61,2280.34L1215.67,2280.34C1101.64,2280.34 1009.2,2187.9 1009.2,2073.87L1009.2,1735.85L870.48,1735.85L870.48,1600.93L1636.61,1600.93L1636.61,1735.85ZM1188.48,1764.88L1636.61,1764.88L1636.61,2116.4L1490.79,2116.4L1490.79,1899.8L1334.3,1899.8L1334.3,1962.82C1334.3,1973.13 1342.65,1981.48 1352.96,1981.48L1465.99,1981.48L1465.99,2116.4L1276.24,2116.4C1227.77,2116.4 1188.48,2077.11 1188.48,2028.63L1188.48,1764.88ZM1660.1,1764.88L2108.23,1764.88L2108.23,2028.63C2108.23,2077.11 2068.93,2116.4 2020.46,2116.4L1830.71,2116.4L1830.71,1981.48L1943.74,1981.48C1954.05,1981.48 1962.41,1973.13 1962.41,1962.82L1962.41,1899.8L1805.92,1899.8L1805.92,2280.34L1660.1,2280.34L1660.1,1764.88ZM2769.09,1764.88L2769.09,2028.63C2769.09,2077.11 2729.8,2116.4 2681.33,2116.4L2408.73,2116.4C2360.26,2116.4 2320.96,2077.11 2320.96,2028.63L2320.96,1764.88L2769.09,1764.88ZM2623.27,1899.8L2466.78,1899.8L2466.78,1962.82C2466.78,1973.13 2475.14,1981.48 2485.45,1981.48L2604.61,1981.48C2614.92,1981.48 2623.27,1973.13 2623.27,1962.82L2623.27,1899.8Z" style="fill:white;"/>
            </g>
        </g>
        <g id="Card-Top" serif:id="Card Top">
            <g id="Header-Background" serif:id="Header Background" transform="matrix(0.972696,0,0,5.65179,26.9411,-121.363)">
                <path d="M593,34L593,61.84C593,62.48 589.98,63 586.261,63L13.739,63C10.02,63 7,62.48 7,61.84L7,34L593,34Z" style="fill:rgb(52,0,131);"/>
            </g>
            <g id="NFC-Loading-System" serif:id="NFC Loading System" transform="matrix(1,0,0,1,2.9625,-1.19654)">
                <path d="M367.334,222.823L365.14,222.823L365.14,221.322L352.177,221.322L352.177,222.823L349.983,222.823L349.983,203.975L367.334,203.975L367.334,222.823ZM365.14,219.076L365.14,206.222L352.177,206.222L352.177,219.076L365.14,219.076ZM393.295,213.753L373.039,213.753L373.039,211.495L393.295,211.495L393.295,213.753ZM418.343,206.673L416.659,207.406C416.366,206.022 415.979,204.903 415.496,204.049L417.263,203.304C417.714,204.216 418.074,205.339 418.343,206.673ZM411.583,205.977L399.438,205.977L399.438,203.719L411.583,203.719L411.583,205.977ZM415.639,207.674L413.966,208.394C413.666,207.019 413.279,205.904 412.804,205.05L414.571,204.305C415.022,205.217 415.378,206.34 415.639,207.674ZM417.37,212.13L408.748,212.13C408.764,212.325 408.772,212.659 408.772,213.131C408.772,218.103 406.649,221.643 402.403,223.751L400.684,221.749C402.613,221.049 404.073,219.987 405.066,218.563C406.058,217.139 406.554,215.426 406.554,213.424C406.554,212.838 406.538,212.406 406.507,212.13L397.09,212.13L397.09,209.871L417.37,209.871L417.37,212.13ZM438.03,206.002C436.219,208.232 434.788,209.79 433.737,210.677L433.737,220.577L431.72,220.577L431.72,212.325C429.783,213.814 427.921,214.95 426.134,215.731L424.889,213.9C427.016,213.037 429.172,211.725 431.359,209.963C433.545,208.201 435.227,206.421 436.405,204.622L438.03,206.002ZM454.716,207.027L453.412,208.98C451.451,207.28 449.142,206.095 446.486,205.428L447.826,203.377C450.625,204.419 452.922,205.636 454.716,207.027ZM465.651,209.579C462.86,213.818 460.093,216.874 457.349,218.746C454.606,220.618 451.502,222.054 448.039,223.055L446.652,220.797C450.984,219.836 454.459,218.302 457.076,216.195C459.693,214.087 461.97,211.34 463.908,207.955L465.651,209.579ZM490.616,204.378L488.943,205.099C488.643,203.715 488.255,202.6 487.781,201.754L489.548,200.997C489.999,201.908 490.355,203.036 490.616,204.378ZM487.923,205.379L486.927,205.88L487.852,206.82C487.196,210.856 485.797,214.219 483.654,216.909C481.511,219.598 478.455,221.794 474.486,223.495L472.814,221.395C476.427,220.134 479.26,218.435 481.312,216.298C483.363,214.162 484.733,211.438 485.421,208.126L476.384,208.126C474.842,210.38 473.32,212.004 471.818,212.996L470.051,211.397C473.308,209.176 475.696,206.002 477.214,201.876L479.301,202.926C478.843,204.016 478.349,205.001 477.819,205.88L486.204,205.88C485.895,204.586 485.52,203.544 485.077,202.755L486.856,201.998C487.307,202.909 487.662,204.037 487.923,205.379ZM504.93,204.879L504.147,207.149C502.029,205.896 499.566,205.123 496.759,204.83L497.542,202.498C500.657,203.166 503.12,203.959 504.93,204.879ZM514.418,209.749C512.18,213.403 509.662,216.286 506.863,218.398C504.064,220.51 500.688,222.111 496.735,223.202L495.62,220.894C499.74,219.91 503.173,218.386 505.92,216.323C508.668,214.26 510.872,211.552 512.532,208.199L514.418,209.749ZM502.618,211.178L501.764,213.546C499.898,212.203 497.47,211.361 494.482,211.019L495.265,208.748C498.261,209.326 500.712,210.136 502.618,211.178ZM539.881,221.676L537.983,223.104C535.643,219.816 532.907,217.183 529.776,215.206C527.238,218.477 524.127,221.248 520.443,223.519L518.747,221.725C521.807,220.072 524.501,217.912 526.829,215.243C529.158,212.573 530.974,209.558 532.279,206.197L520.111,206.197L520.111,204.049L534.342,204.024L534.995,204.72C534.109,207.918 532.797,210.811 531.057,213.399C534.433,215.613 537.374,218.372 539.881,221.676ZM560.671,205.977L545.17,205.977L545.17,203.719L560.671,203.719L560.671,205.977ZM563.102,212.13L554.48,212.13C554.496,212.325 554.504,212.659 554.504,213.131C554.504,218.103 552.381,221.643 548.135,223.751L546.415,221.749C548.345,221.049 549.805,219.987 550.798,218.563C551.79,217.139 552.286,215.426 552.286,213.424C552.286,212.838 552.27,212.406 552.238,212.13L542.822,212.13L542.822,209.871L563.102,209.871L563.102,212.13ZM587.841,221.944L585.683,222.872C585.39,221.83 584.955,220.707 584.378,219.503C576.219,220.349 570.712,221.057 567.858,221.627L567.277,219.198L570.064,218.88L576.385,202.425L578.401,203.231L572.495,218.551L583.109,217.354C581.757,214.75 580.504,212.858 579.35,211.678L581.603,210.677C583.769,213.477 585.849,217.232 587.841,221.944ZM350.45,195.937C349.933,195.937 349.513,195.517 349.513,195C349.513,194.483 349.933,194.063 350.45,194.063L587.75,194.063C588.267,194.063 588.687,194.483 588.687,195C588.687,195.517 588.267,195.937 587.75,195.937L350.45,195.937ZM350.45,160.375L355.625,160.375L359.637,176.087L359.712,176.087L359.712,160.375L363.387,160.375L363.387,186.625L359.15,186.625L354.2,167.462L354.125,167.462L354.125,186.625L350.45,186.625L350.45,160.375ZM366.462,160.375L377.375,160.375L377.375,164.125L370.587,164.125L370.587,171.438L375.912,171.438L375.912,175.187L370.587,175.187L370.587,186.625L366.462,186.625L366.462,160.375ZM385.175,187C383.2,187 381.694,186.437 380.656,185.313C379.619,184.187 379.1,182.6 379.1,180.55L379.1,166.45C379.1,164.4 379.619,162.812 380.656,161.687C381.694,160.563 383.2,160 385.175,160C387.15,160 388.656,160.563 389.694,161.687C390.731,162.812 391.25,164.4 391.25,166.45L391.25,169.225L387.35,169.225L387.35,166.187C387.35,164.563 386.662,163.75 385.287,163.75C383.912,163.75 383.225,164.563 383.225,166.187L383.225,180.85C383.225,182.45 383.912,183.25 385.287,183.25C386.662,183.25 387.35,182.45 387.35,180.85L387.35,176.838L391.25,176.838L391.25,180.55C391.25,182.6 390.731,184.187 389.694,185.313C388.656,186.437 387.15,187 385.175,187ZM399.725,160.375L403.85,160.375L403.85,182.875L410.637,182.875L410.637,186.625L399.725,186.625L399.725,160.375ZM418.437,187C416.412,187 414.862,186.425 413.787,185.275C412.712,184.125 412.175,182.5 412.175,180.4L412.175,166.6C412.175,164.5 412.712,162.875 413.787,161.725C414.862,160.575 416.412,160 418.437,160C420.462,160 422.012,160.575 423.087,161.725C424.162,162.875 424.7,164.5 424.7,166.6L424.7,180.4C424.7,182.5 424.162,184.125 423.087,185.275C422.012,186.425 420.462,187 418.437,187ZM418.437,183.25C419.862,183.25 420.575,182.387 420.575,180.662L420.575,166.338C420.575,164.612 419.862,163.75 418.437,163.75C417.012,163.75 416.3,164.612 416.3,166.338L416.3,180.662C416.3,182.387 417.012,183.25 418.437,183.25ZM430.587,160.375L436.175,160.375L440.45,186.625L436.325,186.625L435.575,181.412L435.575,181.487L430.887,181.487L430.137,186.625L426.312,186.625L430.587,160.375ZM435.087,177.925L433.25,164.95L433.175,164.95L431.375,177.925L435.087,177.925ZM442.437,160.375L448.737,160.375C450.787,160.375 452.325,160.925 453.35,162.025C454.375,163.125 454.887,164.737 454.887,166.862L454.887,180.138C454.887,182.262 454.375,183.875 453.35,184.975C452.325,186.075 450.787,186.625 448.737,186.625L442.437,186.625L442.437,160.375ZM448.662,182.875C449.337,182.875 449.856,182.675 450.219,182.275C450.581,181.875 450.762,181.225 450.762,180.325L450.762,166.675C450.762,165.775 450.581,165.125 450.219,164.725C449.856,164.325 449.337,164.125 448.662,164.125L446.562,164.125L446.562,182.875L448.662,182.875ZM457.662,160.375L461.787,160.375L461.787,186.625L457.662,186.625L457.662,160.375ZM464.862,160.375L470.037,160.375L474.05,176.087L474.125,176.087L474.125,160.375L477.8,160.375L477.8,186.625L473.562,186.625L468.612,167.462L468.537,167.462L468.537,186.625L464.862,186.625L464.862,160.375ZM486.725,187C484.725,187 483.2,186.431 482.15,185.294C481.1,184.156 480.575,182.525 480.575,180.4L480.575,166.6C480.575,164.475 481.1,162.844 482.15,161.706C483.2,160.569 484.725,160 486.725,160C488.725,160 490.25,160.569 491.3,161.706C492.35,162.844 492.875,164.475 492.875,166.6L492.875,168.85L488.975,168.85L488.975,166.338C488.975,164.612 488.262,163.75 486.837,163.75C485.412,163.75 484.7,164.612 484.7,166.338L484.7,180.7C484.7,182.4 485.412,183.25 486.837,183.25C488.262,183.25 488.975,182.4 488.975,180.7L488.975,175.562L486.912,175.562L486.912,171.812L492.875,171.812L492.875,180.4C492.875,182.525 492.35,184.156 491.3,185.294C490.25,186.431 488.725,187 486.725,187ZM506.9,187C504.9,187 503.387,186.431 502.362,185.294C501.337,184.156 500.825,182.525 500.825,180.4L500.825,178.9L504.725,178.9L504.725,180.7C504.725,182.4 505.437,183.25 506.862,183.25C507.562,183.25 508.094,183.044 508.456,182.631C508.819,182.219 509,181.55 509,180.625C509,179.525 508.75,178.556 508.25,177.719C507.75,176.881 506.825,175.875 505.475,174.7C503.775,173.2 502.587,171.844 501.912,170.631C501.237,169.419 500.9,168.05 500.9,166.525C500.9,164.45 501.425,162.844 502.475,161.706C503.525,160.569 505.05,160 507.05,160C509.025,160 510.519,160.569 511.531,161.706C512.544,162.844 513.05,164.475 513.05,166.6L513.05,167.687L509.15,167.687L509.15,166.338C509.15,165.437 508.975,164.781 508.625,164.369C508.275,163.956 507.762,163.75 507.087,163.75C505.712,163.75 505.025,164.587 505.025,166.262C505.025,167.213 505.281,168.1 505.794,168.925C506.306,169.75 507.237,170.75 508.587,171.925C510.312,173.425 511.5,174.788 512.15,176.012C512.8,177.237 513.125,178.675 513.125,180.325C513.125,182.475 512.594,184.125 511.531,185.275C510.469,186.425 508.925,187 506.9,187ZM519.05,175.45L514.062,160.375L518.45,160.375L521.262,170.012L521.337,170.012L524.15,160.375L528.162,160.375L523.175,175.45L523.175,186.625L519.05,186.625L519.05,175.45ZM534.8,187C532.8,187 531.287,186.431 530.262,185.294C529.237,184.156 528.725,182.525 528.725,180.4L528.725,178.9L532.625,178.9L532.625,180.7C532.625,182.4 533.337,183.25 534.762,183.25C535.462,183.25 535.994,183.044 536.356,182.631C536.719,182.219 536.9,181.55 536.9,180.625C536.9,179.525 536.65,178.556 536.15,177.719C535.65,176.881 534.725,175.875 533.375,174.7C531.675,173.2 530.487,171.844 529.812,170.631C529.137,169.419 528.8,168.05 528.8,166.525C528.8,164.45 529.325,162.844 530.375,161.706C531.425,160.569 532.95,160 534.95,160C536.925,160 538.419,160.569 539.431,161.706C540.444,162.844 540.95,164.475 540.95,166.6L540.95,167.687L537.05,167.687L537.05,166.338C537.05,165.437 536.875,164.781 536.525,164.369C536.175,163.956 535.662,163.75 534.987,163.75C533.612,163.75 532.925,164.587 532.925,166.262C532.925,167.213 533.181,168.1 533.694,168.925C534.206,169.75 535.137,170.75 536.487,171.925C538.212,173.425 539.4,174.788 540.05,176.012C540.7,177.237 541.025,178.675 541.025,180.325C541.025,182.475 540.494,184.125 539.431,185.275C538.369,186.425 536.825,187 534.8,187ZM546.612,164.125L542.3,164.125L542.3,160.375L555.05,160.375L555.05,164.125L550.737,164.125L550.737,186.625L546.612,186.625L546.612,164.125ZM557.037,160.375L568.287,160.375L568.287,164.125L561.162,164.125L561.162,171.063L566.825,171.063L566.825,174.812L561.162,174.812L561.162,182.875L568.287,182.875L568.287,186.625L557.037,186.625L557.037,160.375ZM570.65,160.375L576.537,160.375L579.162,179.162L579.237,179.162L581.862,160.375L587.75,160.375L587.75,186.625L583.85,186.625L583.85,166.75L583.775,166.75L580.775,186.625L577.325,186.625L574.325,166.75L574.25,166.75L574.25,186.625L570.65,186.625L570.65,160.375Z" style="fill:white;"/>
            </g>
            <g id="Logo1" serif:id="Logo" transform="matrix(0.132028,0,0,0.131961,-69.0359,-78.3615)">
                <path d="M2802.55,1735.85L2287.5,1735.85L2287.5,2116.4L2141.68,2116.4L2141.68,1735.85L1660.1,1735.85L1660.1,1600.93L2802.55,1600.93L2802.55,1735.85ZM2802.55,1735.85L2937.47,1735.85L2937.47,2073.87C2937.47,2187.9 2845.02,2280.34 2730.99,2280.34L1830.71,2280.34L1830.71,2145.43L2695.54,2145.43C2754.64,2145.43 2802.55,2097.52 2802.55,2038.41L2802.55,1735.85ZM2811.76,1691.22L2811.76,1674.41C2840.56,1674.41 2863.99,1697.84 2863.99,1726.64L2847.18,1726.64C2847.18,1707.11 2831.29,1691.22 2811.76,1691.22ZM2883.92,1726.65C2883.92,1686.85 2851.55,1654.48 2811.76,1654.48L2811.76,1637.67C2860.82,1637.67 2900.73,1677.59 2900.73,1726.65L2883.92,1726.65ZM2920.66,1726.65C2920.66,1666.6 2871.8,1617.75 2811.76,1617.75L2811.76,1600.93C2881.07,1600.93 2937.47,1657.33 2937.47,1726.65L2920.66,1726.65ZM1636.61,1735.85L1155.02,1735.85L1155.02,2038.42C1155.02,2097.52 1202.93,2145.43 1262.03,2145.43L1636.61,2145.43L1636.61,2280.34L1215.67,2280.34C1101.64,2280.34 1009.2,2187.9 1009.2,2073.87L1009.2,1735.85L870.48,1735.85L870.48,1600.93L1636.61,1600.93L1636.61,1735.85ZM1188.48,1764.88L1636.61,1764.88L1636.61,2116.4L1490.79,2116.4L1490.79,1899.8L1334.3,1899.8L1334.3,1962.82C1334.3,1973.13 1342.65,1981.48 1352.96,1981.48L1465.99,1981.48L1465.99,2116.4L1276.24,2116.4C1227.77,2116.4 1188.48,2077.11 1188.48,2028.63L1188.48,1764.88ZM1660.1,1764.88L2108.23,1764.88L2108.23,2028.63C2108.23,2077.11 2068.93,2116.4 2020.46,2116.4L1830.71,2116.4L1830.71,1981.48L1943.74,1981.48C1954.05,1981.48 1962.41,1973.13 1962.41,1962.82L1962.41,1899.8L1805.92,1899.8L1805.92,2280.34L1660.1,2280.34L1660.1,1764.88ZM2769.09,1764.88L2769.09,2028.63C2769.09,2077.11 2729.8,2116.4 2681.33,2116.4L2408.73,2116.4C2360.26,2116.4 2320.96,2077.11 2320.96,2028.63L2320.96,1764.88L2769.09,1764.88ZM2623.27,1899.8L2466.78,1899.8L2466.78,1962.82C2466.78,1973.13 2475.14,1981.48 2485.45,1981.48L2604.61,1981.48C2614.92,1981.48 2623.27,1973.13 2623.27,1962.82L2623.27,1899.8Z" style="fill:white;"/>
            </g>
            <g id="Wizzo.dev-TapTo" serif:id="Wizzo.dev/TapTo" transform="matrix(1,0,0,1,3.80873,20.7565)">
                <g transform="matrix(1.08795,0,0,0.844885,167.891,-168.091)">
                    <path d="M386,303.625L386,316.897C386,324.681 381.093,331 375.049,331L250.951,331C244.907,331 240,324.681 240,316.897L240,303.625C240,295.841 244.907,289.522 250.951,289.522L375.049,289.522C381.093,289.522 386,295.841 386,303.625Z" style="fill:white;"/>
                </g>
                <g transform="matrix(0.93161,0,0,0.93161,327.505,-292.781)">
                    <path d="M121.688,405.83L124.532,405.83L125.847,420.267L125.901,420.267L127.296,405.83L130.517,405.83L131.912,420.267L131.966,420.267L133.281,405.83L135.83,405.83L133.925,424.614L130.248,424.614L128.906,411.948L128.853,411.948L127.511,424.614L123.593,424.614L121.688,405.83ZM137.333,405.83L140.285,405.83L140.285,424.614L137.333,424.614L137.333,405.83ZM141.895,421.985L147.369,408.513L142.163,408.513L142.163,405.83L150.536,405.83L150.536,408.46L145.061,421.931L150.536,421.931L150.536,424.614L141.895,424.614L141.895,421.985ZM151.743,421.985L157.218,408.513L152.012,408.513L152.012,405.83L160.384,405.83L160.384,408.46L154.91,421.931L160.384,421.931L160.384,424.614L151.743,424.614L151.743,421.985ZM166.315,424.883C164.866,424.883 163.756,424.471 162.987,423.648C162.218,422.825 161.833,421.663 161.833,420.16L161.833,410.284C161.833,408.782 162.218,407.619 162.987,406.796C163.756,405.973 164.866,405.561 166.315,405.561C167.764,405.561 168.873,405.973 169.642,406.796C170.412,407.619 170.796,408.782 170.796,410.284L170.796,420.16C170.796,421.663 170.412,422.825 169.642,423.648C168.873,424.471 167.764,424.883 166.315,424.883ZM166.315,422.199C167.335,422.199 167.844,421.582 167.844,420.348L167.844,410.097C167.844,408.862 167.335,408.245 166.315,408.245C165.295,408.245 164.785,408.862 164.785,410.097L164.785,420.348C164.785,421.582 165.295,422.199 166.315,422.199ZM172.621,421.77L175.466,421.77L175.466,424.614L172.621,424.614L172.621,421.77ZM177.666,405.83L182.174,405.83C183.641,405.83 184.742,406.223 185.475,407.01C186.209,407.798 186.575,408.952 186.575,410.472L186.575,419.972C186.575,421.493 186.209,422.646 185.475,423.434C184.742,424.221 183.641,424.614 182.174,424.614L177.666,424.614L177.666,405.83ZM182.121,421.931C182.604,421.931 182.975,421.788 183.234,421.502C183.494,421.215 183.624,420.75 183.624,420.106L183.624,410.338C183.624,409.694 183.494,409.229 183.234,408.943C182.975,408.656 182.604,408.513 182.121,408.513L180.618,408.513L180.618,421.931L182.121,421.931ZM188.561,405.83L196.612,405.83L196.612,408.513L191.513,408.513L191.513,413.478L195.565,413.478L195.565,416.161L191.513,416.161L191.513,421.931L196.612,421.931L196.612,424.614L188.561,424.614L188.561,405.83ZM197.524,405.83L200.503,405.83L202.435,420.401L202.489,420.401L204.421,405.83L207.131,405.83L204.287,424.614L200.369,424.614L197.524,405.83ZM214.43,405.83L216.98,405.83L209.573,424.614L207.024,424.614L214.43,405.83ZM220.898,408.513L217.812,408.513L217.812,405.83L226.936,405.83L226.936,408.513L223.85,408.513L223.85,424.614L220.898,424.614L220.898,408.513ZM229.404,405.83L233.403,405.83L236.462,424.614L233.51,424.614L232.974,420.884L232.974,420.938L229.619,420.938L229.082,424.614L226.345,424.614L229.404,405.83ZM232.625,418.389L231.31,409.104L231.256,409.104L229.968,418.389L232.625,418.389ZM237.884,405.83L242.232,405.83C243.699,405.83 244.799,406.223 245.532,407.01C246.266,407.798 246.633,408.952 246.633,410.472L246.633,412.324C246.633,413.845 246.266,414.998 245.532,415.786C244.799,416.573 243.699,416.966 242.232,416.966L240.836,416.966L240.836,424.614L237.884,424.614L237.884,405.83ZM242.232,414.283C242.715,414.283 243.077,414.149 243.319,413.88C243.56,413.612 243.681,413.156 243.681,412.512L243.681,410.284C243.681,409.64 243.56,409.184 243.319,408.916C243.077,408.647 242.715,408.513 242.232,408.513L240.836,408.513L240.836,414.283L242.232,414.283ZM250.604,408.513L247.518,408.513L247.518,405.83L256.642,405.83L256.642,408.513L253.556,408.513L253.556,424.614L250.604,424.614L250.604,408.513ZM262.224,424.883C260.775,424.883 259.666,424.471 258.896,423.648C258.127,422.825 257.743,421.663 257.743,420.16L257.743,410.284C257.743,408.782 258.127,407.619 258.896,406.796C259.666,405.973 260.775,405.561 262.224,405.561C263.673,405.561 264.782,405.973 265.552,406.796C266.321,407.619 266.706,408.782 266.706,410.284L266.706,420.16C266.706,421.663 266.321,422.825 265.552,423.648C264.782,424.471 263.673,424.883 262.224,424.883ZM262.224,422.199C263.244,422.199 263.754,421.582 263.754,420.348L263.754,410.097C263.754,408.862 263.244,408.245 262.224,408.245C261.204,408.245 260.694,408.862 260.694,410.097L260.694,420.348C260.694,421.582 261.204,422.199 262.224,422.199Z"/>
                </g>
            </g>
            <g id="Pins-Background" serif:id="Pins Background" transform="matrix(0.972696,0,0,1.27751,26.9411,-9.68519)">
                <path d="M593,39.22L593,63L7,63L7,39.22C7,36.339 10.072,34 13.855,34L586.145,34C589.928,34 593,36.339 593,39.22Z"/>
            </g>
            <g id="Pins" transform="matrix(1,0,0,1,0.74965,-13.2464)">
                <path d="M58.001,49L58.001,79.001L49,79.001L49,49L58.001,49ZM53.5,72.999C52.673,72.999 52.001,73.671 52.001,74.501C52.001,75.328 52.673,76 53.5,76C54.328,76 55,75.328 55,74.501C55,73.671 54.328,72.999 53.5,72.999ZM187.025,49L187.025,79.001L178.025,79.001L178.025,49L187.025,49ZM182.524,72.999C181.697,72.999 181.025,73.671 181.025,74.501C181.025,75.328 181.697,76 182.524,76C183.352,76 184.025,75.328 184.025,74.501C184.025,73.671 183.352,72.999 182.524,72.999ZM483.781,49L483.781,79.001L474.78,79.001L474.78,49L483.781,49ZM479.28,72.999C478.453,72.999 477.781,73.671 477.781,74.501C477.781,75.328 478.453,76 479.28,76C480.108,76 480.78,75.328 480.78,74.501C480.78,73.671 480.108,72.999 479.28,72.999ZM328.952,49L328.952,79.001L319.951,79.001L319.951,49L328.952,49ZM324.451,72.999C323.624,72.999 322.952,73.671 322.952,74.501C322.952,75.328 323.624,76 324.451,76C325.279,76 325.951,75.328 325.951,74.501C325.951,73.671 325.279,72.999 324.451,72.999ZM96.708,49L96.708,79.001L87.708,79.001L87.708,49L96.708,49ZM92.207,72.999C91.38,72.999 90.708,73.671 90.708,74.501C90.708,75.328 91.38,76 92.207,76C93.035,76 93.708,75.328 93.708,74.501C93.708,73.671 93.035,72.999 92.207,72.999ZM225.732,49L225.732,79.001L216.732,79.001L216.732,49L225.732,49ZM221.232,72.999C220.405,72.999 219.732,73.671 219.732,74.501C219.732,75.328 220.405,76 221.232,76C222.06,76 222.732,75.328 222.732,74.501C222.732,73.671 222.06,72.999 221.232,72.999ZM522.488,49L522.488,79.001L513.488,79.001L513.488,49L522.488,49ZM517.987,72.999C517.161,72.999 516.488,73.671 516.488,74.501C516.488,75.328 517.161,76 517.987,76C518.815,76 519.488,75.328 519.488,74.501C519.488,73.671 518.815,72.999 517.987,72.999ZM367.659,49L367.659,79.001L358.659,79.001L358.659,49L367.659,49ZM363.158,72.999C362.331,72.999 361.659,73.671 361.659,74.501C361.659,75.328 362.331,76 363.158,76C363.986,76 364.659,75.328 364.659,74.501C364.659,73.671 363.986,72.999 363.158,72.999ZM135.415,49L135.415,79.001L126.415,79.001L126.415,49L135.415,49ZM130.915,72.999C130.088,72.999 129.415,73.671 129.415,74.501C129.415,75.328 130.088,76 130.915,76C131.743,76 132.415,75.328 132.415,74.501C132.415,73.671 131.743,72.999 130.915,72.999ZM264.44,49L264.44,79.001L255.439,79.001L255.439,49L264.44,49ZM259.939,72.999C259.112,72.999 258.44,73.671 258.44,74.501C258.44,75.328 259.112,76 259.939,76C260.767,76 261.439,75.328 261.439,74.501C261.439,73.671 260.767,72.999 259.939,72.999ZM561.196,49L561.196,79.001L552.195,79.001L552.195,49L561.196,49ZM556.695,72.999C555.868,72.999 555.196,73.671 555.196,74.501C555.196,75.328 555.868,76 556.695,76C557.523,76 558.195,75.328 558.195,74.501C558.195,73.671 557.523,72.999 556.695,72.999ZM406.366,49L406.366,79.001L397.366,79.001L397.366,49L406.366,49ZM401.866,72.999C401.039,72.999 400.366,73.671 400.366,74.501C400.366,75.328 401.039,76 401.866,76C402.694,76 403.366,75.328 403.366,74.501C403.366,73.671 402.694,72.999 401.866,72.999ZM161.22,49L161.22,79.001L152.22,79.001L152.22,49L161.22,49ZM156.719,72.999C155.893,72.999 155.22,73.671 155.22,74.501C155.22,75.328 155.893,76 156.719,76C157.547,76 158.22,75.328 158.22,74.501C158.22,73.671 157.547,72.999 156.719,72.999ZM457.976,49L457.976,79.001L448.976,79.001L448.976,49L457.976,49ZM453.475,72.999C452.648,72.999 451.976,73.671 451.976,74.501C451.976,75.328 452.648,76 453.475,76C454.303,76 454.976,75.328 454.976,74.501C454.976,73.671 454.303,72.999 453.475,72.999ZM290.245,49L290.245,79.001L281.244,79.001L281.244,49L290.245,49ZM285.744,72.999C284.917,72.999 284.245,73.671 284.245,74.501C284.245,75.328 284.917,76 285.744,76C286.572,76 287.244,75.328 287.244,74.501C287.244,73.671 286.572,72.999 285.744,72.999ZM587,49L587,79.001L578,79.001L578,49L587,49ZM582.5,72.999C581.673,72.999 581,73.671 581,74.501C581,75.328 581.673,76 582.5,76C583.328,76 584,75.328 584,74.501C584,73.671 583.328,72.999 582.5,72.999ZM432.171,49L432.171,79.001L423.171,79.001L423.171,49L432.171,49ZM427.67,72.999C426.844,72.999 426.171,73.671 426.171,74.501C426.171,75.328 426.844,76 427.67,76C428.498,76 429.171,75.328 429.171,74.501C429.171,73.671 428.498,72.999 427.67,72.999ZM109.611,49L109.611,79.001L100.61,79.001L100.61,49L109.611,49ZM105.11,72.999C104.283,72.999 103.611,73.671 103.611,74.501C103.611,75.328 104.283,76 105.11,76C105.938,76 106.61,75.328 106.61,74.501C106.61,73.671 105.938,72.999 105.11,72.999ZM238.635,49L238.635,79.001L229.634,79.001L229.634,49L238.635,49ZM234.134,72.999C233.307,72.999 232.635,73.671 232.635,74.501C232.635,75.328 233.307,76 234.134,76C234.962,76 235.634,75.328 235.634,74.501C235.634,73.671 234.962,72.999 234.134,72.999ZM535.391,49L535.391,79.001L526.39,79.001L526.39,49L535.391,49ZM530.89,72.999C530.063,72.999 529.391,73.671 529.391,74.501C529.391,75.328 530.063,76 530.89,76C531.718,76 532.39,75.328 532.39,74.501C532.39,73.671 531.718,72.999 530.89,72.999ZM380.562,49L380.562,79.001L371.561,79.001L371.561,49L380.562,49ZM376.061,72.999C375.234,72.999 374.562,73.671 374.562,74.501C374.562,75.328 375.234,76 376.061,76C376.889,76 377.561,75.328 377.561,74.501C377.561,73.671 376.889,72.999 376.061,72.999ZM148.318,49L148.318,79.001L139.317,79.001L139.317,49L148.318,49ZM143.817,72.999C142.99,72.999 142.318,73.671 142.318,74.501C142.318,75.328 142.99,76 143.817,76C144.645,76 145.317,75.328 145.317,74.501C145.317,73.671 144.645,72.999 143.817,72.999ZM277.342,49L277.342,79.001L268.342,79.001L268.342,49L277.342,49ZM272.841,72.999C272.014,72.999 271.342,73.671 271.342,74.501C271.342,75.328 272.014,76 272.841,76C273.669,76 274.342,75.328 274.342,74.501C274.342,73.671 273.669,72.999 272.841,72.999ZM574.098,49L574.098,79.001L565.097,79.001L565.097,49L574.098,49ZM569.597,72.999C568.77,72.999 568.098,73.671 568.098,74.501C568.098,75.328 568.77,76 569.597,76C570.425,76 571.097,75.328 571.097,74.501C571.097,73.671 570.425,72.999 569.597,72.999ZM419.269,49L419.269,79.001L410.268,79.001L410.268,49L419.269,49ZM414.768,72.999C413.941,72.999 413.269,73.671 413.269,74.501C413.269,75.328 413.941,76 414.768,76C415.596,76 416.268,75.328 416.268,74.501C416.268,73.671 415.596,72.999 414.768,72.999ZM174.123,49L174.123,79.001L165.122,79.001L165.122,49L174.123,49ZM169.622,72.999C168.795,72.999 168.123,73.671 168.123,74.501C168.123,75.328 168.795,76 169.622,76C170.45,76 171.122,75.328 171.122,74.501C171.122,73.671 170.45,72.999 169.622,72.999ZM470.879,49L470.879,79.001L461.878,79.001L461.878,49L470.879,49ZM466.378,72.999C465.551,72.999 464.879,73.671 464.879,74.501C464.879,75.328 465.551,76 466.378,76C467.206,76 467.878,75.328 467.878,74.501C467.878,73.671 467.206,72.999 466.378,72.999ZM316.049,49L316.049,79.001L307.049,79.001L307.049,49L316.049,49ZM311.549,72.999C310.722,72.999 310.049,73.671 310.049,74.501C310.049,75.328 310.722,76 311.549,76C312.377,76 313.049,75.328 313.049,74.501C313.049,73.671 312.377,72.999 311.549,72.999ZM303.147,49L303.147,79.001L294.146,79.001L294.146,49L303.147,49ZM298.646,72.999C297.819,72.999 297.147,73.671 297.147,74.501C297.147,75.328 297.819,76 298.646,76C299.474,76 300.146,75.328 300.146,74.501C300.146,73.671 299.474,72.999 298.646,72.999ZM445.074,49L445.074,79.001L436.073,79.001L436.073,49L445.074,49ZM440.573,72.999C439.746,72.999 439.074,73.671 439.074,74.501C439.074,75.328 439.746,76 440.573,76C441.401,76 442.073,75.328 442.073,74.501C442.073,73.671 441.401,72.999 440.573,72.999ZM64.821,79L61.903,79L61.903,49L70.903,49L70.903,79L68.187,79L67.015,84.044L65.993,84.044L64.821,79ZM66.403,73C65.575,73 64.903,73.672 64.903,74.5C64.903,75.328 65.575,76 66.403,76C67.231,76 67.903,75.328 67.903,74.5C67.903,73.672 67.231,73 66.403,73ZM193.845,79L190.927,79L190.927,49L199.927,49L199.927,79L197.211,79L196.039,84.044L195.017,84.044L193.845,79ZM195.427,73C194.599,73 193.927,73.672 193.927,74.5C193.927,75.328 194.599,76 195.427,76C196.255,76 196.927,75.328 196.927,74.5C196.927,73.672 196.255,73 195.427,73ZM490.601,79L487.683,79L487.683,49L496.683,49L496.683,79L493.967,79L492.795,84.044L491.773,84.044L490.601,79ZM492.183,73C491.355,73 490.683,73.672 490.683,74.5C490.683,75.328 491.355,76 492.183,76C493.011,76 493.683,75.328 493.683,74.5C493.683,73.672 493.011,73 492.183,73ZM335.772,79L332.854,79L332.854,49L341.854,49L341.854,79L339.138,79L337.966,84.044L336.944,84.044L335.772,79ZM337.354,73C336.526,73 335.854,73.672 335.854,74.5C335.854,75.328 336.526,76 337.354,76C338.182,76 338.854,75.328 338.854,74.5C338.854,73.672 338.182,73 337.354,73ZM115.431,79L113.513,79L113.513,49L122.513,49L122.513,79L117.797,79L116.625,84.044L115.603,84.044L115.431,79ZM118.013,73C117.185,73 116.513,73.672 116.513,74.5C116.513,75.328 117.185,76 118.013,76C118.841,76 119.513,75.328 119.513,74.5C119.513,73.672 118.841,73 118.013,73ZM244.455,79L242.537,79L242.537,49L251.537,49L251.537,79L246.821,79L245.649,84.044L244.627,84.044L244.455,79ZM247.037,73C246.209,73 245.537,73.672 245.537,74.5C245.537,75.328 246.209,76 247.037,76C247.865,76 248.537,75.328 248.537,74.5C248.537,73.672 247.865,73 247.037,73ZM541.211,79L539.293,79L539.293,49L548.293,49L548.293,79L543.577,79L542.405,84.044L541.383,84.044L541.211,79ZM543.793,73C542.965,73 542.293,73.672 542.293,74.5C542.293,75.328 542.965,76 543.793,76C544.621,76 545.293,75.328 545.293,74.5C545.293,73.672 544.621,73 543.793,73ZM386.382,79L384.464,79L384.464,49L393.464,49L393.464,79L388.748,79L387.576,84.044L386.554,84.044L386.382,79ZM388.964,73C388.136,73 387.464,73.672 387.464,74.5C387.464,75.328 388.136,76 388.964,76C389.792,76 390.464,75.328 390.464,74.5C390.464,73.672 389.792,73 388.964,73ZM79.723,79L74.805,79L74.805,49L83.805,49L83.805,79L82.089,79L81.917,84.044L80.895,84.044L79.723,79ZM79.305,73C78.477,73 77.805,73.672 77.805,74.5C77.805,75.328 78.477,76 79.305,76C80.133,76 80.805,75.328 80.805,74.5C80.805,73.672 80.133,73 79.305,73ZM208.748,79L203.83,79L203.83,49L212.83,49L212.83,79L211.114,79L210.942,84.044L209.92,84.044L208.748,79ZM208.33,73C207.502,73 206.83,73.672 206.83,74.5C206.83,75.328 207.502,76 208.33,76C209.158,76 209.83,75.328 209.83,74.5C209.83,73.672 209.158,73 208.33,73ZM505.504,79L500.586,79L500.586,49L509.586,49L509.586,79L507.87,79L507.698,84.044L506.676,84.044L505.504,79ZM505.086,73C504.258,73 503.586,73.672 503.586,74.5C503.586,75.328 504.258,76 505.086,76C505.914,76 506.586,75.328 506.586,74.5C506.586,73.672 505.914,73 505.086,73ZM350.674,79L345.756,79L345.756,49L354.756,49L354.756,79L353.04,79L352.868,84.044L351.846,84.044L350.674,79ZM350.256,73C349.428,73 348.756,73.672 348.756,74.5C348.756,75.328 349.428,76 350.256,76C351.084,76 351.756,75.328 351.756,74.5C351.756,73.672 351.084,73 350.256,73Z" style="fill:url(#_Linear1);"/>
            </g>
        </g>
    </g>
    <defs>
        <linearGradient id="_Linear1" x1="0" y1="0" x2="1" y2="0" gradientUnits="userSpaceOnUse" gradientTransform="matrix(-441.145,5.40247e-14,-5.40247e-14,-441.145,563.077,50.0471)"><stop offset="0" style="stop-color:rgb(215,192,0);stop-opacity:1"/><stop offset="0.34" style="stop-color:rgb(207,182,0);stop-opacity:1"/><stop offset="0.62" style="stop-color:rgb(255,255,191);stop-opacity:1"/><stop offset="0.76" style="stop-color:rgb(224,202,0);stop-opacity:1"/><stop offset="1" style="stop-color:rgb(255,239,122);stop-opacity:1"/></linearGradient>
    </defs>
</svg>
