<?xml version="1.0" encoding="UTF-8" standalone="no"?>
<svg
   width="619"
   height="994"
   viewBox="0 0 198.04802 318.04802"
   version="1.1"
   xml:space="preserve"
   style="clip-rule:evenodd;fill-rule:evenodd;stroke-linejoin:round;stroke-miterlimit:2"
   id="svg10"
   xmlns="http://www.w3.org/2000/svg"
   xmlns:svg="http://www.w3.org/2000/svg"
   xmlns:serif="http://www.serif.com/">
    <g
   id="Background"
   transform="scale(0.31999999)">
        <path
   id="Sticker-Rounded"
   serif:id="Sticker Rounded"
   d="m 618.9,24.756 v 944.388 c 0,13.663 -11.093,24.756 -24.756,24.756 H 24.756 C 11.093,993.9 0,982.807 0,969.144 V 24.756 C 0,11.093 11.093,0 24.756,0 H 594.144 C 607.807,0 618.9,11.093 618.9,24.756 Z"
   style="fill:transparent" />
    </g>
    <g
   id="Card-Frame"
   serif:id="Card Frame"
   transform="scale(0.31999999)">
        <g
   id="Artwork-Area"
   serif:id="Artwork Area">
            <path
   d="m 609.525,258.529 v 707.992 c 0,9.936 -8.068,18.004 -18.004,18.004 H 27.379 c -9.936,0 -18.004,-8.068 -18.004,-18.004 V 258.529 c 0,-9.936 8.068,-18.004 18.004,-18.004 h 564.142 c 9.936,0 18.004,8.068 18.004,18.004 z M 394.418,972.025 h 197.103 c 3.038,0 5.504,-2.466 5.504,-5.504 V 258.529 c 0,-3.038 -2.466,-5.504 -5.504,-5.504 H 27.379 c -3.038,0 -5.504,2.466 -5.504,5.504 v 707.992 c 0,3.038 2.466,5.504 5.504,5.504 h 197.103 c 5.51,-0.187 9.926,-4.719 9.926,-10.274 v -36.737 h 139.803 c 5.674,0 10.281,4.607 10.281,10.281 v 26.456 c 0,5.555 4.416,10.087 9.926,10.274 z"
   id="path1" />
            <path
   id="TapTo-Logo---Bottom"
   serif:id="TapTo Logo - Bottom"
   d="m 369.478,940.449 h -34.407 v 26.612 h -9.741 v -26.612 h -32.172 v -9.435 h 76.32 z m 0,0 h 9.014 v 23.638 c 0,7.974 -6.176,14.438 -13.794,14.438 h -60.142 v -9.434 h 57.774 c 3.948,0 7.148,-3.35 7.148,-7.484 z m 0.616,-3.121 v -1.175 c 1.924,0 3.489,1.638 3.489,3.652 h -1.123 c 0,-1.366 -1.062,-2.477 -2.366,-2.477 z m 4.82,2.478 c 0,-2.783 -2.162,-5.047 -4.82,-5.047 v -1.176 c 3.277,0 5.943,2.792 5.943,6.223 z m 2.455,0 c 0,-4.199 -3.264,-7.616 -7.275,-7.616 v -1.176 c 4.63,0 8.398,3.944 8.398,8.792 z m -85.78,0.643 h -32.172 v 21.159 c 0,4.133 3.2,7.483 7.149,7.483 h 25.023 v 9.434 h -28.121 c -7.617,0 -13.793,-6.464 -13.793,-14.438 v -23.638 h -9.267 v -9.435 h 51.181 z m -29.937,2.03 h 29.937 v 24.582 h -9.741 v -15.147 h -10.455 v 4.407 c 0,0.721 0.558,1.305 1.247,1.305 h 7.551 v 9.435 h -12.676 c -3.238,0 -5.863,-2.748 -5.863,-6.138 z m 31.506,0 h 29.937 v 18.444 c 0,3.39 -2.625,6.138 -5.863,6.138 h -12.676 v -9.435 h 7.55 c 0.689,0 1.248,-0.584 1.248,-1.305 v -4.407 H 302.9 v 26.611 h -9.742 z m 74.085,0 v 18.444 c 0,3.39 -2.625,6.138 -5.863,6.138 h -18.21 c -3.238,0 -5.864,-2.748 -5.864,-6.138 v -18.444 z m -9.741,9.435 h -10.454 v 4.407 c 0,0.721 0.558,1.305 1.247,1.305 h 7.96 c 0.689,0 1.247,-0.584 1.247,-1.305 z"
   style="fill:#ffffff" />
        </g>
        <g
   id="Card-Top"
   serif:id="Card Top">
            <path
   id="Header-Background"
   serif:id="Header Background"
   d="m 609.525,48.574 v 158.932 c 0,9.958 -8.084,18.042 -18.041,18.042 H 27.416 c -9.957,0 -18.041,-8.084 -18.041,-18.042 V 48.574 Z"
   style="fill:#340083" />
            <path
   id="NFC-Loading-System"
   serif:id="NFC Loading System"
   d="m 359.638,207.572 h -2.308 v -1.58 h -13.638 v 1.58 h -2.309 v -19.828 h 18.255 z m -2.308,-3.943 v -13.522 h -13.638 v 13.522 z m 29.621,-5.599 H 365.64 v -2.376 h 21.311 z m 26.353,-7.448 -1.772,0.77 c -0.307,-1.455 -0.715,-2.632 -1.222,-3.531 l 1.859,-0.783 c 0.474,0.958 0.852,2.14 1.135,3.544 z m -7.112,-0.732 h -12.777 v -2.376 h 12.777 z m 4.267,1.785 -1.759,0.758 c -0.316,-1.447 -0.724,-2.62 -1.223,-3.519 l 1.859,-0.783 c 0.475,0.958 0.849,2.14 1.123,3.544 z m 1.822,4.687 h -9.071 c 0.016,0.206 0.025,0.557 0.025,1.053 0,5.231 -2.234,8.955 -6.701,11.173 l -1.809,-2.106 c 2.03,-0.737 3.567,-1.854 4.611,-3.352 1.044,-1.498 1.565,-3.301 1.565,-5.407 0,-0.616 -0.016,-1.07 -0.049,-1.361 h -9.908 v -2.376 h 21.337 z m 21.736,-6.446 c -1.905,2.345 -3.41,3.985 -4.517,4.918 v 10.415 h -2.121 v -8.681 c -2.038,1.566 -3.997,2.761 -5.877,3.583 l -1.31,-1.927 c 2.238,-0.907 4.506,-2.288 6.806,-4.141 2.301,-1.854 4.07,-3.727 5.31,-5.619 z m 17.556,1.078 -1.372,2.055 c -2.063,-1.789 -4.492,-3.035 -7.287,-3.737 l 1.41,-2.157 c 2.944,1.095 5.361,2.375 7.249,3.839 z m 11.505,2.684 c -2.937,4.461 -5.848,7.675 -8.735,9.644 -2.886,1.97 -6.151,3.481 -9.795,4.534 l -1.46,-2.376 c 4.559,-1.01 8.215,-2.624 10.968,-4.841 2.754,-2.218 5.149,-5.107 7.187,-8.669 z m 26.265,-5.47 -1.759,0.757 c -0.316,-1.455 -0.724,-2.628 -1.223,-3.518 l 1.859,-0.797 c 0.474,0.959 0.848,2.145 1.123,3.558 z m -2.832,1.053 -1.049,0.526 0.974,0.989 c -0.691,4.246 -2.163,7.784 -4.417,10.614 -2.255,2.829 -5.47,5.139 -9.646,6.928 l -1.759,-2.209 c 3.802,-1.327 6.782,-3.114 8.94,-5.361 2.159,-2.248 3.6,-5.114 4.324,-8.598 h -9.508 c -1.622,2.372 -3.224,4.079 -4.804,5.124 l -1.859,-1.682 c 3.427,-2.338 5.939,-5.676 7.536,-10.017 l 2.196,1.104 c -0.482,1.148 -1.002,2.184 -1.559,3.108 h 8.821 c -0.324,-1.361 -0.719,-2.457 -1.185,-3.287 l 1.872,-0.797 c 0.474,0.959 0.848,2.145 1.123,3.558 z m 17.893,-0.527 -0.824,2.389 c -2.229,-1.319 -4.821,-2.132 -7.774,-2.44 l 0.824,-2.453 c 3.277,0.702 5.869,1.537 7.774,2.504 z m 9.982,5.124 c -2.354,3.844 -5.004,6.877 -7.949,9.098 -2.944,2.222 -6.496,3.907 -10.656,5.054 l -1.172,-2.427 c 4.333,-1.036 7.946,-2.639 10.836,-4.81 2.891,-2.17 5.21,-5.019 6.957,-8.546 z m -12.416,1.503 -0.898,2.491 c -1.963,-1.413 -4.517,-2.299 -7.661,-2.658 l 0.823,-2.389 c 3.153,0.608 5.732,1.46 7.736,2.556 z m 39.205,11.043 -1.996,1.503 c -2.463,-3.459 -5.341,-6.228 -8.635,-8.309 -2.67,3.442 -5.943,6.357 -9.82,8.746 l -1.784,-1.888 c 3.219,-1.738 6.054,-4.011 8.503,-6.819 2.45,-2.808 4.361,-5.98 5.734,-9.516 h -12.802 v -2.26 l 14.973,-0.026 0.686,0.732 c -0.931,3.365 -2.312,6.408 -4.142,9.131 3.552,2.328 6.646,5.231 9.283,8.706 z M 563.048,189.85 H 546.74 v -2.376 h 16.308 z m 2.558,6.472 h -9.071 c 0.017,0.206 0.025,0.557 0.025,1.053 0,5.231 -2.233,8.955 -6.7,11.173 l -1.81,-2.106 c 2.03,-0.737 3.567,-1.854 4.611,-3.352 1.044,-1.498 1.566,-3.301 1.566,-5.407 0,-0.616 -0.017,-1.07 -0.05,-1.361 h -9.907 v -2.376 h 21.336 z m 26.029,10.325 -2.271,0.976 c -0.308,-1.096 -0.766,-2.277 -1.373,-3.544 -8.584,0.89 -14.378,1.635 -17.381,2.234 l -0.612,-2.555 2.933,-0.334 6.65,-17.311 2.121,0.847 -6.213,16.117 11.167,-1.259 c -1.422,-2.739 -2.741,-4.73 -3.955,-5.971 l 2.37,-1.053 c 2.28,2.945 4.467,6.896 6.564,11.853 z M 341.874,179.288 c -0.544,0 -0.986,-0.442 -0.986,-0.986 0,-0.545 0.442,-0.987 0.986,-0.987 h 249.665 c 0.544,0 0.986,0.442 0.986,0.987 0,0.544 -0.442,0.986 -0.986,0.986 z m 0,-37.412 h 5.445 l 4.221,16.53 h 0.079 v -16.53 h 3.867 v 27.615 h -4.459 l -5.208,-20.159 h -0.078 v 20.159 h -3.867 z m 16.847,0 h 11.481 v 3.945 h -7.141 v 7.693 h 5.602 v 3.945 h -5.602 v 12.032 h -4.34 z m 19.687,28.01 c -2.077,0 -3.662,-0.592 -4.754,-1.776 -1.091,-1.183 -1.637,-2.853 -1.637,-5.01 v -14.833 c 0,-2.157 0.546,-3.827 1.637,-5.01 1.092,-1.184 2.677,-1.776 4.754,-1.776 2.078,0 3.663,0.592 4.755,1.776 1.091,1.183 1.637,2.853 1.637,5.01 v 2.919 h -4.103 v -3.195 c 0,-1.71 -0.724,-2.565 -2.17,-2.565 -1.447,0 -2.17,0.855 -2.17,2.565 v 15.425 c 0,1.683 0.723,2.525 2.17,2.525 1.446,0 2.17,-0.842 2.17,-2.525 v -4.221 h 4.103 v 3.905 c 0,2.157 -0.546,3.827 -1.637,5.01 -1.092,1.184 -2.677,1.776 -4.755,1.776 z m 15.309,-28.01 h 4.339 v 23.67 h 7.142 v 3.945 h -11.481 z m 19.687,28.01 c -2.13,0 -3.761,-0.605 -4.892,-1.815 -1.131,-1.21 -1.697,-2.919 -1.697,-5.129 v -14.517 c 0,-2.21 0.566,-3.919 1.697,-5.129 1.131,-1.21 2.762,-1.815 4.892,-1.815 2.131,0 3.761,0.605 4.892,1.815 1.131,1.21 1.697,2.919 1.697,5.129 v 14.517 c 0,2.21 -0.566,3.919 -1.697,5.129 -1.131,1.21 -2.761,1.815 -4.892,1.815 z m 0,-3.945 c 1.499,0 2.249,-0.908 2.249,-2.723 v -15.07 c 0,-1.814 -0.75,-2.722 -2.249,-2.722 -1.499,0 -2.249,0.908 -2.249,2.722 v 15.07 c 0,1.815 0.75,2.723 2.249,2.723 z m 12.783,-24.065 h 5.879 l 4.498,27.615 h -4.34 l -0.789,-5.484 v 0.079 h -4.932 l -0.789,5.405 h -4.025 z m 4.735,18.463 -1.934,-13.65 h -0.079 l -1.893,13.65 z m 7.733,-18.463 h 6.628 c 2.157,0 3.774,0.579 4.853,1.736 1.078,1.157 1.617,2.853 1.617,5.089 v 13.965 c 0,2.236 -0.539,3.932 -1.617,5.089 -1.079,1.157 -2.696,1.736 -4.853,1.736 h -6.628 z m 6.549,23.67 c 0.71,0 1.256,-0.21 1.637,-0.631 0.382,-0.421 0.572,-1.105 0.572,-2.052 v -14.359 c 0,-0.947 -0.19,-1.631 -0.572,-2.052 -0.381,-0.421 -0.927,-0.631 -1.637,-0.631 h -2.209 v 19.725 z m 9.469,-23.67 h 4.34 v 27.615 h -4.34 z m 7.575,0 h 5.445 l 4.221,16.53 h 0.079 v -16.53 h 3.867 v 27.615 h -4.459 l -5.208,-20.159 h -0.078 v 20.159 h -3.867 z m 23.002,28.01 c -2.104,0 -3.709,-0.599 -4.814,-1.795 -1.104,-1.197 -1.657,-2.913 -1.657,-5.149 v -14.517 c 0,-2.236 0.553,-3.952 1.657,-5.149 1.105,-1.196 2.71,-1.795 4.814,-1.795 2.104,0 3.708,0.599 4.813,1.795 1.105,1.197 1.657,2.913 1.657,5.149 v 2.367 h -4.103 v -2.644 c 0,-1.814 -0.75,-2.722 -2.249,-2.722 -1.499,0 -2.249,0.908 -2.249,2.722 v 15.11 c 0,1.788 0.75,2.683 2.249,2.683 1.499,0 2.249,-0.895 2.249,-2.683 v -5.405 h -2.17 v -3.945 h 6.273 v 9.034 c 0,2.236 -0.552,3.952 -1.657,5.149 -1.105,1.196 -2.709,1.795 -4.813,1.795 z m 21.226,0 c -2.104,0 -3.696,-0.599 -4.774,-1.795 -1.078,-1.197 -1.618,-2.913 -1.618,-5.149 v -1.578 h 4.104 v 1.894 c 0,1.788 0.749,2.683 2.248,2.683 0.737,0 1.296,-0.217 1.677,-0.651 0.382,-0.434 0.572,-1.138 0.572,-2.111 0,-1.157 -0.263,-2.176 -0.789,-3.057 -0.526,-0.881 -1.499,-1.94 -2.919,-3.176 -1.789,-1.578 -3.038,-3.005 -3.748,-4.28 -0.711,-1.276 -1.066,-2.716 -1.066,-4.32 0,-2.183 0.553,-3.873 1.657,-5.07 1.105,-1.196 2.71,-1.795 4.814,-1.795 2.078,0 3.649,0.599 4.715,1.795 1.065,1.197 1.597,2.913 1.597,5.149 v 1.144 h -4.103 v -1.421 c 0,-0.946 -0.184,-1.637 -0.552,-2.071 -0.368,-0.434 -0.908,-0.651 -1.618,-0.651 -1.446,0 -2.17,0.881 -2.17,2.644 0,0.999 0.27,1.933 0.809,2.801 0.539,0.867 1.519,1.919 2.939,3.156 1.815,1.578 3.065,3.011 3.748,4.3 0.684,1.288 1.026,2.801 1.026,4.536 0,2.262 -0.559,3.998 -1.676,5.208 -1.118,1.21 -2.743,1.815 -4.873,1.815 z m 12.783,-12.151 -5.247,-15.859 h 4.616 l 2.959,10.139 h 0.079 l 2.959,-10.139 h 4.221 l -5.247,15.859 v 11.756 h -4.34 z m 16.571,12.151 c -2.105,0 -3.696,-0.599 -4.774,-1.795 -1.079,-1.197 -1.618,-2.913 -1.618,-5.149 v -1.578 h 4.103 v 1.894 c 0,1.788 0.75,2.683 2.249,2.683 0.737,0 1.296,-0.217 1.677,-0.651 0.381,-0.434 0.572,-1.138 0.572,-2.111 0,-1.157 -0.263,-2.176 -0.789,-3.057 -0.526,-0.881 -1.499,-1.94 -2.92,-3.176 -1.788,-1.578 -3.038,-3.005 -3.748,-4.28 -0.71,-1.276 -1.065,-2.716 -1.065,-4.32 0,-2.183 0.552,-3.873 1.657,-5.07 1.105,-1.196 2.709,-1.795 4.813,-1.795 2.078,0 3.65,0.599 4.715,1.795 1.065,1.197 1.598,2.913 1.598,5.149 v 1.144 h -4.103 v -1.421 c 0,-0.946 -0.184,-1.637 -0.552,-2.071 -0.369,-0.434 -0.908,-0.651 -1.618,-0.651 -1.447,0 -2.17,0.881 -2.17,2.644 0,0.999 0.27,1.933 0.809,2.801 0.539,0.867 1.519,1.919 2.939,3.156 1.815,1.578 3.064,3.011 3.748,4.3 0.684,1.288 1.026,2.801 1.026,4.536 0,2.262 -0.559,3.998 -1.677,5.208 -1.118,1.21 -2.742,1.815 -4.872,1.815 z m 12.428,-24.065 h -4.538 v -3.945 h 13.415 v 3.945 h -4.537 v 23.67 h -4.34 z m 10.968,-3.945 h 11.836 v 3.945 h -7.496 v 7.298 h 5.957 v 3.945 h -5.957 v 8.482 h 7.496 v 3.945 h -11.836 z m 14.322,0 h 6.194 l 2.762,19.764 h 0.079 l 2.761,-19.764 h 6.195 v 27.615 h -4.104 v -20.909 h -0.078 l -3.157,20.909 h -3.63 l -3.156,-20.909 h -0.079 v 20.909 h -3.787 z"
   style="fill:#ffffff" />
            <path
   id="TapTo-Logo---Top"
   serif:id="TapTo Logo - Top"
   d="m 295.631,132.729 h -71.763 v 52.99 h -20.317 v -52.99 h -67.099 v -18.787 h 159.179 z m 0,0 h 18.798 v 47.068 c 0,15.879 -12.881,28.751 -28.769,28.751 H 160.223 v -18.786 h 120.498 c 8.234,0 14.91,-6.672 14.91,-14.902 z m 1.283,-6.215 v -2.34 c 4.013,0 7.277,3.262 7.277,7.273 h -2.342 c 0,-2.72 -2.214,-4.933 -4.935,-4.933 z m 10.054,4.934 c 0,-5.542 -4.51,-10.05 -10.054,-10.05 v -2.34 c 6.835,0 12.396,5.558 12.396,12.39 z m 5.119,0 c 0,-8.362 -6.808,-15.164 -15.173,-15.164 v -2.342 c 9.657,0 17.515,7.853 17.515,17.506 z m -178.908,1.281 h -67.1 v 42.132 c 0,8.229 6.675,14.901 14.91,14.901 h 52.19 v 18.786 h -58.65 c -15.888,0 -28.767,-12.872 -28.767,-28.751 V 132.729 H 26.434 v -18.787 h 106.745 z m -62.438,4.042 h 62.438 v 48.948 h -20.317 v -30.16 H 91.058 v 8.775 c 0,1.436 1.163,2.598 2.6,2.598 h 15.749 v 18.787 H 82.969 c -6.754,0 -12.228,-5.471 -12.228,-12.221 z m 65.711,0 h 62.438 v 36.727 c 0,6.75 -5.475,12.221 -12.229,12.221 h -26.438 v -18.787 h 15.749 c 1.436,0 2.601,-1.162 2.601,-2.598 v -8.775 h -21.804 v 52.989 h -20.317 z m 154.517,0 v 36.727 c 0,6.75 -5.475,12.221 -12.228,12.221 h -37.982 c -6.753,0 -12.229,-5.471 -12.229,-12.221 v -36.727 z m -20.318,18.788 h -21.804 v 8.775 c 0,1.436 1.165,2.598 2.602,2.598 h 16.602 c 1.437,0 2.6,-1.162 2.6,-2.598 z"
   style="fill:#ffffff" />
            <g
   id="Wizzo.dev-TapTo"
   serif:id="Wizzo.dev/TapTo">
                <path
   d="m 592.525,95.023 v 0.009 c 0,10.346 -8.4,18.746 -18.745,18.746 H 437.27 c -10.345,0 -18.745,-8.4 -18.745,-18.746 v -0.009 c 0,-10.346 8.4,-18.745 18.745,-18.745 h 136.51 c 10.345,0 18.745,8.399 18.745,18.745 z"
   style="fill:#ffffff"
   id="path2" />
                <path
   d="m 434.455,85.823 h 2.788 l 1.289,14.149 h 0.053 l 1.368,-14.149 h 3.156 l 1.368,14.149 h 0.052 l 1.289,-14.149 h 2.499 l -1.868,18.41 h -3.603 l -1.315,-12.414 h -0.053 l -1.315,12.414 h -3.84 z m 15.335,0 h 2.893 v 18.41 h -2.893 z m 4.471,15.832 5.366,-13.202 h -5.103 v -2.63 h 8.207 V 88.4 l -5.366,13.203 h 5.366 v 2.63 h -8.47 z m 9.653,0 5.366,-13.202 h -5.103 v -2.63 h 8.207 V 88.4 l -5.366,13.203 h 5.366 v 2.63 h -8.47 z m 14.283,2.841 c -1.421,0 -2.508,-0.403 -3.262,-1.21 -0.754,-0.806 -1.131,-1.946 -1.131,-3.419 v -9.678 c 0,-1.473 0.377,-2.613 1.131,-3.419 0.754,-0.807 1.841,-1.21 3.262,-1.21 1.42,0 2.507,0.403 3.261,1.21 0.754,0.806 1.131,1.946 1.131,3.419 v 9.678 c 0,1.473 -0.377,2.613 -1.131,3.419 -0.754,0.807 -1.841,1.21 -3.261,1.21 z m 0,-2.63 c 0.999,0 1.499,-0.605 1.499,-1.815 V 90.005 c 0,-1.21 -0.5,-1.815 -1.499,-1.815 -1,0 -1.5,0.605 -1.5,1.815 v 10.046 c 0,1.21 0.5,1.815 1.5,1.815 z m 6.181,-0.421 h 2.788 v 2.788 h -2.788 z m 4.945,-15.622 h 4.418 c 1.438,0 2.517,0.386 3.236,1.157 0.719,0.771 1.078,1.902 1.078,3.393 v 9.31 c 0,1.49 -0.359,2.621 -1.078,3.393 -0.719,0.771 -1.798,1.157 -3.236,1.157 h -4.418 z m 4.366,15.78 c 0.473,0 0.837,-0.14 1.091,-0.421 0.255,-0.28 0.382,-0.736 0.382,-1.368 v -9.573 c 0,-0.631 -0.127,-1.087 -0.382,-1.367 -0.254,-0.281 -0.618,-0.421 -1.091,-0.421 h -1.473 v 13.15 z m 6.312,-15.78 h 7.891 v 2.63 h -4.997 v 4.865 h 3.971 v 2.63 h -3.971 v 5.655 h 4.997 v 2.63 h -7.891 z m 8.786,0 h 2.919 l 1.894,14.281 h 0.053 l 1.893,-14.281 h 2.657 l -2.788,18.41 h -3.84 z m 16.57,0 h 2.499 l -7.26,18.41 h -2.498 z m 6.339,2.63 h -3.025 v -2.63 h 8.943 v 2.63 h -3.025 v 15.78 h -2.893 z m 8.338,-2.63 h 3.919 l 2.999,18.41 h -2.894 l -0.526,-3.656 v 0.053 h -3.288 l -0.526,3.603 h -2.682 z m 3.156,12.308 -1.288,-9.1 h -0.053 l -1.263,9.1 z m 5.156,-12.308 h 4.261 c 1.438,0 2.516,0.386 3.235,1.157 0.719,0.771 1.078,1.902 1.078,3.393 v 1.814 c 0,1.491 -0.359,2.622 -1.078,3.393 -0.719,0.772 -1.797,1.157 -3.235,1.157 h -1.368 v 7.496 h -2.893 z m 4.261,8.284 c 0.473,0 0.828,-0.131 1.065,-0.394 0.237,-0.263 0.355,-0.71 0.355,-1.341 v -2.183 c 0,-0.632 -0.118,-1.079 -0.355,-1.342 -0.237,-0.263 -0.592,-0.394 -1.065,-0.394 h -1.368 v 5.654 z m 8.206,-5.654 h -3.025 v -2.63 h 8.943 v 2.63 h -3.025 v 15.78 h -2.893 z m 11.389,16.043 c -1.42,0 -2.507,-0.403 -3.261,-1.21 -0.754,-0.806 -1.131,-1.946 -1.131,-3.419 v -9.678 c 0,-1.473 0.377,-2.613 1.131,-3.419 0.754,-0.807 1.841,-1.21 3.261,-1.21 1.421,0 2.508,0.403 3.262,1.21 0.754,0.806 1.131,1.946 1.131,3.419 v 9.678 c 0,1.473 -0.377,2.613 -1.131,3.419 -0.754,0.807 -1.841,1.21 -3.262,1.21 z m 0,-2.63 c 1,0 1.499,-0.605 1.499,-1.815 V 90.005 c 0,-1.21 -0.499,-1.815 -1.499,-1.815 -0.999,0 -1.499,0.605 -1.499,1.815 v 10.046 c 0,1.21 0.5,1.815 1.499,1.815 z"
   id="path3" />
            </g>
            <path
   id="Pins-Background"
   serif:id="Pins Background"
   d="M 9.375,48.574 V 27.416 c 0,-9.957 8.084,-18.041 18.041,-18.041 h 564.068 c 9.957,0 18.041,8.084 18.041,18.041 v 21.158 z" />
            <path
   id="Pins"
   d="M 35.903,11.708 V 43.269 H 26.434 V 11.708 Z m -4.735,25.247 c -0.87,0 -1.577,0.707 -1.577,1.58 0,0.87 0.707,1.577 1.577,1.577 0.871,0 1.578,-0.707 1.578,-1.577 0,-0.873 -0.707,-1.58 -1.578,-1.58 z M 171.65,11.708 v 31.561 h -9.469 V 11.708 Z m -4.735,25.247 c -0.87,0 -1.577,0.707 -1.577,1.58 0,0.87 0.707,1.577 1.577,1.577 0.871,0 1.578,-0.707 1.578,-1.577 0,-0.873 -0.707,-1.58 -1.578,-1.58 z M 483.869,11.708 v 31.561 h -9.47 V 11.708 Z m -4.736,25.247 c -0.87,0 -1.577,0.707 -1.577,1.58 0,0.87 0.707,1.577 1.577,1.577 0.871,0 1.579,-0.707 1.579,-1.577 0,-0.873 -0.708,-1.58 -1.579,-1.58 z M 320.972,11.708 v 31.561 h -9.469 V 11.708 Z m -4.735,25.247 c -0.87,0 -1.578,0.707 -1.578,1.58 0,0.87 0.708,1.577 1.578,1.577 0.871,0 1.578,-0.707 1.578,-1.577 0,-0.873 -0.707,-1.58 -1.578,-1.58 z M 76.627,11.708 V 43.269 H 67.158 V 11.708 Z m -4.735,25.247 c -0.87,0 -1.577,0.707 -1.577,1.58 0,0.87 0.707,1.577 1.577,1.577 0.871,0 1.578,-0.707 1.578,-1.577 0,-0.873 -0.707,-1.58 -1.578,-1.58 z M 212.374,11.708 v 31.561 h -9.469 V 11.708 Z m -4.735,25.247 c -0.87,0 -1.577,0.707 -1.577,1.58 0,0.87 0.707,1.577 1.577,1.577 0.871,0 1.579,-0.707 1.579,-1.577 0,-0.873 -0.708,-1.58 -1.579,-1.58 z M 524.593,11.708 v 31.561 h -9.47 V 11.708 Z m -4.736,25.247 c -0.869,0 -1.577,0.707 -1.577,1.58 0,0.87 0.708,1.577 1.577,1.577 0.872,0 1.579,-0.707 1.579,-1.577 0,-0.873 -0.707,-1.58 -1.579,-1.58 z M 361.696,11.708 v 31.561 h -9.469 V 11.708 Z m -4.735,25.247 c -0.87,0 -1.577,0.707 -1.577,1.58 0,0.87 0.707,1.577 1.577,1.577 0.871,0 1.578,-0.707 1.578,-1.577 0,-0.873 -0.707,-1.58 -1.578,-1.58 z M 117.351,11.708 v 31.561 h -9.469 V 11.708 Z m -4.735,25.247 c -0.87,0 -1.577,0.707 -1.577,1.58 0,0.87 0.707,1.577 1.577,1.577 0.871,0 1.579,-0.707 1.579,-1.577 0,-0.873 -0.708,-1.58 -1.579,-1.58 z M 253.099,11.708 v 31.561 h -9.47 V 11.708 Z m -4.736,25.247 c -0.87,0 -1.577,0.707 -1.577,1.58 0,0.87 0.707,1.577 1.577,1.577 0.871,0 1.579,-0.707 1.579,-1.577 0,-0.873 -0.708,-1.58 -1.579,-1.58 z M 565.317,11.708 v 31.561 h -9.47 V 11.708 Z m -4.735,25.247 c -0.87,0 -1.578,0.707 -1.578,1.58 0,0.87 0.708,1.577 1.578,1.577 0.871,0 1.578,-0.707 1.578,-1.577 0,-0.873 -0.707,-1.58 -1.578,-1.58 z M 402.42,11.708 v 31.561 h -9.469 V 11.708 Z m -4.735,25.247 c -0.87,0 -1.577,0.707 -1.577,1.58 0,0.87 0.707,1.577 1.577,1.577 0.871,0 1.578,-0.707 1.578,-1.577 0,-0.873 -0.707,-1.58 -1.578,-1.58 z M 144.501,11.708 v 31.561 h -9.47 V 11.708 Z m -4.736,25.247 c -0.869,0 -1.577,0.707 -1.577,1.58 0,0.87 0.708,1.577 1.577,1.577 0.872,0 1.579,-0.707 1.579,-1.577 0,-0.873 -0.707,-1.58 -1.579,-1.58 z M 456.719,11.708 V 43.269 H 447.25 V 11.708 Z m -4.735,25.247 c -0.87,0 -1.577,0.707 -1.577,1.58 0,0.87 0.707,1.577 1.577,1.577 0.871,0 1.578,-0.707 1.578,-1.577 0,-0.873 -0.707,-1.58 -1.578,-1.58 z M 280.248,11.708 v 31.561 h -9.47 V 11.708 Z m -4.735,25.247 c -0.87,0 -1.578,0.707 -1.578,1.58 0,0.87 0.708,1.577 1.578,1.577 0.871,0 1.578,-0.707 1.578,-1.577 0,-0.873 -0.707,-1.58 -1.578,-1.58 z M 592.466,11.708 v 31.561 h -9.469 V 11.708 Z m -4.735,25.247 c -0.87,0 -1.577,0.707 -1.577,1.58 0,0.87 0.707,1.577 1.577,1.577 0.871,0 1.578,-0.707 1.578,-1.577 0,-0.873 -0.707,-1.58 -1.578,-1.58 z M 429.57,11.708 V 43.269 H 420.1 V 11.708 Z m -4.736,25.247 c -0.869,0 -1.577,0.707 -1.577,1.58 0,0.87 0.708,1.577 1.577,1.577 0.872,0 1.579,-0.707 1.579,-1.577 0,-0.873 -0.707,-1.58 -1.579,-1.58 z M 90.202,11.708 v 31.561 h -9.47 V 11.708 Z m -4.735,25.247 c -0.87,0 -1.578,0.707 -1.578,1.58 0,0.87 0.708,1.577 1.578,1.577 0.871,0 1.578,-0.707 1.578,-1.577 0,-0.873 -0.707,-1.58 -1.578,-1.58 z M 225.949,11.708 V 43.269 H 216.48 V 11.708 Z m -4.735,25.247 c -0.87,0 -1.577,0.707 -1.577,1.58 0,0.87 0.707,1.577 1.577,1.577 0.871,0 1.578,-0.707 1.578,-1.577 0,-0.873 -0.707,-1.58 -1.578,-1.58 z M 538.168,11.708 v 31.561 h -9.47 V 11.708 Z m -4.736,25.247 c -0.87,0 -1.577,0.707 -1.577,1.58 0,0.87 0.707,1.577 1.577,1.577 0.871,0 1.579,-0.707 1.579,-1.577 0,-0.873 -0.708,-1.58 -1.579,-1.58 z M 375.271,11.708 v 31.561 h -9.47 V 11.708 Z m -4.735,25.247 c -0.87,0 -1.578,0.707 -1.578,1.58 0,0.87 0.708,1.577 1.578,1.577 0.871,0 1.578,-0.707 1.578,-1.577 0,-0.873 -0.707,-1.58 -1.578,-1.58 z M 130.926,11.708 v 31.561 h -9.469 V 11.708 Z m -4.735,25.247 c -0.87,0 -1.577,0.707 -1.577,1.58 0,0.87 0.707,1.577 1.577,1.577 0.871,0 1.578,-0.707 1.578,-1.577 0,-0.873 -0.707,-1.58 -1.578,-1.58 z M 266.673,11.708 v 31.561 h -9.469 V 11.708 Z m -4.735,25.247 c -0.87,0 -1.577,0.707 -1.577,1.58 0,0.87 0.707,1.577 1.577,1.577 0.871,0 1.578,-0.707 1.578,-1.577 0,-0.873 -0.707,-1.58 -1.578,-1.58 z M 578.892,11.708 v 31.561 h -9.47 V 11.708 Z m -4.736,25.247 c -0.87,0 -1.577,0.707 -1.577,1.58 0,0.87 0.707,1.577 1.577,1.577 0.871,0 1.579,-0.707 1.579,-1.577 0,-0.873 -0.708,-1.58 -1.579,-1.58 z M 415.995,11.708 v 31.561 h -9.469 V 11.708 Z m -4.735,25.247 c -0.87,0 -1.578,0.707 -1.578,1.58 0,0.87 0.708,1.577 1.578,1.577 0.871,0 1.578,-0.707 1.578,-1.577 0,-0.873 -0.707,-1.58 -1.578,-1.58 z M 158.076,11.708 v 31.561 h -9.47 V 11.708 Z m -4.736,25.247 c -0.87,0 -1.577,0.707 -1.577,1.58 0,0.87 0.707,1.577 1.577,1.577 0.871,0 1.579,-0.707 1.579,-1.577 0,-0.873 -0.708,-1.58 -1.579,-1.58 z M 470.294,11.708 v 31.561 h -9.47 V 11.708 Z m -4.735,25.247 c -0.87,0 -1.578,0.707 -1.578,1.58 0,0.87 0.708,1.577 1.578,1.577 0.871,0 1.578,-0.707 1.578,-1.577 0,-0.873 -0.707,-1.58 -1.578,-1.58 z M 307.397,11.708 v 31.561 h -9.469 V 11.708 Z m -4.735,25.247 c -0.87,0 -1.577,0.707 -1.577,1.58 0,0.87 0.707,1.577 1.577,1.577 0.871,0 1.579,-0.707 1.579,-1.577 0,-0.873 -0.708,-1.58 -1.579,-1.58 z m -8.839,-25.247 v 31.561 h -9.47 V 11.708 Z m -4.736,25.247 c -0.87,0 -1.577,0.707 -1.577,1.58 0,0.87 0.707,1.577 1.577,1.577 0.871,0 1.579,-0.707 1.579,-1.577 0,-0.873 -0.708,-1.58 -1.579,-1.58 z M 443.145,11.708 v 31.561 h -9.47 V 11.708 Z m -4.736,25.247 c -0.87,0 -1.577,0.707 -1.577,1.58 0,0.87 0.707,1.577 1.577,1.577 0.871,0 1.579,-0.707 1.579,-1.577 0,-0.873 -0.708,-1.58 -1.579,-1.58 z m -395.33,6.313 h -3.07 v -31.56 h 9.469 v 31.56 H 46.62 l -1.233,5.306 h -1.075 z m 1.664,-6.312 c -0.871,0 -1.578,0.707 -1.578,1.578 0,0.871 0.707,1.578 1.578,1.578 0.871,0 1.578,-0.707 1.578,-1.578 0,-0.871 -0.707,-1.578 -1.578,-1.578 z m 134.083,6.312 h -3.07 v -31.56 h 9.469 v 31.56 h -2.858 l -1.233,5.306 h -1.075 z m 1.664,-6.312 c -0.871,0 -1.578,0.707 -1.578,1.578 0,0.871 0.707,1.578 1.578,1.578 0.871,0 1.578,-0.707 1.578,-1.578 0,-0.871 -0.707,-1.578 -1.578,-1.578 z m 310.554,6.312 h -3.07 v -31.56 h 9.469 v 31.56 h -2.857 l -1.233,5.306 h -1.076 z m 1.665,-6.312 c -0.872,0 -1.579,0.707 -1.579,1.578 0,0.871 0.707,1.578 1.579,1.578 0.871,0 1.578,-0.707 1.578,-1.578 0,-0.871 -0.707,-1.578 -1.578,-1.578 z m -164.561,6.312 h -3.07 v -31.56 h 9.469 v 31.56 h -2.858 l -1.233,5.306 h -1.075 z m 1.664,-6.312 c -0.871,0 -1.578,0.707 -1.578,1.578 0,0.871 0.707,1.578 1.578,1.578 0.871,0 1.578,-0.707 1.578,-1.578 0,-0.871 -0.707,-1.578 -1.578,-1.578 z M 96.325,43.268 h -2.018 v -31.56 h 9.469 v 31.56 h -4.961 l -1.233,5.306 h -1.076 z m 2.717,-6.312 c -0.871,0 -1.578,0.707 -1.578,1.578 0,0.871 0.707,1.578 1.578,1.578 0.871,0 1.578,-0.707 1.578,-1.578 0,-0.871 -0.707,-1.578 -1.578,-1.578 z m 133.031,6.312 h -2.018 v -31.56 h 9.469 v 31.56 h -4.962 l -1.233,5.306 h -1.075 z m 2.716,-6.312 c -0.871,0 -1.578,0.707 -1.578,1.578 0,0.871 0.707,1.578 1.578,1.578 0.871,0 1.578,-0.707 1.578,-1.578 0,-0.871 -0.707,-1.578 -1.578,-1.578 z m 309.502,6.312 h -2.018 v -31.56 h 9.469 v 31.56 h -4.962 l -1.233,5.306 h -1.075 z m 2.716,-6.312 c -0.871,0 -1.578,0.707 -1.578,1.578 0,0.871 0.707,1.578 1.578,1.578 0.872,0 1.579,-0.707 1.579,-1.578 0,-0.871 -0.707,-1.578 -1.579,-1.578 z m -165.613,6.312 h -2.018 v -31.56 h 9.469 v 31.56 h -4.961 l -1.233,5.306 h -1.076 z m 2.717,-6.312 c -0.871,0 -1.578,0.707 -1.578,1.578 0,0.871 0.707,1.578 1.578,1.578 0.871,0 1.578,-0.707 1.578,-1.578 0,-0.871 -0.707,-1.578 -1.578,-1.578 z M 58.758,43.268 h -5.175 v -31.56 h 9.469 v 31.56 h -1.805 l -0.181,5.306 h -1.075 z m -0.44,-6.312 c -0.871,0 -1.578,0.707 -1.578,1.578 0,0.871 0.707,1.578 1.578,1.578 0.871,0 1.578,-0.707 1.578,-1.578 0,-0.871 -0.707,-1.578 -1.578,-1.578 z m 136.187,6.312 h -5.175 v -31.56 h 9.469 v 31.56 h -1.805 l -0.181,5.306 h -1.075 z m -0.44,-6.312 c -0.871,0 -1.578,0.707 -1.578,1.578 0,0.871 0.707,1.578 1.578,1.578 0.871,0 1.578,-0.707 1.578,-1.578 0,-0.871 -0.707,-1.578 -1.578,-1.578 z m 312.658,6.312 h -5.174 v -31.56 h 9.469 v 31.56 h -1.806 l -0.181,5.306 h -1.075 z m -0.44,-6.312 c -0.871,0 -1.578,0.707 -1.578,1.578 0,0.871 0.707,1.578 1.578,1.578 0.871,0 1.579,-0.707 1.579,-1.578 0,-0.871 -0.708,-1.578 -1.579,-1.578 z m -162.456,6.312 h -5.175 v -31.56 h 9.469 v 31.56 h -1.805 l -0.181,5.306 h -1.075 z m -0.44,-6.312 c -0.871,0 -1.578,0.707 -1.578,1.578 0,0.871 0.707,1.578 1.578,1.578 0.871,0 1.578,-0.707 1.578,-1.578 0,-0.871 -0.707,-1.578 -1.578,-1.578 z"
   style="fill:url(#_Linear1)" />
        </g>
    </g>
    <defs
   id="defs10"><linearGradient
     id="_Linear1"
     x1="0"
     y1="0"
     x2="1"
     y2="0"
     gradientUnits="userSpaceOnUse"
     gradientTransform="matrix(-464.131,0,0,-464.086,567.296,12.8094)"><stop
       offset="0"
       style="stop-color:#d7c000;stop-opacity:1"
       id="stop6" /><stop
       offset="0.34"
       style="stop-color:#cfb600;stop-opacity:1"
       id="stop7" /><stop
       offset="0.62"
       style="stop-color:#ffffbf;stop-opacity:1"
       id="stop8" /><stop
       offset="0.76"
       style="stop-color:#e0ca00;stop-opacity:1"
       id="stop9" /><stop
       offset="1"
       style="stop-color:#ffef7a;stop-opacity:1"
       id="stop10" /></linearGradient></defs>
</svg>