<?xml version="1.0" encoding="UTF-8" standalone="no"?>
<svg
   width="619"
   height="994"
   viewBox="0 0 198.04799 318.048"
   version="1.1"
   xml:space="preserve"
   style="clip-rule:evenodd;fill-rule:evenodd;stroke-linejoin:round;stroke-miterlimit:2"
   id="svg1"
   xmlns:xlink="http://www.w3.org/1999/xlink"
   xmlns="http://www.w3.org/2000/svg"
   xmlns:svg="http://www.w3.org/2000/svg"
   xmlns:serif="http://www.serif.com/"><defs
   id="defs1"><linearGradient
   id="linearGradient3"><stop
     style="stop-color:#808080;stop-opacity:1;"
     offset="0.15931372"
     id="stop3" /><stop
     style="stop-color:#e0e0e0;stop-opacity:1;"
     offset="0.40931374"
     id="stop4" /><stop
     style="stop-color:#808080;stop-opacity:1;"
     offset="0.79411769"
     id="stop5" /><stop
     style="stop-color:#e0e0e0;stop-opacity:1;"
     offset="0.93137258"
     id="stop6" /></linearGradient><linearGradient
   xlink:href="#linearGradient3"
   id="linearGradient4"
   x1="160.88445"
   y1="37.153378"
   x2="500.6163"
   y2="149.24933"
   gradientUnits="userSpaceOnUse"
   gradientTransform="matrix(0.31999999,0,0,0.31999999,-3e-6,1.4150391e-5)" />
    </defs>
<path
   id="floppy_color_base"
   style="fill:#204a87;fill-opacity:1;stroke-width:0.32"
   d="m 170.91801,2.965955 -1.09364,1.31049 -9.04284,-0.0306 -4.18645,4.11958 -5.31259,0.03 -0.085,-4.33956 -41.80141,0.12311 -78.593975,-0.11374 -1.13301,1.30799 -9.96525,-0.095 -1.64608,-2.25164 -9.40843,0.0156 c -3.17727,0 -5.67818,2.52397 -5.67818,5.7038 V 309.27076 c 0,3.17983 2.58027,5.76129 5.75755,5.76129 H 189.12243 c 3.17727,0 5.75754,-2.58146 5.75754,-5.76129 V 16.045885 L 181.39508,3.029695 Z M 11.790265,291.24507 c 2.15267,-0.005 5.28154,0.024 6.48685,0.0194 0.7482,0.005 1.16612,0.32048 1.20863,1.02552 -0.003,1.35469 0.007,5.53272 0.009,6.73183 -0.0859,0.37326 -0.0662,0.56478 -0.64119,0.7543 -1.55494,0.003 -7.06976,0.0304 -8.78349,0.015 -0.57959,-0.004 -1.0401,-0.43925 -1.08989,-0.7693 -0.006,-1.34311 -0.002,-4.55852 -0.002,-6.92431 h 6.4e-4 c 0.2242,-0.496 0.58628,-0.74215 1.09177,-0.83304 0.39339,-0.0117 1.00227,-0.0177 1.71983,-0.0194 z m 169.525455,0.10937 c 2.15266,-0.005 5.28091,0.0233 6.48622,0.0188 0.74819,0.005 1.16674,0.3211 1.20925,1.02614 -0.003,1.35469 0.007,5.53272 0.009,6.73183 -0.0858,0.37326 -0.0662,0.56478 -0.64119,0.7543 -1.55494,0.003 -7.06976,0.0304 -8.78349,0.015 -0.57959,-0.004 -1.0401,-0.43924 -1.08989,-0.76929 -0.006,-1.34311 -0.003,-4.55851 -0.003,-6.92431 h 6.4e-4 c 0.2242,-0.496 0.58628,-0.74278 1.09177,-0.83366 0.39339,-0.0117 1.00289,-0.017 1.72045,-0.0188 z" />
<path
   id="floppy_overlay"
   style="clip-rule:evenodd;fill:none;fill-opacity:1;fill-rule:evenodd;stroke:#1e3c68;stroke-width:0.32;stroke-linejoin:round;stroke-miterlimit:2;stroke-opacity:1"
   d="m 170.91801,2.9653442 -1.09364,1.31049 -9.04284,-0.0306 -4.18645,4.11959 -5.31259,0.03 -0.085,-4.33956 -41.80142,0.12311 -56.20747,-0.0812 -0.01,66.7407898 -23.504343,-0.0182 c -3.39437,-0.002 -5.13681,-1.74309 -5.14628,-4.87194 l -0.16897,-60.6257898 -4.65516,-0.0444 -1.64608,-2.25165 -9.40843,0.0156 c -3.17727,0 -5.67818,2.52398 -5.67818,5.7038 V 309.27015 c 0,3.17984 2.57722,5.77128 5.75817,5.76005 l 15.73779,-0.0556 0.31685,-141.29892 c -0.10962,-0.43472 -0.17248,-0.87387 -0.17248,-1.34361 V 93.941194 c 0,-3.04939 2.42953,-5.51382 5.47882,-5.51382 h 0.001 138.074233 c 3.04949,0 5.47882,2.46452 5.47882,5.51382 v 78.390226 c 0,0.20208 0.0211,0.38985 0,0.58619 v 142.11384 h 15.47802 c 3.17727,0 5.75755,-2.58146 5.75755,-5.7613 V 16.045274 L 181.39508,3.0290842 Z M 11.790277,291.24447 c 2.15266,-0.005 5.28154,0.0239 6.48684,0.0194 0.7482,0.005 1.16612,0.32046 1.20863,1.02552 -0.003,1.35469 0.007,5.53273 0.009,6.73182 -0.0858,0.37328 -0.0662,0.5648 -0.64118,0.7543 -1.55495,0.003 -7.06977,0.0304 -8.7835,0.015 -0.57958,-0.004 -1.0401,-0.43922 -1.08989,-0.7693 -0.006,-1.34308 -0.002,-4.55851 -0.002,-6.9243 h 6.3e-4 c 0.2242,-0.496 0.58628,-0.74213 1.09176,-0.83304 0.39339,-0.0118 1.00228,-0.0175 1.71983,-0.0194 z m 169.525443,0.10936 c 2.15265,-0.005 5.28092,0.0231 6.48622,0.0188 0.7482,0.005 1.16674,0.3211 1.20925,1.02615 -0.003,1.35467 0.007,5.53272 0.009,6.73182 -0.0859,0.37328 -0.0662,0.56479 -0.64119,0.7543 -1.55494,0.003 -7.06977,0.0304 -8.78349,0.015 -0.57959,-0.004 -1.04011,-0.43926 -1.08989,-0.7693 -0.006,-1.34311 -0.002,-4.55853 -0.002,-6.9243 h 6.3e-4 c 0.2242,-0.496 0.58628,-0.74279 1.09176,-0.83367 0.39339,-0.0118 1.0029,-0.0169 1.72046,-0.0188 z" />
<rect
   x="7.6293945e-06"
   y="0"
   width="198.04799"
   height="318.048"
   fill="none"
   stroke-width="0"
   stroke="none"
   id="rect1" />   
<path
   id="metal_part"
   style="clip-rule:evenodd;display:inline;fill:url(#linearGradient4);fill-rule:evenodd;stroke-width:0.31996781;stroke-linejoin:round;stroke-miterlimit:2;stroke:#000000;stroke-dasharray:none;stroke-opacity:1"
   d="m 52.59009,70.858474 c -2.09808,0 -3.76988,-1.69538 -3.76988,-3.79352 v -53.93695 c 0,-0.32321 0.0431,-0.62553 0.11855,-0.92464 V 2.9805442 H 151.363 v 9.7444398 c 0.0145,0.13508 0,0.26401 0,0.40305 v 53.93695 c 0,2.09808 -1.67165,3.79351 -3.76987,3.79351 H 52.59071 Z m 57.06728,-5.07378 h 25.27402 c 0.10615,0 0.18967,-0.0835 0.18967,-0.18968 v -52.68302 c 0,-0.10615 -0.0835,-0.18967 -0.18967,-0.18967 h -25.27402 c -0.10615,0 -0.18967,0.0835 -0.18967,0.18967 v 52.68302 c 0,0.10616 0.0835,0.18968 0.18967,0.18968 z" /><path
   id="TapTo-Logo"
   serif:id="TapTo Logo"
   d="M 101.25167,18.945364 H 88.609385 v 9.324075 H 85.030213 V 18.945364 H 73.209364 v -3.3058 h 28.042306 z m 0,0 h 3.31164 v 8.281894 c 0,2.794012 -2.26907,5.058754 -5.068164,5.058754 H 77.397085 v -3.305429 h 21.227983 c 1.450642,0 2.626602,-1.173895 2.626602,-2.622098 z m 0.22603,-1.093469 v -0.411841 c 0.70719,0 1.28212,0.573982 1.28212,1.279669 h -0.4126 c 0,-0.478537 -0.39005,-0.867828 -0.86952,-0.867828 z m 1.77117,0.868014 c 0,-0.975113 -0.79455,-1.768166 -1.77117,-1.768166 v -0.411841 c 1.20433,0 2.18396,0.977929 2.18396,2.180007 z m 0.90203,0 c 0,-1.471317 -1.19926,-2.668125 -2.6732,-2.668125 v -0.41222 c 1.70147,0 3.08561,1.381877 3.08561,3.080345 z M 72.632743,18.945364 H 60.811894 v 7.413307 c 0,1.448017 1.175961,2.621912 2.626415,2.621912 h 9.194434 v 3.305429 H 62.30049 c -2.798894,0 -5.067962,-2.264742 -5.067962,-5.058754 v -8.281894 h -3.405006 v -3.3058 h 18.805221 z m -10.999807,0.71133 h 10.999807 v 8.612745 h -3.579172 v -5.30713 h -3.841083 v 1.544212 c 0,0.252517 0.204794,0.457126 0.457876,0.457126 h 2.774465 v 3.305792 h -4.657623 c -1.189673,0 -2.15427,-0.962708 -2.15427,-2.150501 z m 11.576428,0 h 10.999799 v 6.462244 c 0,1.187793 -0.964774,2.150501 -2.154456,2.150501 h -4.657622 v -3.305792 h 2.774472 c 0.253082,0 0.458248,-0.204609 0.458248,-0.457126 v -1.544212 h -3.841083 v 9.323703 h -3.579358 z m 27.221076,0 v 6.462244 c 0,1.187793 -0.964414,2.150501 -2.154084,2.150501 h -6.691085 c -1.189867,0 -2.154455,-0.962708 -2.154455,-2.150501 v -6.462244 z m -3.579366,3.305615 h -3.841083 v 1.544212 c 0,0.252517 0.205166,0.457126 0.458248,0.457126 h 2.924967 c 0.253074,0 0.457868,-0.204609 0.457868,-0.457126 z"
   style="clip-rule:evenodd;fill:#3a3a3a;fill-rule:evenodd;stroke-width:0.187883;stroke-linejoin:round;stroke-miterlimit:2;fill-opacity:1" /><path
   id="NFC-Loading-System"
   serif:id="NFC Loading System"
   d="M 57.601985,49.912574 H 57.137429 V 49.594473 H 54.392 v 0.318101 h -0.464758 v -3.994243 h 3.674743 z M 57.137429,49.118432 V 46.39417 H 54.392 v 2.724262 z m 5.963072,-1.127935 h -4.29019 v -0.478655 h 4.29019 z m 5.304912,-1.500445 -0.356571,0.155125 c -0.06181,-0.293113 -0.144044,-0.530232 -0.246184,-0.711338 l 0.374306,-0.157941 c 0.09549,0.193199 0.171636,0.431321 0.228449,0.714154 z m -1.431741,-0.147459 h -2.571981 v -0.478655 h 2.571981 z m 0.85921,0.359599 -0.354168,0.152494 c -0.06367,-0.291503 -0.145646,-0.527601 -0.246378,-0.708716 l 0.374508,-0.157941 c 0.09549,0.1932 0.170633,0.431313 0.226038,0.714163 z m 0.36664,0.944223 h -1.825983 c 0.0034,0.04132 0.0051,0.112007 0.0051,0.212123 0,1.053809 -0.449654,1.804023 -1.348946,2.25065 l -0.364229,-0.424263 c 0.408552,-0.148268 0.717983,-0.373293 0.928099,-0.675076 0.210327,-0.301984 0.315284,-0.664998 0.315284,-1.089261 0,-0.124091 -0.0034,-0.215555 -0.01012,-0.274173 h -1.994406 v -0.478664 h 4.295224 z m 4.375607,-1.298787 c -0.383371,0.472617 -0.68636,0.803004 -0.909369,0.990958 v 2.097946 h -0.426886 v -1.748821 c -0.410357,0.31568 -0.804606,0.556214 -1.183137,0.721812 l -0.263708,-0.388001 c 0.45065,-0.182928 0.907354,-0.460938 1.370291,-0.834434 0.463147,-0.373294 0.819119,-0.750619 1.068727,-1.131772 z m 3.534123,0.217368 -0.276188,0.413992 c -0.415206,-0.360603 -0.904133,-0.611416 -1.466797,-0.752837 l 0.283853,-0.434737 c 0.592678,0.220793 1.079193,0.478656 1.459132,0.773582 z m 2.316132,0.540714 c -0.591269,0.898482 -1.177301,1.546168 -1.758502,1.942813 -0.580998,0.39667 -1.238137,0.701075 -1.971637,0.913198 l -0.293931,-0.478453 c 0.917634,-0.203665 1.653748,-0.528621 2.207946,-0.975433 0.554409,-0.446627 1.036496,-1.02884 1.446659,-1.746216 z m 5.287389,-1.102164 -0.354362,0.152704 c -0.06367,-0.293122 -0.145452,-0.529422 -0.245973,-0.708926 l 0.374297,-0.160361 c 0.09529,0.193199 0.170641,0.43213 0.226038,0.716583 z m -0.570322,0.212131 -0.210917,0.106163 0.196007,0.199246 c -0.139,0.855373 -0.435343,1.568119 -0.889425,2.138036 -0.453669,0.570111 -1.10095,1.035274 -1.941616,1.395876 l -0.353957,-0.445016 c 0.765124,-0.267325 1.365256,-0.627329 1.799596,-1.080188 0.434737,-0.452673 0.724628,-1.030045 0.870485,-1.731913 h -1.914023 c -0.326558,0.477644 -0.649086,0.821734 -0.967186,1.032255 l -0.374103,-0.339048 c 0.689783,-0.470796 1.195432,-1.14346 1.516956,-2.017774 l 0.4422,0.222403 c -0.09711,0.231072 -0.20186,0.439788 -0.313867,0.626123 h 1.775621 c -0.0651,-0.274173 -0.14465,-0.494973 -0.238518,-0.662385 l 0.376718,-0.160353 c 0.09549,0.193191 0.170835,0.432123 0.226029,0.716575 z m 3.602017,-0.105968 -0.165599,0.481075 c -0.449038,-0.26552 -0.970601,-0.429297 -1.5651,-0.491347 l 0.165995,-0.494172 c 0.659568,0.141421 1.18113,0.309431 1.564704,0.504444 z m 2.009518,1.032254 c -0.474026,0.774391 -1.007277,1.385411 -1.599963,1.83283 -0.59288,0.447631 -1.308046,0.786889 -2.145288,1.017953 l -0.236107,-0.488927 c 0.872501,-0.208708 1.599549,-0.531648 2.181559,-0.968788 0.582002,-0.437165 1.048775,-1.011105 1.400312,-1.721642 z m -2.499255,0.302592 -0.180904,0.502023 c -0.395051,-0.284655 -0.909175,-0.463147 -1.542146,-0.535671 l 0.165599,-0.481075 c 0.634792,0.122489 1.15374,0.293923 1.557451,0.514723 z m 7.89221,2.224854 -0.401907,0.302786 c -0.49558,-0.696825 -1.074959,-1.25486 -1.738156,-1.673878 -0.537484,0.693401 -1.196639,1.28064 -1.976874,1.761715 L 89.67081,49.679891 c 0.648073,-0.350129 1.218598,-0.808039 1.711758,-1.373722 0.493168,-0.565887 0.877943,-1.204693 1.154342,-1.917042 h -2.57722 v -0.455288 l 3.014377,-0.0051 0.137997,0.147468 c -0.187549,0.677698 -0.465568,1.290919 -0.834021,1.839281 0.714964,0.469194 1.33806,1.053801 1.868898,1.754066 z m 4.4032,-3.326816 h -3.282913 v -0.478655 h 3.282913 z m 0.515119,1.303822 h -1.826193 c 0.0034,0.04132 0.0051,0.112007 0.0051,0.212123 0,1.053809 -0.449646,1.804023 -1.348938,2.25065 L 95.531,49.684925 c 0.408544,-0.148268 0.717983,-0.373293 0.928099,-0.675076 0.210116,-0.301984 0.315275,-0.664998 0.315275,-1.089261 0,-0.124091 -0.0034,-0.215555 -0.01012,-0.274173 h -1.994406 v -0.478664 h 4.295435 z m 5.23965,2.080009 -0.45731,0.196623 c -0.0618,-0.2208 -0.15391,-0.458922 -0.27619,-0.714163 -1.72808,0.179496 -2.8945,0.329586 -3.49907,0.450253 l -0.123094,-0.514917 0.590274,-0.0673 1.33887,-3.487177 0.42707,0.170633 -1.25103,3.246846 2.24804,-0.253639 c -0.28627,-0.551777 -0.55158,-0.952875 -0.79615,-1.202879 l 0.47725,-0.212131 c 0.45891,0.593285 0.89929,1.389222 1.32134,2.387838 z M 54.026161,44.214828 c -0.109595,0 -0.198639,-0.08905 -0.198639,-0.198841 0,-0.109586 0.08904,-0.198638 0.198639,-0.198638 h 50.259409 c 0.10939,0 0.19843,0.08905 0.19843,0.198638 0,0.109789 -0.089,0.198841 -0.19843,0.198841 z m 0,-7.536841 h 1.095915 l 0.849934,3.329852 h 0.01594 v -3.329852 h 0.77822 v 5.563181 h -0.897479 l -1.048379,-4.061125 h -0.01594 v 4.061125 h -0.77822 z m 3.391285,0 h 2.3113 v 0.79474 h -1.437585 v 1.549795 h 1.127943 v 0.79474 h -1.127943 v 2.423906 h -0.873715 z m 3.963429,5.642552 c -0.418419,0 -0.737523,-0.119057 -0.957109,-0.357584 -0.219788,-0.238315 -0.329779,-0.57474 -0.329779,-1.009283 v -2.988181 c 0,-0.434542 0.109991,-0.770967 0.329779,-1.009291 0.219586,-0.238527 0.53869,-0.357786 0.957109,-0.357786 0.418225,0 0.737126,0.119259 0.956914,0.357786 0.219789,0.238324 0.329578,0.574749 0.329578,1.009291 v 0.588048 h -0.825968 v -0.643655 c 0,-0.344487 -0.145646,-0.51673 -0.436954,-0.51673 -0.290895,0 -0.436752,0.172243 -0.436752,0.51673 v 3.107449 c 0,0.339047 0.145857,0.508466 0.436752,0.508466 0.291308,0 0.436954,-0.169419 0.436954,-0.508466 v -0.850541 h 0.825968 v 0.78688 c 0,0.434543 -0.109789,0.770968 -0.329578,1.009283 -0.219788,0.238527 -0.538689,0.357584 -0.956914,0.357584 z m 3.081458,-5.642552 h 0.873715 v 4.768441 h 1.437577 v 0.79474 h -2.311292 z m 3.963226,5.642552 c -0.428698,0 -0.75707,-0.121874 -0.984718,-0.365435 -0.227639,-0.243763 -0.341459,-0.58825 -0.341459,-1.033258 v -2.924529 c 0,-0.445218 0.11382,-0.789503 0.341459,-1.033258 0.227648,-0.243763 0.55602,-0.365645 0.984718,-0.365645 0.429095,0 0.757273,0.121882 0.985115,0.365645 0.227639,0.243755 0.341265,0.58804 0.341265,1.033258 v 2.924529 c 0,0.445008 -0.113626,0.789495 -0.341265,1.033258 -0.227842,0.243561 -0.55602,0.365435 -0.985115,0.365435 z m 0,-0.79474 c 0.301976,0 0.452868,-0.182717 0.452868,-0.548354 v -3.035929 c 0,-0.365442 -0.150892,-0.548362 -0.452868,-0.548362 -0.301782,0 -0.452673,0.18292 -0.452673,0.548362 v 3.035929 c 0,0.365637 0.150891,0.548354 0.452673,0.548354 z m 2.57338,-4.847812 h 1.183551 l 0.905338,5.563181 h -0.873706 l -0.158751,-1.104779 v 0.01585 H 71.0626 l -0.158945,1.088866 h -0.810046 z m 0.953086,3.719472 -0.389004,-2.749865 h -0.01594 l -0.381355,2.749865 z m 1.556853,-3.719472 h 1.334231 c 0.434138,0 0.759684,0.116645 0.976858,0.349724 0.217166,0.233087 0.325547,0.574758 0.325547,1.025205 v 2.813323 c 0,0.450456 -0.108381,0.792118 -0.325547,1.025205 -0.217174,0.233087 -0.54272,0.349724 -0.976858,0.349724 h -1.334231 z m 1.318318,4.768441 c 0.143032,0 0.25282,-0.04233 0.329577,-0.127119 0.07699,-0.08481 0.115034,-0.222605 0.115034,-0.413384 V 38.01323 c 0,-0.190779 -0.03803,-0.328565 -0.115034,-0.413384 -0.07674,-0.08481 -0.186545,-0.127119 -0.329577,-0.127119 h -0.444612 v 3.973701 z m 1.906172,-4.768441 h 0.873706 v 5.563181 h -0.873706 z m 1.52501,0 h 1.096117 l 0.849732,3.329852 h 0.01594 v -3.329852 h 0.778422 v 5.563181 h -0.897683 l -1.04837,-4.061125 h -0.01569 v 4.061125 h -0.778423 z m 4.630443,5.642552 c -0.423858,0 -0.746596,-0.120465 -0.969202,-0.361606 -0.222208,-0.240938 -0.333406,-0.58664 -0.333406,-1.037087 v -2.924529 c 0,-0.450455 0.111198,-0.796148 0.333406,-1.037289 0.222606,-0.240938 0.545344,-0.361614 0.969202,-0.361614 0.423461,0 0.746394,0.120676 0.968796,0.361614 0.222605,0.241141 0.333609,0.586834 0.333609,1.037289 v 0.476851 h -0.825959 v -0.532652 c 0,-0.365442 -0.150891,-0.548362 -0.452674,-0.548362 -0.301782,0 -0.452876,0.18292 -0.452876,0.548362 v 3.043991 c 0,0.360197 0.151094,0.540292 0.452876,0.540292 0.301783,0 0.452674,-0.180095 0.452674,-0.540292 v -1.088874 h -0.436761 v -0.794732 h 1.26272 v 1.819945 c 0,0.450447 -0.111004,0.796149 -0.333609,1.037087 -0.222402,0.241141 -0.545335,0.361606 -0.968796,0.361606 z m 4.273062,0 c -0.423858,0 -0.744176,-0.120465 -0.96114,-0.361606 -0.217174,-0.240938 -0.325757,-0.58664 -0.325757,-1.037087 v -0.317898 h 0.825968 v 0.381559 c 0,0.360197 0.151093,0.540292 0.452875,0.540292 0.148269,0 0.260883,-0.04368 0.337437,-0.131141 0.07674,-0.08723 0.115228,-0.229057 0.115228,-0.425073 0,-0.233087 -0.05296,-0.438371 -0.158953,-0.615851 -0.105758,-0.177683 -0.301571,-0.390818 -0.587634,-0.639818 -0.360004,-0.317889 -0.611424,-0.605369 -0.75465,-0.862432 -0.142838,-0.256851 -0.214349,-0.546945 -0.214349,-0.870088 0,-0.439771 0.111197,-0.780227 0.333608,-1.021368 0.222403,-0.240938 0.545343,-0.361614 0.968797,-0.361614 0.418418,0 0.734908,0.120676 0.949257,0.361614 0.214349,0.241141 0.321726,0.586834 0.321726,1.037289 v 0.230465 h -0.825967 v -0.286266 c 0,-0.190576 -0.0371,-0.329779 -0.111206,-0.417213 -0.07429,-0.08743 -0.182717,-0.131149 -0.325749,-0.131149 -0.291308,0 -0.43676,0.177489 -0.43676,0.532652 0,0.201244 0.05439,0.389409 0.162773,0.564267 0.108592,0.174663 0.305813,0.386601 0.591674,0.635795 0.365443,0.317898 0.616855,0.606584 0.754456,0.86626 0.137795,0.259474 0.206692,0.564275 0.206692,0.913797 0,0.455692 -0.112614,0.805416 -0.337639,1.049179 -0.225025,0.243561 -0.551989,0.365435 -0.980687,0.365435 z m 2.573186,-2.44767 -1.056432,-3.194882 h 0.929313 l 0.595705,2.04255 h 0.01569 l 0.595696,-2.04255 h 0.849943 l -1.05623,3.194882 v 2.368299 h -0.873715 z m 3.335699,2.44767 c -0.423462,0 -0.74378,-0.120465 -0.960949,-0.361606 -0.217166,-0.240938 -0.325547,-0.58664 -0.325547,-1.037087 v -0.317898 h 0.825971 v 0.381559 c 0,0.360197 0.150891,0.540292 0.452665,0.540292 0.148269,0 0.26068,-0.04368 0.337639,-0.131141 0.07674,-0.08723 0.115228,-0.229057 0.115228,-0.425073 0,-0.233087 -0.05296,-0.438371 -0.158944,-0.615851 -0.105758,-0.177683 -0.301985,-0.390818 -0.587846,-0.639818 -0.360003,-0.317889 -0.611621,-0.605369 -0.75445,-0.862432 -0.14283,-0.256851 -0.21435,-0.546945 -0.21435,-0.870088 0,-0.439771 0.111004,-0.780227 0.333609,-1.021368 0.222212,-0.240938 0.545346,-0.361614 0.9688,-0.361614 0.418427,0 0.734705,0.120676 0.949257,0.361614 0.214349,0.241141 0.321524,0.586834 0.321524,1.037289 v 0.230465 h -0.82617 v -0.286266 c 0,-0.190576 -0.03685,-0.329779 -0.111003,-0.417213 -0.07413,-0.08743 -0.182515,-0.131149 -0.325546,-0.131149 -0.291309,0 -0.436761,0.177489 -0.436761,0.532652 0,0.201244 0.05397,0.389409 0.162579,0.564267 0.108786,0.174663 0.305805,0.386601 0.591877,0.635795 0.365434,0.317898 0.616855,0.606584 0.754447,0.86626 0.137795,0.259474 0.20649,0.564275 0.20649,0.913797 0,0.455692 -0.112412,0.805416 -0.337437,1.049179 -0.225228,0.243561 -0.551989,0.365435 -0.981083,0.365435 z m 2.501868,-4.847812 h -0.9134 v -0.79474 h 2.700507 v 0.79474 h -0.913401 v 4.768441 h -0.873706 z m 2.207946,-0.79474 h 2.382818 v 0.79474 h -1.509104 v 1.470221 h 1.19946 v 0.79474 h -1.19946 v 1.70874 h 1.509104 v 0.79474 h -2.382818 z m 2.883228,0 h 1.24681 l 0.55602,3.98156 h 0.0159 l 0.55602,-3.98156 h 1.247 v 5.563181 h -0.82596 v -4.212227 h -0.0159 l -0.63539,4.212227 h -0.73068 l -0.63539,-4.212227 h -0.0159 v 4.212227 h -0.76251 z"
   style="clip-rule:evenodd;fill-rule:evenodd;stroke-width:0.201455;stroke-linejoin:round;stroke-miterlimit:2;fill:#3a3a3a;fill-opacity:1" /><path
   id="HD"
   style="clip-rule:evenodd;fill-rule:evenodd;stroke-linejoin:round;stroke-miterlimit:2;fill:#1e3c68;fill-opacity:1;stroke:none;color:#000000;-inkscape-stroke:none"
   d="M 531.31707 143.66747 C 531.14347 143.66426 531.01444 143.66785 530.89649 143.67185 L 530.93149 144.72237 C 531.16826 144.71437 531.35929 144.70584 531.92014 144.75174 C 532.48103 144.79774 533.30163 144.89072 534.23428 145.3948 C 535.16692 145.89888 536.25658 146.86323 536.94151 147.89642 C 537.62643 148.9296 537.96179 150.08915 538.14264 151.08985 C 538.32348 152.09056 538.34643 152.88237 538.262 153.79895 C 538.1776 154.71555 537.97995 155.71942 537.60332 156.54118 C 537.22667 157.36294 536.64576 158.06767 536.00973 158.67971 C 535.3737 159.29174 534.71725 159.78254 533.90994 160.19706 C 533.10261 160.61157 532.11112 160.95938 531.56642 161.12884 C 531.29406 161.21354 531.13879 161.25155 531.0546 161.26758 C 530.9704 161.28358 530.97147 161.28102 530.91024 161.28132 L 530.91649 162.33184 C 530.97779 162.33155 531.10127 162.3288 531.2502 162.3006 C 531.39914 162.2723 531.58628 162.22226 531.87889 162.13124 C 532.4641 161.94918 533.48732 161.59445 534.39051 161.13071 C 535.2937 160.66697 536.04361 160.10445 536.7384 159.43588 C 537.43319 158.76731 538.10686 157.9648 538.55884 156.97863 C 539.01083 155.99246 539.21741 154.88633 539.30877 153.89457 C 539.40017 152.90281 539.37209 151.98767 539.17628 150.90424 C 538.98049 149.8208 538.61299 148.51807 537.81642 147.31648 C 537.01984 146.11487 535.85074 145.07363 534.73485 144.47052 C 533.61898 143.86741 532.59976 143.75362 532.00575 143.70497 C 531.70872 143.68062 531.49067 143.67068 531.31707 143.66747 z M 520.93937 143.80683 L 520.93937 151.31233 A 0.52527965 0.52527965 0 0 0 521.46494 151.8379 L 526.00761 151.8379 A 0.52527965 0.52527965 0 0 0 526.53318 151.31233 L 526.5488 144.00556 L 525.49828 144.00369 L 525.48454 150.78675 L 521.98989 150.78675 L 521.98989 143.80683 L 520.93937 143.80683 z M 518.58398 143.95494 L 518.58398 162.06062 L 519.63262 162.06062 L 519.63262 143.95494 L 518.58398 143.95494 z M 527.99991 144.00556 L 527.99991 162.26185 L 529.0548 162.26185 L 529.0548 144.00556 L 527.99991 144.00556 z M 530.97461 146.51468 C 530.91957 146.51503 530.87062 146.51656 530.82462 146.51781 L 530.824 146.51781 L 530.8515 147.56645 C 531.03661 147.56145 531.16687 147.55593 531.5583 147.60333 C 531.94981 147.65073 532.5131 147.75274 532.97628 148.03891 C 533.43945 148.32508 533.90687 148.86533 534.33614 149.545 C 534.76542 150.22468 535.1402 151.00434 535.33604 151.82228 C 535.53187 152.6402 535.5541 153.51821 535.37292 154.32202 C 535.19176 155.12585 534.8002 155.88302 534.30677 156.45493 C 533.81334 157.02686 533.18889 157.44532 532.64631 157.73606 C 532.10374 158.0268 531.65934 158.18189 531.37894 158.256 C 531.09856 158.3301 531.0261 158.3248 530.86337 158.326 L 530.87149 159.37714 C 531.03379 159.37614 531.28554 159.367 531.64829 159.27153 C 532.01101 159.17563 532.52652 158.99229 533.14251 158.66221 C 533.7585 158.33213 534.49029 157.84916 535.10169 157.14049 C 535.7131 156.43183 536.17594 155.5316 536.39656 154.55263 C 536.61722 153.57366 536.58887 152.54279 536.35782 151.57793 C 536.1268 150.61307 535.6995 149.73604 535.22481 148.98444 C 534.75012 148.23285 534.21244 147.56667 533.52935 147.14462 C 532.84625 146.72259 532.12102 146.61327 531.68391 146.56031 C 531.35603 146.52056 531.13971 146.51365 530.97461 146.51468 z M 521.3987 153.64834 A 0.52527965 0.52527965 0 0 0 520.87312 154.17391 L 520.87312 162.13061 L 521.92364 162.13061 L 521.92364 154.69949 L 525.41579 154.69949 L 525.43142 162.15999 L 526.48068 162.15811 L 526.46694 154.17391 A 0.52527965 0.52527965 0 0 0 525.94136 153.64834 L 521.3987 153.64834 z "
   transform="translate(-355.7889,-126.73355)" /><path
   id="wizzodev"
   d="m 53.827522,52.634028 h 0.993971 l 0.459614,5.046585 h 0.01871 l 0.487435,-5.046585 h 1.124774 l 0.487446,5.046585 h 0.01908 l 0.45921,-5.046585 h 0.890201 l -0.665557,6.566156 H 56.81819 l -0.468355,-4.427529 h -0.01908 l -0.46875,4.427529 h -1.368501 z m 5.465639,0 h 1.030949 v 6.566156 h -1.030949 z m 1.593533,5.646937 1.912391,-4.709022 H 60.98052 v -0.937915 h 2.925056 v 0.919219 l -1.912794,4.708634 h 1.912794 v 0.938303 h -3.018882 z m 3.440324,0 1.912785,-4.709022 h -1.818959 v -0.937915 h 2.924653 v 0.919219 l -1.911996,4.708634 h 1.911996 v 0.938303 h -3.018479 z m 5.090706,1.013052 c -0.506131,0 -0.894168,-0.143925 -1.162551,-0.431785 -0.269161,-0.287454 -0.403149,-0.694185 -0.403149,-1.219399 v -3.451851 c 0,-0.525214 0.133988,-0.931944 0.40315,-1.219399 0.268382,-0.287851 0.656419,-0.43138 1.16255,-0.43138 0.506132,0 0.893378,0.143529 1.162551,0.43138 0.268363,0.287455 0.402756,0.694185 0.402756,1.219399 v 3.451851 c 0,0.525214 -0.134393,0.931945 -0.402756,1.219399 -0.269173,0.28786 -0.656419,0.431785 -1.162551,0.431785 z m 0,-0.938311 c 0.355843,0 0.534357,-0.215488 0.534357,-0.647273 v -3.583051 c 0,-0.43138 -0.178512,-0.647273 -0.534357,-0.647273 -0.356633,0 -0.534358,0.215893 -0.534358,0.647273 v 3.583051 c 0,0.431785 0.177724,0.647273 0.534358,0.647273 z m 2.20303,-0.149888 h 0.993566 v 0.994366 h -0.993566 z m 1.762111,-5.57179 h 1.575243 c 0.512089,0 0.896554,0.137567 1.152604,0.412693 0.256445,0.275142 0.384465,0.678289 0.384465,1.20987 v 3.320642 c 0,0.531581 -0.12802,0.935124 -0.384465,1.210258 -0.25605,0.275126 -0.640515,0.412693 -1.152604,0.412693 h -1.575243 z m 1.556151,5.627853 c 0.168579,0 0.298593,-0.04975 0.38924,-0.149888 0.09061,-0.100192 0.135982,-0.262813 0.135982,-0.487847 v -3.414485 c 0,-0.225025 -0.0453,-0.387638 -0.135982,-0.487839 -0.09061,-0.0998 -0.220661,-0.149879 -0.38924,-0.149879 h -0.524807 v 4.689938 z m 2.249547,-5.627853 h 2.812538 v 0.937915 h -1.78079 v 1.735463 h 1.415406 v 0.937915 h -1.415406 v 2.01656 h 1.78079 v 0.938303 h -2.812537 z m 3.131405,0 h 1.040488 l 0.675106,5.093498 h 0.0187 l 0.674701,-5.093498 h 0.947059 l -0.993972,6.566156 h -1.3685 z m 5.905767,0 h 0.890586 l -2.5871,6.566156 h -0.890586 z m 2.259482,0.937915 h -1.078256 v -0.937915 h 3.187461 v 0.937915 h -1.078256 v 5.628241 h -1.030949 z m 2.971574,-0.937915 h 1.396718 l 1.06871,6.566156 H 92.89128 l -0.187667,-1.304092 v 0.01872 h -1.172077 l -0.187265,1.285404 h -0.956195 z m 1.124772,4.389758 -0.459215,-3.245497 h -0.01872 l -0.450064,3.245497 z m 1.837645,-4.389758 h 1.518373 c 0.512497,0 0.896973,0.137567 1.153015,0.412693 0.25643,0.275142 0.384459,0.678289 0.384459,1.20987 v 0.647272 c 0,0.531564 -0.128029,0.935116 -0.384459,1.21025 -0.256042,0.275134 -0.640518,0.412692 -1.153015,0.412692 h -0.487434 v 2.673379 H 94.4192 Z m 1.518373,2.954475 c 0.16898,0 0.295407,-0.04689 0.379703,-0.140747 0.08433,-0.09343 0.126436,-0.253267 0.126436,-0.478301 v -0.778473 c 0,-0.225034 -0.04208,-0.384467 -0.126436,-0.478293 -0.08433,-0.09381 -0.210723,-0.140746 -0.379703,-0.140746 h -0.487434 v 2.01656 z m 2.92506,-2.01656 h -1.078264 v -0.937915 h 3.187463 v 0.937915 h -1.078264 v 5.628241 h -1.030935 z m 4.058969,5.722074 c -0.50613,0 -0.89377,-0.143925 -1.16215,-0.431785 -0.26877,-0.287454 -0.40355,-0.694185 -0.40355,-1.219399 v -3.451851 c 0,-0.525214 0.13478,-0.931944 0.40355,-1.219399 0.26838,-0.287851 0.65602,-0.43138 1.16215,-0.43138 0.50613,0 0.89378,0.143529 1.16255,0.43138 0.26877,0.287455 0.40315,0.694185 0.40315,1.219399 v 3.451851 c 0,0.525214 -0.13438,0.931945 -0.40315,1.219399 -0.26877,0.28786 -0.65642,0.431785 -1.16255,0.431785 z m 0,-0.938311 c 0.35624,0 0.53436,-0.215488 0.53436,-0.647273 v -3.583051 c 0,-0.43138 -0.17812,-0.647273 -0.53436,-0.647273 -0.35623,0 -0.53435,0.215893 -0.53435,0.647273 v 3.583051 c 0,0.431785 0.17812,0.647273 0.53435,0.647273 z"
   style="clip-rule:evenodd;fill:#3a3a3a;fill-rule:evenodd;stroke-width:0.397586;stroke-linejoin:round;stroke-miterlimit:2;fill-opacity:1" />
  <path
   style="clip-rule:evenodd;fill:#1e3c68;fill-opacity:1;fill-rule:evenodd;stroke:none;stroke-width:0.186541;stroke-linejoin:round;stroke-miterlimit:2;stroke-dasharray:none"
   d="m 10.608297,36.584794 h 6.07702 v -5.68495 h 2.54842 l -5.68496,-13.33024 -5.48893,13.54498 2.50807,-0.0591 z"
   id="arrow" />
</svg>
