<?xml version="1.0" encoding="UTF-8" standalone="no"?>
<svg
   width="619"
   height="994"
   viewBox="0 0 198.04799 318.048"
   version="1.1"
   xml:space="preserve"
   style="clip-rule:evenodd;fill-rule:evenodd;stroke-linejoin:round;stroke-miterlimit:2"
   id="svg1"
   xmlns="http://www.w3.org/2000/svg"
   xmlns:svg="http://www.w3.org/2000/svg"><defs
   id="defs1" />    
    <path
   id="Frame1"
   style="fill:#204a87;fill-opacity:1;stroke-width:0.32"
   d="m 170.91801,2.9659516 -1.09364,1.3104931 -9.04284,-0.030621 -4.18645,4.1195854 -5.31259,0.029997 -0.085,-4.3395633 L 109.39608,4.1789544 30.802109,4.0652159 29.669098,5.3732094 19.703851,5.278219 18.057766,3.0265705 8.649338,3.0421939 c -3.1772735,0 -5.6781788,2.5239675 -5.6781788,5.703801 V 309.27076 c 0,3.17983 2.5802723,5.76129 5.7575458,5.76129 H 189.12243 c 3.17727,0 5.75754,-2.58146 5.75754,-5.76129 V 16.045886 L 181.39508,3.0296952 Z M 11.790272,291.24507 c 2.152665,-0.005 5.281541,0.024 6.486847,0.0194 0.748197,0.005 1.166117,0.32048 1.208629,1.02552 -0.0026,1.35469 0.0072,5.53272 0.0094,6.73183 -0.08585,0.37326 -0.06623,0.56478 -0.641185,0.7543 -1.554944,0.003 -7.069767,0.0304 -8.783491,0.015 -0.5795896,-0.004 -1.0401051,-0.43925 -1.0898907,-0.7693 -0.00586,-1.34311 -0.0025,-4.55852 -0.0025,-6.92431 h 6.4e-4 c 0.2242016,-0.496 0.5862784,-0.74215 1.0917647,-0.83304 0.393391,-0.0117 1.002272,-0.0177 1.719828,-0.0194 z m 169.525448,0.10937 c 2.15266,-0.005 5.28091,0.0233 6.48622,0.0188 0.74819,0.005 1.16674,0.3211 1.20925,1.02614 -0.003,1.35469 0.007,5.53272 0.009,6.73183 -0.0858,0.37326 -0.0662,0.56478 -0.64119,0.7543 -1.55494,0.003 -7.06976,0.0304 -8.78349,0.015 -0.57959,-0.004 -1.0401,-0.43924 -1.08989,-0.76929 -0.006,-1.34311 -0.003,-4.55851 -0.003,-6.92431 h 6.4e-4 c 0.2242,-0.496 0.58628,-0.74278 1.09177,-0.83366 0.39339,-0.0117 1.00289,-0.017 1.72045,-0.0188 z" /></svg>
