<?xml version="1.0" encoding="UTF-8" standalone="no"?>
<svg
   width="619"
   height="994"
   viewBox="0 0 198.04799 318.048"
   version="1.1"
   xml:space="preserve"
   style="clip-rule:evenodd;fill-rule:evenodd;stroke-linejoin:round;stroke-miterlimit:2"
   id="svg1"
   xmlns="http://www.w3.org/2000/svg"
   xmlns:svg="http://www.w3.org/2000/svg"><defs
   id="defs1" />    
    <path
   id="floppy_color_base"
   style="fill:#204a87;fill-opacity:1;stroke-width:0.32"
   d="m 170.91801,2.965955 -1.09364,1.31049 -9.04284,-0.0306 -4.18645,4.11958 -5.31259,0.03 -0.085,-4.33956 -41.80141,0.12311 -78.593975,-0.11374 -1.13301,1.30799 -9.96525,-0.095 -1.64608,-2.25164 -9.40843,0.0156 c -3.17727,0 -5.67818,2.52397 -5.67818,5.7038 V 309.27076 c 0,3.17983 2.58027,5.76129 5.75755,5.76129 H 189.12243 c 3.17727,0 5.75754,-2.58146 5.75754,-5.76129 V 16.045885 L 181.39508,3.029695 Z M 11.790265,291.24507 c 2.15267,-0.005 5.28154,0.024 6.48685,0.0194 0.7482,0.005 1.16612,0.32048 1.20863,1.02552 -0.003,1.35469 0.007,5.53272 0.009,6.73183 -0.0859,0.37326 -0.0662,0.56478 -0.64119,0.7543 -1.55494,0.003 -7.06976,0.0304 -8.78349,0.015 -0.57959,-0.004 -1.0401,-0.43925 -1.08989,-0.7693 -0.006,-1.34311 -0.002,-4.55852 -0.002,-6.92431 h 6.4e-4 c 0.2242,-0.496 0.58628,-0.74215 1.09177,-0.83304 0.39339,-0.0117 1.00227,-0.0177 1.71983,-0.0194 z m 169.525455,0.10937 c 2.15266,-0.005 5.28091,0.0233 6.48622,0.0188 0.74819,0.005 1.16674,0.3211 1.20925,1.02614 -0.003,1.35469 0.007,5.53272 0.009,6.73183 -0.0858,0.37326 -0.0662,0.56478 -0.64119,0.7543 -1.55494,0.003 -7.06976,0.0304 -8.78349,0.015 -0.57959,-0.004 -1.0401,-0.43924 -1.08989,-0.76929 -0.006,-1.34311 -0.003,-4.55851 -0.003,-6.92431 h 6.4e-4 c 0.2242,-0.496 0.58628,-0.74278 1.09177,-0.83366 0.39339,-0.0117 1.00289,-0.017 1.72045,-0.0188 z" /></svg>
