<?xml version="1.0" encoding="UTF-8" standalone="no"?>
<svg
   width="619"
   height="994"
   viewBox="0 0 198.04802 318.04802"
   version="1.1"
   xml:space="preserve"
   style="clip-rule:evenodd;fill-rule:evenodd;stroke-linejoin:round;stroke-miterlimit:2"
   id="svg10"
   sodipodi:docname="tapto_hucard_pro.svg"
   inkscape:version="1.3.2 (091e20e, 2023-11-25, custom)"
   xmlns:inkscape="http://www.inkscape.org/namespaces/inkscape"
   xmlns:sodipodi="http://sodipodi.sourceforge.net/DTD/sodipodi-0.dtd"
   xmlns="http://www.w3.org/2000/svg"
   xmlns:svg="http://www.w3.org/2000/svg"
   xmlns:serif="http://www.serif.com/"><sodipodi:namedview
   id="namedview1"
   pagecolor="#505050"
   bordercolor="#eeeeee"
   borderopacity="1"
   inkscape:showpageshadow="0"
   inkscape:pageopacity="0"
   inkscape:pagecheckerboard="0"
   inkscape:deskcolor="#505050"
   inkscape:zoom="0.70710678"
   inkscape:cx="-444.06306"
   inkscape:cy="424.97117"
   inkscape:window-width="5120"
   inkscape:window-height="1369"
   inkscape:window-x="-8"
   inkscape:window-y="331"
   inkscape:window-maximized="1"
   inkscape:current-layer="svg10"
   showguides="true" />
    <g
   id="Background"
   transform="scale(0.31999999)"
   style="display:inline;fill:#ffffff">
        <path
   id="Sticker-Rounded"
   serif:id="Sticker Rounded"
   d="m 618.9,24.756 v 944.388 c 0,13.663 -11.093,24.756 -24.756,24.756 H 24.756 C 11.093,993.9 0,982.807 0,969.144 V 24.756 C 0,11.093 11.093,0 24.756,0 H 594.144 C 607.807,0 618.9,11.093 618.9,24.756 Z"
   style="display:none;fill:#ffff00"
   clip-path="none" /><path
   id="path15"
   clip-path="none"
   style="clip-rule:evenodd;display:inline;fill:#ffff00;fill-rule:evenodd;stroke-linejoin:round;stroke-miterlimit:2"
   d="M 24.756002 0 C 11.093016 -2.3682354e-15 0.00067789675 11.092338 0.00067789675 24.755324 L 0.00067789675 969.14477 C 0.00067789675 982.80776 11.093016 993.90009 24.756002 993.90009 L 594.14408 993.90009 C 607.80707 993.90009 618.8994 982.80776 618.8994 969.14477 L 618.8994 24.755324 C 618.8994 11.092338 607.80707 3.0789229e-16 594.14408 0 L 24.756002 0 z M 18.621853 248.26411 L 602.42254 248.26411 L 602.42254 971.8691 L 18.621853 971.8691 L 18.621853 248.26411 z " />
    </g>
    <g
   id="Card-Frame"
   serif:id="Card Frame"
   transform="scale(0.31999999)"
   style="display:inline">
        <g
   id="g10"
   inkscape:label="RealBorder"
   style="display:none"><path
     id="path50"
     serif:id="Sticker Rounded"
     d="m 618.9,24.756 v 944.388 c 0,13.663 -11.093,24.756 -24.756,24.756 H 24.756 C 11.093,993.9 0,982.807 0,969.144 V 24.756 C 0,11.093 11.093,0 24.756,0 H 594.144 C 607.807,0 618.9,11.093 618.9,24.756 Z"
     style="clip-rule:evenodd;display:none;fill:#ffff00;fill-rule:evenodd;stroke-linejoin:round;stroke-miterlimit:2"
     clip-path="url(#clipPath13)"
     inkscape:label="border"
     mask="none"
     inkscape:path-effect="#path-effect14" /></g><g
   id="Artwork-Area"
   serif:id="Artwork Area"
   style="display:inline">
            <path
   d="m 609.525,258.529 v 707.992 c 0,9.936 -8.068,18.004 -18.004,18.004 H 27.379 c -9.936,0 -18.004,-8.068 -18.004,-18.004 V 258.529 c 0,-9.936 8.068,-18.004 18.004,-18.004 h 564.142 c 9.936,0 18.004,8.068 18.004,18.004 z M 394.418,972.025 h 197.103 c 3.038,0 5.504,-2.466 5.504,-5.504 V 258.529 c 0,-3.038 -2.466,-5.504 -5.504,-5.504 H 27.379 c -3.038,0 -5.504,2.466 -5.504,5.504 v 707.992 c 0,3.038 2.466,5.504 5.504,5.504 h 197.103 c 5.51,-0.187 9.926,-4.719 9.926,-10.274 v -36.737 h 139.803 c 5.674,0 10.281,4.607 10.281,10.281 v 26.456 c 0,5.555 4.416,10.087 9.926,10.274 z"
   id="path1"
   style="display:inline" />
            <path
   id="TapTo-Logo---Bottom"
   serif:id="TapTo Logo - Bottom"
   d="m 369.478,940.449 h -34.407 v 26.612 h -9.741 v -26.612 h -32.172 v -9.435 h 76.32 z m 0,0 h 9.014 v 23.638 c 0,7.974 -6.176,14.438 -13.794,14.438 h -60.142 v -9.434 h 57.774 c 3.948,0 7.148,-3.35 7.148,-7.484 z m 0.616,-3.121 v -1.175 c 1.924,0 3.489,1.638 3.489,3.652 h -1.123 c 0,-1.366 -1.062,-2.477 -2.366,-2.477 z m 4.82,2.478 c 0,-2.783 -2.162,-5.047 -4.82,-5.047 v -1.176 c 3.277,0 5.943,2.792 5.943,6.223 z m 2.455,0 c 0,-4.199 -3.264,-7.616 -7.275,-7.616 v -1.176 c 4.63,0 8.398,3.944 8.398,8.792 z m -85.78,0.643 h -32.172 v 21.159 c 0,4.133 3.2,7.483 7.149,7.483 h 25.023 v 9.434 h -28.121 c -7.617,0 -13.793,-6.464 -13.793,-14.438 v -23.638 h -9.267 v -9.435 h 51.181 z m -29.937,2.03 h 29.937 v 24.582 h -9.741 v -15.147 h -10.455 v 4.407 c 0,0.721 0.558,1.305 1.247,1.305 h 7.551 v 9.435 h -12.676 c -3.238,0 -5.863,-2.748 -5.863,-6.138 z m 31.506,0 h 29.937 v 18.444 c 0,3.39 -2.625,6.138 -5.863,6.138 h -12.676 v -9.435 h 7.55 c 0.689,0 1.248,-0.584 1.248,-1.305 v -4.407 H 302.9 v 26.611 h -9.742 z m 74.085,0 v 18.444 c 0,3.39 -2.625,6.138 -5.863,6.138 h -18.21 c -3.238,0 -5.864,-2.748 -5.864,-6.138 v -18.444 z m -9.741,9.435 h -10.454 v 4.407 c 0,0.721 0.558,1.305 1.247,1.305 h 7.96 c 0.689,0 1.247,-0.584 1.247,-1.305 z"
   style="display:inline;fill:#ffffff" />
        </g>
        <g
   id="Card-Top"
   serif:id="Card Top"
   style="display:inline">
            <path
   id="Header-Background"
   serif:id="Header Background"
   d="m 609.525,48.574 v 158.932 c 0,9.958 -8.084,18.042 -18.041,18.042 H 27.416 c -9.957,0 -18.041,-8.084 -18.041,-18.042 V 48.574 Z"
   style="fill:#340083" />
            <path
   id="NFC-Loading-System"
   serif:id="NFC Loading System"
   d="m 383.64872,210.52263 h -1.83377 v -1.25536 h -10.8358 v 1.25536 h -1.83457 v -15.75394 h 14.50414 z m -1.83377,-3.13283 v -10.74364 h -10.8358 v 10.74364 z m 23.53476,-4.44858 h -16.93222 v -1.8878 h 16.93222 z m 20.93825,-5.91765 -1.40791,0.61178 c -0.24392,-1.15604 -0.56809,-2.0912 -0.97091,-2.80548 l 1.47703,-0.62212 c 0.37661,0.76116 0.67694,1.7003 0.90179,2.81582 z m -5.6507,-0.5816 h -10.1517 v -1.8878 h 10.1517 z m 3.39026,1.41824 -1.39757,0.60225 c -0.25108,-1.14968 -0.57524,-2.08167 -0.97171,-2.79595 l 1.47703,-0.62212 c 0.3774,0.76116 0.67455,1.7003 0.89225,2.81582 z m 1.44764,3.72396 h -7.20718 c 0.0127,0.16367 0.0199,0.44255 0.0199,0.83664 0,4.15618 -1.77498,7.11501 -5.32415,8.87728 l -1.4373,-1.67328 c 1.6129,-0.58557 2.83409,-1.47306 3.66358,-2.66326 0.82949,-1.19021 1.24344,-2.62275 1.24344,-4.29603 0,-0.48943 -0.0127,-0.85014 -0.0389,-1.08135 h -7.8722 v -1.88781 h 16.95289 z m 17.2699,-5.12154 c -1.51358,1.86317 -2.70935,3.1662 -3.58889,3.9075 v 8.27502 h -1.6852 v -6.89731 c -1.61925,1.24423 -3.17574,2.1937 -4.66945,2.8468 l -1.04084,-1.53106 c 1.77816,-0.72064 3.58015,-1.81788 5.40757,-3.29015 1.82822,-1.47305 3.23374,-2.96121 4.21896,-4.46446 z m 13.94876,0.8565 -1.09009,1.63276 c -1.63912,-1.42141 -3.56903,-2.4114 -5.78974,-2.96916 l 1.12029,-1.7138 c 2.33909,0.87001 4.25947,1.88701 5.75954,3.0502 z m 9.14107,2.13252 c -2.33353,3.5444 -4.64641,6.09802 -6.94022,7.66245 -2.29301,1.56522 -4.88715,2.76575 -7.78242,3.60239 l -1.16001,-1.8878 c 3.62226,-0.80247 6.52706,-2.08485 8.7144,-3.84632 2.18814,-1.76227 4.09104,-4.05766 5.71029,-6.88778 z m 20.86833,-4.34608 -1.39758,0.60146 c -0.25107,-1.15604 -0.57524,-2.08802 -0.97171,-2.79516 l 1.47703,-0.63324 c 0.37661,0.76196 0.67376,1.70427 0.89226,2.82694 z m -2.25011,0.83664 -0.83346,0.41792 0.77387,0.78579 c -0.54902,3.37358 -1.71857,6.18462 -3.50944,8.43314 -1.79166,2.24773 -4.34608,4.08309 -7.66403,5.50451 l -1.39758,-1.75512 c 3.0208,-1.05434 5.3885,-2.47417 7.1031,-4.25947 1.71539,-1.78611 2.8603,-4.06323 3.43554,-6.83137 h -7.55439 c -1.28873,1.88462 -2.56156,3.24089 -3.81692,4.07117 l -1.47703,-1.3364 c 2.72285,-1.85761 4.71871,-4.50975 5.98758,-7.95881 l 1.74478,0.87716 c -0.38296,0.91213 -0.79611,1.73526 -1.23867,2.4694 h 7.00855 c -0.25743,-1.08135 -0.57127,-1.95216 -0.94152,-2.61162 l 1.48736,-0.63324 c 0.37661,0.76196 0.67376,1.70427 0.89226,2.82694 z m 14.21652,-0.41872 -0.65469,1.89814 c -1.77101,-1.04799 -3.83043,-1.69394 -6.17668,-1.93866 l 0.6547,-1.94898 c 2.60367,0.55776 4.66309,1.22119 6.17667,1.9895 z m 7.931,4.07117 c -1.87032,3.05418 -3.97583,5.46399 -6.31572,7.22864 -2.33909,1.76544 -5.16126,3.10423 -8.46651,4.01555 l -0.93119,-1.92832 c 3.4427,-0.82314 6.31334,-2.09677 8.60953,-3.82169 2.29698,-1.72413 4.1395,-3.98775 5.52754,-6.79005 z m -9.86488,1.19418 -0.71349,1.97918 c -1.55966,-1.12267 -3.58889,-1.82663 -6.08689,-2.11186 l 0.65389,-1.89814 c 2.50516,0.48308 4.55425,1.16002 6.14649,2.03082 z m 31.14954,8.774 -1.58588,1.19418 c -1.95693,-2.74828 -4.24358,-4.94834 -6.86077,-6.60175 -2.12139,2.73477 -4.72189,5.05082 -7.80228,6.94895 l -1.41744,-1.50007 c 2.55759,-1.38089 4.81008,-3.18686 6.75589,-5.4179 1.94659,-2.23104 3.46494,-4.75129 4.55583,-7.56074 h -10.17157 v -1.79564 l 11.8965,-0.0207 0.54504,0.5816 c -0.7397,2.67359 -1.83695,5.09134 -3.29094,7.25485 2.82217,1.84967 5.28045,4.15619 7.37562,6.91718 z m 17.37875,-13.12087 h -12.95719 v -1.8878 h 12.95719 z m 2.03241,5.1422 h -7.20718 c 0.0135,0.16367 0.0199,0.44255 0.0199,0.83664 0,4.15618 -1.77418,7.11501 -5.32335,8.87728 l -1.4381,-1.67328 c 1.6129,-0.58557 2.83409,-1.47306 3.66358,-2.66326 0.82949,-1.19021 1.24423,-2.62275 1.24423,-4.29603 0,-0.48943 -0.0135,-0.85014 -0.0397,-1.08135 h -7.87141 v -1.88781 h 16.95209 z m 20.68082,8.20352 -1.80438,0.77546 c -0.24471,-0.8708 -0.60861,-1.80914 -1.09089,-2.81581 -6.82024,0.70713 -11.42375,1.29905 -13.80972,1.77498 l -0.48625,-2.03003 2.33035,-0.26537 5.28363,-13.75411 1.68519,0.67297 -4.93641,12.80544 8.87251,-1.00032 c -1.12982,-2.17621 -2.1778,-3.75812 -3.14236,-4.74413 l 1.88303,-0.83664 c 1.81153,2.33989 3.54917,5.47907 5.2153,9.41756 z M 369.53469,188.05015 c -0.43222,0 -0.78341,-0.35119 -0.78341,-0.78341 0,-0.43302 0.35119,-0.7842 0.78341,-0.7842 h 198.3663 c 0.43223,0 0.78341,0.35118 0.78341,0.7842 0,0.43222 -0.35118,0.78341 -0.78341,0.78341 z m 0,-29.72496 h 4.32622 l 3.35371,13.13358 h 0.0628 v -13.13358 h 3.07244 v 21.94095 h -3.54281 l -4.13791,-16.01693 h -0.062 v 16.01693 h -3.07245 z m 13.38545,0 h 9.12199 v 3.13442 h -5.67373 v 6.11232 h 4.45095 v 3.13442 h -4.45095 v 9.55979 h -3.44826 z m 15.64191,22.25479 c -1.65024,0 -2.90957,-0.47037 -3.7772,-1.41109 -0.86683,-0.93993 -1.30064,-2.26679 -1.30064,-3.98059 v -11.78527 c 0,-1.7138 0.43381,-3.04066 1.30064,-3.98059 0.86763,-0.94072 2.12696,-1.41109 3.7772,-1.41109 1.65103,0 2.91036,0.47037 3.77799,1.41109 0.86683,0.93993 1.30064,2.26679 1.30064,3.98059 v 2.31924 h -3.25996 v -2.53853 c 0,-1.35864 -0.57523,-2.03796 -1.72412,-2.03796 -1.14969,0 -1.72413,0.67932 -1.72413,2.03796 v 12.25563 c 0,1.33719 0.57444,2.00619 1.72413,2.00619 1.14889,0 1.72412,-0.669 1.72412,-2.00619 v -3.35371 h 3.25996 v 3.10264 c 0,1.7138 -0.43381,3.04066 -1.30064,3.98059 -0.86763,0.94072 -2.12696,1.41109 -3.77799,1.41109 z m 12.16345,-22.25479 h 3.44747 v 18.80653 h 5.67453 v 3.13442 h -9.122 z m 15.64191,22.25479 c -1.69235,0 -2.98822,-0.48069 -3.88684,-1.44208 -0.89861,-0.96138 -1.34831,-2.31923 -1.34831,-4.07514 v -11.53419 c 0,-1.75591 0.4497,-3.11376 1.34831,-4.07514 0.89862,-0.96138 2.19449,-1.44208 3.88684,-1.44208 1.69315,0 2.98823,0.4807 3.88684,1.44208 0.89862,0.96138 1.34832,2.31923 1.34832,4.07514 v 11.53419 c 0,1.75591 -0.4497,3.11376 -1.34832,4.07514 -0.89861,0.96139 -2.19369,1.44208 -3.88684,1.44208 z m 0,-3.13442 c 1.191,0 1.7869,-0.72144 1.7869,-2.16351 v -11.97356 c 0,-1.44128 -0.5959,-2.16271 -1.7869,-2.16271 -1.191,0 -1.78689,0.72143 -1.78689,2.16271 v 11.97356 c 0,1.44207 0.59589,2.16351 1.78689,2.16351 z m 10.15648,-19.12037 h 4.67104 l 3.5738,21.94095 h -3.44826 l -0.62689,-4.35721 v 0.0628 h -3.91862 l -0.62688,4.29444 h -3.19799 z m 3.7621,14.66941 -1.53662,-10.84533 h -0.0628 l -1.50405,10.84533 z m 6.1441,-14.66941 h 5.26614 c 1.7138,0 2.99856,0.46004 3.85586,1.37931 0.8565,0.91927 1.28475,2.26679 1.28475,4.04336 v 11.09561 c 0,1.77657 -0.42825,3.12409 -1.28475,4.04336 -0.8573,0.91927 -2.14206,1.37931 -3.85586,1.37931 h -5.26614 z m 5.20337,18.80653 c 0.56412,0 0.99793,-0.16686 1.30065,-0.50135 0.30351,-0.3345 0.45447,-0.87796 0.45447,-1.63038 v -11.40865 c 0,-0.75242 -0.15096,-1.29588 -0.45447,-1.63038 -0.30272,-0.33449 -0.73653,-0.50135 -1.30065,-0.50135 h -1.75511 v 15.67211 z m 7.52341,-18.80653 h 3.44826 v 21.94095 h -3.44826 z m 6.01856,0 h 4.32622 l 3.35371,13.13358 h 0.0628 v -13.13358 h 3.07245 v 21.94095 h -3.54281 l -4.13791,-16.01693 h -0.062 v 16.01693 h -3.07245 z m 18.27578,22.25479 c -1.67169,0 -2.94691,-0.47593 -3.82487,-1.42619 -0.87716,-0.95105 -1.31654,-2.31446 -1.31654,-4.09103 v -11.53419 c 0,-1.77657 0.43938,-3.13998 1.31654,-4.09103 0.87796,-0.95026 2.15318,-1.42619 3.82487,-1.42619 1.67169,0 2.94611,0.47593 3.82407,1.42619 0.87796,0.95105 1.31654,2.31446 1.31654,4.09103 v 1.88065 h -3.25996 v -2.10073 c 0,-1.44128 -0.5959,-2.16271 -1.7869,-2.16271 -1.191,0 -1.7869,0.72143 -1.7869,2.16271 v 12.00534 c 0,1.42062 0.5959,2.13173 1.7869,2.13173 1.191,0 1.7869,-0.71111 1.7869,-2.13173 v -4.29443 h -1.72413 v -3.13442 h 4.98409 v 7.17778 c 0,1.77657 -0.43858,3.13998 -1.31654,4.09103 -0.87796,0.95026 -2.15238,1.42619 -3.82407,1.42619 z m 16.86469,0 c -1.67169,0 -2.93658,-0.47593 -3.79309,-1.42619 -0.8565,-0.95105 -1.28555,-2.31446 -1.28555,-4.09103 v -1.25377 h 3.26075 v 1.50484 c 0,1.42062 0.59511,2.13173 1.78611,2.13173 0.58557,0 1.02971,-0.17242 1.33242,-0.51724 0.30351,-0.34483 0.45447,-0.90418 0.45447,-1.67726 0,-0.91927 -0.20896,-1.72889 -0.62688,-2.42887 -0.41792,-0.69998 -1.191,-1.54139 -2.31923,-2.52343 -1.42142,-1.25377 -2.41378,-2.38756 -2.9779,-3.40059 -0.56491,-1.01382 -0.84697,-2.15794 -0.84697,-3.43237 0,-1.73446 0.43938,-3.07721 1.31654,-4.02826 0.87795,-0.95026 2.15317,-1.42619 3.82486,-1.42619 1.65104,0 2.89924,0.47593 3.74621,1.42619 0.84618,0.95105 1.26887,2.31446 1.26887,4.09103 v 0.90894 h -3.25996 v -1.12902 c 0,-0.75163 -0.14619,-1.30065 -0.43858,-1.64548 -0.29239,-0.34482 -0.72143,-0.51723 -1.28555,-0.51723 -1.14889,0 -1.72413,0.69998 -1.72413,2.10073 0,0.79374 0.21452,1.53583 0.64278,2.22548 0.42825,0.68886 1.20689,1.5247 2.33512,2.50754 1.44207,1.25376 2.43523,2.39233 2.9779,3.41647 0.54346,1.02336 0.81518,2.22548 0.81518,3.60399 0,1.79723 -0.44414,3.17653 -1.33163,4.13791 -0.88828,0.96139 -2.17939,1.44208 -3.87174,1.44208 z m 10.15647,-9.65434 -4.16889,-12.60045 h 3.66755 l 2.35101,8.05574 h 0.0628 l 2.35101,-8.05574 h 3.35371 l -4.1689,12.60045 v 9.3405 h -3.44826 z m 13.16616,9.65434 c -1.67249,0 -2.93658,-0.47593 -3.79309,-1.42619 -0.85729,-0.95105 -1.28555,-2.31446 -1.28555,-4.09103 v -1.25377 h 3.25996 v 1.50484 c 0,1.42062 0.5959,2.13173 1.7869,2.13173 0.58557,0 1.02971,-0.17242 1.33242,-0.51724 0.30272,-0.34483 0.45448,-0.90418 0.45448,-1.67726 0,-0.91927 -0.20897,-1.72889 -0.62689,-2.42887 -0.41792,-0.69998 -1.191,-1.54139 -2.32003,-2.52343 -1.42062,-1.25377 -2.41378,-2.38756 -2.97789,-3.40059 -0.56412,-1.01382 -0.84618,-2.15794 -0.84618,-3.43237 0,-1.73446 0.43858,-3.07721 1.31654,-4.02826 0.87795,-0.95026 2.15238,-1.42619 3.82407,-1.42619 1.65103,0 2.90003,0.47593 3.74621,1.42619 0.84617,0.95105 1.26966,2.31446 1.26966,4.09103 v 0.90894 h -3.25996 v -1.12902 c 0,-0.75163 -0.14619,-1.30065 -0.43858,-1.64548 -0.29318,-0.34482 -0.72143,-0.51723 -1.28555,-0.51723 -1.14968,0 -1.72413,0.69998 -1.72413,2.10073 0,0.79374 0.21452,1.53583 0.64278,2.22548 0.42825,0.68886 1.20689,1.5247 2.33512,2.50754 1.44207,1.25376 2.43444,2.39233 2.9779,3.41647 0.54346,1.02336 0.81518,2.22548 0.81518,3.60399 0,1.79723 -0.44414,3.17653 -1.33242,4.13791 -0.88829,0.96139 -2.1786,1.44208 -3.87095,1.44208 z m 9.87442,-19.12037 h -3.60558 v -3.13442 h 10.65862 v 3.13442 h -3.60478 v 18.80653 h -3.44826 z m 8.7144,-3.13442 h 9.40406 v 3.13442 h -5.9558 v 5.79848 h 4.73301 v 3.13442 h -4.73301 v 6.73921 h 5.9558 v 3.13442 h -9.40406 z m 11.37926,0 h 4.92131 l 2.1945,15.70309 h 0.0628 l 2.1937,-15.70309 h 4.92211 v 21.94095 h -3.26075 v -16.61283 h -0.062 l -2.50833,16.61283 h -2.88414 l -2.50754,-16.61283 h -0.0628 v 16.61283 h -3.00888 z"
   style="fill:#ffffff;stroke-width:0.79453" />
            <path
   id="TapTo-Logo---Top"
   serif:id="TapTo Logo - Top"
   d="m 579.98926,71.616522 h -71.763 v 52.989998 h -20.317 V 71.616522 h -67.099 v -18.787 h 159.179 z m 0,0 h 18.798 v 47.067998 c 0,15.879 -12.881,28.751 -28.769,28.751 h -125.437 v -18.786 h 120.498 c 8.234,0 14.91,-6.672 14.91,-14.902 z m 1.283,-6.215 v -2.34 c 4.013,0 7.277,3.262 7.277,7.273 h -2.342 c 0,-2.72 -2.214,-4.933 -4.935,-4.933 z m 10.054,4.934 c 0,-5.542 -4.51,-10.05 -10.054,-10.05 v -2.34 c 6.835,0 12.396,5.558 12.396,12.39 z m 5.119,0 c 0,-8.362 -6.808,-15.164 -15.173,-15.164 v -2.342 c 9.657,0 17.515,7.853 17.515,17.506 z m -178.908,1.281 h -67.1 v 42.131998 c 0,8.229 6.675,14.901 14.91,14.901 h 52.19 v 18.786 h -58.65 c -15.888,0 -28.767,-12.872 -28.767,-28.751 V 71.616522 h -19.328 v -18.787 h 106.745 z m -62.438,4.042 h 62.438 v 48.947998 h -20.317 V 94.446522 h -21.804 v 8.774998 c 0,1.436 1.163,2.598 2.6,2.598 h 15.749 v 18.787 h -26.438 c -6.754,0 -12.228,-5.471 -12.228,-12.221 z m 65.711,0 h 62.438 v 36.726998 c 0,6.75 -5.475,12.221 -12.229,12.221 h -26.438 v -18.787 h 15.749 c 1.436,0 2.601,-1.162 2.601,-2.598 v -8.774998 h -21.804 v 52.988998 h -20.317 z m 154.517,0 v 36.726998 c 0,6.75 -5.475,12.221 -12.228,12.221 h -37.982 c -6.753,0 -12.229,-5.471 -12.229,-12.221 V 75.658522 Z m -20.318,18.788 h -21.804 v 8.774998 c 0,1.436 1.165,2.598 2.602,2.598 h 16.602 c 1.437,0 2.6,-1.162 2.6,-2.598 z"
   style="fill:#ffffff" />
            <g
   id="Wizzo.dev-TapTo"
   serif:id="Wizzo.dev/TapTo"
   transform="translate(-7.2021747,853.24586)"
   style="display:inline">
                <path
   d="m 588.28843,95.023 v 0.009 c 0,10.346 -8.4,18.746 -18.745,18.746 h -136.51 c -10.345,0 -18.745,-8.4 -18.745,-18.746 v -0.009 c 0,-10.346 8.4,-18.745 18.745,-18.745 h 136.51 c 10.345,0 18.745,8.399 18.745,18.745 z"
   style="fill:#1a1a1a"
   id="path2" />
                <path
   d="m 430.21843,85.823 h 2.788 l 1.289,14.149 h 0.053 l 1.368,-14.149 h 3.156 l 1.368,14.149 h 0.052 l 1.289,-14.149 h 2.499 l -1.868,18.41 h -3.603 l -1.315,-12.414 h -0.053 l -1.315,12.414 h -3.84 z m 15.335,0 h 2.893 v 18.41 h -2.893 z m 4.471,15.832 5.366,-13.202 h -5.103 v -2.63 h 8.207 V 88.4 l -5.366,13.203 h 5.366 v 2.63 h -8.47 z m 9.653,0 5.366,-13.202 h -5.103 v -2.63 h 8.207 V 88.4 l -5.366,13.203 h 5.366 v 2.63 h -8.47 z m 14.283,2.841 c -1.421,0 -2.508,-0.403 -3.262,-1.21 -0.754,-0.806 -1.131,-1.946 -1.131,-3.419 v -9.678 c 0,-1.473 0.377,-2.613 1.131,-3.419 0.754,-0.807 1.841,-1.21 3.262,-1.21 1.42,0 2.507,0.403 3.261,1.21 0.754,0.806 1.131,1.946 1.131,3.419 v 9.678 c 0,1.473 -0.377,2.613 -1.131,3.419 -0.754,0.807 -1.841,1.21 -3.261,1.21 z m 0,-2.63 c 0.999,0 1.499,-0.605 1.499,-1.815 V 90.005 c 0,-1.21 -0.5,-1.815 -1.499,-1.815 -1,0 -1.5,0.605 -1.5,1.815 v 10.046 c 0,1.21 0.5,1.815 1.5,1.815 z m 6.181,-0.421 h 2.788 v 2.788 h -2.788 z m 4.945,-15.622 h 4.418 c 1.438,0 2.517,0.386 3.236,1.157 0.719,0.771 1.078,1.902 1.078,3.393 v 9.31 c 0,1.49 -0.359,2.621 -1.078,3.393 -0.719,0.771 -1.798,1.157 -3.236,1.157 h -4.418 z m 4.366,15.78 c 0.473,0 0.837,-0.14 1.091,-0.421 0.255,-0.28 0.382,-0.736 0.382,-1.368 v -9.573 c 0,-0.631 -0.127,-1.087 -0.382,-1.367 -0.254,-0.281 -0.618,-0.421 -1.091,-0.421 h -1.473 v 13.15 z m 6.312,-15.78 h 7.891 v 2.63 h -4.997 v 4.865 h 3.971 v 2.63 h -3.971 v 5.655 h 4.997 v 2.63 h -7.891 z m 8.786,0 h 2.919 l 1.894,14.281 h 0.053 l 1.893,-14.281 h 2.657 l -2.788,18.41 h -3.84 z m 16.57,0 h 2.499 l -7.26,18.41 h -2.498 z m 6.339,2.63 h -3.025 v -2.63 h 8.943 v 2.63 h -3.025 v 15.78 h -2.893 z m 8.338,-2.63 h 3.919 l 2.999,18.41 h -2.894 l -0.526,-3.656 v 0.053 h -3.288 l -0.526,3.603 h -2.682 z m 3.156,12.308 -1.288,-9.1 h -0.053 l -1.263,9.1 z m 5.156,-12.308 h 4.261 c 1.438,0 2.516,0.386 3.235,1.157 0.719,0.771 1.078,1.902 1.078,3.393 v 1.814 c 0,1.491 -0.359,2.622 -1.078,3.393 -0.719,0.772 -1.797,1.157 -3.235,1.157 h -1.368 v 7.496 h -2.893 z m 4.261,8.284 c 0.473,0 0.828,-0.131 1.065,-0.394 0.237,-0.263 0.355,-0.71 0.355,-1.341 v -2.183 c 0,-0.632 -0.118,-1.079 -0.355,-1.342 -0.237,-0.263 -0.592,-0.394 -1.065,-0.394 h -1.368 v 5.654 z m 8.206,-5.654 h -3.025 v -2.63 h 8.943 v 2.63 h -3.025 v 15.78 h -2.893 z m 11.389,16.043 c -1.42,0 -2.507,-0.403 -3.261,-1.21 -0.754,-0.806 -1.131,-1.946 -1.131,-3.419 v -9.678 c 0,-1.473 0.377,-2.613 1.131,-3.419 0.754,-0.807 1.841,-1.21 3.261,-1.21 1.421,0 2.508,0.403 3.262,1.21 0.754,0.806 1.131,1.946 1.131,3.419 v 9.678 c 0,1.473 -0.377,2.613 -1.131,3.419 -0.754,0.807 -1.841,1.21 -3.262,1.21 z m 0,-2.63 c 1,0 1.499,-0.605 1.499,-1.815 V 90.005 c 0,-1.21 -0.499,-1.815 -1.499,-1.815 -0.999,0 -1.499,0.605 -1.499,1.815 v 10.046 c 0,1.21 0.5,1.815 1.499,1.815 z"
   id="path3"
   style="fill:#f2f2f2" />
            </g>
            <path
   id="Pins-Background"
   serif:id="Pins Background"
   d="M 9.375,48.574 V 27.416 c 0,-9.957 8.084,-18.041 18.041,-18.041 h 564.068 c 9.957,0 18.041,8.084 18.041,18.041 v 21.158 z" />
            <path
   id="Pins"
   d="M 35.903,11.708 V 43.269 H 26.434 V 11.708 Z m -4.735,25.247 c -0.87,0 -1.577,0.707 -1.577,1.58 0,0.87 0.707,1.577 1.577,1.577 0.871,0 1.578,-0.707 1.578,-1.577 0,-0.873 -0.707,-1.58 -1.578,-1.58 z M 171.65,11.708 v 31.561 h -9.469 V 11.708 Z m -4.735,25.247 c -0.87,0 -1.577,0.707 -1.577,1.58 0,0.87 0.707,1.577 1.577,1.577 0.871,0 1.578,-0.707 1.578,-1.577 0,-0.873 -0.707,-1.58 -1.578,-1.58 z M 483.869,11.708 v 31.561 h -9.47 V 11.708 Z m -4.736,25.247 c -0.87,0 -1.577,0.707 -1.577,1.58 0,0.87 0.707,1.577 1.577,1.577 0.871,0 1.579,-0.707 1.579,-1.577 0,-0.873 -0.708,-1.58 -1.579,-1.58 z M 320.972,11.708 v 31.561 h -9.469 V 11.708 Z m -4.735,25.247 c -0.87,0 -1.578,0.707 -1.578,1.58 0,0.87 0.708,1.577 1.578,1.577 0.871,0 1.578,-0.707 1.578,-1.577 0,-0.873 -0.707,-1.58 -1.578,-1.58 z M 76.627,11.708 V 43.269 H 67.158 V 11.708 Z m -4.735,25.247 c -0.87,0 -1.577,0.707 -1.577,1.58 0,0.87 0.707,1.577 1.577,1.577 0.871,0 1.578,-0.707 1.578,-1.577 0,-0.873 -0.707,-1.58 -1.578,-1.58 z M 212.374,11.708 v 31.561 h -9.469 V 11.708 Z m -4.735,25.247 c -0.87,0 -1.577,0.707 -1.577,1.58 0,0.87 0.707,1.577 1.577,1.577 0.871,0 1.579,-0.707 1.579,-1.577 0,-0.873 -0.708,-1.58 -1.579,-1.58 z M 524.593,11.708 v 31.561 h -9.47 V 11.708 Z m -4.736,25.247 c -0.869,0 -1.577,0.707 -1.577,1.58 0,0.87 0.708,1.577 1.577,1.577 0.872,0 1.579,-0.707 1.579,-1.577 0,-0.873 -0.707,-1.58 -1.579,-1.58 z M 361.696,11.708 v 31.561 h -9.469 V 11.708 Z m -4.735,25.247 c -0.87,0 -1.577,0.707 -1.577,1.58 0,0.87 0.707,1.577 1.577,1.577 0.871,0 1.578,-0.707 1.578,-1.577 0,-0.873 -0.707,-1.58 -1.578,-1.58 z M 117.351,11.708 v 31.561 h -9.469 V 11.708 Z m -4.735,25.247 c -0.87,0 -1.577,0.707 -1.577,1.58 0,0.87 0.707,1.577 1.577,1.577 0.871,0 1.579,-0.707 1.579,-1.577 0,-0.873 -0.708,-1.58 -1.579,-1.58 z M 253.099,11.708 v 31.561 h -9.47 V 11.708 Z m -4.736,25.247 c -0.87,0 -1.577,0.707 -1.577,1.58 0,0.87 0.707,1.577 1.577,1.577 0.871,0 1.579,-0.707 1.579,-1.577 0,-0.873 -0.708,-1.58 -1.579,-1.58 z M 565.317,11.708 v 31.561 h -9.47 V 11.708 Z m -4.735,25.247 c -0.87,0 -1.578,0.707 -1.578,1.58 0,0.87 0.708,1.577 1.578,1.577 0.871,0 1.578,-0.707 1.578,-1.577 0,-0.873 -0.707,-1.58 -1.578,-1.58 z M 402.42,11.708 v 31.561 h -9.469 V 11.708 Z m -4.735,25.247 c -0.87,0 -1.577,0.707 -1.577,1.58 0,0.87 0.707,1.577 1.577,1.577 0.871,0 1.578,-0.707 1.578,-1.577 0,-0.873 -0.707,-1.58 -1.578,-1.58 z M 144.501,11.708 v 31.561 h -9.47 V 11.708 Z m -4.736,25.247 c -0.869,0 -1.577,0.707 -1.577,1.58 0,0.87 0.708,1.577 1.577,1.577 0.872,0 1.579,-0.707 1.579,-1.577 0,-0.873 -0.707,-1.58 -1.579,-1.58 z M 456.719,11.708 V 43.269 H 447.25 V 11.708 Z m -4.735,25.247 c -0.87,0 -1.577,0.707 -1.577,1.58 0,0.87 0.707,1.577 1.577,1.577 0.871,0 1.578,-0.707 1.578,-1.577 0,-0.873 -0.707,-1.58 -1.578,-1.58 z M 280.248,11.708 v 31.561 h -9.47 V 11.708 Z m -4.735,25.247 c -0.87,0 -1.578,0.707 -1.578,1.58 0,0.87 0.708,1.577 1.578,1.577 0.871,0 1.578,-0.707 1.578,-1.577 0,-0.873 -0.707,-1.58 -1.578,-1.58 z M 592.466,11.708 v 31.561 h -9.469 V 11.708 Z m -4.735,25.247 c -0.87,0 -1.577,0.707 -1.577,1.58 0,0.87 0.707,1.577 1.577,1.577 0.871,0 1.578,-0.707 1.578,-1.577 0,-0.873 -0.707,-1.58 -1.578,-1.58 z M 429.57,11.708 V 43.269 H 420.1 V 11.708 Z m -4.736,25.247 c -0.869,0 -1.577,0.707 -1.577,1.58 0,0.87 0.708,1.577 1.577,1.577 0.872,0 1.579,-0.707 1.579,-1.577 0,-0.873 -0.707,-1.58 -1.579,-1.58 z M 90.202,11.708 v 31.561 h -9.47 V 11.708 Z m -4.735,25.247 c -0.87,0 -1.578,0.707 -1.578,1.58 0,0.87 0.708,1.577 1.578,1.577 0.871,0 1.578,-0.707 1.578,-1.577 0,-0.873 -0.707,-1.58 -1.578,-1.58 z M 225.949,11.708 V 43.269 H 216.48 V 11.708 Z m -4.735,25.247 c -0.87,0 -1.577,0.707 -1.577,1.58 0,0.87 0.707,1.577 1.577,1.577 0.871,0 1.578,-0.707 1.578,-1.577 0,-0.873 -0.707,-1.58 -1.578,-1.58 z M 538.168,11.708 v 31.561 h -9.47 V 11.708 Z m -4.736,25.247 c -0.87,0 -1.577,0.707 -1.577,1.58 0,0.87 0.707,1.577 1.577,1.577 0.871,0 1.579,-0.707 1.579,-1.577 0,-0.873 -0.708,-1.58 -1.579,-1.58 z M 375.271,11.708 v 31.561 h -9.47 V 11.708 Z m -4.735,25.247 c -0.87,0 -1.578,0.707 -1.578,1.58 0,0.87 0.708,1.577 1.578,1.577 0.871,0 1.578,-0.707 1.578,-1.577 0,-0.873 -0.707,-1.58 -1.578,-1.58 z M 130.926,11.708 v 31.561 h -9.469 V 11.708 Z m -4.735,25.247 c -0.87,0 -1.577,0.707 -1.577,1.58 0,0.87 0.707,1.577 1.577,1.577 0.871,0 1.578,-0.707 1.578,-1.577 0,-0.873 -0.707,-1.58 -1.578,-1.58 z M 266.673,11.708 v 31.561 h -9.469 V 11.708 Z m -4.735,25.247 c -0.87,0 -1.577,0.707 -1.577,1.58 0,0.87 0.707,1.577 1.577,1.577 0.871,0 1.578,-0.707 1.578,-1.577 0,-0.873 -0.707,-1.58 -1.578,-1.58 z M 578.892,11.708 v 31.561 h -9.47 V 11.708 Z m -4.736,25.247 c -0.87,0 -1.577,0.707 -1.577,1.58 0,0.87 0.707,1.577 1.577,1.577 0.871,0 1.579,-0.707 1.579,-1.577 0,-0.873 -0.708,-1.58 -1.579,-1.58 z M 415.995,11.708 v 31.561 h -9.469 V 11.708 Z m -4.735,25.247 c -0.87,0 -1.578,0.707 -1.578,1.58 0,0.87 0.708,1.577 1.578,1.577 0.871,0 1.578,-0.707 1.578,-1.577 0,-0.873 -0.707,-1.58 -1.578,-1.58 z M 158.076,11.708 v 31.561 h -9.47 V 11.708 Z m -4.736,25.247 c -0.87,0 -1.577,0.707 -1.577,1.58 0,0.87 0.707,1.577 1.577,1.577 0.871,0 1.579,-0.707 1.579,-1.577 0,-0.873 -0.708,-1.58 -1.579,-1.58 z M 470.294,11.708 v 31.561 h -9.47 V 11.708 Z m -4.735,25.247 c -0.87,0 -1.578,0.707 -1.578,1.58 0,0.87 0.708,1.577 1.578,1.577 0.871,0 1.578,-0.707 1.578,-1.577 0,-0.873 -0.707,-1.58 -1.578,-1.58 z M 307.397,11.708 v 31.561 h -9.469 V 11.708 Z m -4.735,25.247 c -0.87,0 -1.577,0.707 -1.577,1.58 0,0.87 0.707,1.577 1.577,1.577 0.871,0 1.579,-0.707 1.579,-1.577 0,-0.873 -0.708,-1.58 -1.579,-1.58 z m -8.839,-25.247 v 31.561 h -9.47 V 11.708 Z m -4.736,25.247 c -0.87,0 -1.577,0.707 -1.577,1.58 0,0.87 0.707,1.577 1.577,1.577 0.871,0 1.579,-0.707 1.579,-1.577 0,-0.873 -0.708,-1.58 -1.579,-1.58 z M 443.145,11.708 v 31.561 h -9.47 V 11.708 Z m -4.736,25.247 c -0.87,0 -1.577,0.707 -1.577,1.58 0,0.87 0.707,1.577 1.577,1.577 0.871,0 1.579,-0.707 1.579,-1.577 0,-0.873 -0.708,-1.58 -1.579,-1.58 z m -395.33,6.313 h -3.07 v -31.56 h 9.469 v 31.56 H 46.62 l -1.233,5.306 h -1.075 z m 1.664,-6.312 c -0.871,0 -1.578,0.707 -1.578,1.578 0,0.871 0.707,1.578 1.578,1.578 0.871,0 1.578,-0.707 1.578,-1.578 0,-0.871 -0.707,-1.578 -1.578,-1.578 z m 134.083,6.312 h -3.07 v -31.56 h 9.469 v 31.56 h -2.858 l -1.233,5.306 h -1.075 z m 1.664,-6.312 c -0.871,0 -1.578,0.707 -1.578,1.578 0,0.871 0.707,1.578 1.578,1.578 0.871,0 1.578,-0.707 1.578,-1.578 0,-0.871 -0.707,-1.578 -1.578,-1.578 z m 310.554,6.312 h -3.07 v -31.56 h 9.469 v 31.56 h -2.857 l -1.233,5.306 h -1.076 z m 1.665,-6.312 c -0.872,0 -1.579,0.707 -1.579,1.578 0,0.871 0.707,1.578 1.579,1.578 0.871,0 1.578,-0.707 1.578,-1.578 0,-0.871 -0.707,-1.578 -1.578,-1.578 z m -164.561,6.312 h -3.07 v -31.56 h 9.469 v 31.56 h -2.858 l -1.233,5.306 h -1.075 z m 1.664,-6.312 c -0.871,0 -1.578,0.707 -1.578,1.578 0,0.871 0.707,1.578 1.578,1.578 0.871,0 1.578,-0.707 1.578,-1.578 0,-0.871 -0.707,-1.578 -1.578,-1.578 z M 96.325,43.268 h -2.018 v -31.56 h 9.469 v 31.56 h -4.961 l -1.233,5.306 h -1.076 z m 2.717,-6.312 c -0.871,0 -1.578,0.707 -1.578,1.578 0,0.871 0.707,1.578 1.578,1.578 0.871,0 1.578,-0.707 1.578,-1.578 0,-0.871 -0.707,-1.578 -1.578,-1.578 z m 133.031,6.312 h -2.018 v -31.56 h 9.469 v 31.56 h -4.962 l -1.233,5.306 h -1.075 z m 2.716,-6.312 c -0.871,0 -1.578,0.707 -1.578,1.578 0,0.871 0.707,1.578 1.578,1.578 0.871,0 1.578,-0.707 1.578,-1.578 0,-0.871 -0.707,-1.578 -1.578,-1.578 z m 309.502,6.312 h -2.018 v -31.56 h 9.469 v 31.56 h -4.962 l -1.233,5.306 h -1.075 z m 2.716,-6.312 c -0.871,0 -1.578,0.707 -1.578,1.578 0,0.871 0.707,1.578 1.578,1.578 0.872,0 1.579,-0.707 1.579,-1.578 0,-0.871 -0.707,-1.578 -1.579,-1.578 z m -165.613,6.312 h -2.018 v -31.56 h 9.469 v 31.56 h -4.961 l -1.233,5.306 h -1.076 z m 2.717,-6.312 c -0.871,0 -1.578,0.707 -1.578,1.578 0,0.871 0.707,1.578 1.578,1.578 0.871,0 1.578,-0.707 1.578,-1.578 0,-0.871 -0.707,-1.578 -1.578,-1.578 z M 58.758,43.268 h -5.175 v -31.56 h 9.469 v 31.56 h -1.805 l -0.181,5.306 h -1.075 z m -0.44,-6.312 c -0.871,0 -1.578,0.707 -1.578,1.578 0,0.871 0.707,1.578 1.578,1.578 0.871,0 1.578,-0.707 1.578,-1.578 0,-0.871 -0.707,-1.578 -1.578,-1.578 z m 136.187,6.312 h -5.175 v -31.56 h 9.469 v 31.56 h -1.805 l -0.181,5.306 h -1.075 z m -0.44,-6.312 c -0.871,0 -1.578,0.707 -1.578,1.578 0,0.871 0.707,1.578 1.578,1.578 0.871,0 1.578,-0.707 1.578,-1.578 0,-0.871 -0.707,-1.578 -1.578,-1.578 z m 312.658,6.312 h -5.174 v -31.56 h 9.469 v 31.56 h -1.806 l -0.181,5.306 h -1.075 z m -0.44,-6.312 c -0.871,0 -1.578,0.707 -1.578,1.578 0,0.871 0.707,1.578 1.578,1.578 0.871,0 1.579,-0.707 1.579,-1.578 0,-0.871 -0.708,-1.578 -1.579,-1.578 z m -162.456,6.312 h -5.175 v -31.56 h 9.469 v 31.56 h -1.805 l -0.181,5.306 h -1.075 z m -0.44,-6.312 c -0.871,0 -1.578,0.707 -1.578,1.578 0,0.871 0.707,1.578 1.578,1.578 0.871,0 1.578,-0.707 1.578,-1.578 0,-0.871 -0.707,-1.578 -1.578,-1.578 z"
   style="fill:url(#_Linear1)" />
        </g>
    </g>
    <defs
   id="defs10"><inkscape:path-effect
     effect="powerclip"
     id="path-effect14"
     is_visible="true"
     lpeversion="1"
     inverse="true"
     flatten="false"
     hide_clip="false"
     message="Use fill-rule evenodd on &lt;b&gt;fill and stroke&lt;/b&gt; dialog if no flatten result after convert clip to paths." /><inkscape:path-effect
     effect="powerclip"
     id="path-effect12"
     is_visible="true"
     lpeversion="1"
     inverse="true"
     flatten="false"
     hide_clip="false"
     message="Use fill-rule evenodd on &lt;b&gt;fill and stroke&lt;/b&gt; dialog if no flatten result after convert clip to paths." /><inkscape:path-effect
     effect="powerclip"
     id="path-effect11"
     is_visible="true"
     lpeversion="1"
     inverse="true"
     flatten="false"
     hide_clip="false"
     message="Use fill-rule evenodd on &lt;b&gt;fill and stroke&lt;/b&gt; dialog if no flatten result after convert clip to paths." /><inkscape:path-effect
     effect="powerclip"
     id="path-effect10"
     is_visible="true"
     lpeversion="1"
     inverse="true"
     flatten="false"
     hide_clip="false"
     message="Use fill-rule evenodd on &lt;b&gt;fill and stroke&lt;/b&gt; dialog if no flatten result after convert clip to paths." /><inkscape:path-effect
     effect="powerclip"
     id="path-effect9"
     is_visible="true"
     lpeversion="1"
     inverse="true"
     flatten="false"
     hide_clip="false"
     message="Use fill-rule evenodd on &lt;b&gt;fill and stroke&lt;/b&gt; dialog if no flatten result after convert clip to paths." /><inkscape:path-effect
     effect="powerclip"
     id="path-effect7"
     is_visible="true"
     lpeversion="1"
     inverse="true"
     flatten="false"
     hide_clip="false"
     message="Use fill-rule evenodd on &lt;b&gt;fill and stroke&lt;/b&gt; dialog if no flatten result after convert clip to paths." /><inkscape:path-effect
     effect="powerclip"
     id="path-effect5"
     is_visible="true"
     lpeversion="1"
     inverse="true"
     flatten="false"
     hide_clip="false"
     message="Use fill-rule evenodd on &lt;b&gt;fill and stroke&lt;/b&gt; dialog if no flatten result after convert clip to paths." /><inkscape:path-effect
     effect="powerclip"
     id="path-effect2"
     is_visible="true"
     lpeversion="1"
     inverse="true"
     flatten="false"
     hide_clip="false"
     message="Use fill-rule evenodd on &lt;b&gt;fill and stroke&lt;/b&gt; dialog if no flatten result after convert clip to paths." /><linearGradient
     id="_Linear1"
     x1="0"
     y1="0"
     x2="1"
     y2="0"
     gradientUnits="userSpaceOnUse"
     gradientTransform="matrix(-464.131,0,0,-464.086,567.296,12.8094)"><stop
       offset="0"
       style="stop-color:#d7c000;stop-opacity:1"
       id="stop6" /><stop
       offset="0.34"
       style="stop-color:#cfb600;stop-opacity:1"
       id="stop7" /><stop
       offset="0.62"
       style="stop-color:#ffffbf;stop-opacity:1"
       id="stop8" /><stop
       offset="0.76"
       style="stop-color:#e0ca00;stop-opacity:1"
       id="stop9" /><stop
       offset="1"
       style="stop-color:#ffef7a;stop-opacity:1"
       id="stop10" /></linearGradient><clipPath
     clipPathUnits="userSpaceOnUse"
     id="clipPath1-3"><rect
       style="clip-rule:evenodd;display:none;fill:#ffffff;fill-rule:evenodd;stroke-width:0.9999;stroke-linejoin:round;stroke-miterlimit:2"
       id="rect2-7"
       width="583.7998"
       height="723.60669"
       x="18.62207"
       y="248.2632"
       d="m 18.62207,248.2632 h 583.7998 V 971.86989 H 18.62207 Z" /><path
       id="lpe_path-effect2-5"
       style="clip-rule:evenodd;display:inline;fill:#ffffff;fill-rule:evenodd;stroke-width:0.9999;stroke-linejoin:round;stroke-miterlimit:2"
       class="powerclip"
       d="M -5,-5 H 623.9 V 998.9 H -5 Z m 23.62207,253.2632 v 723.60669 h 583.7998 V 248.2632 Z" /></clipPath><inkscape:path-effect
     effect="powerclip"
     id="path-effect2-3"
     is_visible="true"
     lpeversion="1"
     inverse="true"
     flatten="false"
     hide_clip="false"
     message="Use fill-rule evenodd on &lt;b&gt;fill and stroke&lt;/b&gt; dialog if no flatten result after convert clip to paths." /><clipPath
     clipPathUnits="userSpaceOnUse"
     id="clipath_lpe_path-effect2-3"><rect
       style="clip-rule:evenodd;display:block;fill:#ffffff;fill-rule:evenodd;stroke-width:0.9999;stroke-linejoin:round;stroke-miterlimit:2"
       id="rect4"
       width="583.7998"
       height="723.60669"
       x="18.62207"
       y="248.2632" /></clipPath><clipPath
     clipPathUnits="userSpaceOnUse"
     id="clipath_lpe_path-effect5"><rect
       style="clip-rule:evenodd;display:block;fill:#ffffff;fill-rule:evenodd;stroke-width:0.9999;stroke-linejoin:round;stroke-miterlimit:2"
       id="rect5"
       width="583.7998"
       height="723.60669"
       x="18.62207"
       y="248.2632" /></clipPath><clipPath
     clipPathUnits="userSpaceOnUse"
     id="clipath_lpe_path-effect9"><rect
       style="clip-rule:evenodd;display:block;fill:#ffffff;fill-rule:evenodd;stroke-width:0.9999;stroke-linejoin:round;stroke-miterlimit:2"
       id="rect9"
       width="583.7998"
       height="723.60669"
       x="18.62207"
       y="248.2632" /></clipPath><clipPath
     clipPathUnits="userSpaceOnUse"
     id="clipPath13"><rect
       style="clip-rule:evenodd;display:none;fill:#ffffff;fill-rule:evenodd;stroke-width:1.00107;stroke-linejoin:round;stroke-miterlimit:2"
       id="rect14"
       width="582.10516"
       height="727.41962"
       x="18.62207"
       y="248.2632"
       inkscape:label="cutoutCube"
       d="M 18.62207,248.2632 H 600.72723 V 975.68282 H 18.62207 Z" /><path
       id="lpe_path-effect14"
       style="clip-rule:evenodd;display:block;fill:#ffffff;fill-rule:evenodd;stroke-width:1.00107;stroke-linejoin:round;stroke-miterlimit:2"
       class="powerclip"
       d="M -5,-5 H 623.9 V 998.9 H -5 Z M 18.62207,248.2632 V 975.68282 H 600.72723 V 248.2632 Z" /></clipPath></defs>
</svg>
