<?xml version="1.0" encoding="UTF-8" standalone="no"?>
<svg
   width="619"
   height="994"
   viewBox="0 0 198.04799 318.048"
   version="1.1"
   xml:space="preserve"
   style="clip-rule:evenodd;fill-rule:evenodd;stroke-linejoin:round;stroke-miterlimit:2"
   id="svg1"
   xmlns:xlink="http://www.w3.org/1999/xlink"
   xmlns="http://www.w3.org/2000/svg"
   xmlns:svg="http://www.w3.org/2000/svg"
   xmlns:serif="http://www.serif.com/"><defs
   id="defs1"><linearGradient
   id="linearGradient3"><stop
     style="stop-color:#808080;stop-opacity:1;"
     offset="0.15931372"
     id="stop3" /><stop
     style="stop-color:#e0e0e0;stop-opacity:1;"
     offset="0.40931374"
     id="stop4" /><stop
     style="stop-color:#808080;stop-opacity:1;"
     offset="0.79411769"
     id="stop5" /><stop
     style="stop-color:#e0e0e0;stop-opacity:1;"
     offset="0.93137258"
     id="stop6" /></linearGradient><linearGradient
   xlink:href="#linearGradient3"
   id="linearGradient4"
   x1="160.88445"
   y1="37.153378"
   x2="500.6163"
   y2="149.24933"
   gradientUnits="userSpaceOnUse"
   gradientTransform="scale(0.31999999)" />
    </defs>
<!-- <path
   id="Frame1-8"
   style="clip-rule:evenodd;fill:red;fill-opacity:1;fill-rule:evenodd;stroke-width:0.32;stroke-linejoin:round;stroke-miterlimit:2"
   d="m 170.91801,2.9653266 -1.09364,1.3104932 -9.04284,-0.030622 -4.18645,4.1195855 -5.31259,0.029997 L 151.1975,4.055217 109.39608,4.1783296 30.802109,4.064591 29.669098,5.3725844 19.703851,5.277594 18.057766,3.0259455 8.6493379,3.041569 c -3.1772706,0 -5.6781787,2.5239708 -5.6781787,5.7038011 V 309.27013 c 0,3.17984 2.5770419,5.77116 5.7580025,5.75993 l 15.7382453,-0.0556 0.316558,-141.29883 c -0.109623,-0.43472 -0.172483,-0.87387 -0.172483,-1.34361 V 93.941173 c 0,-3.049387 2.429531,-5.51382 5.478824,-5.51382 h 0.0012 138.074234 c 3.04949,0 5.47882,2.464523 5.47882,5.51382 v 78.390237 c 0,0.20208 0.0211,0.38985 0,0.58619 v 142.11383 h 15.47782 c 3.17727,0 5.75755,-2.58146 5.75755,-5.7613 V 16.045261 L 181.39508,3.0290702 Z M 11.790272,291.24445 c 2.152664,-0.005 5.281541,0.0239 6.486847,0.0194 0.748194,0.005 1.166117,0.32046 1.208629,1.02552 -0.0026,1.35469 0.0072,5.53272 0.0094,6.73182 -0.08585,0.37328 -0.06623,0.5648 -0.641186,0.7543 -1.554943,0.003 -7.069768,0.0304 -8.783491,0.015 -0.5795887,-0.004 -1.0401048,-0.43922 -1.0898904,-0.7693 -0.00586,-1.34309 -0.0025,-4.55851 -0.0025,-6.9243 h 6.249e-4 c 0.2242014,-0.496 0.5862788,-0.74213 1.0917652,-0.83304 0.39339,-0.0118 1.002273,-0.0175 1.719827,-0.0194 z m 169.525448,0.10936 c 2.15266,-0.005 5.28092,0.0232 6.48622,0.0188 0.7482,0.005 1.16674,0.3211 1.20925,1.02615 -0.003,1.35468 0.007,5.53272 0.009,6.73182 -0.0859,0.37328 -0.0662,0.56479 -0.64119,0.7543 -1.55495,0.003 -7.06977,0.0304 -8.78349,0.015 -0.57959,-0.004 -1.04011,-0.43926 -1.08989,-0.7693 -0.006,-1.34311 -0.003,-4.55852 -0.003,-6.9243 h 6.3e-4 c 0.2242,-0.496 0.58628,-0.74279 1.09176,-0.83367 0.39339,-0.0118 1.0029,-0.0169 1.72046,-0.0188 z" /> -->
<rect x="0" y="0" width="198.04799" height="318.048" fill="none" stroke-width="0" stroke="none" />   
<path
   id="rect3866"
   style="clip-rule:evenodd;display:inline;fill:url(#linearGradient4);fill-rule:evenodd;stroke-width:0.299268;stroke-linejoin:round;stroke-miterlimit:2"
   d="m 52.590082,70.858452 c -2.098077,0 -3.769876,-1.695379 -3.769876,-3.793513 V 13.127988 c 0,-0.323214 0.04312,-0.625532 0.118548,-0.924642 V 2.9805226 H 151.363 v 9.7444424 c 0.0145,0.135086 0,0.264008 0,0.403051 v 53.936952 c 0,2.098076 -1.67165,3.79351 -3.76987,3.79351 H 52.590706 Z m 57.067288,-5.073776 h 25.27402 c 0.10615,0 0.18967,-0.08352 0.18967,-0.18968 V 12.911979 c 0,-0.106148 -0.0835,-0.18967 -0.18967,-0.18967 h -25.27402 c -0.10615,0 -0.18967,0.08352 -0.18967,0.18967 v 52.683017 c 0,0.106157 0.0835,0.18968 0.18967,0.18968 z" /><path
   id="TapTo-Logo"
   serif:id="TapTo Logo"
   d="m 62.774436,10.376313 v 14.991489 h 11.056691 v 4.244262 H 62.774436 V 43.62949 H 58.854344 V 10.376313 Z m 0,0 V 6.4493105 h 9.820845 c 3.3132,0 5.998777,2.6907078 5.998777,6.0099215 V 38.663596 H 74.674414 V 13.490999 c 0,-1.720206 -1.392029,-3.114686 -3.109341,-3.114686 z M 61.477768,10.108288 H 60.9894 c 0,-0.8386019 0.68064,-1.5203583 1.517462,-1.5203583 v 0.4892598 c -0.567462,0 -1.029094,0.4625251 -1.029094,1.0310985 z m 1.029315,-2.1002959 c -1.156311,0 -2.096733,0.9422041 -2.096733,2.1002959 h -0.488371 c 0,-1.4281206 1.159657,-2.5897801 2.585104,-2.5897801 z m 0,-1.0696432 c -1.744717,0 -3.163923,1.4221072 -3.163923,3.1699391 h -0.488816 c 0,-2.017639 1.638662,-3.6589775 3.652739,-3.6589775 z m 0.267353,37.3749041 v 14.017424 h 8.790861 c 1.717088,0 3.109117,-1.394477 3.109117,-3.114464 v -10.90296 h 3.919644 v 12.252214 c 0,3.318992 -2.685577,6.009696 -5.998777,6.009696 h -9.820845 v 4.037731 H 58.854344 V 44.313253 Z m 0.843508,13.043811 V 44.313253 h 10.213183 v 4.244262 h -6.293315 v 4.554842 h 1.831159 c 0.29944,0 0.542067,-0.242851 0.542067,-0.542957 v -3.290026 h 3.920089 v 5.523111 c 0,1.410742 -1.141603,2.554579 -2.550118,2.554579 z m 0,-13.727574 V 30.585683 h 7.663065 c 1.408515,0 2.550118,1.144057 2.550118,2.554802 v 5.523111 h -3.920089 v -3.290032 c 0,-0.300106 -0.242627,-0.543395 -0.542067,-0.543395 h -1.831159 v 4.554838 h 11.056246 v 4.244483 z m 0,-32.279339 h 7.663065 c 1.408515,0 2.550118,1.143615 2.550118,2.554358 v 7.93443 c 0,1.410965 -1.141603,2.5548 -2.550118,2.5548 h -7.663065 z m 3.919868,4.244486 v 4.554841 h 1.831159 c 0.29944,0 0.542067,-0.243294 0.542067,-0.5434 v -3.468487 c 0,-0.300106 -0.242627,-0.542954 -0.542067,-0.542954 z"
   style="clip-rule:evenodd;fill:#ffffff;fill-rule:evenodd;stroke-width:0.222796;stroke-linejoin:round;stroke-miterlimit:2" /><path
   id="NFC-Loading-System"
   serif:id="NFC Loading System"
   d="m 99.496029,62.430286 v 0.55088 h -0.37721 v 3.255587 h 0.37721 v 0.55112 h -4.73647 v -4.357587 z m -0.941702,0.55088 h -3.230506 v 3.255587 h 3.230506 z M 97.216781,55.91003 v 5.087398 H 96.649178 V 55.91003 Z m -1.779254,-6.290681 0.183948,0.422832 c -0.347584,0.07334 -0.628758,0.170806 -0.843523,0.291923 l -0.187286,-0.443856 c 0.229094,-0.113232 0.511462,-0.203536 0.846861,-0.270899 z m -0.174864,1.697789 v 3.049904 h -0.5676 v -3.049904 z m 0.426416,-1.018868 0.180838,0.419972 c -0.345674,0.07549 -0.625648,0.172713 -0.84041,0.29216 l -0.187292,-0.444096 c 0.2291,-0.113232 0.511462,-0.20234 0.846864,-0.268036 z m 1.11968,-0.434774 v 2.165293 c 0.04897,-0.0041 0.132819,-0.006 0.251548,-0.006 1.249632,0 2.139258,0.533203 2.668874,1.599606 l -0.503101,0.431911 c -0.175821,-0.484468 -0.442659,-0.851396 -0.800521,-1.10056 -0.358096,-0.249405 -0.788573,-0.373866 -1.291677,-0.373866 -0.147152,0 -0.25561,0.0041 -0.325123,0.01197 v 2.365008 h -0.567607 v -5.09337 z m -1.540122,-5.188691 c 0.560432,0.454614 0.952211,0.813898 1.175091,1.078349 h 2.487805 v 0.506211 h -2.073805 c 0.374343,0.486614 0.659575,0.954125 0.855946,1.402995 l -0.460106,0.312711 c -0.216915,-0.534397 -0.546582,-1.075962 -0.989481,-1.624928 -0.442663,-0.549207 -0.890103,-0.971328 -1.34208,-1.267312 z m 0.25776,-4.190838 0.490915,0.327513 c -0.427609,0.492356 -0.725027,1.072135 -0.892729,1.739357 l -0.515524,-0.336598 c 0.261821,-0.702813 0.5676,-1.279728 0.917338,-1.730272 z m 0.641181,-2.746519 c 1.065446,0.701143 1.833481,1.396071 2.303849,2.085268 0.470378,0.688963 0.831341,1.468214 1.08289,2.338015 l -0.567366,0.348541 C 98.74544,41.421128 98.360106,40.548226 97.83025,39.891042 97.300631,39.233615 96.610237,38.661951 95.759552,38.17557 Z m -1.30697,-6.2699 0.181082,0.420205 c -0.347587,0.07549 -0.627802,0.172483 -0.840659,0.291686 l -0.190157,-0.443855 c 0.229101,-0.112996 0.512425,-0.202344 0.849734,-0.268036 z m 0.251555,0.676297 0.125892,0.250116 0.236265,-0.232436 c 1.014323,0.164832 1.859517,0.516237 2.535331,1.054698 0.676064,0.537974 1.227658,1.30553 1.655274,2.302416 l -0.527709,0.419731 c -0.317005,-0.907302 -0.743904,-1.618957 -1.280928,-2.134003 -0.53679,-0.51552 -1.221446,-0.859283 -2.053731,-1.032243 v 2.269693 c 0.5664,0.387238 0.974429,0.769702 1.224067,1.146908 l -0.402051,0.443619 c -0.558285,-0.817958 -1.355936,-1.417568 -2.39272,-1.798838 l 0.263734,-0.524368 c 0.274007,0.115149 0.521501,0.239373 0.742468,0.372192 v -2.105574 c -0.325127,0.07717 -0.586951,0.171526 -0.785469,0.282845 l -0.190157,-0.44672 c 0.229094,-0.113236 0.512419,-0.20258 0.849734,-0.268036 z m -0.125657,-4.271351 0.570467,0.196368 c -0.314858,0.532484 -0.509072,1.150968 -0.58265,1.855936 l -0.585996,-0.196844 c 0.167699,-0.782124 0.366928,-1.400612 0.598179,-1.85546 z m 1.224067,-2.382927 c 0.918294,0.562109 1.642845,1.194453 2.173421,1.897266 0.530813,0.703049 0.933107,1.551109 1.207113,2.543937 l -0.579785,0.27998 c -0.247491,-1.034636 -0.630435,-1.896788 -1.148823,-2.586941 -0.518393,-0.690152 -1.198985,-1.243658 -2.041552,-1.660521 z m 0.358816,2.963667 0.595312,0.214524 c -0.337552,0.468463 -0.549206,1.078115 -0.635206,1.828705 l -0.570471,-0.196369 c 0.145245,-0.752744 0.348541,-1.368127 0.610365,-1.84686 z m 2.638297,-9.358744 0.35905,0.476585 c -0.826317,0.587669 -1.488041,1.274715 -1.984934,2.06114 0.822262,0.637358 1.518621,1.419006 2.089091,2.344225 l -0.450784,0.425938 c -0.41519,-0.768503 -0.958186,-1.44504 -1.628992,-2.029841 -0.67104,-0.584806 -1.428557,-1.041084 -2.273274,-1.368838 v 3.056116 h -0.539891 l -0.0062,-3.574507 0.174871,-0.163643 c 0.803625,0.222406 1.530803,0.552078 2.181062,0.989006 0.556374,-0.84782 1.249632,-1.586706 2.080013,-2.216181 z m -3.945023,-5.221413 v 3.892947 h -0.5676 v -3.892947 z m 1.546096,-0.610842 v 2.165537 c 0.04897,-0.0038 0.132819,-0.006 0.251548,-0.006 1.249632,0 2.139258,0.533202 2.668874,1.599607 l -0.503101,0.431912 c -0.175821,-0.484469 -0.442659,-0.851403 -0.800521,-1.100565 -0.358096,-0.249162 -0.788573,-0.373863 -1.291677,-0.373863 -0.147152,0 -0.25561,0.0038 -0.325123,0.01195 v 2.365009 h -0.567607 v -5.093611 z m 2.466534,-6.2132826 0.233155,0.5422797 c -0.261824,0.073339 -0.544192,0.1825113 -0.846864,0.3275177 0.212851,2.0491961 0.390829,3.4323682 0.533917,4.1492762 L 98.584903,12.213987 98.505111,11.514041 94.36993,9.9263795 94.572272,9.4199328 98.422458,10.903438 98.12169,8.2376676 C 97.467376,8.57713 96.991744,8.8917476 96.695287,9.1817597 L 96.443728,8.6158301 c 0.703533,-0.544191 1.647386,-1.0664038 2.831565,-1.5668777 z M 92.739508,66.67058 c 0,0.129956 -0.105591,0.235546 -0.235786,0.235546 -0.129952,0 -0.235546,-0.10559 -0.235546,-0.235546 V 7.0718855 c 0,-0.1297168 0.105594,-0.2353062 0.235546,-0.2353062 0.130195,0 0.235786,0.1055894 0.235786,0.2353062 z m -8.937344,0 v -1.299564 l 3.948611,-1.007869 v -0.01891 h -3.948611 v -0.922832 h 6.59694 v 1.064256 l -4.815775,1.243181 v 0.01885 h 4.815775 v 0.922835 z m 0,-4.021468 v -2.740781 h 0.942419 v 1.704713 h 1.837779 v -1.337542 h 0.942419 v 1.337542 h 2.874323 v 1.036068 z m 6.691062,-4.69992 c 0,0.496176 -0.141181,0.874576 -0.424029,1.134966 -0.282608,0.260627 -0.681549,0.391059 -1.196835,0.391059 h -3.543453 c -0.515289,0 -0.91423,-0.130432 -1.196838,-0.391059 -0.282845,-0.26039 -0.424269,-0.63879 -0.424269,-1.134966 0,-0.495936 0.141424,-0.874096 0.424269,-1.134723 0.282608,-0.260631 0.681549,-0.390826 1.196838,-0.390826 h 0.697322 v 0.979453 h -0.763254 c -0.408503,0 -0.612752,0.172713 -0.612752,0.51815 0,0.344954 0.204249,0.517911 0.612752,0.517911 h 3.684873 c 0.402051,0 0.602957,-0.172957 0.602957,-0.517911 0,-0.345437 -0.200906,-0.51815 -0.602957,-0.51815 h -1.008592 v -0.979453 h 0.933104 c 0.515286,0 0.914227,0.130195 1.196835,0.390826 0.282848,0.260627 0.424029,0.638787 0.424029,1.134723 z M 83.802164,54.295138 V 53.25907 h 5.654521 v -1.704713 h 0.942419 v 2.740781 z m 6.691062,-4.69968 c 0,0.508355 -0.144525,0.897747 -0.433344,1.167696 -0.289056,0.269942 -0.697562,0.404915 -1.225264,0.404915 h -3.467965 c -0.527948,0 -0.936208,-0.134973 -1.225264,-0.404915 -0.289059,-0.269949 -0.433587,-0.659341 -0.433587,-1.167696 0,-0.508836 0.144528,-0.897988 0.433587,-1.168173 0.289056,-0.269943 0.697316,-0.404675 1.225264,-0.404675 h 3.467965 c 0.527702,0 0.936208,0.134732 1.225264,0.404675 0.288819,0.270185 0.433344,0.659337 0.433344,1.168173 z m -0.942419,0 c 0,-0.358096 -0.216672,-0.537024 -0.650253,-0.537024 h -3.60007 c -0.433347,0 -0.650259,0.178928 -0.650259,0.537024 0,0.357859 0.216912,0.536787 0.650259,0.536787 h 3.60007 c 0.433581,0 0.650253,-0.178928 0.650253,-0.536787 z m -5.748643,-3.051575 v -1.403481 l 6.59694,-1.073568 v 1.036061 l -1.310067,0.188249 h 0.01885 v 1.177248 l 1.291197,0.188483 v 0.960573 z m 4.410624,-1.130188 -3.260845,0.461296 v 0.01888 l 3.260845,0.45222 z m -4.410624,-1.846144 v -1.582164 c 0,-0.514809 0.13832,-0.900854 0.414713,-1.158377 0.276394,-0.257523 0.681552,-0.386045 1.215709,-0.386045 h 3.336099 c 0.534157,0 0.939312,0.128522 1.215709,0.386045 0.276394,0.257523 0.41471,0.643568 0.41471,1.158377 v 1.582164 z m 5.654521,-1.563293 c 0,-0.16961 -0.05017,-0.299805 -0.150742,-0.390823 -0.10057,-0.09126 -0.263971,-0.136406 -0.490199,-0.136406 h -3.43022 c -0.226227,0 -0.389626,0.04515 -0.490202,0.136406 -0.100569,0.09102 -0.150739,0.221213 -0.150739,0.390823 v 0.527229 h 4.712102 z M 83.802164,39.74388 v -1.03606 h 6.59694 v 1.03606 z m 0,-1.80839 v -1.299802 l 3.948611,-1.007635 v -0.01891 h -3.948611 v -0.923068 h 6.59694 v 1.064489 l -4.815775,1.243181 v 0.01862 h 4.815775 v 0.923069 z m 6.691062,-5.49088 c 0,0.502621 -0.142854,0.885322 -0.428803,1.149296 -0.285712,0.263498 -0.695648,0.395363 -1.229805,0.395363 h -3.467965 c -0.534156,0 -0.944089,-0.131865 -1.230041,-0.395363 -0.285712,-0.263974 -0.42881,-0.646675 -0.42881,-1.149296 0,-0.50215 0.143098,-0.88509 0.42881,-1.148822 0.285952,-0.263973 0.695885,-0.395605 1.230041,-0.395605 h 0.565456 v 0.979448 h -0.631625 c -0.433347,0 -0.650259,0.178928 -0.650259,0.53679 0,0.357856 0.216912,0.537021 0.650259,0.537021 h 3.609625 c 0.427133,0 0.640698,-0.179165 0.640698,-0.537021 0,-0.357862 -0.213565,-0.53679 -0.640698,-0.53679 h -1.291203 v 0.517914 H 86.67649 v -1.497362 h 2.158128 c 0.534157,0 0.944093,0.131632 1.229805,0.395605 0.285949,0.263732 0.428803,0.646672 0.428803,1.148822 z m 0,-5.067097 c 0,0.502625 -0.142854,0.882461 -0.428803,1.139745 -0.285712,0.257524 -0.695648,0.386284 -1.229805,0.386284 h -0.376966 v -0.979445 h 0.452457 c 0.427133,0 0.640698,-0.179168 0.640698,-0.537028 0,-0.17582 -0.05184,-0.30936 -0.155517,-0.40014 -0.103437,-0.09102 -0.271616,-0.136644 -0.504058,-0.136644 -0.276396,0 -0.519827,0.06283 -0.730288,0.188487 -0.2107,0.125413 -0.463443,0.357617 -0.75871,0.696837 -0.376966,0.426897 -0.717862,0.725033 -1.022688,0.894881 -0.304585,0.169376 -0.648585,0.254177 -1.031769,0.254177 -0.521492,0 -0.925213,-0.131864 -1.211165,-0.395597 -0.285712,-0.263736 -0.42881,-0.64668 -0.42881,-1.148825 0,-0.496169 0.143098,-0.871465 0.42881,-1.125645 0.285952,-0.25418 0.695885,-0.381509 1.230041,-0.381509 h 0.273293 v 0.979446 h -0.339462 c -0.225994,0 -0.391066,0.04396 -0.494743,0.131871 -0.103676,0.08815 -0.155516,0.216673 -0.155516,0.386281 0,0.345437 0.210464,0.517917 0.631625,0.517917 0.238647,0 0.461773,-0.0645 0.669127,-0.193024 0.207116,-0.128764 0.458431,-0.362633 0.753939,-0.701618 0.376966,-0.433344 0.719296,-0.73148 1.027225,-0.894644 0.30769,-0.1634 0.66913,-0.245101 1.083603,-0.245101 0.540368,0 0.955082,0.133541 1.244138,0.400381 0.288819,0.26684 0.433344,0.654557 0.433344,1.162913 z m -2.902506,-3.051339 -3.788556,1.252741 v -1.102001 l 2.422102,-0.706396 v -0.01863 l -2.422102,-0.706396 v -1.007876 l 3.788556,1.252498 h 2.808384 v 1.036069 z m 2.902506,-3.955536 c 0,0.502149 -0.142854,0.881984 -0.428803,1.139507 -0.285712,0.257522 -0.695648,0.386045 -1.229805,0.386045 h -0.376966 v -0.97945 h 0.452457 c 0.427133,0 0.640698,-0.178929 0.640698,-0.536784 0,-0.175822 -0.05184,-0.309123 -0.155517,-0.400379 -0.103437,-0.09102 -0.271616,-0.136645 -0.504058,-0.136645 -0.276396,0 -0.519827,0.06283 -0.730288,0.188483 -0.2107,0.125416 -0.463443,0.358097 -0.75871,0.697082 -0.376966,0.426896 -0.717862,0.725269 -1.022688,0.894643 -0.304585,0.169369 -0.648585,0.254177 -1.031769,0.254177 -0.521492,0 -0.925213,-0.131626 -1.211165,-0.395602 -0.285712,-0.263495 -0.42881,-0.646675 -0.42881,-1.14882 0,-0.496175 0.143098,-0.871231 0.42881,-1.125649 0.285952,-0.254178 0.695885,-0.381268 1.230041,-0.381268 h 0.273293 v 0.979687 h -0.339462 c -0.225994,0 -0.391066,0.04372 -0.494743,0.131629 -0.103676,0.08791 -0.155516,0.216434 -0.155516,0.386046 0,0.345433 0.210464,0.517914 0.631625,0.517914 0.238647,0 0.461773,-0.06403 0.669127,-0.192787 0.207116,-0.128999 0.458431,-0.362632 0.753939,-0.701856 0.376966,-0.433347 0.719296,-0.731482 1.027225,-0.894643 0.30769,-0.163401 0.66913,-0.244862 1.083603,-0.244862 0.540368,0 0.955082,0.1333 1.244138,0.40014 0.288819,0.267079 0.433344,0.654558 0.433344,1.163392 z m -5.748643,-2.96677 v 1.083125 h -0.942419 v -3.202317 h 0.942419 v 1.083126 h 5.654521 v 1.036066 z m -0.942419,-2.618233 v -2.825587 h 0.942419 v 1.789523 h 1.743421 v -1.42235 h 0.942416 v 1.42235 h 2.026265 v -1.789523 h 0.942419 v 2.825587 z m 0,-3.41899 V 9.8881571 L 88.523581,9.2288212 V 9.2099476 L 83.802164,8.5506119 V 7.0718843 h 6.59694 v 0.9794482 h -4.994947 v 0.018874 l 4.994947,0.7534586 v 0.8664531 l -4.994947,0.7534578 v 0.01887 h 4.994947 v 0.904197 z"
   style="clip-rule:evenodd;fill-rule:evenodd;stroke-width:0.23889;stroke-linejoin:round;stroke-miterlimit:2" /><path
   id="path1"
   d="m 138.79751,65.809752 v -1.057479 l 5.36903,-0.488976 v -0.0199 l -5.36903,-0.518585 v -1.19664 l 5.36903,-0.518586 v -0.02032 l -5.36903,-0.488554 v -0.947075 l 6.98569,0.708083 v 1.366266 l -4.71042,0.498282 v 0.02032 l 4.71042,0.4987 v 1.455936 z m 0,-5.814855 v -1.096816 h 6.98569 v 1.096816 z m 6.00774,-1.695347 -5.0099,-2.034585 v 1.934758 h -0.99784 v -3.111942 h 0.97795 l 5.00949,2.035008 v -2.035008 h 0.99825 v 3.211769 z m 0,-3.660141 -5.0099,-2.035007 v 1.93518 h -0.99784 v -3.11152 h 0.97795 l 5.00949,2.034164 v -2.034164 h 0.99825 v 3.211347 z m 1.07778,-5.415974 c 0,0.538471 -0.15312,0.951306 -0.45937,1.236829 -0.30582,0.286362 -0.73854,0.428909 -1.29731,0.428909 h -3.67241 c -0.55877,0 -0.99149,-0.142547 -1.29731,-0.428909 -0.30624,-0.285523 -0.45894,-0.698358 -0.45894,-1.236829 0,-0.538467 0.1527,-0.950461 0.45894,-1.236825 0.30582,-0.285517 0.73854,-0.42849 1.29731,-0.42849 h 3.67241 c 0.55877,0 0.99149,0.142973 1.29731,0.42849 0.30625,0.286364 0.45937,0.698358 0.45937,1.236825 z m -0.99826,0 c 0,-0.378576 -0.22926,-0.568502 -0.68863,-0.568502 h -3.81199 c -0.45894,0 -0.68863,0.189926 -0.68863,0.568502 0,0.379424 0.22969,0.568503 0.68863,0.568503 h 3.81199 c 0.45937,0 0.68863,-0.189079 0.68863,-0.568503 z m -0.15947,-2.343792 v -1.057049 h 1.0579 v 1.057049 z m -5.92779,-1.874697 v -1.675885 c 0,-0.544816 0.14636,-0.953846 0.43906,-1.226253 0.29272,-0.272829 0.72163,-0.40903 1.28717,-0.40903 h 3.53282 c 0.56554,0 0.99487,0.136201 1.28758,0.40903 0.29271,0.272407 0.43906,0.681437 0.43906,1.226253 v 1.675885 z m 5.98744,-1.655584 c 0,-0.179344 -0.0529,-0.317667 -0.15947,-0.414109 -0.10659,-0.09644 -0.2796,-0.144662 -0.51901,-0.144662 h -3.63265 c -0.23941,0 -0.41241,0.04822 -0.51901,0.144662 -0.10617,0.09644 -0.15946,0.234765 -0.15946,0.414109 v 0.558349 h 4.9896 z m -5.98744,-2.39328 v -2.992237 h 0.99784 v 1.894576 h 1.84635 v -1.505849 h 0.99784 v 1.505849 h 2.14541 v -1.894576 h 0.99825 v 2.992237 z m 0,-3.331475 v -1.10697 l 5.41894,-0.71824 v -0.0199 l -5.41894,-0.717814 v -1.007562 l 6.98569,1.057476 v 1.455935 z m 0,-6.283107 v -0.947497 l 6.98569,2.752399 V 34.0939 Z m 0.99784,-2.403856 v 1.147152 h -0.99784 v -3.391118 h 0.99784 v 1.147151 h 5.98785 v 1.096815 z m -0.99784,-3.161433 v -1.485967 l 6.98569,-1.136999 v 1.096815 l -1.38741,0.199652 h 0.0199 v 1.246977 l 1.36753,0.199228 v 1.017293 z m 4.67024,-1.196641 -3.45287,0.488554 v 0.01988 l 3.45287,0.478825 z m -4.67024,-1.955064 v -1.615401 c 0,-0.545236 0.14636,-0.954268 0.43906,-1.226674 0.29272,-0.272829 0.72163,-0.409032 1.28717,-0.409032 h 0.68863 c 0.56553,0 0.99487,0.136203 1.28758,0.409032 0.29271,0.272406 0.43906,0.681438 0.43906,1.226674 v 0.518586 h 2.84419 v 1.096815 z m 3.14325,-1.615401 c 0,-0.179772 -0.0499,-0.314283 -0.14974,-0.403957 -0.0994,-0.08967 -0.26945,-0.134511 -0.50886,-0.134511 h -0.82822 c -0.23941,0 -0.40903,0.04484 -0.50885,0.134511 -0.0998,0.08967 -0.14974,0.224185 -0.14974,0.403957 v 0.518586 h 2.14541 z m -2.14541,-3.111944 v 1.147151 h -0.99784 v -3.391117 h 0.99784 v 1.147151 h 5.98785 v 1.096815 z m 6.08768,-4.318313 c 0,0.538467 -0.15312,0.950883 -0.45937,1.236402 -0.30582,0.285942 -0.73854,0.429336 -1.29731,0.429336 h -3.67241 c -0.55877,0 -0.99149,-0.143394 -1.29731,-0.429336 -0.30624,-0.285519 -0.45894,-0.697935 -0.45894,-1.236402 0,-0.538467 0.1527,-0.950883 0.45894,-1.236825 0.30582,-0.285942 0.73854,-0.428913 1.29731,-0.428913 h 3.67241 c 0.55877,0 0.99149,0.142971 1.29731,0.428913 0.30625,0.285942 0.45937,0.698358 0.45937,1.236825 z m -0.99826,0 c 0,-0.379 -0.22926,-0.5685 -0.68863,-0.5685 h -3.81199 c -0.45894,0 -0.68863,0.1895 -0.68863,0.5685 0,0.379 0.22969,0.5685 0.68863,0.5685 h 3.81199 c 0.45937,0 0.68863,-0.1895 0.68863,-0.5685 z"
   style="clip-rule:evenodd;fill:#ffffff;fill-rule:evenodd;stroke-width:0.422989;stroke-linejoin:round;stroke-miterlimit:2" /><g
   id="g15"
   transform="translate(-355.78888,-126.73356)"
   style="clip-rule:evenodd;fill:#1e3c68;fill-opacity:1;fill-rule:evenodd;stroke:none;stroke-linejoin:round;stroke-miterlimit:2"><path
     style="color:#000000;clip-rule:evenodd;fill:#1e3c68;fill-opacity:1;fill-rule:evenodd;stroke:none;stroke-linejoin:round;stroke-miterlimit:2;-inkscape-stroke:none"
     d="m 528,144.00586 v 18.25586 h 1.05469 v -18.25586 z"
     id="path14"
     transform="translate(-1.0571831e-5)" /><path
     style="color:#000000;clip-rule:nonzero;fill:#1e3c68;fill-opacity:1;fill-rule:nonzero;stroke:none;stroke-linejoin:miter;stroke-miterlimit:2;-inkscape-stroke:none"
     d="m 518.58398,143.95508 v 18.10547 h 1.04883 v -18.10547 z"
     id="path12"
     transform="translate(-1.0571831e-5)" /><path
     style="color:#000000;clip-rule:nonzero;fill:#1e3c68;fill-opacity:1;fill-rule:nonzero;stroke:none;stroke-linejoin:miter;-inkscape-stroke:none"
     d="m 521.39844,153.64844 a 0.52527965,0.52527965 0 0 0 -0.52539,0.52539 v 7.95703 h 1.05078 v -7.43164 h 3.49219 l 0.0156,7.46094 1.04883,-0.002 -0.0137,-7.98437 a 0.52527965,0.52527965 0 0 0 -0.52539,-0.52539 z"
     id="path7" /><path
     style="color:#000000;fill:#1e3c68;fill-opacity:1;stroke:none;-inkscape-stroke:none"
     d="m 520.93945,143.80664 v 7.50586 a 0.52527965,0.52527965 0 0 0 0.52539,0.52539 h 4.54297 a 0.52527965,0.52527965 0 0 0 0.52539,-0.52539 l 0.0156,-7.30664 -1.05078,-0.002 -0.0137,6.7832 h -3.49414 v -6.98047 z"
     id="path7-2" /><path
     style="color:#000000;clip-rule:nonzero;fill:#1e3c68;fill-opacity:1;fill-rule:nonzero;stroke:none;stroke-linejoin:miter;-inkscape-stroke:none"
     d="m 530.89648,143.67187 0.0352,1.05079 c 0.23677,-0.008 0.42743,-0.0166 0.98828,0.0293 0.56089,0.046 1.3818,0.1385 2.31445,0.64258 0.93264,0.50408 2.02211,1.46876 2.70704,2.50195 0.68492,1.03318 1.02032,2.19266 1.20117,3.19336 0.18084,1.00071 0.20357,1.79241 0.11914,2.70899 -0.0844,0.9166 -0.28157,1.92043 -0.6582,2.74219 -0.37665,0.82176 -0.95772,1.52663 -1.59375,2.13867 -0.63603,0.61203 -1.2923,1.10306 -2.09961,1.51758 -0.80733,0.41451 -1.79905,0.76218 -2.34375,0.93164 -0.27236,0.0847 -0.42753,0.12264 -0.51172,0.13867 -0.0842,0.016 -0.0833,0.0134 -0.14453,0.0137 l 0.006,1.05078 c 0.0613,-2.9e-4 0.18504,-0.003 0.33398,-0.0312 0.14894,-0.0283 0.3363,-0.0789 0.62891,-0.16992 0.58521,-0.18206 1.60852,-0.53626 2.51171,-1 0.90319,-0.46374 1.65287,-1.02674 2.34766,-1.69531 0.69479,-0.66858 1.36832,-1.47086 1.82031,-2.45703 0.45199,-0.98617 0.65864,-2.09223 0.75,-3.08399 0.0914,-0.99176 0.063,-1.9068 -0.13281,-2.99023 -0.19579,-1.08344 -0.5628,-2.3863 -1.35937,-3.58789 -0.79658,-1.20161 -1.96615,-2.24259 -3.08204,-2.84571 -1.11588,-0.60311 -2.1345,-0.71697 -2.72851,-0.76562 -0.59406,-0.0487 -0.87349,-0.0412 -1.10938,-0.0332 z"
     id="path9" /><path
     style="color:#000000;clip-rule:nonzero;fill:#1e3c68;fill-opacity:1;fill-rule:nonzero;stroke:none;stroke-linejoin:miter;-inkscape-stroke:none"
     d="m 530.82422,146.51758 0.0273,1.04883 c 0.18512,-0.005 0.3156,-0.0103 0.70703,0.0371 0.39151,0.0474 0.95479,0.14937 1.41797,0.43554 0.46317,0.28617 0.93011,0.82618 1.35938,1.50586 0.42928,0.67968 0.80416,1.45941 1,2.27735 0.19583,0.81793 0.21829,1.69618 0.0371,2.5 -0.18116,0.80383 -0.57298,1.56089 -1.06641,2.13281 -0.49343,0.57193 -1.11758,0.99051 -1.66016,1.28125 -0.54258,0.29074 -0.98717,0.44542 -1.26757,0.51953 -0.28038,0.0741 -0.3529,0.0691 -0.51563,0.0703 l 0.008,1.05078 c 0.1623,-10e-4 0.4146,-0.01 0.77735,-0.10547 0.36272,-0.0959 0.87814,-0.27929 1.49414,-0.60937 0.61599,-0.33008 1.34758,-0.81282 1.95898,-1.52149 0.61141,-0.70866 1.0743,-1.60892 1.29492,-2.58789 0.22066,-0.97897 0.19195,-2.00974 -0.0391,-2.97461 -0.23102,-0.96486 -0.65811,-1.84215 -1.13281,-2.59375 -0.47469,-0.75159 -1.01222,-1.41779 -1.69531,-1.83984 -0.6831,-0.42203 -1.4086,-0.53102 -1.84571,-0.58398 -0.43718,-0.053 -0.67539,-0.048 -0.85937,-0.043 z"
     id="path10" /></g>
     <path
   style="clip-rule:evenodd;fill:#1e3c68;fill-opacity:1;fill-rule:evenodd;stroke:none;stroke-width:0.186541;stroke-linejoin:round;stroke-miterlimit:2;stroke-dasharray:none"
   d="m 9.1298429,36.58478 h 6.0770241 v -5.684954 h 2.548416 l -5.68496,-13.330239 -5.488928,13.544982 2.5080639,-0.0591 z"
   id="path3-9" />
</svg>
