<?xml version="1.0" encoding="UTF-8" standalone="no"?>
<svg
   xml:space="preserve"
   fill-rule="evenodd"
   stroke-linejoin="round"
   stroke-miterlimit="2"
   clip-rule="evenodd"
   version="1.1"
   id="svg9"
   sodipodi:docname="tapto_0t4ku.svg"
   inkscape:version="1.4-beta (62f545ba, 2024-04-22)"
   width="640"
   height="1006"
   xmlns:inkscape="http://www.inkscape.org/namespaces/inkscape"
   xmlns:sodipodi="http://sodipodi.sourceforge.net/DTD/sodipodi-0.dtd"
   xmlns="http://www.w3.org/2000/svg"
   xmlns:svg="http://www.w3.org/2000/svg"><sodipodi:namedview
   id="namedview1"
   pagecolor="#ffffff"
   bordercolor="#000000"
   borderopacity="0.25"
   inkscape:showpageshadow="2"
   inkscape:pageopacity="0.0"
   inkscape:pagecheckerboard="0"
   inkscape:deskcolor="#d1d1d1"
   inkscape:zoom="0.53830738"
   inkscape:cx="379.89448"
   inkscape:cy="619.53452"
   inkscape:window-width="1504"
   inkscape:window-height="854"
   inkscape:window-x="0"
   inkscape:window-y="38"
   inkscape:window-maximized="0"
   inkscape:current-layer="svg9"
   inkscape:antialias-rendering="true" />
  <rect
   id="enforceSpace"
   x="0"
   y="0"
   width="640"
   height="1006"
   fill="none"
   stroke="none"
   stroke-width="0" />
  <path
   id="path1"
   d="m 640.26465,936.26728 v 69.91982 H 479.32529 v -51.6399 c 0,-11.37347 7.34999,-18.27992 18.21656,-18.27992 z"
   style="stroke-width:1" />
  <path
   id="path2"
   d="m 620.34669,957.65194 h -34.84907 v 26.99219 h -9.88447 v -26.99219 h -32.6314 v -9.56766 h 77.36494 z m 0,0 h 9.1558 v 23.9825 a 14.319801,14.319801 0 0 1 -14.00299,14.63661 h -60.9542 v -9.56766 h 58.57813 a 7.4133481,7.4133481 0 0 0 7.22326,-7.60343 z m 0.63362,-3.1681 v -1.1722 c 1.96422,0 3.54827,1.64742 3.54827,3.70668 h -1.14052 c 0,-1.39396 -1.07715,-2.53448 -2.40775,-2.53448 z m 4.87887,2.53448 c 0,-2.85129 -2.18599,-5.13232 -4.87887,-5.13232 v -1.1722 c 3.3265,0 6.01938,2.81961 6.01938,6.30452 z m 2.5028,0 a 7.571753,7.571753 0 0 0 -7.38167,-7.73016 v -1.20388 a 8.7439491,8.7439491 0 0 1 8.52218,8.93404 z m -86.96428,0.63362 h -32.6314 v 21.44802 c 0,4.21357 3.26314,7.60343 7.28662,7.60343 h 25.34478 v 9.56766 h -28.51288 a 14.319801,14.319801 0 0 1 -13.97131,-14.63661 v -23.9825 h -9.40925 v -9.56766 h 51.89344 z m -30.35037,2.05926 h 30.35037 v 24.93293 h -9.88446 v -15.36527 h -10.58145 v 4.46701 c 0,0.72867 0.53858,1.3306 1.26724,1.3306 h 7.63511 v 9.56766 h -12.86247 a 6.0827472,6.0827472 0 0 1 -5.92434,-6.24115 z m 31.93442,0 h 30.35037 v 18.69178 c 0,3.45322 -2.6612,6.24115 -5.95602,6.24115 h -12.8308 v -9.56766 h 7.63512 a 1.267239,1.267239 0 0 0 1.26724,-1.3306 v -4.43533 h -10.58145 v 26.92883 h -9.88446 z m 75.08391,0 v 18.69178 c 0,3.45322 -2.62952,6.24115 -5.92434,6.24115 h -18.47001 a 6.0827472,6.0827472 0 0 1 -5.92434,-6.24115 V 959.7112 Z m -9.85278,9.56766 h -10.58145 v 4.46701 c 0,0.72867 0.53858,1.3306 1.26724,1.3306 h 8.04697 a 1.267239,1.267239 0 0 0 1.26724,-1.3306 z"
   style="fill:#ffffff;fill-opacity:1;stroke:none;stroke-width:0.999991;stroke-dasharray:none" />
  <path
   id="path3"
   d="M 33.279923,16.090905 A 18.311604,18.311604 0 0 0 15,34.370825 V 109.54978 A 18.311604,18.311604 0 0 0 33.279923,127.8297 H 605.12152 a 18.311604,18.311604 0 0 0 18.3116,-18.27992 V 34.370825 a 18.311604,18.311604 0 0 0 -18.3116,-18.27992 z"
   style="fill:#000000;fill-opacity:1;stroke:none;stroke-width:1" />
  <path
   id="path4"
   fill="#ffffff"
   d="m 421.657,113.66831 h -1.80582 v -1.26724 h -10.77153 v 1.26724 h -1.80582 V 98.017904 H 421.657 Z m -1.80582,-3.13642 V 99.887082 h -10.77153 v 10.644808 z m 23.34888,-4.40366 h -16.79092 v -1.90085 h 16.79092 z m 20.78272,-5.86098 -1.39397,0.60194 a 9.8844642,9.8844642 0 0 0 -0.95042,-2.787924 l 1.45732,-0.633619 c 0.38017,0.760343 0.6653,1.710772 0.88707,2.819603 z m -5.60753,-0.601935 H 448.3007 v -1.869178 h 10.07455 z m 3.38986,1.425645 -1.39396,0.60194 a 10.296317,10.296317 0 0 0 -0.95043,-2.787929 l 1.45732,-0.633619 c 0.34849,0.760343 0.63362,1.710773 0.88707,2.819608 z m 1.42564,3.70667 h -7.1599 v 0.82371 c 0,4.11853 -1.74245,7.06486 -5.25904,8.80731 l -1.42564,-1.64741 c 1.58405,-0.60194 2.8196,-1.48901 3.64331,-2.6612 0.8237,-1.1722 1.23556,-2.59784 1.23556,-4.27693 0,-0.47522 0,-0.82371 -0.0634,-1.04548 h -7.79352 v -1.90086 h 16.79091 z m 17.13941,-5.068953 c -1.48901,1.805813 -2.69288,3.104733 -3.54827,3.865083 v 8.20537 h -1.67909 v -6.84309 c -1.61573,1.23556 -3.1681,2.1543 -4.6571,2.8196 l -1.01379,-1.52068 a 21.543063,21.543063 0 0 0 5.38576,-3.26314 19.737247,19.737247 0 0 0 4.15021,-4.435339 z m 13.84459,0.823703 -1.07716,1.61573 a 13.749543,13.749543 0 0 0 -5.73425,-2.946329 l 1.10883,-1.710773 c 2.31271,0.887068 4.21357,1.900859 5.70258,3.041372 z m 9.09244,2.12263 a 27.150596,27.150596 0 0 1 -6.90646,7.60343 c -2.28103,1.55237 -4.84719,2.72457 -7.73015,3.57995 l -1.14052,-1.90086 a 20.78272,20.78272 0 0 0 8.64891,-3.80171 23.824093,23.824093 0 0 0 5.67089,-6.84309 z m 20.68767,-4.308615 -1.36228,0.570257 a 10.137912,10.137912 0 0 0 -0.95043,-2.756244 l 1.42565,-0.63362 c 0.38017,0.760343 0.69698,1.679092 0.88706,2.819607 z m -2.21766,0.823705 -0.82371,0.411853 0.76034,0.760347 a 17.741346,17.741346 0 0 1 -3.4849,8.39546 19.103628,19.103628 0 0 1 -7.60344,5.44912 l -1.39396,-1.74245 a 17.646303,17.646303 0 0 0 7.06486,-4.21357 c 1.67909,-1.77414 2.85128,-4.05517 3.38986,-6.77973 h -7.47671 c -1.26724,1.86918 -2.53448,3.19978 -3.80172,4.02348 l -1.45732,-1.3306 a 15.872168,15.872168 0 0 0 5.92434,-7.88856 l 1.74245,0.855387 a 19.008585,19.008585 0 0 1 -1.23555,2.471116 h 6.96981 a 10.169593,10.169593 0 0 0 -0.95043,-2.59784 l 1.48901,-0.63362 c 0.38017,0.760344 0.6653,1.710773 0.88707,2.819607 z m 14.09803,-0.411853 -0.63362,1.900863 a 14.921739,14.921739 0 0 0 -6.14611,-1.964224 l 0.63362,-1.900859 c 2.59784,0.538577 4.6571,1.203877 6.14611,1.96422 z m 7.88856,4.023483 a 25.534866,25.534866 0 0 1 -6.27283,7.19158 24.71116,24.71116 0 0 1 -8.39546,3.99181 l -0.95043,-1.90086 a 22.937026,22.937026 0 0 0 8.55386,-3.80172 18.565051,18.565051 0 0 0 5.48081,-6.74805 z m -9.8211,1.20388 -0.69698,1.96422 a 12.67239,12.67239 0 0 0 -6.01939,-2.12263 l 0.63362,-1.86917 c 2.5028,0.47521 4.53038,1.14051 6.11443,2.02758 z m 30.95231,8.71227 -1.58405,1.17219 a 24.267627,24.267627 0 0 0 -6.81141,-6.55796 28.829687,28.829687 0 0 1 -7.73015,6.90645 l -1.42565,-1.489 a 25.186375,25.186375 0 0 0 11.21507,-12.894159 h -10.07455 v -1.774135 h 11.817 l 0.53858,0.538577 c -0.72867,2.661207 -1.8375,5.068957 -3.26314,7.223267 2.78792,1.83749 5.22736,4.11852 7.28662,6.87477 z m 17.23445,-13.052565 h -12.86247 v -1.869178 h 12.86247 z m 2.02758,5.132315 h -7.1599 v 0.82371 c 0,4.11853 -1.74245,7.06486 -5.25904,8.80731 l -1.42564,-1.64741 c 1.58405,-0.60194 2.81961,-1.48901 3.64331,-2.6612 0.82371,-1.1722 1.23556,-2.59784 1.23556,-4.27693 0,-0.47522 0,-0.82371 -0.0634,-1.04548 h -7.79352 v -1.90086 h 16.82259 z m 20.52928,8.14201 -1.80582,0.76035 c -0.22177,-0.85539 -0.60194,-1.80582 -1.07715,-2.78793 -6.74805,0.69698 -11.34179,1.26724 -13.68618,1.74245 l -0.5069,-1.9959 2.31271,-0.28513 5.25904,-13.622815 1.6791,0.63362 -4.91056,12.735755 8.80732,-1.01379 a 20.307505,20.307505 0 0 0 -3.10474,-4.68879 l 1.86918,-0.8237 c 1.77413,2.31271 3.48491,5.41744 5.164,9.34588 z M 407.654,91.333218 a 0.79202437,0.79202437 0 0 1 0,-1.552367 h 196.92894 a 0.79202437,0.79202437 0 0 1 0,1.584048 z m 0,-29.463306 h 4.30862 l 3.3265,12.989199 h 0.0634 V 61.869912 h 3.04137 v 21.764829 h -3.51658 l -4.11853,-15.903849 h -0.0634 V 83.634741 H 407.654 Z m 13.30601,0 h 9.02908 v 3.073054 h -5.60753 v 6.082747 h 4.40365 v 3.104736 h -4.43533 v 9.504292 h -3.42155 z m 15.52368,22.049958 c -1.64741,0 -2.91465,-0.443533 -3.77003,-1.393963 -0.85539,-0.950429 -1.26724,-2.217668 -1.26724,-3.960122 V 66.875506 c 0,-1.679092 0.41185,-3.009693 1.26724,-3.960122 0.85538,-0.918748 2.12262,-1.393963 3.77003,-1.393963 1.61573,0 2.85129,0.475215 3.73836,1.393963 0.85538,0.950429 1.26724,2.28103 1.26724,3.960122 v 2.312711 h -3.19978 v -2.534478 c 0,-1.330601 -0.57026,-2.027583 -1.71078,-2.027583 -1.14051,0 -1.71077,0.696982 -1.71077,2.027583 v 12.165494 c 0,1.330601 0.57026,1.995902 1.71077,1.995902 1.14052,0 1.71078,-0.63362 1.71078,-1.995902 v -3.326502 h 3.23146 v 3.073054 c 0,1.710773 -0.44354,3.041374 -1.29892,3.960122 -0.85539,0.95043 -2.12263,1.393963 -3.73836,1.393963 z m 12.03877,-22.081639 h 3.45323 v 18.691775 h 5.63921 v 3.104735 h -9.06076 z m 15.52368,22.081639 c -1.64741,0 -2.94633,-0.475214 -3.80172,-1.425644 a 5.7025755,5.7025755 0 0 1 -1.36228,-4.023483 V 67.00223 c 0,-1.742454 0.44353,-3.073055 1.3306,-4.055165 0.88707,-0.950429 2.18599,-1.425644 3.86508,-1.425644 1.67909,0 2.94633,0.475215 3.86508,1.425644 0.88707,0.950429 1.3306,2.312711 1.3306,4.055165 v 11.468513 c 0,1.742453 -0.44353,3.073054 -1.3306,4.023483 -0.91875,0.95043 -2.21767,1.425644 -3.86508,1.425644 z m 0,-3.104735 c 1.20388,0 1.80582,-0.696982 1.80582,-2.154307 V 66.780463 c 0,-1.425644 -0.60194,-2.154307 -1.77414,-2.154307 -1.1722,0 -1.77413,0.728663 -1.77413,2.154307 v 11.880365 c 0,1.457325 0.60193,2.154307 1.77413,2.154307 z m 10.13791,-18.976904 h 4.59374 l 3.54827,21.79651 h -3.42154 l -0.63362,-4.340293 v 0.06336 h -3.86508 l -0.63362,4.276931 h -3.1681 z m 3.70668,14.573248 -1.52069,-10.771531 h -0.0634 l -1.48901,10.771531 z m 6.08274,-14.573248 h 5.22736 c 1.71078,0 2.97802,0.475214 3.8334,1.362282 0.85539,0.950429 1.26724,2.249349 1.26724,4.023483 v 11.02498 c 0,1.742453 -0.41185,3.104735 -1.26724,3.991803 -0.85538,0.950429 -2.12262,1.393962 -3.80172,1.393962 h -5.25904 z m 5.19568,18.691775 c 0.53858,0 0.95043,-0.190086 1.26724,-0.506896 0.31681,-0.316809 0.47522,-0.887067 0.47522,-1.615729 V 67.065592 c 0,-0.728663 -0.15841,-1.267239 -0.47522,-1.61573 -0.31681,-0.31681 -0.72866,-0.506896 -1.26724,-0.506896 h -1.74245 v 15.555359 z m 7.44503,-18.691775 h 3.42155 v 21.79651 h -3.42155 z m 5.98771,0 h 4.27693 l 3.3265,13.052561 h 0.0634 V 61.838231 h 3.07306 v 21.79651 h -3.51659 l -4.11853,-15.903849 h -0.0634 v 15.903849 h -3.04137 z M 520.7234,83.91987 c -1.64741,0 -2.91465,-0.443533 -3.80171,-1.393963 -0.85539,-0.950429 -1.26724,-2.312711 -1.26724,-4.055164 V 67.00223 c 0,-1.774135 0.41185,-3.104736 1.26724,-4.055165 0.88706,-0.950429 2.1543,-1.425644 3.80171,-1.425644 1.6791,0 2.94633,0.475215 3.80172,1.425644 0.88707,0.950429 1.3306,2.28103 1.3306,4.055165 v 1.900858 h -3.26314 v -2.122625 c 0,-1.425644 -0.57026,-2.154307 -1.77413,-2.154307 -1.1722,0 -1.77414,0.728663 -1.77414,2.154307 v 11.912046 c 0,1.425644 0.63362,2.122626 1.77414,2.122626 1.20387,0 1.77413,-0.696982 1.77413,-2.122626 v -4.24525 h -1.71077 v -3.104736 h 4.97391 v 7.12822 c 0,1.742453 -0.44353,3.104735 -1.3306,4.055164 -0.85539,0.95043 -2.12262,1.393963 -3.80172,1.393963 z m 16.75924,0 c -1.64741,0 -2.91465,-0.443533 -3.77004,-1.393963 -0.85538,-0.950429 -1.26724,-2.312711 -1.26724,-4.055164 v -1.267239 h 3.23146 v 1.489005 c 0,1.425644 0.60194,2.122626 1.77414,2.122626 0.57026,0 1.01379,-0.158405 1.3306,-0.506896 0.31681,-0.31681 0.44353,-0.887067 0.44353,-1.679092 0,-0.887067 -0.22176,-1.710772 -0.63362,-2.407754 a 11.500194,11.500194 0 0 0 -2.28103,-2.502797 c -1.42564,-1.235558 -2.40775,-2.376073 -2.97801,-3.358183 a 6.8747716,6.8747716 0 0 1 -0.8237,-3.421545 c 0,-1.710773 0.44353,-3.041374 1.29892,-3.991803 0.88706,-0.950429 2.12262,-1.425644 3.80171,-1.425644 1.64741,0 2.85129,0.475215 3.70668,1.425644 0.85538,0.950429 1.26724,2.28103 1.26724,4.055165 v 0.918748 h -3.23146 v -1.140515 c 0,-0.728663 -0.15841,-1.267239 -0.44354,-1.61573 -0.28513,-0.348491 -0.69698,-0.538577 -1.26724,-0.538577 -1.14051,0 -1.71077,0.696982 -1.71077,2.090945 0,0.792024 0.22177,1.520687 0.63362,2.217668 0.41185,0.696981 1.20388,1.520687 2.31271,2.502797 1.42565,1.235558 2.40776,2.376073 2.94633,3.389864 0.53858,1.013792 0.82371,2.217669 0.82371,3.579951 0,1.774134 -0.44354,3.168097 -1.3306,4.118526 -0.88707,0.95043 -2.15431,1.393963 -3.8334,1.393963 z m 10.07455,-9.567654 -4.11853,-12.513985 h 3.61163 l 2.3444,8.015286 h 0.0634 l 2.34439,-8.015286 h 3.3265 l -4.11852,12.513985 v 9.282525 h -3.45323 z m 13.08424,9.567654 c -1.67909,0 -2.91465,-0.443533 -3.80171,-1.393963 -0.82371,-0.950429 -1.26724,-2.312711 -1.26724,-4.055164 v -1.267239 h 3.26314 v 1.489005 c 0,1.425644 0.57025,2.122626 1.77413,2.122626 0.57026,0 1.01379,-0.158405 1.29892,-0.506896 0.31681,-0.31681 0.47522,-0.887067 0.47522,-1.679092 0,-0.887067 -0.22177,-1.710772 -0.63362,-2.407754 a 11.500194,11.500194 0 0 0 -2.31271,-2.502797 c -1.39397,-1.235558 -2.37608,-2.376073 -2.94634,-3.358183 a 6.8747716,6.8747716 0 0 1 -0.8237,-3.421545 c 0,-1.710773 0.41185,-3.041374 1.26724,-3.991803 0.88707,-0.950429 2.1543,-1.425644 3.80172,-1.425644 1.64741,0 2.88296,0.475215 3.73835,1.425644 0.85539,0.950429 1.26724,2.28103 1.26724,4.055165 v 0.918748 h -3.23146 v -1.140515 c 0,-0.728663 -0.1584,-1.267239 -0.44353,-1.61573 -0.31681,-0.348491 -0.72867,-0.538577 -1.26724,-0.538577 -1.14052,0 -1.71078,0.696982 -1.71078,2.090945 0,0.792024 0.19009,1.520687 0.63362,2.217668 0.41186,0.696981 1.20388,1.520687 2.31272,2.502797 1.42564,1.235558 2.40775,2.376073 2.94633,3.389864 0.53857,1.013792 0.8237,2.217669 0.8237,3.579951 0,1.774134 -0.44353,3.168097 -1.3306,4.118526 -0.88707,0.95043 -2.15431,1.393963 -3.8334,1.393963 z m 9.8211,-18.976904 h -3.61163 v -3.104735 h 10.58145 v 3.104735 h -3.57995 v 18.691775 h -3.42155 z m 8.61723,-3.104735 h 9.34589 v 3.104735 h -5.92434 v 5.765938 h 4.72046 v 3.104735 h -4.72046 v 6.684686 h 5.92434 v 3.136416 h -9.34589 z m 11.31011,0 h 4.87887 l 2.18599,15.587039 h 0.0634 l 2.1543,-15.587039 h 4.91055 v 21.79651 H 601.3198 V 67.097272 h -0.0317 l -2.53447,16.474107 h -2.85129 l -2.47112,-16.474107 h -0.0634 v 16.474107 h -2.97801 z"
   style="stroke:none;stroke-width:1;stroke-opacity:1" />
  <path
   id="path5"
   fill="url(#a)"
   d="M 41.890812,18.44797 V 50.453355 H 32.290209 V 18.44797 Z m -4.795233,25.608363 a 1.6017901,1.6017901 0 1 0 0,3.193442 1.6017901,1.6017901 0 0 0 0,-3.20358 z M 179.51297,18.44797 v 31.995248 h -9.60061 V 18.44797 Z m -4.80537,25.588087 a 1.6017901,1.6017901 0 1 0 0,3.20358 1.6017901,1.6017901 0 0 0 0,-3.20358 z M 496.03886,18.44797 v 31.995248 h -9.60061 V 18.44797 Z m -4.80537,25.588087 a 1.6017901,1.6017901 0 1 0 0,3.20358 1.6017901,1.6017901 0 0 0 0,-3.20358 z M 330.89227,18.458108 v 31.995247 h -9.6006 V 18.44797 Z m -4.79523,25.588087 a 1.6017901,1.6017901 0 1 0 0,3.20358 1.6017901,1.6017901 0 0 0 0,-3.20358 z M 83.182527,18.458108 V 50.453355 H 73.581924 V 18.44797 Z m -4.80537,25.588087 a 1.6017901,1.6017901 0 1 0 0,3.20358 1.6017901,1.6017901 0 0 0 0,-3.20358 z M 220.79454,18.458108 v 31.995247 h -9.6006 V 18.44797 Z m -4.79523,25.588087 a 1.6017901,1.6017901 0 1 0 0,3.20358 1.6017901,1.6017901 0 0 0 0,-3.20358 z M 537.32043,18.458108 v 31.995247 h -9.6006 V 18.44797 Z m -4.79523,25.588087 a 1.6017901,1.6017901 0 1 0 0,3.20358 1.6017901,1.6017901 0 0 0 0,-3.20358 z M 372.18398,18.458108 v 31.995247 h -9.6006 V 18.44797 Z m -4.80537,25.588087 a 1.6017901,1.6017901 0 1 0 0,3.20358 1.6017901,1.6017901 0 0 0 0,-3.20358 z M 124.47424,18.458108 V 50.453355 H 114.8635 V 18.44797 Z m -4.80537,25.588087 a 1.6017901,1.6017901 0 1 0 0,3.20358 1.6017901,1.6017901 0 0 0 0,-3.20358 z M 262.08626,18.458108 v 31.995247 h -9.6006 V 18.44797 Z m -4.80537,25.588087 a 1.6017901,1.6017901 0 1 0 0,3.20358 1.6017901,1.6017901 0 0 0 0,-3.20358 z M 578.61215,18.458108 v 31.995247 h -9.6006 V 18.44797 Z m -4.80537,25.588087 a 1.6017901,1.6017901 0 1 0 0,3.20358 1.6017901,1.6017901 0 0 0 0,-3.20358 z M 413.46556,18.458108 v 31.995247 h -9.6006 V 18.44797 Z m -4.80537,25.588087 a 1.6017901,1.6017901 0 1 0 0,3.20358 1.6017901,1.6017901 0 0 0 0,-3.20358 z M 151.98854,18.458108 v 31.995247 h -9.60061 V 18.44797 Z m -4.79524,25.588087 a 1.6017901,1.6017901 0 1 0 0,3.20358 1.6017901,1.6017901 0 0 0 0,-3.20358 z M 468.51442,18.458108 v 31.995247 h -9.6006 V 18.44797 Z m -4.80537,25.588087 a 1.6017901,1.6017901 0 1 0 0,3.20358 1.6017901,1.6017901 0 0 0 0,-3.20358 z M 289.61069,18.458108 v 31.995247 h -9.6006 V 18.44797 Z m -4.80537,25.588087 a 1.6017901,1.6017901 0 1 0 0,3.20358 1.6017901,1.6017901 0 0 0 0,-3.20358 z M 606.13658,18.458108 v 31.995247 h -9.6006 V 18.44797 Z m -4.80537,25.588087 a 1.6017901,1.6017901 0 1 0 0,3.20358 1.6017901,1.6017901 0 0 0 0,-3.20358 z M 440.98999,18.458108 v 31.995247 h -9.6006 V 18.44797 Z m -4.80537,25.588087 a 1.6017901,1.6017901 0 1 0 0,3.20358 1.6017901,1.6017901 0 0 0 0,-3.20358 z M 96.939674,18.458108 V 50.453355 H 87.339071 V 18.44797 Z m -4.795233,25.588087 a 1.6017901,1.6017901 0 1 0 0,3.20358 1.6017901,1.6017901 0 0 0 0,-3.20358 z M 234.56183,18.458108 v 31.995247 h -9.6006 V 18.44797 Z m -4.80537,25.588087 a 1.6017901,1.6017901 0 1 0 0,3.20358 1.6017901,1.6017901 0 0 0 0,-3.20358 z M 551.08772,18.458108 v 31.995247 h -9.60061 V 18.44797 Z m -4.80537,25.588087 a 1.6017901,1.6017901 0 1 0 0,3.20358 1.6017901,1.6017901 0 0 0 0,-3.20358 z M 385.94113,18.458108 v 31.995247 h -9.6006 V 18.44797 Z m -4.79523,25.588087 a 1.6017901,1.6017901 0 1 0 0,3.20358 1.6017901,1.6017901 0 0 0 0,-3.20358 z M 138.23139,18.458108 v 31.995247 h -9.6006 V 18.44797 Z m -4.80537,25.588087 a 1.6017901,1.6017901 0 1 0 0,3.20358 1.6017901,1.6017901 0 0 0 0,-3.20358 z M 275.84341,18.458108 V 50.453355 H 266.2428 V 18.44797 Z m -4.79524,25.588087 a 1.6017901,1.6017901 0 1 0 0,3.20358 1.6017901,1.6017901 0 0 0 0,-3.20358 z M 592.3693,18.458108 v 31.995247 h -9.60061 V 18.44797 Z m -4.79524,25.588087 a 1.6017901,1.6017901 0 1 0 0,3.20358 1.6017901,1.6017901 0 0 0 0,-3.20358 z M 427.23285,18.458108 v 31.995247 h -9.60061 V 18.44797 Z m -4.80537,25.588087 a 1.6017901,1.6017901 0 1 0 0,3.20358 1.6017901,1.6017901 0 0 0 0,-3.20358 z M 165.75582,18.458108 v 31.995247 h -9.6006 V 18.44797 Z m -4.80537,25.588087 a 1.6017901,1.6017901 0 1 0 0,3.20358 1.6017901,1.6017901 0 0 0 0,-3.20358 z M 482.27157,18.458108 v 31.995247 h -9.6006 V 18.44797 Z m -4.79523,25.588087 a 1.6017901,1.6017901 0 1 0 0,3.20358 1.6017901,1.6017901 0 0 0 0,-3.20358 z M 317.13512,18.458108 v 31.995247 h -9.6006 V 18.44797 Z m -4.80537,25.588087 a 1.6017901,1.6017901 0 1 0 0,3.20358 1.6017901,1.6017901 0 0 0 0,-3.20358 z m -8.96191,-25.588087 v 31.995247 h -9.6006 V 18.44797 Z m -4.79523,25.588087 a 1.6017901,1.6017901 0 1 0 0,3.20358 1.6017901,1.6017901 0 0 0 0,-3.20358 z M 454.75728,18.458108 v 31.995247 h -9.6006 V 18.44797 Z m -4.80537,25.588087 a 1.6017901,1.6017901 0 1 0 0,3.20358 1.6017901,1.6017901 0 0 0 0,-3.20358 z M 49.169832,50.453355 H 46.047356 V 18.44797 h 9.600602 v 31.995248 h -2.899443 l -1.246963,5.373093 h -1.094894 z m 1.682894,-6.397022 a 1.6017901,1.6017901 0 1 0 0,3.193442 1.6017901,1.6017901 0 0 0 0,-3.193442 z m 135.939264,6.386885 h -3.11234 V 18.468246 h 9.6006 v 31.995247 h -2.89944 l -1.2571,5.373094 h -1.08476 z m 1.68289,-6.386885 a 1.6017901,1.6017901 0 1 0 0,3.193442 1.6017901,1.6017901 0 0 0 0,-3.193442 z m 314.83286,6.386885 H 500.1954 V 18.468246 h 9.6006 v 31.995247 h -2.8893 l -1.2571,5.373094 h -1.08476 z m 1.69303,-6.386885 a 1.6017901,1.6017901 0 1 0 0,3.193442 1.6017901,1.6017901 0 0 0 0,-3.193442 z m -166.82948,6.386885 h -3.11234 V 18.468246 h 9.6006 v 31.995247 h -2.89944 l -1.24696,5.373094 h -1.0949 z m 1.68289,-6.386885 a 1.6017901,1.6017901 0 1 0 0,3.193442 1.6017901,1.6017901 0 0 0 0,-3.193442 z m -236.7101,6.386885 h -2.03772 V 18.468246 h 9.6006 v 31.995247 h -5.04868 l -1.24696,5.373094 h -1.08476 z m 2.75751,-6.386885 a 1.6017901,1.6017901 0 1 0 0,3.193442 1.6017901,1.6017901 0 0 0 0,-3.193442 z m 134.86464,6.386885 h -2.04786 V 18.468246 h 9.60061 v 31.995247 h -5.02841 l -1.24696,5.373094 h -1.0949 z m 2.75751,-6.386885 a 1.6017901,1.6017901 0 1 0 0,3.193442 1.6017901,1.6017901 0 0 0 0,-3.193442 z m 313.76838,6.386885 h -2.04786 V 18.468246 h 9.6006 v 31.995247 h -5.0284 l -1.24696,5.373094 h -1.0949 z m 2.75751,-6.386885 a 1.6017901,1.6017901 0 1 0 0,3.193442 1.6017901,1.6017901 0 0 0 0,-3.193442 z m -167.9041,6.386885 h -2.03772 V 18.468246 h 9.59047 v 31.995247 h -5.02841 l -1.24696,5.373094 h -1.09489 z m 2.75752,-6.386885 a 1.6017901,1.6017901 0 1 0 0,3.193442 1.6017901,1.6017901 0 0 0 0,-3.193442 z M 65.066078,50.443218 H 59.81464 V 18.468246 h 9.600603 v 31.995247 h -1.824824 l -0.182483,5.373094 H 66.313042 Z M 64.62001,44.056333 a 1.6017901,1.6017901 0 1 0 0,3.193442 1.6017901,1.6017901 0 0 0 0,-3.193442 z m 138.06822,6.386885 H 197.4368 V 18.468246 h 9.6006 v 31.995247 h -1.82483 l -0.19262,5.373094 h -1.08475 z m -0.44606,-6.386885 a 1.6017901,1.6017901 0 1 0 0,3.193442 1.6017901,1.6017901 0 0 0 0,-3.193442 z m 316.96181,6.386885 h -5.2413 V 18.468246 h 9.60061 v 31.995247 h -1.82483 l -0.19262,5.373094 h -1.08475 z m -0.44606,-6.386885 a 1.6017901,1.6017901 0 1 0 0,3.193442 1.6017901,1.6017901 0 0 0 0,-3.193442 z M 354.06754,50.443218 H 348.8161 V 18.468246 h 9.6006 v 31.995247 h -1.82482 l -0.19262,5.373094 h -1.08476 z m -0.44607,-6.386885 a 1.6017901,1.6017901 0 1 0 0,3.193442 1.6017901,1.6017901 0 0 0 0,-3.193442 z"
   style="fill:url(#a);stroke-width:0.32" />
  <defs
   id="defs9">
    <linearGradient
   id="a"
   x1="0"
   x2="1"
   y1="0"
   y2="0"
   gradientTransform="matrix(-470.53192,0,0,-470.4863,580.61946,19.56314)"
   gradientUnits="userSpaceOnUse">
      <stop
   offset="0"
   stop-color="#d7c000"
   id="stop5" />
      <stop
   offset=".34"
   stop-color="#cfb600"
   id="stop6" />
      <stop
   offset=".62"
   stop-color="#ffffbf"
   id="stop7" />
      <stop
   offset=".76"
   stop-color="#e0ca00"
   id="stop8" />
      <stop
   offset="1"
   stop-color="#ffef7a"
   id="stop9" />
    </linearGradient>
  </defs>
</svg>
